<svg enable-background="new 0 0 376.4 235" viewBox="0 0 376.4 235" xmlns="http://www.w3.org/2000/svg" xmlns:xlink="http://www.w3.org/1999/xlink"><linearGradient id="a"><stop offset=".11" stop-color="#1ef7f7"/><stop offset=".99" stop-color="#22007f" stop-opacity="0"/></linearGradient><linearGradient id="b" gradientTransform="matrix(1 0 0 -1 .05 384.04)" gradientUnits="userSpaceOnUse" x1="252.4382" x2="301.5394" xlink:href="#a" y1="287.0956" y2="126.7715"/><linearGradient id="c"><stop offset="0" stop-color="#31f1da"/><stop offset="1" stop-color="#50b7b7" stop-opacity="0"/></linearGradient><radialGradient id="d" cx="212.3798" cy="213.9504" gradientTransform="matrix(91.44 54.43 11.83 -19.87 -21708.9121 -7178.8823)" gradientUnits="userSpaceOnUse" r=".999" xlink:href="#c"/><linearGradient id="e" gradientTransform="matrix(1 0 0 -1 .05 384.04)" gradientUnits="userSpaceOnUse" x1="219.3706" x2="236.9232" xlink:href="#a" y1="281.6888" y2="224.3699"/><linearGradient id="f" gradientTransform="matrix(1 0 0 -1 .05 384.04)" gradientUnits="userSpaceOnUse" x1="194.3706" x2="211.9232" xlink:href="#a" y1="305.9888" y2="248.6699"/><linearGradient id="g" gradientTransform="matrix(1 0 0 -1 .05 384.04)" gradientUnits="userSpaceOnUse" x1="189.1706" x2="206.7206" xlink:href="#a" y1="263.8888" y2="206.5788"/><radialGradient id="h" cx="212.3793" cy="213.9504" gradientTransform="matrix(91.44 54.43 11.83 -19.87 -21724.9434 -7152.9927)" gradientUnits="userSpaceOnUse" r=".9992" xlink:href="#c"/><linearGradient id="i" gradientTransform="matrix(1 0 0 -1 .05 384.04)" gradientUnits="userSpaceOnUse" x1="203.2705" x2="220.8233" xlink:href="#a" y1="255.7888" y2="198.4698"/><linearGradient id="j" gradientTransform="matrix(1 0 0 -1 .05 384.04)" gradientUnits="userSpaceOnUse" x1=".45" x2="231.65" y1="302.4624" y2="302.4624"><stop offset="0" stop-color="#2e629b"/><stop offset=".21" stop-color="#185c95"/><stop offset=".49" stop-color="#00568e"/><stop offset=".61" stop-color="#025288"/><stop offset=".76" stop-color="#084977"/><stop offset=".94" stop-color="#12385b"/><stop offset=".97" stop-color="#143555"/></linearGradient><linearGradient id="k" gradientTransform="matrix(1 0 0 -1 .05 384.04)" gradientUnits="userSpaceOnUse" x1="79.85" x2="231.45" xlink:href="#a" y1="322.14" y2="322.14"/><path d="m374.3 235-189.6-99.2c-4.8-2.7-6.6-8.8-3.9-13.6.1-.2.2-.4.4-.6 3.2-5 9.7-6.7 14.9-3.8l180.3 114z" fill="url(#b)"/><path d="m334 183.5c-7 10.7-53.6-5-104.1-35.1s-85.8-63.1-78.8-73.8 53.6 5 104.1 35.1 85.8 63.1 78.8 73.8z" fill="url(#d)" opacity=".12"/><path d="m157 73.1h143v115h-143z" fill="none"/><path d="m263 151.7-67.8-35.4c-1.7-1-2.4-3.2-1.4-4.9 0-.1.1-.1.1-.2 1.1-1.8 3.4-2.4 5.3-1.4l64.5 40.7z" fill="url(#e)"/><path d="m153 51.3h143v116h-143z" fill="none"/><path d="m238 127.4-67.8-35.4c-1.7-1-2.4-3.2-1.4-4.9 0-.1.1-.1.1-.2 1.1-1.8 3.4-2.4 5.3-1.4l64.5 40.7z" fill="url(#f)"/><path d="m127 90.3h143v116h-143z" fill="none"/><path d="m232.8 169.6-67.8-35.5c-1.7-1-2.4-3.2-1.4-4.9 0-.1.1-.1.1-.2 1.1-1.8 3.4-2.4 5.3-1.4l64.5 40.7z" fill="url(#g)"/><path d="m317.9 209.4c-7 10.7-53.6-5-104.1-35.1s-85.8-63.1-78.8-73.8 53.6 5 104.1 35.1 85.9 63.1 78.8 73.8z" fill="url(#h)" opacity=".12"/><path d="m162 102.3h143v115h-143z" fill="none"/><path d="m246.9 177.6-67.8-35.4c-1.7-1-2.4-3.2-1.4-4.9 0-.1.1-.1.1-.2 1.1-1.8 3.4-2.4 5.3-1.4l64.5 40.7z" fill="url(#i)"/><path d="m198.4 161.9c-96.7-12.2-188.7-85.9-197.9-153.4 63.1-25.4 172.7 18.2 231.2 96.2z" fill="url(#j)"/><path d="m79.9 6c70 27.1 125.7 77.8 144.1 111.8l7.5-13c-37.8-50.5-97.3-86.6-151.6-98.8z" fill="url(#k)" opacity=".28"/><path d="m93 94.1 27.6-15.7.1-31.8-27.5-16-27.6 15.8-.1 31.8z" fill="#c7e4e8"/><path d="m235 151.2-20.5-11.2s-68-37.9-64.2-44.3 70.3 34 70.3 34l19.9 12.2z" fill="#78d1db"/><path d="m219.5 138.7 23.4 15.2-4 6.9-24.9-12.8z" fill="#57a7b0"/><path d="m71 58.8 11.5 3.3v20.3l-11.6-6.7z" fill="#f1f2f2" opacity=".8"/><path d="m198.4 161.9c-96.7-12.2-188.7-85.9-197.9-153.4 63.1-25.4 172.7 18.2 231.2 96.2z" fill="none" stroke="#3165af" stroke-miterlimit="10"/><path d="m126.6 136.4 43.7 79.6 39.3 3.8-11.2-57.9z" fill="#60b9c3"/><path d="m138.1 157.3 32.2 58.7 21 2.2-41.7-54.3z" fill="#78d1db"/><path d="m126.6 136.4 43.7 79.6 39.3 3.8-11.2-57.9z" fill="none" stroke="#3165af" stroke-miterlimit="10"/><path d="m154.6 52.7 89.2-2.3 22.8 32.2-55.9 18.9z" fill="#47a5b3"/><path d="m177.2 52.1 66.6-1.7 12.6 17.8-67.8-9.4z" fill="#70c3cc"/><g fill="none" stroke="#3165af" stroke-miterlimit="10"><path d="m154.6 52.7 89.2-2.3 22.8 32.2-55.9 18.9z"/><path d="m93 94.2 27.6-15.8.1-31.7-27.5-16-27.6 15.8-.1 31.8z"/></g></svg>