<?xml version="1.0" encoding="utf-8"?>
<!-- Generator: Adobe Illustrator 24.1.0, SVG Export Plug-In . SVG Version: 6.00 Build 0)  -->
<svg version="1.1" id="Layer_1" xmlns="http://www.w3.org/2000/svg" xmlns:xlink="http://www.w3.org/1999/xlink" x="0px" y="0px"
	 viewBox="0 0 376.4 235" style="enable-background:new 0 0 376.4 235;" xml:space="preserve">
<style type="text/css">
	.st0{fill:url(#SVGID_1_);}
	.st1{opacity:0.12;fill:url(#SVGID_2_);enable-background:new    ;}
	.st2{fill:none;}
	.st3{fill:url(#SVGID_3_);}
	.st4{fill:url(#SVGID_4_);}
	.st5{fill:url(#SVGID_5_);}
	.st6{opacity:0.12;fill:url(#SVGID_6_);enable-background:new    ;}
	.st7{fill:url(#SVGID_7_);}
	.st8{fill:url(#SVGID_8_);}
	.st9{opacity:0.28;fill:url(#SVGID_9_);enable-background:new    ;}
	.st10{fill:#C7E4E8;}
	.st11{fill:#78D1DB;}
	.st12{fill:#57A7B0;}
	.st13{opacity:0.8;fill:#F1F2F2;enable-background:new    ;}
	.st14{fill:none;stroke:#3165AF;stroke-miterlimit:10;}
	.st15{fill:#60B9C3;}
	.st16{fill:#47A5B3;}
	.st17{fill:#70C3CC;}
</style>
<linearGradient id="SVGID_1_" gradientUnits="userSpaceOnUse" x1="252.4382" y1="287.0956" x2="301.5394" y2="126.7715" gradientTransform="matrix(1 0 0 -1 5.000000e-02 384.04)">
	<stop  offset="0.11" style="stop-color:#1EF7F7"/>
	<stop  offset="0.99" style="stop-color:#22007F;stop-opacity:0"/>
</linearGradient>
<path class="st0" d="M374.3,235l-189.6-99.2c-4.8-2.7-6.6-8.8-3.9-13.6c0.1-0.2,0.2-0.4,0.4-0.6c3.2-5,9.7-6.7,14.9-3.8l180.3,114
	L374.3,235z"/>
<radialGradient id="SVGID_2_" cx="212.3798" cy="213.9504" r="0.999" gradientTransform="matrix(91.44 54.43 11.83 -19.87 -21708.9121 -7178.8823)" gradientUnits="userSpaceOnUse">
	<stop  offset="0" style="stop-color:#31F1DA"/>
	<stop  offset="1" style="stop-color:#50B7B7;stop-opacity:0"/>
</radialGradient>
<path class="st1" d="M334,183.5c-7,10.7-53.6-5-104.1-35.1s-85.8-63.1-78.8-73.8s53.6,5,104.1,35.1S341,172.8,334,183.5z"/>
<rect x="157" y="73.1" class="st2" width="143" height="115"/>
<linearGradient id="SVGID_3_" gradientUnits="userSpaceOnUse" x1="219.3706" y1="281.6888" x2="236.9232" y2="224.3699" gradientTransform="matrix(1 0 0 -1 5.000000e-02 384.04)">
	<stop  offset="0.11" style="stop-color:#1EF7F7"/>
	<stop  offset="0.99" style="stop-color:#22007F;stop-opacity:0"/>
</linearGradient>
<path class="st3" d="M263,151.7l-67.8-35.4c-1.7-1-2.4-3.2-1.4-4.9c0-0.1,0.1-0.1,0.1-0.2c1.1-1.8,3.4-2.4,5.3-1.4l64.5,40.7
	L263,151.7z"/>
<rect x="153" y="51.3" class="st2" width="143" height="116"/>
<linearGradient id="SVGID_4_" gradientUnits="userSpaceOnUse" x1="194.3706" y1="305.9888" x2="211.9232" y2="248.6699" gradientTransform="matrix(1 0 0 -1 5.000000e-02 384.04)">
	<stop  offset="0.11" style="stop-color:#1EF7F7"/>
	<stop  offset="0.99" style="stop-color:#22007F;stop-opacity:0"/>
</linearGradient>
<path class="st4" d="M238,127.4L170.2,92c-1.7-1-2.4-3.2-1.4-4.9c0-0.1,0.1-0.1,0.1-0.2c1.1-1.8,3.4-2.4,5.3-1.4l64.5,40.7
	L238,127.4z"/>
<rect x="127" y="90.3" class="st2" width="143" height="116"/>
<linearGradient id="SVGID_5_" gradientUnits="userSpaceOnUse" x1="189.1706" y1="263.8888" x2="206.7206" y2="206.5788" gradientTransform="matrix(1 0 0 -1 5.000000e-02 384.04)">
	<stop  offset="0.11" style="stop-color:#1EF7F7"/>
	<stop  offset="0.99" style="stop-color:#22007F;stop-opacity:0"/>
</linearGradient>
<path class="st5" d="M232.8,169.6L165,134.1c-1.7-1-2.4-3.2-1.4-4.9c0-0.1,0.1-0.1,0.1-0.2c1.1-1.8,3.4-2.4,5.3-1.4l64.5,40.7
	L232.8,169.6z"/>
<radialGradient id="SVGID_6_" cx="212.3793" cy="213.9504" r="0.9992" gradientTransform="matrix(91.44 54.43 11.83 -19.87 -21724.9434 -7152.9927)" gradientUnits="userSpaceOnUse">
	<stop  offset="0" style="stop-color:#31F1DA"/>
	<stop  offset="1" style="stop-color:#50B7B7;stop-opacity:0"/>
</radialGradient>
<path class="st6" d="M317.9,209.4c-7,10.7-53.6-5-104.1-35.1S128,111.2,135,100.5s53.6,5,104.1,35.1S325,198.7,317.9,209.4z"/>
<rect x="162" y="102.3" class="st2" width="143" height="115"/>
<linearGradient id="SVGID_7_" gradientUnits="userSpaceOnUse" x1="203.2705" y1="255.7888" x2="220.8233" y2="198.4698" gradientTransform="matrix(1 0 0 -1 5.000000e-02 384.04)">
	<stop  offset="0.11" style="stop-color:#1EF7F7"/>
	<stop  offset="0.99" style="stop-color:#22007F;stop-opacity:0"/>
</linearGradient>
<path class="st7" d="M246.9,177.6l-67.8-35.4c-1.7-1-2.4-3.2-1.4-4.9c0-0.1,0.1-0.1,0.1-0.2c1.1-1.8,3.4-2.4,5.3-1.4l64.5,40.7
	L246.9,177.6z"/>
<linearGradient id="SVGID_8_" gradientUnits="userSpaceOnUse" x1="0.45" y1="302.4624" x2="231.65" y2="302.4624" gradientTransform="matrix(1 0 0 -1 5.000000e-02 384.04)">
	<stop  offset="0" style="stop-color:#2E629B"/>
	<stop  offset="0.21" style="stop-color:#185C95"/>
	<stop  offset="0.49" style="stop-color:#00568E"/>
	<stop  offset="0.61" style="stop-color:#025288"/>
	<stop  offset="0.76" style="stop-color:#084977"/>
	<stop  offset="0.94" style="stop-color:#12385B"/>
	<stop  offset="0.97" style="stop-color:#143555"/>
</linearGradient>
<path class="st8" d="M198.4,161.9C101.7,149.7,9.7,76,0.5,8.5c63.1-25.4,172.7,18.2,231.2,96.2L198.4,161.9z"/>
<linearGradient id="SVGID_9_" gradientUnits="userSpaceOnUse" x1="79.85" y1="322.14" x2="231.45" y2="322.14" gradientTransform="matrix(1 0 0 -1 5.000000e-02 384.04)">
	<stop  offset="0.11" style="stop-color:#1EF7F7"/>
	<stop  offset="0.99" style="stop-color:#22007F;stop-opacity:0"/>
</linearGradient>
<path class="st9" d="M79.9,6c70,27.1,125.7,77.8,144.1,111.8l7.5-13C193.7,54.3,134.2,18.2,79.9,6z"/>
<path class="st10" d="M93,94.1l27.6-15.7l0.1-31.8l-27.5-16L65.6,46.4l-0.1,31.8L93,94.1z"/>
<path class="st11" d="M235,151.2L214.5,140c0,0-68-37.9-64.2-44.3s70.3,34,70.3,34l19.9,12.2L235,151.2z"/>
<path class="st12" d="M219.5,138.7l23.4,15.2l-4,6.9L214,148L219.5,138.7z"/>
<path class="st13" d="M71,58.8l11.5,3.3v20.3l-11.6-6.7L71,58.8z"/>
<path class="st14" d="M198.4,161.9C101.7,149.7,9.7,76,0.5,8.5c63.1-25.4,172.7,18.2,231.2,96.2L198.4,161.9z"/>
<path class="st15" d="M126.6,136.4l43.7,79.6l39.3,3.8l-11.2-57.9L126.6,136.4z"/>
<path class="st11" d="M138.1,157.3l32.2,58.7l21,2.2l-41.7-54.3L138.1,157.3z"/>
<path class="st14" d="M126.6,136.4l43.7,79.6l39.3,3.8l-11.2-57.9L126.6,136.4z"/>
<path class="st16" d="M154.6,52.7l89.2-2.3l22.8,32.2l-55.9,18.9L154.6,52.7z"/>
<path class="st17" d="M177.2,52.1l66.6-1.7l12.6,17.8l-67.8-9.4L177.2,52.1z"/>
<path class="st14" d="M154.6,52.7l89.2-2.3l22.8,32.2l-55.9,18.9L154.6,52.7z"/>
<path class="st14" d="M93,94.2l27.6-15.8l0.1-31.7l-27.5-16L65.6,46.5l-0.1,31.8L93,94.2z"/>
</svg>
