<svg xmlns="http://www.w3.org/2000/svg" width="30.9" height="30.9" viewBox="0 0 30.9 30.9"><style>.st0{fill:#6ccad0}</style><path class="st0" d="M0 15.45A15.45 15.45 0 1 1 15.45 30.9 15.457 15.457 0 0 1 0 15.45zm12.623 8.15a10.527 10.527 0 0 0 10.6-10.6c0-.162 0-.324-.007-.479a7.629 7.629 0 0 0 1.861-1.931 7.548 7.548 0 0 1-2.139.587 3.724 3.724 0 0 0 1.637-2.062 7.559 7.559 0 0 1-2.364.9 3.727 3.727 0 0 0-6.442 2.55 3.432 3.432 0 0 0 .1.849 10.561 10.561 0 0 1-7.678-3.893 3.721 3.721 0 0 0 1.158 4.967 3.655 3.655 0 0 1-1.684-.463v.046a3.73 3.73 0 0 0 2.99 3.654 3.712 3.712 0 0 1-.981.131 3.572 3.572 0 0 1-.7-.069 3.719 3.719 0 0 0 3.476 2.588 7.491 7.491 0 0 1-4.627 1.591 6.885 6.885 0 0 1-.889-.054 10.379 10.379 0 0 0 5.689 1.688z" fill-rule="evenodd"/></svg>