<?xml version="1.0" encoding="utf-8"?>
<!-- Generator: Adobe Illustrator 19.1.0, SVG Export Plug-In . SVG Version: 6.00 Build 0)  -->
<svg version="1.1" id="Layer_1" xmlns="http://www.w3.org/2000/svg" xmlns:xlink="http://www.w3.org/1999/xlink" x="0px" y="0px"
	 width="30.8px" height="30.9px" viewBox="0 0 30.8 30.9" style="enable-background:new 0 0 30.8 30.9;" xml:space="preserve">
<style type="text/css">
	.st0{opacity:0.5;fill:#FFFFFF;}
	.st1{opacity:0.7;fill:#FFFFFF;}
	.st2{opacity:0.6;fill:#FFFFFF;}
	.st3{opacity:0.65;fill:#FFFFFF;}
	.st4{opacity:0.3;fill:#FFFFFF;}
	.st5{fill:#6CCAD0;}
</style>
<g>
	<g>
		<path class="st5" d="M30.9,15.5C30.9,7,23.9,0,15.4,0C6.9,0,0,7,0,15.5C0,23.4,6,30,13.7,30.8V19h-2.6v-4.4h2.6c0,0,0-3,0-3.6
			c0-0.7-0.1-5.1,5.5-5.1c0.8,0,2.5,0,4,0c0,1.9,0,4,0,4.6c-1.1,0-2.4,0-2.9,0c-0.6,0-1.2,0.6-1.2,1.1c0,0.5,0,3,0,3s3.6,0,4.1,0
			c-0.2,2.3-0.5,4.4-0.5,4.4h-3.6v11.4C25.9,28.8,30.9,22.7,30.9,15.5z"/>
	</g>
</g>
</svg>
