<?xml version="1.0" encoding="utf-8"?>
<!-- Generator: Adobe Illustrator 19.1.0, SVG Export Plug-In . SVG Version: 6.00 Build 0)  -->
<svg version="1.1" id="Layer_1" xmlns="http://www.w3.org/2000/svg" xmlns:xlink="http://www.w3.org/1999/xlink" x="0px" y="0px"
	 width="30.9px" height="30.9px" viewBox="0 0 30.9 30.9" style="enable-background:new 0 0 30.9 30.9;" xml:space="preserve">
<style type="text/css">
	.st0{opacity:0.5;fill:#FFFFFF;}
	.st1{opacity:0.7;fill:#FFFFFF;}
	.st2{opacity:0.6;fill:#FFFFFF;}
	.st3{opacity:0.65;fill:#FFFFFF;}
	.st4{opacity:0.3;fill:#FFFFFF;}
	.st5{fill:#6CCAD0;}
</style>
<g>
	<g>
		<circle class="st5" cx="20.8" cy="12.3" r="1.3"/>
		<path class="st5" d="M15.4,0C6.9,0,0,6.9,0,15.4c0,8.5,6.9,15.4,15.4,15.4c8.5,0,15.4-6.9,15.4-15.4C30.9,6.9,23.9,0,15.4,0z
			 M23.8,15.4c-0.3,0.5-0.7,1-1.2,1.4c-0.7,1.8-2.9,5.3-8.7,5.3c-7.8,0-10.3-5.7-10.3-5.7s3.5,1.7,7.3,0.4c-3.1-1.3-3.8-5.3-2.2-3.8
			c1.2,1.2,4.1,1.3,6,1.2c0.2-0.2,0.4-0.5,0.6-0.8c0,0,0-0.1,0-0.1c0-2.5,2-4.5,4.5-4.5c2.4,0,4.4,1.9,4.5,4.2l2.9,1.4L23.8,15.4z"
			/>
	</g>
</g>
</svg>
