<?xml version="1.0" encoding="utf-8"?>
<!-- Generator: Adobe Illustrator 19.1.0, SVG Export Plug-In . SVG Version: 6.00 Build 0)  -->
<svg version="1.1" id="Layer_1" xmlns="http://www.w3.org/2000/svg" xmlns:xlink="http://www.w3.org/1999/xlink" x="0px" y="0px"
	 width="30.9px" height="30.9px" viewBox="0 0 30.9 30.9" style="enable-background:new 0 0 30.9 30.9;" xml:space="preserve">
<style type="text/css">
	.st0{opacity:0.5;fill:#FFFFFF;}
	.st1{opacity:0.7;fill:#FFFFFF;}
	.st2{opacity:0.6;fill:#FFFFFF;}
	.st3{opacity:0.65;fill:#FFFFFF;}
	.st4{opacity:0.3;fill:#FFFFFF;}
	.st5{fill:#6CCAD0;}
</style>
<g>
	<g>
		<path class="st5" d="M16.2,8.2c0-2.9-1.7-7.4-5.1-7.4c-1.1,0-2.2,0.5-2.8,1.3C7.6,3,7.4,4.1,7.4,5.1c0,2.7,1.6,7.2,5.1,7.2
			c1,0,2.1-0.5,2.8-1.1C16.2,10.3,16.2,9,16.2,8.2z"/>
		<path class="st5" d="M20.3,0.4l-0.9,0.5h-2.5c0.9,0.8,2.9,2.4,2.9,5.5c0,3-1.7,4.4-3.4,5.7c-0.5,0.5-1.1,1.1-1.1,2
			c0,0.9,0.6,1.4,1.1,1.7l1.5,1.1c1.8,1.5,3.4,2.9,3.4,5.7c0,3.4-3,6.9-8.7,7.5c0.9,0.2,1.9,0.3,2.9,0.3c8.5,0,15.4-6.9,15.4-15.4
			C30.9,8.2,26.5,2.5,20.3,0.4z"/>
		<path class="st5" d="M14.1,18.9c-0.3,0-0.5,0-0.9,0c-0.4,0-2.6,0.1-4.3,0.6c-0.9,0.3-3.5,1.3-3.5,4.2c0,2.9,2.8,4.9,7.1,4.9
			c3.9,0,5.9-1.9,5.9-4.4C18.5,22.2,17.1,21.1,14.1,18.9z"/>
		<path class="st5" d="M4.9,19.6c2.5-1.5,5.9-1.7,7.7-1.9c-0.6-0.7-1.2-1.5-1.2-2.8c0-0.7,0.2-1.1,0.4-1.6c-0.4,0-0.9,0.1-1.3,0.1
			c-4.3,0-6.7-3.2-6.7-6.4c0-1,0.3-2.1,0.8-3.1C1.8,6.8,0,10.7,0,15c0,2.9,0.8,5.5,2.1,7.8C2.5,21.7,3.4,20.5,4.9,19.6z"/>
	</g>
</g>
</svg>
