<?xml version="1.0" encoding="utf-8"?>
<!-- Generator: Adobe Illustrator 19.1.0, SVG Export Plug-In . SVG Version: 6.00 Build 0)  -->
<svg version="1.1" id="Layer_1" xmlns="http://www.w3.org/2000/svg" xmlns:xlink="http://www.w3.org/1999/xlink" x="0px" y="0px"
	 width="30.9px" height="30.9px" viewBox="-184 185.1 30.9 30.9" style="enable-background:new -184 185.1 30.9 30.9;"
	 xml:space="preserve">
<style type="text/css">
	.st0{fill:#6CCAD0;}
</style>
<g>
	<path class="st0" d="M-168.6,185.1c-8.5,0-15.4,6.9-15.4,15.4s6.9,15.4,15.4,15.4s15.4-6.9,15.4-15.4
		C-153.1,192-160.1,185.1-168.6,185.1z M-158.8,201.2c0,1.6-0.2,3.2-0.2,3.2s-0.2,1.3-0.8,1.9c-0.7,0.8-1.6,0.8-2,0.8
		c-2.7,0.2-6.8,0.2-6.8,0.2s-5.1,0-6.6-0.2c-0.4-0.1-1.4-0.1-2.2-0.8c-0.6-0.6-0.8-1.9-0.8-1.9s-0.2-1.6-0.2-3.2v-1.5
		c0-1.6,0.2-3.2,0.2-3.2s0.2-1.3,0.8-1.9c0.7-0.8,1.6-0.8,2-0.8c2.7-0.2,6.8-0.2,6.8-0.2h0c0,0,4.1,0,6.8,0.2c0.4,0,1.2,0,2,0.8
		c0.6,0.6,0.8,1.9,0.8,1.9s0.2,1.6,0.2,3.2V201.2z"/>
	<polygon class="st0" points="-170.6,203 -165.3,200.3 -170.6,197.5 	"/>
</g>
</svg>
