<svg id="Layer_1" data-name="Layer 1" xmlns="http://www.w3.org/2000/svg" viewBox="0 0 132 132"><defs><style>.cls-1,.cls-2,.cls-7{fill:#fff;}.cls-1{stroke:#c3e9ec;}.cls-1,.cls-2,.cls-3,.cls-4,.cls-5,.cls-6,.cls-7,.cls-8,.cls-9{stroke-linecap:round;stroke-width:2.5px;}.cls-1,.cls-2,.cls-7,.cls-8{stroke-linejoin:round;}.cls-2{stroke:#91d5d9;}.cls-3,.cls-4,.cls-5,.cls-6,.cls-8,.cls-9{fill:none;}.cls-3{stroke:#ef5034;}.cls-3,.cls-4,.cls-5,.cls-6,.cls-9{stroke-miterlimit:10;}.cls-4{stroke:#f59685;}.cls-5{stroke:#c0e869;}.cls-6{stroke:#f59122;}.cls-7,.cls-8{stroke:#6ac9d0;}.cls-9{stroke:#96d805;}</style></defs><title>ipfs-illustrations-revised</title><rect class="cls-1" x="9.57" y="1.72" width="61.28" height="82.15"/><line class="cls-1" x1="19.09" y1="15.29" x2="61.34" y2="15.29"/><line class="cls-1" x1="19.09" y1="26.88" x2="61.34" y2="26.88"/><line class="cls-1" x1="19.09" y1="38.47" x2="61.34" y2="38.47"/><line class="cls-1" x1="19.09" y1="50.06" x2="61.34" y2="50.06"/><line class="cls-1" x1="19.09" y1="61.66" x2="46.73" y2="61.66"/><rect class="cls-2" x="35.36" y="24.93" width="61.28" height="82.15"/><line class="cls-2" x1="44.88" y1="38.49" x2="87.12" y2="38.49"/><line class="cls-2" x1="44.88" y1="50.08" x2="87.12" y2="50.08"/><line class="cls-3" x1="70.44" y1="50.08" x2="80.91" y2="50.08"/><line class="cls-2" x1="44.88" y1="61.68" x2="87.12" y2="61.68"/><line class="cls-2" x1="44.88" y1="73.2" x2="87.12" y2="73.2"/><line class="cls-2" x1="44.88" y1="84.86" x2="72.51" y2="84.86"/><line class="cls-4" x1="53.66" y1="61.8" x2="67.46" y2="61.8"/><line class="cls-5" x1="48.74" y1="84.86" x2="56.18" y2="84.86"/><line class="cls-6" x1="70.66" y1="108.07" x2="112.91" y2="108.07"/><rect class="cls-7" x="61.15" y="48.13" width="61.28" height="82.15"/><line class="cls-8" x1="70.66" y1="61.7" x2="112.91" y2="61.7"/><line class="cls-9" x1="77.97" y1="61.7" x2="98.3" y2="61.7"/><line class="cls-8" x1="70.66" y1="73.29" x2="112.91" y2="73.29"/><line class="cls-9" x1="89.29" y1="73.29" x2="98.3" y2="73.29"/><line class="cls-3" x1="96.23" y1="73.29" x2="106.7" y2="73.29"/><line class="cls-8" x1="70.66" y1="84.88" x2="112.91" y2="84.88"/><line class="cls-8" x1="70.66" y1="96.41" x2="112.91" y2="96.41"/><line class="cls-9" x1="93.4" y1="96.41" x2="107.2" y2="96.41"/><line class="cls-8" x1="70.66" y1="108.07" x2="98.3" y2="108.07"/><line class="cls-3" x1="78.42" y1="96.41" x2="92.22" y2="96.41"/><line class="cls-9" x1="71.12" y1="119.49" x2="84.92" y2="119.49"/><line class="cls-9" x1="97.69" y1="108.07" x2="113.28" y2="108.07"/></svg>