<svg id="Layer_1" data-name="Layer 1" xmlns="http://www.w3.org/2000/svg" viewBox="0 0 342.58 335.82"><defs><style>.cls-1,.cls-16,.cls-17,.cls-5,.cls-7{fill:#fff;}.cls-1,.cls-17{stroke:#fff;}.cls-1,.cls-13,.cls-14,.cls-17,.cls-6,.cls-8{stroke-miterlimit:10;}.cls-1,.cls-18{stroke-width:3.6px;}.cls-2,.cls-6,.cls-8{fill:none;}.cls-13,.cls-14,.cls-18,.cls-2,.cls-4,.cls-6,.cls-8{stroke:#6ac9d0;}.cls-18,.cls-2,.cls-4{stroke-linejoin:round;}.cls-17,.cls-2,.cls-6{stroke-width:5.03px;}.cls-2,.cls-6,.cls-7,.cls-8{opacity:0.3;}.cls-3{opacity:0.8;}.cls-14,.cls-15,.cls-18,.cls-4,.cls-9{fill:#6ac9d0;}.cls-18,.cls-4{stroke-linecap:round;}.cls-4{stroke-width:1.69px;}.cls-8{stroke-width:10.07px;}.cls-10{fill:#ef5034;}.cls-11{fill:#083b54;}.cls-12{fill:#f59122;}.cls-13{fill:#e0f1f2;stroke-width:2.77px;}.cls-14{stroke-width:2.36px;}.cls-15{opacity:0.1;}.cls-16{opacity:0.9;}</style></defs><title>ipfs illustrations</title><path class="cls-1" d="M63.44,70.71A17.29,17.29,0,0,0,51.33,92.32l0,0.13a17.37,17.37,0,0,0,21.82,11.93,16.89,16.89,0,0,0,7.28-4c2.09,0,12.92,2.5,12.92,2.5s-7.26-8.55-8-10.89a17.55,17.55,0,0,0-.17-9.1l0-.12a17.37,17.37,0,0,0-21.77-12h0Z"/><path class="cls-2" d="M63.44,70.71A17.29,17.29,0,0,0,51.33,92.32l0,0.13a17.37,17.37,0,0,0,21.82,11.93,16.89,16.89,0,0,0,7.28-4c2.09,0,12.92,2.5,12.92,2.5s-7.26-8.55-8-10.89a17.55,17.55,0,0,0-.17-9.1l0-.12a17.37,17.37,0,0,0-21.77-12h0Z"/><g class="cls-3"><path class="cls-4" d="M62.92,81.1a6,6,0,0,1,1.18-2A5.23,5.23,0,0,1,66,77.77a6.22,6.22,0,0,1,2.48-.46,6.77,6.77,0,0,1,2.25.36,5,5,0,0,1,1.75,1,4.6,4.6,0,0,1,1.14,1.65,5.76,5.76,0,0,1,.4,2.24,5,5,0,0,1-.2,1.46,5.24,5.24,0,0,1-.52,1.17,6.07,6.07,0,0,1-.73,1q-0.41.45-.83,0.87l-0.83.8a6.88,6.88,0,0,0-.74.87,4.18,4.18,0,0,0-.53,1,3.55,3.55,0,0,0-.2,1.22h0a1,1,0,0,1-1,1H68.17a1,1,0,0,1-1-1V90.72a5.1,5.1,0,0,1,.41-1.88,6,6,0,0,1,.87-1.38,11.85,11.85,0,0,1,1.08-1.11,12.21,12.21,0,0,0,1.06-1.08A4.74,4.74,0,0,0,71.37,84a3.73,3.73,0,0,0,.24-1.66,3.4,3.4,0,0,0-.93-2.27,3.07,3.07,0,0,0-2.25-.82,3.62,3.62,0,0,0-1.63.34,3.37,3.37,0,0,0-1.15.92A3.7,3.7,0,0,0,65,81.9a6,6,0,0,0-.16.82,1,1,0,0,1-1,.89H63.6a1,1,0,0,1-1-1.14A6.66,6.66,0,0,1,62.92,81.1ZM69.7,96.33v0.22a1.35,1.35,0,0,1-1.36,1.35H68.12a1.35,1.35,0,0,1-1.35-1.36V96.32A1.35,1.35,0,0,1,68.13,95h0.22A1.35,1.35,0,0,1,69.7,96.33Z"/></g><path class="cls-5" d="M162.81,193.14a17.37,17.37,0,0,0-18.15,17v0.12a17.55,17.55,0,0,0,2.08,8.86c-0.1,2.45-5,12.52-5,12.52s9.88-5.11,11.9-5.6a16.89,16.89,0,0,0,8,2.12,17.37,17.37,0,0,0,18.21-16.93v-0.13a17.29,17.29,0,0,0-17.06-18h0Z"/><line class="cls-6" x1="128.8" y1="248.81" x2="44.96" y2="198.69"/><line class="cls-7" x1="128.8" y1="248.81" x2="44.96" y2="198.69"/><polyline class="cls-6" points="164.32 133.53 108.82 112.29 128.8 248.81"/><line class="cls-8" x1="202.56" y1="147.06" x2="165.04" y2="133.59"/><circle class="cls-9" cx="44.96" cy="198.69" r="12.41"/><line class="cls-6" x1="128.8" y1="248.81" x2="71.07" y2="291.5"/><line class="cls-7" x1="128.8" y1="248.81" x2="71.07" y2="291.5"/><circle class="cls-9" cx="71.07" cy="291.5" r="12.41" transform="translate(-224.44 239.6) rotate(-66.34)"/><circle class="cls-10" cx="202.7" cy="146.35" r="16.05"/><circle class="cls-11" cx="107.23" cy="111.85" r="12.41"/><circle class="cls-12" cx="128.8" cy="248.81" r="12.41"/><path class="cls-13" d="M239.81,190c2.94-1.83,4.86-4,4.29-4.92l-6.72-10.44c-0.57-.89-3.41-0.12-6.35,1.71s-4.76,3.94-4.31,4.86l6.74,10.5A1.54,1.54,0,0,0,235,192"/><path class="cls-14" d="M286.64,249.2l-43.32-67.87c-1-1.53-2.48,2.17-6.13,4.45s-8.08,2.28-7.11,3.8l43.27,67.77c1,1.53,4.73.92,8.39-1.36S287.47,250.76,286.64,249.2Z"/><path class="cls-15" d="M208.66,181.42C184.6,181.42,165,162.83,165,140s19.58-41.44,43.65-41.44,43.65,18.59,43.65,41.44S232.73,181.42,208.66,181.42Z"/><path class="cls-13" d="M208.66,104.11c20.86,0,37.76,16.05,37.76,35.86s-16.91,35.86-37.76,35.86S170.9,159.78,170.9,140s16.91-35.86,37.76-35.86m0-7.78c-25.34,0-46,19.58-46,43.64s20.62,43.64,46,43.64,46-19.58,46-43.64-20.62-43.64-46-43.64h0Z"/><path class="cls-16" d="M238.3,143.3c1.33-11.57-5.51-35.53-37.71-31.17"/><path class="cls-17" d="M271.13,34.45a37,37,0,0,0-38.67,36.22v0.27a37.4,37.4,0,0,0,4.43,18.88c-0.21,5.21-10.71,26.67-10.71,26.67s21-10.88,25.36-11.94a36,36,0,0,0,17.14,4.52c21.73,0.68,38.21-15.76,38.81-36.08V72.71c0.59-20.45-14.78-37.59-36.36-38.26h0Z"/><path class="cls-2" d="M271.13,34.45a37,37,0,0,0-38.67,36.22v0.27a37.4,37.4,0,0,0,4.43,18.88c-0.21,5.21-10.71,26.67-10.71,26.67s21-10.88,25.36-11.94a36,36,0,0,0,17.14,4.52c21.73,0.68,38.21-15.76,38.81-36.08V72.71c0.59-20.45-14.78-37.59-36.36-38.26h0Z"/><g class="cls-3"><path class="cls-18" d="M259.13,57.82a12.7,12.7,0,0,1,2.67-4.18A11.14,11.14,0,0,1,265.9,51a13.26,13.26,0,0,1,5.31-.79,14.42,14.42,0,0,1,4.76,1,10.76,10.76,0,0,1,3.64,2.34,9.81,9.81,0,0,1,2.29,3.61,12.26,12.26,0,0,1,.67,4.8A10.62,10.62,0,0,1,282,65a11.17,11.17,0,0,1-1.2,2.45,12.94,12.94,0,0,1-1.63,2q-0.91.92-1.84,1.78t-1.84,1.64a14.67,14.67,0,0,0-1.65,1.78,8.91,8.91,0,0,0-1.21,2.08,7.56,7.56,0,0,0-.53,2.59v0a2.16,2.16,0,0,1-2.25,2.06l-0.45,0a2.16,2.16,0,0,1-2.06-2.25l0-.48a10.86,10.86,0,0,1,1-4,12.71,12.71,0,0,1,2-2.86,25.24,25.24,0,0,1,2.4-2.28,26,26,0,0,0,2.34-2.2,10.1,10.1,0,0,0,1.77-2.59,7.94,7.94,0,0,0,.65-3.51,7.24,7.24,0,0,0-1.79-4.9A6.54,6.54,0,0,0,271,54.39a7.71,7.71,0,0,0-3.51.58A7.17,7.17,0,0,0,265,56.84a7.88,7.88,0,0,0-1.55,2.85,12.86,12.86,0,0,0-.41,1.73,2.16,2.16,0,0,1-2.21,1.81l-0.47,0a2.16,2.16,0,0,1-2-2.51A14.19,14.19,0,0,1,259.13,57.82Zm13.18,33,0,0.47a2.88,2.88,0,0,1-3,2.75l-0.47,0a2.88,2.88,0,0,1-2.75-3l0-.47a2.88,2.88,0,0,1,3-2.75l0.47,0A2.88,2.88,0,0,1,272.31,90.8Z"/></g><path class="cls-2" d="M162.81,193.14a17.37,17.37,0,0,0-18.15,17v0.12a17.55,17.55,0,0,0,2.08,8.86c-0.1,2.45-5,12.52-5,12.52s9.88-5.11,11.9-5.6a16.89,16.89,0,0,0,8,2.12,17.37,17.37,0,0,0,18.21-16.93v-0.13a17.29,17.29,0,0,0-17.06-18h0Z"/><g class="cls-3"><path class="cls-4" d="M155.48,205.71a6,6,0,0,1,.65-2.24,5.23,5.23,0,0,1,1.49-1.74,6.22,6.22,0,0,1,2.29-1.06,6.77,6.77,0,0,1,2.27-.2,5,5,0,0,1,1.95.57,4.6,4.6,0,0,1,1.51,1.32,5.76,5.76,0,0,1,.94,2.07,5,5,0,0,1,.16,1.47,5.24,5.24,0,0,1-.21,1.26,6.07,6.07,0,0,1-.47,1.12q-0.29.53-.59,1t-0.61,1a6.88,6.88,0,0,0-.5,1,4.18,4.18,0,0,0-.27,1.1,3.55,3.55,0,0,0,.11,1.24h0a1,1,0,0,1-.74,1.23l-0.21.05a1,1,0,0,1-1.23-.74L162,214a5.1,5.1,0,0,1-.06-1.93,6,6,0,0,1,.51-1.55,11.85,11.85,0,0,1,.78-1.35,12.21,12.21,0,0,0,.76-1.3,4.74,4.74,0,0,0,.45-1.4,3.73,3.73,0,0,0-.17-1.67,3.4,3.4,0,0,0-1.46-2,3.07,3.07,0,0,0-2.38-.25,3.62,3.62,0,0,0-1.5.73,3.37,3.37,0,0,0-.89,1.17,3.7,3.7,0,0,0-.32,1.49,6,6,0,0,0,0,.83,1,1,0,0,1-.76,1.11l-0.21.05a1,1,0,0,1-1.25-.86A6.66,6.66,0,0,1,155.48,205.71Zm10.32,13.09,0.05,0.22a1.35,1.35,0,0,1-1,1.64l-0.22.05a1.35,1.35,0,0,1-1.64-1l-0.05-.22a1.35,1.35,0,0,1,1-1.64l0.22-.05A1.35,1.35,0,0,1,165.8,218.81Z"/></g></svg>