<?xml version="1.0" encoding="utf-8"?>
<!-- Generator: Adobe Illustrator 19.1.0, SVG Export Plug-In . SVG Version: 6.00 Build 0)  -->
<svg version="1.1" xmlns="http://www.w3.org/2000/svg" xmlns:xlink="http://www.w3.org/1999/xlink" x="0px" y="0px" width="224.1px"
	 height="152.3px" viewBox="0 0 224.1 152.3" style="enable-background:new 0 0 224.1 152.3;" xml:space="preserve">
<style type="text/css">
	.st0{display:none;}
	.st1{display:inline;fill:#F05135;}
	.st2{display:inline;fill:#083B54;}
	.st3{display:inline;fill:#6ACAD1;}
	.st4{display:inline;fill:#F59223;}
	.st5{display:inline;fill:none;stroke:#F05135;stroke-width:2.5;stroke-miterlimit:10;}
	.st6{display:inline;fill:none;stroke:#083B54;stroke-width:2.5;stroke-miterlimit:10;}
	.st7{display:inline;fill:none;stroke:#6ACAD1;stroke-width:2.5;stroke-miterlimit:10;}
	.st8{display:inline;fill:none;stroke:#F59223;stroke-width:2.5;stroke-miterlimit:10;}
	.st9{display:inline;fill:#FDD9C8;stroke:#F05135;stroke-width:2.5;stroke-miterlimit:10;}
	.st10{display:inline;fill:#D3D5DB;stroke:#083B54;stroke-width:2.5;stroke-miterlimit:10;}
	.st11{display:inline;fill:#E0F2F3;stroke:#6ACAD1;stroke-width:2.5;stroke-miterlimit:10;}
	.st12{display:inline;fill:#FEE5CB;stroke:#F59223;stroke-width:2.5;stroke-miterlimit:10;}
	.st13{display:inline;fill:#FFFFFF;stroke:#F05135;stroke-width:2.5;stroke-miterlimit:10;}
	.st14{display:inline;fill:#FFFFFF;stroke:#083B54;stroke-width:2.5;stroke-miterlimit:10;}
	.st15{display:inline;fill:#FFFFFF;stroke:#6ACAD1;stroke-width:2.5;stroke-miterlimit:10;}
	.st16{display:inline;fill:#FFFFFF;stroke:#F59223;stroke-width:2.5;stroke-miterlimit:10;}
	.st17{display:inline;}
	.st18{opacity:0.3;fill:none;stroke:#6ACAD1;stroke-width:2.5;stroke-miterlimit:10;}
	.st19{fill:#E0F2F3;stroke:#6ACAD1;stroke-width:2.5;stroke-miterlimit:10;}
	.st20{opacity:0.5;fill:#6ACAD1;}
	.st21{opacity:0.3;fill:none;stroke:#F59223;stroke-miterlimit:10;}
	.st22{fill:none;stroke:#6ACAD1;stroke-width:2.5;stroke-linecap:round;stroke-miterlimit:10;}
	.st23{fill:#FFFFFF;stroke:#6ACAD1;stroke-width:2.5;stroke-miterlimit:10;}
	.st24{fill:#FFFFFF;stroke:#083B54;stroke-width:2.5;stroke-miterlimit:10;}
	.st25{fill:#FFFFFF;}
	.st26{fill:none;stroke:#6ACAD1;stroke-width:2.5;stroke-miterlimit:10;}
	.st27{fill:#E0F2F3;}
	.st28{fill:#D3D5DB;stroke:#083B54;stroke-width:2.5;stroke-miterlimit:10;}
	.st29{fill:#083B54;}
	.st30{opacity:0.2;fill:#083B54;}
	.st31{opacity:0.3;fill:#083B54;}
	.st32{opacity:0.5;fill:#083B54;}
	.st33{opacity:0.85;fill:#083B54;}
	.st34{opacity:0.7;fill:#083B54;}
	.st35{fill:#FEE5CB;stroke:#F59223;stroke-miterlimit:10;}
	.st36{opacity:0.5;fill:#FFFFFF;stroke:#6ACAD1;stroke-linecap:round;stroke-miterlimit:10;}
	.st37{fill:#F05135;}
	.st38{fill:#F59223;}
	.st39{fill:#F05135;stroke:#F05235;stroke-linejoin:round;stroke-miterlimit:10;}
	.st40{fill:#6ACAD1;}
</style>
<g id="Layer_1" class="st0">
	<g id="_x38_jq36L_1_" class="st17">
		
			<image style="overflow:visible;" width="1001" height="475" id="_x38_jq36L_2_" xlink:href="F40A7C7F7065F0A3.png"  transform="matrix(1 0 0 1 -586.2453 -459.163)">
		</image>
	</g>
	<g id="SsozcT_1_" class="st17">
		
			<image style="overflow:visible;" width="922" height="544" id="SsozcT_2_" xlink:href="F40A7C7F7065F0A1.png"  transform="matrix(1 0 0 1 -547.2453 -184.163)">
		</image>
	</g>
</g>
<g id="Layer_2">
	<line class="st18" x1="156.7" y1="21.6" x2="178" y2="44.7"/>
	<line class="st18" x1="106.6" y1="77.5" x2="103" y2="109.3"/>
	<polyline class="st18" points="4.5,48.4 51.2,23.3 104.4,4.5 156.7,21.6 	"/>
	<line class="st18" x1="200.2" y1="125.5" x2="219.6" y2="94.7"/>
	<line class="st18" x1="143.2" y1="59" x2="178" y2="44.7"/>
	<line class="st18" x1="156.7" y1="21.6" x2="207.9" y2="35.3"/>
	<line class="st18" x1="207.9" y1="35.3" x2="187.5" y2="75.3"/>
	<polyline class="st18" points="151.1,96.9 143.2,59 187.5,75.3 178,44.7 207.9,35.3 219.6,94.7 	"/>
	<line class="st18" x1="21.1" y1="93.5" x2="20.5" y2="139.5"/>
	<line class="st18" x1="21.1" y1="93.5" x2="58.5" y2="75.3"/>
	<line class="st18" x1="21.1" y1="93.5" x2="43.9" y2="105.6"/>
	<line class="st18" x1="58.5" y1="75.3" x2="78.8" y2="93.2"/>
	<polygon class="st18" points="143.2,59 133.4,81.1 106.6,77.5 90.7,42.7 122.3,35.3 	"/>
	<line class="st18" x1="58.5" y1="75.3" x2="106.6" y2="77.5"/>
	<polyline class="st18" points="90.7,42.7 58.5,75.3 51.2,23.3 	"/>
	<line class="st18" x1="90.7" y1="42.7" x2="142.2" y2="59"/>
	<line class="st18" x1="151.1" y1="96.9" x2="129.8" y2="136.5"/>
	<polyline class="st18" points="20.5,139.5 43.9,105.6 71.5,119.9 	"/>
	<polyline class="st18" points="187.5,75.3 174.3,116.2 171.1,147.8 	"/>
	<polygon class="st18" points="129.8,136.5 174.3,116.2 151.1,96.9 103,109.3 	"/>
	<polyline class="st18" points="20.5,139.5 86.2,147.8 103,109.3 71.5,119.9 	"/>
	<polyline class="st18" points="4.5,48.4 35.8,55.3 51.2,23.3 90.7,42.7 104.4,4.5 122.3,35.3 156.7,21.6 144.1,59 105.6,77.5 
		78.8,93.2 103,109.3 133.4,81.1 151.1,96.9 187.5,75.3 219.6,94.7 174.3,116.2 200.2,125.5 171.1,147.8 129.8,136.5 86.2,147.8 
		71.5,119.9 	"/>
	<polyline class="st18" points="4.5,48.4 21.1,93.5 35.8,55.3 58.5,75.3 43.9,105.6 78.8,93.2 71.5,118.3 20.5,139.5 	"/>
	<g>
		<circle class="st37" cx="86.2" cy="147.8" r="4.5"/>
		<circle class="st37" cx="174.8" cy="116.7" r="4.5"/>
		<circle class="st40" cx="51.2" cy="23.3" r="4.5"/>
		<circle class="st40" cx="156.7" cy="21.6" r="4.5"/>
		<circle class="st40" cx="207.9" cy="35.3" r="4.5"/>
		<circle class="st29" cx="104.4" cy="4.5" r="4.5"/>
		<circle class="st29" cx="219.6" cy="94.7" r="4.5"/>
		<circle class="st37" cx="4.5" cy="48.4" r="4.5"/>
		<circle class="st37" cx="121.5" cy="35.3" r="4.5"/>
		<circle class="st37" cx="78.8" cy="93.2" r="4.5"/>
		<circle class="st40" cx="90.7" cy="42.7" r="4.5"/>
		<circle class="st40" cx="143.2" cy="59.8" r="4.5"/>
		<circle class="st40" cx="187.5" cy="75.3" r="4.5"/>
		<circle class="st40" cx="151.1" cy="96.7" r="4.5"/>
		<circle class="st40" cx="200.2" cy="125.5" r="4.5"/>
		<circle class="st40" cx="129.8" cy="136.5" r="4.5"/>
		<circle class="st40" cx="58.5" cy="75.3" r="4.5"/>
		<circle class="st40" cx="106.6" cy="77.5" r="4.5"/>
		<circle class="st40" cx="71" cy="119" r="4.5"/>
		<circle class="st40" cx="20.5" cy="139.2" r="4.5"/>
		<circle class="st40" cx="21.1" cy="94" r="4.5"/>
		<circle class="st29" cx="178" cy="44.7" r="4.5"/>
		<circle class="st29" cx="133.3" cy="81.1" r="4.5"/>
		<circle class="st29" cx="171.1" cy="147.8" r="4.5"/>
		<circle class="st29" cx="103" cy="109.3" r="4.5"/>
		<circle class="st29" cx="35.3" cy="55.3" r="4.5"/>
		<circle class="st29" cx="43.9" cy="105.6" r="4.5"/>
	</g>
</g>
</svg>
