<svg id="Layer_1" data-name="Layer 1" xmlns="http://www.w3.org/2000/svg" viewBox="0 0 207 205"><defs><style>.cls-1,.cls-2,.cls-7{fill:#fff;}.cls-1{stroke:#c3e9ec;}.cls-1,.cls-2,.cls-3,.cls-4,.cls-5,.cls-6,.cls-7,.cls-8,.cls-9{stroke-linecap:round;stroke-width:4.24px;}.cls-1,.cls-2,.cls-7,.cls-8{stroke-linejoin:round;}.cls-2{stroke:#91d5d9;}.cls-3,.cls-4,.cls-5,.cls-6,.cls-8,.cls-9{fill:none;}.cls-3{stroke:#ef5034;}.cls-3,.cls-4,.cls-5,.cls-6,.cls-9{stroke-miterlimit:10;}.cls-4{stroke:#f59685;}.cls-5{stroke:#c0e869;}.cls-6{stroke:#f59122;}.cls-7,.cls-8{stroke:#6ac9d0;}.cls-9{stroke:#96d805;}</style></defs><title>ipfs-illustrations-how</title><rect class="cls-1" x="2.76" y="2.5" width="88.2" height="114.14"/><line class="cls-1" x1="16.46" y1="21.35" x2="77.26" y2="21.35"/><line class="cls-1" x1="16.46" y1="37.46" x2="77.26" y2="37.46"/><line class="cls-1" x1="16.46" y1="53.56" x2="77.26" y2="53.56"/><line class="cls-1" x1="16.46" y1="69.67" x2="77.26" y2="69.67"/><line class="cls-1" x1="16.46" y1="85.78" x2="56.24" y2="85.78"/><rect class="cls-2" x="59.4" y="45.43" width="88.2" height="114.14"/><line class="cls-2" x1="73.1" y1="64.28" x2="133.9" y2="64.28"/><line class="cls-2" x1="73.1" y1="80.39" x2="133.9" y2="80.39"/><line class="cls-3" x1="109.89" y1="80.39" x2="124.96" y2="80.39"/><line class="cls-2" x1="73.1" y1="96.49" x2="133.9" y2="96.49"/><line class="cls-2" x1="73.1" y1="112.51" x2="133.9" y2="112.51"/><line class="cls-2" x1="73.1" y1="128.71" x2="112.87" y2="128.71"/><line class="cls-4" x1="85.74" y1="96.67" x2="105.6" y2="96.67"/><line class="cls-5" x1="78.66" y1="128.71" x2="89.37" y2="128.71"/><line class="cls-6" x1="129.74" y1="171.64" x2="190.54" y2="171.64"/><rect class="cls-7" x="116.04" y="88.36" width="88.2" height="114.14"/><line class="cls-8" x1="129.74" y1="107.21" x2="190.54" y2="107.21"/><line class="cls-9" x1="140.25" y1="107.21" x2="169.51" y2="107.21"/><line class="cls-8" x1="129.74" y1="123.32" x2="190.54" y2="123.32"/><line class="cls-9" x1="156.55" y1="123.32" x2="169.51" y2="123.32"/><line class="cls-3" x1="166.53" y1="123.32" x2="181.6" y2="123.32"/><line class="cls-8" x1="129.74" y1="139.42" x2="190.54" y2="139.42"/><line class="cls-8" x1="129.74" y1="155.44" x2="190.54" y2="155.44"/><line class="cls-9" x1="162.45" y1="155.44" x2="182.32" y2="155.44"/><line class="cls-8" x1="129.74" y1="171.64" x2="169.51" y2="171.64"/><line class="cls-3" x1="140.9" y1="155.44" x2="160.77" y2="155.44"/><line class="cls-9" x1="130.39" y1="187.5" x2="150.25" y2="187.5"/><line class="cls-9" x1="168.64" y1="171.64" x2="191.06" y2="171.64"/></svg>