<?xml version="1.0" encoding="utf-8"?>
<!-- Generator: Adobe Illustrator 19.1.0, SVG Export Plug-In . SVG Version: 6.00 Build 0)  -->
<svg version="1.1" xmlns="http://www.w3.org/2000/svg" xmlns:xlink="http://www.w3.org/1999/xlink" x="0px" y="0px" width="250px"
	 height="118px" viewBox="0 0 250 118" style="enable-background:new 0 0 250 118;" xml:space="preserve">
<style type="text/css">
	.st0{display:none;}
	.st1{display:inline;fill:#F05135;}
	.st2{display:inline;fill:#083B54;}
	.st3{display:inline;fill:#6ACAD1;}
	.st4{display:inline;fill:#F59223;}
	.st5{display:inline;fill:none;stroke:#F05135;stroke-width:2.5;stroke-miterlimit:10;}
	.st6{display:inline;fill:none;stroke:#083B54;stroke-width:2.5;stroke-miterlimit:10;}
	.st7{display:inline;fill:none;stroke:#6ACAD1;stroke-width:2.5;stroke-miterlimit:10;}
	.st8{display:inline;fill:none;stroke:#F59223;stroke-width:2.5;stroke-miterlimit:10;}
	.st9{display:inline;fill:#FDD9C8;stroke:#F05135;stroke-width:2.5;stroke-miterlimit:10;}
	.st10{display:inline;fill:#D3D5DB;stroke:#083B54;stroke-width:2.5;stroke-miterlimit:10;}
	.st11{display:inline;fill:#E0F2F3;stroke:#6ACAD1;stroke-width:2.5;stroke-miterlimit:10;}
	.st12{display:inline;fill:#FEE5CB;stroke:#F59223;stroke-width:2.5;stroke-miterlimit:10;}
	.st13{display:inline;fill:#FFFFFF;stroke:#F05135;stroke-width:2.5;stroke-miterlimit:10;}
	.st14{display:inline;fill:#FFFFFF;stroke:#083B54;stroke-width:2.5;stroke-miterlimit:10;}
	.st15{display:inline;fill:#FFFFFF;stroke:#6ACAD1;stroke-width:2.5;stroke-miterlimit:10;}
	.st16{display:inline;fill:#FFFFFF;stroke:#F59223;stroke-width:2.5;stroke-miterlimit:10;}
	.st17{display:inline;}
	.st18{opacity:0.3;fill:none;stroke:#6ACAD1;stroke-width:2.5;stroke-miterlimit:10;}
	.st19{fill:#E0F2F3;stroke:#6ACAD1;stroke-width:2.5;stroke-miterlimit:10;}
	.st20{opacity:0.5;fill:#6ACAD1;}
	.st21{opacity:0.3;fill:none;stroke:#F59223;stroke-miterlimit:10;}
	.st22{fill:none;stroke:#6ACAD1;stroke-width:2.5;stroke-linecap:round;stroke-miterlimit:10;}
	.st23{fill:#FFFFFF;stroke:#6ACAD1;stroke-width:2.5;stroke-miterlimit:10;}
	.st24{fill:#FFFFFF;stroke:#083B54;stroke-width:2.5;stroke-miterlimit:10;}
	.st25{fill:#FFFFFF;}
	.st26{fill:none;stroke:#6ACAD1;stroke-width:2.5;stroke-miterlimit:10;}
	.st27{fill:#E0F2F3;}
	.st28{fill:#D3D5DB;stroke:#083B54;stroke-width:2.5;stroke-miterlimit:10;}
	.st29{fill:#083B54;}
	.st30{opacity:0.2;fill:#083B54;}
	.st31{opacity:0.3;fill:#083B54;}
	.st32{opacity:0.5;fill:#083B54;}
	.st33{opacity:0.85;fill:#083B54;}
	.st34{opacity:0.7;fill:#083B54;}
	.st35{fill:#FEE5CB;stroke:#F59223;stroke-miterlimit:10;}
	.st36{opacity:0.5;fill:#FFFFFF;stroke:#6ACAD1;stroke-linecap:round;stroke-miterlimit:10;}
	.st37{fill:#F05135;}
	.st38{fill:#F59223;}
	.st39{fill:#F05135;stroke:#F05235;stroke-linejoin:round;stroke-miterlimit:10;}
	.st40{fill:#6ACAD1;}
</style>
<g id="template" class="st0">
	<g id="_x38_jq36L_1_" class="st17">
		
			<image style="overflow:visible;" width="1001" height="475" id="_x38_jq36L_2_" xlink:href="F3F13B59423AF3C6.png"  transform="matrix(1 0 0 1 -114.9288 -116.3119)">
		</image>
	</g>
</g>
<g id="stuffs">
	<g>
		<path class="st19" d="M224.3,95.1l-66.5-16.2c-0.5-0.1-0.9-0.7-0.7-1.2l9.1-37.3c0.1-0.5,0.7-0.9,1.2-0.7l66.5,16.2
			c0.5,0.1,0.9,0.7,0.7,1.2l-9.1,37.3C225.4,94.9,224.8,95.2,224.3,95.1z"/>
		<path class="st20" d="M228.3,58l-2.4-0.6c-0.1,0-0.2-0.1-0.4-0.1c-0.1,0-0.3,0-0.4,0l-57.9-14.1c-1.2-0.3-2.4,0.4-2.7,1.7l-7,28.8
			c-0.3,1.2,0.4,2.4,1.7,2.7l61,14.9c1.2,0.3,2.4-0.4,2.7-1.7l7-28.8C230.3,59.5,229.5,58.3,228.3,58z M166.9,45.6l54.8,13.4
			c-0.5,0.7-0.9,1.5-1.2,2.5c-0.7,2.8,0.4,5.5,2.5,6c1,0.2,2-0.1,2.9-0.7L222.4,81c-0.5-1-1.2-1.7-2.2-2c-2.1-0.5-4.3,1.4-5,4.2
			c-0.4,1.6-0.2,3.1,0.4,4.2L160,73.9L166.9,45.6z M220.4,88.6c0.1,0,0.1-0.1,0.2-0.1l0,0.1L220.4,88.6z"/>
		<ellipse transform="matrix(0.9715 0.2372 -0.2372 0.9715 21.291 -43.8249)" class="st20" cx="192.8" cy="66.6" rx="9" ry="12.2"/>
	</g>
	<g>
		<path class="st19" d="M23.3,99.6l65.4-20.2c0.5-0.2,0.8-0.7,0.7-1.3L78,41.5c-0.2-0.5-0.7-0.8-1.3-0.7L11.4,61
			c-0.5,0.2-0.8,0.7-0.7,1.3L22,99C22.2,99.5,22.7,99.8,23.3,99.6z"/>
		<path class="st20" d="M15.6,65.7L24.3,94c0.4,1.2,1.6,1.9,2.8,1.5l60-18.5c1.2-0.4,1.9-1.6,1.5-2.8l-8.7-28.3
			c-0.4-1.2-1.6-1.9-2.8-1.5L20.1,61.9c-0.1,0-0.3,0-0.4,0.1c-0.1,0-0.2,0.1-0.4,0.2L17,62.9C15.9,63.2,15.2,64.5,15.6,65.7z
			 M86.2,74.6L31.5,91.5c0.5-1.2,0.6-2.7,0.2-4.2c-0.9-2.8-3.2-4.5-5.2-3.9c-1,0.3-1.7,1.1-2.1,2.1l-4.4-14.1
			c0.9,0.6,1.9,0.9,2.9,0.6c2-0.6,3-3.4,2.2-6.1c-0.3-0.9-0.8-1.7-1.3-2.4l53.9-16.6L86.2,74.6z M26.6,93l0-0.1
			c0.1,0,0.1,0.1,0.2,0.1L26.6,93z"/>
		
			<ellipse transform="matrix(-0.9557 0.2945 -0.2945 -0.9557 124.0699 119.9569)" class="st20" cx="53" cy="69.3" rx="9" ry="12.2"/>
	</g>
	<g>
		<path class="st19" d="M242.5,70.1l-66.9,14.4c-0.5,0.1-1.1-0.2-1.2-0.8l-8.1-37.5c-0.1-0.5,0.2-1.1,0.8-1.2l66.9-14.4
			c0.5-0.1,1.1,0.2,1.2,0.8l8.1,37.5C243.3,69.4,243,69.9,242.5,70.1z"/>
		<path class="st20" d="M229.9,34.9l-2.4,0.5c-0.1,0-0.3,0-0.4,0c-0.1,0-0.2,0.1-0.4,0.1l-58.2,12.6c-1.2,0.3-2,1.5-1.7,2.7l6.2,29
			c0.3,1.2,1.5,2,2.7,1.7l61.4-13.2c1.2-0.3,2-1.5,1.7-2.7l-6.2-29C232.3,35.5,231.1,34.7,229.9,34.9z M169.2,50.6l55.1-11.9
			c-0.2,0.8-0.2,1.8,0,2.7c0.6,2.8,2.8,4.8,4.9,4.3c1-0.2,1.8-0.9,2.3-1.9l3.1,14.5c-0.9-0.7-1.9-1-2.9-0.8
			c-2.1,0.4-3.3,3.1-2.7,5.9c0.3,1.6,1.2,2.8,2.2,3.6l-56,12.1L169.2,50.6z M236.2,65.9c0-0.1,0.1-0.1,0.1-0.2l0,0.1L236.2,65.9z"/>
		<ellipse transform="matrix(0.9776 -0.2107 0.2107 0.9776 -7.7287 43.7939)" class="st20" cx="201.7" cy="58.2" rx="9" ry="12.2"/>
	</g>
	<g>
		<path class="st19" d="M247.3,52.6l-64.2,23.7c-0.5,0.2-1.1-0.1-1.3-0.6l-13.3-36c-0.2-0.5,0.1-1.1,0.6-1.3l64.2-23.7
			c0.5-0.2,1.1,0.1,1.3,0.6l13.3,36C248.1,51.8,247.8,52.4,247.3,52.6z"/>
		<path class="st20" d="M230,19.6l-2.3,0.9c-0.1,0-0.3,0-0.4,0.1s-0.2,0.1-0.3,0.2L171,41.3c-1.2,0.4-1.8,1.7-1.3,2.9L179.9,72
			c0.4,1.2,1.7,1.8,2.9,1.3l59-21.7c1.2-0.4,1.8-1.7,1.3-2.9l-10.2-27.8C232.4,19.8,231.1,19.2,230,19.6z M172.1,43.6L225,24.1
			c-0.1,0.9,0.1,1.8,0.4,2.7c1,2.7,3.4,4.3,5.4,3.6c0.9-0.3,1.6-1.2,2-2.2L238,42c-0.9-0.6-2-0.8-2.9-0.4c-2,0.7-2.8,3.5-1.8,6.2
			c0.6,1.5,1.6,2.6,2.7,3.3l-53.7,19.8L172.1,43.6z M240.5,49.4c0-0.1,0.1-0.1,0.1-0.2l0.1,0.1L240.5,49.4z"/>
		<ellipse transform="matrix(0.9383 -0.3458 0.3458 0.9383 -3.4335 73.8661)" class="st20" cx="205.3" cy="46.6" rx="9" ry="12.2"/>
	</g>
	<g>
		<path class="st19" d="M247.3,52.6l-64.2,23.7c-0.5,0.2-1.1-0.1-1.3-0.6l-13.3-36c-0.2-0.5,0.1-1.1,0.6-1.3l64.2-23.7
			c0.5-0.2,1.1,0.1,1.3,0.6l13.3,36C248.1,51.8,247.8,52.4,247.3,52.6z"/>
		<path class="st20" d="M230,19.6l-2.3,0.9c-0.1,0-0.3,0-0.4,0.1s-0.2,0.1-0.3,0.2L171,41.3c-1.2,0.4-1.8,1.7-1.3,2.9L179.9,72
			c0.4,1.2,1.7,1.8,2.9,1.3l59-21.7c1.2-0.4,1.8-1.7,1.3-2.9l-10.2-27.8C232.4,19.8,231.1,19.2,230,19.6z M172.1,43.6L225,24.1
			c-0.1,0.9,0.1,1.8,0.4,2.7c1,2.7,3.4,4.3,5.4,3.6c0.9-0.3,1.6-1.2,2-2.2L238,42c-0.9-0.6-2-0.8-2.9-0.4c-2,0.7-2.8,3.5-1.8,6.2
			c0.6,1.5,1.6,2.6,2.7,3.3l-53.7,19.8L172.1,43.6z M240.5,49.4c0-0.1,0.1-0.1,0.1-0.2l0.1,0.1L240.5,49.4z"/>
		<ellipse transform="matrix(0.9383 -0.3458 0.3458 0.9383 -3.4335 73.8661)" class="st20" cx="205.3" cy="46.6" rx="9" ry="12.2"/>
	</g>
	<g>
		<path class="st19" d="M8.6,78.6l67.3,12.5c0.5,0.1,1.1-0.3,1.2-0.8l7-37.7c0.1-0.5-0.3-1.1-0.8-1.2L16,38.9
			c-0.5-0.1-1.1,0.3-1.2,0.8l-7,37.7C7.7,78,8.1,78.5,8.6,78.6z"/>
		<path class="st20" d="M17.5,45l-5.4,29.1c-0.2,1.2,0.6,2.4,1.8,2.6l61.8,11.5c1.2,0.2,2.4-0.6,2.6-1.8l5.4-29.1
			c0.2-1.2-0.6-2.4-1.8-2.6L23.4,43.8c-0.1,0-0.2-0.1-0.4-0.1s-0.3,0-0.4,0l-2.4-0.5C18.9,42.9,17.8,43.7,17.5,45z M75.9,85.7
			L19.6,75.2c1-0.8,1.8-2.1,2.1-3.7c0.5-2.8-0.7-5.5-2.8-5.9c-1-0.2-2,0.2-2.8,0.9l2.7-14.5c0.5,1,1.3,1.7,2.3,1.9
			c2.1,0.4,4.2-1.6,4.8-4.4c0.2-1,0.1-1.9-0.1-2.7l55.5,10.3L75.9,85.7z M14.6,74.3l0-0.1c0,0.1,0.1,0.1,0.1,0.2L14.6,74.3z"/>
		<ellipse transform="matrix(-0.9832 -0.1827 0.1827 -0.9832 85.222 139.0301)" class="st20" cx="49" cy="65.6" rx="9" ry="12.2"/>
	</g>
	<g>
		<path class="st19" d="M4.2,59.8l64.9,21.8c0.5,0.2,1.1-0.1,1.3-0.6l12.2-36.4c0.2-0.5-0.1-1.1-0.6-1.3L17.1,21.5
			c-0.5-0.2-1.1,0.1-1.3,0.6L3.6,58.5C3.4,59.1,3.7,59.6,4.2,59.8z"/>
		<path class="st20" d="M17.8,27.7L8.4,55.8C8,57,8.6,58.3,9.8,58.7l59.5,20c1.2,0.4,2.5-0.2,2.9-1.4l9.4-28.1
			c0.4-1.2-0.2-2.5-1.4-2.9l-56.5-19c-0.1-0.1-0.2-0.1-0.4-0.2c-0.1,0-0.3,0-0.4-0.1l-2.3-0.8C19.5,25.9,18.2,26.6,17.8,27.7z
			 M69.9,76.2L15.6,58c1.1-0.6,2.1-1.8,2.6-3.3c0.9-2.7,0-5.5-2-6.2c-1-0.3-2-0.1-2.9,0.5l4.7-14c0.4,1,1.1,1.8,2,2.2
			c2,0.7,4.4-1,5.3-3.7c0.3-0.9,0.4-1.9,0.3-2.7l53.5,18L69.9,76.2z M10.8,56.4l0-0.1c0,0.1,0.1,0.1,0.1,0.2L10.8,56.4z"/>
		
			<ellipse transform="matrix(-0.9478 -0.3189 0.3189 -0.9478 72.9702 117.0839)" class="st20" cx="46.1" cy="52.6" rx="9" ry="12.2"/>
	</g>
	<path class="st23" d="M199.3,115.8H50.7c-1.1,0-2-0.9-2-2V4.9c0-1.1,0.9-2,2-2h148.6c1.1,0,2,0.9,2,2v108.9
		C201.3,114.9,200.4,115.8,199.3,115.8z"/>
	<path class="st19" d="M48.7,16.3V4.9c0-1.1,0.9-2,2-2h148.6c1.1,0,2,0.9,2,2v11.5H48.7z"/>
	<g>
		<circle class="st30" cx="122.5" cy="46" r="2.5"/>
		<circle class="st31" cx="136.7" cy="51.6" r="3.5"/>
		<circle class="st32" cx="141.8" cy="68.1" r="4.5"/>
		<circle class="st33" cx="108.3" cy="76.7" r="6.5"/>
		<circle class="st34" cx="129" cy="83.2" r="5.5"/>
		<circle class="st29" cx="106.9" cy="57.1" r="7.5"/>
	</g>
	<g>
		<path class="st37" d="M230.3,15.8c0,4.3-3.5,7.8-7.8,7.8s-7.8-3.5-7.8-7.8s6.8-10.7,7.8-10.7S230.3,11.5,230.3,15.8z"/>
		<path class="st38" d="M227.1,19.1c0,2.5-2,4.5-4.5,4.5s-4.5-2-4.5-4.5s4-6.2,4.5-6.2S227.1,16.6,227.1,19.1z"/>
	</g>
	<g>
		<path class="st37" d="M35.5,22.9c0,4.3-3.5,7.8-7.8,7.8s-7.8-3.5-7.8-7.8s6.8-10.7,7.8-10.7S35.5,18.6,35.5,22.9z"/>
		<path class="st38" d="M32.2,26.2c0,2.5-2,4.5-4.5,4.5s-4.5-2-4.5-4.5s4-6.2,4.5-6.2C28.2,20,32.2,23.7,32.2,26.2z"/>
	</g>
	<g>
		<path class="st37" d="M10.9,44.8c0,2.9-2.3,5.2-5.2,5.2s-5.2-2.3-5.2-5.2c0-2.9,4.6-7.2,5.2-7.2S10.9,41.9,10.9,44.8z"/>
		<path class="st38" d="M8.7,47c0,1.7-1.4,3-3,3s-3-1.4-3-3s2.7-4.2,3-4.2S8.7,45.3,8.7,47z"/>
	</g>
	<g>
		<path class="st37" d="M247,34.1c0,3.2-2.6,5.8-5.8,5.8s-5.8-2.6-5.8-5.8s5.1-7.9,5.8-7.9C241.9,26.2,247,30.9,247,34.1z"/>
		<path class="st38" d="M244.6,36.5c0,1.9-1.5,3.4-3.4,3.4c-1.9,0-3.4-1.5-3.4-3.4s3-4.6,3.4-4.6S244.6,34.7,244.6,36.5z"/>
	</g>
	<g>
		<path class="st37" d="M227.9,58.9c0,4.8-3.9,8.8-8.8,8.8s-8.8-3.9-8.8-8.8s7.7-12,8.8-12S227.9,54.1,227.9,58.9z"/>
		<path class="st38" d="M224.2,62.6c0,2.8-2.3,5.1-5.1,5.1s-5.1-2.3-5.1-5.1s4.5-7,5.1-7S224.2,59.8,224.2,62.6z"/>
	</g>
	<g>
		<path class="st37" d="M38.1,84.2c0,2.9-2.3,5.2-5.2,5.2s-5.2-2.3-5.2-5.2s4.6-7.2,5.2-7.2C33.5,77,38.1,81.3,38.1,84.2z"/>
		<path class="st38" d="M36,86.3c0,1.7-1.4,3-3,3c-1.7,0-3-1.4-3-3s2.7-4.2,3-4.2S36,84.7,36,86.3z"/>
	</g>
	<circle class="st40" cx="55.9" cy="9.9" r="2.3"/>
	<circle class="st40" cx="63.2" cy="9.9" r="2.3"/>
	<circle class="st40" cx="70.3" cy="9.9" r="2.3"/>
</g>
</svg>
