<svg id="Layer_1" data-name="Layer 1" xmlns="http://www.w3.org/2000/svg" viewBox="0 0 292.54 298.94"><defs><style>.cls-1,.cls-2,.cls-6{fill:#fff;}.cls-1{stroke:#c3e9ec;}.cls-1,.cls-2,.cls-3,.cls-4,.cls-5,.cls-6,.cls-7{stroke-linecap:round;}.cls-1,.cls-2,.cls-6,.cls-7{stroke-linejoin:round;}.cls-1,.cls-2{stroke-width:5.88px;}.cls-2{stroke:#91d5d9;}.cls-3,.cls-4,.cls-5,.cls-7{fill:none;}.cls-3{stroke:#ef5034;}.cls-3,.cls-4,.cls-5{stroke-miterlimit:10;}.cls-3,.cls-4,.cls-5,.cls-6,.cls-7{stroke-width:5.63px;}.cls-4{stroke:#f59685;}.cls-5{stroke:#f59122;}.cls-6,.cls-7{stroke:#6ac9d0;}</style></defs><title>ipfs illustrations</title><rect class="cls-1" x="27.88" y="32.94" width="117.98" height="152.68"/><line class="cls-1" x1="46.21" y1="58.15" x2="127.54" y2="58.15"/><line class="cls-1" x1="46.21" y1="79.7" x2="127.54" y2="79.7"/><line class="cls-1" x1="46.21" y1="101.25" x2="127.54" y2="101.25"/><line class="cls-1" x1="46.21" y1="122.79" x2="127.54" y2="122.79"/><line class="cls-1" x1="46.21" y1="144.34" x2="99.42" y2="144.34"/><rect class="cls-2" x="85.27" y="75.8" width="117.98" height="152.68"/><line class="cls-2" x1="103.59" y1="101.01" x2="184.92" y2="101.01"/><line class="cls-2" x1="103.59" y1="122.56" x2="184.92" y2="122.56"/><line class="cls-3" x1="152.81" y1="122.56" x2="172.97" y2="122.56"/><line class="cls-2" x1="103.59" y1="144.1" x2="184.92" y2="144.1"/><line class="cls-2" x1="103.59" y1="165.52" x2="184.92" y2="165.52"/><line class="cls-2" x1="103.59" y1="187.19" x2="156.8" y2="187.19"/><line class="cls-4" x1="118.53" y1="165.52" x2="145.1" y2="165.52"/><line class="cls-5" x1="159.86" y1="228.48" x2="241.19" y2="228.48"/><rect class="cls-6" x="141.53" y="117.08" width="117.98" height="152.68"/><line class="cls-7" x1="159.86" y1="142.29" x2="241.19" y2="142.29"/><line class="cls-5" x1="173.92" y1="142.29" x2="213.06" y2="142.29"/><line class="cls-7" x1="159.86" y1="163.84" x2="241.19" y2="163.84"/><line class="cls-5" x1="195.72" y1="163.84" x2="213.06" y2="163.84"/><line class="cls-3" x1="209.08" y1="163.84" x2="229.23" y2="163.84"/><line class="cls-7" x1="159.86" y1="185.39" x2="241.19" y2="185.39"/><line class="cls-7" x1="159.86" y1="206.81" x2="241.19" y2="206.81"/><line class="cls-5" x1="203.62" y1="206.81" x2="230.19" y2="206.81"/><line class="cls-7" x1="159.86" y1="228.48" x2="213.06" y2="228.48"/><line class="cls-3" x1="174.79" y1="206.81" x2="201.36" y2="206.81"/><line class="cls-5" x1="160.73" y1="249.7" x2="187.3" y2="249.7"/><line class="cls-5" x1="211.89" y1="228.48" x2="241.89" y2="228.48"/></svg>