<?xml version="1.0" encoding="utf-8"?>
<!-- Generator: Adobe Illustrator 19.1.0, SVG Export Plug-In . SVG Version: 6.00 Build 0)  -->
<svg version="1.1" xmlns="http://www.w3.org/2000/svg" xmlns:xlink="http://www.w3.org/1999/xlink" x="0px" y="0px" width="101.2px"
	 height="101.4px" viewBox="0 0 101.2 101.4" style="enable-background:new 0 0 101.2 101.4;" xml:space="preserve">
<style type="text/css">
	.st0{display:none;}
	.st1{display:inline;fill:#F05135;}
	.st2{display:inline;fill:#083B54;}
	.st3{display:inline;fill:#6ACAD1;}
	.st4{display:inline;fill:#F59223;}
	.st5{display:inline;fill:none;stroke:#F05135;stroke-width:2.5;stroke-miterlimit:10;}
	.st6{display:inline;fill:none;stroke:#083B54;stroke-width:2.5;stroke-miterlimit:10;}
	.st7{display:inline;fill:none;stroke:#6ACAD1;stroke-width:2.5;stroke-miterlimit:10;}
	.st8{display:inline;fill:none;stroke:#F59223;stroke-width:2.5;stroke-miterlimit:10;}
	.st9{display:inline;fill:#FDD9C8;stroke:#F05135;stroke-width:2.5;stroke-miterlimit:10;}
	.st10{display:inline;fill:#D3D5DB;stroke:#083B54;stroke-width:2.5;stroke-miterlimit:10;}
	.st11{display:inline;fill:#E0F2F3;stroke:#6ACAD1;stroke-width:2.5;stroke-miterlimit:10;}
	.st12{display:inline;fill:#FEE5CB;stroke:#F59223;stroke-width:2.5;stroke-miterlimit:10;}
	.st13{display:inline;fill:#FFFFFF;stroke:#F05135;stroke-width:2.5;stroke-miterlimit:10;}
	.st14{display:inline;fill:#FFFFFF;stroke:#083B54;stroke-width:2.5;stroke-miterlimit:10;}
	.st15{display:inline;fill:#FFFFFF;stroke:#6ACAD1;stroke-width:2.5;stroke-miterlimit:10;}
	.st16{display:inline;fill:#FFFFFF;stroke:#F59223;stroke-width:2.5;stroke-miterlimit:10;}
	.st17{display:inline;}
	.st18{display:inline;fill:#FFFFFF;}
	.st19{fill:#FFFFFF;}
	.st20{fill:#E0F2F3;}
	.st21{fill:#D3D5DB;stroke:#D3D5DB;stroke-linejoin:round;stroke-miterlimit:10;}
	.st22{fill:#FFFFFF;stroke:#6ACAD1;stroke-width:2.5;stroke-linejoin:round;stroke-miterlimit:10;}
	.st23{fill:#063B54;}
	.st24{fill:#FFFFFF;stroke:#6ACAD1;stroke-width:2.5;stroke-miterlimit:10;}
	.st25{fill:#E0F2F3;stroke:#6ACAD1;stroke-width:2.5;stroke-linejoin:round;stroke-miterlimit:10;}
	.st26{fill:none;stroke:#6ACAD1;stroke-width:1.5;stroke-miterlimit:10;}
	.st27{fill:#D3D5DB;}
	.st28{fill:#E0F2F3;stroke:#6ACAD1;stroke-width:2.5;stroke-miterlimit:10;}
	.st29{fill:#083B54;}
	.st30{fill:#F05135;}
	.st31{fill:#F59223;}
	.st32{fill:none;stroke:#6ACAD1;stroke-width:2.5;stroke-miterlimit:10;}
	.st33{fill:none;stroke:#F05135;stroke-miterlimit:10;}
	.st34{fill:none;stroke:#D3D5DB;stroke-width:0.5;stroke-miterlimit:10;}
	.st35{fill:#083B54;stroke:#063B54;stroke-width:0.5;stroke-linejoin:round;stroke-miterlimit:10;}
	.st36{fill:none;stroke:#063B54;stroke-width:0.7;stroke-miterlimit:10;}
	.st37{fill:none;stroke:#D3D5DB;stroke-width:0.3;stroke-miterlimit:10;}
	.st38{fill:none;stroke:#6ACAD1;stroke-width:2.5;stroke-linejoin:round;stroke-miterlimit:10;}
	.st39{fill:none;stroke:#F05135;stroke-width:2.5;stroke-linecap:round;stroke-miterlimit:10;}
	.st40{fill:#083B54;stroke:#063B54;stroke-linejoin:round;stroke-miterlimit:10;}
	.st41{fill:none;stroke:#E0F2F3;stroke-miterlimit:10;}
	.st42{fill:none;stroke:#6ACAD1;stroke-linecap:round;stroke-linejoin:round;stroke-miterlimit:10;}
	.st43{fill:none;stroke:#6ACAD1;stroke-width:2.5;stroke-linecap:round;stroke-linejoin:round;stroke-miterlimit:10;}
	.st44{fill:#F05135;stroke:#F05235;stroke-linejoin:round;stroke-miterlimit:10;}
	.st45{fill:none;stroke:#F05135;stroke-width:2;stroke-linecap:round;stroke-miterlimit:10;}
	.st46{fill:none;stroke:#E0F2F3;stroke-width:1.5;stroke-linecap:round;stroke-miterlimit:10;}
	.st47{fill:none;stroke:#FCC941;stroke-width:2;stroke-miterlimit:10;}
	.st48{fill:#6ACAD1;}
	.st49{fill:none;stroke:#063B54;stroke-width:2.5;stroke-miterlimit:10;}
</style>
<g id="template" class="st0">
	<g id="nNZJUW_1_" class="st17">
		
			<image style="overflow:visible;" width="938" height="388" id="nNZJUW_2_" xlink:href="567DF9E72F60607B.png"  transform="matrix(1 0 0 1 -440.8082 -291.5144)">
		</image>
	</g>
	<rect x="-423.8" y="-163.2" class="st18" width="949" height="270.1"/>
	<g class="st17">
		<g id="Kopayy_1_">
			
				<image style="overflow:visible;" width="949" height="694" id="Kopayy_2_" xlink:href="567DF9E72F606079.png"  transform="matrix(1 0 0 1 -423.8082 -71.5273)">
			</image>
		</g>
	</g>
</g>
<g id="Layer_3">
	<circle class="st20" cx="50.7" cy="50.7" r="50.7"/>
</g>
<g id="stuffs">
	<path class="st27" d="M84.1,80.6c-4.3,1-8.6,2.5-13,3c-4.7,0.5-9.4,0.1-14.1,0.4c-10.5,0.6-20.5,1-30.9-1.1
		c-4.6-0.9-9.2-2.1-13.4-4.2c-0.8-0.4-1.7-1-2.6-1.6c-0.1,0-0.1,0-0.2,0c-2.9-0.6-6.3-1.4-8.8-3.3C1.1,74.5,1,75.3,1,76
		c0,5.4,25.6,13.6,49.9,13.6c24.2,0,49.5-7.8,49.5-14.1c0-1.4-0.1-2.8-0.2-4.3C95.9,75.8,90.2,79.2,84.1,80.6z"/>
	<ellipse class="st24" cx="50.6" cy="68.4" rx="44.2" ry="11.8"/>
	<path class="st32" d="M99.3,71.8c0,6.3-24.1,13.3-48.4,13.3s-49-7.3-49-12.7c0-19.3,13.8-46.9,48.7-46.9S99.3,52.5,99.3,71.8z"/>
	<circle class="st24" cx="50.6" cy="21.3" r="3.5"/>
	<polygon class="st40" points="50.7,37.9 54.4,45.4 62.7,46.6 56.7,52.5 58.1,60.7 50.7,56.8 43.3,60.7 44.7,52.5 38.7,46.6 
		47,45.4 	"/>
	<ellipse class="st27" cx="50.7" cy="69.3" rx="12.4" ry="1.9"/>
	<path class="st19" d="M27.3,36.7C19.2,42,16.7,50,17.4,51.1c0.8,1.2,4.3-5.5,12.5-10.9s17.9-7.4,17.1-8.5
		C46.3,30.6,35.5,31.3,27.3,36.7z"/>
</g>
</svg>
