<svg id="Layer_1" data-name="Layer 1" xmlns="http://www.w3.org/2000/svg" xmlns:xlink="http://www.w3.org/1999/xlink" viewBox="0 0 260 184"><defs><style>.cls-1,.cls-16,.cls-2,.cls-3,.cls-5,.cls-6{fill:none;}.cls-2,.cls-3{stroke:#6ac9d0;stroke-linejoin:round;}.cls-16,.cls-2,.cls-3,.cls-4,.cls-5,.cls-6{stroke-width:4.28px;}.cls-16,.cls-3{stroke-linecap:round;}.cls-4{fill:#ffe5ca;}.cls-4,.cls-5{stroke:#f59122;}.cls-16,.cls-4,.cls-5,.cls-6{stroke-miterlimit:10;}.cls-5{opacity:0.4;}.cls-16,.cls-6{stroke:#c3e9ec;}.cls-7{clip-path:url(#clip-path);}.cls-8,.cls-9{fill:#469da1;}.cls-10,.cls-12,.cls-14,.cls-8{opacity:0.25;}.cls-10,.cls-11{fill:#6ac9d0;}.cls-12,.cls-13{fill:#f59122;}.cls-14,.cls-15{fill:#ef5034;}</style><clipPath id="clip-path"><ellipse class="cls-1" cx="183.93" cy="76.02" rx="73.6" ry="73.52"/></clipPath></defs><title>ipfs-illustrations-how</title><rect class="cls-2" x="2.1" y="63.7" width="91.13" height="117.8"/><line class="cls-3" x1="16.26" y1="83.16" x2="79.08" y2="83.16"/><line class="cls-3" x1="16.26" y1="99.39" x2="79.08" y2="99.39"/><line class="cls-3" x1="16.26" y1="115.63" x2="79.08" y2="115.63"/><line class="cls-3" x1="16.26" y1="131.86" x2="79.08" y2="131.86"/><line class="cls-3" x1="16.26" y1="148.1" x2="43.77" y2="148.1"/><line class="cls-3" x1="16.26" y1="164.33" x2="43.77" y2="164.33"/><ellipse class="cls-4" cx="66.82" cy="155.76" rx="8.19" ry="8.18"/><path class="cls-5" d="M59.21,158.78c-3.06,2.75-4.81,4.95-4.31,5.64s3.13-.3,6.7-2.36a78,78,0,0,0,6.64-4.36c6.58-4.78,11.29-9.53,10.51-10.6-0.49-.68-3.07.27-6.55,2.28"/><ellipse class="cls-6" cx="75.01" cy="116.06" rx="9.37" ry="9.36"/><g class="cls-7"><rect class="cls-8" x="109.75" y="1.35" width="43.35" height="43.3" rx="1.51" ry="1.51"/><path class="cls-9" d="M139.44,34a1.68,1.68,0,0,1-.28.19,2.86,2.86,0,0,1-.95.33,6.24,6.24,0,0,1-3.56-.53,8.62,8.62,0,0,1-2.07-1.34,9,9,0,0,1-1.79-2.14,12.35,12.35,0,0,1-1.15-2.71,17.73,17.73,0,0,1-.56-3,5.31,5.31,0,0,1,.12-1.71,3.22,3.22,0,0,1,1-1.73,2.34,2.34,0,0,1,1.1-.52,2.16,2.16,0,0,1,.66,0l0.12,0h0.06l0.08,0L132.56,21a2.71,2.71,0,0,1,1.36,1.52,9.94,9.94,0,0,1,.58,2.73,16.86,16.86,0,0,0,.33,2.15A10.72,10.72,0,0,0,136,30.48a8.42,8.42,0,0,0,.72,1.08l-0.3-.18a5.27,5.27,0,0,1-.8-0.6,8.33,8.33,0,0,1-2-3,15.35,15.35,0,0,1-.75-2.29,9.59,9.59,0,0,0-.62-2.22,1.16,1.16,0,0,0-.37-0.47s0.06,0,0,0l-0.08,0h-0.06l0.08,0h0a0.41,0.41,0,0,0-.14.09,2.38,2.38,0,0,0-.41,1.77,17.77,17.77,0,0,0,.42,2.59,10.53,10.53,0,0,0,.8,2.38,8,8,0,0,0,1.26,1.93A8.2,8.2,0,0,0,135.19,33a6.48,6.48,0,0,0,3,1.12,3.08,3.08,0,0,0,.93,0A1.65,1.65,0,0,0,139.44,34Z"/><path class="cls-9" d="M137.39,26.4s-0.15-.48-0.35-1.35-0.41-2.12-.83-3.46a5.2,5.2,0,0,0-1-1.84,4.27,4.27,0,0,0-.81-0.68c-0.09-.05-0.38-0.24-0.52-0.3a4.21,4.21,0,0,0-2.77-.28A4.69,4.69,0,0,0,129,19.7a6.11,6.11,0,0,0-.86,1l-0.18.24-0.2.31c-0.09.16-.18,0.33-0.26,0.52a7.16,7.16,0,0,0-.56,2.43,11,11,0,0,0,.84,4.62,11.48,11.48,0,0,0,1.79,3,9,9,0,0,0,1,1l-0.33-.15a6.86,6.86,0,0,1-.9-0.52,9.24,9.24,0,0,1-2.58-2.73,10.27,10.27,0,0,1-1.61-5.2,7.85,7.85,0,0,1,.54-3.19,7.74,7.74,0,0,1,.38-0.8l0.19-.32c0.1-.17.17-0.24,0.25-0.37a8,8,0,0,1,1.1-1.29,6.73,6.73,0,0,1,3-1.65,5.6,5.6,0,0,1,3.39.28,5.69,5.69,0,0,1,.77.37,7.35,7.35,0,0,1,.63.42,4.86,4.86,0,0,1,1.07,1.14,5.81,5.81,0,0,1,.92,2.55,19.39,19.39,0,0,1,0,3.71Z"/><path class="cls-9" d="M138.62,29.25s0-.5.16-1.35,0.29-2.08.47-3.51a19.58,19.58,0,0,0,.06-4.78,7.19,7.19,0,0,0-.75-2.35,5,5,0,0,0-1.62-1.79,6,6,0,0,0-2.27-1,9.92,9.92,0,0,0-2.54-.23,11.85,11.85,0,0,0-4.53,1.07A6.71,6.71,0,0,0,125,17.32a5.63,5.63,0,0,0-.5.84l-0.14.33,0-.36a4.21,4.21,0,0,1,.25-1A6.3,6.3,0,0,1,127,14.25a10.84,10.84,0,0,1,5-1.86,9.93,9.93,0,0,1,3.1.09,8,8,0,0,1,3,1.3,7.05,7.05,0,0,1,2.2,2.56,8,8,0,0,1,.79,3.08,12.16,12.16,0,0,1-.16,2.81,17.57,17.57,0,0,1-.55,2.39A30.55,30.55,0,0,1,139.18,28C138.83,28.8,138.62,29.25,138.62,29.25Z"/><path class="cls-9" d="M123.12,21.15s-0.05.39-.07,1.07a17.42,17.42,0,0,0,.13,2.76,13.19,13.19,0,0,0,1,3.64,10.08,10.08,0,0,0,1,1.82c0.2,0.29.41,0.57,0.63,0.85l0.17,0.21L126,31.57l0.1,0.11,0.4,0.42c0.27,0.28.52,0.47,0.78,0.72s0.54,0.47.84,0.66a15.7,15.7,0,0,0,1.78,1.09,15.07,15.07,0,0,0,1.81.77,13,13,0,0,0,1.71.47,11.39,11.39,0,0,0,1.51.2,8.82,8.82,0,0,0,1.19,0,6.49,6.49,0,0,0,.78-0.09l0.28,0a6.08,6.08,0,0,1-1,.5,5.8,5.8,0,0,1-1.23.36,7.77,7.77,0,0,1-1.66.16,9.26,9.26,0,0,1-2-.2,10.59,10.59,0,0,1-2.13-.65,10.77,10.77,0,0,1-2.1-1.14c-0.35-.22-0.66-0.49-1-0.74s-0.65-.59-0.91-0.88l-0.39-.43-0.1-.11-0.12-.15-0.19-.25a8.61,8.61,0,0,1-.7-1,10.88,10.88,0,0,1-1.5-6.33,11.82,11.82,0,0,1,.51-2.84A7.74,7.74,0,0,1,123.12,21.15Z"/><path class="cls-9" d="M120.67,27.94s0.1,0.27.24,0.75c0.07,0.24.15,0.53,0.23,0.86s0.26,0.65.38,1,0.35,0.74.51,1.15a12.83,12.83,0,0,0,.68,1.2c0.25,0.4.57,0.77,0.87,1.16a11.8,11.8,0,0,0,1,1.06,13.13,13.13,0,0,0,1.16,1c0.42,0.26.81,0.59,1.24,0.8s0.83,0.47,1.24.67,0.8,0.38,1.17.53A20.46,20.46,0,0,0,132,39l-0.2,0a3.74,3.74,0,0,1-.57.11,8.29,8.29,0,0,1-2.09,0,9.39,9.39,0,0,1-1.38-.25,9.11,9.11,0,0,1-1.5-.5,10.81,10.81,0,0,1-1.53-.77,10.18,10.18,0,0,1-1.42-1.08,9.67,9.67,0,0,1-1.21-1.33,10.55,10.55,0,0,1-.88-1.5,7.43,7.43,0,0,1-.54-1.52,6.71,6.71,0,0,1-.24-1.41c0-.45,0-0.85,0-1.2s0.09-.64.12-0.88C120.6,28.22,120.67,27.94,120.67,27.94Z"/><path class="cls-9" d="M120.37,25.81s-0.14-.43-0.36-1.2c-0.1-.38-0.25-0.84-0.36-1.38s-0.13-1.2-.18-1.91a13.66,13.66,0,0,1,.12-2.28,6.52,6.52,0,0,1,.26-1.23c0.11-.42.22-0.85,0.37-1.27a11.88,11.88,0,0,1,1.33-2.45,13.13,13.13,0,0,1,1.92-2.16,13.71,13.71,0,0,1,2.43-1.56l0.63-.32a6.72,6.72,0,0,1,.66-0.23c0.45-.13.88-0.3,1.32-0.39s0.88-.16,1.31-0.22a12.44,12.44,0,0,1,3.56.21,10.68,10.68,0,0,1,1.81.68,7.77,7.77,0,0,1,1.25.78c0.61,0.54.93,0.85,0.93,0.85s-0.43-.19-1.12-0.52a11.49,11.49,0,0,0-1.31-.42,3.54,3.54,0,0,0-.82-0.15l-0.91-.13h-1a4.89,4.89,0,0,0-1.05.08,9,9,0,0,0-1.09.17c-0.36.11-.74,0.19-1.12,0.29a13,13,0,0,0-2.2,1,12.11,12.11,0,0,0-2,1.37,11.25,11.25,0,0,0-1.67,1.79,13.23,13.23,0,0,0-1.27,2c-0.17.35-.27,0.73-0.42,1.08a5.48,5.48,0,0,0-.37,1.05l-0.24,1a4.59,4.59,0,0,0-.19,1c-0.05.64-.12,1.23-0.19,1.77s0,1,0,1.42C120.39,25.35,120.37,25.81,120.37,25.81Z"/><path class="cls-9" d="M123.14,9.85s0.33-.31.92-0.84a6,6,0,0,1,1.15-.86,9.25,9.25,0,0,1,1.67-.92l1-.43A9.59,9.59,0,0,1,129,6.49a11.76,11.76,0,0,1,2.53-.38c0.45,0,.9,0,1.36,0,0.23,0,.47,0,0.7,0l0.69,0.15a13.74,13.74,0,0,1,2.75.87l1.26,0.73a10.23,10.23,0,0,1,1.15.87c0.18,0.15.38,0.29,0.55,0.46l0.47,0.53a7.42,7.42,0,0,1,.86,1.08c0.24,0.39.48,0.76,0.69,1.14s0.32,0.79.48,1.17a9.48,9.48,0,0,1,.56,2.22,10.72,10.72,0,0,1,.1,1.9,6.36,6.36,0,0,1-.14,1.44c-0.13.79-.23,1.23-0.23,1.23s-0.07-.46-0.16-1.23a8.34,8.34,0,0,0-.21-1.37l-0.19-.82a4.42,4.42,0,0,0-.25-0.89,12,12,0,0,0-.8-1.88c-0.18-.31-0.33-0.65-0.54-1s-0.45-.61-0.68-0.92a5.91,5.91,0,0,0-.8-0.86,5.67,5.67,0,0,0-.89-0.79,8.38,8.38,0,0,0-1-.7L136.23,9a11.87,11.87,0,0,0-2.31-.79,6.42,6.42,0,0,0-1.19-.23c-0.4,0-.79-0.12-1.18-0.13a15.23,15.23,0,0,0-2.27.09,12.45,12.45,0,0,0-2,.37,12.79,12.79,0,0,0-1.68.52,7.8,7.8,0,0,0-1.3.54C123.56,9.67,123.14,9.85,123.14,9.85Z"/><path class="cls-9" d="M142.88,21.81s0.06,0.21.15,0.57a8,8,0,0,1,.21,1.53,10.08,10.08,0,0,1-.86,4.65A8.43,8.43,0,0,1,141,30.74a6.85,6.85,0,0,1-.86.83,5.51,5.51,0,0,1-.88.61,5.2,5.2,0,0,1-1.47.59c-0.38.07-.59,0.08-0.59,0.08l0.44-.38a12.62,12.62,0,0,0,1-1,14.09,14.09,0,0,0,2.23-3.56,22.27,22.27,0,0,0,.83-2.12c0.1-.35.24-0.69,0.33-1l0.27-.93,0.4-1.44C142.8,22,142.88,21.81,142.88,21.81Z"/><path class="cls-9" d="M133,39l1.68-.51,0.76-.27c0.27-.09.54-0.21,0.81-0.32s0.55-.26.83-0.38,0.55-.28.79-0.47a5.15,5.15,0,0,0,.73-0.53,5.83,5.83,0,0,0,.65-0.59,6.05,6.05,0,0,0,.56-0.63,5.46,5.46,0,0,0,.47-0.63c0.13-.21.3-0.39,0.39-0.57s0.2-.34.28-0.48,0.28-.42.28-0.42,0,0.18,0,.5c0,0.16,0,.36,0,0.59a3.4,3.4,0,0,1-.12.75,3.2,3.2,0,0,1-.27.88,4.29,4.29,0,0,1-.49.93,4.51,4.51,0,0,1-.72.87,4.77,4.77,0,0,1-.91.73,6.41,6.41,0,0,1-1,.54,7.15,7.15,0,0,1-1.06.32,6.79,6.79,0,0,1-1.91.13A4.92,4.92,0,0,1,133,39Z"/><rect class="cls-10" x="162.29" y="1.35" width="43.35" height="43.3" rx="1.51" ry="1.51"/><path class="cls-11" d="M184.35,27.37s0-.23.1-0.57a10.06,10.06,0,0,0,.11-1.35,4.72,4.72,0,0,0-.69-3,0.91,0.91,0,0,0-.3-0.24,2,2,0,0,0-.31-0.16,1.1,1.1,0,0,0-.59-0.08,1.38,1.38,0,0,0-.62.3,3.1,3.1,0,0,0-.53.59,5.54,5.54,0,0,0-.64,1.18,4.31,4.31,0,0,0-.19.52,4.38,4.38,0,0,1-.13-0.55,4.11,4.11,0,0,1,.06-1.53,3.34,3.34,0,0,1,.42-1,2.54,2.54,0,0,1,1-1,2.59,2.59,0,0,1,1.61-.21,3.43,3.43,0,0,1,.77.23,3.85,3.85,0,0,1,.69.38,3.16,3.16,0,0,1,1,1.3,4,4,0,0,1,.29,1.41,4.47,4.47,0,0,1-.55,2.25,3.76,3.76,0,0,1-1,1.22A2.44,2.44,0,0,1,184.35,27.37Z"/><path class="cls-11" d="M187.54,26.13a3.26,3.26,0,0,0,.28-1.16,8.33,8.33,0,0,0-.4-3,7.58,7.58,0,0,0-2.11-3.46,3.75,3.75,0,0,0-1.86-.88,4.43,4.43,0,0,0-2.16.23,3.72,3.72,0,0,0-1.66,1.3,5.47,5.47,0,0,0-.85,2.05,9.67,9.67,0,0,0,.15,4.22,11.72,11.72,0,0,0,1.13,2.9,10.67,10.67,0,0,0,.63,1,8.68,8.68,0,0,1-.87-0.87,10.08,10.08,0,0,1-1.72-2.8,9.57,9.57,0,0,1-.69-4.71,6.5,6.5,0,0,1,.93-2.69,4.9,4.9,0,0,1,2.36-2,5.62,5.62,0,0,1,3-.35,5.07,5.07,0,0,1,2.65,1.36,6.83,6.83,0,0,1,1.48,2.2,8.66,8.66,0,0,1,.61,2.21,7,7,0,0,1-.28,3.34,3.33,3.33,0,0,1-.44.83Z"/><path class="cls-11" d="M176.87,16.37s0-.21,0-0.58a2.27,2.27,0,0,1,.12-0.66,3.23,3.23,0,0,1,.33-0.85,4.19,4.19,0,0,1,.58-0.91,5.77,5.77,0,0,1,.85-0.86,6,6,0,0,1,1.08-.7,6.92,6.92,0,0,1,1.23-.5,7.77,7.77,0,0,1,2.56-.29,7,7,0,0,1,1.17.19,4.61,4.61,0,0,1,1,.32,4,4,0,0,1,.78.4,2.94,2.94,0,0,1,.55.39c0.29,0.24.43,0.39,0.43,0.39L187,12.63a12.07,12.07,0,0,0-1.42-.15c-0.29,0-.6,0-0.92,0s-0.66,0-1,.06-0.7.07-1,.16a9.81,9.81,0,0,0-1.05.25,8.82,8.82,0,0,0-1,.36,8.49,8.49,0,0,0-.93.45,8.78,8.78,0,0,0-.82.53,7.19,7.19,0,0,0-.68.58,5,5,0,0,0-.53.56,3.27,3.27,0,0,0-.39.5C177,16.2,176.87,16.37,176.87,16.37Z"/><path class="cls-11" d="M184.66,32.32s-0.33.17-.92,0.42a7.17,7.17,0,0,1-1.19.27,5.59,5.59,0,0,1-1.6-.08,6.07,6.07,0,0,1-1.82-.62c-0.29-.17-0.61-0.34-0.9-0.54s-0.58-.44-0.85-0.68-0.53-.52-0.79-0.8-0.48-.58-0.71-0.89-0.43-.63-0.62-1l-0.54-1a14.7,14.7,0,0,1-.79-2.15,11.56,11.56,0,0,1-.38-2.21,10.49,10.49,0,0,1,.06-2.08,10.25,10.25,0,0,1,.37-1.8,8.8,8.8,0,0,1,1.13-2.48,5.49,5.49,0,0,1,.63-0.8s-0.11.36-.24,1a15.08,15.08,0,0,0-.32,2.51c0,0.52,0,1.07,0,1.66a14.15,14.15,0,0,0,.22,1.8,15.36,15.36,0,0,0,.48,1.85,19.17,19.17,0,0,0,.74,1.85,18.48,18.48,0,0,0,.94,1.74l0.54,0.8,0.58,0.73,0.62,0.65c0.21,0.21.43,0.37,0.64,0.56a7.07,7.07,0,0,0,1.34.8l0.33,0.15L182,32c0.22,0.06.43,0.14,0.62,0.18,0.39,0,.75.13,1.07,0.12C184.29,32.31,184.66,32.32,184.66,32.32Z"/><path class="cls-11" d="M192.56,20.43a6.68,6.68,0,0,1,.48,1.12,10.16,10.16,0,0,1,.55,3.21,9.66,9.66,0,0,1-2.67,6.86c-0.34.36-.64,0.63-1,0.94s-0.69.6-1,.89a24,24,0,0,1-2.24,1.5,22.3,22.3,0,0,1-2.31,1.17c-1.53.67-3,1.14-4.2,1.54a13.2,13.2,0,0,0-2.8,1.2,5.08,5.08,0,0,0-.69.52l-0.22.23,0.13-.29a3.7,3.7,0,0,1,.5-0.77,9.4,9.4,0,0,1,2.58-2c1.15-.67,2.5-1.34,3.88-2.11,0.7-.38,1.38-0.81,2.07-1.24a22,22,0,0,0,2-1.43c0.33-.25.65-0.51,1-0.77s0.65-.56.9-0.82a10.43,10.43,0,0,0,1.43-1.73,10.83,10.83,0,0,0,1.48-3.8,15.22,15.22,0,0,0,.25-3C192.61,20.87,192.56,20.43,192.56,20.43Z"/><path class="cls-11" d="M194.8,28.53s0.06,0.3.14,0.82a3.3,3.3,0,0,1,.06,1,8.88,8.88,0,0,1-.18,1.31,8.67,8.67,0,0,1-.55,1.45,7.29,7.29,0,0,1-1,1.44l-0.6.69c-0.22.21-.45,0.42-0.69,0.62a13.08,13.08,0,0,1-1.53,1.09,17.25,17.25,0,0,1-1.65.83,17.81,17.81,0,0,1-3.26,1c-0.51.11-1,.18-1.45,0.23a13.5,13.5,0,0,1-3,.06l0.76-.34,2-.82c0.81-.34,1.74-0.72,2.71-1.17,0.49-.21,1-0.47,1.47-0.71s1-.53,1.46-0.79,1-.56,1.36-0.9c0.21-.16.42-0.32,0.64-0.47l0.56-.51a10.73,10.73,0,0,0,1-1.05c0.29-.36.49-0.74,0.74-1.08s0.32-.69.48-1a4.55,4.55,0,0,0,.3-0.88C194.7,28.82,194.8,28.53,194.8,28.53Z"/><path class="cls-11" d="M195.1,25.35s0-.45-0.07-1.22c0-.39,0-0.86,0-1.4s-0.16-1.11-.22-1.73-0.3-1.29-.42-2a6.62,6.62,0,0,0-.34-1c-0.14-.35-0.23-0.72-0.39-1.07a14.36,14.36,0,0,0-1.15-2.05A11.52,11.52,0,0,0,190.95,13L190,12.19a7.64,7.64,0,0,0-1-.67,6,6,0,0,0-1-.56,5.72,5.72,0,0,0-1.06-.44l-1.07-.33L184.84,10a6,6,0,0,0-1-.07,4.92,4.92,0,0,0-1,0,10.27,10.27,0,0,0-1.7.24,8.2,8.2,0,0,0-1.31.36c-0.71.27-1.14,0.43-1.14,0.43s0.33-.28,1-0.77a6.19,6.19,0,0,1,1.24-.73,7.83,7.83,0,0,1,1.78-.65,5.84,5.84,0,0,1,1.07-.19,6.08,6.08,0,0,1,1.17-.08l1.25,0.06c0.42,0.05.85,0.17,1.29,0.26a7.21,7.21,0,0,1,1.29.42l0.65,0.25c0.21,0.1.41,0.23,0.61,0.35a9.43,9.43,0,0,1,1.2.77l1.11,0.91a13.42,13.42,0,0,1,1.74,2.24,12.38,12.38,0,0,1,1.17,2.46,16.29,16.29,0,0,1,.55,2.45,16.21,16.21,0,0,1,.11,2.22c0,0.69-.1,1.32-0.16,1.86s-0.22,1-.31,1.37C195.23,24.92,195.1,25.35,195.1,25.35Z"/><path class="cls-11" d="M194.08,11s-0.39-.33-1.06-0.92a7.53,7.53,0,0,0-1.27-.92c-0.26-.16-0.5-0.35-0.8-0.5l-1-.45L189.48,8c-0.18-.07-0.37-0.11-0.55-0.17l-1.15-.36a14.71,14.71,0,0,0-2.56-.29,12.49,12.49,0,0,0-2.72.23l-1.35.36c-0.44.15-.86,0.38-1.29,0.56a6.51,6.51,0,0,0-1.22.69L178,9.41a6.34,6.34,0,0,0-.53.45c-0.33.32-.71,0.59-1,0.93l-0.87,1a7,7,0,0,0-.73,1.1c-0.22.37-.47,0.72-0.65,1.1-0.29.78-.67,1.49-0.9,2.19s-0.38,1.37-.55,2-0.19,1.12-.28,1.56l-0.25,1.38s0-.5-0.08-1.4c0-.45-0.07-1,0-1.63s0.15-1.33.26-2.11a22.54,22.54,0,0,1,.68-2.45c0.15-.43.39-0.84,0.59-1.27a6.69,6.69,0,0,1,.73-1.28l0.91-1.24a12.5,12.5,0,0,1,1.12-1.11,7.68,7.68,0,0,1,.6-0.53l0.67-.45a7.75,7.75,0,0,1,1.4-.82c0.5-.2,1-0.45,1.51-0.61l1.56-.39a12,12,0,0,1,3.11-.11,12.56,12.56,0,0,1,2.83.56,12.09,12.09,0,0,1,2.31,1.12L191.38,8c0.29,0.21.53,0.47,0.77,0.69a6.48,6.48,0,0,1,1.11,1.19C193.79,10.62,194.08,11,194.08,11Z"/><path class="cls-11" d="M190.26,25.09s0,0.22,0,.58c0,0.18,0,.41-0.09.65a7.46,7.46,0,0,1-.29.85,4,4,0,0,1-.51,1,4.6,4.6,0,0,1-.78.95,2.55,2.55,0,0,1-.51.42,5.45,5.45,0,0,1-.58.38,5.16,5.16,0,0,1-1.34.48,2.78,2.78,0,0,1-.72.09,3.32,3.32,0,0,1-.73,0,7,7,0,0,1-.71-0.14L183.3,30a3.24,3.24,0,0,1-1-.89,1.66,1.66,0,0,1-.33-0.54,1.86,1.86,0,0,1-.18-0.55,2.18,2.18,0,0,1,0-1,1.72,1.72,0,0,1,.22-0.67c0.18-.34.3-0.51,0.3-0.51s0,0.23,0,.58a2,2,0,0,0,.1.6,2.14,2.14,0,0,0,.26.66,1,1,0,0,0,.23.3,0.93,0.93,0,0,0,.28.27,2.69,2.69,0,0,0,.73.38l0.43,0.11,0.47,0a2.76,2.76,0,0,0,.48,0,1.59,1.59,0,0,0,.48-0.07,5,5,0,0,0,1-.29,7.12,7.12,0,0,0,.87-0.49,5.41,5.41,0,0,0,.77-0.6,6.33,6.33,0,0,0,.64-0.64l0.52-.6c0.14-.21.27-0.39,0.38-0.54S190.26,25.09,190.26,25.09Z"/><path class="cls-11" d="M179.53,34.94a4.58,4.58,0,0,1-1.84-.2,6.92,6.92,0,0,1-1.75-.77,7.5,7.5,0,0,1-2.36-2.35,8.62,8.62,0,0,1-.51-1,8.21,8.21,0,0,1-.33-1,4.38,4.38,0,0,1-.18-0.88,5.12,5.12,0,0,1,0-1.34c0-.32.06-0.5,0.06-0.5s0.11,0.16.27,0.43,0.18,0.3.27,0.49,0.24,0.39.36,0.61,0.25,0.46.42,0.7l0.49,0.74c0.19,0.24.35,0.51,0.55,0.75s0.37,0.51.6,0.73a16,16,0,0,0,1.31,1.35c0.44,0.42.89,0.79,1.29,1.11C178.91,34.51,179.53,34.94,179.53,34.94Z"/><path class="cls-11" d="M190.46,22.91s0-.24,0-0.66c0-.21,0-0.45-0.06-0.72s-0.1-.58-0.13-0.91-0.14-.68-0.26-1a9.49,9.49,0,0,0-.4-1.09,7.53,7.53,0,0,0-.56-1.06,7.7,7.7,0,0,0-.72-1,6.56,6.56,0,0,0-.9-0.78,7.64,7.64,0,0,0-1-.6c-0.37-.11-0.7-0.31-1.07-0.38s-0.7-.21-1-0.23-0.64-.09-0.92-0.14l-0.73,0L182,14.22s0.21-.1.61-0.26c0.2-.08.44-0.18,0.73-0.27s0.62-.13,1-0.19a5.64,5.64,0,0,1,1.22,0,7.46,7.46,0,0,1,1.38.22,6.27,6.27,0,0,1,1.39.64,6.34,6.34,0,0,1,1.24,1,7,7,0,0,1,.9,1.29,3.43,3.43,0,0,1,.32.69,5.54,5.54,0,0,1,.24.7,6.74,6.74,0,0,1,.22,1.36,6.62,6.62,0,0,1,0,1.21,6.26,6.26,0,0,1-.45,1.74C190.58,22.7,190.46,22.91,190.46,22.91Z"/><path class="cls-11" d="M176.44,36.94a1.68,1.68,0,0,1-.69.2,1.85,1.85,0,0,1-1.24-.36,1.82,1.82,0,0,1-.7-1.12,1.46,1.46,0,0,1,0-.73h0.22a4.48,4.48,0,0,1,.46.07,2.18,2.18,0,0,1,1.68,1.27A3.25,3.25,0,0,1,176.44,36.94Z"/><rect class="cls-12" x="214.77" y="1.35" width="43.35" height="43.3" rx="1.51" ry="1.51"/><path class="cls-13" d="M231.45,25.93l0.44-.22a5.09,5.09,0,0,0,.95-0.66,4.08,4.08,0,0,0,.89-1.11,1.85,1.85,0,0,0,.27-1.16,0.68,0.68,0,0,0-.06-0.16l0,0s0,0,0,0l0,0,0,0-0.2-.16a1.2,1.2,0,0,0-.45-0.21,1.5,1.5,0,0,0-1.13.49,4.46,4.46,0,0,0-.76.89,3.63,3.63,0,0,0-.26.41,3.11,3.11,0,0,1,0-.5,3.43,3.43,0,0,1,.35-1.3,2.91,2.91,0,0,1,.59-0.79,2,2,0,0,1,1.13-.55,2.24,2.24,0,0,1,1.43.29l0.22,0.13,0.05,0,0,0L235,21.37l0.16,0.14a2,2,0,0,1,.47.71,2.39,2.39,0,0,1,0,1.5,3.17,3.17,0,0,1-.58,1.13A3.45,3.45,0,0,1,233.34,26a2.86,2.86,0,0,1-1.4.07A2.48,2.48,0,0,1,231.45,25.93Z"/><path class="cls-13" d="M230.58,19.89l0.11-.21a3.48,3.48,0,0,1,.37-0.56,4.52,4.52,0,0,1,2-1.43,4.15,4.15,0,0,1,1.73-.25,4.39,4.39,0,0,1,1.9.57,4.66,4.66,0,0,1,.86.63,4.45,4.45,0,0,1,.71.83,4.26,4.26,0,0,1,.67,2.1,6,6,0,0,1-1.16,3.85,7,7,0,0,1-2.57,2.21,6.87,6.87,0,0,1-2.23.69,6.23,6.23,0,0,1-.64,0h-0.23l0.22-.07a6.07,6.07,0,0,0,.6-0.21,7.93,7.93,0,0,0,1.93-1.06,7.08,7.08,0,0,0,2-2.23,5.33,5.33,0,0,0,.69-3.11,3.29,3.29,0,0,0-.51-1.39,2.71,2.71,0,0,0-.49-0.54,6.39,6.39,0,0,0-.59-0.4,3.88,3.88,0,0,0-1.28-.48,4.32,4.32,0,0,0-1.27,0,6.12,6.12,0,0,0-1.13.26,7.34,7.34,0,0,0-.87.36l-0.56.3Z"/><path class="cls-13" d="M228.9,16.85s0.11-.22.32-0.58a2.64,2.64,0,0,1,.45-0.61,4.15,4.15,0,0,1,.74-0.72l0.47-.36,0.55-.31a7.48,7.48,0,0,1,1.27-.53,8.13,8.13,0,0,1,1.44-.27,8.63,8.63,0,0,1,1.52,0,8.77,8.77,0,0,1,1.48.28,7.84,7.84,0,0,1,1.37.51,8.22,8.22,0,0,1,1.16.69,6.13,6.13,0,0,1,.91.79,4.13,4.13,0,0,1,.65.78,3.36,3.36,0,0,1,.4.66c0.18,0.39.26,0.61,0.26,0.61l-0.55-.36a6.57,6.57,0,0,0-.61-0.38,7.89,7.89,0,0,0-.8-0.43c-0.28-.16-0.62-0.27-1-0.42s-0.71-.25-1.08-0.37-0.77-.21-1.18-0.28-0.81-.12-1.22-0.18a12,12,0,0,0-1.23,0c-0.41,0-.8.06-1.19,0.07s-0.77.1-1.11,0.21a6.67,6.67,0,0,0-1,.29,7.48,7.48,0,0,0-.82.33,3.9,3.9,0,0,0-.65.32C229.12,16.75,228.9,16.85,228.9,16.85Z"/><path class="cls-13" d="M238,38.5s-0.26.05-.7,0.1-1,.13-1.77.17a17.4,17.4,0,0,1-5.42-.37,11.05,11.05,0,0,1-1.48-.49,7.25,7.25,0,0,1-1.39-.76,5.75,5.75,0,0,1-1.14-1,4.17,4.17,0,0,1-.69-1.22,5.06,5.06,0,0,1-.19-0.57l0-.54c0-.17,0-0.32,0-0.46l0.07-.38a5.46,5.46,0,0,1,.17-0.69s0.13,0.24.3,0.63l0.14,0.31c0.08,0.1.14,0.21,0.22,0.33l0.23,0.35,0.31,0.33a4.59,4.59,0,0,0,.74.61,7,7,0,0,0,1,.49c0.34,0.16.74,0.28,1.13,0.42s0.82,0.25,1.27.34c1.74,0.44,3.62.82,5,1.34a10.68,10.68,0,0,1,1.68.72C237.8,38.35,238,38.5,238,38.5Z"/><path class="cls-13" d="M243.81,19.63s0.2,0.27.51,0.76a5,5,0,0,1,.51.92c0.15,0.39.32,0.85,0.47,1.36a14.46,14.46,0,0,1,.21,1.69l0,0.94a3.67,3.67,0,0,1-.14,1c-0.07.33-.16,0.66-0.25,1s-0.26.64-.4,1a5.33,5.33,0,0,1-.49.94c-0.19.3-.35,0.62-0.57,0.89a12.14,12.14,0,0,1-1.37,1.57,13.21,13.21,0,0,1-1.53,1.28,13.63,13.63,0,0,1-1.6.94c-0.26.13-.51,0.26-0.77,0.37l-0.75.27a9.08,9.08,0,0,1-1.34.37c-0.41.08-.77,0.1-1.06,0.14a7.78,7.78,0,0,1-.93,0l0.81-.4,0.87-.51c0.32-.23.69-0.43,1.07-0.72s0.78-.58,1.2-0.91,0.81-.72,1.25-1.08,0.84-.8,1.21-1.25a15.87,15.87,0,0,0,1.12-1.37c0.19-.23.32-0.49,0.48-0.73a5,5,0,0,0,.44-0.74c0.12-.26.26-0.51,0.39-0.75l0.29-.77,0.15-.38,0.09-.38,0.19-.75L244,22.81c0-.44,0-0.85,0-1.24a9.1,9.1,0,0,0-.11-1C243.82,20,243.81,19.63,243.81,19.63Z"/><path class="cls-13" d="M248.08,22.85s-0.15-.33-0.37-0.9a10.48,10.48,0,0,0-.41-1c-0.19-.37-0.34-0.79-0.58-1.23L246.34,19a5.12,5.12,0,0,0-.41-0.7l-0.47-.71-0.54-.69a14.51,14.51,0,0,0-1.22-1.35,12.82,12.82,0,0,0-1.45-1.16,4.58,4.58,0,0,0-.78-0.5,7.1,7.1,0,0,0-.81-0.43l-0.83-.37L239,12.83a6.76,6.76,0,0,0-.84-0.21,4.88,4.88,0,0,0-.82-0.16,12.13,12.13,0,0,0-1.56-.12,9.46,9.46,0,0,0-1.36,0,7.38,7.38,0,0,0-1.07.11c-0.6.1-1,.13-1,0.13s0.28-.21.81-0.55a4.79,4.79,0,0,1,1-.53l0.65-.28c0.23-.09.49-0.13,0.76-0.21a8.52,8.52,0,0,1,.85-0.19l0.93-.08a6.23,6.23,0,0,1,1,0,5.82,5.82,0,0,1,1,.1l1.06,0.22c0.35,0.11.7,0.24,1.05,0.37a6.74,6.74,0,0,1,1,.49,6,6,0,0,1,1,.59A11.21,11.21,0,0,1,245.24,14c0.26,0.27.47,0.57,0.7,0.85a5.37,5.37,0,0,1,.6.89c0.17,0.31.37,0.59,0.51,0.9l0.38,0.91a9.79,9.79,0,0,1,.51,1.7,10.64,10.64,0,0,1,.21,1.48,5.73,5.73,0,0,1,0,1.12C248.12,22.49,248.08,22.85,248.08,22.85Z"/><path class="cls-13" d="M235.45,9.92s-0.22.07-.61,0.15a5.13,5.13,0,0,0-.64.21c-0.23.06-.49,0.22-0.77,0.33s-0.57.31-.87,0.47-0.62.36-.93,0.59-0.64.44-1,.68-0.64.5-1,.75c-0.62.53-1.22,1.08-1.76,1.63-0.27.27-.52,0.55-0.76,0.81s-0.47.51-.65,0.77-0.38.47-.51,0.69-0.3.4-.38,0.57c-0.19.33-.32,0.53-0.32,0.53s0-.22,0-0.63a3.58,3.58,0,0,1,.07-0.73,4.6,4.6,0,0,1,.23-0.93,7.9,7.9,0,0,1,1.08-2.13,10.78,10.78,0,0,1,1.85-2,11.33,11.33,0,0,1,1.13-.81,8.18,8.18,0,0,1,1.19-.64A8.71,8.71,0,0,1,232,9.77a7.69,7.69,0,0,1,1.13-.2,4.61,4.61,0,0,1,1,0,3.08,3.08,0,0,1,.73.13C235.24,9.83,235.45,9.92,235.45,9.92Z"/><path class="cls-13" d="M231.49,30.84l1-.15c0.3-.06.66-0.13,1.07-0.25a4.48,4.48,0,0,0,.63-0.2,6.58,6.58,0,0,0,.68-0.26,9.83,9.83,0,0,0,2.82-1.83,9.33,9.33,0,0,0,1.24-1.39,8.71,8.71,0,0,0,1-1.63,7.23,7.23,0,0,0,.58-1.77,6.08,6.08,0,0,0,.11-1.77,5.3,5.3,0,0,0-1.19-2.92,4.29,4.29,0,0,0-.48-0.53,3.65,3.65,0,0,0-.48-0.45,11,11,0,0,0-.87-0.67l-0.84-.53,0.26,0a7.26,7.26,0,0,1,.73.14,6.5,6.5,0,0,1,1.11.39,5.32,5.32,0,0,1,1.34.81,5.78,5.78,0,0,1,2.1,3.46,7.51,7.51,0,0,1-.62,4.61,9.15,9.15,0,0,1-2.89,3.53,8.14,8.14,0,0,1-1.81,1,7.5,7.5,0,0,1-1.77.53,6.66,6.66,0,0,1-1.54.13,7,7,0,0,1-1.17-.1,6.32,6.32,0,0,1-.72-0.17Z"/><path class="cls-13" d="M226.25,24.94s-0.11-.14-0.28-0.38a2.24,2.24,0,0,1-.27-0.46,5.7,5.7,0,0,1-.26-0.7,5,5,0,0,1-.12-0.87,4.09,4.09,0,0,1,.08-1,4.42,4.42,0,0,1,.33-1,5.32,5.32,0,0,1,.56-0.94,6.27,6.27,0,0,1,3.14-2.19,5.32,5.32,0,0,1,1.23-.23c0.31,0,.48,0,0.48,0l-0.37.29-0.92.73a14.54,14.54,0,0,0-2.3,2.33,6.71,6.71,0,0,0-.47.69,6.37,6.37,0,0,0-.75,2.14c0,0.22,0,.42-0.06.61a4.73,4.73,0,0,0,0,.52C226.27,24.77,226.25,24.94,226.25,24.94Z"/><path class="cls-13" d="M231.09,28.45h-0.4a3.23,3.23,0,0,1-1-.19A2.62,2.62,0,0,1,229,28a2.78,2.78,0,0,1-.67-0.55,2.82,2.82,0,0,1-.53-0.82,3.4,3.4,0,0,1-.23-1,4,4,0,0,1,.08-1,4.21,4.21,0,0,1,.27-0.84,5.33,5.33,0,0,1,.79-1.25,4.5,4.5,0,0,1,.74-0.71c0.2-.15.32-0.23,0.32-0.23s0,0.15-.06.39-0.11.58-.21,1l-0.14.61c-0.06.21-.07,0.43-0.13,0.65s-0.08.44-.09,0.65a4.93,4.93,0,0,0,0,.62,3.45,3.45,0,0,0,.09.56,2.67,2.67,0,0,0,.21.51,3,3,0,0,0,.32.49,5.67,5.67,0,0,0,.38.44c0.26,0.27.49,0.5,0.68,0.67S231.09,28.45,231.09,28.45Z"/><path class="cls-13" d="M228.85,10s0.2-.26.57-0.69a4,4,0,0,1,.75-0.71,5.87,5.87,0,0,1,1.13-.79c0.22-.12.44-0.26,0.69-0.39l0.78-.31a10.31,10.31,0,0,1,1.75-.51c0.31-.05.63-0.09,1-0.13a4.7,4.7,0,0,1,1-.06c0.33,0,.67,0,1,0l1,0.1a8.11,8.11,0,0,1,1,.21,7.27,7.27,0,0,1,1,.27c0.32,0.11.63,0.23,0.93,0.35l0.87,0.45a9,9,0,0,1,1.51,1.05,7.27,7.27,0,0,1,1.12,1.21l0.42,0.59c0.12,0.2.2,0.41,0.29,0.59a3.87,3.87,0,0,1,.37,1c0.13,0.57.19,0.88,0.19,0.88s-0.21-.27-0.52-0.71a5.23,5.23,0,0,0-.63-0.74,6.43,6.43,0,0,0-.9-0.84,11.65,11.65,0,0,0-1.17-.83c-0.21-.14-0.46-0.24-0.69-0.36a5.52,5.52,0,0,0-.73-0.34L240.74,9q-0.41-.11-0.82-0.24a11.78,11.78,0,0,0-1.71-.36l-0.87-.12c-0.29,0-.58,0-0.87,0-0.58,0-1.15,0-1.71,0s-1.1.08-1.59,0.22l-0.74.15-0.68.19a8.73,8.73,0,0,0-1.17.4,5.45,5.45,0,0,0-.91.4C229.15,9.9,228.85,10,228.85,10Z"/><path class="cls-13" d="M224.77,24.41s0.06,0.25.14,0.68a5,5,0,0,0,.2.74,7.94,7.94,0,0,0,.33.88c0.11,0.32.34,0.64,0.48,1s0.41,0.67.68,1a10.7,10.7,0,0,0,.82,1,7,7,0,0,0,1,.84,7.43,7.43,0,0,0,1.06.72,9.52,9.52,0,0,0,1.14.51l0.57,0.2,0.57,0.14a10.3,10.3,0,0,0,1.08.17c0.34,0,.66,0,1,0a5.53,5.53,0,0,0,.76,0l0.7,0s-0.2.15-.58,0.39a3.35,3.35,0,0,1-.72.38,6,6,0,0,1-1,.34,5.55,5.55,0,0,1-1.29.15h-0.72a7.31,7.31,0,0,1-.74-0.13,3.81,3.81,0,0,1-.76-0.2,6.18,6.18,0,0,1-.75-0.29,9,9,0,0,1-1.39-.85,8.86,8.86,0,0,1-1.18-1.12,7.33,7.33,0,0,1-.87-1.3,7,7,0,0,1-.57-1.34,6.4,6.4,0,0,1-.24-1.27,4.49,4.49,0,0,1,0-1.09,3.26,3.26,0,0,1,.15-0.8C224.68,24.65,224.77,24.41,224.77,24.41Z"/><path class="cls-13" d="M237.52,36.59s0.27-.07.75-0.17l0.79-.25c0.3-.13.64-0.23,1-0.41s0.72-.35,1.1-0.57,0.75-.48,1.14-0.74l0.57-.43,0.54-.48a5.7,5.7,0,0,0,.52-0.51,5.11,5.11,0,0,0,.5-0.54l0.47-.57,0.41-.6c0.29-.39.49-0.83,0.74-1.23s0.4-.84.54-1.25,0.3-.8.4-1.18,0.19-.73.29-1l0.18-.83c0.1-.47.18-0.75,0.18-0.75s0.08,0.26.2,0.74a8.28,8.28,0,0,1,.17.88c0,0.34.06,0.73,0.07,1.16a9.69,9.69,0,0,1-.11,1.39,11.09,11.09,0,0,1-.37,1.53,10,10,0,0,1-.71,1.55c-0.15.25-.29,0.51-0.46,0.75l-0.55.7A9.21,9.21,0,0,1,244.6,35a9,9,0,0,1-1.43.93,8,8,0,0,1-1.46.61c-0.24.07-.47,0.15-0.7,0.2l-0.67.11a7.22,7.22,0,0,1-1.18.08c-0.36,0-.67-0.06-0.91-0.09C237.78,36.68,237.52,36.59,237.52,36.59Z"/><rect class="cls-10" x="109.75" y="106.55" width="43.35" height="43.3" rx="1.51" ry="1.51"/><path class="cls-11" d="M139.44,139.19a1.68,1.68,0,0,1-.28.19,2.86,2.86,0,0,1-.95.33,6.24,6.24,0,0,1-3.56-.53,8.62,8.62,0,0,1-2.07-1.34,9,9,0,0,1-1.79-2.14,12.35,12.35,0,0,1-1.15-2.71,17.73,17.73,0,0,1-.56-3,5.31,5.31,0,0,1,.12-1.71,3.22,3.22,0,0,1,1-1.73,2.34,2.34,0,0,1,1.1-.52,2.16,2.16,0,0,1,.66,0l0.12,0h0.06l0.08,0,0.29,0.11a2.71,2.71,0,0,1,1.36,1.52,9.94,9.94,0,0,1,.58,2.73,16.86,16.86,0,0,0,.33,2.15,10.72,10.72,0,0,0,1.12,3.08,8.42,8.42,0,0,0,.72,1.08l-0.3-.18a5.28,5.28,0,0,1-.8-0.6,8.33,8.33,0,0,1-2-3,15.35,15.35,0,0,1-.75-2.29,9.59,9.59,0,0,0-.62-2.22,1.16,1.16,0,0,0-.37-0.47s0.06,0,0,0l-0.08,0h-0.06l0.08,0h0a0.41,0.41,0,0,0-.14.09,2.38,2.38,0,0,0-.41,1.77,17.77,17.77,0,0,0,.42,2.59,10.53,10.53,0,0,0,.8,2.38,8,8,0,0,0,1.26,1.93,8.2,8.2,0,0,0,1.57,1.41,6.48,6.48,0,0,0,3,1.12,3.08,3.08,0,0,0,.93,0A1.65,1.65,0,0,0,139.44,139.19Z"/><path class="cls-11" d="M137.39,131.63s-0.15-.48-0.35-1.35-0.41-2.12-.83-3.46a5.21,5.21,0,0,0-1-1.84,4.27,4.27,0,0,0-.81-0.68c-0.09-.05-0.38-0.24-0.52-0.3a4.21,4.21,0,0,0-2.77-.28,4.69,4.69,0,0,0-2.09,1.21,6.11,6.11,0,0,0-.86,1l-0.18.24-0.2.31c-0.09.16-.18,0.33-0.26,0.52a7.16,7.16,0,0,0-.56,2.43,11,11,0,0,0,.84,4.62,11.48,11.48,0,0,0,1.79,3,9,9,0,0,0,1,1l-0.33-.15a6.86,6.86,0,0,1-.9-0.52,9.24,9.24,0,0,1-2.58-2.73,10.27,10.27,0,0,1-1.61-5.2,7.85,7.85,0,0,1,.54-3.19,7.73,7.73,0,0,1,.38-0.8l0.19-.32c0.1-.17.17-0.24,0.25-0.37a8,8,0,0,1,1.1-1.29,6.73,6.73,0,0,1,3-1.65,5.6,5.6,0,0,1,3.39.28,5.69,5.69,0,0,1,.77.37,7.36,7.36,0,0,1,.63.42,4.87,4.87,0,0,1,1.07,1.14,5.81,5.81,0,0,1,.92,2.55,19.39,19.39,0,0,1,0,3.71Z"/><path class="cls-11" d="M138.62,134.48s0-.5.16-1.35,0.29-2.08.47-3.51a19.58,19.58,0,0,0,.06-4.78,7.19,7.19,0,0,0-.75-2.35,5,5,0,0,0-1.62-1.79,6,6,0,0,0-2.27-1,9.92,9.92,0,0,0-2.54-.23,11.85,11.85,0,0,0-4.53,1.07,6.71,6.71,0,0,0-2.61,2.06,5.63,5.63,0,0,0-.5.84l-0.14.33,0-.36a4.21,4.21,0,0,1,.25-1,6.3,6.3,0,0,1,2.37-2.88,10.84,10.84,0,0,1,5-1.86,9.92,9.92,0,0,1,3.1.09,8,8,0,0,1,3,1.3,7.05,7.05,0,0,1,2.2,2.56,8,8,0,0,1,.79,3.08,12.15,12.15,0,0,1-.16,2.81,17.57,17.57,0,0,1-.55,2.39,30.55,30.55,0,0,1-1.23,3.39C138.83,134,138.62,134.48,138.62,134.48Z"/><path class="cls-11" d="M123.12,126.38s-0.05.39-.07,1.07a17.42,17.42,0,0,0,.13,2.76,13.19,13.19,0,0,0,1,3.64,10.08,10.08,0,0,0,1,1.82c0.2,0.29.41,0.57,0.63,0.85l0.17,0.21L126,136.8l0.1,0.11,0.4,0.42c0.27,0.28.52,0.47,0.78,0.72s0.54,0.47.84,0.66a15.71,15.71,0,0,0,1.78,1.09,15.08,15.08,0,0,0,1.81.77,13,13,0,0,0,1.71.47,11.38,11.38,0,0,0,1.51.2,8.82,8.82,0,0,0,1.19,0,6.48,6.48,0,0,0,.78-0.09l0.28,0a6.08,6.08,0,0,1-1,.5A5.8,5.8,0,0,1,135,142a7.77,7.77,0,0,1-1.66.16,9.26,9.26,0,0,1-2-.2,10.59,10.59,0,0,1-2.13-.65,10.77,10.77,0,0,1-2.1-1.14c-0.35-.22-0.66-0.49-1-0.74s-0.65-.59-0.91-0.88l-0.39-.43-0.1-.11-0.12-.15-0.19-.25a8.61,8.61,0,0,1-.7-1,10.88,10.88,0,0,1-1.5-6.33,11.82,11.82,0,0,1,.51-2.84A7.74,7.74,0,0,1,123.12,126.38Z"/><path class="cls-11" d="M120.67,133.18s0.1,0.27.24,0.75c0.07,0.24.15,0.53,0.23,0.86s0.26,0.65.38,1,0.35,0.74.51,1.15a12.84,12.84,0,0,0,.68,1.2c0.25,0.4.57,0.77,0.87,1.16a11.8,11.8,0,0,0,1,1.06,13.14,13.14,0,0,0,1.16,1c0.42,0.26.81,0.59,1.24,0.8s0.83,0.47,1.24.67,0.8,0.38,1.17.53a20.45,20.45,0,0,0,2.59.91l-0.2,0a3.74,3.74,0,0,1-.57.11,8.29,8.29,0,0,1-2.09,0,9.39,9.39,0,0,1-1.38-.25,9.11,9.11,0,0,1-1.5-.5,10.82,10.82,0,0,1-1.53-.77,10.18,10.18,0,0,1-1.42-1.08,9.67,9.67,0,0,1-1.21-1.33,10.55,10.55,0,0,1-.88-1.5,7.43,7.43,0,0,1-.54-1.52,6.71,6.71,0,0,1-.24-1.41c0-.45,0-0.85,0-1.2s0.09-.64.12-0.88C120.6,133.46,120.67,133.18,120.67,133.18Z"/><path class="cls-11" d="M120.37,131s-0.14-.43-0.36-1.2c-0.1-.38-0.25-0.84-0.36-1.38s-0.13-1.2-.18-1.91a13.66,13.66,0,0,1,.12-2.28,6.52,6.52,0,0,1,.26-1.23c0.11-.42.22-0.85,0.37-1.27a11.88,11.88,0,0,1,1.33-2.45,13.13,13.13,0,0,1,1.92-2.16,13.71,13.71,0,0,1,2.43-1.56l0.63-.32a6.73,6.73,0,0,1,.66-0.23c0.45-.13.88-0.3,1.32-0.39s0.88-.16,1.31-0.22a12.44,12.44,0,0,1,3.56.21,10.67,10.67,0,0,1,1.81.68,7.77,7.77,0,0,1,1.25.78c0.61,0.54.93,0.85,0.93,0.85s-0.43-.19-1.12-0.52A11.49,11.49,0,0,0,135,116a3.54,3.54,0,0,0-.82-0.15l-0.91-.13h-1a4.89,4.89,0,0,0-1.05.08,9,9,0,0,0-1.09.17c-0.36.11-.74,0.19-1.12,0.29a13,13,0,0,0-2.2,1,12.11,12.11,0,0,0-2,1.37,11.25,11.25,0,0,0-1.67,1.79,13.23,13.23,0,0,0-1.27,2c-0.17.35-.27,0.73-0.42,1.08a5.48,5.48,0,0,0-.37,1.05l-0.24,1a4.59,4.59,0,0,0-.19,1c-0.05.64-.12,1.23-0.19,1.77s0,1,0,1.42C120.39,130.58,120.37,131,120.37,131Z"/><path class="cls-11" d="M123.14,115.08s0.33-.31.92-0.84a6,6,0,0,1,1.15-.86,9.25,9.25,0,0,1,1.67-.92l1-.43a9.58,9.58,0,0,1,1.13-.31,11.75,11.75,0,0,1,2.53-.38c0.45,0,.9,0,1.36,0,0.23,0,.47,0,0.7,0l0.69,0.15a13.74,13.74,0,0,1,2.75.87l1.26,0.73a10.23,10.23,0,0,1,1.15.87c0.18,0.15.38,0.29,0.55,0.46l0.47,0.53a7.42,7.42,0,0,1,.86,1.08c0.24,0.39.48,0.76,0.69,1.14s0.32,0.79.48,1.17a9.48,9.48,0,0,1,.56,2.22,10.72,10.72,0,0,1,.1,1.9A6.36,6.36,0,0,1,143,124c-0.13.79-.23,1.23-0.23,1.23s-0.07-.46-0.16-1.23a8.34,8.34,0,0,0-.21-1.37l-0.19-.82a4.42,4.42,0,0,0-.25-0.89,12,12,0,0,0-.8-1.88c-0.18-.31-0.33-0.65-0.54-1s-0.45-.61-0.68-0.92a5.91,5.91,0,0,0-.8-0.86,5.67,5.67,0,0,0-.89-0.79,8.38,8.38,0,0,0-1-.7l-1.07-.59a11.88,11.88,0,0,0-2.31-.79,6.43,6.43,0,0,0-1.19-.23c-0.4,0-.79-0.12-1.18-0.13a15.23,15.23,0,0,0-2.27.09,12.45,12.45,0,0,0-2,.37,12.79,12.79,0,0,0-1.68.52,7.8,7.8,0,0,0-1.3.54C123.56,114.9,123.14,115.08,123.14,115.08Z"/><path class="cls-11" d="M142.88,127s0.06,0.21.15,0.57a8,8,0,0,1,.21,1.53,10.08,10.08,0,0,1-.86,4.65A8.43,8.43,0,0,1,141,136a6.85,6.85,0,0,1-.86.83,5.51,5.51,0,0,1-.88.61,5.2,5.2,0,0,1-1.47.59c-0.38.07-.59,0.08-0.59,0.08l0.44-.38a12.62,12.62,0,0,0,1-1,14.09,14.09,0,0,0,2.23-3.56,22.27,22.27,0,0,0,.83-2.12c0.1-.35.24-0.69,0.33-1l0.27-.93,0.4-1.44C142.8,127.25,142.88,127,142.88,127Z"/><path class="cls-11" d="M133,144.22l1.68-.51,0.76-.27c0.27-.09.54-0.21,0.81-0.32s0.55-.26.83-0.38,0.55-.28.79-0.47a5.15,5.15,0,0,0,.73-0.53,5.83,5.83,0,0,0,.65-0.59,6.05,6.05,0,0,0,.56-0.63,5.46,5.46,0,0,0,.47-0.63c0.13-.21.3-0.39,0.39-0.57s0.2-.34.28-0.48,0.28-.42.28-0.42,0,0.18,0,.5c0,0.16,0,.36,0,0.59a3.4,3.4,0,0,1-.12.75,3.2,3.2,0,0,1-.27.88,4.29,4.29,0,0,1-.49.93,4.51,4.51,0,0,1-.72.87,4.77,4.77,0,0,1-.91.73,6.41,6.41,0,0,1-1,.54,7.15,7.15,0,0,1-1.06.32,6.79,6.79,0,0,1-1.91.13A4.92,4.92,0,0,1,133,144.22Z"/><rect class="cls-10" x="240.93" y="53.96" width="43.35" height="43.3" rx="1.51" ry="1.51"/><path class="cls-11" d="M268.57,79s-0.15-.48-0.35-1.35-0.41-2.12-.83-3.46a5.21,5.21,0,0,0-1-1.84,4.27,4.27,0,0,0-.81-0.68c-0.09-.05-0.38-0.24-0.52-0.3a4.21,4.21,0,0,0-2.77-.28,4.69,4.69,0,0,0-2.09,1.21,6.11,6.11,0,0,0-.86,1l-0.18.24-0.2.31c-0.09.16-.18,0.33-0.26,0.52a7.16,7.16,0,0,0-.56,2.43,11,11,0,0,0,.84,4.62,11.48,11.48,0,0,0,1.79,3,9,9,0,0,0,1,1l-0.33-.15a6.86,6.86,0,0,1-.9-0.52A9.24,9.24,0,0,1,257.92,82a10.27,10.27,0,0,1-1.61-5.2,7.85,7.85,0,0,1,.54-3.19,7.73,7.73,0,0,1,.38-0.8l0.19-.32c0.1-.17.17-0.24,0.25-0.37a8,8,0,0,1,1.1-1.29,6.73,6.73,0,0,1,3-1.65,5.6,5.6,0,0,1,3.39.28,5.69,5.69,0,0,1,.77.37,7.36,7.36,0,0,1,.63.42,4.87,4.87,0,0,1,1.07,1.14,5.81,5.81,0,0,1,.92,2.55,19.39,19.39,0,0,1,0,3.71Z"/><path class="cls-11" d="M269.8,81.9s0-.5.16-1.35,0.29-2.08.47-3.51a19.58,19.58,0,0,0,.06-4.78,7.19,7.19,0,0,0-.75-2.35,5,5,0,0,0-1.62-1.79,6,6,0,0,0-2.27-1,9.92,9.92,0,0,0-2.54-.23,11.85,11.85,0,0,0-4.53,1.07A6.71,6.71,0,0,0,256.16,70a5.63,5.63,0,0,0-.5.84l-0.14.33,0-.36a4.21,4.21,0,0,1,.25-1,6.3,6.3,0,0,1,2.37-2.88,10.84,10.84,0,0,1,5-1.86,9.93,9.93,0,0,1,3.1.09,8,8,0,0,1,3,1.3,7.05,7.05,0,0,1,2.2,2.56,8,8,0,0,1,.79,3.08,12.16,12.16,0,0,1-.16,2.81,17.56,17.56,0,0,1-.55,2.39,30.55,30.55,0,0,1-1.23,3.39C270,81.45,269.8,81.9,269.8,81.9Z"/><path class="cls-11" d="M254.3,73.79s-0.05.39-.07,1.07a17.42,17.42,0,0,0,.13,2.76,13.19,13.19,0,0,0,1,3.64,10.08,10.08,0,0,0,1,1.82c0.2,0.29.41,0.57,0.63,0.85l0.17,0.21,0.06,0.08,0.1,0.11,0.4,0.42c0.27,0.28.52,0.47,0.78,0.72s0.54,0.47.84,0.66a15.71,15.71,0,0,0,1.78,1.09,15.08,15.08,0,0,0,1.81.77,13,13,0,0,0,1.71.47,11.39,11.39,0,0,0,1.51.2,8.82,8.82,0,0,0,1.19,0,6.48,6.48,0,0,0,.78-0.09l0.28,0a6.08,6.08,0,0,1-1,.5,5.8,5.8,0,0,1-1.23.36,7.77,7.77,0,0,1-1.66.16,9.26,9.26,0,0,1-2-.2,10.59,10.59,0,0,1-2.13-.65,10.76,10.76,0,0,1-2.1-1.14c-0.35-.22-0.66-0.49-1-0.74s-0.65-.59-0.91-0.88L256,85.5l-0.1-.11-0.12-.15L255.59,85a8.61,8.61,0,0,1-.7-1,10.88,10.88,0,0,1-1.5-6.33,11.82,11.82,0,0,1,.51-2.84A7.74,7.74,0,0,1,254.3,73.79Z"/><path class="cls-11" d="M251.85,80.59s0.1,0.27.24,0.75c0.07,0.24.15,0.53,0.23,0.86s0.26,0.65.38,1,0.35,0.74.51,1.15a12.73,12.73,0,0,0,.68,1.2c0.25,0.4.57,0.77,0.87,1.16a11.87,11.87,0,0,0,1,1.06,13.13,13.13,0,0,0,1.16,1c0.42,0.26.81,0.59,1.24,0.8s0.83,0.47,1.24.67,0.8,0.38,1.17.53a20.46,20.46,0,0,0,2.59.91l-0.2,0a3.74,3.74,0,0,1-.57.11,8.29,8.29,0,0,1-2.09,0,9.39,9.39,0,0,1-1.38-.25,9.11,9.11,0,0,1-1.5-.5,10.82,10.82,0,0,1-1.53-.77,10.18,10.18,0,0,1-1.42-1.08,9.67,9.67,0,0,1-1.21-1.33,10.55,10.55,0,0,1-.88-1.5,7.43,7.43,0,0,1-.54-1.52,6.68,6.68,0,0,1-.24-1.41c0-.45,0-0.85,0-1.2s0.09-.64.12-0.88C251.78,80.87,251.85,80.59,251.85,80.59Z"/><path class="cls-11" d="M251.56,78.45s-0.14-.43-0.36-1.2c-0.1-.38-0.25-0.84-0.36-1.38s-0.13-1.2-.18-1.91a13.66,13.66,0,0,1,.12-2.28,6.52,6.52,0,0,1,.26-1.23c0.11-.42.22-0.85,0.37-1.27a11.88,11.88,0,0,1,1.33-2.45,13.13,13.13,0,0,1,1.92-2.16A13.71,13.71,0,0,1,257.09,63l0.63-.32a6.73,6.73,0,0,1,.66-0.23c0.45-.13.88-0.3,1.32-0.39s0.88-.16,1.31-0.22a9.3,9.3,0,0,1,5.37.89,7.77,7.77,0,0,1,1.25.78c0.61,0.54.93,0.85,0.93,0.85s-0.43-.19-1.12-0.52a11.49,11.49,0,0,0-1.31-.42,3.54,3.54,0,0,0-.82-0.15l-0.91-.13h-1a4.89,4.89,0,0,0-1.05.08,9,9,0,0,0-1.09.17c-0.36.11-.74,0.19-1.12,0.29a13,13,0,0,0-2.2,1,12.11,12.11,0,0,0-2,1.37,11.25,11.25,0,0,0-1.67,1.79,13.23,13.23,0,0,0-1.27,2c-0.17.35-.27,0.73-0.42,1.08a5.48,5.48,0,0,0-.37,1.05l-0.24,1a4.59,4.59,0,0,0-.19,1c-0.05.64-.12,1.23-0.19,1.77s0,1,0,1.42C251.57,78,251.56,78.45,251.56,78.45Z"/><path class="cls-11" d="M254.32,62.49s0.33-.31.92-0.84a6,6,0,0,1,1.15-.86,9.25,9.25,0,0,1,1.67-.92l1-.43a9.58,9.58,0,0,1,1.13-.31,11.75,11.75,0,0,1,2.53-.38c0.45,0,.9,0,1.36,0,0.23,0,.47,0,0.7,0L265.49,59a13.74,13.74,0,0,1,2.75.87l1.26,0.73a10.23,10.23,0,0,1,1.15.87c0.18,0.15.38,0.29,0.55,0.46l0.47,0.53a7.42,7.42,0,0,1,.86,1.08c0.24,0.39.48,0.76,0.69,1.14s0.32,0.79.48,1.17a9.48,9.48,0,0,1,.56,2.22,10.72,10.72,0,0,1,.1,1.9,6.36,6.36,0,0,1-.14,1.44c-0.13.79-.23,1.23-0.23,1.23s-0.07-.46-0.16-1.23a8.34,8.34,0,0,0-.21-1.37l-0.19-.82a4.42,4.42,0,0,0-.25-0.89,12,12,0,0,0-.8-1.88c-0.18-.31-0.33-0.65-0.54-1s-0.45-.61-0.68-0.92a5.91,5.91,0,0,0-.8-0.86,5.67,5.67,0,0,0-.89-0.79,8.38,8.38,0,0,0-1-.7l-1.07-.59a11.87,11.87,0,0,0-2.31-.79,6.42,6.42,0,0,0-1.19-.23c-0.4,0-.79-0.12-1.18-0.13a15.23,15.23,0,0,0-2.27.09,12.45,12.45,0,0,0-2,.37,12.79,12.79,0,0,0-1.68.52,7.8,7.8,0,0,0-1.3.54C254.74,62.32,254.32,62.49,254.32,62.49Z"/><rect class="cls-12" x="162.25" y="106.7" width="43.35" height="43.3" rx="1.51" ry="1.51"/><path class="cls-13" d="M182.54,131.27l-0.13-.13a2.35,2.35,0,0,1-.33-0.41,4,4,0,0,1-.6-1.77,4.35,4.35,0,0,1,.6-2.71,3.28,3.28,0,0,1,1.32-1.23,2.9,2.9,0,0,1,1-.29l0.17,0h0.28a2.33,2.33,0,0,1,.55.07A2.56,2.56,0,0,1,187,126a4,4,0,0,1,.51,1.53,6,6,0,0,1-.25,2.56,5.28,5.28,0,0,1-.79,1.56,4.56,4.56,0,0,1-.43.49,6.62,6.62,0,0,0,.38-2.19,6.09,6.09,0,0,0-.32-2.09,2.78,2.78,0,0,0-.48-0.89,0.83,0.83,0,0,0-.57-0.32h-0.19l-0.17,0s-0.2.1-.28,0.16a2.35,2.35,0,0,0-.56.57,6.75,6.75,0,0,0-.8,1.7,10.48,10.48,0,0,0-.38,1.51C182.56,131,182.54,131.27,182.54,131.27Z"/><path class="cls-13" d="M179.64,130.19a3.17,3.17,0,0,1-.18-0.34,3.82,3.82,0,0,1-.29-1.08,7.83,7.83,0,0,1,.57-4,7,7,0,0,1,1.55-2.35,5.14,5.14,0,0,1,3-1.49,6.1,6.1,0,0,1,3.44.65,4.29,4.29,0,0,1,.8.47,4.8,4.8,0,0,1,.72.64,6.81,6.81,0,0,1,1.06,1.48,7.66,7.66,0,0,1,.11,6.69,9.85,9.85,0,0,1-3.79,4.22,6.78,6.78,0,0,1-3.81,1,5.66,5.66,0,0,1-1.08-.17l-0.37-.11,0.38,0a6.08,6.08,0,0,0,1.05-.07,6.76,6.76,0,0,0,3.29-1.48,9.52,9.52,0,0,0,2.93-4,6.91,6.91,0,0,0,.43-2.65,6.14,6.14,0,0,0-.74-2.61,5,5,0,0,0-.78-1.06,3.08,3.08,0,0,0-.45-0.39,2.52,2.52,0,0,0-.54-0.31,5,5,0,0,0-2.45-.51,3.89,3.89,0,0,0-2.08.88,6.63,6.63,0,0,0-1.47,1.72,9.27,9.27,0,0,0-1.27,3.37A4.23,4.23,0,0,0,179.64,130.19Z"/><path class="cls-13" d="M191.68,123.83s-0.13-.2-0.34-0.56a4.92,4.92,0,0,0-.39-0.62c-0.17-.22-0.3-0.47-0.53-0.72s-0.42-.53-0.69-0.79a8.47,8.47,0,0,0-.83-0.79c-0.29-.27-0.63-0.49-1-0.74a11.13,11.13,0,0,0-1.07-.64,11.46,11.46,0,0,0-1.13-.53c-0.39-.13-0.77-0.29-1.15-0.37s-0.75-.17-1.11-0.25-0.71-.1-1-0.1a8,8,0,0,0-.89,0,6.1,6.1,0,0,0-.71.07l-0.64.1s0.17-.16.51-0.41a3.43,3.43,0,0,1,.67-0.38,4.38,4.38,0,0,1,.95-0.35,6.3,6.3,0,0,1,1.19-.2,7.33,7.33,0,0,1,1.35,0,7.87,7.87,0,0,1,1.41.3,8.6,8.6,0,0,1,1.37.59,8.51,8.51,0,0,1,1.25.81,7.92,7.92,0,0,1,1,1,6.21,6.21,0,0,1,.78,1.09,5.5,5.5,0,0,1,.52,1.07,5,5,0,0,1,.29,1,3.05,3.05,0,0,1,.1.74C191.68,123.59,191.68,123.83,191.68,123.83Z"/><path class="cls-13" d="M183.13,137.52h0.26c0.17,0,.42,0,0.72,0a7.55,7.55,0,0,0,2.39-.59,8.29,8.29,0,0,0,2.71-2,12.16,12.16,0,0,0,1.18-1.5,11.89,11.89,0,0,0,1-1.73,12.77,12.77,0,0,0,.74-1.85,13.88,13.88,0,0,0,.47-1.86,16,16,0,0,0,.17-1.81c0-.58,0-1.14,0-1.66a14,14,0,0,0-.4-2.49c-0.15-.6-0.28-0.94-0.28-0.94a6.16,6.16,0,0,1,.59.81,9.08,9.08,0,0,1,1,2.46,11.86,11.86,0,0,1,.38,3.8,11,11,0,0,1-.38,2.16,14.41,14.41,0,0,1-.78,2.11,13.52,13.52,0,0,1-1.16,1.94,10.11,10.11,0,0,1-1.48,1.63,7.63,7.63,0,0,1-3.46,1.82,6.16,6.16,0,0,1-2.71,0,4.44,4.44,0,0,1-.71-0.21Z"/><path class="cls-13" d="M175.23,125.63s0,0.43.06,1.18a25.39,25.39,0,0,0,.39,3,16.48,16.48,0,0,0,1.25,4,10.86,10.86,0,0,0,1.15,1.95,10.51,10.51,0,0,0,1.58,1.68c0.66,0.58,1.25,1.06,1.88,1.54a19.9,19.9,0,0,0,1.93,1.27,16.94,16.94,0,0,0,1.94,1c0.64,0.27,1.27.46,1.87,0.65,1.2,0.36,2.26.63,3,.93a6.27,6.27,0,0,1,.81.37l0.28,0.14s-0.44,0-1.18-.06-1.8,0-3.12-.09a12.62,12.62,0,0,1-4.45-1.16,13,13,0,0,1-2.26-1.32,15.86,15.86,0,0,1-2-1.69,10,10,0,0,1-1.8-2.11,11.7,11.7,0,0,1-1.17-2.4,13.9,13.9,0,0,1-.72-4.52,15.42,15.42,0,0,1,.34-3.15A10.4,10.4,0,0,1,175.23,125.63Z"/><path class="cls-13" d="M173,133s0.1,0.27.23,0.75c0.07,0.23.13,0.54,0.24,0.85s0.26,0.65.38,1,0.38,0.74.55,1.14l0.73,1.18a13.22,13.22,0,0,0,.92,1.15,11.59,11.59,0,0,0,1.06,1.09c0.36,0.36.78,0.67,1.17,1s0.8,0.62,1.22.87,0.82,0.5,1.21.74,0.78,0.43,1.14.59a12.26,12.26,0,0,0,1.82.72,5.07,5.07,0,0,0,.55.13l0.2,0-0.19.07a2.73,2.73,0,0,1-.58.15,4.79,4.79,0,0,1-.93.07,6.09,6.09,0,0,1-1.2-.1,9.11,9.11,0,0,1-1.39-.31,10.12,10.12,0,0,1-1.48-.58,11.21,11.21,0,0,1-1.49-.83,11.8,11.8,0,0,1-1.39-1.1l-0.64-.63c-0.21-.22-0.38-0.47-0.56-0.7a9.93,9.93,0,0,1-.93-1.47,11.5,11.5,0,0,1-.6-1.51,13.71,13.71,0,0,1-.28-1.42c0-.46,0-0.87,0-1.22a5.28,5.28,0,0,1,.11-0.89C172.92,133.26,173,133,173,133Z"/><path class="cls-13" d="M172.69,130.55s-0.09-.44-0.21-1.22c-0.06-.39-0.13-0.86-0.19-1.4s0-1.18,0-1.88a14.38,14.38,0,0,1,.2-2.23,16.15,16.15,0,0,1,.57-2.46c0.15-.42.34-0.83,0.51-1.25l0.27-.64,0.38-.6a9.79,9.79,0,0,1,.81-1.19l1-1.1,1.16-.91a12.86,12.86,0,0,1,1.27-.73,6.11,6.11,0,0,1,1.34-.51,5.94,5.94,0,0,1,1.36-.29,9.56,9.56,0,0,1,2.6,0,10.34,10.34,0,0,1,2.22.54c0.33,0.12.65,0.22,0.94,0.34l0.79,0.42,0.69,0.37c0.2,0.13.38,0.27,0.54,0.39,0.64,0.48,1,.76,1,0.76s-0.44-.14-1.16-0.41a9.14,9.14,0,0,0-1.33-.41l-0.81-.22-0.91-.15a14.21,14.21,0,0,0-2-.17c-0.36,0-.72.06-1.09,0.09a5.53,5.53,0,0,0-1.11.19,4.5,4.5,0,0,0-1.1.33,7.3,7.3,0,0,0-1.06.47,11.2,11.2,0,0,0-1,.61l-0.92.76-0.82.89a8,8,0,0,0-.7,1l-0.34.5-0.27.54c-0.18.36-.38,0.7-0.54,1.06s-0.26.74-.4,1.09a6,6,0,0,0-.36,1.07l-0.28,1a5.67,5.67,0,0,0-.23,1c-0.11.64-.23,1.23-0.34,1.76l-0.17,1.41C172.77,130.1,172.69,130.55,172.69,130.55Z"/><path class="cls-13" d="M188,114.25l0.74,0.15a6.34,6.34,0,0,1,.84.28,8.45,8.45,0,0,1,1,.5,8.33,8.33,0,0,1,1.13.79A8.92,8.92,0,0,1,192.9,117a10.3,10.3,0,0,1,1,1.32,15.32,15.32,0,0,1,.82,1.49c0.21,0.53.43,1.05,0.58,1.59a12,12,0,0,1,.38,1.58,14.3,14.3,0,0,1,.21,2.84,13,13,0,0,1-.21,2c-0.09.47-.15,0.74-0.15,0.74s-0.08-.27-0.18-0.74l-0.42-1.9c-0.1-.39-0.21-0.8-0.3-1.24l-0.38-1.35a24.26,24.26,0,0,0-1-2.81,13.78,13.78,0,0,0-.68-1.34c-0.24-.43-0.5-0.84-0.76-1.24s-0.54-.76-0.84-1.08-0.58-.62-0.84-0.92-0.54-.53-0.79-0.72-0.45-.4-0.65-0.53C188.24,114.42,188,114.25,188,114.25Z"/><path class="cls-13" d="M174.47,116.24s0.16-.29.46-0.79a5.43,5.43,0,0,1,.62-0.85l0.42-.51c0.16-.17.34-0.33,0.53-0.5a8.94,8.94,0,0,1,1.28-1,11.31,11.31,0,0,1,3.46-1.64,13.39,13.39,0,0,1,2-.41,12.4,12.4,0,0,1,2.08,0l0.51,0,0.5,0.11c0.33,0.08.66,0.13,1,.23a8.65,8.65,0,0,1,1.73.74,7.46,7.46,0,0,1,.75.44l0.64,0.5a6.4,6.4,0,0,1,1,1,4.38,4.38,0,0,1,.64.84c0.32,0.5.48,0.78,0.48,0.78s-0.28-.2-0.72-0.55A6,6,0,0,0,191,114a11.44,11.44,0,0,0-2.48-1.25,10.22,10.22,0,0,0-3.31-.65,11.09,11.09,0,0,0-1.8,0,11.74,11.74,0,0,0-1.79.3,16.16,16.16,0,0,0-1.7.49c-0.53.23-1.07,0.4-1.54,0.65s-0.94.46-1.33,0.72a10.73,10.73,0,0,0-1.08.7,8.22,8.22,0,0,0-.82.61C174.74,116,174.47,116.24,174.47,116.24Z"/><path class="cls-13" d="M178.28,130.28s0.13,0.14.33,0.39,0.22,0.28.34,0.46,0.31,0.32.47,0.5a4.51,4.51,0,0,0,.56.5,3.89,3.89,0,0,0,.65.43,2.85,2.85,0,0,0,.35.14,1,1,0,0,0,.36.1,2.7,2.7,0,0,0,.74,0l0.37-.07,0.36-.12a2.7,2.7,0,0,0,.66-0.38,3.88,3.88,0,0,0,.55-0.5,4.29,4.29,0,0,0,.36-0.6,2.18,2.18,0,0,0,.22-0.6,1.9,1.9,0,0,0,.1-0.52c0-.3,0-0.5,0-0.5a4.67,4.67,0,0,1,.28.43,1.56,1.56,0,0,1,.22.57c0,0.12.06,0.25,0.09,0.38s0,0.28,0,.44a3,3,0,0,1-.21,1,3.59,3.59,0,0,1-.62,1,2.06,2.06,0,0,1-.45.42,2.53,2.53,0,0,1-.54.35,4.8,4.8,0,0,1-.61.26l-0.66.14a3.57,3.57,0,0,1-1.33-.14,1.83,1.83,0,0,1-.6-0.25,3,3,0,0,1-.53-0.33A3.61,3.61,0,0,1,179,133a3.08,3.08,0,0,1-.45-0.85,4.83,4.83,0,0,1-.23-0.75c0-.22,0-0.41-0.06-0.57C178.28,130.47,178.28,130.28,178.28,130.28Z"/><path class="cls-13" d="M186.75,140.13a5.4,5.4,0,0,0,.61-0.22c0.18-.07.4-0.17,0.65-0.29s0.51-.28.81-0.42,0.59-.35.9-0.56,0.62-.45.94-0.68,0.63-.51.91-0.81a10.27,10.27,0,0,0,.85-0.91c0.26-.32.51-0.66,0.73-1a10.46,10.46,0,0,0,.6-1.06,7.82,7.82,0,0,0,.48-1.06,9.23,9.23,0,0,0,.36-1l0.28-.88c0.05-.27.12-0.51,0.17-0.7,0.11-.4.18-0.63,0.18-0.63s0.07,0.23.15,0.64c0,0.2.1,0.46,0.14,0.75a9.37,9.37,0,0,1,0,1,5.09,5.09,0,0,1-.1,1.18,5.86,5.86,0,0,1-.31,1.3,7.21,7.21,0,0,1-.57,1.32,9,9,0,0,1-.84,1.24,8.21,8.21,0,0,1-1.06,1.06,8.3,8.3,0,0,1-1.17.83,8.72,8.72,0,0,1-2.34.91,6.14,6.14,0,0,1-1.76.14,2.33,2.33,0,0,1-.48-0.07Z"/><path class="cls-13" d="M177.33,128.11s-0.12-.21-0.31-0.59a6.28,6.28,0,0,1-.45-1.74,6.62,6.62,0,0,1,0-1.21,6.71,6.71,0,0,1,.22-1.36,5.46,5.46,0,0,1,.24-0.7,3.41,3.41,0,0,1,.32-0.69,7,7,0,0,1,.9-1.29,6.34,6.34,0,0,1,1.24-1,6.27,6.27,0,0,1,1.39-.64,7.46,7.46,0,0,1,1.38-.22,5.64,5.64,0,0,1,1.22,0c0.37,0.05.7,0.12,1,.19s0.53,0.19.73,0.27c0.39,0.16.61,0.26,0.61,0.26l-0.66.07-0.73,0c-0.28,0-.59.1-0.92,0.14s-0.67.17-1,.23-0.7.27-1.07,0.38a7.67,7.67,0,0,0-1,.6,6.56,6.56,0,0,0-.9.78,8,8,0,0,0-1.29,2,9.58,9.58,0,0,0-.4,1.09c-0.12.35-.17,0.71-0.26,1s-0.11.64-.13,0.91-0.06.51-.06,0.72C177.34,127.86,177.33,128.11,177.33,128.11Z"/><path class="cls-13" d="M190.59,141.38l0.28-.17,0.67-.36a10.09,10.09,0,0,0,1.59-1c0.51-.38,1-0.88,1.48-1.28,0.22-.2.44-0.38,0.59-0.5l0.26-.19a2.62,2.62,0,0,1,0,.32,2.81,2.81,0,0,1,0,.83,3.49,3.49,0,0,1-1.3,2.16,3.21,3.21,0,0,1-1.29.61,2.84,2.84,0,0,1-.64.07,2.39,2.39,0,0,1-.56,0,2.82,2.82,0,0,1-.79-0.26Z"/><path class="cls-14" d="M216.28,106.55h40.1a1.74,1.74,0,0,1,1.74,1.74v39.81a1.74,1.74,0,0,1-1.74,1.74H216.51a1.74,1.74,0,0,1-1.74-1.74v-40A1.51,1.51,0,0,1,216.28,106.55Z"/><rect class="cls-10" x="188.59" y="53.88" width="43.35" height="43.3" rx="1.51" ry="1.51"/><path class="cls-15" d="M236.66,132.67l-0.14-.06a2,2,0,0,1-.38-0.22,3.84,3.84,0,0,1-1.06-1.17,4.52,4.52,0,0,1-.65-2.2,3.92,3.92,0,0,1,.21-1.4,3.06,3.06,0,0,1,.92-1.32,3.74,3.74,0,0,1,.65-0.4,3.35,3.35,0,0,1,.75-0.27,2.45,2.45,0,0,1,2.63,1,3.4,3.4,0,0,1,.48,1,4.18,4.18,0,0,1,.17,1.51,4.42,4.42,0,0,1-.09.56,4.42,4.42,0,0,0-.21-0.51,5.6,5.6,0,0,0-.68-1.16,3.23,3.23,0,0,0-.56-0.58,1.49,1.49,0,0,0-.66-0.3,1.13,1.13,0,0,0-.63.1,2,2,0,0,0-.32.17,1,1,0,0,0-.3.26c-0.58.62-.62,2.07-0.51,3.11A9.94,9.94,0,0,0,236.66,132.67Z"/><path class="cls-15" d="M233.41,131.58l-0.23-.23a3.28,3.28,0,0,1-.5-0.8,7,7,0,0,1-.52-3.33,8.55,8.55,0,0,1,.47-2.26,6.79,6.79,0,0,1,1.38-2.31,5.11,5.11,0,0,1,2.65-1.52,5.71,5.71,0,0,1,3.1.22,5,5,0,0,1,2.5,1.9,6.63,6.63,0,0,1,1.09,2.68,9.53,9.53,0,0,1-.45,4.78,9.86,9.86,0,0,1-1.61,2.89,8,8,0,0,1-.62.68l-0.23.22a10.6,10.6,0,0,0,.56-1.08,11.69,11.69,0,0,0,.93-3,9.65,9.65,0,0,0-.13-4.18,5.49,5.49,0,0,0-1-2,3.72,3.72,0,0,0-1.68-1.18A4.35,4.35,0,0,0,237,123a3.57,3.57,0,0,0-1.75.92,7.46,7.46,0,0,0-1.92,3.49,8.47,8.47,0,0,0-.28,3A3.35,3.35,0,0,0,233.41,131.58Z"/><path class="cls-15" d="M243.53,121.35s-0.15-.16-0.39-0.44a3.29,3.29,0,0,0-.44-0.47,5.49,5.49,0,0,0-.57-0.51,6.47,6.47,0,0,0-.72-0.52,9.23,9.23,0,0,0-.84-0.47,10.5,10.5,0,0,0-2-.7,13.85,13.85,0,0,0-5.42-.16l-0.58.09s0.13-.16.4-0.43a2.92,2.92,0,0,1,.53-0.43,3.88,3.88,0,0,1,.77-0.46,5,5,0,0,1,1-.4,6.59,6.59,0,0,1,2.46-.28,7.33,7.33,0,0,1,1.32.2,6.94,6.94,0,0,1,1.27.46,6,6,0,0,1,1.13.67,5.86,5.86,0,0,1,.9.84,4.43,4.43,0,0,1,.61.91,3.24,3.24,0,0,1,.36.85,2.21,2.21,0,0,1,.14.67C243.53,121.13,243.53,121.35,243.53,121.35Z"/><path class="cls-15" d="M236.63,137.63s0.37,0,1,0c0.32,0,.67-0.11,1.07-0.16,0.2,0,.41-0.13.62-0.2l0.33-.11L240,137a6.91,6.91,0,0,0,1.31-.85c0.2-.2.43-0.37,0.62-0.59l0.59-.67c0.18-.25.37-0.5,0.55-0.76l0.5-.83a17.67,17.67,0,0,0,.85-1.79,18.3,18.3,0,0,0,.63-1.89,14.09,14.09,0,0,0,.38-1.88,15.11,15.11,0,0,0,.1-1.81c0-.58,0-1.14-0.1-1.66a14.84,14.84,0,0,0-.49-2.48c-0.17-.6-0.31-0.94-0.31-0.94a6,6,0,0,1,.66.77,9,9,0,0,1,1.23,2.41,10.42,10.42,0,0,1,.45,1.77,9.91,9.91,0,0,1,.17,2.06,11.63,11.63,0,0,1-.25,2.21,14.46,14.46,0,0,1-.66,2.18c-0.15.35-.32,0.7-0.48,1s-0.38.66-.57,1-0.44.62-.66,0.92-0.49.56-.73,0.83-0.53.5-.8,0.73-0.59.4-.86,0.59a6,6,0,0,1-1.77.71,2.87,2.87,0,0,1-.83.14c-0.27,0-.52,0-0.75,0a7.24,7.24,0,0,1-1.19-.2C237,137.77,236.63,137.63,236.63,137.63Z"/><path class="cls-15" d="M228.08,126.11a11.6,11.6,0,0,0,0,1.2,14.84,14.84,0,0,0,.39,3,10.88,10.88,0,0,0,1.68,3.76,10.64,10.64,0,0,0,1.54,1.68c0.27,0.25.63,0.53,1,.78s0.66,0.49,1,.73a22.35,22.35,0,0,0,2.09,1.34c0.72,0.4,1.43.8,2.15,1.14,1.43,0.7,2.82,1.3,4,1.91a9.55,9.55,0,0,1,2.69,1.83,3.78,3.78,0,0,1,.55.73l0.15,0.28-0.23-.22a5.1,5.1,0,0,0-.71-0.5,13.07,13.07,0,0,0-2.86-1.1c-1.23-.36-2.72-0.77-4.27-1.38a23,23,0,0,1-2.36-1.06,24.32,24.32,0,0,1-2.31-1.39c-0.37-.26-0.73-0.54-1.09-0.83s-0.67-.55-1-0.88a9.76,9.76,0,0,1-3.06-6.66,10.28,10.28,0,0,1,.34-3.24A6.8,6.8,0,0,1,228.08,126.11Z"/><path class="cls-15" d="M226.29,134.3s0.12,0.28.29,0.78a4.55,4.55,0,0,0,.34.87c0.18,0.3.33,0.63,0.54,1s0.49,0.7.8,1a10.8,10.8,0,0,0,1.05,1l0.59,0.49c0.22,0.14.45,0.29,0.67,0.44,0.42,0.32.94,0.55,1.41,0.84s1,0.51,1.5.72,1,0.46,1.51.64c1,0.4,1.95.74,2.77,1l2,0.72,0.78,0.3a13.68,13.68,0,0,1-3,.07c-0.45,0-.94-0.08-1.46-0.17a18,18,0,0,1-3.31-.87,17.45,17.45,0,0,1-1.69-.75,13.12,13.12,0,0,1-1.58-1c-0.25-.19-0.49-0.39-0.73-0.58l-0.64-.66a7.39,7.39,0,0,1-1-1.39,8.72,8.72,0,0,1-.63-1.42,8.86,8.86,0,0,1-.26-1.3,3.3,3.3,0,0,1,0-1C226.25,134.6,226.29,134.3,226.29,134.3Z"/><path class="cls-15" d="M225.81,131.14s-0.15-.42-0.38-1.16c-0.11-.37-0.27-0.82-0.38-1.34s-0.18-1.16-.26-1.85a15.93,15.93,0,0,1,0-2.22,16.19,16.19,0,0,1,.41-2.47,12.3,12.3,0,0,1,1-2.51,13.16,13.16,0,0,1,1.62-2.32l1.06-1a9.81,9.81,0,0,1,1.16-.82c0.2-.12.38-0.27,0.59-0.37l0.64-.28a7,7,0,0,1,1.27-.48c0.43-.11.85-0.25,1.27-0.32l1.25-.11a6.32,6.32,0,0,1,1.17,0,5.64,5.64,0,0,1,1.08.15,7.76,7.76,0,0,1,1.8.56,6.15,6.15,0,0,1,1.27.66c0.65,0.46,1,.72,1,0.72l-1.16-.37a8.12,8.12,0,0,0-1.32-.3,10.08,10.08,0,0,0-1.71-.17,4.76,4.76,0,0,0-1,0,6.29,6.29,0,0,0-1,.11l-1.05.23-1.05.37a5.48,5.48,0,0,0-1,.49,6.13,6.13,0,0,0-1,.6,7.94,7.94,0,0,0-.95.71l-0.87.83a11.25,11.25,0,0,0-1.42,1.93,14.16,14.16,0,0,0-1,2.11c-0.14.36-.2,0.74-0.33,1.09a6.45,6.45,0,0,0-.28,1.06c-0.08.71-.28,1.39-0.31,2s-0.08,1.21-.12,1.74,0,1,0,1.39C225.82,130.69,225.81,131.14,225.81,131.14Z"/><path class="cls-15" d="M226,116.8s0.26-.44.74-1.2a6.42,6.42,0,0,1,1-1.27,9.11,9.11,0,0,1,.73-0.74l0.92-.68,0.5-.36,0.56-.3,1.21-.59a12.48,12.48,0,0,1,2.83-.7,7.29,7.29,0,0,1,1.55-.11,11.29,11.29,0,0,1,1.59.09l1.6,0.32c0.52,0.15,1,.37,1.55.55a8.24,8.24,0,0,1,1.45.77L243,113c0.22,0.16.42,0.34,0.63,0.51a11.08,11.08,0,0,1,1.18,1.07l1,1.2a6.83,6.83,0,0,1,.79,1.26c0.22,0.43.48,0.83,0.65,1.25a21.72,21.72,0,0,1,.8,2.43c0.15,0.77.26,1.48,0.35,2.11s0,1.18,0,1.63c0,0.9,0,1.41,0,1.41s-0.14-.5-0.35-1.36c-0.12-.43-0.21-1-0.39-1.54s-0.45-1.21-.68-1.91-0.69-1.37-1-2.12c-0.19-.37-0.47-0.69-0.71-1.05a7.35,7.35,0,0,0-.78-1.05l-0.92-1c-0.32-.32-0.71-0.57-1.06-0.87-0.18-.14-0.35-0.3-0.54-0.43l-0.61-.34a6.8,6.8,0,0,0-1.24-.63c-0.43-.16-0.86-0.36-1.3-0.5l-1.35-.3a12.16,12.16,0,0,0-2.7-.13,15,15,0,0,0-2.53.38l-1.13.4-0.55.18-0.49.26-0.93.48a8.23,8.23,0,0,0-.78.52,7.62,7.62,0,0,0-1.24,1C226.43,116.47,226,116.8,226,116.8Z"/><path class="cls-15" d="M230.63,130.66s0.16,0.15.41,0.43,0.27,0.31.43,0.51l0.57,0.55a5.82,5.82,0,0,0,.68.58,5.33,5.33,0,0,0,.79.54,7.62,7.62,0,0,0,.88.43,5.27,5.27,0,0,0,.94.24,3.69,3.69,0,0,0,.93.06l0.45-.05a3.83,3.83,0,0,1,.41-0.12,2.5,2.5,0,0,0,.69-0.38,0.83,0.83,0,0,0,.27-0.25,1,1,0,0,0,.22-0.29,2.09,2.09,0,0,0,.25-0.65,2,2,0,0,0,.09-0.6c0-.35,0-0.58,0-0.58a5.38,5.38,0,0,1,.35.49,1.72,1.72,0,0,1,.28.66,2.18,2.18,0,0,1,.08,1,1.94,1.94,0,0,1-.15.58,1.73,1.73,0,0,1-.3.59,3.29,3.29,0,0,1-1,1c-0.21.11-.44,0.22-0.67,0.32s-0.48.13-.72,0.18a4.45,4.45,0,0,1-1.48,0,5.31,5.31,0,0,1-1.39-.43,6.33,6.33,0,0,1-.6-0.36,2.51,2.51,0,0,1-.54-0.41,4.63,4.63,0,0,1-.83-0.93,4.21,4.21,0,0,1-.54-1,6.75,6.75,0,0,1-.32-0.85c-0.05-.25-0.08-0.47-0.1-0.66C230.64,130.88,230.63,130.66,230.63,130.66Z"/><path class="cls-15" d="M241.9,140s0.58-.5,1.31-1.19a22.66,22.66,0,0,0,2.39-2.59c0.21-.23.36-0.51,0.56-0.75l0.51-.76c0.16-.25.3-0.51,0.45-0.75s0.27-.48.4-0.7,0.26-.42.35-0.62,0.19-.36.27-0.5,0.27-.44.27-0.44,0.05,0.18.11,0.5a4.85,4.85,0,0,1,.08,1.35,4.74,4.74,0,0,1-.1.9,6.69,6.69,0,0,1-.73,2,7.33,7.33,0,0,1-.63,1A7.17,7.17,0,0,1,245.5,139a6.29,6.29,0,0,1-1.74.83A4.35,4.35,0,0,1,241.9,140Z"/><path class="cls-15" d="M230.31,128.49s-0.14-.2-0.37-0.56a6.09,6.09,0,0,1-.59-1.71,7.08,7.08,0,0,1-.1-1.22,6.65,6.65,0,0,1,.14-1.38,5.16,5.16,0,0,1,.2-0.72,3.39,3.39,0,0,1,.28-0.72,6.91,6.91,0,0,1,.84-1.36,6.29,6.29,0,0,1,1.21-1.08,6.19,6.19,0,0,1,1.38-.71,7.44,7.44,0,0,1,1.39-.28,5.81,5.81,0,0,1,1.23,0c0.37,0,.71.11,1,0.17s0.54,0.18.74,0.26c0.4,0.15.62,0.26,0.62,0.26l-0.66.12c-0.21,0-.45.07-0.73,0.1s-0.58.15-.9,0.2a9.54,9.54,0,0,0-1,.3c-0.35.09-.67,0.3-1,0.43a7.78,7.78,0,0,0-.94.64,6.55,6.55,0,0,0-.83.8,7.81,7.81,0,0,0-.65,1,7.56,7.56,0,0,0-.5,1.06,9.39,9.39,0,0,0-.34,1.08c-0.12.35-.15,0.7-0.23,1s-0.09.64-.11,0.9,0,0.51,0,.72C230.33,128.24,230.31,128.49,230.31,128.49Z"/><path class="cls-15" d="M245.09,141.87a3.6,3.6,0,0,1,.17-0.72,2,2,0,0,1,.6-0.92,1.94,1.94,0,0,1,1-.4c0.17,0,.36,0,0.5-0.06h0.24a1.54,1.54,0,0,1,.13.77,1.71,1.71,0,0,1-1.88,1.58A1.79,1.79,0,0,1,245.09,141.87Z"/><rect class="cls-8" x="136.11" y="53.88" width="43.35" height="43.3" rx="1.51" ry="1.51"/><path class="cls-9" d="M149.77,86.5a1.65,1.65,0,0,0,.33.1,3.08,3.08,0,0,0,.93,0,6.48,6.48,0,0,0,3-1.12,8.2,8.2,0,0,0,1.57-1.41,8,8,0,0,0,1.26-1.93,10.53,10.53,0,0,0,.8-2.38,17.77,17.77,0,0,0,.42-2.59,2.38,2.38,0,0,0-.41-1.77,0.41,0.41,0,0,0-.14-0.09h0l0.08,0h-0.06l-0.08,0c-0.09,0,0,0,0,0a1.16,1.16,0,0,0-.37.47,9.59,9.59,0,0,0-.62,2.22,15.41,15.41,0,0,1-.75,2.29,8.33,8.33,0,0,1-2,3,5.27,5.27,0,0,1-.8.6l-0.3.18a8.42,8.42,0,0,0,.72-1.08,10.72,10.72,0,0,0,1.12-3.08,16.86,16.86,0,0,0,.33-2.15,9.94,9.94,0,0,1,.58-2.73,2.71,2.71,0,0,1,1.36-1.52l0.29-.11,0.08,0h0.06l0.12,0a2.16,2.16,0,0,1,.66,0,2.34,2.34,0,0,1,1.1.52,3.22,3.22,0,0,1,1,1.73,5.31,5.31,0,0,1,.12,1.71,17.73,17.73,0,0,1-.56,3A12.35,12.35,0,0,1,158.42,83a9,9,0,0,1-1.79,2.14,8.62,8.62,0,0,1-2.07,1.34A6.24,6.24,0,0,1,151,87a2.85,2.85,0,0,1-.95-0.33A1.68,1.68,0,0,1,149.77,86.5Z"/><path class="cls-9" d="M151.83,78.94l-0.09-1.38a19.39,19.39,0,0,1,0-3.71,5.81,5.81,0,0,1,.92-2.55,4.86,4.86,0,0,1,1.07-1.14,7.35,7.35,0,0,1,.63-0.42,5.69,5.69,0,0,1,.77-0.37,5.6,5.6,0,0,1,3.39-.28,6.73,6.73,0,0,1,3,1.65,8,8,0,0,1,1.1,1.29c0.09,0.13.15,0.2,0.25,0.37l0.19,0.32a7.74,7.74,0,0,1,.38.8,7.85,7.85,0,0,1,.54,3.19,10.27,10.27,0,0,1-1.61,5.2,9.24,9.24,0,0,1-2.58,2.73,6.86,6.86,0,0,1-.9.52l-0.33.15a9,9,0,0,0,1-1,11.48,11.48,0,0,0,1.79-3,11,11,0,0,0,.84-4.62,7.16,7.16,0,0,0-.56-2.43c-0.08-.2-0.18-0.37-0.26-0.52l-0.2-.31-0.18-.24a6.11,6.11,0,0,0-.86-1A4.69,4.69,0,0,0,158.11,71a4.21,4.21,0,0,0-2.77.28c-0.14.06-.43,0.25-0.52,0.3a4.27,4.27,0,0,0-.81.68,5.2,5.2,0,0,0-1,1.84c-0.42,1.34-.61,2.61-0.83,3.46S151.83,78.94,151.83,78.94Z"/><path class="cls-9" d="M150.59,81.79s-0.21-.45-0.56-1.25a30.55,30.55,0,0,1-1.23-3.39,17.57,17.57,0,0,1-.55-2.39,12.16,12.16,0,0,1-.16-2.81,8,8,0,0,1,.79-3.08,7.05,7.05,0,0,1,2.2-2.56,8,8,0,0,1,3-1.3,9.92,9.92,0,0,1,3.1-.09,10.83,10.83,0,0,1,5,1.86,6.3,6.3,0,0,1,2.37,2.88,4.21,4.21,0,0,1,.25,1l0,0.36-0.14-.33a5.63,5.63,0,0,0-.5-0.84,6.71,6.71,0,0,0-2.61-2.06,11.85,11.85,0,0,0-4.53-1.07,9.92,9.92,0,0,0-2.54.23,6,6,0,0,0-2.27,1,5,5,0,0,0-1.62,1.79,7.19,7.19,0,0,0-.75,2.35,19.58,19.58,0,0,0,.06,4.78c0.17,1.44.35,2.66,0.47,3.51S150.59,81.79,150.59,81.79Z"/><path class="cls-9" d="M166.1,73.69a7.75,7.75,0,0,1,.39,1,11.82,11.82,0,0,1,.51,2.84,10.88,10.88,0,0,1-1.5,6.33,8.61,8.61,0,0,1-.7,1l-0.19.25-0.12.15-0.1.11-0.39.43c-0.26.29-.6,0.6-0.91,0.88s-0.64.52-1,.74a10.77,10.77,0,0,1-2.1,1.14,10.59,10.59,0,0,1-2.13.65,9.26,9.26,0,0,1-2,.2,7.77,7.77,0,0,1-1.66-.16,5.8,5.8,0,0,1-1.23-.36,6.08,6.08,0,0,1-1-.5l0.28,0a6.49,6.49,0,0,0,.78.09,8.81,8.81,0,0,0,1.19,0,11.39,11.39,0,0,0,1.51-.2,13,13,0,0,0,1.71-.47,15.07,15.07,0,0,0,1.81-.77A15.7,15.7,0,0,0,161.1,86c0.3-.19.56-0.44,0.84-0.66s0.51-.43.78-0.72l0.4-.42,0.1-.11,0.06-.08,0.17-.21c0.22-.28.43-0.56,0.63-0.85a10,10,0,0,0,1-1.82,13.18,13.18,0,0,0,1-3.64,17.42,17.42,0,0,0,.13-2.76C166.15,74.08,166.1,73.69,166.1,73.69Z"/><path class="cls-9" d="M168.55,80.48s0.06,0.28.15,0.77c0,0.24.09,0.54,0.12,0.88s0,0.75,0,1.2a6.71,6.71,0,0,1-.24,1.41,7.43,7.43,0,0,1-.54,1.52,10.55,10.55,0,0,1-.88,1.5,9.67,9.67,0,0,1-1.21,1.33,10.18,10.18,0,0,1-1.42,1.08,10.82,10.82,0,0,1-1.53.77,9.11,9.11,0,0,1-1.5.5,9.41,9.41,0,0,1-1.38.25,8.29,8.29,0,0,1-2.09,0,3.74,3.74,0,0,1-.57-0.11l-0.2,0a20.45,20.45,0,0,0,2.59-.91c0.37-.16.76-0.34,1.17-0.53s0.82-.43,1.24-0.67,0.82-.54,1.24-0.8a13.13,13.13,0,0,0,1.16-1,11.79,11.79,0,0,0,1-1.06c0.29-.39.62-0.76,0.87-1.16a12.83,12.83,0,0,0,.68-1.2c0.16-.41.41-0.78,0.51-1.15s0.26-.71.38-1,0.16-.62.23-0.86C168.45,80.75,168.55,80.48,168.55,80.48Z"/><path class="cls-9" d="M168.84,78.35s0-.46,0-1.25c0-.4,0-0.87,0-1.42s-0.14-1.13-.19-1.77a4.59,4.59,0,0,0-.19-1l-0.24-1a5.48,5.48,0,0,0-.37-1.05c-0.15-.35-0.25-0.72-0.42-1.08a13.23,13.23,0,0,0-1.27-2,11.25,11.25,0,0,0-1.67-1.79,12.13,12.13,0,0,0-2-1.37,13,13,0,0,0-2.2-1c-0.38-.1-0.75-0.18-1.12-0.29a9,9,0,0,0-1.09-.17,4.89,4.89,0,0,0-1.05-.08h-1l-0.91.13a3.54,3.54,0,0,0-.82.15,11.49,11.49,0,0,0-1.31.42c-0.69.33-1.12,0.52-1.12,0.52s0.32-.31.93-0.85a7.76,7.76,0,0,1,1.25-.78,10.75,10.75,0,0,1,5.37-.89c0.43,0.06.86,0.14,1.31,0.22s0.87,0.26,1.32.39a6.74,6.74,0,0,1,.66.23l0.63,0.32a13.71,13.71,0,0,1,2.43,1.56,13.13,13.13,0,0,1,1.92,2.16A11.87,11.87,0,0,1,169,69.08c0.16,0.42.26,0.85,0.37,1.27a6.56,6.56,0,0,1,.26,1.23,13.66,13.66,0,0,1,.12,2.28c-0.05.71-.12,1.35-0.18,1.91s-0.26,1-.36,1.38C169,77.91,168.84,78.35,168.84,78.35Z"/><path class="cls-9" d="M166.08,62.39s-0.42-.18-1.13-0.52a7.8,7.8,0,0,0-1.3-.54,12.79,12.79,0,0,0-1.68-.52,12.45,12.45,0,0,0-2-.37,15.23,15.23,0,0,0-2.27-.09c-0.39,0-.78.09-1.18,0.13a6.42,6.42,0,0,0-1.19.23,11.87,11.87,0,0,0-2.31.79l-1.07.59a8.39,8.39,0,0,0-1,.7,5.67,5.67,0,0,0-.89.79,5.91,5.91,0,0,0-.8.86c-0.23.31-.44,0.62-0.68,0.92s-0.36.65-.54,1a12.05,12.05,0,0,0-.8,1.88,4.42,4.42,0,0,0-.25.89l-0.19.82a8.34,8.34,0,0,0-.21,1.37c-0.09.77-.16,1.23-0.16,1.23s-0.09-.44-0.23-1.23a6.36,6.36,0,0,1-.14-1.44,10.72,10.72,0,0,1,.1-1.9,9.48,9.48,0,0,1,.56-2.22c0.16-.38.28-0.79,0.48-1.17s0.46-.75.69-1.14a7.42,7.42,0,0,1,.86-1.08l0.47-.53c0.17-.17.36-0.3,0.55-0.46a10.23,10.23,0,0,1,1.15-.87l1.26-.73a13.74,13.74,0,0,1,2.75-.87l0.69-.15c0.23,0,.47,0,0.7,0,0.46,0,.92-0.07,1.36,0a11.76,11.76,0,0,1,2.53.38,9.58,9.58,0,0,1,1.13.31l1,0.43a9.25,9.25,0,0,1,1.67.92,6,6,0,0,1,1.15.86C165.75,62.07,166.08,62.39,166.08,62.39Z"/><path class="cls-9" d="M146.34,74.35s0.07,0.2.18,0.56l0.4,1.44,0.27,0.93c0.09,0.33.23,0.66,0.33,1a22.27,22.27,0,0,0,.83,2.12A14.09,14.09,0,0,0,150.58,84a12.54,12.54,0,0,0,1,1L152,85.39s-0.21,0-.59-0.08a5.2,5.2,0,0,1-1.47-.59,5.51,5.51,0,0,1-.88-0.61,6.85,6.85,0,0,1-.86-0.83,8.43,8.43,0,0,1-1.39-2.18,10.08,10.08,0,0,1-.86-4.65,8,8,0,0,1,.21-1.53C146.27,74.56,146.34,74.35,146.34,74.35Z"/><path class="cls-9" d="M156.21,91.52a4.92,4.92,0,0,1-1.79.43,6.79,6.79,0,0,1-1.91-.13,7.15,7.15,0,0,1-1.06-.32,6.41,6.41,0,0,1-1-.54,4.76,4.76,0,0,1-.91-0.73,4.51,4.51,0,0,1-.72-0.87,4.29,4.29,0,0,1-.49-0.93,3.2,3.2,0,0,1-.27-0.88,3.4,3.4,0,0,1-.12-0.75c0-.23,0-0.43,0-0.59,0-.32,0-0.5,0-0.5s0.11,0.16.28,0.42,0.18,0.29.28,0.48,0.26,0.36.39,0.57a5.46,5.46,0,0,0,.47.63,6.05,6.05,0,0,0,.56.63,5.83,5.83,0,0,0,.65.59,5.15,5.15,0,0,0,.73.53c0.24,0.19.53,0.3,0.79,0.47s0.55,0.27.83,0.38,0.55,0.24.81,0.32L154.52,91Z"/><rect class="cls-14" x="83.57" y="53.88" width="43.35" height="43.3" rx="1.51" ry="1.51"/><path class="cls-15" d="M110.07,77.48a2.44,2.44,0,0,1-.5.14,2.84,2.84,0,0,1-1.39-.14,3.42,3.42,0,0,1-1.65-1.26A3.13,3.13,0,0,1,106,75a2.39,2.39,0,0,1,.14-1.49,2,2,0,0,1,.5-0.68l0.17-.13,0.09-.06,0,0,0.06,0,0.22-.12a2.26,2.26,0,0,1,1.43-.23,2,2,0,0,1,1.11.6,2.85,2.85,0,0,1,.54.82,3.39,3.39,0,0,1,.28,1.32,3,3,0,0,1,0,.49,3.67,3.67,0,0,0-.23-0.42,4.38,4.38,0,0,0-.71-0.93,1.46,1.46,0,0,0-1.09-.54,1.23,1.23,0,0,0-.46.19l-0.2.15-0.05,0,0,0c0.08-.06,0,0,0,0l0,0a0.71,0.71,0,0,0-.07.16,1.82,1.82,0,0,0,.2,1.17,4.39,4.39,0,0,0,.37.62,4.11,4.11,0,0,0,.45.53,5,5,0,0,0,.91.7C109.89,77.39,110.07,77.48,110.07,77.48Z"/><path class="cls-15" d="M111.3,71.49l-0.2-.13L110.56,71a7.07,7.07,0,0,0-.85-0.4,5.93,5.93,0,0,0-1.11-.31,4.25,4.25,0,0,0-1.27,0,3.94,3.94,0,0,0-1.3.42,6.69,6.69,0,0,0-.61.37,2.76,2.76,0,0,0-.52.52A3.33,3.33,0,0,0,104.3,73a5.29,5.29,0,0,0,.5,3.14,7,7,0,0,0,1.83,2.33,7.84,7.84,0,0,0,1.87,1.15,6.06,6.06,0,0,0,.59.24l0.21,0.08-0.23,0a6.19,6.19,0,0,1-.64-0.08,6.79,6.79,0,0,1-2.19-.8,6.87,6.87,0,0,1-2.44-2.35,6,6,0,0,1-.92-3.91,4.29,4.29,0,0,1,.8-2,4.47,4.47,0,0,1,.75-0.78,4.69,4.69,0,0,1,.89-0.58,4.42,4.42,0,0,1,1.92-.48,4.11,4.11,0,0,1,1.71.33,4.47,4.47,0,0,1,1.92,1.52,3.44,3.44,0,0,1,.34.58Z"/><path class="cls-15" d="M113.15,68.54s-0.21-.12-0.57-0.34a3.9,3.9,0,0,0-.63-0.36,7.19,7.19,0,0,0-.81-0.37,6.8,6.8,0,0,0-1-.33c-0.33-.13-0.73-0.16-1.09-0.26s-0.78-.12-1.19-0.13-0.82,0-1.23,0-0.83,0-1.23.13-0.8.15-1.19,0.22-0.76.19-1.1,0.32-0.69.23-1,.37a7.76,7.76,0,0,0-.82.39,6.68,6.68,0,0,0-.63.35l-0.57.33s0.09-.22.3-0.6a3.38,3.38,0,0,1,.43-0.64l0.3-.38,0.39-.36a6.1,6.1,0,0,1,.95-0.75,8.29,8.29,0,0,1,1.2-.64,8,8,0,0,1,1.39-.44,9,9,0,0,1,1.49-.21,8.81,8.81,0,0,1,1.51.08,8,8,0,0,1,1.43.33,7.23,7.23,0,0,1,1.24.59l0.53,0.34,0.45,0.39a4.09,4.09,0,0,1,.71.75,2.63,2.63,0,0,1,.42.64C113.05,68.31,113.15,68.54,113.15,68.54Z"/><path class="cls-15" d="M102.77,89.72s0.22-.14.62-0.34a10.74,10.74,0,0,1,1.72-.64c1.43-.45,3.34-0.74,5.1-1.1,0.45-.07.87-0.19,1.28-0.28s0.81-.22,1.16-0.36a7,7,0,0,0,1-.45,4.67,4.67,0,0,0,.78-0.57l0.33-.31,0.25-.34c0.08-.11.16-0.22,0.24-0.31l0.16-.3c0.19-.37.34-0.61,0.34-0.61a5.6,5.6,0,0,1,.13.7l0,0.39c0,0.14,0,.29-0.05.46l-0.08.54a5.15,5.15,0,0,1-.22.56,4.21,4.21,0,0,1-.75,1.18,5.77,5.77,0,0,1-1.19,1,7.28,7.28,0,0,1-1.43.69,11.09,11.09,0,0,1-1.51.42,17.47,17.47,0,0,1-5.45.11c-0.73-.08-1.32-0.19-1.76-0.26S102.77,89.72,102.77,89.72Z"/><path class="cls-15" d="M98.1,70.6s0,0.33-.14.9a10,10,0,0,0-.17,1c0,0.38,0,.8-0.08,1.23s0.06,0.94.09,1.44L97.94,76,98,76.34l0.12,0.39c0.09,0.26.16,0.52,0.24,0.78l0.35,0.77a4.77,4.77,0,0,0,.39.77c0.15,0.25.27,0.51,0.44,0.75a15.93,15.93,0,0,0,1,1.42c0.35,0.47.77,0.88,1.14,1.31s0.78,0.81,1.19,1.14,0.78,0.68,1.14,1,0.72,0.53,1,.77L105.94,86l0.79,0.44a7.74,7.74,0,0,1-.93,0c-0.29,0-.65-0.09-1.05-0.19a9,9,0,0,1-1.32-.44l-0.73-.31c-0.25-.12-0.49-0.27-0.74-0.41a13.37,13.37,0,0,1-1.54-1A13,13,0,0,1,99,82.65,12.18,12.18,0,0,1,97.67,81c-0.2-.29-0.34-0.62-0.52-0.92a5.14,5.14,0,0,1-.43-1c-0.12-.33-0.24-0.66-0.34-1s-0.13-.68-0.19-1a3.68,3.68,0,0,1-.08-1V75.21a14.85,14.85,0,0,1,.32-1.67c0.18-.51.38-0.95,0.55-1.33a5.23,5.23,0,0,1,.56-0.88C97.89,70.86,98.1,70.6,98.1,70.6Z"/><path class="cls-15" d="M93.65,73.61s0-.36,0-1a5.76,5.76,0,0,1,.08-1.12A10.77,10.77,0,0,1,94,70a9.94,9.94,0,0,1,.6-1.67L95,67.48c0.15-.3.36-0.57,0.55-0.87A11.08,11.08,0,0,1,97,64.94a11.46,11.46,0,0,1,1.79-1.39,6,6,0,0,1,1-.55,7,7,0,0,1,1-.44l1.07-.32,1.08-.17a5.64,5.64,0,0,1,1-.05,6.52,6.52,0,0,1,1,0,7.72,7.72,0,0,1,1.77.36c0.26,0.09.52,0.15,0.75,0.24L108.18,63a4.81,4.81,0,0,1,1,.57c0.52,0.37.78,0.59,0.78,0.59s-0.36-.05-1-0.18a7.43,7.43,0,0,0-1.07-.17,9.24,9.24,0,0,0-1.36-.1,12.49,12.49,0,0,0-1.57,0,5.15,5.15,0,0,0-.83.12,6.42,6.42,0,0,0-.85.17l-0.86.23-0.85.33a7.56,7.56,0,0,0-.83.4,4.49,4.49,0,0,0-.81.46,13.26,13.26,0,0,0-1.51,1.09,15.11,15.11,0,0,0-1.3,1.29c-0.19.23-.4,0.44-0.58,0.67l-0.51.69a5.27,5.27,0,0,0-.45.68l-0.42.66c-0.26.43-.44,0.84-0.65,1.2a10.69,10.69,0,0,0-.47,1C93.82,73.29,93.65,73.61,93.65,73.61Z"/><path class="cls-15" d="M107,61.3s0.22-.08.6-0.19a3,3,0,0,1,.73-0.09,4.54,4.54,0,0,1,1,0,7.6,7.6,0,0,1,1.12.25,8.66,8.66,0,0,1,1.17.49,8.06,8.06,0,0,1,1.16.7,11.15,11.15,0,0,1,1.08.87,10.65,10.65,0,0,1,1.73,2.1,7.79,7.79,0,0,1,1,2.18,4.55,4.55,0,0,1,.17.94,3.51,3.51,0,0,1,0,.73c0,0.41-.08.63-0.08,0.63s-0.12-.21-0.29-0.55c-0.07-.17-0.22-0.36-0.34-0.59s-0.31-.46-0.47-0.72-0.4-.51-0.6-0.8-0.46-.56-0.71-0.85c-0.5-.57-1.07-1.15-1.66-1.71-0.3-.27-0.6-0.55-0.91-0.8s-0.61-.5-0.92-0.72-0.61-.42-0.89-0.63-0.57-.37-0.85-0.5-0.53-.29-0.75-0.37a5,5,0,0,0-.63-0.24C107.24,61.38,107,61.3,107,61.3Z"/><path class="cls-15" d="M109.74,82.38l-0.26.06a6.32,6.32,0,0,1-.73.14,7,7,0,0,1-1.18,0,6.63,6.63,0,0,1-1.53-.2,7.44,7.44,0,0,1-1.75-.62,8.05,8.05,0,0,1-1.76-1.13A9,9,0,0,1,99.86,77a7.47,7.47,0,0,1-.32-4.64A5.84,5.84,0,0,1,101.84,69a5.43,5.43,0,0,1,1.38-.73,6.59,6.59,0,0,1,1.13-.33,7.41,7.41,0,0,1,.74-0.1l0.26,0-0.86.49c-0.26.17-.58,0.36-0.91,0.62a3.82,3.82,0,0,0-.5.42,4.5,4.5,0,0,0-.5.5,5.57,5.57,0,0,0-1.38,4.61,7.08,7.08,0,0,0,.47,1.8,8.47,8.47,0,0,0,.87,1.68,9.1,9.1,0,0,0,1.16,1.45,9.66,9.66,0,0,0,2.72,2,6.48,6.48,0,0,0,.67.29,4.45,4.45,0,0,0,.62.23c0.4,0.14.75,0.22,1.06,0.3Z"/><path class="cls-15" d="M115.32,76.74s0-.17,0-0.47a5.17,5.17,0,0,0,0-.52c0-.19,0-0.4,0-0.61l-0.1-.7a6.77,6.77,0,0,0-.51-1.47,6.54,6.54,0,0,0-.42-0.72,14.17,14.17,0,0,0-2.16-2.44L111.25,69l-0.35-.3s0.17,0,.48,0a5.27,5.27,0,0,1,1.21.29,6.2,6.2,0,0,1,3,2.35,5.2,5.2,0,0,1,.5,1,4.36,4.36,0,0,1,.27,1,4.16,4.16,0,0,1,0,1,5.25,5.25,0,0,1-.18.86,6,6,0,0,1-.3.68,2.3,2.3,0,0,1-.3.44C115.44,76.61,115.32,76.74,115.32,76.74Z"/><path class="cls-15" d="M110.28,80s0.1-.11.29-0.27,0.44-.38.72-0.63,0.27-.27.41-0.42a3.16,3.16,0,0,0,.35-0.47,2.86,2.86,0,0,0,.24-0.5,3.32,3.32,0,0,0,.13-0.55,4.56,4.56,0,0,0,0-.62c0-.21,0-0.44,0-0.66s0-.44-0.09-0.66-0.06-.42-0.1-0.61c-0.07-.39-0.11-0.73-0.15-1s0-.4,0-0.4,0.12,0.08.31,0.25a4.51,4.51,0,0,1,.7.76,5.31,5.31,0,0,1,.72,1.29,4.21,4.21,0,0,1,.21.85,3.9,3.9,0,0,1,0,1,3.39,3.39,0,0,1-.29,1,2.91,2.91,0,0,1-.58.79,2.83,2.83,0,0,1-.7.51,2.63,2.63,0,0,1-.68.27,3.26,3.26,0,0,1-1,.14Z"/><path class="cls-15" d="M114.07,61.8s-0.29-.15-0.77-0.45a5.45,5.45,0,0,0-.88-0.46,8.42,8.42,0,0,0-1.14-.47,10.83,10.83,0,0,0-1.39-.42c-0.49-.16-1-0.18-1.58-0.31s-1.12-.12-1.71-0.11a11.56,11.56,0,0,0-1.76.06,11.88,11.88,0,0,0-1.73.26c-0.28.08-.56,0.14-0.84,0.19l-0.79.26a6,6,0,0,0-.75.3A7.66,7.66,0,0,0,100,61a11.46,11.46,0,0,0-1.22.75,6.46,6.46,0,0,0-1,.78,5.24,5.24,0,0,0-.68.7c-0.35.42-.57,0.68-0.57,0.68s0.07-.31.25-0.86a3.88,3.88,0,0,1,.44-1c0.1-.18.2-0.38,0.33-0.57l0.46-.56a7.25,7.25,0,0,1,1.2-1.14,9.12,9.12,0,0,1,1.57-1l0.89-.4c0.31-.11.63-0.2,1-0.29a6.89,6.89,0,0,1,1-.22,9.07,9.07,0,0,1,1-.15,13.41,13.41,0,0,1,2,0,12.13,12.13,0,0,1,1.93.3,10.54,10.54,0,0,1,1.72.61L111.11,59c0.24,0.13.45,0.29,0.66,0.43s0.41,0.26.59,0.41l0.49,0.45a4,4,0,0,1,.7.76C113.89,61.53,114.07,61.8,114.07,61.8Z"/><path class="cls-15" d="M116.83,76.28s0.08,0.24.19,0.67a3.25,3.25,0,0,1,.1.81,4.57,4.57,0,0,1-.06,1.09,6.5,6.5,0,0,1-.31,1.26,7.13,7.13,0,0,1-.64,1.3,7.38,7.38,0,0,1-.94,1.25,7.75,7.75,0,0,1-2.67,1.84,5.74,5.74,0,0,1-.76.25,3.74,3.74,0,0,1-.76.16c-0.26,0-.5.09-0.75,0.09l-0.72,0a5.49,5.49,0,0,1-1.28-.21,5.78,5.78,0,0,1-1-.39,3.31,3.31,0,0,1-.71-0.41c-0.37-.26-0.56-0.42-0.56-0.42l0.69,0.07a5.4,5.4,0,0,0,.76.07c0.29,0,.61,0,1,0a10,10,0,0,0,1.09-.12l0.57-.11,0.58-.17a9.41,9.41,0,0,0,1.16-.46,7.45,7.45,0,0,0,1.1-.67,7.09,7.09,0,0,0,1-.8,10.72,10.72,0,0,0,.88-0.92c0.28-.31.49-0.65,0.73-1s0.41-.64.54-1a8.13,8.13,0,0,0,.38-0.86,5,5,0,0,0,.24-0.72C116.75,76.53,116.83,76.28,116.83,76.28Z"/><path class="cls-15" d="M103.38,87.84s-0.27.07-.75,0.17c-0.24,0-.55,0-0.91,0a7.24,7.24,0,0,1-1.17-.13l-0.66-.14c-0.22-.07-0.45-0.16-0.69-0.24a7.9,7.9,0,0,1-1.42-.68,8.91,8.91,0,0,1-1.37-1,9.09,9.09,0,0,1-1.21-1.29l-0.51-.73c-0.15-.25-0.28-0.52-0.42-0.77a10.14,10.14,0,0,1-.62-1.59,11,11,0,0,1-.28-1.55,9.35,9.35,0,0,1,0-1.39c0-.43.09-0.82,0.14-1.15a8.42,8.42,0,0,1,.23-0.86c0.14-.47.24-0.73,0.24-0.73s0.06,0.28.14,0.75l0.13,0.84c0.08,0.32.16,0.68,0.23,1.06s0.24,0.78.33,1.2,0.33,0.83.47,1.27,0.39,0.86.66,1.26l0.38,0.62,0.43,0.59a5,5,0,0,0,.46.56,5.61,5.61,0,0,0,.49.54L98.2,85l0.54,0.46c0.37,0.27.73,0.57,1.1,0.79s0.72,0.45,1.07.62,0.67,0.31,1,.46l0.78,0.29C103.12,87.75,103.38,87.84,103.38,87.84Z"/><path class="cls-11" d="M205.38,78.67s0.19-.1.44-0.27a5.4,5.4,0,0,0,.9-0.73,4.5,4.5,0,0,0,.79-1.11,1.91,1.91,0,0,0,.25-1l0-.1,0,0h0s0.06,0.08,0,0h0l0,0-0.05,0-0.2-.16a1,1,0,0,0-.34-0.19,1.29,1.29,0,0,0-1.06.39,4.52,4.52,0,0,0-.81.85,3.76,3.76,0,0,0-.29.4,3,3,0,0,1,0-.51,3.35,3.35,0,0,1,.3-1.35,3,3,0,0,1,.59-0.84,2.1,2.1,0,0,1,1.2-.6,2.42,2.42,0,0,1,1.54.31l0.22,0.13,0.05,0,0,0L209,74l0.18,0.15a2.12,2.12,0,0,1,.51.77,2.55,2.55,0,0,1,.06,1.61,3.24,3.24,0,0,1-.61,1.18,3.41,3.41,0,0,1-1.81,1.18,2.79,2.79,0,0,1-1.45,0A2.31,2.31,0,0,1,205.38,78.67Z"/><path class="cls-11" d="M204.51,72.63l0.09-.22a3.28,3.28,0,0,1,.33-0.61,4.41,4.41,0,0,1,5.81-1.27,5.15,5.15,0,0,1,.91.67,4.47,4.47,0,0,1,1.45,3.11,6.19,6.19,0,0,1-1.25,4,7,7,0,0,1-2.67,2.2,6.74,6.74,0,0,1-2.28.63,5.34,5.34,0,0,1-.88,0l0.21-.08a6.13,6.13,0,0,0,.59-0.24,8.11,8.11,0,0,0,1.87-1.12,7.11,7.11,0,0,0,1.86-2.24,5.17,5.17,0,0,0,.61-3,2.92,2.92,0,0,0-.48-1.27,2.69,2.69,0,0,0-.46-0.49,5.57,5.57,0,0,0-.54-0.37,4.1,4.1,0,0,0-2.37-.56,6.57,6.57,0,0,0-1.11.19,7.91,7.91,0,0,0-.89.3c-0.24.1-.45,0.19-0.59,0.26Z"/><path class="cls-11" d="M202.84,69.6s0.1-.22.31-0.59a2.59,2.59,0,0,1,.44-0.63,4.14,4.14,0,0,1,.74-0.74l0.47-.37,0.55-.32a7.4,7.4,0,0,1,1.28-.55,8,8,0,0,1,1.46-.28,8.56,8.56,0,0,1,1.53,0,8.7,8.7,0,0,1,1.5.28,7.74,7.74,0,0,1,1.37.52,8.11,8.11,0,0,1,1.17.71,6.06,6.06,0,0,1,.91.81c0.13,0.14.25,0.26,0.36,0.39l0.28,0.4a3.36,3.36,0,0,1,.39.67c0.18,0.4.25,0.62,0.25,0.62s-0.22-.13-0.56-0.35a7,7,0,0,0-.63-0.36,8.28,8.28,0,0,0-.81-0.41c-0.29-.15-0.63-0.26-1-0.4s-0.71-.24-1.08-0.35-0.76-.2-1.17-0.27-0.81-.12-1.21-0.17-0.82-.06-1.22,0-0.79,0-1.18.06-0.76.09-1.1,0.2a6.85,6.85,0,0,0-1,.27,7.93,7.93,0,0,0-.83.31,3.93,3.93,0,0,0-.66.31C203.06,69.5,202.84,69.6,202.84,69.6Z"/><path class="cls-11" d="M211.95,91.24s-0.25,0-.69.07-1,.09-1.76.12a19,19,0,0,1-5.4-.43,11.28,11.28,0,0,1-1.47-.48,7.3,7.3,0,0,1-1.37-.74,5.59,5.59,0,0,1-1.13-1,4,4,0,0,1-.7-1.18,5.1,5.1,0,0,1-.2-0.56l-0.06-.53c0-.16,0-0.31,0-0.45l0.06-.38a6.23,6.23,0,0,1,.14-0.69s0.12,0.24.27,0.63L199.73,86c0.07,0.1.14,0.22,0.21,0.33l0.22,0.36c0.09,0.12.2,0.23,0.3,0.34a5.07,5.07,0,0,0,.74.65,7,7,0,0,0,1,.52,11.2,11.2,0,0,0,1.15.44c0.42,0.11.83,0.26,1.28,0.35,0.87,0.23,1.79.41,2.65,0.62s1.69,0.42,2.4.65a11.36,11.36,0,0,1,1.68.67C211.73,91.11,211.95,91.24,211.95,91.24Z"/><path class="cls-11" d="M217.74,72.38s0.19,0.27.5,0.77a5.11,5.11,0,0,1,.49.92c0.14,0.39.31,0.84,0.46,1.36a14.81,14.81,0,0,1,.2,1.68l0,0.93c0,0.16,0,.32,0,0.49l-0.11.48c-0.07.33-.16,0.66-0.25,1l-0.4,1a5.33,5.33,0,0,1-.49.93c-0.19.29-.35,0.61-0.57,0.89a12.21,12.21,0,0,1-1.37,1.56,13.39,13.39,0,0,1-1.52,1.28,13.85,13.85,0,0,1-1.59.95c-0.26.13-.51,0.27-0.76,0.38l-0.75.28a9.21,9.21,0,0,1-1.33.38c-0.4.09-.77,0.11-1.06,0.15a8.11,8.11,0,0,1-.92,0l0.81-.39,0.88-.5c0.32-.23.7-0.42,1.08-0.71s0.79-.57,1.21-0.9,0.82-.72,1.26-1.08,0.85-.79,1.22-1.25a15.63,15.63,0,0,0,1.13-1.37c0.19-.23.32-0.49,0.49-0.73a5,5,0,0,0,.44-0.75c0.13-.26.26-0.51,0.39-0.76l0.29-.78,0.15-.38,0.09-.39,0.19-.76L218,75.55c0-.44,0-0.86,0-1.24a9,9,0,0,0-.12-1C217.76,72.71,217.74,72.38,217.74,72.38Z"/><path class="cls-11" d="M222,75.59s-0.14-.33-0.35-0.91a10.39,10.39,0,0,0-.4-1c-0.18-.37-0.34-0.8-0.57-1.24s-0.46-.93-0.78-1.39l-0.47-.72c-0.17-.24-0.36-0.46-0.54-0.7a14.33,14.33,0,0,0-1.22-1.36,12.78,12.78,0,0,0-1.46-1.17,4.62,4.62,0,0,0-.79-0.5,7,7,0,0,0-.82-0.43l-0.84-.37-0.85-.27a6.71,6.71,0,0,0-.85-0.21,4.94,4.94,0,0,0-.83-0.15,11.87,11.87,0,0,0-1.57-.11,9.29,9.29,0,0,0-1.36.05,7.23,7.23,0,0,0-1.07.13c-0.59.1-1,.14-1,0.14s0.28-.21.82-0.54a4.8,4.8,0,0,1,1-.51l0.65-.27c0.23-.09.49-0.13,0.76-0.2a8.5,8.5,0,0,1,.84-0.18l0.93-.08a6.19,6.19,0,0,1,1,0,5.83,5.83,0,0,1,1,.1l1.06,0.22c0.35,0.11.7,0.24,1,.37a6.76,6.76,0,0,1,1,.48,6,6,0,0,1,1,.59,11.24,11.24,0,0,1,1.71,1.46c0.25,0.27.47,0.57,0.7,0.85a5.39,5.39,0,0,1,.6.88c0.17,0.3.37,0.59,0.51,0.89l0.38,0.9a10,10,0,0,1,.52,1.69,10.89,10.89,0,0,1,.22,1.48,5.81,5.81,0,0,1,0,1.11C222,75.24,222,75.59,222,75.59Z"/><path class="cls-11" d="M209.38,62.66s-0.22.08-.61,0.17a5.12,5.12,0,0,0-.64.23c-0.22.07-.49,0.24-0.76,0.35s-0.56.32-.86,0.48-0.61.37-.91,0.6-0.63.44-.94,0.68-0.63.5-.94,0.75c-0.62.52-1.22,1.06-1.76,1.6-0.27.27-.52,0.54-0.77,0.79s-0.48.5-.66,0.75-0.39.46-.53,0.68-0.31.39-.4,0.56c-0.2.33-.34,0.53-0.34,0.53s0-.22-0.06-0.64a3.49,3.49,0,0,1,0-.74,4.5,4.5,0,0,1,.21-0.95,7.69,7.69,0,0,1,1.06-2.17,10.5,10.5,0,0,1,1.85-2,11.1,11.1,0,0,1,1.14-.82,8.05,8.05,0,0,1,1.21-.64,8.52,8.52,0,0,1,1.21-.43,7.48,7.48,0,0,1,1.15-.18,4.55,4.55,0,0,1,1,0,3,3,0,0,1,.74.15C209.17,62.56,209.38,62.66,209.38,62.66Z"/><path class="cls-11" d="M205.43,83.58l1-.16c0.3-.07.66-0.14,1.06-0.26a4.46,4.46,0,0,0,.63-0.21,6.72,6.72,0,0,0,.68-0.27,10.43,10.43,0,0,0,1.41-.76,9.64,9.64,0,0,0,1.38-1.08,9.5,9.5,0,0,0,2.18-3,7,7,0,0,0,.69-3.49,5.65,5.65,0,0,0-.37-1.59,6,6,0,0,0-.77-1.31,4.29,4.29,0,0,0-.47-0.53,3.68,3.68,0,0,0-.47-0.45c-0.31-.28-0.62-0.49-0.86-0.68l-0.83-.54,0.26,0c0.17,0,.43,0,0.74.13a6.39,6.39,0,0,1,1.12.38,5.3,5.3,0,0,1,1.36.8,5.85,5.85,0,0,1,2.15,3.48,6.74,6.74,0,0,1,.06,2.36,7.91,7.91,0,0,1-.68,2.3,9.22,9.22,0,0,1-2.92,3.55,8.46,8.46,0,0,1-1.84,1,7.45,7.45,0,0,1-1.79.52,6.6,6.6,0,0,1-1.55.12,6.92,6.92,0,0,1-1.18-.12,6.57,6.57,0,0,1-.72-0.18Z"/><path class="cls-11" d="M200.18,77.68s-0.13-.13-0.33-0.37a2.09,2.09,0,0,1-.32-0.45,4.83,4.83,0,0,1-.31-0.71,5.1,5.1,0,0,1-.18-0.9,4.12,4.12,0,0,1,.06-1,4.38,4.38,0,0,1,.32-1.08,5.28,5.28,0,0,1,.58-1A5.86,5.86,0,0,1,203.29,70a4.79,4.79,0,0,1,1.28-.14,4.27,4.27,0,0,1,.49.06s-0.13.14-.35,0.34-0.52.5-.86,0.82a21.63,21.63,0,0,0-2.16,2.35,7.61,7.61,0,0,0-.45.65,7.18,7.18,0,0,0-.35.67,7.52,7.52,0,0,0-.47,1.34c0,0.21-.07.41-0.12,0.6a5.13,5.13,0,0,0-.06.54C200.22,77.5,200.18,77.68,200.18,77.68Z"/><path class="cls-11" d="M205,81.19s-0.16,0-.42.06a2.93,2.93,0,0,1-1.1-.11,2.74,2.74,0,0,1-.72-0.28,2.84,2.84,0,0,1-.73-0.56,2.92,2.92,0,0,1-.58-0.88,3.54,3.54,0,0,1-.25-1.06,4.1,4.1,0,0,1,.39-1.88,4.52,4.52,0,0,1,.88-1.24,4,4,0,0,1,.83-0.67,3.71,3.71,0,0,1,.37-0.2s0,0.16,0,.42-0.05.61-.11,1L203.39,77c0,0.21-.05.43-0.06,0.62s0,0.39,0,.57a4.3,4.3,0,0,0,.07.49,2.93,2.93,0,0,0,.41.93,4.54,4.54,0,0,0,.33.46c0.23,0.29.44,0.55,0.62,0.75S205,81.19,205,81.19Z"/><path class="cls-11" d="M202.78,62.78s0.19-.27.55-0.7a3.9,3.9,0,0,1,.74-0.73l0.51-.43a7,7,0,0,1,.61-0.38c0.22-.13.44-0.27,0.69-0.4s0.51-.21.78-0.32a10.87,10.87,0,0,1,1.76-.53c0.31-.06.64-0.09,1-0.14a5.31,5.31,0,0,1,1-.07c0.34,0,.68,0,1,0l1,0.11a11.51,11.51,0,0,1,2,.49L215.35,60l0.87,0.46a9.47,9.47,0,0,1,1.52,1.08,7.18,7.18,0,0,1,1.12,1.24l0.42,0.6c0.12,0.2.2,0.41,0.29,0.6a3.81,3.81,0,0,1,.35,1c0.13,0.57.17,0.89,0.17,0.89s-0.22-.26-0.54-0.7a5.37,5.37,0,0,0-.65-0.73,6.57,6.57,0,0,0-.91-0.82,12.19,12.19,0,0,0-1.17-.8c-0.21-.13-0.46-0.23-0.69-0.35a5.26,5.26,0,0,0-.73-0.33l-0.77-.3-0.82-.24a7.09,7.09,0,0,0-.84-0.2,7,7,0,0,0-.86-0.16l-0.87-.11-0.87,0c-0.58-.06-1.14,0-1.7,0s-1.09.07-1.58,0.19a11,11,0,0,0-1.41.32,9.19,9.19,0,0,0-1.17.38,5.54,5.54,0,0,0-.92.38C203.09,62.66,202.78,62.78,202.78,62.78Z"/><path class="cls-11" d="M198.7,77.16s0.07,0.25.16,0.69a5,5,0,0,0,.22.73,8.77,8.77,0,0,0,.35.87c0.11,0.32.35,0.62,0.5,1s0.42,0.66.69,1a10.77,10.77,0,0,0,.82.94,8.93,8.93,0,0,0,1,.83,9.46,9.46,0,0,0,1,.71,9.27,9.27,0,0,0,1.11.51l0.56,0.21,0.56,0.14c0.37,0.12.73,0.11,1.07,0.19s0.66,0,1,.06a5.77,5.77,0,0,0,.76,0c0.43,0,.7,0,0.7,0a7,7,0,0,1-.58.41,3.31,3.31,0,0,1-.72.4,5.83,5.83,0,0,1-1,.36,5.45,5.45,0,0,1-1.3.17h-0.73c-0.25,0-.5-0.08-0.75-0.12a3.39,3.39,0,0,1-.77-0.2,8.11,8.11,0,0,1-.76-0.29,7.81,7.81,0,0,1-1.41-.86,7.63,7.63,0,0,1-1.19-1.13,7.33,7.33,0,0,1-.88-1.32,7.5,7.5,0,0,1-.56-1.36,6.26,6.26,0,0,1-.22-1.29,4.47,4.47,0,0,1,0-1.1,3.14,3.14,0,0,1,.17-0.81C198.59,77.4,198.7,77.16,198.7,77.16Z"/><path class="cls-11" d="M211.45,89.34s0.27-.09.75-0.19l0.79-.27c0.3-.14.63-0.25,1-0.43s0.71-.36,1.09-0.58,0.74-.49,1.12-0.75l0.56-.43,0.54-.48a5.74,5.74,0,0,0,.52-0.51,5.08,5.08,0,0,0,.49-0.54l0.46-.56,0.41-.59c0.3-.38.48-0.82,0.73-1.21s0.41-.82.56-1.23,0.31-.8.42-1.17,0.21-.73.31-1l0.19-.83c0.11-.47.2-0.75,0.2-0.75s0.1,0.26.22,0.74a8,8,0,0,1,.19.88c0,0.34.07,0.74,0.09,1.17A9.39,9.39,0,0,1,222,82a11.92,11.92,0,0,1-.36,1.55l-0.32.78a4,4,0,0,1-.39.78c-0.15.25-.29,0.51-0.47,0.76l-0.56.7a9.17,9.17,0,0,1-1.29,1.23,8.72,8.72,0,0,1-2.91,1.53c-0.24.07-.48,0.15-0.71,0.2l-0.68.1a7,7,0,0,1-1.19.06c-0.36,0-.67-0.07-0.92-0.11C211.72,89.43,211.45,89.34,211.45,89.34Z"/></g><ellipse class="cls-6" cx="183.93" cy="76.02" rx="73.6" ry="73.52"/><line class="cls-6" x1="66.82" y1="111.51" x2="127.28" y2="29.09"/><line class="cls-16" x1="72.45" y1="125.42" x2="170.04" y2="148.1"/></svg>