<svg id="Layer_1" data-name="Layer 1" xmlns="http://www.w3.org/2000/svg" xmlns:xlink="http://www.w3.org/1999/xlink" viewBox="0 0 380 270"><defs><style>.cls-1,.cls-16,.cls-2,.cls-3,.cls-5,.cls-6{fill:none;}.cls-2,.cls-3{stroke:#6ac9d0;stroke-linejoin:round;}.cls-16,.cls-2,.cls-3,.cls-6{stroke-width:4px;}.cls-16,.cls-3{stroke-linecap:round;}.cls-4{fill:#ffe5ca;}.cls-4,.cls-5{stroke:#f59122;stroke-width:2.16px;}.cls-16,.cls-4,.cls-5,.cls-6{stroke-miterlimit:10;}.cls-5{opacity:0.3;}.cls-16,.cls-6{stroke:#c3e9ec;}.cls-7{clip-path:url(#clip-path);}.cls-8,.cls-9{fill:#469da1;}.cls-10,.cls-12,.cls-14,.cls-8{opacity:0.25;}.cls-10,.cls-11{fill:#6ac9d0;}.cls-12,.cls-13{fill:#f59122;}.cls-14,.cls-15{fill:#ef5034;}</style><clipPath id="clip-path"><circle class="cls-1" cx="261.66" cy="113.81" r="97.46"/></clipPath></defs><title>ipfs-illustrations-how</title><rect class="cls-2" x="20.88" y="97.49" width="120.67" height="156.16"/><line class="cls-3" x1="39.63" y1="123.28" x2="122.81" y2="123.28"/><line class="cls-3" x1="39.63" y1="144.8" x2="122.81" y2="144.8"/><line class="cls-3" x1="39.63" y1="166.32" x2="122.81" y2="166.32"/><line class="cls-3" x1="39.63" y1="187.85" x2="122.81" y2="187.85"/><line class="cls-3" x1="39.63" y1="209.37" x2="76.07" y2="209.37"/><line class="cls-3" x1="39.63" y1="230.89" x2="76.07" y2="230.89"/><circle class="cls-4" cx="106.58" cy="219.52" r="10.85"/><ellipse class="cls-5" cx="106.58" cy="219.52" rx="19.52" ry="3.19" transform="translate(-108.71 104.63) rotate(-36.02)"/><circle class="cls-6" cx="117.43" cy="166.89" r="12.41"/><g class="cls-7"><rect class="cls-8" x="163.43" y="14.83" width="57.41" height="57.41" rx="2" ry="2"/><path class="cls-9" d="M202.75,58.06a2,2,0,0,1-.37.26,3.82,3.82,0,0,1-1.26.43,8.26,8.26,0,0,1-4.72-.7,11.42,11.42,0,0,1-2.74-1.78,11.9,11.9,0,0,1-2.36-2.84,16.4,16.4,0,0,1-1.52-3.6c-0.19-.63-0.33-1.27-0.46-1.91a17.29,17.29,0,0,1-.29-2,7.35,7.35,0,0,1,.16-2.27,4.28,4.28,0,0,1,1.36-2.31,3.09,3.09,0,0,1,1.46-.68,2.86,2.86,0,0,1,.88,0h0l0.13,0h0l0.06,0,0.11,0a2.9,2.9,0,0,1,.39.15,3.63,3.63,0,0,1,1.8,2,13.23,13.23,0,0,1,.76,3.62,22.35,22.35,0,0,0,.44,2.85,16.24,16.24,0,0,0,.68,2.34,12.3,12.3,0,0,0,.81,1.73c0.27,0.47.51,0.82,0.68,1.07l0.27,0.37-0.4-.23a7.38,7.38,0,0,1-1.05-.8,9,9,0,0,1-1.38-1.55,13.07,13.07,0,0,1-1.32-2.37,20.34,20.34,0,0,1-1-3l-0.17-.81c0-.26-0.11-0.51-0.17-0.76a6.85,6.85,0,0,0-.48-1.37,1.45,1.45,0,0,0-.5-0.62s0.09,0,0,0l-0.11,0H192.4l0.11,0h0a0.62,0.62,0,0,0-.17.12,3.05,3.05,0,0,0-.55,2.33c0,0.48.14,1.15,0.22,1.71s0.21,1.16.33,1.72a13.94,13.94,0,0,0,1.06,3.15A10.61,10.61,0,0,0,195,54.89a10.9,10.9,0,0,0,2.08,1.87,9.63,9.63,0,0,0,2.14,1.08,7.43,7.43,0,0,0,1.84.41,4,4,0,0,0,1.23-.06A2.38,2.38,0,0,0,202.75,58.06Z"/><path class="cls-9" d="M200,48s-0.21-.64-0.47-1.78c-0.14-.57-0.28-1.26-0.45-2s-0.36-1.66-.65-2.54a6.92,6.92,0,0,0-1.3-2.44,5.65,5.65,0,0,0-1.08-.91c-0.12-.07-0.5-0.31-0.69-0.39a5.5,5.5,0,0,0-.66-0.26,5.39,5.39,0,0,0-3-.1,6.41,6.41,0,0,0-2.77,1.6,8.06,8.06,0,0,0-1.13,1.28c-0.07.1-.2,0.26-0.23,0.32l-0.26.41c-0.12.21-.24,0.43-0.35,0.69a9.26,9.26,0,0,0-.75,3.22,13.8,13.8,0,0,0,.24,3.25,16.82,16.82,0,0,0,.87,2.88,15.21,15.21,0,0,0,2.37,3.95c0.37,0.43.68,0.76,0.91,1L191,56.47l-0.44-.2a9.46,9.46,0,0,1-1.19-.69,12.25,12.25,0,0,1-3.41-3.62,13.36,13.36,0,0,1-1.45-3.08,12.52,12.52,0,0,1-.68-3.81,10.6,10.6,0,0,1,.71-4.22,10.13,10.13,0,0,1,.5-1.07l0.26-.43c0.13-.22.22-0.32,0.33-0.48a10.65,10.65,0,0,1,1.46-1.7,8.73,8.73,0,0,1,4-2.2,7.76,7.76,0,0,1,5.52.88,9.74,9.74,0,0,1,.84.56,6.45,6.45,0,0,1,1.42,1.52,7.71,7.71,0,0,1,1.22,3.38,17.14,17.14,0,0,1,.14,2.8c0,0.82-.05,1.52-0.09,2.11Z"/><path class="cls-9" d="M201.66,51.82s0.06-.66.21-1.79,0.39-2.75.62-4.66a26,26,0,0,0,.07-6.33,9.32,9.32,0,0,0-1-3.11,6.93,6.93,0,0,0-2.14-2.38A9.19,9.19,0,0,0,198,32.7l-0.4-.17-0.36-.13a7.71,7.71,0,0,0-.79-0.23,12.72,12.72,0,0,0-3.36-.31,17.18,17.18,0,0,0-3.23.44,14.88,14.88,0,0,0-2.78,1A8.89,8.89,0,0,0,183.59,36a7.15,7.15,0,0,0-.66,1.11l-0.19.43,0-.47a5.74,5.74,0,0,1,.33-1.33,8.35,8.35,0,0,1,3.14-3.82,12.46,12.46,0,0,1,3-1.57,14.56,14.56,0,0,1,3.65-.9,13.4,13.4,0,0,1,4.11.12,10.32,10.32,0,0,1,1.07.26L198.6,30l0.49,0.2A11.81,11.81,0,0,1,201,31.31a9.07,9.07,0,0,1,2.92,3.39,10.81,10.81,0,0,1,1,4.08,16.17,16.17,0,0,1-.21,3.73,23.2,23.2,0,0,1-.73,3.16,40.41,40.41,0,0,1-1.63,4.49C201.95,51.22,201.66,51.82,201.66,51.82Z"/><path class="cls-9" d="M181.13,41.08s-0.07.52-.09,1.42a23.14,23.14,0,0,0,.17,3.65A17.54,17.54,0,0,0,182.48,51a13.38,13.38,0,0,0,1.31,2.42c0.27,0.38.55,0.76,0.84,1.12l0.23,0.27,0.09,0.1L185.08,55l0.53,0.56c0.35,0.38.68,0.63,1,1s0.72,0.62,1.12.87a19.19,19.19,0,0,0,2.35,1.46,19.91,19.91,0,0,0,2.39,1,17.14,17.14,0,0,0,2.27.62,15,15,0,0,0,2,.27,7.44,7.44,0,0,0,.85,0,4.69,4.69,0,0,0,.73,0,8,8,0,0,0,1-.12l0.37-.06-0.32.19a5.35,5.35,0,0,1-1,.48,7.66,7.66,0,0,1-1.62.48,10.27,10.27,0,0,1-2.2.21,12.26,12.26,0,0,1-2.62-.26,14,14,0,0,1-2.82-.86,14.9,14.9,0,0,1-2.79-1.5c-0.46-.29-0.87-0.66-1.31-1s-0.87-.78-1.21-1.16l-0.51-.57-0.13-.14c-0.1-.12-0.1-0.13-0.16-0.2l-0.25-.33a12.25,12.25,0,0,1-.92-1.37,14.42,14.42,0,0,1-2-8.38,15.7,15.7,0,0,1,.68-3.77A10.24,10.24,0,0,1,181.13,41.08Z"/><path class="cls-9" d="M177.88,50.08s0.13,0.36.31,1c0.09,0.31.2,0.7,0.3,1.14s0.35,0.86.51,1.35a14.54,14.54,0,0,0,.68,1.52,14.34,14.34,0,0,0,.89,1.59c0.33,0.53.75,1,1.14,1.54a15.7,15.7,0,0,0,1.38,1.4,17.31,17.31,0,0,0,1.54,1.26c0.56,0.35,1.08.76,1.65,1.06s1.1,0.62,1.64.89,1.06,0.51,1.54.72c1,0.41,1.83.72,2.44,0.91s1,0.29,1,.29l-0.26.07a5.26,5.26,0,0,1-.76.15,11,11,0,0,1-2.77,0,13.84,13.84,0,0,1-1.84-.33,13.56,13.56,0,0,1-2-.67,6.92,6.92,0,0,1-1-.47c-0.33-.18-0.68-0.35-1-0.56a13.46,13.46,0,0,1-1.88-1.44,12.84,12.84,0,0,1-1.61-1.76,9.81,9.81,0,0,1-.63-1,6.15,6.15,0,0,1-.54-1,10.68,10.68,0,0,1-.71-2,9.51,9.51,0,0,1-.31-1.87c0-.59,0-1.13,0-1.59s0.11-.84.16-1.17C177.79,50.46,177.88,50.08,177.88,50.08Z"/><path class="cls-9" d="M177.5,47.25s-0.21-.57-0.53-1.57c-0.13-.51-0.29-1.14-0.43-1.88a17.81,17.81,0,0,1-.26-2.5,15,15,0,0,1,.16-3,15.11,15.11,0,0,1,.85-3.31A15.57,15.57,0,0,1,179,31.7a17.36,17.36,0,0,1,2.58-2.85,17.9,17.9,0,0,1,3.21-2.1,15.7,15.7,0,0,1,3.48-1.22,14.27,14.27,0,0,1,3.41-.37,13.35,13.35,0,0,1,3,.37,11.3,11.3,0,0,1,2.41.88,8.76,8.76,0,0,1,1.66,1,6.38,6.38,0,0,1,.92.83l0.3,0.31-0.38-.2a9.71,9.71,0,0,0-1.09-.5,6.39,6.39,0,0,0-.79-0.29,8.88,8.88,0,0,0-.95-0.27,15.07,15.07,0,0,0-2.3-.35,15.88,15.88,0,0,0-5.64.73A18.18,18.18,0,0,0,185.94,29a15.71,15.71,0,0,0-2.68,1.85,15.35,15.35,0,0,0-3.9,5.05,19.07,19.07,0,0,0-1.05,2.82c-0.13.47-.25,0.93-0.33,1.38a12.31,12.31,0,0,0-.24,1.32c-0.13.85-.17,1.65-0.23,2.37l0,1.86C177.5,46.65,177.5,47.25,177.5,47.25Z"/><path class="cls-9" d="M181.16,26.1s0.44-.42,1.22-1.11l0.65-.57a9.66,9.66,0,0,1,.87-0.57,12.23,12.23,0,0,1,2.22-1.22l1.34-.57a12.76,12.76,0,0,1,1.5-.42,15.57,15.57,0,0,1,3.36-.5c0.59,0,1.19,0,1.81.06,0.31,0,.62,0,0.92.06L196,21.45a18.13,18.13,0,0,1,3.64,1.15l1.67,1a13.83,13.83,0,0,1,1.53,1.15c0.24,0.2.5,0.39,0.72,0.61L204.13,26a9.77,9.77,0,0,1,1.14,1.43c0.31,0.51.64,1,.92,1.51s0.43,1.05.63,1.55a12.59,12.59,0,0,1,.74,2.93,14.35,14.35,0,0,1,.13,2.52,8.43,8.43,0,0,1-.19,1.91c-0.18,1-.3,1.62-0.3,1.62s-0.09-.61-0.21-1.63a11.12,11.12,0,0,0-.28-1.82L206.45,35a5.9,5.9,0,0,0-.33-1.18,16,16,0,0,0-1.06-2.5c-0.24-.41-0.44-0.86-0.71-1.27s-0.6-.8-0.9-1.21a7.77,7.77,0,0,0-1.05-1.13l-0.56-.56c-0.19-.18-0.42-0.32-0.62-0.49a11.35,11.35,0,0,0-1.3-.93l-1.42-.78a15.64,15.64,0,0,0-3.06-1l-0.78-.19c-0.26-.05-0.53-0.07-0.79-0.11-0.53-.05-1-0.16-1.56-0.17a20.19,20.19,0,0,0-3,.12c-0.48.07-1,.09-1.4,0.19l-1.29.3a16.92,16.92,0,0,0-2.23.69c-0.33.12-.65,0.21-0.94,0.34l-0.78.38C181.71,25.86,181.16,26.1,181.16,26.1Z"/><path class="cls-9" d="M207.3,42s0.09,0.28.2,0.76a10.56,10.56,0,0,1,.28,2,14.43,14.43,0,0,1-.16,2.92,14.9,14.9,0,0,1-.38,1.62,12.7,12.7,0,0,1-.6,1.62,12.52,12.52,0,0,1-.82,1.54,11,11,0,0,1-1,1.35,9.12,9.12,0,0,1-1.14,1.1,7.33,7.33,0,0,1-1.17.8,7,7,0,0,1-1.07.52c-0.33.12-.63,0.2-0.87,0.26-0.5.09-.78,0.11-0.78,0.11s0.22-.2.59-0.5L201,55.5c0.22-.25.48-0.48,0.73-0.79s0.51-.62.79-1,0.52-.73.77-1.14,0.49-.83.74-1.26,0.47-.88.66-1.36,0.4-.94.59-1.4l0.51-1.4c0.13-.47.32-0.91,0.43-1.35s0.26-.85.36-1.24,0.21-.74.3-1.06l0.23-.85C207.19,42.22,207.3,42,207.3,42Z"/><path class="cls-9" d="M194.23,64.72s1-.27,2.23-0.68c0.64-.23,1.36-0.46,2.09-0.78,0.37-.15.72-0.34,1.09-0.51s0.73-.37,1-0.62l0.51-.33,0.46-.38a7.76,7.76,0,0,0,.86-0.79,7.62,7.62,0,0,0,.74-0.84,6.3,6.3,0,0,0,.62-0.83c0.17-.28.4-0.51,0.51-0.76s0.26-.45.37-0.63c0.22-.35.37-0.56,0.37-0.56s0,0.24.05,0.67c0,0.21,0,.48,0,0.78a4.47,4.47,0,0,1-.16,1,4.57,4.57,0,0,1-.35,1.17,5.84,5.84,0,0,1-.65,1.22,6,6,0,0,1-1,1.15c-0.19.17-.37,0.36-0.57,0.53l-0.64.44a8.48,8.48,0,0,1-1.36.71,9.42,9.42,0,0,1-1.4.43,8.59,8.59,0,0,1-2.53.18A6.51,6.51,0,0,1,194.23,64.72Z"/><rect class="cls-10" x="233" y="14.83" width="57.41" height="57.41" rx="2" ry="2"/><path class="cls-11" d="M262.22,49.33s0.06-.3.13-0.75c0-.23.07-0.5,0.1-0.8s0.06-.63.05-1a11.35,11.35,0,0,0-.16-2.23,3.52,3.52,0,0,0-.75-1.75,1.81,1.81,0,0,0-.15-0.15s-0.06,0,0,0l-0.08,0-0.17-.1a2.66,2.66,0,0,0-.41-0.21,1.45,1.45,0,0,0-.78-0.11,1.82,1.82,0,0,0-.82.4,4.09,4.09,0,0,0-.71.78,7.35,7.35,0,0,0-.84,1.57c-0.17.42-.25,0.68-0.25,0.68a4.46,4.46,0,0,1-.18-0.73,5.46,5.46,0,0,1,.08-2,4.46,4.46,0,0,1,.56-1.36,3.36,3.36,0,0,1,1.37-1.28,3.43,3.43,0,0,1,2.14-.28,4.53,4.53,0,0,1,1,.31l0.18,0.08,0.09,0,0.16,0.09a3.88,3.88,0,0,1,.48.3,4.18,4.18,0,0,1,1.33,1.72,5.27,5.27,0,0,1,.39,1.87,5.93,5.93,0,0,1-.73,3,5.72,5.72,0,0,1-.69,1,4.1,4.1,0,0,1-.68.63A2.46,2.46,0,0,1,262.22,49.33Z"/><path class="cls-11" d="M266.44,47.68a4.34,4.34,0,0,0,.37-1.54,11.06,11.06,0,0,0-.53-4,12.19,12.19,0,0,0-1-2.42,8,8,0,0,0-1.74-2.17A5,5,0,0,0,261,36.38a6.74,6.74,0,0,0-1.42,0c-0.23,0-.52.07-0.71,0.12l-0.43.11-0.3.11a4.92,4.92,0,0,0-2.2,1.73,7.28,7.28,0,0,0-1.13,2.72,10.62,10.62,0,0,0-.2,2.92,13.27,13.27,0,0,0,.4,2.67,15.55,15.55,0,0,0,1.5,3.85,14.07,14.07,0,0,0,.84,1.37l-0.31-.29a10.93,10.93,0,0,1-.84-0.86,13.35,13.35,0,0,1-2.28-3.72,12.69,12.69,0,0,1-.91-6.24,8.61,8.61,0,0,1,1.23-3.56,7.14,7.14,0,0,1,1.33-1.55,6.94,6.94,0,0,1,1.8-1.07l0.52-.19,0.42-.12c0.38-.1.67-0.14,1-0.2A6.68,6.68,0,0,1,264.89,36a9,9,0,0,1,2,2.91,11.46,11.46,0,0,1,.81,2.92,9.34,9.34,0,0,1-.37,4.42,4.41,4.41,0,0,1-.58,1.1Z"/><path class="cls-11" d="M252.3,34.74s0-.28,0-0.77a3,3,0,0,1,.16-0.87l0.16-.56c0.07-.19.17-0.37,0.27-0.56a5.55,5.55,0,0,1,.77-1.2,7.61,7.61,0,0,1,1.13-1.14,7.92,7.92,0,0,1,1.44-.93,9.15,9.15,0,0,1,1.63-.66,10.28,10.28,0,0,1,3.4-.38,9.3,9.3,0,0,1,1.54.25l0.7,0.18,0.63,0.25a5.3,5.3,0,0,1,1,.53,3.9,3.9,0,0,1,.73.51c0.38,0.32.57,0.52,0.57,0.52s-0.29,0-.75-0.11a7.61,7.61,0,0,0-.83-0.11c-0.32,0-.67-0.08-1.05-0.09s-0.79,0-1.22,0-0.88.07-1.33,0.08-0.92.1-1.39,0.21a13,13,0,0,0-1.39.33,11.71,11.71,0,0,0-1.34.48c-0.21.1-.43,0.18-0.64,0.28l-0.6.32a11.71,11.71,0,0,0-1.08.7,9.62,9.62,0,0,0-.9.77,6.59,6.59,0,0,0-.7.74,4.27,4.27,0,0,0-.52.66C252.48,34.52,252.3,34.74,252.3,34.74Z"/><path class="cls-11" d="M262.62,55.89s-0.44.22-1.22,0.55a9.51,9.51,0,0,1-1.57.36c-0.31,0-.64,0-1,0l-0.55,0-0.56-.11a8,8,0,0,1-2.41-.83c-0.38-.23-0.81-0.45-1.19-0.72s-0.76-.58-1.13-0.9-0.7-.69-1-1.06S251.29,52.41,251,52s-0.57-.84-0.83-1.28-0.48-.9-0.71-1.36-0.4-.94-0.58-1.41-0.33-1-.46-1.44a15.27,15.27,0,0,1-.5-2.93,11.85,11.85,0,0,1,0-1.41c0-.45.06-0.92,0.11-1.34a13.65,13.65,0,0,1,.48-2.39A11.7,11.7,0,0,1,250,35.16a7.47,7.47,0,0,1,.6-0.8l0.23-.26s-0.14.47-.32,1.28a20.12,20.12,0,0,0-.42,3.33c0,0.68,0,1.42,0,2.19,0,0.4.06,0.77,0.11,1.17s0.11,0.79.19,1.21a20.37,20.37,0,0,0,.64,2.45c0.13,0.41.31,0.82,0.45,1.23s0.35,0.81.53,1.21l0.59,1.18,0.66,1.13L254,51.54l0.77,1c0.26,0.3.56,0.56,0.82,0.86s0.57,0.49.85,0.74a9.34,9.34,0,0,0,1.77,1.06l0.44,0.2L259,55.49c0.29,0.08.56,0.19,0.83,0.24,0.52,0,1,.17,1.42.16C262.13,55.87,262.62,55.89,262.62,55.89Z"/><path class="cls-11" d="M273.08,40.12a8.43,8.43,0,0,1,.64,1.48,13.5,13.5,0,0,1,.73,4.25A12.8,12.8,0,0,1,273,52a13.06,13.06,0,0,1-2.1,3c-0.2.22-.45,0.47-0.65,0.65s-0.4.39-.64,0.59c-0.46.41-.92,0.79-1.39,1.17a27,27,0,0,1-3,2,31.28,31.28,0,0,1-3.06,1.54c-1,.46-2,0.82-2.94,1.16s-1.82.62-2.63,0.89a17.48,17.48,0,0,0-3.71,1.59,6.43,6.43,0,0,0-.91.7l-0.29.3,0.16-.39a5,5,0,0,1,.67-1A12.44,12.44,0,0,1,256,61.5c0.76-.44,1.58-0.9,2.46-1.34l2.68-1.45c0.92-.5,1.83-1.07,2.74-1.65s1.81-1.22,2.66-1.89c0.43-.34.86-0.68,1.25-1,0.2-.16.41-0.37,0.63-0.55s0.38-.34.57-0.53a13.15,13.15,0,0,0,1.9-2.29,14.72,14.72,0,0,0,1.26-2.53,16.6,16.6,0,0,0,.69-2.51,20.21,20.21,0,0,0,.33-4C273.15,40.7,273.08,40.12,273.08,40.12Z"/><path class="cls-11" d="M276,50.86l0.07,0.28c0,0.18.11,0.45,0.15,0.8a8.57,8.57,0,0,1-.2,3,9,9,0,0,1-.72,1.93,10.31,10.31,0,0,1-1.27,1.93,12.29,12.29,0,0,1-1.73,1.72,16.42,16.42,0,0,1-2,1.43,21.68,21.68,0,0,1-8.42,2.75,19.8,19.8,0,0,1-2.89.14c-0.7,0-1.1-.07-1.1-0.07s0.37-.17,1-0.44l2.62-1.08A62.37,62.37,0,0,0,269,59.72c0.62-.38,1.24-0.76,1.81-1.18a16.83,16.83,0,0,0,1.6-1.3,12.64,12.64,0,0,0,1.3-1.4,11.85,11.85,0,0,0,1-1.43,12.85,12.85,0,0,0,.66-1.36c0.19-.42.29-0.8,0.41-1.12C275.93,51.25,276,50.86,276,50.86Z"/><path class="cls-11" d="M276.45,46.64s0-.59-0.09-1.62c0-.51,0-1.14-0.07-1.85s-0.21-1.47-.29-2.3a7.47,7.47,0,0,0-.26-1.28c-0.11-.44-0.2-0.9-0.3-1.36a8.73,8.73,0,0,0-.45-1.39c-0.19-.46-0.31-1-0.51-1.42A19.08,19.08,0,0,0,273,32.7a15.31,15.31,0,0,0-2-2.46l-1.2-1a9.93,9.93,0,0,0-1.3-.89c-0.22-.14-0.43-0.29-0.66-0.41l-0.7-.33a7.62,7.62,0,0,0-1.4-.59l-1.42-.43-1.4-.25a7.89,7.89,0,0,0-1.35-.09,6.54,6.54,0,0,0-1.28,0,13.59,13.59,0,0,0-2.25.32,10.86,10.86,0,0,0-1.73.48c-0.94.36-1.51,0.57-1.51,0.57s0.44-.38,1.27-1a8.18,8.18,0,0,1,1.64-1,10.37,10.37,0,0,1,2.35-.86,7.76,7.76,0,0,1,1.42-.26,8,8,0,0,1,1.56-.11l1.66,0.07c0.56,0.07,1.12.23,1.7,0.35a9.6,9.6,0,0,1,1.71.56l0.86,0.33c0.28,0.13.54,0.31,0.81,0.46a12.34,12.34,0,0,1,1.58,1l1.47,1.21a17.87,17.87,0,0,1,2.31,3,16.49,16.49,0,0,1,1.54,3.26c0.19,0.55.3,1.11,0.43,1.65a10.25,10.25,0,0,1,.3,1.59,21.56,21.56,0,0,1,.15,2.94c-0.06.92-.14,1.75-0.21,2.47s-0.3,1.31-.41,1.81C276.62,46.07,276.45,46.64,276.45,46.64Z"/><path class="cls-11" d="M275.09,27.68l-0.36-.33c-0.23-.21-0.57-0.55-1-0.9A19.45,19.45,0,0,0,272,25.21,18.75,18.75,0,0,0,269.69,24a18.41,18.41,0,0,0-2.94-1,19.45,19.45,0,0,0-3.39-.43,17.41,17.41,0,0,0-3.6.34,13.79,13.79,0,0,0-3.51,1.21,13.5,13.5,0,0,0-3.12,2,15.84,15.84,0,0,0-2.49,2.63,19.17,19.17,0,0,0-1.81,2.92,25.84,25.84,0,0,0-1.19,2.9c-0.31.93-.54,1.81-0.73,2.59s-0.3,1.49-.42,2.06c-0.16,1.16-.28,1.83-0.28,1.83s-0.07-.67-0.17-1.86c0-.59,0-1.32,0-2.15l0.1-1.33c0-.47.15-1,0.23-1.47a18.82,18.82,0,0,1,.9-3.25c0.21-.56.48-1.13,0.74-1.71a15.86,15.86,0,0,1,1-1.69,15.65,15.65,0,0,1,6.25-5.51,16,16,0,0,1,4.07-1.31,16.49,16.49,0,0,1,4.12-.19,15.49,15.49,0,0,1,6.82,2.25,14.47,14.47,0,0,1,2.27,1.72,13.78,13.78,0,0,1,1.47,1.6,9.72,9.72,0,0,1,.79,1.13Z"/><path class="cls-11" d="M270,46.3s0,0.29,0,.77a7.58,7.58,0,0,1-.15.89,6.85,6.85,0,0,1-.37,1.12,6.51,6.51,0,0,1-.67,1.26,6.82,6.82,0,0,1-1,1.26,6.68,6.68,0,0,1-3.22,1.7,5.65,5.65,0,0,1-3.73-.48,4.26,4.26,0,0,1-1.38-1.17,3.48,3.48,0,0,1-.67-2.76,3.43,3.43,0,0,1,.3-0.89,2.85,2.85,0,0,1,.3-0.5l0.12-.17v0.21a5.42,5.42,0,0,0,0,.55,5.3,5.3,0,0,0,.12.8,3.54,3.54,0,0,0,.36.87A2.93,2.93,0,0,0,261.63,51a4.89,4.89,0,0,0,2.47.1,6.7,6.7,0,0,0,2.42-1,9.81,9.81,0,0,0,1.87-1.65c0.51-.58.91-1.1,1.19-1.49S270,46.3,270,46.3Z"/><path class="cls-11" d="M255.82,59.35a3.87,3.87,0,0,1-.68,0,7,7,0,0,1-1.76-.29,9.7,9.7,0,0,1-4.55-2.94,10,10,0,0,1-.89-1.2,11.52,11.52,0,0,1-.68-1.28,11.37,11.37,0,0,1-.44-1.27,6.47,6.47,0,0,1-.23-1.17,5,5,0,0,1-.09-1c0-.3,0-0.56,0-0.77,0-.43.08-0.67,0.08-0.67s0.14,0.21.36,0.57c0.1,0.18.23,0.4,0.36,0.65s0.32,0.51.48,0.81,0.33,0.61.56,0.92,0.4,0.66.64,1,0.46,0.67.72,1,0.5,0.68.8,1a21.18,21.18,0,0,0,1.73,1.79c0.59,0.54,1.18,1,1.71,1.47C255,58.78,255.82,59.35,255.82,59.35Z"/><path class="cls-11" d="M270.3,43.41s0-.32,0-0.88c0-.28-0.06-0.6-0.08-1s-0.13-.77-0.18-1.2-0.18-.9-0.35-1.37a12.65,12.65,0,0,0-.53-1.44,10,10,0,0,0-.75-1.4,10.24,10.24,0,0,0-1-1.28,8.69,8.69,0,0,0-1.19-1,10.08,10.08,0,0,0-1.32-.8c-0.49-.15-0.93-0.41-1.41-0.51l-0.7-.17a2.81,2.81,0,0,0-.67-0.14c-0.44,0-.85-0.12-1.22-0.18s-0.7,0-1-.06c-0.55,0-.87-0.09-0.87-0.09s0.28-.14.81-0.35c0.26-.1.58-0.23,1-0.35s0.82-.17,1.31-0.25a7.49,7.49,0,0,1,1.61-.05,9.86,9.86,0,0,1,1.83.3,8.28,8.28,0,0,1,1.84.85,8.41,8.41,0,0,1,1.64,1.33,9.28,9.28,0,0,1,1.18,1.71,4.5,4.5,0,0,1,.42.92,7.23,7.23,0,0,1,.31.92,8.91,8.91,0,0,1,.29,1.8,8.81,8.81,0,0,1,0,1.61,9.89,9.89,0,0,1-.25,1.33,7.38,7.38,0,0,1-.34,1C270.47,43.13,270.3,43.41,270.3,43.41Z"/><path class="cls-11" d="M251.74,62a2.23,2.23,0,0,1-.92.26,2.41,2.41,0,0,1-1.64-.48,2.37,2.37,0,0,1-.93-1.48,1.93,1.93,0,0,1,.05-1l0.29,0a6,6,0,0,1,.62.09,3,3,0,0,1,1.31.54,3.07,3.07,0,0,1,.91,1.14A4.26,4.26,0,0,1,251.74,62Z"/><rect class="cls-12" x="302.49" y="14.83" width="57.41" height="57.41" rx="2" ry="2"/><path class="cls-13" d="M324.58,47.41l0.16-.08,0.43-.21a6.58,6.58,0,0,0,1.25-.88,5.47,5.47,0,0,0,1.17-1.47,2.46,2.46,0,0,0,.36-1.54,0.91,0.91,0,0,0-.08-0.21,1.7,1.7,0,0,0-.29-0.28,1.41,1.41,0,0,0-.65-0.31,1.31,1.31,0,0,0-.75.14,3.14,3.14,0,0,0-.75.51,6.18,6.18,0,0,0-1,1.19,5.33,5.33,0,0,0-.34.54,4.41,4.41,0,0,1,0-.66,4.67,4.67,0,0,1,.46-1.73,3.66,3.66,0,0,1,.77-1,2.75,2.75,0,0,1,1.5-.73,3,3,0,0,1,1.83.36L329,41.24a1.86,1.86,0,0,1,.18.13l0.21,0.18a2.59,2.59,0,0,1,.62.94,3.17,3.17,0,0,1,.07,2,4.19,4.19,0,0,1-.76,1.5,4.56,4.56,0,0,1-2.27,1.56,3.81,3.81,0,0,1-1.86.1,2.39,2.39,0,0,1-.49-0.14Z"/><path class="cls-13" d="M323.43,39.4l0.14-.27a4.61,4.61,0,0,1,.48-0.75,6,6,0,0,1,2.65-1.89,5.49,5.49,0,0,1,2.29-.33,5.82,5.82,0,0,1,2.52.76,6.19,6.19,0,0,1,1.14.84,5.89,5.89,0,0,1,.93,1.1,5.65,5.65,0,0,1,.89,2.78,8,8,0,0,1-1.54,5.1,9.24,9.24,0,0,1-3.4,2.93,9.09,9.09,0,0,1-3,.91,8.27,8.27,0,0,1-.85.07h-0.3l0.29-.09a8.09,8.09,0,0,0,.79-0.28A10.49,10.49,0,0,0,329,48.9a9.39,9.39,0,0,0,2.6-3,7.53,7.53,0,0,0,.77-2,5.68,5.68,0,0,0,.15-2.11A4.36,4.36,0,0,0,331.9,40a3.61,3.61,0,0,0-.65-0.72,8.4,8.4,0,0,0-.78-0.54,5.13,5.13,0,0,0-1.69-.64,5.7,5.7,0,0,0-1.69,0,8.09,8.09,0,0,0-1.49.35,9.74,9.74,0,0,0-1.16.48c-0.31.16-.57,0.3-0.74,0.4Z"/><path class="cls-13" d="M321.21,35.38s0.14-.29.42-0.77l0.24-.39c0.1-.14.23-0.27,0.36-0.42a5.51,5.51,0,0,1,1-.95l0.62-.48c0.23-.14.47-0.27,0.73-0.42a9.9,9.9,0,0,1,1.68-.7,10.75,10.75,0,0,1,1.91-.36,11.42,11.42,0,0,1,2,0,11.63,11.63,0,0,1,2,.37,10.38,10.38,0,0,1,1.81.67,10.91,10.91,0,0,1,1.54.92,8.11,8.11,0,0,1,1.21,1.05c0.17,0.18.34,0.34,0.48,0.51l0.37,0.52a4.5,4.5,0,0,1,.53.88c0.25,0.51.35,0.81,0.35,0.81s-0.29-.17-0.73-0.48a8.78,8.78,0,0,0-.81-0.5,10.35,10.35,0,0,0-1.06-.57c-0.38-.21-0.83-0.36-1.27-0.55s-0.94-.33-1.43-0.49-1-.28-1.56-0.37-1.08-.16-1.62-0.24a15.85,15.85,0,0,0-1.63-.05c-0.54,0-1.06.07-1.58,0.09s-1,.13-1.46.28l-0.69.17-0.63.22a9.92,9.92,0,0,0-1.09.43l-0.47.2L322,35C321.5,35.24,321.21,35.38,321.21,35.38Z"/><path class="cls-13" d="M333.28,64.08s-0.34.07-.92,0.13-1.37.16-2.34,0.24a23.45,23.45,0,0,1-7.18-.5,14.62,14.62,0,0,1-2-.65,9.58,9.58,0,0,1-1.84-1,4.26,4.26,0,0,1-.81-0.64,8.35,8.35,0,0,1-.7-0.71,5.68,5.68,0,0,1-.92-1.61,6.93,6.93,0,0,1-.25-0.77l-0.06-.72c0-.22,0-0.42,0-0.61l0.09-.51a7.37,7.37,0,0,1,.23-0.91s0.17,0.32.4,0.83l0.18,0.41c0.1,0.14.19,0.28,0.29,0.43L317.75,58c0.13,0.15.28,0.29,0.42,0.43a5.72,5.72,0,0,0,1,.81c0.19,0.12.41,0.22,0.61,0.34l0.31,0.17,0.36,0.14c0.25,0.08.45,0.22,0.72,0.29l0.78,0.26c0.55,0.14,1.09.33,1.68,0.46s1.16,0.29,1.75.43,1.18,0.27,1.74.42c1.15,0.28,2.23.59,3.16,0.92a15.39,15.39,0,0,1,2.22,1C333,63.88,333.28,64.08,333.28,64.08Z"/><path class="cls-13" d="M340.94,39.07s0.27,0.36.67,1a6.73,6.73,0,0,1,.67,1.21c0.2,0.52.42,1.12,0.63,1.81a21.74,21.74,0,0,1,.29,2.24l-0.06,1.25,0,0.65-0.15.64c-0.1.43-.21,0.87-0.33,1.32s-0.34.85-.53,1.28a7.06,7.06,0,0,1-.64,1.24c-0.25.39-.47,0.82-0.75,1.18A16.13,16.13,0,0,1,338.87,55a17.52,17.52,0,0,1-2,1.7,18.76,18.76,0,0,1-2.11,1.26c-0.35.17-.69,0.34-1,0.49l-1,.36a12,12,0,0,1-1.78.49c-0.54.11-1,.14-1.41,0.18s-0.71,0-.91,0l-0.32,0,1.07-.53,1.15-.67c0.42-.3.92-0.57,1.42-1s1-.76,1.58-1.21,1.08-.95,1.66-1.43,1.11-1.05,1.61-1.66a21.22,21.22,0,0,0,1.48-1.81c0.25-.3.42-0.65,0.64-1a6.61,6.61,0,0,0,.58-1c0.17-.34.34-0.67,0.52-1s0.24-.69.38-1l0.2-.5,0.12-.51,0.25-1c0.1-.66.15-1.3,0.24-1.91s0-1.13,0-1.64a12.17,12.17,0,0,0-.15-1.36C341,39.51,340.94,39.07,340.94,39.07Z"/><path class="cls-13" d="M346.6,43.33s-0.2-.43-0.49-1.2a14,14,0,0,0-.54-1.35c-0.25-.49-0.46-1-0.77-1.63l-0.5-.9-0.25-.47-0.31-.46-0.62-.95c-0.22-.31-0.48-0.61-0.72-0.92a19.34,19.34,0,0,0-1.62-1.79,17.07,17.07,0,0,0-1.92-1.53l-0.5-.36-0.54-.3a9.42,9.42,0,0,0-1.07-.58c-0.37-.16-0.74-0.32-1.1-0.49s-0.75-.23-1.12-0.36a8.19,8.19,0,0,0-1.11-.28,7.18,7.18,0,0,0-1.09-.2,14.32,14.32,0,0,0-2.07-.17c-0.33,0-.64,0-0.94,0l-0.86.06c-0.27,0-.53,0-0.77.05l-0.65.1c-0.79.13-1.27,0.18-1.27,0.18s0.37-.28,1.07-0.73c0.18-.11.37-0.24,0.59-0.37s0.48-.21.75-0.33l0.87-.37c0.31-.12.65-0.18,1-0.27a11.16,11.16,0,0,1,1.12-.25l1.23-.12a7.6,7.6,0,0,1,1.32,0,8.09,8.09,0,0,1,1.38.14c0.46,0.08.93,0.19,1.41,0.29s0.93,0.32,1.39.49a9,9,0,0,1,1.36.64l0.67,0.36c0.21,0.14.42,0.28,0.62,0.43a13.24,13.24,0,0,1,1.2.92c0.37,0.34.72,0.69,1.08,1s0.63,0.76.93,1.13a7.18,7.18,0,0,1,.8,1.17c0.23,0.4.49,0.78,0.67,1.19l0.5,1.2a14.08,14.08,0,0,1,.66,2.26,14.23,14.23,0,0,1,.27,2,7.59,7.59,0,0,1,0,1.48C346.65,42.86,346.6,43.33,346.6,43.33Z"/><path class="cls-13" d="M329.88,26.19s-0.29.09-.81,0.2a6.83,6.83,0,0,0-.85.28c-0.3.08-.65,0.3-1,0.44s-0.75.41-1.16,0.62-0.82.48-1.23,0.78l-0.64.43-0.63.47c-0.43.31-.84,0.66-1.26,1s-0.83.7-1.21,1.07-0.76.73-1.13,1.09-0.69.73-1,1.07-0.63.68-.86,1-0.5.63-.68,0.92-0.39.53-.5,0.76c-0.25.44-.42,0.71-0.42,0.71a8,8,0,0,1-.05-0.84,4.73,4.73,0,0,1,.09-1,6.09,6.09,0,0,1,.3-1.23,9.6,9.6,0,0,1,.56-1.4,13.62,13.62,0,0,1,.86-1.43,12.06,12.06,0,0,1,1.12-1.39,14.4,14.4,0,0,1,1.32-1.28,14.88,14.88,0,0,1,1.49-1.08,10.87,10.87,0,0,1,1.58-.85,11.54,11.54,0,0,1,1.58-.58,10.19,10.19,0,0,1,1.5-.26,6.11,6.11,0,0,1,1.3,0,4.08,4.08,0,0,1,1,.17C329.6,26.07,329.88,26.19,329.88,26.19Z"/><path class="cls-13" d="M324.64,53.92l1.31-.19c0.4-.08.88-0.17,1.42-0.33a5.92,5.92,0,0,0,.84-0.27,8.67,8.67,0,0,0,.9-0.34,7.21,7.21,0,0,0,.93-0.45c0.32-.16.63-0.35,1-0.54a12.66,12.66,0,0,0,1.85-1.43,12.89,12.89,0,0,0,1.65-1.83,11.54,11.54,0,0,0,1.28-2.16,9.6,9.6,0,0,0,.77-2.35,8.21,8.21,0,0,0,.14-2.34,7.52,7.52,0,0,0-.52-2.13,7.92,7.92,0,0,0-1.05-1.74,5.64,5.64,0,0,0-.63-0.7,4.88,4.88,0,0,0-.64-0.59c-0.41-.37-0.83-0.64-1.16-0.88l-1.11-.7,0.34,0c0.22,0,.56.07,1,0.18a8.61,8.61,0,0,1,1.47.51,5.79,5.79,0,0,1,.87.44,5.56,5.56,0,0,1,.91.63,7.73,7.73,0,0,1,2.79,4.58,8.89,8.89,0,0,1,.07,3.09,10.45,10.45,0,0,1-.89,3,12.23,12.23,0,0,1-3.83,4.68,11.24,11.24,0,0,1-2.41,1.37,9.94,9.94,0,0,1-2.35.71,7,7,0,0,1-1.07.15,6.78,6.78,0,0,1-1,0,9.31,9.31,0,0,1-1.56-.14,8.92,8.92,0,0,1-1-.22Z"/><path class="cls-13" d="M317.7,46.1s-0.15-.18-0.37-0.5A3,3,0,0,1,317,45a7.48,7.48,0,0,1-.34-0.93,7.44,7.44,0,0,1-.17-1.15,5.55,5.55,0,0,1,.11-1.32,5.88,5.88,0,0,1,.43-1.36,7.06,7.06,0,0,1,.74-1.25,7.63,7.63,0,0,1,1-1.06,8,8,0,0,1,1.07-.84,7.57,7.57,0,0,1,1.09-.61,8.23,8.23,0,0,1,1-.4,7,7,0,0,1,1.63-.3c0.41,0,.63,0,0.63,0s-0.18.15-.49,0.38l-1.21,1a19.59,19.59,0,0,0-3,3.09,9,9,0,0,0-.62.92,8.09,8.09,0,0,0-.46,1,7.33,7.33,0,0,0-.33,1c-0.09.32-.12,0.63-0.2,0.92s0,0.56-.08.81a6.31,6.31,0,0,0,0,.7C317.72,45.87,317.7,46.1,317.7,46.1Z"/><path class="cls-13" d="M324.1,50.75s-0.2,0-.53,0A2.7,2.7,0,0,1,323,50.7a3.68,3.68,0,0,1-.78-0.2,4.09,4.09,0,0,1-1.77-1.13,3.73,3.73,0,0,1-.7-1.09,5.4,5.4,0,0,1-.21-0.64l-0.1-.66a5.23,5.23,0,0,1,.11-1.27,5.62,5.62,0,0,1,.35-1.11,6.84,6.84,0,0,1,.5-0.92,6,6,0,0,1,.55-0.73,5.93,5.93,0,0,1,1-.95c0.26-.2.43-0.31,0.43-0.31s0,0.2-.07.52-0.15.77-.27,1.28c-0.07.25-.1,0.53-0.18,0.81s-0.11.57-.18,0.86-0.1.59-.12,0.87a6.53,6.53,0,0,0,0,.83,4.59,4.59,0,0,0,.12.74,3.57,3.57,0,0,0,.28.68,3.94,3.94,0,0,0,.42.64,5.93,5.93,0,0,0,.5.58c0.35,0.35.65,0.66,0.91,0.89S324.1,50.75,324.1,50.75Z"/><path class="cls-13" d="M321.14,26.35s0.26-.35.75-0.91c0.13-.14.25-0.3,0.41-0.46s0.37-.31.58-0.48l0.68-.55c0.25-.19.53-0.32,0.81-0.49s0.59-.35.91-0.51,0.68-.27,1-0.41a13.65,13.65,0,0,1,2.32-.67c0.41-.07.84-0.12,1.27-0.17l0.65-.08h0.66c0.44,0,.89,0,1.34,0l1.34,0.15a11,11,0,0,1,1.32.27,8.38,8.38,0,0,1,1.29.37c0.42,0.15.83,0.31,1.23,0.47l1.15,0.6a6,6,0,0,1,1.06.67c0.33,0.25.66,0.47,0.95,0.73a9.65,9.65,0,0,1,1.48,1.61l0.56,0.78c0.16,0.26.27,0.54,0.39,0.78a5.1,5.1,0,0,1,.49,1.3c0.18,0.75.25,1.16,0.25,1.16s-0.28-.35-0.69-0.95a6.93,6.93,0,0,0-.84-1c-0.17-.18-0.33-0.38-0.54-0.56l-0.66-.55a15.32,15.32,0,0,0-1.54-1.09c-0.28-.18-0.61-0.31-0.91-0.48a7.41,7.41,0,0,0-1-.46l-1-.41q-0.55-.14-1.09-0.32a9.23,9.23,0,0,0-1.12-.27,9.34,9.34,0,0,0-1.14-.21l-1.16-.15L331.2,24a22,22,0,0,0-2.27,0c-0.72.13-1.45,0.11-2.11,0.29-0.33.07-.66,0.14-1,0.19s-0.61.17-.9,0.26a11.61,11.61,0,0,0-1.55.53l-0.66.25c-0.2.09-.38,0.2-0.55,0.28C321.53,26.17,321.14,26.35,321.14,26.35Z"/><path class="cls-13" d="M315.74,45.4s0.09,0.33.19,0.91a6.54,6.54,0,0,0,.26,1,10.58,10.58,0,0,0,.43,1.17c0.14,0.43.44,0.84,0.64,1.3a15.29,15.29,0,0,0,.89,1.32c0.18,0.21.32,0.45,0.51,0.65s0.39,0.41.57,0.62,0.43,0.38.63,0.58a4.22,4.22,0,0,0,.66.54,12.19,12.19,0,0,0,1.41.95,11.77,11.77,0,0,0,1.5.68l0.75,0.27L325,55.54a3.21,3.21,0,0,0,.73.14l0.7,0.1c0.46,0.05.88,0,1.27,0a7.3,7.3,0,0,0,1,0c0.57,0,.92,0,0.92,0s-0.26.2-.77,0.52a4.43,4.43,0,0,1-1,.5,8.06,8.06,0,0,1-3.06.66l-1,0c-0.32,0-.65-0.11-1-0.16a4.43,4.43,0,0,1-1-.27c-0.33-.12-0.67-0.23-1-0.38A10.34,10.34,0,0,1,319,55.45,10.12,10.12,0,0,1,317.45,54a9.81,9.81,0,0,1-1.16-1.72,10.18,10.18,0,0,1-.75-1.77,9.15,9.15,0,0,1-.31-1.69,6,6,0,0,1,0-1.45,4.3,4.3,0,0,1,.19-1.07C315.61,45.72,315.74,45.4,315.74,45.4Z"/><path class="cls-13" d="M332.61,61.55s0.36-.1,1-0.23l1.05-.33c0.4-.18.85-0.31,1.31-0.54a17.19,17.19,0,0,0,5.79-4.34l0.62-.75,0.55-.8c0.39-.51.63-1.11,1-1.63s0.53-1.11.72-1.65,0.41-1.06.54-1.57,0.26-1,.38-1.39l0.23-1.11c0.14-.62.24-1,0.24-1s0.11,0.35.26,1a11,11,0,0,1,.23,1.16c0,0.45.08,1,.09,1.54a14.32,14.32,0,0,1-.14,1.84,17.08,17.08,0,0,1-.49,2l-0.43,1-0.22.53-0.29.5c-0.2.33-.39,0.67-0.61,1l-0.73.93a8.93,8.93,0,0,1-.81.85,7.21,7.21,0,0,1-.87.77c-0.31.23-.61,0.47-0.92,0.68l-1,.56a7.9,7.9,0,0,1-1,.46,6.74,6.74,0,0,1-1,.36c-0.32.09-.63,0.19-0.93,0.26l-0.89.15a9.52,9.52,0,0,1-1.56.1c-0.48,0-.89-0.08-1.21-0.12C333,61.67,332.61,61.55,332.61,61.55Z"/><rect class="cls-10" x="163.43" y="154.28" width="57.41" height="57.41" rx="2" ry="2"/><path class="cls-11" d="M202.75,197.56a2,2,0,0,1-.37.26,3.82,3.82,0,0,1-1.26.43,8.26,8.26,0,0,1-4.72-.7,11.42,11.42,0,0,1-2.74-1.78,11.9,11.9,0,0,1-2.36-2.84,16.4,16.4,0,0,1-1.52-3.6c-0.19-.63-0.33-1.27-0.46-1.91a17.29,17.29,0,0,1-.29-2,7.35,7.35,0,0,1,.16-2.27,4.28,4.28,0,0,1,1.36-2.31,3.09,3.09,0,0,1,1.46-.68,2.87,2.87,0,0,1,.88,0h0l0.13,0h0l0.06,0,0.11,0a2.9,2.9,0,0,1,.39.15,3.63,3.63,0,0,1,1.8,2,13.23,13.23,0,0,1,.76,3.62,22.35,22.35,0,0,0,.44,2.85,16.24,16.24,0,0,0,.68,2.34,12.3,12.3,0,0,0,.81,1.73c0.27,0.47.51,0.82,0.68,1.07l0.27,0.37-0.4-.23a7.38,7.38,0,0,1-1.05-.8,9,9,0,0,1-1.38-1.55,13.07,13.07,0,0,1-1.32-2.37,20.34,20.34,0,0,1-1-3l-0.17-.81c0-.26-0.11-0.51-0.17-0.76a6.85,6.85,0,0,0-.48-1.37,1.45,1.45,0,0,0-.5-0.62s0.09,0,0,0l-0.11,0H192.4l0.11,0h0a0.62,0.62,0,0,0-.17.12,3.05,3.05,0,0,0-.55,2.33c0,0.48.14,1.15,0.22,1.71s0.21,1.16.33,1.72a13.94,13.94,0,0,0,1.06,3.15,10.61,10.61,0,0,0,1.67,2.57,10.9,10.9,0,0,0,2.08,1.87,9.63,9.63,0,0,0,2.14,1.08,7.43,7.43,0,0,0,1.84.41,4,4,0,0,0,1.23-.06A2.38,2.38,0,0,0,202.75,197.56Z"/><path class="cls-11" d="M200,187.54s-0.21-.64-0.47-1.78c-0.14-.57-0.28-1.26-0.45-2s-0.36-1.66-.65-2.54a6.92,6.92,0,0,0-1.3-2.44,5.65,5.65,0,0,0-1.08-.91c-0.12-.07-0.5-0.31-0.69-0.39a5.5,5.5,0,0,0-.66-0.26,5.39,5.39,0,0,0-3-.1,6.41,6.41,0,0,0-2.77,1.6,8.06,8.06,0,0,0-1.13,1.28c-0.07.1-.2,0.26-0.23,0.32l-0.26.41c-0.12.21-.24,0.43-0.35,0.69a9.26,9.26,0,0,0-.75,3.22,13.8,13.8,0,0,0,.24,3.25,16.82,16.82,0,0,0,.87,2.88,15.21,15.21,0,0,0,2.37,3.95c0.37,0.43.68,0.76,0.91,1L191,196l-0.44-.2a9.46,9.46,0,0,1-1.19-.69,12.25,12.25,0,0,1-3.41-3.62,13.36,13.36,0,0,1-1.45-3.08,12.52,12.52,0,0,1-.68-3.81,10.6,10.6,0,0,1,.71-4.22,10.13,10.13,0,0,1,.5-1.07l0.26-.43c0.13-.22.22-0.32,0.33-0.48a10.64,10.64,0,0,1,1.46-1.7,8.73,8.73,0,0,1,4-2.2,7.76,7.76,0,0,1,5.52.88,9.74,9.74,0,0,1,.84.56,6.45,6.45,0,0,1,1.42,1.52,7.71,7.71,0,0,1,1.22,3.38,17.14,17.14,0,0,1,.14,2.8c0,0.82-.05,1.52-0.09,2.11Z"/><path class="cls-11" d="M201.66,191.32s0.06-.66.21-1.79,0.39-2.75.62-4.66a26,26,0,0,0,.07-6.33,9.32,9.32,0,0,0-1-3.11,6.93,6.93,0,0,0-2.14-2.38,9.19,9.19,0,0,0-1.45-.85l-0.4-.17-0.36-.13a7.71,7.71,0,0,0-.79-0.23,12.72,12.72,0,0,0-3.36-.31,17.18,17.18,0,0,0-3.23.44,14.88,14.88,0,0,0-2.78,1,8.89,8.89,0,0,0-3.46,2.73,7.15,7.15,0,0,0-.66,1.11l-0.19.43,0-.47a5.74,5.74,0,0,1,.33-1.33,8.35,8.35,0,0,1,3.14-3.82,12.46,12.46,0,0,1,3-1.57,14.56,14.56,0,0,1,3.65-.9,13.4,13.4,0,0,1,4.11.12,10.32,10.32,0,0,1,1.07.26l0.55,0.19,0.49,0.2a11.81,11.81,0,0,1,1.92,1.09,9.07,9.07,0,0,1,2.92,3.39,10.81,10.81,0,0,1,1,4.08,16.17,16.17,0,0,1-.21,3.73,23.2,23.2,0,0,1-.73,3.16,40.41,40.41,0,0,1-1.63,4.49C201.95,190.73,201.66,191.32,201.66,191.32Z"/><path class="cls-11" d="M181.13,180.58s-0.07.52-.09,1.42a23.14,23.14,0,0,0,.17,3.65,17.54,17.54,0,0,0,1.28,4.82,13.38,13.38,0,0,0,1.31,2.42c0.27,0.38.55,0.76,0.84,1.12l0.23,0.27,0.09,0.1,0.13,0.14,0.53,0.56c0.35,0.38.68,0.63,1,1s0.72,0.62,1.12.87a19.19,19.19,0,0,0,2.35,1.46,19.91,19.91,0,0,0,2.39,1,17.14,17.14,0,0,0,2.27.62,15,15,0,0,0,2,.27,7.44,7.44,0,0,0,.85,0,4.69,4.69,0,0,0,.73,0,8,8,0,0,0,1-.12l0.37-.06-0.32.19a5.35,5.35,0,0,1-1,.48,7.66,7.66,0,0,1-1.62.48,10.27,10.27,0,0,1-2.2.21,12.26,12.26,0,0,1-2.62-.26,14,14,0,0,1-2.82-.86,14.9,14.9,0,0,1-2.79-1.5c-0.46-.29-0.87-0.66-1.31-1s-0.87-.78-1.21-1.16l-0.51-.57-0.13-.14c-0.1-.12-0.1-0.13-0.16-0.2l-0.25-.33a12.25,12.25,0,0,1-.92-1.37,14.42,14.42,0,0,1-2-8.38,15.7,15.7,0,0,1,.68-3.77A10.24,10.24,0,0,1,181.13,180.58Z"/><path class="cls-11" d="M177.88,189.59s0.13,0.36.31,1c0.09,0.31.2,0.7,0.3,1.14s0.35,0.86.51,1.35a14.54,14.54,0,0,0,.68,1.52,14.34,14.34,0,0,0,.89,1.59c0.33,0.53.75,1,1.14,1.54a15.7,15.7,0,0,0,1.38,1.4,17.31,17.31,0,0,0,1.54,1.26c0.56,0.35,1.08.76,1.65,1.06s1.1,0.62,1.64.89,1.06,0.51,1.54.72c1,0.41,1.83.72,2.44,0.91s1,0.29,1,.29l-0.26.07a5.26,5.26,0,0,1-.76.15,11,11,0,0,1-2.77,0,13.83,13.83,0,0,1-1.84-.33,13.57,13.57,0,0,1-2-.67,6.93,6.93,0,0,1-1-.47c-0.33-.18-0.68-0.35-1-0.56a13.46,13.46,0,0,1-1.88-1.44,12.84,12.84,0,0,1-1.61-1.76,9.81,9.81,0,0,1-.63-1,6.15,6.15,0,0,1-.54-1,10.68,10.68,0,0,1-.71-2,9.51,9.51,0,0,1-.31-1.87c0-.59,0-1.13,0-1.59s0.11-.84.16-1.17C177.79,190,177.88,189.59,177.88,189.59Z"/><path class="cls-11" d="M177.5,186.75s-0.21-.57-0.53-1.57c-0.13-.51-0.29-1.14-0.43-1.88a17.81,17.81,0,0,1-.26-2.5,15,15,0,0,1,.16-3,15.11,15.11,0,0,1,.85-3.31A15.57,15.57,0,0,1,179,171.2a17.36,17.36,0,0,1,2.58-2.85,17.9,17.9,0,0,1,3.21-2.1,15.7,15.7,0,0,1,3.48-1.22,14.27,14.27,0,0,1,3.41-.37,13.35,13.35,0,0,1,3,.37,11.3,11.3,0,0,1,2.41.88,8.76,8.76,0,0,1,1.66,1,6.38,6.38,0,0,1,.92.83l0.3,0.31-0.38-.2a9.71,9.71,0,0,0-1.09-.5,6.39,6.39,0,0,0-.79-0.29,8.88,8.88,0,0,0-.95-0.27,15.07,15.07,0,0,0-2.3-.35,15.88,15.88,0,0,0-5.64.73,18.18,18.18,0,0,0-2.93,1.24,15.71,15.71,0,0,0-2.68,1.85,15.35,15.35,0,0,0-3.9,5.05,19.07,19.07,0,0,0-1.05,2.82c-0.13.47-.25,0.93-0.33,1.38a12.31,12.31,0,0,0-.24,1.32c-0.13.85-.17,1.65-0.23,2.37l0,1.86C177.5,186.15,177.5,186.75,177.5,186.75Z"/><path class="cls-11" d="M181.16,165.6s0.44-.42,1.22-1.11l0.65-.57a9.66,9.66,0,0,1,.87-0.57,12.23,12.23,0,0,1,2.22-1.22l1.34-.57a12.76,12.76,0,0,1,1.5-.42,15.57,15.57,0,0,1,3.36-.5c0.59,0,1.19,0,1.81.06,0.31,0,.62,0,0.92.06L196,161a18.13,18.13,0,0,1,3.64,1.15l1.67,1a13.83,13.83,0,0,1,1.53,1.15c0.24,0.2.5,0.39,0.72,0.61l0.62,0.71a9.77,9.77,0,0,1,1.14,1.43c0.31,0.51.64,1,.92,1.51s0.43,1.05.63,1.55a12.59,12.59,0,0,1,.74,2.93,14.35,14.35,0,0,1,.13,2.52,8.43,8.43,0,0,1-.19,1.91c-0.18,1-.3,1.62-0.3,1.62s-0.09-.61-0.21-1.63a11.12,11.12,0,0,0-.28-1.82l-0.26-1.09a5.9,5.9,0,0,0-.33-1.18,16,16,0,0,0-1.06-2.5c-0.24-.41-0.44-0.86-0.71-1.27s-0.6-.8-0.9-1.21a7.77,7.77,0,0,0-1.05-1.13l-0.56-.56c-0.19-.18-0.42-0.32-0.62-0.49a11.35,11.35,0,0,0-1.3-.93l-1.42-.78a15.64,15.64,0,0,0-3.06-1l-0.78-.19c-0.26-.05-0.53-0.07-0.79-0.11-0.53-.05-1-0.16-1.56-0.17a20.19,20.19,0,0,0-3,.12c-0.48.07-1,.09-1.4,0.19l-1.29.3a16.92,16.92,0,0,0-2.23.69c-0.33.12-.65,0.21-0.94,0.34l-0.78.38C181.71,165.36,181.16,165.6,181.16,165.6Z"/><path class="cls-11" d="M207.3,181.45s0.09,0.28.2,0.76a10.56,10.56,0,0,1,.28,2,14.43,14.43,0,0,1-.16,2.92,14.9,14.9,0,0,1-.38,1.62,12.7,12.7,0,0,1-.6,1.62,12.52,12.52,0,0,1-.82,1.54,11,11,0,0,1-1,1.35,9.12,9.12,0,0,1-1.14,1.1,7.33,7.33,0,0,1-1.17.8,7,7,0,0,1-1.07.52c-0.33.12-.63,0.2-0.87,0.26-0.5.09-.78,0.11-0.78,0.11s0.22-.2.59-0.5L201,195c0.22-.25.48-0.48,0.73-0.79s0.51-.62.79-1,0.52-.73.77-1.14,0.49-.83.74-1.26,0.47-.88.66-1.36,0.4-.94.59-1.4l0.51-1.4c0.13-.47.32-0.91,0.43-1.35s0.26-.85.36-1.24,0.21-.74.3-1.06l0.23-.85C207.19,181.72,207.3,181.45,207.3,181.45Z"/><path class="cls-11" d="M194.23,204.22s1-.27,2.23-0.68c0.64-.23,1.36-0.46,2.09-0.78,0.37-.15.72-0.34,1.09-0.51s0.73-.37,1-0.62l0.51-.33,0.46-.38a7.76,7.76,0,0,0,.86-0.79,7.62,7.62,0,0,0,.74-0.84,6.3,6.3,0,0,0,.62-0.83c0.17-.28.4-0.51,0.51-0.76s0.26-.45.37-0.63c0.22-.35.37-0.56,0.37-0.56s0,0.24.05,0.67c0,0.21,0,.48,0,0.78a4.47,4.47,0,0,1-.16,1,4.57,4.57,0,0,1-.35,1.17,5.84,5.84,0,0,1-.65,1.22,6,6,0,0,1-1,1.15c-0.19.17-.37,0.36-0.57,0.53l-0.64.44a8.48,8.48,0,0,1-1.36.71,9.42,9.42,0,0,1-1.4.43,8.59,8.59,0,0,1-2.53.18A6.51,6.51,0,0,1,194.23,204.22Z"/><rect class="cls-10" x="337.14" y="84.57" width="57.41" height="57.41" rx="2" ry="2"/><path class="cls-11" d="M376.46,127.84a2,2,0,0,1-.37.26,3.83,3.83,0,0,1-1.26.43,8.26,8.26,0,0,1-4.72-.7,11.43,11.43,0,0,1-2.74-1.78,11.9,11.9,0,0,1-2.36-2.84,16.38,16.38,0,0,1-1.52-3.6c-0.19-.63-0.33-1.27-0.46-1.91a17.29,17.29,0,0,1-.29-2,7.35,7.35,0,0,1,.16-2.27,4.28,4.28,0,0,1,1.36-2.31,3.09,3.09,0,0,1,1.46-.68,2.87,2.87,0,0,1,.88,0h0l0.13,0h0l0.05,0,0.11,0a2.93,2.93,0,0,1,.39.15,3.63,3.63,0,0,1,1.8,2,13.22,13.22,0,0,1,.76,3.62,22.44,22.44,0,0,0,.44,2.85,16.24,16.24,0,0,0,.68,2.34,12.3,12.3,0,0,0,.81,1.73c0.27,0.47.51,0.82,0.68,1.07l0.27,0.37-0.4-.23a7.38,7.38,0,0,1-1.05-.8,9,9,0,0,1-1.38-1.55,13.07,13.07,0,0,1-1.32-2.37,20.34,20.34,0,0,1-1-3l-0.17-.81c0-.26-0.11-0.51-0.17-0.76a6.85,6.85,0,0,0-.48-1.37,1.46,1.46,0,0,0-.5-0.62s0.09,0,0,0l-0.11,0H366.1l0.11,0h0a0.62,0.62,0,0,0-.17.12,3.05,3.05,0,0,0-.55,2.33c0,0.48.14,1.15,0.22,1.71s0.21,1.16.33,1.72a14,14,0,0,0,1.06,3.15,10.61,10.61,0,0,0,1.67,2.57,10.88,10.88,0,0,0,2.08,1.87,9.64,9.64,0,0,0,2.14,1.08,7.43,7.43,0,0,0,1.84.41A4,4,0,0,0,376,128,2.38,2.38,0,0,0,376.46,127.84Z"/><path class="cls-11" d="M373.73,117.83s-0.21-.64-0.47-1.78c-0.14-.57-0.28-1.26-0.45-2s-0.36-1.66-.65-2.54a6.92,6.92,0,0,0-1.3-2.44,5.66,5.66,0,0,0-1.08-.91c-0.12-.07-0.5-0.31-0.69-0.39a5.49,5.49,0,0,0-.66-0.26,5.39,5.39,0,0,0-3-.1,6.4,6.4,0,0,0-2.77,1.6,8.06,8.06,0,0,0-1.13,1.28c-0.07.1-.2,0.26-0.23,0.32L361,111c-0.12.21-.24,0.43-0.35,0.69a9.26,9.26,0,0,0-.75,3.22,13.83,13.83,0,0,0,.24,3.25A16.78,16.78,0,0,0,361,121a15.21,15.21,0,0,0,2.37,3.95c0.37,0.43.68,0.76,0.91,1l0.35,0.33-0.44-.2a9.46,9.46,0,0,1-1.19-.69,12.24,12.24,0,0,1-3.41-3.62,13.34,13.34,0,0,1-1.45-3.08,12.53,12.53,0,0,1-.68-3.81,10.61,10.61,0,0,1,.71-4.22,10.24,10.24,0,0,1,.5-1.07l0.25-.43c0.13-.22.22-0.32,0.33-0.48a10.65,10.65,0,0,1,1.46-1.7,8.73,8.73,0,0,1,4-2.2,7.75,7.75,0,0,1,5.52.88,9.59,9.59,0,0,1,.84.56,6.44,6.44,0,0,1,1.42,1.52,7.71,7.71,0,0,1,1.22,3.38,17.14,17.14,0,0,1,.14,2.8c0,0.82-.05,1.52-0.09,2.11Z"/><path class="cls-11" d="M375.37,121.61s0.06-.66.21-1.79,0.39-2.75.62-4.66a26,26,0,0,0,.07-6.33,9.32,9.32,0,0,0-1-3.11,6.93,6.93,0,0,0-2.14-2.38,9.21,9.21,0,0,0-1.45-.85l-0.4-.17-0.36-.13a7.66,7.66,0,0,0-.79-0.23,12.72,12.72,0,0,0-3.36-.31,17.17,17.17,0,0,0-3.23.44,14.88,14.88,0,0,0-2.78,1,8.89,8.89,0,0,0-3.46,2.73,7.18,7.18,0,0,0-.66,1.11l-0.19.43,0-.47a5.76,5.76,0,0,1,.33-1.33,8.36,8.36,0,0,1,3.14-3.82,12.47,12.47,0,0,1,3-1.57,14.56,14.56,0,0,1,3.65-.9,13.39,13.39,0,0,1,4.11.12,10.3,10.3,0,0,1,1.07.26l0.55,0.19,0.49,0.2a11.81,11.81,0,0,1,1.92,1.09,9.07,9.07,0,0,1,2.92,3.39,10.8,10.8,0,0,1,1,4.08,16.17,16.17,0,0,1-.21,3.73,23.2,23.2,0,0,1-.73,3.16A40.41,40.41,0,0,1,376.1,120C375.65,121,375.37,121.61,375.37,121.61Z"/><path class="cls-11" d="M354.84,110.86s-0.07.52-.09,1.42a23.14,23.14,0,0,0,.17,3.65,17.5,17.5,0,0,0,1.28,4.82,13.38,13.38,0,0,0,1.31,2.42c0.27,0.38.54,0.76,0.84,1.12l0.23,0.27,0.09,0.1,0.13,0.14,0.53,0.56c0.35,0.38.68,0.63,1,1s0.72,0.62,1.12.87a19.19,19.19,0,0,0,2.35,1.46,19.88,19.88,0,0,0,2.39,1,17.12,17.12,0,0,0,2.27.62,15,15,0,0,0,2,.27,7.44,7.44,0,0,0,.85,0,4.69,4.69,0,0,0,.73,0,8,8,0,0,0,1-.12l0.37-.06-0.32.19a5.38,5.38,0,0,1-1,.48,7.66,7.66,0,0,1-1.62.48,10.28,10.28,0,0,1-2.2.21,12.27,12.27,0,0,1-2.62-.26,14,14,0,0,1-2.82-.86,14.91,14.91,0,0,1-2.79-1.5c-0.46-.29-0.87-0.66-1.31-1s-0.87-.78-1.21-1.16l-0.51-.57-0.13-.14c-0.1-.12-0.1-0.13-0.16-0.2l-0.25-.33a12.19,12.19,0,0,1-.92-1.37,14.43,14.43,0,0,1-2-8.38,15.72,15.72,0,0,1,.68-3.77A10.29,10.29,0,0,1,354.84,110.86Z"/><path class="cls-11" d="M351.59,119.87s0.13,0.36.31,1c0.09,0.31.2,0.7,0.3,1.14s0.35,0.86.51,1.35a19.26,19.26,0,0,0,1.58,3.1c0.33,0.53.75,1,1.14,1.54a15.69,15.69,0,0,0,1.38,1.4,17.39,17.39,0,0,0,1.54,1.26c0.56,0.35,1.08.76,1.65,1.06s1.1,0.62,1.64.89,1.06,0.51,1.54.72c1,0.41,1.83.72,2.44,0.91s1,0.29,1,.29l-0.26.07a5.27,5.27,0,0,1-.76.15,11,11,0,0,1-2.77,0,13.82,13.82,0,0,1-1.84-.33,13.56,13.56,0,0,1-2-.67,6.9,6.9,0,0,1-1-.47c-0.33-.18-0.68-0.35-1-0.56a13.46,13.46,0,0,1-1.88-1.44,12.84,12.84,0,0,1-1.61-1.76,9.81,9.81,0,0,1-.63-1,6.15,6.15,0,0,1-.54-1,10.65,10.65,0,0,1-.71-2,9.47,9.47,0,0,1-.31-1.87c0-.59,0-1.13,0-1.59s0.11-.84.16-1.17C351.5,120.24,351.59,119.87,351.59,119.87Z"/><path class="cls-11" d="M351.21,117s-0.21-.57-0.53-1.57c-0.13-.51-0.29-1.14-0.43-1.88a17.67,17.67,0,0,1-.26-2.5,16.35,16.35,0,0,1,1-6.33,15.62,15.62,0,0,1,1.73-3.27,17.39,17.39,0,0,1,2.58-2.85,17.9,17.9,0,0,1,3.21-2.1A15.71,15.71,0,0,1,362,95.32a14.27,14.27,0,0,1,3.41-.37,13.35,13.35,0,0,1,3,.37,11.3,11.3,0,0,1,2.41.88,8.74,8.74,0,0,1,1.66,1,6.39,6.39,0,0,1,.92.83l0.3,0.31-0.38-.2a9.68,9.68,0,0,0-1.09-.5,6.36,6.36,0,0,0-.79-0.29,8.92,8.92,0,0,0-.95-0.27,15.07,15.07,0,0,0-2.3-.35,15.88,15.88,0,0,0-5.64.73,18.18,18.18,0,0,0-2.93,1.24,15.7,15.7,0,0,0-2.68,1.85,15.35,15.35,0,0,0-3.9,5.05,19.07,19.07,0,0,0-1.05,2.82c-0.13.47-.25,0.93-0.33,1.38a12.19,12.19,0,0,0-.24,1.32c-0.13.85-.17,1.65-0.23,2.37l0,1.86C351.21,116.44,351.21,117,351.21,117Z"/><path class="cls-11" d="M354.86,95.88s0.44-.42,1.22-1.11l0.65-.57a9.75,9.75,0,0,1,.87-0.57,12.23,12.23,0,0,1,2.22-1.22l1.34-.57a12.72,12.72,0,0,1,1.5-.42,15.57,15.57,0,0,1,3.36-.5c0.59,0,1.19,0,1.81.06,0.31,0,.62,0,0.92.06l0.92,0.19a18.12,18.12,0,0,1,3.64,1.15l1.67,1a13.83,13.83,0,0,1,1.53,1.15c0.24,0.2.5,0.39,0.72,0.61l0.62,0.71A9.74,9.74,0,0,1,379,97.25c0.31,0.51.64,1,.92,1.51s0.43,1.05.63,1.55a12.59,12.59,0,0,1,.74,2.93,14.3,14.3,0,0,1,.13,2.52,8.46,8.46,0,0,1-.19,1.91c-0.18,1-.3,1.62-0.3,1.62s-0.09-.61-0.21-1.63a11.11,11.11,0,0,0-.28-1.82l-0.26-1.09a5.9,5.9,0,0,0-.33-1.18,16.06,16.06,0,0,0-1.06-2.5c-0.24-.41-0.44-0.86-0.71-1.27s-0.6-.8-0.9-1.21a7.79,7.79,0,0,0-1.05-1.13l-0.56-.56c-0.19-.18-0.42-0.32-0.62-0.49a11.31,11.31,0,0,0-1.3-.93l-1.42-.78a15.65,15.65,0,0,0-3.06-1l-0.78-.19c-0.26-.05-0.53-0.07-0.79-0.11-0.53-.05-1-0.16-1.56-0.17a20.19,20.19,0,0,0-3,.12c-0.48.07-1,.09-1.4,0.19l-1.3.3a17,17,0,0,0-2.23.69c-0.33.12-.65,0.21-0.94,0.34l-0.78.38C355.42,95.65,354.86,95.88,354.86,95.88Z"/><path class="cls-11" d="M381,111.74s0.09,0.28.2,0.76a10.56,10.56,0,0,1,.28,2,14.47,14.47,0,0,1-.16,2.92,14.9,14.9,0,0,1-.38,1.62,12.77,12.77,0,0,1-.6,1.62,12.59,12.59,0,0,1-.82,1.54,10.9,10.9,0,0,1-1,1.35,9.05,9.05,0,0,1-1.14,1.1,7.3,7.3,0,0,1-1.17.8,7,7,0,0,1-1.07.52c-0.33.12-.63,0.2-0.87,0.26-0.5.09-.78,0.11-0.78,0.11s0.22-.2.59-0.5l0.62-.58c0.22-.25.48-0.48,0.73-0.79s0.51-.62.79-1,0.52-.73.77-1.14,0.49-.83.74-1.26,0.47-.88.66-1.36,0.4-.94.59-1.4l0.51-1.4c0.13-.47.32-0.91,0.43-1.35s0.26-.85.36-1.24,0.21-.74.3-1.06l0.23-.85C380.9,112,381,111.74,381,111.74Z"/><path class="cls-11" d="M367.93,134.51s1-.27,2.23-0.68c0.64-.23,1.36-0.46,2.09-0.78,0.37-.15.72-0.34,1.09-0.51s0.73-.37,1-0.62l0.51-.33,0.46-.38a7.72,7.72,0,0,0,.86-0.79,7.57,7.57,0,0,0,.74-0.84,6.3,6.3,0,0,0,.62-0.83c0.17-.28.4-0.51,0.51-0.76s0.26-.45.37-0.63c0.22-.35.37-0.56,0.37-0.56s0,0.24.05,0.67c0,0.21,0,.48,0,0.78a4.47,4.47,0,0,1-.16,1,4.55,4.55,0,0,1-.35,1.17,5.84,5.84,0,0,1-.65,1.22,6,6,0,0,1-1,1.15c-0.19.17-.37,0.36-0.57,0.53l-0.64.44a8.47,8.47,0,0,1-1.36.71,9.44,9.44,0,0,1-1.4.43,8.59,8.59,0,0,1-2.53.18A6.51,6.51,0,0,1,367.93,134.51Z"/><rect class="cls-12" x="232.95" y="154.48" width="57.41" height="57.41" rx="2" ry="2"/><path class="cls-13" d="M259.81,187.06a2.74,2.74,0,0,1-.62-0.71,5.3,5.3,0,0,1-.8-2.35,5.78,5.78,0,0,1,.79-3.59,4.34,4.34,0,0,1,1.75-1.64,3.84,3.84,0,0,1,1.31-.39l0.23,0h0.38a3.08,3.08,0,0,1,.73.09A3.39,3.39,0,0,1,265.7,180a5.28,5.28,0,0,1,.68,2,7.88,7.88,0,0,1-.34,3.39,7.05,7.05,0,0,1-1,2.07,4.89,4.89,0,0,1-.57.64,8.07,8.07,0,0,0,.24-0.81,9.47,9.47,0,0,0,.26-2.1,8.09,8.09,0,0,0-.43-2.77,3.69,3.69,0,0,0-.64-1.18,1.09,1.09,0,0,0-.76-0.42h-0.25l-0.22,0c-0.06,0-.26.14-0.37,0.22a3.12,3.12,0,0,0-.74.76,9,9,0,0,0-1.06,2.25,13.82,13.82,0,0,0-.51,2C259.85,186.71,259.81,187.06,259.81,187.06Z"/><path class="cls-13" d="M256,185.63a4.09,4.09,0,0,1-.23-0.45,5.06,5.06,0,0,1-.38-1.43,10.39,10.39,0,0,1,.75-5.25,9.33,9.33,0,0,1,2-3.11,6.8,6.8,0,0,1,3.95-2,8.1,8.1,0,0,1,2.37.09,9,9,0,0,1,2.19.77l0.13,0.06,0.06,0,0.12,0.06,0.22,0.13a4.8,4.8,0,0,1,.52.34,6.36,6.36,0,0,1,1,.85,9,9,0,0,1,1.4,2,10.16,10.16,0,0,1,.14,8.87,13,13,0,0,1-5,5.6,10.42,10.42,0,0,1-2.77,1.14,8.42,8.42,0,0,1-2.28.21,7.5,7.5,0,0,1-1.43-.22l-0.49-.14,0.5,0a8,8,0,0,0,1.4-.09,8.94,8.94,0,0,0,4.36-2,12.63,12.63,0,0,0,3.88-5.34,9.17,9.17,0,0,0,.56-3.51,8.15,8.15,0,0,0-1-3.46,6.63,6.63,0,0,0-1-1.41,4.07,4.07,0,0,0-.6-0.52,3.33,3.33,0,0,0-.72-0.41,6.64,6.64,0,0,0-3.24-.68,5.15,5.15,0,0,0-2.76,1.17,8.79,8.79,0,0,0-1.94,2.28,12.29,12.29,0,0,0-1.68,4.47A5.61,5.61,0,0,0,256,185.63Z"/><path class="cls-13" d="M271.92,177.2s-0.18-.26-0.45-0.74a6.44,6.44,0,0,0-.51-0.82c-0.22-.29-0.4-0.62-0.7-1s-0.56-.71-0.91-1c-0.17-.17-0.34-0.36-0.52-0.53s-0.39-.34-0.58-0.51c-0.38-.36-0.84-0.65-1.27-1a14.71,14.71,0,0,0-1.42-.84,15.16,15.16,0,0,0-1.49-.7c-0.52-.17-1-0.38-1.52-0.5s-1-.23-1.47-0.34-0.94-.13-1.36-0.13a10.57,10.57,0,0,0-1.18,0,8,8,0,0,0-.94.09c-0.52.1-.85,0.14-0.85,0.14s0.23-.21.68-0.55a4.54,4.54,0,0,1,.88-0.51,5.79,5.79,0,0,1,1.25-.46,8.34,8.34,0,0,1,1.57-.27,9.68,9.68,0,0,1,1.79.06,10.43,10.43,0,0,1,1.87.4,11.42,11.42,0,0,1,1.82.78,11.29,11.29,0,0,1,1.66,1.08,9.42,9.42,0,0,1,.72.64,5.1,5.1,0,0,1,.65.68c0.2,0.24.4,0.47,0.57,0.71s0.31,0.5.46,0.74a7.33,7.33,0,0,1,.69,1.42,6.61,6.61,0,0,1,.38,1.28,4,4,0,0,1,.14,1C271.92,176.88,271.92,177.2,271.92,177.2Z"/><path class="cls-13" d="M260.6,195.34h0.34c0.22,0,.56,0,1,0a10,10,0,0,0,3.16-.78,11,11,0,0,0,1.83-1,12.77,12.77,0,0,0,1.76-1.56,16.19,16.19,0,0,0,1.56-2,15.79,15.79,0,0,0,1.29-2.29,16.91,16.91,0,0,0,1-2.45,18.36,18.36,0,0,0,.62-2.47c0.07-.41.1-0.78,0.15-1.22s0.06-.78.08-1.18c0-.77,0-1.51,0-2.2a18.53,18.53,0,0,0-.52-3.3c-0.21-.8-0.37-1.25-0.37-1.25l0.21,0.27a7.49,7.49,0,0,1,.56.81,12,12,0,0,1,1.38,3.26,14.25,14.25,0,0,1,.44,2.35c0,0.42.08,0.86,0.09,1.32a11.29,11.29,0,0,1,0,1.38,14.6,14.6,0,0,1-.5,2.86,19.17,19.17,0,0,1-1,2.8,18,18,0,0,1-1.54,2.57,13.39,13.39,0,0,1-2,2.17,10.11,10.11,0,0,1-4.58,2.41,8.23,8.23,0,0,1-3.59,0,5.87,5.87,0,0,1-.94-0.28Z"/><path class="cls-13" d="M250.14,179.58s0,0.58.08,1.56a33.55,33.55,0,0,0,.52,4,22.7,22.7,0,0,0,.63,2.57,16.75,16.75,0,0,0,1,2.69,14.42,14.42,0,0,0,1.52,2.58,13.36,13.36,0,0,0,2.1,2.22c0.87,0.78,1.65,1.42,2.49,2A26,26,0,0,0,261,199a22.45,22.45,0,0,0,2.57,1.26c0.85,0.35,1.69.61,2.48,0.87,1.59,0.47,3,.84,3.94,1.23a8.86,8.86,0,0,1,1.08.48l0.37,0.19-0.42,0c-0.27,0-.66,0-1.15-0.06-1,0-2.39,0-4.14-.13a17.72,17.72,0,0,1-2.84-.45,15.91,15.91,0,0,1-3.06-1.09,12.39,12.39,0,0,1-1.52-.79,16.54,16.54,0,0,1-1.47-.95,24.55,24.55,0,0,1-2.71-2.24,13.64,13.64,0,0,1-2.38-2.81,15.49,15.49,0,0,1-1.55-3.18,18.43,18.43,0,0,1-1-6,20.47,20.47,0,0,1,.44-4.18A12.35,12.35,0,0,1,250.14,179.58Z"/><path class="cls-13" d="M247.17,189.32s0.13,0.36.31,1c0.1,0.31.17,0.72,0.32,1.13s0.35,0.86.51,1.34l0.73,1.51c0.31,0.5.62,1,1,1.56a19.18,19.18,0,0,0,1.21,1.53l0.67,0.75,0.73,0.7c0.48,0.48,1,.89,1.54,1.32s1.07,0.81,1.62,1.15,1.09,0.67,1.6,1,1,0.58,1.51.78,0.93,0.43,1.33.58,0.77,0.27,1.08.37a6.13,6.13,0,0,0,.73.17l0.27,0.06-0.26.09a3.79,3.79,0,0,1-.76.2,6.34,6.34,0,0,1-1.23.09l-0.76,0-0.83-.11a13.36,13.36,0,0,1-1.84-.41,15.31,15.31,0,0,1-2-.77,14.41,14.41,0,0,1-2-1.11,15.69,15.69,0,0,1-1.85-1.47l-0.84-.84c-0.27-.29-0.5-0.62-0.75-0.92A12.61,12.61,0,0,1,248,197a17.3,17.3,0,0,1-.8-2c-0.15-.67-0.29-1.29-0.37-1.88s0-1.15-.05-1.62a7,7,0,0,1,.15-1.18C247.07,189.69,247.17,189.32,247.17,189.32Z"/><path class="cls-13" d="M246.77,186.1s-0.11-.59-0.27-1.62c-0.07-.52-0.18-1.14-0.25-1.86s0-1.57,0-2.49a19,19,0,0,1,.26-3c0-.26.06-0.53,0.11-0.8l0.2-.8c0.13-.55.29-1.09,0.45-1.66s0.45-1.1.68-1.66l0.36-.85,0.5-.8a13.26,13.26,0,0,1,1.07-1.57l1.28-1.46,1.53-1.21a16.63,16.63,0,0,1,1.68-1,8,8,0,0,1,1.78-.68,7.83,7.83,0,0,1,.9-0.26l0.91-.14a12.68,12.68,0,0,1,3.44-.05,13.71,13.71,0,0,1,2.94.71c0.44,0.16.86,0.3,1.24,0.46l1.05,0.56c0.33,0.18.63,0.34,0.91,0.5s0.5,0.36.71,0.51c0.85,0.63,1.3,1,1.3,1s-0.58-.19-1.54-0.55c-0.24-.09-0.5-0.2-0.79-0.29l-1-.26-1.08-.29-1.21-.2a18.85,18.85,0,0,0-2.69-.22c-0.47,0-1,.08-1.44.12a7.36,7.36,0,0,0-1.46.25l-0.74.17a5.9,5.9,0,0,0-.71.27l-0.71.29a2.74,2.74,0,0,0-.7.34,14.27,14.27,0,0,0-1.33.82l-1.22,1-1.08,1.18a10.87,10.87,0,0,0-.93,1.3l-0.45.66-0.36.71c-0.24.48-.5,0.93-0.71,1.41s-0.34,1-.53,1.45l-0.28.7c-0.08.24-.13,0.48-0.19,0.71L248,179l-0.19.66-0.11.64c-0.14.84-.3,1.63-0.45,2.33L247,184.47C246.87,185.51,246.77,186.1,246.77,186.1Z"/><path class="cls-13" d="M267.08,164.5s0.36,0.06,1,.21a8.45,8.45,0,0,1,1.11.37,11.26,11.26,0,0,1,1.38.66,11,11,0,0,1,1.5,1,12.68,12.68,0,0,1,1.49,1.4,13.81,13.81,0,0,1,1.32,1.75,16.5,16.5,0,0,1,1.09,2,18.15,18.15,0,0,1,.77,2.1,16.83,16.83,0,0,1,.5,2.09,19.81,19.81,0,0,1,.27,3.76c0,0.55-.07,1.05-0.11,1.49s-0.12.83-.17,1.14c-0.11.63-.2,1-0.2,1s-0.1-.36-0.24-1-0.34-1.49-.55-2.52c-0.13-.51-0.28-1.06-0.4-1.64l-0.52-1.79c-0.2-.61-0.38-1.24-0.63-1.86s-0.49-1.24-.75-1.87-0.57-1.21-.9-1.78-0.68-1.11-1-1.64-0.71-1-1.1-1.44-0.77-.83-1.11-1.22-0.71-.7-1-0.95-0.6-.53-0.86-0.7C267.37,164.73,267.08,164.5,267.08,164.5Z"/><path class="cls-13" d="M249.13,167.14s0.21-.39.61-1a7.1,7.1,0,0,1,.82-1.13l0.56-.68c0.21-.22.45-0.43,0.7-0.67a11.83,11.83,0,0,1,1.69-1.38,15,15,0,0,1,4.59-2.17,17.72,17.72,0,0,1,2.69-.54,16.4,16.4,0,0,1,2.76,0l0.68,0.05,0.66,0.14c0.44,0.11.87,0.17,1.28,0.31a11.42,11.42,0,0,1,2.29,1,9.77,9.77,0,0,1,1,.58l0.84,0.66a8.49,8.49,0,0,1,1.32,1.29,5.82,5.82,0,0,1,.85,1.12c0.42,0.66.63,1,.63,1s-0.37-.26-1-0.73a8,8,0,0,0-1.09-.78,12.54,12.54,0,0,0-1.47-.87,12.32,12.32,0,0,0-1.81-.79,16.4,16.4,0,0,0-2.09-.6c-0.36-.09-0.75-0.11-1.13-0.16a7.83,7.83,0,0,0-1.16-.1,11.59,11.59,0,0,0-1.19,0l-1.2.08a15.53,15.53,0,0,0-2.36.4,21.39,21.39,0,0,0-2.25.65c-0.36.12-.69,0.3-1,0.43a7.66,7.66,0,0,0-1,.44c-0.63.33-1.24,0.61-1.76,1l-0.77.47-0.66.47a11,11,0,0,0-1.09.81C249.48,166.87,249.13,167.14,249.13,167.14Z"/><path class="cls-13" d="M254.18,185.75s0.17,0.18.44,0.51c0.13,0.17.29,0.37,0.46,0.61s0.42,0.42.62,0.66a5.26,5.26,0,0,0,.74.66,5,5,0,0,0,.85.57,3.76,3.76,0,0,0,.47.19,1.34,1.34,0,0,0,.48.13,3.57,3.57,0,0,0,1,.06l0.49-.09c0.16,0,.32-0.12.48-0.16a2.68,2.68,0,0,0,.45-0.22,1.73,1.73,0,0,0,.42-0.28,3.55,3.55,0,0,0,1.21-1.46c0.06-.14.12-0.27,0.18-0.4l0.1-.39a2.53,2.53,0,0,0,.13-0.69c0-.4.06-0.66,0.06-0.66a6.17,6.17,0,0,1,.37.57,2.07,2.07,0,0,1,.29.76c0,0.16.08,0.33,0.12,0.51s0,0.37,0,.58a4.19,4.19,0,0,1-.27,1.32,4.85,4.85,0,0,1-.83,1.29,2.73,2.73,0,0,1-.6.56,3.35,3.35,0,0,1-.71.46,6.39,6.39,0,0,1-.8.34l-0.87.18a4.73,4.73,0,0,1-1.76-.19c-0.14,0-.28-0.07-0.42-0.13l-0.37-.2a3.92,3.92,0,0,1-.7-0.44,4.86,4.86,0,0,1-1-1.1,4.34,4.34,0,0,1-.59-1.13,6.46,6.46,0,0,1-.31-1c0-.29-0.06-0.55-0.08-0.76C254.18,186,254.18,185.75,254.18,185.75Z"/><path class="cls-13" d="M265.39,198.81l0.22-.08a5.8,5.8,0,0,0,.59-0.22c0.24-.09.53-0.23,0.86-0.39s0.68-.37,1.07-0.56,0.79-.46,1.19-0.75,0.81-.6,1.25-0.9,0.83-.68,1.21-1.08a13.79,13.79,0,0,0,1.12-1.21c0.34-.43.67-0.88,1-1.33a13.77,13.77,0,0,0,.79-1.4c0.12-.24.23-0.47,0.35-0.7s0.19-.47.28-0.7a12.3,12.3,0,0,0,.48-1.33l0.37-1.17c0.07-.36.16-0.67,0.23-0.93,0.14-.52.24-0.83,0.24-0.83s0.09,0.3.2,0.84c0.05,0.27.13,0.6,0.18,1a12.3,12.3,0,0,1,0,1.3c0,0.24,0,.5,0,0.76l-0.12.8c0,0.28-.08.56-0.14,0.85s-0.17.57-.27,0.87a9.57,9.57,0,0,1-.76,1.75,12,12,0,0,1-1.11,1.64,10.88,10.88,0,0,1-1.4,1.4,11,11,0,0,1-1.55,1.11,11.42,11.42,0,0,1-1.6.75,9.5,9.5,0,0,1-1.5.46,8.48,8.48,0,0,1-1.31.18,5.56,5.56,0,0,1-1,0,3.24,3.24,0,0,1-.64-0.09Z"/><path class="cls-13" d="M252.92,182.86s-0.17-.28-0.41-0.78a7.31,7.31,0,0,1-.34-1,9.74,9.74,0,0,1-.25-1.33,8.77,8.77,0,0,1,0-1.61,8.88,8.88,0,0,1,.29-1.8,7.15,7.15,0,0,1,.31-0.92,4.53,4.53,0,0,1,.42-0.92,9.28,9.28,0,0,1,1.19-1.71,8.41,8.41,0,0,1,1.64-1.33,8.28,8.28,0,0,1,1.84-.85,9.86,9.86,0,0,1,1.83-.3,7.49,7.49,0,0,1,1.61.05c0.49,0.07.93,0.16,1.31,0.25s0.7,0.25,1,.35c0.52,0.21.81,0.35,0.81,0.35s-0.33,0-.87.09c-0.27,0-.6,0-1,0.06s-0.78.13-1.22,0.18a2.82,2.82,0,0,0-.67.14l-0.7.17c-0.48.1-.92,0.36-1.41,0.51a10.05,10.05,0,0,0-1.32.8,8.72,8.72,0,0,0-1.19,1,10.29,10.29,0,0,0-1,1.28,10,10,0,0,0-.75,1.4,12.64,12.64,0,0,0-.52,1.44c-0.16.47-.22,0.94-0.35,1.37s-0.15.85-.18,1.2-0.08.68-.08,1C252.94,182.54,252.92,182.86,252.92,182.86Z"/><path class="cls-13" d="M270.48,200.47s0.13-.09.37-0.22,0.54-.3.89-0.48,0.71-.4,1.07-0.62l0.53-.34c0.16-.13.35-0.24,0.51-0.38s0.33-.28.51-0.4,0.34-.28.49-0.44l1-.86c0.3-.27.58-0.5,0.78-0.66s0.35-.25.35-0.25a3.6,3.6,0,0,1,.06.43,3.74,3.74,0,0,1-.06,1.09,4.29,4.29,0,0,1-.52,1.46,4.68,4.68,0,0,1-.51.74,5,5,0,0,1-.69.66,4.25,4.25,0,0,1-1.71.81,3.85,3.85,0,0,1-1.6,0,3.74,3.74,0,0,1-1.05-.34C270.61,200.56,270.48,200.47,270.48,200.47Z"/><path class="cls-14" d="M304.49,154.28h53.09a2.31,2.31,0,0,1,2.31,2.31v52.78a2.31,2.31,0,0,1-2.31,2.31H304.8a2.31,2.31,0,0,1-2.31-2.31V156.28a2,2,0,0,1,2-2Z"/><rect class="cls-10" x="267.83" y="84.46" width="57.41" height="57.41" rx="2" ry="2"/><path class="cls-15" d="M331.48,188.92a2.54,2.54,0,0,1-.69-0.38,4.17,4.17,0,0,1-.69-0.6,5.83,5.83,0,0,1-.72-0.95,6,6,0,0,1-.86-2.91,5.2,5.2,0,0,1,.28-1.86,4.06,4.06,0,0,1,1.22-1.75,3.79,3.79,0,0,1,.46-0.31l0.15-.09,0.09,0,0.17-.09a4.44,4.44,0,0,1,1-.35,3.24,3.24,0,0,1,3.49,1.35,4.51,4.51,0,0,1,.63,1.3,5.55,5.55,0,0,1,.23,2,4.55,4.55,0,0,1-.12.74s-0.09-.26-0.27-0.67a7.38,7.38,0,0,0-.9-1.54,4.27,4.27,0,0,0-.74-0.77,2,2,0,0,0-.87-0.4,1.49,1.49,0,0,0-.83.13,2.69,2.69,0,0,0-.42.23l-0.16.11-0.08.05s0,0,0,0a1.67,1.67,0,0,0-.15.16,3.43,3.43,0,0,0-.68,1.86,10.88,10.88,0,0,0,0,2.26c0,0.36.09,0.68,0.13,1s0.11,0.56.16,0.79C331.4,188.63,331.48,188.92,331.48,188.92Z"/><path class="cls-15" d="M327.17,187.47l-0.3-.3a4.37,4.37,0,0,1-.67-1.06,9.25,9.25,0,0,1-.69-4.42,11.32,11.32,0,0,1,.62-3,9,9,0,0,1,1.83-3.07,6.78,6.78,0,0,1,5.59-2.15c0.35,0,.65.07,1,0.16l0.43,0.1,0.55,0.17a7.24,7.24,0,0,1,1.88,1,7.42,7.42,0,0,1,1.42,1.51,8.79,8.79,0,0,1,1.44,3.55,12.65,12.65,0,0,1-.6,6.33,13.08,13.08,0,0,1-2.13,3.83,10.67,10.67,0,0,1-.82.9l-0.3.3a14,14,0,0,0,.74-1.43,15.49,15.49,0,0,0,1.23-3.93,13.06,13.06,0,0,0,.21-2.67,10.53,10.53,0,0,0-.39-2.87,7.27,7.27,0,0,0-1.27-2.6,4.91,4.91,0,0,0-2.22-1.56l-0.29-.09-0.43-.09c-0.18,0-.47-0.05-0.69-0.08a6.86,6.86,0,0,0-1.37.09,4.73,4.73,0,0,0-2.32,1.22,7.72,7.72,0,0,0-1.61,2.2,12,12,0,0,0-.93,2.44,11.23,11.23,0,0,0-.37,4A4.45,4.45,0,0,0,327.17,187.47Z"/><path class="cls-15" d="M340.57,173.91s-0.2-.21-0.51-0.59a4.35,4.35,0,0,0-.58-0.62,7.36,7.36,0,0,0-.76-0.67,8.61,8.61,0,0,0-1-.68,12.27,12.27,0,0,0-1.11-.62l-0.61-.28c-0.21-.09-0.43-0.15-0.64-0.24a4.73,4.73,0,0,0-.66-0.22c-0.23-.06-0.44-0.15-0.68-0.19-0.46-.11-0.92-0.21-1.38-0.27s-0.92-.1-1.38-0.16-0.9-.06-1.32,0a11.91,11.91,0,0,0-1.21,0c-0.38,0-.73.06-1.05,0.1a8.34,8.34,0,0,0-.84.12c-0.47.09-.76,0.12-0.76,0.12a7,7,0,0,1,.53-0.57,3.85,3.85,0,0,1,.7-0.57,5.11,5.11,0,0,1,1-.61l0.62-.3,0.69-.23A8.71,8.71,0,0,1,333,167a9.7,9.7,0,0,1,1.75.26,9.16,9.16,0,0,1,1.68.61,8,8,0,0,1,1.49.89,7.74,7.74,0,0,1,1.19,1.11,5.86,5.86,0,0,1,.81,1.2c0.1,0.2.21,0.38,0.29,0.57l0.18,0.56a2.94,2.94,0,0,1,.18.88C340.58,173.62,340.57,173.91,340.57,173.91Z"/><path class="cls-15" d="M331.45,195.49s0.49,0,1.33,0c0.42,0,.89-0.15,1.42-0.21,0.26-.06.54-0.18,0.82-0.27l0.44-.14,0.43-.22a9.08,9.08,0,0,0,1.74-1.13c0.27-.26.56-0.49,0.83-0.78s0.53-.58.78-0.9l0.73-1,0.67-1.09,0.6-1.16c0.17-.41.37-0.8,0.53-1.22a24,24,0,0,0,.84-2.51,19.34,19.34,0,0,0,.49-2.49c0-.42.09-0.78,0.11-1.22s0-.78,0-1.18c0-.78-0.05-1.51-0.13-2.2a19.7,19.7,0,0,0-.65-3.29c-0.24-.79-0.41-1.25-0.41-1.25a7.53,7.53,0,0,1,.87,1,11.88,11.88,0,0,1,1.63,3.19,13.86,13.86,0,0,1,.6,2.34c0.07,0.42.13,0.87,0.18,1.33a11.77,11.77,0,0,1,0,1.4,15.09,15.09,0,0,1-.34,2.93,19.14,19.14,0,0,1-.88,2.89c-0.2.47-.42,0.92-0.63,1.38s-0.5.88-.75,1.32-0.58.83-.86,1.23-0.65.75-1,1.11-0.71.66-1.07,1-0.78.53-1.14,0.78a8,8,0,0,1-2.34.95l-0.55.14-0.55,0c-0.36,0-.68,0-1,0a9.63,9.63,0,0,1-1.58-.27C331.9,195.68,331.45,195.49,331.45,195.49Z"/><path class="cls-15" d="M320.12,180.22a15.5,15.5,0,0,0,0,1.59,19.75,19.75,0,0,0,.51,4,16.35,16.35,0,0,0,.82,2.49,14.78,14.78,0,0,0,1.4,2.49,14.09,14.09,0,0,0,2,2.23c0.36,0.33.83,0.7,1.26,1s0.87,0.65,1.32,1a29.64,29.64,0,0,0,2.77,1.78c1,0.53,1.89,1.06,2.84,1.52l2.77,1.31c0.9,0.4,1.75.81,2.53,1.21a12.67,12.67,0,0,1,3.56,2.43,5,5,0,0,1,.73,1l0.19,0.38-0.3-.29a6.73,6.73,0,0,0-.94-0.66,17.31,17.31,0,0,0-3.78-1.46c-0.82-.24-1.72-0.49-2.67-0.79s-2-.61-3-1A30.43,30.43,0,0,1,329,199a32.1,32.1,0,0,1-3.06-1.85c-0.49-.35-1-0.71-1.44-1.1s-0.88-.73-1.35-1.17a12.94,12.94,0,0,1-4-8.83,13.65,13.65,0,0,1,.45-4.29A9,9,0,0,1,320.12,180.22Z"/><path class="cls-15" d="M317.75,191.08s0.14,0.38.35,1c0.14,0.32.26,0.69,0.47,1.1a12.88,12.88,0,0,0,.73,1.33,13.42,13.42,0,0,0,1.06,1.39,13,13,0,0,0,1.39,1.34,17.07,17.07,0,0,0,1.67,1.23c0.59,0.4,1.23.75,1.87,1.1a41.39,41.39,0,0,0,4,1.81c1.31,0.53,2.58,1,3.67,1.38l2.68,1c0.65,0.24,1,.39,1,0.39a18.21,18.21,0,0,1-4,.09,23.44,23.44,0,0,1-4.07-.66,20.93,20.93,0,0,1-4.49-1.71,16.63,16.63,0,0,1-2.1-1.34,12.46,12.46,0,0,1-1.82-1.64A10.31,10.31,0,0,1,318.8,197a8.6,8.6,0,0,1-.83-1.88,8.62,8.62,0,0,1-.37-3c0-.35.08-0.62,0.11-0.81Z"/><path class="cls-15" d="M317.12,186.88s-0.2-.56-0.51-1.54c-0.14-.49-0.36-1.08-0.51-1.78s-0.24-1.54-.35-2.45a21.12,21.12,0,0,1,0-2.94,10,10,0,0,1,.21-1.61c0.1-.55.19-1.11,0.34-1.67a16.38,16.38,0,0,1,1.37-3.33,17.5,17.5,0,0,1,2.15-3.08l1.4-1.28a12.77,12.77,0,0,1,1.53-1.09c0.26-.17.51-0.36,0.79-0.5l0.84-.37a9.26,9.26,0,0,1,1.68-.64c0.57-.14,1.12-0.33,1.68-0.42l1.65-.15a3.31,3.31,0,0,1,.79,0l0.77,0.05a7.49,7.49,0,0,1,1.43.19,10.29,10.29,0,0,1,2.38.75,8.14,8.14,0,0,1,1.68.88c0.86,0.61,1.32,1,1.32,1s-0.58-.17-1.53-0.5a10.76,10.76,0,0,0-1.75-.4,13.36,13.36,0,0,0-2.26-.22,6.31,6.31,0,0,0-1.28.06,8.22,8.22,0,0,0-1.35.15l-1.39.31-1.4.49a7.34,7.34,0,0,0-1.37.65,8,8,0,0,0-1.33.8,10.32,10.32,0,0,0-1.26.94l-1.15,1.09a15,15,0,0,0-1.87,2.56,18.88,18.88,0,0,0-1.37,2.79c-0.18.48-.27,1-0.43,1.45a8.56,8.56,0,0,0-.37,1.41c-0.08.47-.14,0.93-0.22,1.38a7.39,7.39,0,0,0-.18,1.3c0,0.83-.1,1.61-0.16,2.31s0,1.33,0,1.85C317.13,186.29,317.12,186.88,317.12,186.88Z"/><path class="cls-15" d="M317.42,167.88l0.24-.43a9.27,9.27,0,0,1,.72-1.18,13.19,13.19,0,0,1,1.38-1.7,14,14,0,0,1,2.18-1.86,15.29,15.29,0,0,1,6.76-2.61,15.93,15.93,0,0,1,8.33,1.15,16,16,0,0,1,3.69,2.25,15.36,15.36,0,0,1,2.85,3,15.9,15.9,0,0,1,1.08,1.65c0.29,0.57.59,1.13,0.82,1.68a18.58,18.58,0,0,1,1.06,3.22c0.1,0.51.23,1,.3,1.46l0.16,1.33c0.08,0.83.08,1.57,0.1,2.16,0,1.2-.09,1.87-0.09,1.87s-0.17-.67-0.41-1.81l-0.56-2c-0.25-.77-0.53-1.63-0.9-2.54a26.92,26.92,0,0,0-1.37-2.81,19.77,19.77,0,0,0-2-2.8,16.32,16.32,0,0,0-2.61-2.47,15.7,15.7,0,0,0-6.7-2.9,17.24,17.24,0,0,0-3.58-.21,19.65,19.65,0,0,0-3.35.54,18.32,18.32,0,0,0-2.88,1.09,18.62,18.62,0,0,0-2.29,1.33,19.53,19.53,0,0,0-1.63,1.29c-0.44.37-.77,0.72-1,0.94Z"/><path class="cls-15" d="M323.5,186.25s0.21,0.21.52,0.59,0.77,0.85,1.32,1.39a11.1,11.1,0,0,0,2,1.5,6.92,6.92,0,0,0,2.41.9,4.88,4.88,0,0,0,2.38-.17,2.89,2.89,0,0,0,1.56-1.22,3.47,3.47,0,0,0,.34-0.86,5.42,5.42,0,0,0,.1-0.8c0-.47,0-0.77,0-0.77l0.14,0.16a2.85,2.85,0,0,1,.35.48,3.4,3.4,0,0,1,.38.88,3.26,3.26,0,0,1,.09,1.32,3.44,3.44,0,0,1-.58,1.56,4.38,4.38,0,0,1-1.37,1.28,5.73,5.73,0,0,1-3.81.67,6.78,6.78,0,0,1-3.35-1.61,7,7,0,0,1-1.82-2.49,6.62,6.62,0,0,1-.4-1.13,7.07,7.07,0,0,1-.18-0.9C323.5,186.54,323.5,186.25,323.5,186.25Z"/><path class="cls-15" d="M338.42,198.65l0.5-.45c0.31-.28.75-0.66,1.23-1.13s1-1,1.58-1.56a23.66,23.66,0,0,0,1.59-1.86c0.28-.3.47-0.67,0.74-1l0.67-1c0.22-.33.39-0.68,0.6-1s0.35-.64.52-0.93,0.35-.56.47-0.82,0.25-.47.35-0.66c0.21-.37.36-0.58,0.36-0.58a5.87,5.87,0,0,1,.15.66c0,0.21.08,0.48,0.11,0.78a5.38,5.38,0,0,1,0,1,6.62,6.62,0,0,1-.14,1.2,10.92,10.92,0,0,1-.36,1.31,11,11,0,0,1-.6,1.33,9.67,9.67,0,0,1-.83,1.26,8.61,8.61,0,0,1-1,1.11,8.39,8.39,0,0,1-1.14.91,8.64,8.64,0,0,1-2.3,1.11,7,7,0,0,1-1.77.31A3.35,3.35,0,0,1,338.42,198.65Z"/><path class="cls-15" d="M323.08,183.37s-0.19-.26-0.48-0.74a6.75,6.75,0,0,1-.43-1,8.21,8.21,0,0,1-.5-2.94,8.79,8.79,0,0,1,.18-1.83,6.69,6.69,0,0,1,.26-1l0.15-.48,0.22-.47a9.2,9.2,0,0,1,1.11-1.81,8.36,8.36,0,0,1,1.6-1.43,8.2,8.2,0,0,1,1.83-.94,9.9,9.9,0,0,1,1.84-.37,7.73,7.73,0,0,1,1.63,0c0.5,0.06.94,0.14,1.33,0.22s0.71,0.24,1,.34c0.53,0.2.82,0.34,0.82,0.34s-0.33.08-.87,0.16c-0.27,0-.6.1-1,0.13s-0.77.19-1.2,0.27a2.73,2.73,0,0,0-.65.18l-0.67.22c-0.47.12-.89,0.4-1.35,0.58a10.34,10.34,0,0,0-1.24.85,8.68,8.68,0,0,0-1.1,1.06,10.35,10.35,0,0,0-.87,1.29,10,10,0,0,0-.67,1.41c-0.08.24-.16,0.48-0.26,0.72s-0.12.48-.2,0.72c-0.15.47-.19,0.93-0.31,1.36s-0.12.85-.14,1.2-0.06.68-.05,1C323.1,183,323.08,183.37,323.08,183.37Z"/><path class="cls-15" d="M342.65,201.12s0-.13.05-0.31a5.26,5.26,0,0,1,.17-0.65,2.73,2.73,0,0,1,.79-1.22,2.65,2.65,0,0,1,1.3-.54l0.66-.08h0.32a2.2,2.2,0,0,1,.18,1,2.28,2.28,0,0,1-2.49,2.1,2.59,2.59,0,0,1-.69-0.17A1.7,1.7,0,0,1,342.65,201.12Z"/><rect class="cls-8" x="198.34" y="84.46" width="57.41" height="57.41" rx="2" ry="2"/><path class="cls-9" d="M216.43,127.7a2.4,2.4,0,0,0,.43.13,4,4,0,0,0,1.23.06,7.43,7.43,0,0,0,1.84-.41,9.63,9.63,0,0,0,2.14-1.08,10.9,10.9,0,0,0,2.08-1.87,10.61,10.61,0,0,0,1.67-2.57,13.94,13.94,0,0,0,1.06-3.15c0.13-.56.24-1.14,0.33-1.72s0.19-1.23.22-1.71a3.05,3.05,0,0,0-.55-2.33,0.15,0.15,0,0,0-.17,0s0,0.1,0,.1h0s-0.11-.09.11-0.13l0,0h-0.17c-0.12,0,0,0,0,0a1.43,1.43,0,0,0-.5.62,6.83,6.83,0,0,0-.48,1.37c-0.06.25-.12,0.5-0.17,0.76l-0.17.81a20.45,20.45,0,0,1-1,3,13.07,13.07,0,0,1-1.32,2.37,9,9,0,0,1-1.38,1.55,7.35,7.35,0,0,1-1.05.8l-0.4.23,0.27-.37c0.17-.24.41-0.6,0.68-1.07a12.25,12.25,0,0,0,.81-1.73,16.24,16.24,0,0,0,.68-2.34,22.44,22.44,0,0,0,.44-2.85,13.23,13.23,0,0,1,.76-3.62,3.63,3.63,0,0,1,1.8-2,2.9,2.9,0,0,1,.39-0.15l0.11,0,0.05,0h0l0.13,0h0a2.87,2.87,0,0,1,.88,0,3.09,3.09,0,0,1,1.46.68,4.28,4.28,0,0,1,1.36,2.31,7.32,7.32,0,0,1,.16,2.27,17.29,17.29,0,0,1-.29,2c-0.13.64-.27,1.28-0.46,1.91a16.4,16.4,0,0,1-1.52,3.6,11.89,11.89,0,0,1-2.36,2.84,11.41,11.41,0,0,1-2.74,1.78,8.26,8.26,0,0,1-4.72.7,3.83,3.83,0,0,1-1.26-.43A2,2,0,0,1,216.43,127.7Z"/><path class="cls-9" d="M219.15,117.69L219,115.85c0-.58-0.08-1.29-0.09-2.11a17.09,17.09,0,0,1,.14-2.8,7.71,7.71,0,0,1,1.22-3.38,6.46,6.46,0,0,1,1.42-1.52,9.67,9.67,0,0,1,.84-0.56,7.76,7.76,0,0,1,5.52-.88,8.73,8.73,0,0,1,4,2.2,10.65,10.65,0,0,1,1.46,1.7c0.11,0.17.2,0.27,0.33,0.48l0.25,0.43a10,10,0,0,1,.5,1.07,10.6,10.6,0,0,1,.71,4.22,12.53,12.53,0,0,1-.68,3.81,13.38,13.38,0,0,1-1.45,3.08,12.25,12.25,0,0,1-3.41,3.62,9.53,9.53,0,0,1-1.19.69l-0.44.2,0.35-.33c0.23-.21.54-0.55,0.91-1a15.21,15.21,0,0,0,2.37-3.95,16.82,16.82,0,0,0,.87-2.88,13.83,13.83,0,0,0,.24-3.25,9.27,9.27,0,0,0-.75-3.22c-0.11-.26-0.24-0.48-0.35-0.69l-0.26-.41c0-.06-0.16-0.22-0.23-0.32a8,8,0,0,0-1.13-1.28,6.4,6.4,0,0,0-2.77-1.6,5.39,5.39,0,0,0-3,.1,5.52,5.52,0,0,0-.66.26c-0.19.08-.58,0.33-0.69,0.39a5.68,5.68,0,0,0-1.08.91,6.91,6.91,0,0,0-1.3,2.44c-0.29.88-.47,1.76-0.65,2.54s-0.31,1.48-.45,2C219.36,117,219.15,117.69,219.15,117.69Z"/><path class="cls-9" d="M217.51,121.47s-0.29-.59-0.73-1.65a40.53,40.53,0,0,1-1.63-4.49,23.27,23.27,0,0,1-.73-3.16,16.15,16.15,0,0,1-.21-3.73,10.79,10.79,0,0,1,1-4.08,9.07,9.07,0,0,1,2.92-3.39,11.82,11.82,0,0,1,1.92-1.09l0.49-.2,0.55-.19a10.27,10.27,0,0,1,1.07-.26,13.39,13.39,0,0,1,4.11-.12,14.57,14.57,0,0,1,3.65.9,12.47,12.47,0,0,1,3,1.57,8.35,8.35,0,0,1,3.14,3.82,5.74,5.74,0,0,1,.33,1.33l0,0.47-0.19-.43a7.14,7.14,0,0,0-.66-1.11,8.89,8.89,0,0,0-3.46-2.73,14.86,14.86,0,0,0-2.78-1,17.17,17.17,0,0,0-3.23-.44,12.72,12.72,0,0,0-3.36.31,7.71,7.71,0,0,0-.79.23l-0.36.13-0.4.17a9.16,9.16,0,0,0-1.45.85,6.92,6.92,0,0,0-2.14,2.38,9.31,9.31,0,0,0-1,3.11,26,26,0,0,0,.07,6.33c0.23,1.91.47,3.52,0.62,4.66S217.51,121.47,217.51,121.47Z"/><path class="cls-9" d="M238,110.72a10.2,10.2,0,0,1,.52,1.34,15.69,15.69,0,0,1,.68,3.77,14.42,14.42,0,0,1-2,8.38,12.19,12.19,0,0,1-.92,1.37l-0.25.33-0.16.2-0.13.14-0.51.57c-0.35.38-.81,0.79-1.21,1.16s-0.85.7-1.31,1a14.9,14.9,0,0,1-2.79,1.5,14,14,0,0,1-2.82.86,12.26,12.26,0,0,1-2.62.26,10.28,10.28,0,0,1-2.2-.21,7.65,7.65,0,0,1-1.62-.48,5.36,5.36,0,0,1-1-.48l-0.32-.19,0.37,0.06a8,8,0,0,0,1,.12,4.68,4.68,0,0,0,.73,0,7.44,7.44,0,0,0,.85,0,15,15,0,0,0,2-.27,17.14,17.14,0,0,0,2.27-.62,19.87,19.87,0,0,0,2.39-1,19.12,19.12,0,0,0,2.35-1.46c0.4-.25.74-0.58,1.12-0.87s0.67-.58,1-1l0.53-.56,0.13-.14,0.09-.1,0.23-.27c0.3-.36.58-0.74,0.84-1.12a13.34,13.34,0,0,0,1.31-2.42,17.52,17.52,0,0,0,1.28-4.82,23.13,23.13,0,0,0,.16-3.65C238.11,111.24,238,110.72,238,110.72Z"/><path class="cls-9" d="M241.29,119.73s0.09,0.37.19,1c0,0.32.12,0.72,0.16,1.17s0,1,0,1.59a9.51,9.51,0,0,1-.31,1.87,10.71,10.71,0,0,1-.71,2,6.19,6.19,0,0,1-.54,1,9.73,9.73,0,0,1-.63,1,12.77,12.77,0,0,1-1.61,1.76,13.49,13.49,0,0,1-1.88,1.44c-0.33.21-.67,0.38-1,0.56a6.93,6.93,0,0,1-1,.47,13.57,13.57,0,0,1-2,.67,13.85,13.85,0,0,1-1.84.33,11,11,0,0,1-2.77,0,5.27,5.27,0,0,1-.76-0.15l-0.26-.07s0.37-.1,1-0.29,1.46-.5,2.44-0.91c0.49-.21,1-0.46,1.54-0.72s1.09-.55,1.64-0.89,1.09-.71,1.65-1.06a17.37,17.37,0,0,0,1.54-1.26,15.69,15.69,0,0,0,1.38-1.4c0.39-.51.81-1,1.14-1.54a19.2,19.2,0,0,0,1.58-3.1c0.16-.49.35-0.94,0.51-1.35s0.22-.82.3-1.14C241.16,120.09,241.29,119.73,241.29,119.73Z"/><path class="cls-9" d="M241.68,116.9s0-.6,0-1.66l0-1.86c-0.06-.71-0.1-1.51-0.23-2.37a12.19,12.19,0,0,0-.24-1.32c-0.08-.45-0.2-0.91-0.33-1.38a19.07,19.07,0,0,0-1.05-2.82,15.36,15.36,0,0,0-3.9-5.05,15.71,15.71,0,0,0-2.68-1.85,18.21,18.21,0,0,0-2.93-1.24,15.88,15.88,0,0,0-5.64-.73,15.07,15.07,0,0,0-2.3.35,8.93,8.93,0,0,0-.95.27,6.39,6.39,0,0,0-.79.29,9.67,9.67,0,0,0-1.09.5l-0.38.2,0.3-.31a6.39,6.39,0,0,1,.92-0.83,8.73,8.73,0,0,1,1.66-1,11.3,11.3,0,0,1,2.41-.88,13.35,13.35,0,0,1,3-.37,14.27,14.27,0,0,1,3.41.37,15.71,15.71,0,0,1,3.48,1.22,17.88,17.88,0,0,1,3.21,2.1,17.36,17.36,0,0,1,2.58,2.85,15.6,15.6,0,0,1,1.73,3.27,15.08,15.08,0,0,1,.85,3.31,14.93,14.93,0,0,1,.16,3,17.73,17.73,0,0,1-.26,2.5c-0.14.74-.3,1.37-0.43,1.88C241.88,116.33,241.68,116.9,241.68,116.9Z"/><path class="cls-9" d="M238,95.74s-0.55-.24-1.5-0.69l-0.78-.38c-0.29-.13-0.61-0.22-0.94-0.34a17,17,0,0,0-2.23-.69l-1.29-.3c-0.44-.1-0.92-0.12-1.4-0.19a20.18,20.18,0,0,0-3-.12c-0.52,0-1,.12-1.56.17-0.26,0-.53.06-0.79,0.11l-0.78.19a15.64,15.64,0,0,0-3.06,1l-1.42.78a11.35,11.35,0,0,0-1.3.93c-0.21.17-.44,0.31-0.62,0.49l-0.56.56a7.77,7.77,0,0,0-1.05,1.13c-0.3.41-.59,0.82-0.9,1.21s-0.47.86-.71,1.27a16,16,0,0,0-1.06,2.5,5.9,5.9,0,0,0-.33,1.18l-0.26,1.09a11.12,11.12,0,0,0-.28,1.82c-0.12,1-.21,1.63-0.21,1.63s-0.12-.58-0.3-1.62a8.43,8.43,0,0,1-.19-1.91,14.35,14.35,0,0,1,.13-2.52,12.57,12.57,0,0,1,.74-2.93c0.21-.5.38-1,0.63-1.55s0.6-1,.92-1.51A9.73,9.73,0,0,1,215,95.68l0.62-.71c0.22-.22.48-0.4,0.72-0.61a13.83,13.83,0,0,1,1.53-1.15l1.67-1a18.13,18.13,0,0,1,3.64-1.15l0.92-.19c0.31,0,.62,0,0.92-0.06,0.61,0,1.22-.09,1.81-0.06a15.57,15.57,0,0,1,3.36.5,12.76,12.76,0,0,1,1.5.42l1.34,0.57a12.25,12.25,0,0,1,2.22,1.22,9.74,9.74,0,0,1,.87.57l0.65,0.57C237.58,95.33,238,95.74,238,95.74Z"/><path class="cls-9" d="M211.88,111.6s0.1,0.27.24,0.74l0.23,0.85c0.1,0.32.21,0.68,0.3,1.06s0.26,0.8.36,1.24,0.3,0.88.43,1.35l0.5,1.4c0.19,0.47.36,0.95,0.59,1.4s0.44,0.91.66,1.36,0.48,0.86.74,1.26,0.51,0.78.77,1.14,0.52,0.68.79,1,0.52,0.54.73,0.79l0.62,0.58c0.37,0.3.59,0.5,0.59,0.5s-0.28,0-.78-0.11c-0.24-.06-0.54-0.14-0.87-0.26a7,7,0,0,1-1.07-.52,7.33,7.33,0,0,1-1.17-.8,9.08,9.08,0,0,1-1.14-1.1,11,11,0,0,1-1-1.35,12.66,12.66,0,0,1-.82-1.54,12.85,12.85,0,0,1-.6-1.62,15.13,15.13,0,0,1-.38-1.62,14.47,14.47,0,0,1-.16-2.92,10.57,10.57,0,0,1,.28-2C211.79,111.88,211.88,111.6,211.88,111.6Z"/><path class="cls-9" d="M224.95,134.37a6.52,6.52,0,0,1-2.37.57,8.6,8.6,0,0,1-2.53-.18,9.43,9.43,0,0,1-1.4-.43,8.46,8.46,0,0,1-1.36-.71l-0.64-.44c-0.2-.16-0.38-0.35-0.57-0.53a6,6,0,0,1-1-1.15,5.86,5.86,0,0,1-.65-1.22,4.57,4.57,0,0,1-.35-1.17,4.5,4.5,0,0,1-.16-1c0-.3,0-0.57,0-0.78,0-.43.05-0.67,0.05-0.67s0.15,0.21.37,0.56c0.11,0.18.24,0.39,0.37,0.63s0.35,0.48.51,0.76a6.26,6.26,0,0,0,.62.83,7.52,7.52,0,0,0,.74.84,7.72,7.72,0,0,0,.86.79l0.46,0.38,0.51,0.33c0.31,0.25.71,0.4,1,.62s0.72,0.36,1.09.51c0.73,0.32,1.45.56,2.09,0.78C224,134.09,224.95,134.37,224.95,134.37Z"/><rect class="cls-14" x="128.77" y="84.46" width="57.41" height="57.41" rx="2" ry="2"/><path class="cls-15" d="M163.86,115.75l-0.17.06a2.38,2.38,0,0,1-.49.12,3.78,3.78,0,0,1-1.85-.19,4.51,4.51,0,0,1-2.18-1.68,4.15,4.15,0,0,1-.67-1.54,3.16,3.16,0,0,1,.19-2,2.61,2.61,0,0,1,.67-0.89l0.22-.17a1.93,1.93,0,0,1,.19-0.12l0.39-.21a3,3,0,0,1,1.84-.28,2.72,2.72,0,0,1,1.47.8,3.63,3.63,0,0,1,.72,1.09,4.62,4.62,0,0,1,.36,1.75,4.33,4.33,0,0,1-.06.66,5.36,5.36,0,0,0-.3-0.56,6.11,6.11,0,0,0-.94-1.24,3.06,3.06,0,0,0-.72-0.54,1.28,1.28,0,0,0-.73-0.17,1.44,1.44,0,0,0-.67.28,1.73,1.73,0,0,0-.3.26,0.94,0.94,0,0,0-.09.21A2.42,2.42,0,0,0,161,113a5.34,5.34,0,0,0,1.08,1.52,6.48,6.48,0,0,0,1.21.94l0.42,0.23Z"/><path class="cls-15" d="M165.48,107.8l-0.26-.17c-0.17-.11-0.42-0.27-0.72-0.44a9.37,9.37,0,0,0-1.13-.53,7.85,7.85,0,0,0-1.47-.42,5.62,5.62,0,0,0-1.69,0,5.21,5.21,0,0,0-1.72.56,8.83,8.83,0,0,0-.81.49,3.66,3.66,0,0,0-.69.69,4.42,4.42,0,0,0-.79,1.8,7,7,0,0,0,.66,4.16A9.22,9.22,0,0,0,159.3,117a10.36,10.36,0,0,0,2.47,1.52,8,8,0,0,0,.78.32l0.28,0.1-0.3,0a8.21,8.21,0,0,1-.85-0.11,9,9,0,0,1-2.9-1.06,9.11,9.11,0,0,1-3.23-3.11,8,8,0,0,1-1.22-5.19,5.69,5.69,0,0,1,1.06-2.71,6,6,0,0,1,1-1,6.23,6.23,0,0,1,1.18-.77,5.85,5.85,0,0,1,2.54-.64,5.44,5.44,0,0,1,2.27.43,5.92,5.92,0,0,1,2.55,2,4.59,4.59,0,0,1,.44.77Z"/><path class="cls-15" d="M167.93,103.89s-0.29-.15-0.75-0.45l-0.38-.25-0.46-.23a9.53,9.53,0,0,0-1.07-.49l-0.62-.24L164,102c-0.44-.17-1-0.21-1.45-0.35s-1-.16-1.57-0.17-1.08,0-1.63,0-1.1.07-1.63,0.17-1.06.19-1.57,0.3-1,.26-1.46.43-0.91.3-1.3,0.49a10.36,10.36,0,0,0-1.09.51,8.75,8.75,0,0,0-.84.46c-0.46.28-.75,0.44-0.75,0.44s0.12-.29.39-0.79a4.5,4.5,0,0,1,.57-0.85l0.4-.5c0.16-.16.33-0.31,0.51-0.48a8.06,8.06,0,0,1,1.25-1,11,11,0,0,1,1.58-.85,10.59,10.59,0,0,1,1.84-.58,12,12,0,0,1,2-.28,11.66,11.66,0,0,1,2,.11,10.53,10.53,0,0,1,1.9.44,9.6,9.6,0,0,1,1.65.78c0.24,0.16.48,0.3,0.71,0.45s0.41,0.35.59,0.51a5.44,5.44,0,0,1,.94,1c0.13,0.16.25,0.3,0.34,0.44l0.22,0.4C167.81,103.59,167.93,103.89,167.93,103.89Z"/><path class="cls-15" d="M154.19,132s0.29-.19.82-0.45a15.48,15.48,0,0,1,2.27-.86c0.95-.28,2-0.54,3.21-0.77,0.57-.13,1.18-0.22,1.77-0.34s1.19-.21,1.77-0.34,1.15-.26,1.7-0.38l0.79-.22c0.27-.07.49-0.18,0.74-0.26l0.36-.12,0.32-.16c0.21-.11.44-0.19,0.63-0.31a5.78,5.78,0,0,0,1-.76c0.15-.14.31-0.27,0.44-0.41l0.34-.45c0.11-.14.21-0.29,0.32-0.42l0.21-.4c0.26-.49.45-0.81,0.45-0.81a7.39,7.39,0,0,1,.17.93l0.06,0.52c0,0.19,0,.38-0.07.6l-0.1.71a7,7,0,0,1-.29.75,5.73,5.73,0,0,1-1,1.56,8.15,8.15,0,0,1-.74.68,4.27,4.27,0,0,1-.84.6,9.61,9.61,0,0,1-1.89.91,14.64,14.64,0,0,1-2,.55,23.54,23.54,0,0,1-7.22.16c-1-.12-1.74-0.25-2.34-0.35S154.19,132,154.19,132Z"/><path class="cls-15" d="M148,106.63s0,0.44-.19,1.2a13.25,13.25,0,0,0-.23,1.34c0,0.51,0,1.06-.11,1.63l0.12,1.91,0.19,1,0.09,0.51,0.16,0.51c0.12,0.34.22,0.69,0.32,1s0.31,0.68.46,1a6.22,6.22,0,0,0,.52,1c0.2,0.33.35,0.68,0.58,1a21.12,21.12,0,0,0,1.38,1.89c0.46,0.63,1,1.16,1.51,1.73s1,1.07,1.58,1.51,1,0.91,1.51,1.29,1,0.7,1.36,1l1.12,0.73,1,0.58H159.1c-0.2,0-.52,0-0.91,0a14.08,14.08,0,0,1-1.39-.25,11.89,11.89,0,0,1-1.75-.58l-1-.41c-0.33-.16-0.65-0.35-1-0.54a18.34,18.34,0,0,1-2-1.36,17.17,17.17,0,0,1-1.93-1.81,16.16,16.16,0,0,1-1.7-2.17c-0.26-.38-0.46-0.82-0.68-1.22a6.83,6.83,0,0,1-.57-1.28c-0.16-.44-0.31-0.87-0.45-1.31s-0.18-.9-0.25-1.33l-0.1-.65q0-.33,0-0.65,0-.64,0-1.24a22.34,22.34,0,0,1,.43-2.21c0.24-.67.5-1.26,0.73-1.76a6.94,6.94,0,0,1,.74-1.17C147.72,107,148,106.63,148,106.63Z"/><path class="cls-15" d="M142.11,110.62s0-.48,0-1.3a7.64,7.64,0,0,1,.1-1.48,14.76,14.76,0,0,1,1.18-4.17l0.57-1.17c0.21-.39.48-0.76,0.74-1.15a7.31,7.31,0,0,1,.86-1.13c0.32-.36.63-0.74,1-1.08a15.21,15.21,0,0,1,2.38-1.84l0.64-.4,0.68-.33a9.39,9.39,0,0,1,1.39-.58l1.42-.42c0.48-.08,1-0.16,1.42-0.23a7.83,7.83,0,0,1,1.38-.08,7.92,7.92,0,0,1,1.32.05l1.23,0.18a9.87,9.87,0,0,1,1.11.3c0.35,0.11.69,0.19,1,.32l0.85,0.41c0.26,0.13.51,0.24,0.73,0.37s0.4,0.28.58,0.39c0.68,0.48,1,.78,1,0.78s-0.48-.07-1.27-0.24c-0.2,0-.41-0.1-0.65-0.13s-0.5-.06-0.77-0.09l-0.85-.11-0.94,0a14.69,14.69,0,0,0-2.08.07,7.59,7.59,0,0,0-1.1.16,7.8,7.8,0,0,0-1.13.23l-1.14.31q-0.56.23-1.13,0.44a10.11,10.11,0,0,0-1.1.53l-0.55.27-0.52.34a17.6,17.6,0,0,0-2,1.44,20.13,20.13,0,0,0-1.72,1.71c-0.26.3-.53,0.58-0.77,0.89l-0.67.92a6.68,6.68,0,0,0-.61.9l-0.55.87c-0.34.57-.58,1.11-0.86,1.59a14.1,14.1,0,0,0-.62,1.32C142.33,110.2,142.11,110.62,142.11,110.62Z"/><path class="cls-15" d="M159.81,94.3s0.29-.11.79-0.25a4,4,0,0,1,1-.12,6,6,0,0,1,1.29.07,10.05,10.05,0,0,1,1.48.33,11.46,11.46,0,0,1,1.55.65,10.72,10.72,0,0,1,1.53.92,14.83,14.83,0,0,1,1.43,1.15,14.28,14.28,0,0,1,1.25,1.34,11.93,11.93,0,0,1,1,1.44,13.42,13.42,0,0,1,.78,1.47,9.46,9.46,0,0,1,.48,1.42,6,6,0,0,1,.23,1.25,4.66,4.66,0,0,1,0,1,7.94,7.94,0,0,1-.1.83s-0.16-.28-0.38-0.73c-0.09-.23-0.29-0.48-0.45-0.78s-0.4-.61-0.63-1-0.53-.68-0.79-1.06-0.61-.74-0.94-1.12-0.68-.77-1.06-1.14-0.76-.75-1.14-1.12-0.79-.73-1.2-1.06l-0.6-.5-0.61-.46c-0.39-.32-0.81-0.56-1.18-0.84s-0.76-.49-1.12-0.67-0.7-.39-1-0.49a6.58,6.58,0,0,0-.83-0.32C160.1,94.41,159.81,94.3,159.81,94.3Z"/><path class="cls-15" d="M163.41,122.25l-0.34.08a9,9,0,0,1-1,.18,9.29,9.29,0,0,1-1.56.06,6.74,6.74,0,0,1-1-.07,6.93,6.93,0,0,1-1.06-.2,9.87,9.87,0,0,1-2.31-.82,11.15,11.15,0,0,1-2.33-1.5,12.08,12.08,0,0,1-3.55-4.9,10.29,10.29,0,0,1-.7-3.07,9.06,9.06,0,0,1,.27-3.08,7.82,7.82,0,0,1,3.06-4.39,5.73,5.73,0,0,1,.94-0.58,6,6,0,0,1,.89-0.4,8.72,8.72,0,0,1,1.49-.44c0.42-.09.76-0.1,1-0.14l0.34,0-1.14.65c-0.34.23-.77,0.47-1.2,0.82a5,5,0,0,0-.67.56,5.94,5.94,0,0,0-.67.66,8.22,8.22,0,0,0-1.15,1.68,7.88,7.88,0,0,0-.65,2.09,9.2,9.2,0,0,0,.6,4.73,11.21,11.21,0,0,0,1.15,2.23,13.24,13.24,0,0,0,3.3,3.44c0.31,0.21.61,0.42,0.92,0.59a7.12,7.12,0,0,0,.91.5,8.6,8.6,0,0,0,.88.39,5.9,5.9,0,0,0,.83.31c0.53,0.18,1,.29,1.4.39Z"/><path class="cls-15" d="M170.81,114.77s0-.23,0-0.62a6.65,6.65,0,0,0,0-.69c0-.26,0-0.53,0-0.81s-0.08-.61-0.14-0.93a7.45,7.45,0,0,0-.27-1,7.68,7.68,0,0,0-.4-1,8.71,8.71,0,0,0-.56-0.95,19.05,19.05,0,0,0-2.86-3.23l-1.16-1c-0.3-.24-0.47-0.4-0.47-0.4s0.23,0,.63,0a7,7,0,0,1,1.61.38,8.08,8.08,0,0,1,1,.45,7.51,7.51,0,0,1,1.06.66,7.89,7.89,0,0,1,1,.89,7.49,7.49,0,0,1,.89,1.11,6.94,6.94,0,0,1,.67,1.29,5.74,5.74,0,0,1,.35,1.38,5.59,5.59,0,0,1,0,1.32,7.89,7.89,0,0,1-.24,1.14,8,8,0,0,1-.39.9,3.07,3.07,0,0,1-.4.59C171,114.6,170.81,114.77,170.81,114.77Z"/><path class="cls-15" d="M164.14,119.1s0.14-.14.39-0.35,0.59-.51,1-0.84a6,6,0,0,0,.53-0.56,4.07,4.07,0,0,0,.46-0.62,3.82,3.82,0,0,0,.32-0.67l0.1-.36,0.07-.38a6.17,6.17,0,0,0,0-.83c0-.28,0-0.58-0.06-0.87s-0.06-.59-0.13-0.87-0.07-.56-0.13-0.82c-0.09-.51-0.15-1-0.2-1.29s0-.52,0-0.52,0.16,0.11.41,0.33a6,6,0,0,1,.93,1,6.12,6.12,0,0,1,.51.77,7,7,0,0,1,.44.95,5.59,5.59,0,0,1,.28,1.13,5.15,5.15,0,0,1,0,1.27l-0.14.66a6.69,6.69,0,0,1-.25.63,4,4,0,0,1-1.69,1.72,3.79,3.79,0,0,1-.9.36,3.71,3.71,0,0,1-.79.16,2.72,2.72,0,0,1-.6,0C164.33,119.13,164.14,119.1,164.14,119.1Z"/><path class="cls-15" d="M169.16,95s-0.38-.2-1-0.59c-0.16-.09-0.33-0.22-0.53-0.32L167,93.77l-0.7-.33-0.82-.3c-0.29-.1-0.57-0.22-0.88-0.31s-0.64-.17-1-0.25c-0.64-.22-1.38-0.24-2.09-0.41S160,92,159.25,92c-0.39,0-.77,0-1.16,0l-1.17.08a10.72,10.72,0,0,0-1.16.15,8.6,8.6,0,0,0-1.14.2c-0.37.09-.74,0.17-1.11,0.25l-1.05.35a8.06,8.06,0,0,0-1,.4,10.07,10.07,0,0,0-.94.42,15.15,15.15,0,0,0-1.62,1l-0.69.51c-0.22.17-.39,0.36-0.57,0.53a6.94,6.94,0,0,0-.91.93c-0.46.56-.76,0.9-0.76,0.9s0.09-.41.33-1.14a5.12,5.12,0,0,1,.58-1.26c0.14-.23.27-0.5,0.44-0.75l0.61-.74a9.61,9.61,0,0,1,1.58-1.51,11.79,11.79,0,0,1,1-.67,6.29,6.29,0,0,1,1.09-.6l1.18-.53c0.41-.14.83-0.27,1.26-0.4a8,8,0,0,1,1.31-.29,12.34,12.34,0,0,1,1.34-.19l1.35-.07c0.45,0,.89,0,1.33.06a6.87,6.87,0,0,1,1.3.16L161.93,90a14,14,0,0,1,2.28.81c0.35,0.16.69,0.31,1,.48s0.6,0.39.88,0.57,0.55,0.35.78,0.54L167.53,93c0.2,0.19.39,0.35,0.55,0.52s0.27,0.34.38,0.49C168.92,94.61,169.16,95,169.16,95Z"/><path class="cls-15" d="M172.8,114.17s0.11,0.32.25,0.89a4.33,4.33,0,0,1,.13,1.08,6,6,0,0,1-.08,1.45,9.33,9.33,0,0,1-.4,1.67,10.31,10.31,0,0,1-.85,1.73,9.92,9.92,0,0,1-1.25,1.66A10.21,10.21,0,0,1,169,124a10.34,10.34,0,0,1-1.9,1,9.86,9.86,0,0,1-1,.33l-0.5.15-0.51.07c-0.34,0-.67.1-1,0.12l-1,0a7.77,7.77,0,0,1-1.7-.29,7.63,7.63,0,0,1-1.34-.51,4.39,4.39,0,0,1-.94-0.55c-0.49-.34-0.75-0.55-0.75-0.55s0.35,0,.92.09a7.13,7.13,0,0,0,1,.09c0.39,0,.81,0,1.27,0l0.71-.06a3.33,3.33,0,0,0,.74-0.1l0.76-.14,0.77-.23a11.57,11.57,0,0,0,1.54-.61,12.13,12.13,0,0,0,1.46-.88,4.23,4.23,0,0,0,.69-0.51c0.21-.19.46-0.35,0.66-0.55s0.4-.4.61-0.59,0.36-.42.55-0.63a15.71,15.71,0,0,0,1-1.27c0.23-.45.56-0.84,0.72-1.27a10.7,10.7,0,0,0,.5-1.15,6.64,6.64,0,0,0,.32-1C172.7,114.49,172.8,114.17,172.8,114.17Z"/><path class="cls-15" d="M155,129.48s-0.36.1-1,.23c-0.32,0-.73.06-1.21,0.06a9.55,9.55,0,0,1-1.55-.18l-0.88-.19c-0.3-.09-0.6-0.2-0.91-0.31a6.64,6.64,0,0,1-.94-0.4,7.85,7.85,0,0,1-.95-0.5l-0.93-.61c-0.3-.23-0.59-0.47-0.88-0.72a7.18,7.18,0,0,1-.83-0.81,8.76,8.76,0,0,1-.76-0.89l-0.68-1c-0.2-.33-0.37-0.69-0.55-1l-0.26-.51-0.19-.54-0.37-1.05a16.85,16.85,0,0,1-.37-2.05,13.8,13.8,0,0,1,0-1.84c0-.57.12-1.08,0.18-1.53a11.23,11.23,0,0,1,.3-1.14c0.19-.62.32-1,0.32-1s0.08,0.37.18,1l0.17,1.11c0.1,0.42.21,0.89,0.3,1.4s0.31,1,.45,1.59,0.42,1.1.62,1.69,0.51,1.14.87,1.68l0.5,0.82,0.58,0.78a16.86,16.86,0,0,0,5.53,4.61c0.45,0.25.89,0.41,1.28,0.6l1,0.38C154.64,129.36,155,129.48,155,129.48Z"/><path class="cls-11" d="M290.06,117.33l0.16-.1,0.42-.26a6.94,6.94,0,0,0,1.19-1,5.79,5.79,0,0,0,1-1.46,3.84,3.84,0,0,0,.29-0.79,1.83,1.83,0,0,0,0-.53v-0.16h0l0,0h0l0,0L293.1,113a1.13,1.13,0,0,1-.15-0.14,1.38,1.38,0,0,0-.52-0.3,1.06,1.06,0,0,0-.66.07,2.93,2.93,0,0,0-.75.45A6.28,6.28,0,0,0,290,114.2c-0.25.32-.38,0.53-0.38,0.53a3.47,3.47,0,0,1-.06-0.67,4.55,4.55,0,0,1,.4-1.79,3.67,3.67,0,0,1,.78-1.11,2.88,2.88,0,0,1,1.59-.8,3.21,3.21,0,0,1,2,.37c0.15,0.08.34,0.2,0.4,0.24l0.07,0,0,0,0.09,0.07,0.23,0.19a2.79,2.79,0,0,1,.68,1,3.38,3.38,0,0,1,.08,2.13A4.3,4.3,0,0,1,295,116a4.57,4.57,0,0,1-2.39,1.57,3.73,3.73,0,0,1-1.93,0A2.63,2.63,0,0,1,290.06,117.33Z"/><path class="cls-11" d="M288.91,109.32L289,109a4.39,4.39,0,0,1,.44-0.8,5.79,5.79,0,0,1,2.65-2.07,5.5,5.5,0,0,1,2.39-.4,5.91,5.91,0,0,1,2.66.79,6.82,6.82,0,0,1,1.21.88,5.93,5.93,0,0,1,1.91,4.12,8.21,8.21,0,0,1-1.66,5.27,9.24,9.24,0,0,1-3.54,2.92,8.92,8.92,0,0,1-3,.83,8.17,8.17,0,0,1-.86,0h-0.3l0.28-.11a8.09,8.09,0,0,0,.78-0.31,11,11,0,0,0,2.48-1.48,9.26,9.26,0,0,0,2.46-3,6.85,6.85,0,0,0,.8-4,3.87,3.87,0,0,0-.63-1.68,3.59,3.59,0,0,0-.6-0.65,7.27,7.27,0,0,0-.71-0.49,5.41,5.41,0,0,0-3.13-.74,8.7,8.7,0,0,0-1.46.25,10.52,10.52,0,0,0-1.18.39c-0.32.13-.6,0.25-0.79,0.34Z"/><path class="cls-11" d="M286.69,105.3s0.13-.3.4-0.79l0.23-.4c0.1-.14.23-0.28,0.36-0.43a5.48,5.48,0,0,1,1-1l0.62-.5c0.23-.15.48-0.28,0.73-0.43a9.78,9.78,0,0,1,1.69-.72,10.63,10.63,0,0,1,1.93-.37,11.34,11.34,0,0,1,2,0,11.53,11.53,0,0,1,2,.38,10.24,10.24,0,0,1,1.82.68,10.73,10.73,0,0,1,1.55.94,8,8,0,0,1,1.2,1.08c0.17,0.18.34,0.35,0.48,0.52L303,104.8a4.44,4.44,0,0,1,.51.89,8.23,8.23,0,0,1,.33.83s-0.3-.16-0.75-0.46a9.33,9.33,0,0,0-.83-0.48,11,11,0,0,0-1.07-.54c-0.38-.2-0.83-0.35-1.27-0.53s-0.94-.32-1.43-0.47-1-.27-1.54-0.36-1.07-.16-1.6-0.23-1.08-.08-1.61-0.06-1,.07-1.56.08-1,.12-1.45.26l-0.68.15-0.63.2a10.52,10.52,0,0,0-1.1.41l-0.47.19-0.4.22C287,105.17,286.69,105.3,286.69,105.3Z"/><path class="cls-11" d="M298.76,134s-0.34.05-.92,0.09-1.37.12-2.34,0.16a24.91,24.91,0,0,1-7.15-.57,14.91,14.91,0,0,1-1.95-.63,9.67,9.67,0,0,1-1.82-1,4.21,4.21,0,0,1-.8-0.62,8.36,8.36,0,0,1-.7-0.69,5.49,5.49,0,0,1-.92-1.57,6.64,6.64,0,0,1-.26-0.74l-0.08-.7c0-.22,0-0.41,0-0.6l0.08-.5a8.33,8.33,0,0,1,.19-0.91s0.15,0.32.36,0.84l0.17,0.42c0.1,0.14.18,0.29,0.28,0.44l0.29,0.48c0.12,0.15.27,0.3,0.4,0.46a6,6,0,0,0,1,.85c0.19,0.13.41,0.24,0.62,0.36a3.46,3.46,0,0,0,.67.33c0.25,0.09.46,0.23,0.73,0.31l0.79,0.27c0.55,0.15,1.1.34,1.69,0.47,2.32,0.58,4.82,1.06,6.69,1.7a15.1,15.1,0,0,1,2.23.88C298.47,133.81,298.76,134,298.76,134Z"/><path class="cls-11" d="M306.42,109s0.26,0.36.66,1a6.78,6.78,0,0,1,.65,1.22c0.19,0.52.41,1.12,0.61,1.8a19.81,19.81,0,0,1,.26,2.23l-0.06,1.24c0,0.21,0,.43,0,0.65l-0.15.64c-0.1.43-.21,0.87-0.33,1.31s-0.34.85-.53,1.27a7.07,7.07,0,0,1-.64,1.23c-0.25.39-.47,0.81-0.75,1.18a16.2,16.2,0,0,1-1.81,2.07,17.64,17.64,0,0,1-2,1.7,18.27,18.27,0,0,1-2.1,1.26c-0.35.17-.68,0.35-1,0.5l-1,.37a12.23,12.23,0,0,1-1.77.51c-0.53.12-1,.15-1.4,0.2s-0.71,0-.91,0l-0.31,0,1.08-.51,1.16-.66c0.43-.3.92-0.56,1.43-0.94s1-.76,1.6-1.2,1.08-1,1.67-1.43,1.12-1.05,1.62-1.66a21,21,0,0,0,1.49-1.82c0.25-.3.43-0.65,0.64-1a6.61,6.61,0,0,0,.58-1c0.17-.34.34-0.68,0.52-1l0.38-1,0.2-.51,0.12-.51,0.25-1,0.22-1.92c0-.58,0-1.14,0-1.65a12,12,0,0,0-.16-1.35C306.45,109.43,306.42,109,306.42,109Z"/><path class="cls-11" d="M312.08,113.25s-0.19-.43-0.47-1.2a13.78,13.78,0,0,0-.53-1.35c-0.24-.5-0.44-1.06-0.75-1.64l-0.49-.9c-0.09-.15-0.16-0.31-0.24-0.48l-0.3-.46-0.62-1c-0.23-.31-0.48-0.61-0.72-0.93a19,19,0,0,0-1.62-1.8,16.92,16.92,0,0,0-1.93-1.55l-0.5-.36-0.54-.3a9.45,9.45,0,0,0-1.08-.58c-0.37-.16-0.74-0.32-1.11-0.49s-0.76-.23-1.13-0.36a8.82,8.82,0,0,0-1.12-.27,6.55,6.55,0,0,0-1.1-.2,15.74,15.74,0,0,0-2.08-.14c-0.33,0-.64,0-0.94,0l-0.86.07-0.77.06-0.65.11c-0.79.14-1.27,0.19-1.27,0.19s0.37-.27,1.08-0.71c0.18-.11.37-0.24,0.59-0.36s0.48-.21.75-0.32l0.87-.36c0.31-.11.65-0.17,1-0.27a11.11,11.11,0,0,1,1.12-.24c0.39,0,.8-0.07,1.23-0.11a8.22,8.22,0,0,1,1.31,0,7.68,7.68,0,0,1,1.37.14l1.4,0.29c0.46,0.15.92,0.32,1.38,0.49a9,9,0,0,1,1.35.64l0.66,0.36c0.21,0.13.41,0.28,0.62,0.43a13.2,13.2,0,0,1,1.19.91c0.37,0.34.72,0.69,1.07,1s0.63,0.75.93,1.12a7.18,7.18,0,0,1,.8,1.17c0.23,0.4.49,0.78,0.67,1.18l0.5,1.19a13.24,13.24,0,0,1,.68,2.24,14.5,14.5,0,0,1,.29,2,7.73,7.73,0,0,1,0,1.48C312.13,112.78,312.08,113.25,312.08,113.25Z"/><path class="cls-11" d="M295.36,96.11s-0.3.1-.81,0.23a6.77,6.77,0,0,0-.84.31c-0.29.09-.65,0.32-1,0.46s-0.74.43-1.14,0.64-0.81.49-1.21,0.79l-0.63.43c-0.2.16-.41,0.32-0.62,0.47-0.42.31-.83,0.66-1.24,1s-0.82.69-1.2,1.06-0.76.72-1.13,1.07-0.69.71-1,1.05-0.64.67-.87,1-0.52.61-.7,0.9-0.41.52-.52,0.74c-0.26.43-.45,0.7-0.45,0.7a7.24,7.24,0,0,1-.08-0.85,4.66,4.66,0,0,1,.06-1,6,6,0,0,1,.28-1.25,9.35,9.35,0,0,1,.55-1.42,13.13,13.13,0,0,1,.85-1.46,11.76,11.76,0,0,1,1.12-1.41,14.17,14.17,0,0,1,1.33-1.29,14.58,14.58,0,0,1,1.51-1.09,10.66,10.66,0,0,1,1.6-.84,11.26,11.26,0,0,1,1.6-.57,9.91,9.91,0,0,1,1.52-.24,6,6,0,0,1,1.31,0,4,4,0,0,1,1,.2C295.08,96,295.36,96.11,295.36,96.11Z"/><path class="cls-11" d="M290.12,123.84l1.31-.22c0.4-.09.87-0.18,1.41-0.35a5.89,5.89,0,0,0,.84-0.28,8.85,8.85,0,0,0,.89-0.35,7.2,7.2,0,0,0,.92-0.46c0.32-.16.63-0.35,0.94-0.55a12.77,12.77,0,0,0,1.82-1.44,13,13,0,0,0,1.63-1.82,11.57,11.57,0,0,0,1.26-2.14,9.59,9.59,0,0,0,.76-2.32,8.19,8.19,0,0,0,.15-2.31,7.5,7.5,0,0,0-.49-2.11,8,8,0,0,0-1-1.73,5.7,5.7,0,0,0-.62-0.7,4.85,4.85,0,0,0-.62-0.6c-0.41-.37-0.82-0.65-1.15-0.9l-1.1-.72,0.34,0c0.22,0,.56.06,1,0.17a8.46,8.46,0,0,1,1.48.5,5.85,5.85,0,0,1,.88.44,5.58,5.58,0,0,1,.92.63,7.76,7.76,0,0,1,2.84,4.61,8.94,8.94,0,0,1,.08,3.12,10.51,10.51,0,0,1-.9,3,12.24,12.24,0,0,1-3.86,4.71,11.21,11.21,0,0,1-2.43,1.37,9.86,9.86,0,0,1-2.37.69,6.94,6.94,0,0,1-1.08.14,6.82,6.82,0,0,1-1,0,9.17,9.17,0,0,1-1.56-.16,8.74,8.74,0,0,1-1-.24Z"/><path class="cls-11" d="M283.18,116a5.91,5.91,0,0,1-.44-0.48,2.78,2.78,0,0,1-.42-0.6,7.54,7.54,0,0,1-.42-0.95,7.26,7.26,0,0,1-.23-1.19,5.48,5.48,0,0,1,.08-1.38,5.82,5.82,0,0,1,.43-1.43,7,7,0,0,1,.77-1.3,7.59,7.59,0,0,1,2.11-1.93,7.14,7.14,0,0,1,1.15-.59,8.13,8.13,0,0,1,1.09-.36,6.78,6.78,0,0,1,1.71-.18,4.76,4.76,0,0,1,.66.07s-0.17.19-.47,0.45L288,107.24a27.07,27.07,0,0,0-2.86,3.11,10.2,10.2,0,0,0-.59.86,9.53,9.53,0,0,0-.47.89,8.12,8.12,0,0,0-.37.89c-0.11.3-.16,0.6-0.25,0.88l-0.16.79a6.85,6.85,0,0,0-.08.71A6,6,0,0,1,283.18,116Z"/><path class="cls-11" d="M289.58,120.67a4.55,4.55,0,0,1-.55.07,2.47,2.47,0,0,1-.62,0,3.94,3.94,0,0,1-.83-0.14,4.08,4.08,0,0,1-1.92-1.13,3.86,3.86,0,0,1-.77-1.16,5.47,5.47,0,0,1-.23-0.69l-0.11-.71a5.43,5.43,0,0,1,.52-2.49,6.24,6.24,0,0,1,.55-0.93,5.94,5.94,0,0,1,.61-0.72,5.77,5.77,0,0,1,1.11-.89,4,4,0,0,1,.49-0.27,5.18,5.18,0,0,1,0,.56c0,0.34-.08.81-0.14,1.34-0.05.26-.07,0.54-0.12,0.82s-0.07.57-.12,0.85-0.07.57-.08,0.83,0,0.51,0,.75a5.6,5.6,0,0,0,.09.64,3.9,3.9,0,0,0,.55,1.24,5.48,5.48,0,0,0,.44.61c0.3,0.39.58,0.74,0.82,1A4.56,4.56,0,0,1,289.58,120.67Z"/><path class="cls-11" d="M286.62,96.27s0.25-.36.73-0.93c0.12-.14.25-0.31,0.41-0.47s0.36-.32.57-0.49L289,93.8a9.36,9.36,0,0,1,.81-0.51c0.29-.17.59-0.36,0.91-0.53s0.68-.28,1-0.43a14.4,14.4,0,0,1,2.33-.7c0.42-.08.84-0.12,1.28-0.18l0.65-.08h0.66c0.44,0,.9,0,1.35,0l1.35,0.15a11.07,11.07,0,0,1,1.33.27,8.38,8.38,0,0,1,1.3.37l1.25,0.47c0.39,0.2.78,0.4,1.16,0.61a6.27,6.27,0,0,1,1.06.69c0.33,0.26.66,0.48,0.95,0.75a9.5,9.5,0,0,1,1.48,1.64c0.2,0.28.39,0.54,0.55,0.8s0.26,0.55.38,0.79a5.06,5.06,0,0,1,.47,1.32c0.17,0.76.22,1.18,0.22,1.18s-0.29-.35-0.72-0.93a7.06,7.06,0,0,0-.86-1c-0.18-.17-0.33-0.37-0.55-0.55l-0.66-.54a16.08,16.08,0,0,0-1.55-1.06c-0.28-.18-0.61-0.3-0.91-0.46a6.94,6.94,0,0,0-1-.44l-1-.4-1.08-.31a23.84,23.84,0,0,0-2.25-.47l-1.15-.15-1.15-.06c-0.76-.08-1.51,0-2.25,0s-1.45.09-2.1,0.26c-0.33.06-.65,0.13-1,0.18s-0.61.16-.9,0.24a12.15,12.15,0,0,0-1.55.5l-0.66.24c-0.21.09-.39,0.19-0.56,0.27C287,96.1,286.62,96.27,286.62,96.27Z"/><path class="cls-11" d="M281.22,115.32s0.1,0.33.22,0.91a6.61,6.61,0,0,0,.29,1,11.49,11.49,0,0,0,.46,1.15c0.15,0.42.46,0.83,0.67,1.28s0.54,0.88.9,1.29c0.18,0.2.32,0.44,0.51,0.64s0.39,0.4.57,0.61,0.42,0.37.62,0.57a4.12,4.12,0,0,0,.65.53,12.46,12.46,0,0,0,1.39.94,12.17,12.17,0,0,0,1.47.68l0.74,0.27,0.74,0.18a3.19,3.19,0,0,0,.72.15l0.69,0.11c0.45,0.06.87,0,1.26,0.08a7.64,7.64,0,0,0,1,0c0.57,0,.93,0,0.93,0s-0.26.21-.76,0.55a4.38,4.38,0,0,1-1,.53,7.67,7.67,0,0,1-1.36.48,7.77,7.77,0,0,1-1.72.24h-1c-0.33,0-.66-0.1-1-0.16a4.46,4.46,0,0,1-1-.26,10.53,10.53,0,0,1-1-.38,10.31,10.31,0,0,1-1.87-1.14,10.11,10.11,0,0,1-1.58-1.5,9.74,9.74,0,0,1-1.16-1.75,10.06,10.06,0,0,1-.74-1.8,9,9,0,0,1-.29-1.71,5.93,5.93,0,0,1,0-1.46,4.18,4.18,0,0,1,.22-1.07C281.07,115.64,281.22,115.32,281.22,115.32Z"/><path class="cls-11" d="M298.09,131.47s0.36-.11,1-0.25l1-.36c0.39-.19.84-0.33,1.3-0.56a17.72,17.72,0,0,0,5.71-4.35l0.61-.74,0.54-.79c0.39-.51.63-1.09,1-1.61s0.53-1.1.73-1.64,0.43-1.05.56-1.55,0.27-1,.41-1.38l0.26-1.1c0.15-.62.27-1,0.27-1s0.13,0.35.29,1a10.47,10.47,0,0,1,.25,1.16c0,0.45.1,1,.11,1.55a13.84,13.84,0,0,1-.12,1.86,16.63,16.63,0,0,1-.48,2.05l-0.43,1-0.22.53-0.29.5c-0.2.33-.39,0.68-0.61,1l-0.74.93a9,9,0,0,1-.82.86,7.21,7.21,0,0,1-.88.77c-0.31.24-.62,0.47-0.93,0.68s-0.65.38-1,.56a7.85,7.85,0,0,1-1,.45,6.75,6.75,0,0,1-1,.35c-0.32.09-.63,0.18-0.94,0.26l-0.9.14a9.3,9.3,0,0,1-1.57.08c-0.48,0-.89-0.09-1.21-0.14C298.45,131.6,298.09,131.47,298.09,131.47Z"/></g><circle class="cls-6" cx="261.66" cy="113.81" r="97.46"/><line class="cls-6" x1="106.58" y1="160.87" x2="186.64" y2="51.6"/><line class="cls-16" x1="114.04" y1="179.3" x2="243.27" y2="209.37"/></svg>