<?xml version="1.0" encoding="utf-8"?>
<!-- Generator: Adobe Illustrator 19.1.0, SVG Export Plug-In . SVG Version: 6.00 Build 0)  -->
<svg version="1.1" id="Layer_1" xmlns="http://www.w3.org/2000/svg" xmlns:xlink="http://www.w3.org/1999/xlink" x="0px" y="0px"
	 width="237.9px" height="244.7px" viewBox="-318.3 328.1 237.9 244.7" style="enable-background:new -318.3 328.1 237.9 244.7;"
	 xml:space="preserve">
<style type="text/css">
	.st0{fill:#FFFFFF;stroke:#C3E9EC;stroke-width:4;stroke-linecap:round;stroke-linejoin:round;}
	.st1{fill:none;stroke:#C3E9EC;stroke-width:4;stroke-linecap:round;stroke-linejoin:round;}
	.st2{fill:#FFFFFF;stroke:#91D5D9;stroke-width:4;stroke-linecap:round;stroke-linejoin:round;}
	.st3{fill:none;stroke:#91D5D9;stroke-width:4;stroke-linecap:round;stroke-linejoin:round;}
	.st4{fill:none;stroke:#EF5034;stroke-width:4;stroke-linecap:round;stroke-miterlimit:10;}
	.st5{fill:none;stroke:#F59685;stroke-width:4;stroke-linecap:round;stroke-miterlimit:10;}
	.st6{fill:none;stroke:#C0E869;stroke-width:4;stroke-linecap:round;stroke-miterlimit:10;}
	.st7{fill:none;stroke:#F59122;stroke-width:4;stroke-linecap:round;stroke-miterlimit:10;}
	.st8{fill:#FFFFFF;stroke:#6AC9D0;stroke-width:4;stroke-linecap:round;stroke-linejoin:round;}
	.st9{fill:none;stroke:#6AC9D0;stroke-width:4;stroke-linecap:round;stroke-linejoin:round;}
	.st10{fill:none;stroke:#96D805;stroke-width:4;stroke-linecap:round;stroke-miterlimit:10;}
</style>
<title>ipfs-illustrations-how-2</title>
<rect x="-314.8" y="331.6" class="st0" width="118" height="152.7"/>
<line class="st1" x1="-296.5" y1="356.8" x2="-215.2" y2="356.8"/>
<line class="st1" x1="-296.5" y1="378.4" x2="-215.2" y2="378.4"/>
<line class="st1" x1="-296.5" y1="399.9" x2="-215.2" y2="399.9"/>
<line class="st1" x1="-296.5" y1="421.4" x2="-215.2" y2="421.4"/>
<line class="st1" x1="-296.5" y1="443" x2="-243.3" y2="443"/>
<rect x="-258" y="374.7" class="st2" width="118" height="152.7"/>
<line class="st3" x1="-239.7" y1="399.9" x2="-158.3" y2="399.9"/>
<line class="st3" x1="-239.7" y1="421.4" x2="-158.3" y2="421.4"/>
<line class="st4" x1="-190.4" y1="421.4" x2="-170.3" y2="421.4"/>
<line class="st3" x1="-239.7" y1="443" x2="-158.3" y2="443"/>
<line class="st3" x1="-239.7" y1="464.4" x2="-158.3" y2="464.4"/>
<line class="st3" x1="-239.7" y1="486.1" x2="-186.5" y2="486.1"/>
<line class="st5" x1="-222.8" y1="443.2" x2="-196.2" y2="443.2"/>
<line class="st6" x1="-232.2" y1="486.1" x2="-217.9" y2="486.1"/>
<line class="st7" x1="-182.8" y1="529.1" x2="-101.5" y2="529.1"/>
<rect x="-201.2" y="417.7" class="st8" width="118" height="152.7"/>
<line class="st9" x1="-182.8" y1="442.9" x2="-101.5" y2="442.9"/>
<line class="st10" x1="-168.8" y1="442.9" x2="-129.6" y2="442.9"/>
<line class="st9" x1="-182.8" y1="464.5" x2="-101.5" y2="464.5"/>
<line class="st10" x1="-147" y1="464.5" x2="-129.6" y2="464.5"/>
<line class="st4" x1="-133.6" y1="464.5" x2="-113.5" y2="464.5"/>
<line class="st9" x1="-182.8" y1="486" x2="-101.5" y2="486"/>
<line class="st9" x1="-182.8" y1="507.5" x2="-101.5" y2="507.5"/>
<line class="st10" x1="-139.1" y1="507.5" x2="-112.5" y2="507.5"/>
<line class="st9" x1="-182.8" y1="529.1" x2="-129.6" y2="529.1"/>
<line class="st4" x1="-167.9" y1="507.5" x2="-141.3" y2="507.5"/>
<line class="st10" x1="-182" y1="550.3" x2="-155.4" y2="550.3"/>
<line class="st10" x1="-130.8" y1="529.1" x2="-100.8" y2="529.1"/>
</svg>
