<?xml version="1.0" encoding="utf-8"?>
<!-- Generator: Adobe Illustrator 19.1.0, SVG Export Plug-In . SVG Version: 6.00 Build 0)  -->
<svg version="1.1" xmlns="http://www.w3.org/2000/svg" xmlns:xlink="http://www.w3.org/1999/xlink" x="0px" y="0px" width="515.2px"
	 height="139.7px" viewBox="0 0 515.2 139.7" style="enable-background:new 0 0 515.2 139.7;" xml:space="preserve">
<style type="text/css">
	.st0{display:none;}
	.st1{display:inline;fill:#F05135;}
	.st2{display:inline;fill:#083B54;}
	.st3{display:inline;fill:#6ACAD1;}
	.st4{display:inline;fill:#F59223;}
	.st5{display:inline;fill:none;stroke:#F05135;stroke-width:2.5;stroke-miterlimit:10;}
	.st6{display:inline;fill:none;stroke:#083B54;stroke-width:2.5;stroke-miterlimit:10;}
	.st7{display:inline;fill:none;stroke:#6ACAD1;stroke-width:2.5;stroke-miterlimit:10;}
	.st8{display:inline;fill:none;stroke:#F59223;stroke-width:2.5;stroke-miterlimit:10;}
	.st9{display:inline;fill:#FDD9C8;stroke:#F05135;stroke-width:2.5;stroke-miterlimit:10;}
	.st10{display:inline;fill:#D3D5DB;stroke:#083B54;stroke-width:2.5;stroke-miterlimit:10;}
	.st11{display:inline;fill:#E0F2F3;stroke:#6ACAD1;stroke-width:2.5;stroke-miterlimit:10;}
	.st12{display:inline;fill:#FEE5CB;stroke:#F59223;stroke-width:2.5;stroke-miterlimit:10;}
	.st13{display:inline;fill:#FFFFFF;stroke:#F05135;stroke-width:2.5;stroke-miterlimit:10;}
	.st14{display:inline;fill:#FFFFFF;stroke:#083B54;stroke-width:2.5;stroke-miterlimit:10;}
	.st15{display:inline;fill:#FFFFFF;stroke:#6ACAD1;stroke-width:2.5;stroke-miterlimit:10;}
	.st16{display:inline;fill:#FFFFFF;stroke:#F59223;stroke-width:2.5;stroke-miterlimit:10;}
	.st17{display:inline;}
	.st18{display:inline;fill:#FFFFFF;}
	.st19{fill:#FFFFFF;}
	.st20{fill:#E0F2F3;}
	.st21{fill:#D3D5DB;stroke:#D3D5DB;stroke-linejoin:round;stroke-miterlimit:10;}
	.st22{fill:#FFFFFF;stroke:#6ACAD1;stroke-width:2.5;stroke-linejoin:round;stroke-miterlimit:10;}
	.st23{fill:#063B54;}
	.st24{fill:#FFFFFF;stroke:#6ACAD1;stroke-width:2.5;stroke-miterlimit:10;}
	.st25{fill:#E0F2F3;stroke:#6ACAD1;stroke-width:2.5;stroke-linejoin:round;stroke-miterlimit:10;}
	.st26{fill:none;stroke:#6ACAD1;stroke-width:1.5;stroke-miterlimit:10;}
	.st27{fill:#D3D5DB;}
	.st28{fill:#E0F2F3;stroke:#6ACAD1;stroke-width:2.5;stroke-miterlimit:10;}
	.st29{fill:#083B54;}
	.st30{fill:#F05135;}
	.st31{fill:#F59223;}
	.st32{fill:none;stroke:#6ACAD1;stroke-width:2.5;stroke-miterlimit:10;}
	.st33{fill:none;stroke:#F05135;stroke-miterlimit:10;}
	.st34{fill:none;stroke:#D3D5DB;stroke-width:0.5;stroke-miterlimit:10;}
	.st35{fill:#083B54;stroke:#063B54;stroke-width:0.5;stroke-linejoin:round;stroke-miterlimit:10;}
	.st36{fill:none;stroke:#063B54;stroke-width:0.7;stroke-miterlimit:10;}
	.st37{fill:none;stroke:#D3D5DB;stroke-width:0.3;stroke-miterlimit:10;}
	.st38{fill:none;stroke:#6ACAD1;stroke-width:2.5;stroke-linejoin:round;stroke-miterlimit:10;}
	.st39{fill:none;stroke:#F05135;stroke-width:2.5;stroke-linecap:round;stroke-miterlimit:10;}
	.st40{fill:#083B54;stroke:#063B54;stroke-linejoin:round;stroke-miterlimit:10;}
	.st41{fill:none;stroke:#E0F2F3;stroke-miterlimit:10;}
	.st42{fill:none;stroke:#6ACAD1;stroke-linecap:round;stroke-linejoin:round;stroke-miterlimit:10;}
	.st43{fill:none;stroke:#6ACAD1;stroke-width:2.5;stroke-linecap:round;stroke-linejoin:round;stroke-miterlimit:10;}
	.st44{fill:#F05135;stroke:#F05235;stroke-linejoin:round;stroke-miterlimit:10;}
	.st45{fill:none;stroke:#F05135;stroke-width:2;stroke-linecap:round;stroke-miterlimit:10;}
	.st46{fill:none;stroke:#E0F2F3;stroke-width:1.5;stroke-linecap:round;stroke-miterlimit:10;}
	.st47{fill:none;stroke:#FCC941;stroke-width:2;stroke-miterlimit:10;}
	.st48{fill:#6ACAD1;}
	.st49{fill:none;stroke:#063B54;stroke-width:2.5;stroke-miterlimit:10;}
</style>
<g id="template" class="st0">
	<g id="nNZJUW_1_" class="st17">
		
			<image style="overflow:visible;" width="938" height="388" id="nNZJUW_2_" xlink:href="569FA61A1799B19F.png"  transform="matrix(1 0 0 1 -233.9121 -119.4371)">
		</image>
	</g>
	<rect x="-216.9" y="8.9" class="st18" width="949" height="270.1"/>
	<g class="st17">
		<g id="Kopayy_1_">
			
				<image style="overflow:visible;" width="949" height="694" id="Kopayy_2_" xlink:href="569FA61A1799B19D.png"  transform="matrix(1 0 0 1 -216.9121 100.5501)">
			</image>
		</g>
		<rect x="22.3" y="105.8" class="st19" width="457.5" height="54.9"/>
	</g>
</g>
<g id="Layer_3">
</g>
<g id="stuffs">
	<polyline class="st41" points="4.6,52.3 55.4,17.4 109.3,56.7 55.4,59.2 45.8,88.5 87.8,115.1 122.4,84.8 186.8,103.3 131.6,134.8 
		159.6,8.6 111.4,20.8 185.4,59.2 218.6,8.6 272.1,107.6 205,82.5 288.1,11.8 325.9,39 293,62.1 322.4,118.7 346.1,71.3 419.7,71.3 
		408,8.6 357.3,13.9 406.1,122.7 465,94.6 453.3,39 477.7,20.8 510.5,54.4 	"/>
	<circle class="st20" cx="4.6" cy="52.1" r="4.6"/>
	<circle class="st20" cx="55.4" cy="17.8" r="4.6"/>
	<circle class="st20" cx="109.5" cy="56.7" r="4.6"/>
	<circle class="st20" cx="55.4" cy="59.1" r="4.6"/>
	<circle class="st20" cx="45.4" cy="88.5" r="4.6"/>
	<circle class="st20" cx="87.5" cy="115.1" r="4.6"/>
	<circle class="st20" cx="122.7" cy="84.8" r="4.6"/>
	<circle class="st20" cx="111.5" cy="20.8" r="4.6"/>
	<circle class="st20" cx="159.9" cy="4.6" r="4.6"/>
	<circle class="st20" cx="131.9" cy="135.1" r="4.6"/>
	<circle class="st20" cx="185.7" cy="103" r="4.6"/>
	<circle class="st20" cx="185.7" cy="59.1" r="4.6"/>
	<circle class="st20" cx="218.6" cy="4.6" r="4.6"/>
	<circle class="st20" cx="205" cy="82.1" r="4.6"/>
	<circle class="st20" cx="272" cy="107.6" r="4.6"/>
	<circle class="st20" cx="288.1" cy="13.3" r="4.6"/>
	<circle class="st20" cx="325.8" cy="38.8" r="4.6"/>
	<circle class="st20" cx="292.8" cy="62" r="4.6"/>
	<circle class="st20" cx="323.2" cy="119.8" r="4.6"/>
	<circle class="st20" cx="346.9" cy="71.3" r="4.6"/>
	<circle class="st20" cx="357.7" cy="13.3" r="4.6"/>
	<circle class="st20" cx="406.9" cy="4.6" r="4.6"/>
	<circle class="st20" cx="419.7" cy="71.3" r="4.6"/>
	<circle class="st20" cx="406.7" cy="123.8" r="4.6"/>
	<circle class="st20" cx="465" cy="94.6" r="4.6"/>
	<circle class="st20" cx="453.3" cy="38.8" r="4.6"/>
	<circle class="st20" cx="477.7" cy="20.8" r="4.6"/>
	<circle class="st20" cx="510.5" cy="54.6" r="4.6"/>
</g>
</svg>
