<?xml version="1.0" encoding="utf-8"?>
<!-- Generator: Adobe Illustrator 19.1.0, SVG Export Plug-In . SVG Version: 6.00 Build 0)  -->
<svg version="1.1" id="Layer_1" xmlns="http://www.w3.org/2000/svg" xmlns:xlink="http://www.w3.org/1999/xlink" x="0px" y="0px"
	 width="240.8px" height="247.1px" viewBox="-330.4 328.1 240.8 247.1" style="enable-background:new -330.4 328.1 240.8 247.1;"
	 xml:space="preserve">
<style type="text/css">
	.st0{fill:#FFFFFF;stroke:#C3E9EC;stroke-width:5.88;stroke-linecap:round;stroke-linejoin:round;}
	.st1{fill:none;stroke:#C3E9EC;stroke-width:5.88;stroke-linecap:round;stroke-linejoin:round;}
	.st2{fill:#FFFFFF;stroke:#91D5D9;stroke-width:5.88;stroke-linecap:round;stroke-linejoin:round;}
	.st3{fill:none;stroke:#91D5D9;stroke-width:5.88;stroke-linecap:round;stroke-linejoin:round;}
	.st4{fill:none;stroke:#EF5034;stroke-width:5.63;stroke-linecap:round;stroke-miterlimit:10;}
	.st5{fill:none;stroke:#F59685;stroke-width:5.63;stroke-linecap:round;stroke-miterlimit:10;}
	.st6{fill:none;stroke:#F59122;stroke-width:5.63;stroke-linecap:round;stroke-miterlimit:10;}
	.st7{fill:#FFFFFF;stroke:#6AC9D0;stroke-width:5.63;stroke-linecap:round;stroke-linejoin:round;}
	.st8{fill:none;stroke:#6AC9D0;stroke-width:5.63;stroke-linecap:round;stroke-linejoin:round;}
</style>
<title>ipfs illustrations</title>
<rect x="-325.1" y="334" class="st0" width="118" height="152.7"/>
<line class="st1" x1="-306.8" y1="359.2" x2="-225.5" y2="359.2"/>
<line class="st1" x1="-306.8" y1="380.8" x2="-225.5" y2="380.8"/>
<line class="st1" x1="-306.8" y1="402.3" x2="-225.5" y2="402.3"/>
<line class="st1" x1="-306.8" y1="423.9" x2="-225.5" y2="423.9"/>
<line class="st1" x1="-306.8" y1="445.4" x2="-253.6" y2="445.4"/>
<rect x="-267.7" y="376.9" class="st2" width="118" height="152.7"/>
<line class="st3" x1="-249.4" y1="402.1" x2="-168.1" y2="402.1"/>
<line class="st3" x1="-249.4" y1="423.6" x2="-168.1" y2="423.6"/>
<line class="st4" x1="-200.2" y1="423.6" x2="-180" y2="423.6"/>
<line class="st3" x1="-249.4" y1="445.2" x2="-168.1" y2="445.2"/>
<line class="st3" x1="-249.4" y1="466.6" x2="-168.1" y2="466.6"/>
<line class="st3" x1="-249.4" y1="488.2" x2="-196.2" y2="488.2"/>
<line class="st5" x1="-234.5" y1="466.6" x2="-207.9" y2="466.6"/>
<line class="st6" x1="-193.1" y1="529.5" x2="-111.8" y2="529.5"/>
<rect x="-211.5" y="418.1" class="st7" width="118" height="152.7"/>
<line class="st8" x1="-193.1" y1="443.4" x2="-111.8" y2="443.4"/>
<line class="st6" x1="-179.1" y1="443.4" x2="-139.9" y2="443.4"/>
<line class="st8" x1="-193.1" y1="464.9" x2="-111.8" y2="464.9"/>
<line class="st6" x1="-157.3" y1="464.9" x2="-139.9" y2="464.9"/>
<line class="st4" x1="-143.9" y1="464.9" x2="-123.8" y2="464.9"/>
<line class="st8" x1="-193.1" y1="486.5" x2="-111.8" y2="486.5"/>
<line class="st8" x1="-193.1" y1="507.9" x2="-111.8" y2="507.9"/>
<line class="st6" x1="-149.4" y1="507.9" x2="-122.8" y2="507.9"/>
<line class="st8" x1="-193.1" y1="529.5" x2="-139.9" y2="529.5"/>
<line class="st4" x1="-178.2" y1="507.9" x2="-151.6" y2="507.9"/>
<line class="st6" x1="-192.3" y1="550.8" x2="-165.7" y2="550.8"/>
<line class="st6" x1="-141.1" y1="529.5" x2="-111.1" y2="529.5"/>
</svg>
