<?xml version="1.0" encoding="utf-8"?>
<!-- Generator: Adobe Illustrator 19.1.0, SVG Export Plug-In . SVG Version: 6.00 Build 0)  -->
<svg version="1.1" xmlns="http://www.w3.org/2000/svg" xmlns:xlink="http://www.w3.org/1999/xlink" x="0px" y="0px" width="133.5px"
	 height="101.4px" viewBox="0 0 133.5 101.4" style="enable-background:new 0 0 133.5 101.4;" xml:space="preserve">
<style type="text/css">
	.st0{display:none;}
	.st1{display:inline;fill:#F05135;}
	.st2{display:inline;fill:#083B54;}
	.st3{display:inline;fill:#6ACAD1;}
	.st4{display:inline;fill:#F59223;}
	.st5{display:inline;fill:none;stroke:#F05135;stroke-width:2.5;stroke-miterlimit:10;}
	.st6{display:inline;fill:none;stroke:#083B54;stroke-width:2.5;stroke-miterlimit:10;}
	.st7{display:inline;fill:none;stroke:#6ACAD1;stroke-width:2.5;stroke-miterlimit:10;}
	.st8{display:inline;fill:none;stroke:#F59223;stroke-width:2.5;stroke-miterlimit:10;}
	.st9{display:inline;fill:#FDD9C8;stroke:#F05135;stroke-width:2.5;stroke-miterlimit:10;}
	.st10{display:inline;fill:#D3D5DB;stroke:#083B54;stroke-width:2.5;stroke-miterlimit:10;}
	.st11{display:inline;fill:#E0F2F3;stroke:#6ACAD1;stroke-width:2.5;stroke-miterlimit:10;}
	.st12{display:inline;fill:#FEE5CB;stroke:#F59223;stroke-width:2.5;stroke-miterlimit:10;}
	.st13{display:inline;fill:#FFFFFF;stroke:#F05135;stroke-width:2.5;stroke-miterlimit:10;}
	.st14{display:inline;fill:#FFFFFF;stroke:#083B54;stroke-width:2.5;stroke-miterlimit:10;}
	.st15{display:inline;fill:#FFFFFF;stroke:#6ACAD1;stroke-width:2.5;stroke-miterlimit:10;}
	.st16{display:inline;fill:#FFFFFF;stroke:#F59223;stroke-width:2.5;stroke-miterlimit:10;}
	.st17{display:inline;}
	.st18{display:inline;fill:#FFFFFF;}
	.st19{fill:#FFFFFF;}
	.st20{fill:#E0F2F3;}
	.st21{fill:#D3D5DB;stroke:#D3D5DB;stroke-linejoin:round;stroke-miterlimit:10;}
	.st22{fill:#FFFFFF;stroke:#6ACAD1;stroke-width:2.5;stroke-linejoin:round;stroke-miterlimit:10;}
	.st23{fill:#063B54;}
	.st24{fill:#FFFFFF;stroke:#6ACAD1;stroke-width:2.5;stroke-miterlimit:10;}
	.st25{fill:#E0F2F3;stroke:#6ACAD1;stroke-width:2.5;stroke-linejoin:round;stroke-miterlimit:10;}
	.st26{fill:none;stroke:#6ACAD1;stroke-width:1.5;stroke-miterlimit:10;}
	.st27{fill:#D3D5DB;}
	.st28{fill:#E0F2F3;stroke:#6ACAD1;stroke-width:2.5;stroke-miterlimit:10;}
	.st29{fill:#083B54;}
	.st30{fill:#F05135;}
	.st31{fill:#F59223;}
	.st32{fill:none;stroke:#6ACAD1;stroke-width:2.5;stroke-miterlimit:10;}
	.st33{fill:none;stroke:#F05135;stroke-miterlimit:10;}
	.st34{fill:none;stroke:#D3D5DB;stroke-width:0.5;stroke-miterlimit:10;}
	.st35{fill:#083B54;stroke:#063B54;stroke-width:0.5;stroke-linejoin:round;stroke-miterlimit:10;}
	.st36{fill:none;stroke:#063B54;stroke-width:0.7;stroke-miterlimit:10;}
	.st37{fill:none;stroke:#D3D5DB;stroke-width:0.3;stroke-miterlimit:10;}
	.st38{fill:none;stroke:#6ACAD1;stroke-width:2.5;stroke-linejoin:round;stroke-miterlimit:10;}
	.st39{fill:none;stroke:#F05135;stroke-width:2.5;stroke-linecap:round;stroke-miterlimit:10;}
	.st40{fill:#083B54;stroke:#063B54;stroke-linejoin:round;stroke-miterlimit:10;}
	.st41{fill:none;stroke:#E0F2F3;stroke-miterlimit:10;}
	.st42{fill:none;stroke:#6ACAD1;stroke-linecap:round;stroke-linejoin:round;stroke-miterlimit:10;}
	.st43{fill:none;stroke:#6ACAD1;stroke-width:2.5;stroke-linecap:round;stroke-linejoin:round;stroke-miterlimit:10;}
	.st44{fill:#F05135;stroke:#F05235;stroke-linejoin:round;stroke-miterlimit:10;}
	.st45{fill:none;stroke:#F05135;stroke-width:2;stroke-linecap:round;stroke-miterlimit:10;}
	.st46{fill:none;stroke:#E0F2F3;stroke-width:1.5;stroke-linecap:round;stroke-miterlimit:10;}
	.st47{fill:none;stroke:#FCC941;stroke-width:2;stroke-miterlimit:10;}
	.st48{fill:#6ACAD1;}
	.st49{fill:none;stroke:#063B54;stroke-width:2.5;stroke-miterlimit:10;}
</style>
<g id="template" class="st0">
	<g id="nNZJUW_1_" class="st17">
		
			<image style="overflow:visible;" width="938" height="388" id="nNZJUW_2_" xlink:href="56758EDA75520C30.png"  transform="matrix(1 0 0 1 -129.2261 -292.4245)">
		</image>
	</g>
	<rect x="-112.2" y="-164.1" class="st18" width="949" height="270.1"/>
	<g class="st17">
		<g id="Kopayy_1_">
			
				<image style="overflow:visible;" width="949" height="694" id="Kopayy_2_" xlink:href="56758EDA75520C31.png"  transform="matrix(1 0 0 1 -112.2261 -72.4374)">
			</image>
		</g>
	</g>
</g>
<g id="Layer_3">
	<circle class="st20" cx="66.8" cy="50.7" r="50.7"/>
</g>
<g id="stuffs">
	<path class="st27" d="M1.6,76.6v5.3c0,0.5,0.6,1,1.3,1l54.1-0.3v0c0,0.7,0.6,1.3,1.3,1.3h17.3c0.7,0,1.3-0.6,1.3-1.3v0l54.1,0.3
		c0.7,0,1.3-0.4,1.3-1v-5.3"/>
	<path class="st24" d="M1.6,72.6v5.3c0,0.5,0.6,1,1.3,1l56.1-1.3v1c0,0.7,0.6,1.3,1.3,1.3h13.3c0.7,0,1.3-0.6,1.3-1.3v-1l56.1,1.3
		c0.7,0,1.3-0.4,1.3-1v-5.3"/>
	<path class="st28" d="M119.4,28.4c0-0.5-0.6-1-1.3-1H14.2c-0.7,0-1.3,0.4-1.3,1L1.6,72.6c0,0.5,0.6,1,1.3,1l56.1-1.3v1
		c0,0.7,0.6,1.3,1.3,1.3h13.3c0.7,0,1.3-0.6,1.3-1.3v-1l56.1,1.3c0.7,0,1.3-0.4,1.3-1L119.4,28.4z"/>
	<path class="st24" d="M65.8,68.8c0,0-9.1-0.5-18.7-0.5s-30.4,1.8-30.4,1.8c-0.5,0-1-0.6-1-1.3l12.5-36.2c0-0.7,0.4-1.3,1-1.3
		c0,0,11.7-5.7,23.2-5.7s14.4,6.3,14.4,7v35C66.8,68.2,66.4,68.8,65.8,68.8z"/>
	<path class="st24" d="M65.5,68.2c0,0-8.6-4.5-21.3-4.5S8.4,69.4,8.4,69.4c-0.7,0-1.3-0.6-1.3-1.3l9.1-36.2c0-0.7,0.6-1.3,1.3-1.3
		c0,0,15.3-7.4,30.4-7.4s18.9,8,18.9,8.7v35C66.8,67.6,66.2,68.2,65.5,68.2z"/>
	<path class="st24" d="M67.8,68.8l49.2,1.3c0.5,0,1-0.6,1-1.3l-12.5-36.2c0-0.7-0.4-1.3-1-1.3c0,0-11.7-5.7-23.2-5.7
		s-14.4,6.3-14.4,7v35C66.8,68.2,67.2,68.8,67.8,68.8z"/>
	<path class="st24" d="M68.1,68.2c0,0,8.6-3.8,21.3-3.8s35.8,5.1,35.8,5.1c0.7,0,1.3-0.6,1.3-1.3l-9.1-36.2c0-0.7-0.6-1.3-1.3-1.3
		c0,0-15.3-7.4-30.4-7.4s-18.9,8-18.9,8.7v35C66.8,67.6,67.4,68.2,68.1,68.2z"/>
	<ellipse class="st27" cx="41.2" cy="48.9" rx="12.9" ry="4.9"/>
	<ellipse class="st27" cx="93.1" cy="49.9" rx="5.5" ry="2.3"/>
	<circle class="st29" cx="41.2" cy="34.6" r="15"/>
	<circle class="st30" cx="93.1" cy="36.7" r="7.5"/>
	<path class="st31" d="M102.8,33.2c-1-0.1-2-0.2-3.2-0.2c0.2,0.3,0.3,0.7,0.5,1c0.9,0,1.8,0.1,2.6,0.2c3,0.4,3.7,1,3.7,1.2v0
		c0,0.2-0.6,1-3.5,1.8c-2.5,0.7-5.9,1.3-9.5,1.6c-8.5,0.7-13.3-0.4-13.3-1.2c0-0.5,1.9-1.5,5.7-2.4c0.1-0.4,0.2-0.7,0.3-1.1
		c-3.7,0.8-7.1,1.9-7,3.5c0.2,1.8,4.8,2.3,9.2,2.3c1.9,0,3.7-0.1,5.2-0.2c3.7-0.3,7.1-0.9,9.7-1.6c2.9-0.9,4.3-1.8,4.2-2.8
		C107.3,34.3,105.8,33.6,102.8,33.2z"/>
</g>
</svg>
