<?xml version="1.0" encoding="utf-8"?>
<!-- Generator: Adobe Illustrator 19.1.0, SVG Export Plug-In . SVG Version: 6.00 Build 0)  -->
<svg version="1.1" xmlns="http://www.w3.org/2000/svg" xmlns:xlink="http://www.w3.org/1999/xlink" x="0px" y="0px" width="226px"
	 height="154px" viewBox="0 0 226 154" style="enable-background:new 0 0 226 154;" xml:space="preserve">
<style type="text/css">
	.st0{display:none;}
	.st1{display:inline;fill:#F05135;}
	.st2{display:inline;fill:#083B54;}
	.st3{display:inline;fill:#6ACAD1;}
	.st4{display:inline;fill:#F59223;}
	.st5{display:inline;fill:none;stroke:#F05135;stroke-width:2.5;stroke-miterlimit:10;}
	.st6{display:inline;fill:none;stroke:#083B54;stroke-width:2.5;stroke-miterlimit:10;}
	.st7{display:inline;fill:none;stroke:#6ACAD1;stroke-width:2.5;stroke-miterlimit:10;}
	.st8{display:inline;fill:none;stroke:#F59223;stroke-width:2.5;stroke-miterlimit:10;}
	.st9{display:inline;fill:#FDD9C8;stroke:#F05135;stroke-width:2.5;stroke-miterlimit:10;}
	.st10{display:inline;fill:#D3D5DB;stroke:#083B54;stroke-width:2.5;stroke-miterlimit:10;}
	.st11{display:inline;fill:#E0F2F3;stroke:#6ACAD1;stroke-width:2.5;stroke-miterlimit:10;}
	.st12{display:inline;fill:#FEE5CB;stroke:#F59223;stroke-width:2.5;stroke-miterlimit:10;}
	.st13{display:inline;fill:#FFFFFF;stroke:#F05135;stroke-width:2.5;stroke-miterlimit:10;}
	.st14{display:inline;fill:#FFFFFF;stroke:#083B54;stroke-width:2.5;stroke-miterlimit:10;}
	.st15{display:inline;fill:#FFFFFF;stroke:#6ACAD1;stroke-width:2.5;stroke-miterlimit:10;}
	.st16{display:inline;fill:#FFFFFF;stroke:#F59223;stroke-width:2.5;stroke-miterlimit:10;}
	.st17{display:inline;}
	.st18{opacity:0.3;fill:none;stroke:#6ACAD1;stroke-width:2.5;stroke-miterlimit:10;}
	.st19{fill:#E0F2F3;stroke:#6ACAD1;stroke-width:2.5;stroke-miterlimit:10;}
	.st20{opacity:0.5;fill:#6ACAD1;}
	.st21{opacity:0.3;fill:none;stroke:#F59223;stroke-miterlimit:10;}
	.st22{fill:none;stroke:#6ACAD1;stroke-width:2.5;stroke-linecap:round;stroke-miterlimit:10;}
	.st23{fill:#FFFFFF;stroke:#6ACAD1;stroke-width:2.5;stroke-miterlimit:10;}
	.st24{fill:#FFFFFF;stroke:#083B54;stroke-width:2.5;stroke-miterlimit:10;}
	.st25{fill:#FFFFFF;}
	.st26{fill:none;stroke:#6ACAD1;stroke-width:2.5;stroke-miterlimit:10;}
	.st27{fill:#E0F2F3;}
	.st28{fill:#D3D5DB;stroke:#083B54;stroke-width:2.5;stroke-miterlimit:10;}
	.st29{fill:#083B54;}
	.st30{opacity:0.2;fill:#083B54;}
	.st31{opacity:0.3;fill:#083B54;}
	.st32{opacity:0.5;fill:#083B54;}
	.st33{opacity:0.85;fill:#083B54;}
	.st34{opacity:0.7;fill:#083B54;}
	.st35{fill:#FEE5CB;stroke:#F59223;stroke-miterlimit:10;}
	.st36{opacity:0.5;fill:#FFFFFF;stroke:#6ACAD1;stroke-linecap:round;stroke-miterlimit:10;}
	.st37{fill:#F05135;}
	.st38{fill:#F59223;}
	.st39{fill:#F05135;stroke:#F05235;stroke-linejoin:round;stroke-miterlimit:10;}
	.st40{fill:#6ACAD1;}
</style>
<g id="template" class="st0">
	<g id="_x38_jq36L_1_" class="st17">
		
			<image style="overflow:visible;" width="1001" height="475" id="_x38_jq36L_2_" xlink:href="F40A7C7F7065F0A3.png"  transform="matrix(1 0 0 1 -585.2849 -458.3315)">
		</image>
	</g>
	<g id="SsozcT_1_" class="st17">
		
			<image style="overflow:visible;" width="922" height="544" id="SsozcT_2_" xlink:href="F40A7C7F7065F0A1.png"  transform="matrix(1 0 0 1 -546.2849 -183.3315)">
		</image>
	</g>
</g>
<g id="stuffs">
	<line class="st18" x1="157.7" y1="22.4" x2="179" y2="45.6"/>
	<line class="st18" x1="107.6" y1="78.3" x2="103.9" y2="110.1"/>
	<polyline class="st18" points="5.5,49.2 52.1,24.1 105.3,5.3 157.7,22.4 	"/>
	<line class="st18" x1="201.1" y1="126.3" x2="220.5" y2="95.6"/>
	<line class="st18" x1="144.2" y1="59.8" x2="179" y2="45.6"/>
	<line class="st18" x1="157.7" y1="22.4" x2="208.8" y2="36.1"/>
	<line class="st18" x1="208.8" y1="36.1" x2="188.5" y2="76.2"/>
	<polyline class="st18" points="152,97.7 144.2,59.8 188.5,76.2 179,45.6 208.8,36.1 220.5,95.6 	"/>
	<line class="st18" x1="22.1" y1="94.3" x2="21.4" y2="140.3"/>
	<line class="st18" x1="22.1" y1="94.3" x2="59.5" y2="76.2"/>
	<line class="st18" x1="22.1" y1="94.3" x2="44.8" y2="106.4"/>
	<line class="st18" x1="59.5" y1="76.2" x2="79.8" y2="94"/>
	<polygon class="st18" points="144.2,59.8 134.4,82 107.6,78.3 91.7,43.6 123.3,36.1 	"/>
	<line class="st18" x1="59.5" y1="76.2" x2="107.6" y2="78.3"/>
	<polyline class="st18" points="91.7,43.6 59.5,76.2 52.1,24.1 	"/>
	<line class="st18" x1="91.7" y1="43.6" x2="143.2" y2="59.8"/>
	<line class="st18" x1="152" y1="97.7" x2="130.7" y2="137.3"/>
	<polyline class="st18" points="21.4,140.3 44.8,106.4 72.5,120.7 	"/>
	<polyline class="st18" points="188.5,76.2 175.3,117 172.1,148.7 	"/>
	<polygon class="st18" points="130.7,137.3 175.3,117 152,97.7 103.9,110.1 	"/>
	<polyline class="st18" points="21.4,140.3 87.1,148.7 103.9,110.1 72.5,120.7 	"/>
	<polyline class="st18" points="5.5,49.2 36.7,56.2 52.1,24.1 91.7,43.6 105.3,5.3 123.3,36.1 157.7,22.4 145.1,59.8 106.6,78.3 
		79.8,94 103.9,110.1 134.4,82 152,97.7 188.5,76.2 220.5,95.6 175.3,117 201.1,126.3 172.1,148.7 130.7,137.3 87.1,148.7 
		72.5,120.7 	"/>
	<polyline class="st18" points="5.5,49.2 22.1,94.3 36.7,56.2 59.5,76.2 44.8,106.4 79.8,94 72.5,119.2 21.4,140.3 	"/>
	<g>
		<circle class="st37" cx="87.1" cy="148.7" r="4.5"/>
		<circle class="st37" cx="175.7" cy="117.5" r="4.5"/>
		<circle class="st40" cx="52.1" cy="24.1" r="4.5"/>
		<circle class="st40" cx="157.7" cy="22.4" r="4.5"/>
		<circle class="st40" cx="208.8" cy="36.1" r="4.5"/>
		<circle class="st29" cx="105.3" cy="5.3" r="4.5"/>
		<circle class="st29" cx="220.5" cy="95.6" r="4.5"/>
		<circle class="st37" cx="5.5" cy="49.2" r="4.5"/>
		<circle class="st37" cx="122.4" cy="36.1" r="4.5"/>
		<circle class="st37" cx="79.8" cy="94" r="4.5"/>
		<circle class="st40" cx="91.6" cy="43.6" r="4.5"/>
		<circle class="st40" cx="144.2" cy="60.7" r="4.5"/>
		<circle class="st40" cx="188.5" cy="76.2" r="4.5"/>
		<circle class="st40" cx="152" cy="97.5" r="4.5"/>
		<circle class="st40" cx="201.1" cy="126.3" r="4.5"/>
		<circle class="st40" cx="130.7" cy="137.3" r="4.5"/>
		<circle class="st40" cx="59.5" cy="76.2" r="4.5"/>
		<circle class="st40" cx="107.6" cy="78.3" r="4.5"/>
		<circle class="st40" cx="71.9" cy="119.8" r="4.5"/>
		<circle class="st40" cx="21.4" cy="140.1" r="4.5"/>
		<circle class="st40" cx="22.1" cy="94.8" r="4.5"/>
		<circle class="st29" cx="179" cy="45.6" r="4.5"/>
		<circle class="st29" cx="134.2" cy="82" r="4.5"/>
		<circle class="st29" cx="172.1" cy="148.7" r="4.5"/>
		<circle class="st29" cx="103.9" cy="110.1" r="4.5"/>
		<circle class="st29" cx="36.3" cy="56.1" r="4.5"/>
		<circle class="st29" cx="44.8" cy="106.4" r="4.5"/>
	</g>
</g>
</svg>
