<?xml version="1.0" encoding="utf-8"?>
<!-- Generator: Adobe Illustrator 19.1.0, SVG Export Plug-In . SVG Version: 6.00 Build 0)  -->
<svg version="1.1" id="Layer_1" xmlns="http://www.w3.org/2000/svg" xmlns:xlink="http://www.w3.org/1999/xlink" x="0px" y="0px"
	 width="298.9px" height="217.9px" viewBox="-294 340.5 298.9 217.9" style="enable-background:new -294 340.5 298.9 217.9;"
	 xml:space="preserve">
<style type="text/css">
	.st0{fill:#FFFFFF;stroke:#C3E9EC;stroke-width:4;stroke-linejoin:round;}
	.st1{fill:#FFFFFF;stroke:#6AC9D0;stroke-width:4;stroke-linejoin:round;}
	.st2{fill:#083B54;}
	.st3{fill:#6AC9D0;}
	.st4{fill:#FFE5CA;stroke:#F59122;stroke-width:2.26;stroke-miterlimit:10;}
	.st5{opacity:0.3;fill:none;stroke:#F59122;stroke-width:2.26;stroke-miterlimit:10;enable-background:new    ;}
</style>
<title>ipfs-illustrations-how-5</title>
<rect x="-281.7" y="374" transform="matrix(-0.998 6.383562e-02 -6.383562e-02 -0.998 -270.1896 907.4798)" class="st0" width="264.1" height="150.9"/>
<rect x="-276.1" y="374" transform="matrix(-0.9679 0.2514 -0.2514 -0.9679 -170.3806 920.6857)" class="st0" width="264.1" height="150.9"/>
<rect x="-273.1" y="373.4" transform="matrix(-0.9843 0.1766 -0.1766 -0.9843 -200.5513 915.673)" class="st1" width="264.1" height="150.9"/>
<path class="st2" d="M-245.1,437.2L-245.1,437.2l1.8-9.5l2.5-0.5l2.1,11.6l-1.6,0.3l-1.7-9.7l0,0l-2.1,10.4l-1,0.2l-5.6-9l0,0
	l1.7,9.7l-1.6,0.3l-2.1-11.6l2.5-0.4L-245.1,437.2z"/>
<path class="st2" d="M-232.5,431.7c-0.2-0.3-0.5-0.5-0.9-0.6c-0.4-0.1-0.7-0.2-1.1-0.1c-0.2,0-0.3,0.1-0.5,0.2
	c-0.2,0.1-0.3,0.2-0.4,0.3c-0.1,0.1-0.2,0.2-0.3,0.4c0,0.2,0,0.3,0,0.5c0,0.3,0.3,0.6,0.6,0.6c0.5,0.1,0.9,0.2,1.4,0.2
	c0.4,0,0.7,0.1,1.1,0.1c0.3,0.1,0.6,0.2,0.9,0.3c0.3,0.1,0.5,0.3,0.7,0.5c0.2,0.2,0.3,0.5,0.4,0.9c0.1,0.4,0.1,0.8-0.1,1.2
	c-0.1,0.3-0.3,0.6-0.6,0.9c-0.3,0.3-0.6,0.5-0.9,0.6c-0.4,0.2-0.7,0.3-1.1,0.3c-0.6,0.1-1.2,0.1-1.8,0c-0.6-0.1-1.1-0.4-1.6-0.8
	l0.9-1.1c0.3,0.3,0.6,0.5,1,0.6c0.4,0.1,0.8,0.2,1.3,0.1c0.2,0,0.3-0.1,0.5-0.2c0.2-0.1,0.3-0.2,0.5-0.3c0.1-0.1,0.2-0.3,0.3-0.4
	c0.1-0.2,0.1-0.4,0-0.6c-0.1-0.3-0.3-0.6-0.7-0.7c-0.5-0.1-1.1-0.2-1.6-0.2c-0.3,0-0.6,0-0.8-0.1c-0.3,0-0.5-0.1-0.8-0.2
	c-0.2-0.1-0.5-0.3-0.6-0.5c-0.2-0.3-0.3-0.6-0.4-0.9c-0.1-0.4-0.1-0.8,0.1-1.1c0.1-0.3,0.3-0.6,0.5-0.9c0.3-0.2,0.5-0.4,0.9-0.6
	c0.9-0.4,1.8-0.5,2.7-0.3c0.5,0.1,1,0.4,1.4,0.7L-232.5,431.7z"/>
<path class="st2" d="M-226.4,435.6c0,0.3,0,0.6-0.2,0.8c-0.2,0.3-0.4,0.4-0.7,0.5c-0.3,0.1-0.6,0-0.8-0.2c-0.2-0.2-0.4-0.4-0.4-0.7
	c-0.1-0.6,0.3-1.2,0.9-1.3c0,0,0,0,0,0c0.3-0.1,0.6,0,0.8,0.2C-226.6,435.1-226.4,435.3-226.4,435.6z"/>
<path class="st2" d="M-217.7,435.1l-1.6,0.3l-2.1-11.6l7.2-1.3l0.2,1.4l-5.6,1l0.7,3.6l5.3-0.9l0.2,1.4l-5.3,0.9L-217.7,435.1z"/>
<path class="st2" d="M-210.1,422.8c0.1,0.3,0,0.5-0.2,0.8c-0.2,0.2-0.4,0.4-0.7,0.4c-0.3,0.1-0.5,0-0.8-0.2
	c-0.2-0.1-0.4-0.4-0.4-0.6c0-0.3,0-0.5,0.2-0.8c0.2-0.2,0.4-0.4,0.7-0.4c0.3-0.1,0.5,0,0.8,0.2
	C-210.4,422.3-210.2,422.5-210.1,422.8z M-208.5,433.4l-1.5,0.3l-1.4-7.8l1.5-0.3L-208.5,433.4z"/>
<path class="st2" d="M-204.2,432.7l-1.5,0.3l-2.2-12.4l1.5-0.3L-204.2,432.7z"/>
<path class="st2" d="M-194.9,426.9v0.3c0,0.1,0,0.2,0,0.3l-6.2,1.1c0.1,0.3,0.2,0.6,0.4,0.9c0.2,0.3,0.4,0.5,0.7,0.6
	c0.3,0.2,0.6,0.3,0.9,0.4c0.8,0.2,1.6-0.1,2.3-0.6c0.3-0.3,0.6-0.6,0.8-1l1.2,0.7c-0.3,0.6-0.7,1.1-1.2,1.5
	c-0.5,0.4-1.2,0.6-1.8,0.7c-0.6,0.1-1.1,0.1-1.7,0c-0.5-0.1-1-0.3-1.4-0.6c-0.4-0.3-0.8-0.7-1.1-1.1c-0.3-0.5-0.5-1-0.6-1.6
	c-0.1-0.6-0.1-1.2,0-1.7c0.1-0.5,0.3-1,0.6-1.4c0.3-0.4,0.7-0.8,1.1-1.1c0.9-0.6,2.1-0.8,3.1-0.6c0.5,0.1,0.9,0.3,1.3,0.6
	c0.4,0.3,0.7,0.7,1,1.1C-195.1,425.8-194.9,426.3-194.9,426.9z M-196.5,426.6c-0.1-0.3-0.2-0.6-0.3-0.8c-0.1-0.2-0.3-0.5-0.5-0.6
	c-0.2-0.2-0.5-0.3-0.8-0.4c-0.3-0.1-0.7-0.1-1,0c-0.3,0.1-0.6,0.2-0.9,0.3c-0.3,0.2-0.5,0.4-0.7,0.6c-0.2,0.2-0.3,0.5-0.4,0.8
	c-0.1,0.3-0.1,0.6-0.1,0.9L-196.5,426.6z"/>
<path class="st2" d="M-182,425.9L-182,425.9l1.8-9.5l2.5-0.5l2.1,11.6l-1.6,0.3l-1.7-9.7l0,0l-2.1,10.4l-1,0.2l-5.6-9l0,0l1.7,9.7
	l-1.6,0.3l-2.1-11.6l2.5-0.4L-182,425.9z"/>
<path class="st2" d="M-168.2,420.2c-0.2-0.2-0.5-0.4-0.9-0.5c-0.4-0.1-0.7-0.1-1.1-0.1c-0.4,0.1-0.7,0.2-1,0.4
	c-0.3,0.2-0.5,0.5-0.7,0.8c-0.2,0.3-0.3,0.6-0.3,1c-0.1,0.7,0,1.5,0.4,2.1c0.2,0.3,0.4,0.6,0.7,0.8c0.3,0.2,0.6,0.4,0.9,0.5
	c0.7,0.2,1.5,0,2.1-0.4c0.3-0.2,0.5-0.5,0.7-0.8l1.2,0.8c-0.3,0.4-0.6,0.8-1.1,1.1c-0.5,0.3-1,0.5-1.6,0.6c-0.6,0.1-1.2,0.1-1.7,0
	c-0.5-0.1-1-0.3-1.5-0.6c-0.4-0.3-0.8-0.7-1.1-1.1c-0.3-0.5-0.5-1.1-0.6-1.6c-0.1-0.6-0.1-1.2,0-1.7c0.1-0.5,0.3-1,0.6-1.4
	c0.3-0.4,0.7-0.8,1.2-1c0.5-0.3,1-0.5,1.6-0.6c0.6-0.1,1.1-0.1,1.7,0c0.5,0.1,1,0.4,1.5,0.7L-168.2,420.2z"/>
<path class="st2" d="M-162.6,425.2l-1.6,0.3l-2.1-11.6l7.2-1.3l0.2,1.4l-5.6,1l0.6,3.6l5.3-0.9l0.2,1.4l-5.3,0.9L-162.6,425.2z"/>
<path class="st2" d="M-155.1,412.9c0.1,0.3,0,0.5-0.2,0.8c-0.2,0.2-0.4,0.4-0.7,0.4c-0.3,0.1-0.5,0-0.8-0.2
	c-0.2-0.1-0.4-0.4-0.4-0.6c0-0.3,0-0.5,0.2-0.8c0.2-0.2,0.4-0.4,0.7-0.4c0.3-0.1,0.5,0,0.8,0.2
	C-155.3,412.4-155.1,412.7-155.1,412.9z M-153.4,423.6l-1.5,0.3l-1.4-7.8l1.5-0.3L-153.4,423.6z"/>
<path class="st2" d="M-149.1,422.8l-1.5,0.3l-2.2-12.4l1.5-0.3L-149.1,422.8z"/>
<path class="st2" d="M-139.8,417v0.3c0,0.1,0,0.2,0,0.3l-6.2,1.1c0.1,0.3,0.2,0.6,0.4,0.9c0.2,0.3,0.4,0.5,0.7,0.6
	c0.3,0.2,0.6,0.3,0.9,0.4c0.8,0.2,1.6-0.1,2.3-0.6c0.3-0.3,0.6-0.6,0.8-1l1.2,0.7c-0.3,0.6-0.7,1.1-1.2,1.5c-1,0.7-2.3,0.9-3.5,0.7
	c-1-0.2-2-0.8-2.5-1.7c-0.3-0.5-0.5-1-0.6-1.6c-0.1-0.6-0.1-1.2,0-1.7c0.1-0.5,0.3-1,0.6-1.5c0.3-0.4,0.7-0.8,1.1-1.1
	c0.9-0.6,2.1-0.8,3.1-0.6c0.5,0.1,0.9,0.3,1.3,0.6c0.4,0.3,0.7,0.7,1,1.1C-140.1,415.9-139.9,416.4-139.8,417z M-141.5,416.7
	c-0.1-0.3-0.2-0.6-0.3-0.8c-0.1-0.2-0.3-0.5-0.5-0.6c-0.2-0.2-0.5-0.3-0.8-0.4c-0.3-0.1-0.7-0.1-1,0c-0.3,0.1-0.6,0.2-0.9,0.3
	c-0.3,0.2-0.5,0.4-0.7,0.6c-0.2,0.2-0.3,0.5-0.4,0.8c-0.1,0.3-0.1,0.6-0.1,0.9L-141.5,416.7z"/>
<path class="st2" d="M-138.1,413.7c-0.1-0.3-0.1-0.6-0.2-0.9l1.5-0.3c0.1,0.2,0.1,0.4,0.2,0.7s0.1,0.5,0.1,0.6l0,0
	c0.1-0.5,0.4-0.9,0.8-1.3c0.4-0.4,0.8-0.6,1.3-0.7c0.2,0,0.4,0,0.6,0l0.2,1.4c-0.2,0-0.5,0-0.7,0c-0.3,0.1-0.7,0.2-0.9,0.4
	c-0.2,0.2-0.4,0.4-0.6,0.7c-0.1,0.3-0.2,0.6-0.3,0.9c0,0.3,0,0.7,0,1l0.7,4.1l-1.5,0.3l-1-6.1C-138,414.3-138.1,414-138.1,413.7z"/>
<path class="st2" d="M-127.4,412.2l-2.1,0.4l0.7,4c0,0.4,0.2,0.7,0.4,1c0.3,0.2,0.6,0.2,0.9,0.1c0.2,0,0.3-0.1,0.4-0.1
	c0.1-0.1,0.3-0.1,0.4-0.2l0.3,1.2c-0.2,0.1-0.4,0.2-0.6,0.3c-0.2,0.1-0.4,0.1-0.7,0.2c-0.6,0.2-1.3,0-1.8-0.3
	c-0.5-0.4-0.8-1-0.9-1.7l-0.7-4.2l-1.5,0.3l-0.2-1.3l1.5-0.3l-0.4-2.2l1.5-0.3l0.4,2.2l2.1-0.4L-127.4,412.2z"/>
<path class="st2" d="M-117.5,413.1c0.1,0.6,0.1,1.1,0,1.7c-0.2,1.1-0.9,2-1.8,2.6c-1,0.6-2.2,0.8-3.3,0.6c-0.5-0.1-1-0.3-1.5-0.6
	c-0.4-0.3-0.8-0.7-1.1-1.1c-0.3-0.5-0.5-1-0.6-1.6c-0.1-0.6-0.1-1.1,0-1.7c0.1-0.5,0.3-1,0.6-1.4c0.3-0.4,0.7-0.8,1.2-1.1
	c1-0.6,2.2-0.8,3.3-0.6c0.5,0.1,1,0.3,1.5,0.6c0.4,0.3,0.8,0.7,1.1,1.1C-117.8,412-117.6,412.5-117.5,413.1z M-119.1,413.4
	c-0.1-0.4-0.2-0.7-0.4-1c-0.2-0.3-0.4-0.6-0.7-0.8c-0.3-0.2-0.6-0.4-0.9-0.5c-0.8-0.2-1.6,0-2.2,0.4c-0.3,0.2-0.5,0.5-0.7,0.8
	c-0.2,0.3-0.3,0.6-0.3,1c-0.1,0.7,0,1.5,0.4,2.1c0.2,0.3,0.4,0.6,0.7,0.8c0.3,0.2,0.6,0.4,0.9,0.5c0.8,0.2,1.6,0,2.2-0.4
	c0.3-0.2,0.5-0.5,0.7-0.8c0.2-0.3,0.3-0.6,0.3-1C-119,414.1-119,413.8-119.1,413.4L-119.1,413.4z"/>
<path class="st2" d="M-114.5,408.6c0.1,0.2,0.1,0.4,0.2,0.6c0.1,0.2,0.1,0.5,0.1,0.6l0,0c0.1-0.2,0.2-0.5,0.3-0.6
	c0.5-0.7,1.2-1.2,2-1.3c0.4-0.1,0.9-0.1,1.3,0c0.4,0.1,0.7,0.3,1,0.5c0.3,0.2,0.5,0.6,0.7,0.9c0.2,0.4,0.3,0.8,0.4,1.2l0.9,4.8
	l-1.5,0.3l-0.8-4.3c-0.1-0.3-0.1-0.6-0.2-0.9c-0.1-0.3-0.2-0.5-0.4-0.7c-0.2-0.2-0.4-0.3-0.6-0.4c-0.3-0.1-0.6-0.1-0.9,0
	c-0.6,0.1-1.1,0.5-1.4,1c-0.3,0.6-0.4,1.3-0.2,2l0.8,4l-1.5,0.3l-1.1-6.1c0-0.2-0.1-0.5-0.2-0.8c-0.1-0.3-0.1-0.6-0.2-0.9
	L-114.5,408.6z"/>
<path class="st2" d="M-242,470.8l-1.2,0.2l-1.3-7l-1.4,1.6l-0.8-0.7l2-2.4l1-0.2L-242,470.8z"/>
<path class="st2" d="M-238.4,465L-238.4,465c0.1-0.1,0.3-0.2,0.4-0.2c0.2-0.1,0.4-0.1,0.6-0.2c0.4-0.1,0.7-0.1,1.1,0
	c0.3,0.1,0.7,0.2,0.9,0.4c0.3,0.2,0.5,0.4,0.7,0.7c0.2,0.3,0.3,0.6,0.4,1c0.1,0.4,0.1,0.8,0,1.2c-0.1,0.4-0.2,0.7-0.5,1
	c-0.2,0.3-0.5,0.5-0.8,0.7c-0.7,0.4-1.5,0.6-2.3,0.4c-0.4-0.1-0.7-0.2-1-0.4c-0.3-0.2-0.6-0.5-0.8-0.8c-0.2-0.3-0.4-0.7-0.4-1.1
	c-0.1-0.4-0.1-0.9,0-1.3c0.1-0.4,0.2-0.8,0.4-1.2l1.6-3.9l1.4-0.2L-238.4,465z M-238.9,467.7c0,0.2,0.1,0.5,0.2,0.7
	c0.1,0.2,0.3,0.4,0.5,0.5c0.4,0.3,0.9,0.4,1.4,0.3c0.2,0,0.5-0.1,0.7-0.3c0.2-0.1,0.4-0.3,0.5-0.5c0.1-0.2,0.2-0.4,0.2-0.6
	c0-0.2,0-0.5,0-0.7c0-0.2-0.1-0.5-0.2-0.7c-0.1-0.2-0.3-0.4-0.4-0.5c-0.2-0.1-0.4-0.2-0.6-0.3c-0.2,0-0.5,0-0.7,0
	c-0.2,0-0.5,0.1-0.7,0.3c-0.2,0.1-0.4,0.3-0.5,0.5c-0.1,0.2-0.2,0.4-0.3,0.6C-238.9,467.2-238.9,467.4-238.9,467.7L-238.9,467.7z"/>
<path class="st2" d="M-228,465.3l1.2-0.2l0.2,1l-1.2,0.2l0.3,1.9l-1.1,0.2l-0.4-1.9l-3.9,0.7l-0.2-1l2.6-6.2l1.4-0.2L-228,465.3z
	 M-229.9,461.3L-229.9,461.3l-2,4.7l2.7-0.5L-229.9,461.3z"/>
<path class="st2" d="M-224,462.6l0.4-0.1c0.2,0,0.5-0.1,0.7-0.2c0.2-0.1,0.4-0.2,0.6-0.3c0.2-0.1,0.3-0.3,0.3-0.5
	c0.1-0.2,0.1-0.5,0-0.7c0-0.2-0.1-0.4-0.2-0.6c-0.1-0.2-0.2-0.3-0.4-0.4c-0.2-0.1-0.3-0.2-0.5-0.2c-0.2,0-0.4,0-0.6,0
	c-0.3,0-0.6,0.2-0.9,0.4c-0.2,0.2-0.4,0.5-0.4,0.9l-1.1-0.2c0.1-0.5,0.4-1,0.8-1.4c0.4-0.4,0.9-0.6,1.5-0.7c0.3,0,0.7,0,1,0
	c0.3,0,0.6,0.1,0.9,0.3c0.3,0.2,0.5,0.4,0.7,0.6c0.2,0.3,0.3,0.6,0.4,1c0,0.2,0,0.5,0,0.7c0,0.2-0.1,0.4-0.2,0.6
	c-0.1,0.2-0.2,0.4-0.4,0.5c-0.2,0.2-0.3,0.3-0.6,0.4l0,0c0.2,0,0.5,0,0.7,0.1c0.2,0.1,0.4,0.2,0.6,0.4c0.4,0.3,0.6,0.8,0.7,1.3
	c0.1,0.4,0.1,0.8,0,1.2c-0.1,0.3-0.3,0.7-0.5,0.9c-0.2,0.3-0.5,0.5-0.8,0.6c-0.9,0.5-1.9,0.5-2.9,0.2c-0.6-0.2-1.1-0.7-1.4-1.2
	l1-0.5c0.2,0.3,0.5,0.6,0.8,0.8c0.4,0.2,0.8,0.2,1.2,0.1c0.2,0,0.4-0.1,0.6-0.2c0.2-0.1,0.4-0.2,0.5-0.4c0.1-0.2,0.2-0.4,0.3-0.6
	c0.1-0.2,0.1-0.5,0-0.7c0-0.3-0.1-0.5-0.3-0.7c-0.2-0.2-0.4-0.3-0.6-0.4c-0.2-0.1-0.5-0.1-0.7-0.1c-0.3,0-0.5,0-0.8,0.1l-0.4,0.1
	L-224,462.6z"/>
<path class="st2" d="M-217.1,461.5L-217.1,461.5l3.1-4.4l1.6-0.3l-3.4,4.6l5.2,3.8l-1.7,0.3l-4.7-3.7l0,0l0.8,4.4l-1.2,0.2l-1.6-8.4
	l1.2-0.2L-217.1,461.5z"/>
<path class="st2" d="M-210.9,456.5l2.9-0.5c0.3-0.1,0.7-0.1,1-0.1c0.3,0,0.6,0.1,0.9,0.2c0.3,0.1,0.5,0.3,0.7,0.5
	c0.2,0.3,0.4,0.6,0.4,1c0.1,0.4,0,0.9-0.2,1.2c-0.2,0.4-0.6,0.7-1,0.9l0,0c0.3,0,0.5,0,0.8,0.1c0.2,0.1,0.5,0.2,0.7,0.3
	c0.2,0.1,0.4,0.3,0.5,0.6c0.1,0.2,0.2,0.5,0.3,0.8c0.2,0.7-0.1,1.5-0.6,2c-0.3,0.3-0.6,0.5-0.9,0.6c-0.4,0.2-0.8,0.3-1.2,0.4
	l-2.8,0.5L-210.9,456.5z M-209.1,459.9l1.5-0.3c0.2,0,0.4-0.1,0.6-0.2c0.2-0.1,0.3-0.2,0.5-0.3c0.1-0.1,0.2-0.3,0.3-0.5
	c0.1-0.2,0.1-0.4,0-0.6c0-0.4-0.3-0.7-0.7-0.9c-0.5-0.1-0.9-0.1-1.4,0l-1.3,0.2L-209.1,459.9z M-208.4,463.8l1.5-0.3
	c0.2,0,0.5-0.1,0.7-0.2c0.2-0.1,0.4-0.2,0.6-0.4c0.2-0.1,0.3-0.3,0.4-0.5c0.1-0.2,0.1-0.5,0.1-0.7c0-0.4-0.3-0.8-0.7-1
	c-0.5-0.2-1-0.2-1.5-0.1l-1.6,0.3L-208.4,463.8z"/>
<path class="st3" d="M-240.9,492l-1,0.2l-1.3-7.4l1-0.2L-240.9,492z"/>
<path class="st3" d="M-240.2,484.2l2.2-0.4c0.4-0.1,0.7-0.1,1.1-0.1c0.3,0,0.6,0.1,0.9,0.2c0.3,0.1,0.5,0.3,0.6,0.5
	c0.2,0.3,0.3,0.6,0.3,0.9c0.1,0.3,0.1,0.7,0,1c-0.1,0.3-0.2,0.5-0.4,0.8c-0.2,0.2-0.5,0.4-0.8,0.5c-0.3,0.1-0.7,0.2-1,0.3l-1.2,0.2
	l0.6,3.2l-1,0.2L-240.2,484.2z M-238.6,487.3l1.1-0.2c0.2,0,0.5-0.1,0.7-0.2c0.2-0.1,0.4-0.2,0.5-0.3c0.1-0.1,0.2-0.3,0.3-0.4
	c0-0.2,0-0.4,0-0.6c0-0.2-0.1-0.4-0.2-0.5c-0.1-0.1-0.3-0.2-0.4-0.3c-0.2-0.1-0.4-0.1-0.6-0.1c-0.2,0-0.5,0-0.7,0.1l-1.1,0.2
	L-238.6,487.3z"/>
<path class="st3" d="M-231.7,490.3l-1,0.2l-1.3-7.4l4.6-0.8l0.2,0.9l-3.6,0.6l0.4,2.3l3.3-0.6l0.2,0.9l-3.3,0.6L-231.7,490.3z"/>
<path class="st3" d="M-224.2,482.8c-0.2-0.2-0.4-0.3-0.7-0.4c-0.3-0.1-0.6-0.1-0.9,0c-0.2,0-0.3,0.1-0.5,0.2
	c-0.2,0.1-0.3,0.2-0.4,0.3c-0.1,0.1-0.2,0.3-0.3,0.4c-0.1,0.2-0.1,0.4,0,0.6c0,0.2,0.1,0.3,0.2,0.5c0.1,0.1,0.2,0.2,0.4,0.3
	c0.2,0.1,0.3,0.1,0.5,0.1l0.6,0.1l0.8,0.1c0.3,0,0.5,0.1,0.8,0.3c0.5,0.3,0.9,0.8,1,1.4c0.1,0.3,0.1,0.7,0,1
	c-0.1,0.3-0.2,0.6-0.4,0.8c-0.2,0.2-0.5,0.4-0.7,0.6c-0.3,0.1-0.6,0.3-0.9,0.3c-0.5,0.1-0.9,0.1-1.4,0c-0.5-0.1-0.9-0.3-1.2-0.6
	l0.7-0.8c0.2,0.2,0.5,0.4,0.8,0.5c0.3,0.1,0.7,0.1,1,0.1c0.2,0,0.3-0.1,0.5-0.2c0.2-0.1,0.3-0.2,0.4-0.3c0.1-0.1,0.2-0.3,0.3-0.4
	c0.1-0.2,0.1-0.4,0-0.6c0-0.2-0.1-0.4-0.2-0.5c-0.1-0.1-0.3-0.2-0.4-0.3c-0.2-0.1-0.4-0.1-0.6-0.2l-0.7-0.1c-0.2,0-0.5-0.1-0.7-0.1
	c-0.2-0.1-0.5-0.1-0.7-0.3c-0.2-0.1-0.4-0.3-0.5-0.5c-0.2-0.2-0.4-0.5-0.4-0.9c-0.1-0.3-0.1-0.7,0.1-1c0.1-0.3,0.3-0.5,0.5-0.8
	c0.2-0.2,0.5-0.4,0.7-0.5c0.3-0.1,0.6-0.2,0.9-0.3c0.4-0.1,0.8-0.1,1.2,0c0.4,0.1,0.7,0.2,1,0.4L-224.2,482.8z"/>
<path class="st3" d="M-219.3,480.5l1-0.2l0.6,3.1l3.7-0.7l-0.6-3.1l1-0.2l1.3,7.4l-1,0.2l-0.6-3.4l-3.7,0.7l0.6,3.4l-1,0.2
	L-219.3,480.5z"/>
<path class="st3" d="M-209.9,486.4l-1.1,0.2l1.9-7.9l0.9-0.2l4.5,6.8l-1.2,0.2l-1.1-1.7l-3.5,0.6L-209.9,486.4z M-209.3,483.5
	l2.8-0.5l-2-3.2L-209.3,483.5z"/>
<path class="st3" d="M-199.9,478.4c-0.2-0.2-0.4-0.3-0.7-0.4c-0.3-0.1-0.6-0.1-0.9,0c-0.2,0-0.3,0.1-0.5,0.2
	c-0.2,0.1-0.3,0.2-0.4,0.3c-0.1,0.1-0.2,0.3-0.3,0.4c0,0.2,0,0.4,0,0.6c0,0.2,0.1,0.3,0.2,0.5c0.1,0.1,0.2,0.2,0.4,0.3
	c0.2,0.1,0.3,0.1,0.5,0.1l0.6,0.1l0.8,0.1c0.3,0,0.5,0.1,0.8,0.3c0.5,0.3,0.9,0.8,1,1.4c0.1,0.3,0.1,0.7,0,1
	c-0.1,0.3-0.2,0.6-0.4,0.8c-0.2,0.2-0.5,0.4-0.7,0.6c-0.3,0.1-0.6,0.3-0.9,0.3c-0.5,0.1-0.9,0.1-1.4,0c-0.5-0.1-0.9-0.3-1.2-0.6
	l0.7-0.8c0.5,0.5,1.1,0.7,1.8,0.6c0.2,0,0.3-0.1,0.5-0.2c0.2-0.1,0.3-0.2,0.4-0.3c0.1-0.1,0.2-0.3,0.3-0.4c0.1-0.2,0.1-0.4,0-0.6
	c0-0.2-0.1-0.4-0.2-0.5c-0.1-0.1-0.3-0.2-0.4-0.3c-0.2-0.1-0.4-0.1-0.6-0.2l-0.7-0.1c-0.2,0-0.5-0.1-0.7-0.1
	c-0.2-0.1-0.5-0.2-0.7-0.3c-0.2-0.1-0.4-0.3-0.5-0.5c-0.2-0.2-0.3-0.5-0.3-0.8c-0.1-0.3-0.1-0.7,0.1-1c0.1-0.3,0.3-0.5,0.5-0.8
	c0.2-0.2,0.5-0.4,0.7-0.5c0.3-0.1,0.6-0.2,0.9-0.3c0.4-0.1,0.8-0.1,1.2,0c0.4,0.1,0.7,0.2,1,0.4L-199.9,478.4z"/>
<path class="st3" d="M-197.8,476.6l1-0.2l0.6,3.1l3.7-0.7l-0.5-3.1l1-0.2l1.3,7.4l-1,0.2l-0.6-3.4l-3.7,0.7l0.6,3.4l-1,0.2
	L-197.8,476.6z"/>
<path class="st3" d="M-188.2,478c0.1,0.4-0.2,0.7-0.6,0.8c0,0,0,0,0,0c-0.2,0-0.4,0-0.5-0.1c-0.2-0.1-0.3-0.3-0.3-0.4
	c0-0.2,0-0.4,0.1-0.5c0.1-0.2,0.3-0.3,0.5-0.3c0.2,0,0.4,0,0.5,0.1C-188.3,477.7-188.2,477.8-188.2,478z M-187.6,481.7
	c0,0.2,0,0.4-0.1,0.5c-0.1,0.2-0.3,0.3-0.5,0.3c-0.2,0-0.4,0-0.5-0.1c-0.2-0.1-0.3-0.3-0.3-0.4c-0.1-0.4,0.2-0.7,0.6-0.8
	c0,0,0,0,0,0c0.2,0,0.4,0,0.5,0.1C-187.7,481.4-187.6,481.5-187.6,481.7L-187.6,481.7z"/>
<path class="st2" d="M-232.4,503.9l-4,0.7c-0.5,0.1-1,0.1-1.5,0c-0.4-0.1-0.9-0.3-1.2-0.5c-0.4-0.3-0.7-0.6-0.9-1
	c-0.3-0.4-0.4-0.9-0.5-1.4c-0.1-0.5-0.1-1,0-1.5c0.2-0.9,0.7-1.7,1.5-2.2c0.4-0.3,0.9-0.4,1.4-0.5c0.5-0.1,1-0.1,1.5,0
	c0.4,0.1,0.9,0.3,1.2,0.5c0.4,0.3,0.7,0.6,0.9,1c0.3,0.4,0.4,0.9,0.5,1.4c0.1,0.6,0.1,1.1-0.1,1.7c-0.2,0.5-0.4,0.9-0.8,1.3l0,0
	l1.9-0.3L-232.4,503.9z M-239.6,501.6c0.1,0.4,0.2,0.7,0.4,1c0.2,0.3,0.4,0.5,0.7,0.8c0.3,0.2,0.6,0.3,0.9,0.4
	c0.7,0.2,1.5,0,2.1-0.4c0.3-0.2,0.5-0.4,0.7-0.7c0.2-0.3,0.3-0.6,0.4-0.9c0.1-0.4,0.1-0.7,0-1.1c-0.1-0.4-0.2-0.7-0.4-1
	c-0.2-0.3-0.4-0.5-0.7-0.8c-0.3-0.2-0.6-0.3-0.9-0.4c-1.1-0.3-2.2,0.2-2.8,1.1c-0.2,0.3-0.3,0.6-0.4,0.9
	C-239.7,500.9-239.7,501.2-239.6,501.6L-239.6,501.6z"/>
<path class="st2" d="M-230.6,499c0.2-0.2,0.5-0.4,0.9-0.4c0.3-0.1,0.6,0,0.9,0.1c0.3,0.1,0.5,0.3,0.7,0.6c0.1-0.3,0.3-0.6,0.5-0.8
	c0.2-0.2,0.5-0.3,0.9-0.4c0.3-0.1,0.5-0.1,0.8,0c0.2,0.1,0.4,0.2,0.6,0.3c0.2,0.1,0.3,0.3,0.4,0.5c0.1,0.2,0.2,0.5,0.2,0.7l0.5,2.8
	l-0.9,0.2l-0.5-2.5c0-0.2-0.1-0.4-0.1-0.5c-0.1-0.2-0.1-0.3-0.2-0.4c-0.1-0.1-0.2-0.2-0.4-0.2c-0.2,0-0.3,0-0.5,0
	c-0.2,0-0.4,0.1-0.5,0.2c-0.1,0.1-0.2,0.2-0.3,0.4c-0.1,0.2-0.1,0.3-0.1,0.5c0,0.2,0,0.4,0,0.5l0.5,2.5l-0.9,0.2l-0.5-2.7
	c0-0.2-0.1-0.3-0.1-0.5c0-0.1-0.1-0.3-0.2-0.4c-0.1-0.1-0.2-0.2-0.3-0.2c-0.5-0.1-1,0.1-1.2,0.5c-0.2,0.4-0.2,0.8-0.1,1.2l0.4,2.4
	l-0.9,0.2l-0.6-3.6c0-0.1-0.1-0.3-0.1-0.5s-0.1-0.4-0.1-0.5l0.9-0.1c0,0.1,0,0.2,0.1,0.4c0,0.1,0.1,0.3,0.1,0.4l0,0
	C-230.9,499.5-230.8,499.2-230.6,499z"/>
<path class="st2" d="M-220.5,501.8l-1,0.2l-0.5-3l-3.2-3.4l1.2-0.2l2.4,2.8l1.4-3.4l1.1-0.2l-1.8,4.3L-220.5,501.8z"/>
<path class="st2" d="M-217.8,496.6l1.7,3.3l0,0l0.5-3.7l1-0.2l1.7,3.3l0,0l0.4-3.7l1-0.2l-0.7,4.9l-0.9,0.2l-1.8-3.2l0,0l-0.5,3.6
	l-0.9,0.2l-2.3-4.3L-217.8,496.6z"/>
<path class="st2" d="M-209.4,499.8l-1.1,0.2l1.7-7.4l0.9-0.2l4.2,6.3l-1.1,0.2l-1-1.6l-3.2,0.6L-209.4,499.8z M-208.9,497.1l2.6-0.5
	l-1.8-3L-208.9,497.1z"/>
<path class="st2" d="M-203.9,491.7l2.1-0.4c0.3-0.1,0.7-0.1,1-0.1c0.3,0,0.6,0.1,0.8,0.2c0.2,0.1,0.4,0.3,0.6,0.5
	c0.2,0.2,0.3,0.5,0.3,0.8c0.1,0.3,0.1,0.6,0,0.9c-0.1,0.3-0.2,0.5-0.4,0.7c-0.2,0.2-0.5,0.4-0.7,0.5c-0.3,0.1-0.7,0.2-1,0.3
	l-1.1,0.2l0.5,3l-1,0.2L-203.9,491.7z M-202.4,494.6l1-0.2c0.2,0,0.4-0.1,0.6-0.2c0.2-0.1,0.3-0.2,0.5-0.3c0.1-0.1,0.2-0.2,0.3-0.4
	c0-0.2,0-0.4,0-0.5c0-0.2-0.1-0.4-0.2-0.5c-0.1-0.1-0.2-0.2-0.4-0.3c-0.2-0.1-0.3-0.1-0.5-0.1c-0.2,0-0.4,0-0.6,0.1l-1,0.2
	L-202.4,494.6z"/>
<path class="st2" d="M-197.6,496.1c0.1,0.2,0.2,0.4,0.4,0.6c0.2,0.1,0.5,0.2,0.7,0.1c0.2,0,0.3-0.1,0.5-0.2c0.1-0.1,0.2-0.2,0.3-0.4
	c0.1-0.2,0.1-0.3,0.1-0.5c0-0.2,0-0.4-0.1-0.6l-0.8-4.7l1-0.2l0.9,4.7c0,0.3,0.1,0.5,0.1,0.8c0,0.3-0.1,0.5-0.2,0.8
	c-0.1,0.3-0.3,0.5-0.5,0.7c-0.7,0.5-1.5,0.6-2.3,0.2c-0.4-0.2-0.7-0.5-0.8-0.9L-197.6,496.1z"/>
<path class="st2" d="M-190.1,492.4l-2.1,3.5l2.7-0.5l0.1,0.8l-3.8,0.7l-0.1-0.7l2-3.6l-2.5,0.4l-0.1-0.7l3.6-0.6L-190.1,492.4z"/>
<path class="st2" d="M-185.7,495.5l-1,0.2l-2.7-4.2l1-0.2l2,3.4l0,0l0.7-3.8l1-0.2L-185.7,495.5z"/>
<path class="st2" d="M-179.9,488.3l-2.8,0.5l0.3,1.8c0.1-0.1,0.3-0.1,0.4-0.2c0.1,0,0.3-0.1,0.4-0.1c0.3-0.1,0.6-0.1,0.9,0
	c0.3,0,0.6,0.1,0.8,0.3c0.2,0.2,0.4,0.4,0.6,0.6c0.2,0.3,0.3,0.6,0.3,0.9c0.1,0.3,0.1,0.7,0,1c-0.1,0.3-0.2,0.6-0.4,0.8
	c-0.2,0.2-0.4,0.5-0.7,0.6c-0.3,0.2-0.6,0.3-0.9,0.3c-0.5,0.1-1,0.1-1.4-0.1c-0.4-0.2-0.8-0.5-1-0.9l0.8-0.5
	c0.2,0.3,0.4,0.5,0.6,0.6c0.3,0.1,0.6,0.2,0.9,0.1c0.2,0,0.4-0.1,0.5-0.2c0.2-0.1,0.3-0.2,0.4-0.4c0.1-0.2,0.2-0.3,0.2-0.5
	c0-0.2,0-0.4,0-0.6c0-0.2-0.1-0.5-0.2-0.6c-0.1-0.2-0.3-0.3-0.4-0.4c-0.2-0.1-0.4-0.2-0.6-0.2c-0.2,0-0.4,0-0.6,0
	c-0.3,0.1-0.5,0.1-0.8,0.2c-0.2,0.1-0.5,0.2-0.7,0.4l-0.6-3.6l3.7-0.7L-179.9,488.3z"/>
<path class="st2" d="M-171.3,491.9c-0.2,0.4-0.5,0.8-0.9,1.1c-0.4,0.3-1,0.5-1.5,0.6c-0.5,0.1-1,0.1-1.5,0c-0.5-0.1-0.9-0.3-1.3-0.5
	c-0.4-0.3-0.7-0.6-1-1c-0.5-0.9-0.7-1.9-0.5-2.9c0.1-0.5,0.3-0.9,0.6-1.3c0.3-0.4,0.6-0.7,1-0.9c0.4-0.3,0.9-0.4,1.4-0.5
	c0.2,0,0.5-0.1,0.7-0.1c0.2,0,0.5,0,0.7,0.1c0.2,0,0.5,0.1,0.7,0.2c0.2,0.1,0.4,0.2,0.5,0.4l-0.6,0.7c-0.2-0.2-0.5-0.4-0.8-0.5
	c-0.3-0.1-0.7-0.1-1,0c-0.4,0.1-0.7,0.2-1,0.4c-0.3,0.2-0.5,0.4-0.7,0.7c-0.2,0.3-0.3,0.6-0.4,1c-0.1,0.4-0.1,0.7,0,1.1
	c0.1,0.4,0.2,0.7,0.4,1c0.2,0.3,0.4,0.6,0.7,0.8c0.3,0.2,0.6,0.4,0.9,0.4c0.4,0.1,0.7,0.1,1.1,0c0.4-0.1,0.7-0.2,1-0.4
	c0.3-0.2,0.5-0.5,0.7-0.8L-171.3,491.9z"/>
<path class="st2" d="M-166.3,485.9l-2.9,5.8l3.9-0.7l0.1,0.9l-5.1,0.9l-0.1-0.8l2.9-5.9l-3.8,0.7l-0.1-0.8l4.9-0.9L-166.3,485.9z"/>
<path class="st2" d="M-161.8,487.7c-0.1-0.2-0.3-0.3-0.5-0.3c-0.2-0.1-0.4-0.1-0.7,0c-0.1,0-0.2,0-0.3,0.1c-0.1,0-0.2,0.1-0.3,0.2
	c-0.1,0.1-0.1,0.1-0.2,0.2c0,0.1,0,0.2,0,0.3c0,0.2,0.2,0.3,0.3,0.4c0.3,0.1,0.5,0.1,0.8,0.1c0.2,0,0.4,0,0.6,0.1
	c0.2,0,0.4,0.1,0.5,0.2c0.2,0.1,0.3,0.2,0.4,0.3c0.1,0.1,0.2,0.3,0.2,0.5c0.1,0.2,0.1,0.5,0,0.7c-0.1,0.2-0.2,0.4-0.3,0.5
	c-0.2,0.2-0.3,0.3-0.5,0.4c-0.2,0.1-0.4,0.2-0.7,0.2c-0.3,0.1-0.7,0.1-1.1,0c-0.3-0.1-0.7-0.2-0.9-0.5l0.6-0.7
	c0.2,0.2,0.4,0.3,0.6,0.4c0.2,0.1,0.5,0.1,0.7,0.1c0.1,0,0.2,0,0.3-0.1c0.1,0,0.2-0.1,0.3-0.2c0.2-0.1,0.2-0.4,0.2-0.6
	c0-0.2-0.2-0.4-0.4-0.4c-0.3-0.1-0.6-0.1-0.9-0.1l-0.5-0.1c-0.2,0-0.3-0.1-0.5-0.1c-0.1-0.1-0.3-0.2-0.4-0.3
	c-0.1-0.2-0.2-0.3-0.2-0.5c-0.1-0.2-0.1-0.4,0-0.7c0.1-0.2,0.2-0.4,0.3-0.5c0.1-0.1,0.3-0.3,0.5-0.4c0.5-0.2,1.1-0.3,1.6-0.2
	c0.3,0.1,0.6,0.2,0.8,0.4L-161.8,487.7z"/>
<path class="st2" d="M-159.2,486.1c0,0.1,0.1,0.2,0.1,0.4s0.1,0.3,0.1,0.4l0,0c0-0.1,0.1-0.3,0.2-0.4c0.1-0.1,0.2-0.2,0.3-0.3
	c0.1-0.1,0.2-0.2,0.4-0.3c0.1-0.1,0.3-0.1,0.5-0.2c0.3-0.1,0.5-0.1,0.8,0c0.2,0.1,0.4,0.2,0.6,0.3c0.2,0.1,0.3,0.3,0.4,0.5
	c0.1,0.2,0.2,0.5,0.2,0.7l0.5,2.8l-0.9,0.2l-0.5-2.5c0-0.2-0.1-0.4-0.1-0.5c-0.1-0.2-0.1-0.3-0.2-0.4c-0.1-0.1-0.2-0.2-0.4-0.2
	c-0.2,0-0.4,0-0.5,0c-0.3,0.1-0.6,0.3-0.8,0.6c-0.2,0.4-0.2,0.8-0.1,1.2l0.4,2.4l-0.9,0.2l-0.6-3.6c0-0.1-0.1-0.3-0.1-0.5
	s-0.1-0.4-0.1-0.5L-159.2,486.1z"/>
<path class="st2" d="M-153,489.7l-1.1,0.2l1.7-7.4l0.9-0.2l4.2,6.3l-1.1,0.2l-1-1.6l-3.2,0.6L-153,489.7z M-152.4,487l2.6-0.5
	l-1.9-3L-152.4,487z"/>
<path class="st2" d="M-145.6,484.1L-145.6,484.1c0.1-0.1,0.2-0.2,0.4-0.2c0.1-0.1,0.3-0.1,0.5-0.1c0.3-0.1,0.6-0.1,0.9,0
	c0.3,0.1,0.5,0.2,0.8,0.3c0.2,0.2,0.4,0.4,0.6,0.6c0.2,0.3,0.3,0.5,0.3,0.8c0.1,0.3,0.1,0.7,0,1c-0.1,0.3-0.2,0.6-0.4,0.8
	c-0.2,0.2-0.4,0.4-0.7,0.6c-0.6,0.3-1.2,0.4-1.9,0.3c-0.3-0.1-0.6-0.2-0.8-0.3c-0.2-0.2-0.5-0.4-0.6-0.6c-0.2-0.3-0.3-0.6-0.3-0.9
	c-0.1-0.3-0.1-0.7,0-1c0.1-0.3,0.2-0.7,0.3-1l1.3-3.1l1.1-0.2L-145.6,484.1z M-146,486.3c0,0.2,0.1,0.4,0.2,0.5
	c0.1,0.2,0.2,0.3,0.4,0.4c0.2,0.1,0.3,0.2,0.5,0.2c0.2,0,0.4,0,0.6,0c0.2,0,0.4-0.1,0.6-0.2c0.2-0.1,0.3-0.2,0.4-0.4
	c0.1-0.2,0.2-0.3,0.2-0.5c0-0.2,0-0.4,0-0.6c0-0.2-0.1-0.4-0.2-0.6c-0.1-0.2-0.2-0.3-0.4-0.4c-0.1-0.1-0.3-0.2-0.5-0.2
	c-0.2,0-0.4,0-0.6,0c-0.2,0-0.4,0.1-0.6,0.2c-0.2,0.1-0.3,0.2-0.4,0.4c-0.1,0.2-0.2,0.3-0.2,0.5C-146,485.9-146,486.1-146,486.3z"/>
<path class="st2" d="M-136.3,486.7l-4.5,0.8l-0.2-0.9l2.2-3.2c0.2-0.2,0.3-0.5,0.4-0.8c0.1-0.3,0.1-0.5,0.1-0.8
	c0-0.2-0.1-0.3-0.2-0.5c-0.2-0.3-0.4-0.4-0.8-0.5c-0.2,0-0.3,0-0.5,0c-0.3,0-0.6,0.2-0.8,0.5c-0.2,0.3-0.3,0.6-0.3,0.9h-0.9
	c0-0.3,0-0.5,0.1-0.8c0.1-0.2,0.2-0.5,0.4-0.7c0.2-0.2,0.4-0.4,0.6-0.5c0.2-0.1,0.5-0.2,0.8-0.3c0.3,0,0.6,0,0.8,0
	c0.3,0,0.5,0.1,0.8,0.2c0.2,0.1,0.4,0.3,0.6,0.5c0.2,0.2,0.3,0.5,0.3,0.8c0,0.2,0,0.4,0,0.6c0,0.2-0.1,0.4-0.1,0.6
	c-0.1,0.2-0.2,0.4-0.3,0.5c-0.1,0.2-0.2,0.3-0.3,0.5l-1.8,2.6l3.4-0.6L-136.3,486.7z"/>
<path class="st2" d="M-131.9,479.7l-2.8,0.5l0.3,1.8c0.1-0.1,0.3-0.1,0.4-0.2c0.1,0,0.3-0.1,0.4-0.1c0.3-0.1,0.6-0.1,0.9,0
	c0.3,0,0.6,0.1,0.8,0.3c0.2,0.2,0.4,0.4,0.6,0.6c0.2,0.3,0.3,0.6,0.3,0.9c0.1,0.3,0.1,0.7,0,1c-0.1,0.3-0.2,0.6-0.4,0.8
	c-0.2,0.2-0.4,0.5-0.7,0.6c-0.3,0.2-0.6,0.3-0.9,0.3c-0.5,0.1-1,0.1-1.4-0.1c-0.4-0.2-0.8-0.5-1-0.9l0.8-0.5
	c0.2,0.2,0.4,0.4,0.6,0.6c0.3,0.1,0.6,0.2,0.9,0.1c0.2,0,0.4-0.1,0.5-0.2c0.2-0.1,0.3-0.2,0.4-0.4c0.1-0.2,0.2-0.3,0.2-0.5
	c0-0.2,0-0.4,0-0.6c0-0.2-0.1-0.5-0.2-0.6c-0.1-0.2-0.3-0.3-0.4-0.4c-0.2-0.1-0.4-0.2-0.6-0.2c-0.2,0-0.4,0-0.6,0
	c-0.3,0.1-0.5,0.1-0.8,0.2c-0.2,0.1-0.5,0.2-0.7,0.4l-0.6-3.6l3.7-0.7L-131.9,479.7z"/>
<path class="st2" d="M-127.1,481.5c-0.1-0.2-0.3-0.3-0.5-0.3c-0.2-0.1-0.4-0.1-0.7,0c-0.1,0-0.2,0-0.3,0.1c-0.1,0-0.2,0.1-0.2,0.2
	c-0.1,0.1-0.1,0.1-0.2,0.2c0,0.1,0,0.2,0,0.3c0,0.2,0.2,0.3,0.3,0.4c0.3,0.1,0.5,0.1,0.8,0.1c0.2,0,0.4,0,0.6,0.1
	c0.2,0,0.4,0.1,0.5,0.2c0.2,0.1,0.3,0.2,0.4,0.3c0.1,0.1,0.2,0.3,0.2,0.5c0.1,0.2,0.1,0.5,0,0.7c-0.1,0.2-0.2,0.4-0.3,0.5
	c-0.2,0.2-0.3,0.3-0.5,0.4c-0.2,0.1-0.4,0.2-0.7,0.2c-0.3,0.1-0.7,0.1-1,0c-0.3-0.1-0.7-0.2-0.9-0.5l0.6-0.7
	c0.2,0.2,0.4,0.3,0.6,0.4c0.2,0.1,0.5,0.1,0.7,0.1c0.1,0,0.2,0,0.3-0.1c0.1,0,0.2-0.1,0.3-0.2c0.1-0.1,0.1-0.2,0.1-0.3
	c0-0.1,0-0.2,0-0.3c0-0.2-0.2-0.4-0.4-0.4c-0.3-0.1-0.6-0.1-0.9-0.1l-0.5-0.1c-0.2,0-0.3-0.1-0.5-0.1c-0.1-0.1-0.3-0.2-0.4-0.3
	c-0.1-0.1-0.2-0.3-0.2-0.5c-0.1-0.2-0.1-0.4,0-0.7c0.1-0.2,0.2-0.4,0.3-0.5c0.1-0.1,0.3-0.3,0.5-0.4c0.2-0.1,0.4-0.2,0.6-0.2
	c0.3-0.1,0.7-0.1,1,0c0.3,0.1,0.6,0.2,0.8,0.4L-127.1,481.5z"/>
<path class="st2" d="M-123.8,480.4l0.3,0c0.2,0,0.4-0.1,0.6-0.2c0.2-0.1,0.3-0.2,0.4-0.3c0.1-0.1,0.2-0.3,0.3-0.4
	c0.1-0.2,0.1-0.4,0-0.6c0-0.2-0.1-0.3-0.2-0.4c-0.1-0.1-0.2-0.2-0.3-0.3c-0.1-0.1-0.3-0.1-0.4-0.2c-0.2,0-0.3,0-0.5,0
	c-0.3,0-0.5,0.2-0.7,0.4c-0.2,0.2-0.3,0.4-0.4,0.7l-0.9-0.1c0.1-0.4,0.3-0.8,0.6-1.1c0.3-0.3,0.8-0.5,1.2-0.6c0.3,0,0.6,0,0.8,0
	c0.3,0,0.5,0.1,0.7,0.2c0.2,0.1,0.4,0.3,0.6,0.5c0.2,0.2,0.3,0.5,0.3,0.8c0,0.2,0,0.4,0,0.6c0,0.2-0.1,0.3-0.2,0.5
	c-0.1,0.2-0.2,0.3-0.3,0.4c-0.1,0.1-0.3,0.2-0.4,0.3l0,0c0.2,0,0.4,0,0.6,0.1c0.2,0.1,0.4,0.2,0.5,0.3c0.3,0.3,0.5,0.6,0.6,1
	c0.1,0.3,0.1,0.6,0,0.9c-0.1,0.3-0.2,0.5-0.4,0.7c-0.2,0.2-0.4,0.4-0.7,0.5c-0.7,0.4-1.6,0.4-2.3,0.2c-0.5-0.2-0.9-0.5-1.1-1
	l0.8-0.4c0.2,0.3,0.4,0.5,0.7,0.6c0.3,0.2,0.7,0.2,1,0.1c0.2,0,0.3-0.1,0.5-0.2c0.2-0.1,0.3-0.2,0.4-0.3c0.1-0.1,0.2-0.3,0.2-0.5
	c0-0.2,0-0.4,0-0.6c0-0.2-0.1-0.4-0.3-0.6c-0.1-0.1-0.3-0.3-0.5-0.3c-0.2-0.1-0.4-0.1-0.6-0.1c-0.2,0-0.4,0-0.6,0l-0.3,0
	L-123.8,480.4z"/>
<path class="st2" d="M-117.1,478.8l1.2-2.8l1.1-0.2l-1.6,3.6l3.1,3.2l-1.2,0.2l-2.4-2.5l-1.3,3.2l-1.2,0.2l1.8-4.1l-2.8-2.8l1.2-0.2
	L-117.1,478.8z"/>
<path class="st2" d="M-110.8,478.1l-1.1,0.2l0.7,3.8l-0.9,0.2l-0.7-3.8l-0.9,0.2l-0.1-0.7l0.9-0.2l-0.2-1c0-0.3,0-0.5,0-0.8
	c0-0.2,0.1-0.4,0.2-0.6c0.1-0.2,0.3-0.4,0.5-0.5c0.2-0.1,0.5-0.2,0.8-0.3c0.2,0,0.4,0,0.6,0v0.8h-0.2h-0.2c-0.1,0-0.3,0.1-0.4,0.2
	c-0.1,0.1-0.2,0.2-0.2,0.3c0,0.1-0.1,0.2-0.1,0.4c0,0.1,0,0.3,0,0.4l0.2,1l1.1-0.2L-110.8,478.1z"/>
<path class="st2" d="M-104.9,481l-4.5,0.8l-0.2-0.9l2.2-3.2c0.2-0.2,0.3-0.5,0.4-0.8c0.1-0.3,0.1-0.5,0.1-0.8c0-0.2-0.1-0.3-0.2-0.5
	c-0.1-0.1-0.2-0.2-0.3-0.3c-0.1-0.1-0.3-0.1-0.4-0.2c-0.2,0-0.3,0-0.5,0c-0.3,0-0.6,0.2-0.8,0.5c-0.2,0.3-0.3,0.6-0.3,0.9h-0.9
	c0-0.3,0-0.5,0.1-0.8c0.1-0.2,0.2-0.5,0.4-0.7c0.2-0.2,0.4-0.4,0.6-0.5c0.2-0.1,0.5-0.2,0.8-0.3c0.3,0,0.6,0,0.8,0
	c0.3,0,0.5,0.1,0.8,0.2c0.2,0.1,0.4,0.3,0.6,0.5c0.2,0.2,0.3,0.5,0.3,0.8c0,0.2,0,0.4,0,0.6c0,0.2-0.1,0.4-0.1,0.6
	c-0.1,0.2-0.2,0.4-0.3,0.5c-0.1,0.2-0.2,0.3-0.3,0.5l-1.8,2.6l3.4-0.6L-104.9,481z"/>
<path class="st2" d="M-103.4,476.1c0,0.1,0,0.2,0.1,0.4c0,0.1,0.1,0.3,0.1,0.4l0,0c0-0.1,0.1-0.3,0.2-0.4c0.1-0.1,0.2-0.2,0.3-0.3
	c0.2-0.2,0.5-0.4,0.9-0.4c0.3-0.1,0.5-0.1,0.8,0c0.2,0.1,0.4,0.2,0.6,0.3c0.2,0.1,0.3,0.3,0.4,0.5c0.1,0.2,0.2,0.5,0.2,0.7l0.5,2.8
	l-0.9,0.2l-0.5-2.5c0-0.2-0.1-0.4-0.1-0.5c-0.1-0.2-0.1-0.3-0.2-0.4c-0.1-0.1-0.2-0.2-0.4-0.2c-0.2,0-0.4,0-0.5,0
	c-0.3,0.1-0.6,0.3-0.8,0.6c-0.2,0.4-0.2,0.8-0.1,1.2l0.4,2.4l-0.9,0.2l-0.6-3.6c0-0.1-0.1-0.3-0.1-0.5s-0.1-0.4-0.1-0.5
	L-103.4,476.1z"/>
<path class="st2" d="M-93.8,476.7v0.1c0,0.1,0,0.1,0,0.2l-3.6,0.6c0,0.2,0.1,0.4,0.2,0.5c0.1,0.2,0.2,0.3,0.4,0.4
	c0.2,0.1,0.3,0.2,0.5,0.2c0.5,0.1,1,0,1.4-0.3c0.2-0.2,0.3-0.4,0.4-0.6l0.7,0.4c-0.2,0.3-0.4,0.6-0.7,0.9c-0.3,0.2-0.7,0.4-1.1,0.4
	c-0.3,0.1-0.7,0.1-1,0c-0.6-0.1-1.2-0.5-1.5-1c-0.2-0.3-0.3-0.6-0.4-1c-0.1-0.3-0.1-0.7,0-1c0.1-0.3,0.2-0.6,0.4-0.9
	c0.2-0.3,0.4-0.5,0.7-0.6c0.6-0.3,1.2-0.5,1.9-0.4c0.3,0.1,0.5,0.2,0.8,0.4c0.2,0.2,0.4,0.4,0.6,0.7C-94,476-93.9,476.3-93.8,476.7z
	 M-94.8,476.5c0-0.2-0.1-0.3-0.2-0.5c-0.2-0.3-0.4-0.5-0.8-0.6c-0.2,0-0.4,0-0.6,0c-0.2,0-0.4,0.1-0.5,0.2c-0.3,0.2-0.5,0.5-0.6,0.8
	c0,0.2,0,0.4,0,0.5L-94.8,476.5z"/>
<path class="st2" d="M-91.3,474c0.2-0.2,0.5-0.4,0.9-0.4c0.3-0.1,0.6,0,0.9,0.1c0.3,0.1,0.5,0.3,0.7,0.6c0.1-0.3,0.3-0.6,0.5-0.8
	c0.2-0.2,0.5-0.3,0.9-0.4c0.3-0.1,0.5-0.1,0.8,0c0.2,0.1,0.4,0.2,0.6,0.3c0.2,0.1,0.3,0.3,0.4,0.5c0.1,0.2,0.2,0.5,0.2,0.7l0.5,2.8
	l-0.9,0.2l-0.5-2.5c0-0.2-0.1-0.4-0.1-0.5c-0.1-0.2-0.1-0.3-0.2-0.4c-0.1-0.1-0.2-0.2-0.4-0.2c-0.2,0-0.3,0-0.5,0
	c-0.2,0-0.4,0.1-0.5,0.2c-0.1,0.1-0.2,0.2-0.3,0.4c-0.1,0.2-0.1,0.3-0.1,0.5c0,0.2,0,0.4,0,0.5l0.5,2.5l-0.9,0.2l-0.5-2.7
	c0-0.2-0.1-0.3-0.1-0.5c-0.1-0.1-0.1-0.3-0.2-0.4c-0.1-0.1-0.2-0.2-0.3-0.2c-0.2,0-0.3,0-0.5,0c-0.3,0-0.6,0.3-0.8,0.6
	c-0.2,0.4-0.2,0.8-0.1,1.2l0.4,2.4l-0.9,0.2l-0.6-3.6c0-0.1-0.1-0.3-0.1-0.5s-0.1-0.4-0.1-0.5l0.9-0.1c0,0.1,0.1,0.2,0.1,0.4
	s0.1,0.3,0.1,0.4l0,0C-91.7,474.5-91.5,474.2-91.3,474z"/>
<path class="st2" d="M-81.6,472.9l-1.2,0.2l0.4,2.4c0,0.2,0.1,0.4,0.3,0.6c0.2,0.1,0.3,0.1,0.5,0.1l0.3-0.1c0.1,0,0.2-0.1,0.2-0.1
	l0.2,0.7c-0.1,0.1-0.2,0.1-0.4,0.2c-0.1,0-0.3,0.1-0.4,0.1c-0.4,0.1-0.7,0-1.1-0.2c-0.3-0.3-0.5-0.6-0.5-1l-0.4-2.5l-0.9,0.2
	l-0.1-0.7l0.9-0.2l-0.2-1.3l0.9-0.2l0.2,1.3l1.2-0.2L-81.6,472.9z"/>
<path class="st2" d="M-77.4,476.1l-1,0.2l-0.5-3l-3.2-3.4l1.2-0.2l2.4,2.8l1.4-3.4l1.1-0.2l-1.9,4.3L-77.4,476.1z"/>
<path class="st2" d="M-74.1,476.3c0.2,0.2,0.5,0.3,0.8,0.4c0.3,0.1,0.7,0.1,1,0c0.3,0,0.5-0.1,0.7-0.3c0.2-0.1,0.3-0.3,0.4-0.5
	c0.1-0.2,0.2-0.4,0.2-0.6c0-0.2,0-0.5,0-0.7l-0.1-0.6l0,0c-0.1,0.3-0.3,0.5-0.6,0.7c-0.3,0.2-0.6,0.3-0.9,0.4c-0.3,0.1-0.7,0.1-1,0
	c-0.3-0.1-0.6-0.2-0.8-0.4c-0.2-0.2-0.4-0.4-0.6-0.7c-0.2-0.3-0.3-0.6-0.3-0.9c-0.1-0.3-0.1-0.7,0-1c0.1-0.3,0.2-0.6,0.3-0.8
	c0.2-0.3,0.4-0.5,0.6-0.6c0.3-0.2,0.6-0.3,0.9-0.4c0.3-0.1,0.7-0.1,1,0c0.3,0.1,0.6,0.3,0.8,0.5l0,0l-0.1-0.7l0.9-0.2l0.8,4.4
	c0,0.3,0,0.7,0,1c0,0.3-0.1,0.6-0.3,0.9c-0.2,0.3-0.4,0.5-0.7,0.7c-0.4,0.2-0.7,0.4-1.2,0.4c-0.4,0.1-0.8,0.1-1.2,0
	c-0.4-0.1-0.8-0.2-1.1-0.4L-74.1,476.3z M-74.4,473.2c0,0.2,0.1,0.4,0.2,0.6c0.2,0.4,0.5,0.6,0.9,0.7c0.2,0,0.4,0,0.7,0
	c0.2,0,0.4-0.1,0.6-0.2c0.2-0.1,0.3-0.3,0.4-0.4c0.1-0.2,0.2-0.4,0.2-0.6c0-0.2,0-0.4,0-0.6c0-0.2-0.1-0.4-0.2-0.6
	c-0.1-0.2-0.2-0.3-0.4-0.5c-0.2-0.1-0.4-0.2-0.6-0.3c-0.2,0-0.4,0-0.7,0c-0.2,0-0.4,0.1-0.6,0.2c-0.2,0.1-0.3,0.3-0.4,0.4
	c-0.1,0.2-0.2,0.4-0.2,0.6C-74.5,472.7-74.5,473-74.4,473.2L-74.4,473.2z"/>
<path class="st2" d="M-69.5,467.6l2.1-0.4c0.3-0.1,0.7-0.1,1-0.1c0.3,0,0.6,0.1,0.8,0.2c0.2,0.1,0.4,0.3,0.6,0.5
	c0.2,0.2,0.3,0.5,0.3,0.8c0.1,0.3,0.1,0.6,0,0.9c-0.1,0.3-0.2,0.5-0.4,0.7c-0.2,0.2-0.5,0.4-0.7,0.5c-0.3,0.1-0.7,0.2-1,0.3
	l-1.1,0.2l0.5,3l-1,0.2L-69.5,467.6z M-68,470.5l1-0.2c0.2,0,0.4-0.1,0.6-0.2c0.2-0.1,0.3-0.2,0.5-0.3c0.1-0.1,0.2-0.2,0.3-0.4
	c0-0.2,0-0.4,0-0.5c0-0.2-0.1-0.4-0.2-0.5c-0.1-0.1-0.2-0.2-0.4-0.3c-0.2-0.1-0.3-0.1-0.5-0.1c-0.2,0-0.4,0-0.6,0.1l-1,0.2
	L-68,470.5z"/>
<path class="st2" d="M-61.2,475.6l-0.9,0.2l-1.2-6.9l0.9-0.2l0.1,0.7l0,0c0.1-0.3,0.3-0.5,0.5-0.7c0.3-0.2,0.6-0.4,1-0.4
	c0.3-0.1,0.7-0.1,1,0c0.3,0.1,0.6,0.2,0.8,0.4c0.2,0.2,0.5,0.4,0.6,0.7c0.3,0.6,0.4,1.2,0.3,1.9c0,0.3-0.2,0.6-0.3,0.9
	c-0.2,0.3-0.4,0.5-0.6,0.6c-0.3,0.2-0.6,0.3-0.9,0.4c-0.3,0.1-0.7,0.1-1,0c-0.3-0.1-0.6-0.3-0.8-0.5l0,0L-61.2,475.6z M-59,470.4
	c0-0.2-0.1-0.4-0.2-0.6c-0.1-0.2-0.2-0.3-0.4-0.5c-0.2-0.1-0.3-0.2-0.5-0.3c-0.2-0.1-0.5-0.1-0.7,0c-0.2,0-0.4,0.1-0.6,0.2
	c-0.2,0.1-0.3,0.3-0.4,0.4c-0.1,0.2-0.2,0.4-0.2,0.6c-0.1,0.4,0,0.9,0.2,1.3c0.1,0.2,0.2,0.3,0.4,0.5c0.2,0.1,0.4,0.2,0.5,0.3
	c0.2,0,0.4,0,0.7,0c0.2,0,0.4-0.1,0.6-0.3c0.2-0.1,0.3-0.3,0.4-0.5c0.1-0.2,0.2-0.4,0.2-0.6C-58.9,470.9-59,470.7-59,470.4
	L-59,470.4z"/>
<path class="st2" d="M-57.3,465.5l1-0.2l0.5,2.9l3.5-0.6l-0.5-2.9l1-0.2l1.2,6.8l-1,0.2l-0.6-3.1l-3.5,0.6l0.6,3.1l-1,0.2
	L-57.3,465.5z"/>
<path class="st2" d="M-45.4,469.6c-0.1,0.3-0.3,0.6-0.6,0.8c-0.3,0.2-0.6,0.3-0.9,0.4c-0.3,0.1-0.7,0.1-1,0
	c-0.3-0.1-0.6-0.2-0.8-0.4c-0.2-0.2-0.4-0.4-0.6-0.7c-0.2-0.3-0.3-0.6-0.3-0.9c-0.1-0.3-0.1-0.7,0-1c0.1-0.3,0.2-0.6,0.3-0.9
	c0.2-0.3,0.4-0.5,0.6-0.6c0.3-0.2,0.6-0.3,0.9-0.4c0.3-0.1,0.7,0,1,0.1c0.3,0.1,0.5,0.3,0.8,0.5l0,0l-0.6-3.4l0.9-0.2l1.3,7.3
	l-0.9,0.2L-45.4,469.6L-45.4,469.6L-45.4,469.6z M-48.7,468.6c0,0.2,0.1,0.4,0.2,0.6c0.1,0.2,0.2,0.3,0.4,0.5
	c0.2,0.1,0.3,0.2,0.5,0.3c0.4,0.1,0.9,0,1.3-0.2c0.2-0.1,0.3-0.3,0.4-0.5c0.1-0.2,0.2-0.4,0.2-0.6c0.1-0.4,0-0.9-0.2-1.2
	c-0.1-0.2-0.2-0.3-0.4-0.5c-0.2-0.1-0.3-0.2-0.5-0.3c-0.2,0-0.4,0-0.7,0c-0.2,0-0.4,0.1-0.6,0.2c-0.2,0.1-0.3,0.3-0.4,0.4
	c-0.1,0.2-0.2,0.4-0.2,0.6C-48.7,468.2-48.7,468.4-48.7,468.6L-48.7,468.6z"/>
<path class="st2" d="M-40.9,468.1L-40.9,468.1l0.6-5.7l1-0.2l2.6,5.2l0,0l0.5-5.7l1-0.2l-0.8,7.2l-1,0.2l-2.6-5.2l0,0l-0.7,5.8
	l-1,0.2l-3.2-6.5l1-0.2L-40.9,468.1z"/>
<path class="st2" d="M-31.9,467.1l3.6-0.6l0.1,0.9l-4.5,0.8l-1.2-6.8l4.4-0.8l0.1,0.8l-3.4,0.6l0.4,2l3.2-0.6l0.1,0.8l-3.2,0.6
	L-31.9,467.1z"/>
<path class="st2" d="M-234.8,513.9l-2.1,3.5l2.7-0.5l0.1,0.8l-3.8,0.7l-0.2-0.7l2-3.5l-2.5,0.4l-0.1-0.7l3.6-0.6L-234.8,513.9z"/>
<path class="st2" d="M-229.8,510.8l-1.7,6.5l-1.1,0.2l1.8-6.5l-3.4,0.6l-0.2-0.8l4.4-0.8L-229.8,510.8z"/>
<path class="st2" d="M-225.1,513.2L-225.1,513.2c-0.1,0.1-0.2,0.2-0.4,0.2l-0.2,0.1l-0.2,0c-0.3,0.1-0.6,0.1-0.9,0
	c-0.3-0.1-0.5-0.2-0.8-0.3c-0.2-0.2-0.4-0.4-0.6-0.6c-0.2-0.3-0.3-0.5-0.3-0.8c-0.1-0.3-0.1-0.7,0-1c0.1-0.3,0.2-0.6,0.4-0.8
	c0.2-0.2,0.4-0.4,0.7-0.6c0.3-0.2,0.6-0.3,0.9-0.3c0.3-0.1,0.7-0.1,1,0c0.3,0.1,0.6,0.2,0.8,0.3c0.2,0.2,0.5,0.4,0.6,0.6
	c0.2,0.3,0.3,0.6,0.3,0.9c0.1,0.3,0.1,0.7,0,1c-0.1,0.3-0.2,0.7-0.3,1l-1.3,3.1l-1.1,0.2L-225.1,513.2z M-224.6,511.1
	c0-0.2-0.1-0.4-0.2-0.6c-0.1-0.2-0.2-0.3-0.4-0.4c-0.3-0.2-0.7-0.3-1.1-0.2c-0.2,0-0.4,0.1-0.6,0.2c-0.2,0.1-0.3,0.2-0.4,0.4
	c-0.1,0.2-0.2,0.3-0.2,0.5c0,0.2,0,0.4,0,0.6c0,0.2,0.1,0.4,0.2,0.6c0.1,0.2,0.2,0.3,0.4,0.4c0.1,0.1,0.3,0.2,0.5,0.2
	c0.2,0,0.4,0,0.6,0c0.2,0,0.4-0.1,0.6-0.2c0.2-0.1,0.3-0.2,0.4-0.4c0.1-0.2,0.2-0.3,0.2-0.5C-224.6,511.5-224.6,511.3-224.6,511.1
	L-224.6,511.1z"/>
<path class="st2" d="M-217.4,512.3c0.1,0.3,0.1,0.7,0,1c-0.1,0.3-0.2,0.6-0.4,0.9c-0.2,0.3-0.4,0.5-0.7,0.6c-0.6,0.4-1.3,0.5-2,0.3
	c-0.3-0.1-0.6-0.2-0.9-0.4c-0.3-0.2-0.5-0.4-0.7-0.7c-0.2-0.3-0.3-0.6-0.4-0.9c-0.1-0.3-0.1-0.7,0-1c0.1-0.6,0.5-1.2,1.1-1.5
	c0.6-0.4,1.3-0.5,1.9-0.4c0.3,0.1,0.6,0.2,0.9,0.4c0.3,0.2,0.5,0.4,0.7,0.7C-217.6,511.7-217.5,512-217.4,512.3z M-218.3,512.5
	c0-0.2-0.1-0.4-0.2-0.6c-0.1-0.2-0.2-0.3-0.4-0.5c-0.2-0.1-0.3-0.2-0.5-0.3c-0.4-0.1-0.9,0-1.3,0.2c-0.2,0.1-0.3,0.3-0.4,0.4
	c-0.1,0.2-0.2,0.4-0.2,0.6c0,0.2,0,0.4,0,0.6c0,0.2,0.1,0.4,0.2,0.6c0.1,0.2,0.2,0.3,0.4,0.5c0.2,0.1,0.3,0.2,0.6,0.3
	c0.4,0.1,0.9,0,1.3-0.2c0.2-0.1,0.3-0.3,0.4-0.5c0.1-0.2,0.2-0.4,0.2-0.6C-218.3,512.9-218.3,512.7-218.3,512.5L-218.3,512.5z"/>
<path class="st2" d="M-215.6,508c0,0.2,0,0.3-0.1,0.5c-0.2,0.3-0.6,0.3-0.9,0.1c-0.1-0.1-0.2-0.2-0.2-0.4c0-0.2,0-0.3,0.1-0.5
	c0.2-0.3,0.6-0.3,0.9-0.1C-215.8,507.7-215.7,507.8-215.6,508z M-216.3,516.1c0.1,0,0.3,0,0.4,0c0.1,0,0.2-0.1,0.3-0.1
	c0.1-0.1,0.1-0.1,0.2-0.2c0-0.1,0-0.2,0-0.3c0-0.1,0-0.3,0-0.4l-0.9-5.1l0.9-0.2l0.9,5.2c0,0.2,0.1,0.4,0.1,0.7c0,0.2,0,0.4-0.1,0.6
	c-0.1,0.2-0.2,0.3-0.4,0.5c-0.2,0.1-0.5,0.2-0.7,0.3h-0.3h-0.3L-216.3,516.1z"/>
<path class="st2" d="M-211.2,512.2L-211.2,512.2l0.6-5.7l1.1-0.2l2.6,5.2l0,0l0.5-5.7l1-0.2l-0.8,7.2l-1,0.2l-2.6-5.2l0,0l-0.7,5.8
	l-1,0.2l-3.2-6.5l1-0.2L-211.2,512.2z"/>
<path class="st2" d="M-203.4,507.5c0,0.1,0.1,0.2,0.1,0.4c0,0.1,0.1,0.3,0.1,0.4l0,0c0-0.1,0.1-0.3,0.2-0.4c0.1-0.1,0.2-0.2,0.3-0.3
	c0.2-0.2,0.5-0.4,0.9-0.4c0.3-0.1,0.5-0.1,0.8,0c0.2,0.1,0.4,0.2,0.6,0.3c0.2,0.1,0.3,0.3,0.4,0.5c0.1,0.2,0.2,0.5,0.2,0.7l0.5,2.8
	l-0.9,0.2l-0.5-2.5c0-0.2-0.1-0.4-0.1-0.5c-0.1-0.2-0.1-0.3-0.2-0.4c-0.1-0.1-0.2-0.2-0.4-0.2c-0.2,0-0.4,0-0.5,0
	c-0.3,0.1-0.6,0.3-0.8,0.6c-0.2,0.4-0.2,0.8-0.2,1.2l0.4,2.4l-0.9,0.2l-0.6-3.6c0-0.1-0.1-0.3-0.1-0.5s-0.1-0.4-0.1-0.5
	L-203.4,507.5z"/>
<path class="st2" d="M-198.7,504.3l2.1-0.4c0.3-0.1,0.7-0.1,1-0.1c0.3,0,0.6,0.1,0.8,0.2c0.2,0.1,0.4,0.3,0.6,0.5
	c0.2,0.2,0.3,0.5,0.3,0.8c0.1,0.3,0.1,0.6,0,0.9c-0.1,0.3-0.2,0.5-0.4,0.7c-0.2,0.2-0.5,0.4-0.7,0.5c-0.3,0.1-0.7,0.2-1,0.3
	l-1.1,0.2l0.5,3l-1,0.2L-198.7,504.3z M-197.2,507.2l1-0.2c0.2,0,0.4-0.1,0.6-0.2c0.2-0.1,0.3-0.2,0.5-0.3c0.1-0.1,0.2-0.2,0.3-0.4
	c0-0.2,0-0.4,0-0.5c0-0.2-0.1-0.3-0.2-0.5c-0.1-0.1-0.2-0.2-0.4-0.3c-0.2-0.1-0.3-0.1-0.5-0.1c-0.2,0-0.4,0-0.6,0.1l-1,0.2
	L-197.2,507.2z"/>
<path class="st2" d="M-191,509.2l0.1,0.7l-0.9,0.2l-1.3-7.3l0.9-0.2l0.6,3.4l0,0c0.3-0.6,0.9-1,1.5-1.1c0.3-0.1,0.7-0.1,1,0
	c0.3,0.1,0.6,0.2,0.8,0.4c0.2,0.2,0.4,0.4,0.6,0.7c0.3,0.6,0.4,1.2,0.3,1.9c0,0.3-0.2,0.6-0.3,0.9c-0.2,0.3-0.4,0.5-0.6,0.6
	c-0.3,0.2-0.6,0.3-0.9,0.4c-0.3,0.1-0.7,0-1-0.1C-190.4,509.7-190.7,509.5-191,509.2L-191,509.2L-191,509.2z M-188.2,507.1
	c0-0.2-0.1-0.4-0.2-0.6c-0.1-0.2-0.2-0.3-0.4-0.5c-0.2-0.1-0.3-0.2-0.5-0.3c-0.2-0.1-0.5-0.1-0.7,0c-0.2,0-0.4,0.1-0.6,0.2
	c-0.2,0.1-0.3,0.3-0.4,0.5c-0.1,0.2-0.2,0.4-0.2,0.6c-0.1,0.4,0,0.9,0.2,1.2c0.1,0.2,0.2,0.3,0.4,0.5c0.2,0.1,0.4,0.2,0.6,0.3
	c0.2,0,0.4,0,0.7,0c0.2,0,0.4-0.1,0.6-0.3c0.2-0.1,0.3-0.3,0.4-0.5c0.1-0.2,0.2-0.4,0.2-0.6C-188.2,507.5-188.2,507.3-188.2,507.1
	L-188.2,507.1z"/>
<path class="st2" d="M-181.9,507.6c-0.1,0.3-0.3,0.6-0.6,0.8c-0.3,0.2-0.6,0.3-0.9,0.4c-0.3,0.1-0.7,0.1-1,0
	c-0.3-0.1-0.6-0.2-0.8-0.4c-0.2-0.2-0.4-0.4-0.6-0.7c-0.2-0.3-0.3-0.6-0.3-0.9c-0.1-0.3-0.1-0.7,0-1c0.1-0.3,0.2-0.6,0.3-0.9
	c0.2-0.3,0.4-0.5,0.6-0.6c0.3-0.2,0.6-0.3,0.9-0.4c0.3-0.1,0.7,0,1,0.1c0.3,0.1,0.5,0.3,0.8,0.5l0,0l-0.6-3.4l0.9-0.2l1.3,7.3
	l-0.9,0.2L-181.9,507.6L-181.9,507.6L-181.9,507.6z M-185.2,506.6c0,0.2,0.1,0.4,0.2,0.6c0.1,0.2,0.2,0.3,0.4,0.5
	c0.2,0.1,0.3,0.2,0.5,0.3c0.2,0.1,0.5,0.1,0.7,0c0.2,0,0.4-0.1,0.6-0.2c0.2-0.1,0.3-0.3,0.4-0.4c0.1-0.2,0.2-0.4,0.2-0.6
	c0.1-0.4,0-0.9-0.2-1.2c-0.1-0.2-0.2-0.3-0.4-0.5c-0.2-0.1-0.3-0.2-0.6-0.3c-0.2-0.1-0.4-0.1-0.7,0c-0.2,0-0.4,0.1-0.6,0.2
	c-0.2,0.1-0.3,0.3-0.4,0.5c-0.1,0.2-0.2,0.4-0.2,0.6C-185.2,506.2-185.2,506.4-185.2,506.6L-185.2,506.6z"/>
<path class="st2" d="M-174.8,501.5c-0.3-0.2-0.6-0.3-0.9-0.4c-0.4-0.1-0.7-0.1-1.1,0c-0.4,0.1-0.7,0.2-1,0.4
	c-0.3,0.2-0.5,0.4-0.7,0.7c-0.2,0.3-0.3,0.6-0.4,1c-0.1,0.4-0.1,0.7,0,1.1c0.1,0.4,0.2,0.7,0.4,1c0.2,0.3,0.4,0.6,0.7,0.8
	c0.3,0.2,0.6,0.4,0.9,0.4c0.4,0.1,0.8,0.1,1.1,0c0.3-0.1,0.6-0.1,0.9-0.2c0.2-0.1,0.5-0.2,0.7-0.4l-0.3-1.9l-1.5,0.3l-0.1-0.8
	l2.5-0.4l0.6,3.3c-0.3,0.3-0.7,0.5-1.1,0.7c-0.4,0.2-0.9,0.3-1.4,0.4c-0.5,0.1-1,0.1-1.5,0c-0.9-0.2-1.7-0.7-2.2-1.5
	c-0.3-0.4-0.4-0.9-0.5-1.4c-0.1-0.5-0.1-1,0-1.5c0.1-0.5,0.3-0.9,0.6-1.3c0.3-0.4,0.6-0.7,1-0.9c0.4-0.3,0.9-0.4,1.4-0.5
	c0.5-0.1,1-0.1,1.5,0c0.4,0.1,0.8,0.2,1.2,0.5L-174.8,501.5z"/>
<circle class="st4" cx="-55.1" cy="396.5" r="11.4"/>
<ellipse transform="matrix(-0.7215 -0.6924 0.6924 -0.7215 -369.4021 644.5037)" class="st5" cx="-55.1" cy="396.5" rx="3.3" ry="20.5"/>
</svg>
