<?xml version="1.0" encoding="utf-8"?>
<!-- Generator: Adobe Illustrator 19.1.0, SVG Export Plug-In . SVG Version: 6.00 Build 0)  -->
<svg version="1.1" xmlns="http://www.w3.org/2000/svg" xmlns:xlink="http://www.w3.org/1999/xlink" x="0px" y="0px" width="214px"
	 height="142px" viewBox="0 0 214 142" style="enable-background:new 0 0 214 142;" xml:space="preserve">
<style type="text/css">
	.st0{display:none;}
	.st1{display:inline;fill:#F05135;}
	.st2{display:inline;fill:#083B54;}
	.st3{display:inline;fill:#6ACAD1;}
	.st4{display:inline;fill:#F59223;}
	.st5{display:inline;fill:none;stroke:#F05135;stroke-width:2.5;stroke-miterlimit:10;}
	.st6{display:inline;fill:none;stroke:#083B54;stroke-width:2.5;stroke-miterlimit:10;}
	.st7{display:inline;fill:none;stroke:#6ACAD1;stroke-width:2.5;stroke-miterlimit:10;}
	.st8{display:inline;fill:none;stroke:#F59223;stroke-width:2.5;stroke-miterlimit:10;}
	.st9{display:inline;fill:#FDD9C8;stroke:#F05135;stroke-width:2.5;stroke-miterlimit:10;}
	.st10{display:inline;fill:#D3D5DB;stroke:#083B54;stroke-width:2.5;stroke-miterlimit:10;}
	.st11{display:inline;fill:#E0F2F3;stroke:#6ACAD1;stroke-width:2.5;stroke-miterlimit:10;}
	.st12{display:inline;fill:#FEE5CB;stroke:#F59223;stroke-width:2.5;stroke-miterlimit:10;}
	.st13{display:inline;fill:#FFFFFF;stroke:#F05135;stroke-width:2.5;stroke-miterlimit:10;}
	.st14{display:inline;fill:#FFFFFF;stroke:#083B54;stroke-width:2.5;stroke-miterlimit:10;}
	.st15{display:inline;fill:#FFFFFF;stroke:#6ACAD1;stroke-width:2.5;stroke-miterlimit:10;}
	.st16{display:inline;fill:#FFFFFF;stroke:#F59223;stroke-width:2.5;stroke-miterlimit:10;}
	.st17{display:inline;}
	.st18{opacity:0.3;fill:none;stroke:#6ACAD1;stroke-width:2.5;stroke-miterlimit:10;}
	.st19{fill:#E0F2F3;stroke:#6ACAD1;stroke-width:2.5;stroke-miterlimit:10;}
	.st20{opacity:0.5;fill:#6ACAD1;}
	.st21{opacity:0.3;fill:none;stroke:#F59223;stroke-miterlimit:10;}
	.st22{fill:none;stroke:#6ACAD1;stroke-width:2.5;stroke-linecap:round;stroke-miterlimit:10;}
	.st23{fill:#FFFFFF;stroke:#6ACAD1;stroke-width:2.5;stroke-miterlimit:10;}
	.st24{fill:#FFFFFF;stroke:#083B54;stroke-width:2.5;stroke-miterlimit:10;}
	.st25{fill:#FFFFFF;}
	.st26{fill:none;stroke:#6ACAD1;stroke-width:2.5;stroke-miterlimit:10;}
	.st27{fill:#E0F2F3;}
	.st28{fill:#D3D5DB;stroke:#083B54;stroke-width:2.5;stroke-miterlimit:10;}
	.st29{fill:#083B54;}
	.st30{opacity:0.2;fill:#083B54;}
	.st31{opacity:0.3;fill:#083B54;}
	.st32{opacity:0.5;fill:#083B54;}
	.st33{opacity:0.85;fill:#083B54;}
	.st34{opacity:0.7;fill:#083B54;}
	.st35{fill:#FEE5CB;stroke:#F59223;stroke-miterlimit:10;}
	.st36{opacity:0.5;fill:#FFFFFF;stroke:#6ACAD1;stroke-linecap:round;stroke-miterlimit:10;}
	.st37{fill:#F05135;}
	.st38{fill:#F59223;}
	.st39{fill:#F05135;stroke:#F05235;stroke-linejoin:round;stroke-miterlimit:10;}
	.st40{fill:#6ACAD1;}
</style>
<g id="template" class="st0">
	<g id="_x38_jq36L_1_" class="st17">
		
			<image style="overflow:visible;" width="1001" height="475" id="_x38_jq36L_2_" xlink:href="F3F9A665FC494811.png"  transform="matrix(1 0 0 1 -593.7675 -106.5307)">
		</image>
	</g>
</g>
<g id="stuffs">
	<path class="st19" d="M36.6,137.8h-6.5c3.3-7.8,2-49.1,2-49.1h6.5C38.6,88.7,39.4,130.9,36.6,137.8z"/>
	<path class="st19" d="M170.1,137.8h-6.5c3.3-7.8,1-49.1,1-49.1h6.5C171.1,88.7,172.9,130.9,170.1,137.8z"/>
	<path class="st23" d="M103.1,139.8h-6.5c3.3-7.8,2-51.1,2-51.1h6.5C105.1,88.7,105.9,132.8,103.1,139.8z"/>
	<path class="st23" d="M59.5,132h6.5c-3.3-7.8-1-43.3-1-43.3h-6.5C58.5,88.7,56.7,125.1,59.5,132z"/>
	<path class="st23" d="M152.2,130.1h6.5c-3.3-7.8-1-41.4-1-41.4h-6.5C151.2,88.7,149.4,123.1,152.2,130.1z"/>
	<path class="st23" d="M73.2,136.8h6.5c-3.3-7.8-2-48.2-2-48.2h-6.5C71.2,88.7,70.4,129.9,73.2,136.8z"/>
	<path class="st23" d="M139.3,137.8h6.5c-3.3-7.8-2-49.1-2-49.1h-6.5C137.3,88.7,136.5,130.9,139.3,137.8z"/>
	<rect x="44.7" y="88.7" class="st19" width="6.5" height="46.2"/>
	<rect x="177.9" y="88.7" class="st19" width="6.5" height="43.3"/>
	<rect x="84.4" y="88.7" class="st23" width="6.5" height="44.3"/>
	<rect x="111.6" y="88.7" class="st23" width="6.5" height="39.4"/>
	<rect x="124.6" y="88.7" class="st23" width="6.5" height="46.2"/>
	<path class="st24" d="M2.2,81.8v11.4c0,0.9,0.9,1.7,2,1.7h206c1.1,0,2-0.8,2-1.7V81.8"/>
	<path class="st28" d="M191.9,58c0-0.3-0.9-0.5-2-0.5H22.5c-1.1,0-2,0.2-2,0.5L2.2,81.3c0,0.3,0.9,0.5,2,0.5h206c1.1,0,2-0.2,2-0.5
		L191.9,58z"/>
	<path class="st29" d="M188.5,65.5c0-0.1-1.9-0.2-2.9-0.2H27.1c-1,0-1.9,0.1-1.9,0.2l-6.9,9.2c0,0.1,0.9,0.2,1.9,0.2h174.2
		c1,0,1.9-0.1,1.9-0.2L188.5,65.5z"/>
	<path class="st19" d="M184.4,72.3V12.1c0-1.1-0.9-2-2.1-2h-65.3V7.6c0-0.5-0.5-1-1-1H98.4c-0.6,0-1,0.5-1,1v2.5H32.1
		c-1.1,0-2.1,0.9-2.1,2v60.3"/>
	<polyline class="st23" points="37.9,72.3 37.9,18.4 176.6,18.4 176.6,72.3 	"/>
	<path class="st23" d="M44,72.3V3.5c0,0,7.9,3.1,30.2,3.1s33,10.5,33,10.5v55.2"/>
	<path class="st23" d="M170.4,72.3V3.5c0,0-7.9,3.1-30.2,3.1s-33,10.5-33,10.5v55.2"/>
	<circle class="st35" cx="138.8" cy="42.1" r="15.1"/>
	<path class="st36" d="M52.5,14.2c0,0,40.5-1.6,46.3,9.2"/>
	<path class="st36" d="M52.5,20.2c0,0,39.5-1.7,46.3,9.2"/>
	<path class="st36" d="M52.5,26.5c0,0,30.7-4.1,46.3,7.8"/>
	<path class="st36" d="M52.5,33.3c0,0,27.2-5.7,46.3,5.2"/>
	<path class="st36" d="M52.5,39.8c0,0,26.1-6.1,46.4,2.8"/>
	<path class="st36" d="M52.5,46.1c0,0,24.6-4.6,46.4,1.3"/>
	<path class="st36" d="M52.5,50.8c0,0,23.7-2.6,46.3,1.1"/>
	<line class="st36" x1="52.5" y1="68.3" x2="98.9" y2="68.3"/>
	<path class="st36" d="M52.5,63.2c0,0,28.1-1.4,46.3,0"/>
	<path class="st36" d="M52.5,56.8c0,0,22.6-2.4,46.3,0"/>
	
		<ellipse transform="matrix(-0.8089 0.588 -0.588 -0.8089 275.8453 -5.5204)" class="st21" cx="138.8" cy="42.1" rx="27.1" ry="4.4"/>
	<path class="st37" d="M80.6,41.4V5.2c0-0.4,0.6-0.7,1.4-0.7h5.6c0.7,0,1.4,0.3,1.4,0.7v36.2l-4.2-2.6L80.6,41.4z"/>
</g>
</svg>
