<svg id="Layer_1" data-name="Layer 1" xmlns="http://www.w3.org/2000/svg" viewBox="0 0 350.58 253.07"><defs><style>.cls-1,.cls-2{fill:#fff;stroke-linejoin:round;}.cls-1{stroke:#c3e9ec;stroke-width:5.69px;}.cls-2{stroke:#6ac9d0;stroke-width:6.04px;}.cls-3{fill:#083b54;}.cls-4{fill:#6ac9d0;}.cls-5{fill:#ffe5ca;}.cls-5,.cls-6{stroke:#f59122;stroke-miterlimit:10;stroke-width:2.26px;}.cls-6{fill:none;opacity:0.3;}</style></defs><title>ipfs illustrations</title><rect class="cls-1" x="35.36" y="50.15" width="264.15" height="150.94" transform="translate(-7.68 10.95) rotate(-3.66)"/><rect class="cls-1" x="40.95" y="50.19" width="264.15" height="150.94" transform="translate(-26.03 47.53) rotate(-14.56)"/><rect class="cls-2" x="43.92" y="49.66" width="264.15" height="150.94" transform="translate(-19.32 33.03) rotate(-10.17)"/><path class="cls-3" d="M73,118.41h0l1.83-9.53,2.52-.45L79.42,120l-1.62.29-1.74-9.7h0L73.92,121l-1,.19-5.57-9h0l1.74,9.7-1.57.28-2.08-11.6,2.52-.45Z"/><path class="cls-3" d="M85.56,112.94a2,2,0,0,0-.86-0.57,2.14,2.14,0,0,0-1.11-.08,2.51,2.51,0,0,0-.51.15,1.61,1.61,0,0,0-.43.26,1,1,0,0,0-.27.37,0.86,0.86,0,0,0,0,.49,0.79,0.79,0,0,0,.57.65,5.5,5.5,0,0,0,1.4.2,8.08,8.08,0,0,1,1.09.13,3.26,3.26,0,0,1,.91.3,2,2,0,0,1,.67.55,1.92,1.92,0,0,1,.36.85,2.42,2.42,0,0,1-.05,1.21,2.31,2.31,0,0,1-.56.9,2.9,2.9,0,0,1-.91.61,5,5,0,0,1-1.12.34,4.62,4.62,0,0,1-1.79,0,3.44,3.44,0,0,1-1.59-.8l0.93-1.13a2.56,2.56,0,0,0,1,.62,2.45,2.45,0,0,0,1.26.1,2.77,2.77,0,0,0,.56-0.16,1.66,1.66,0,0,0,.46-0.28,1,1,0,0,0,.29-0.41,1,1,0,0,0,0-.56,0.87,0.87,0,0,0-.66-0.71,7.11,7.11,0,0,0-1.6-.22c-0.27,0-.55,0-0.84-0.09a2.63,2.63,0,0,1-.8-0.25,1.94,1.94,0,0,1-.64-0.52,1.89,1.89,0,0,1-.37-0.87,2.15,2.15,0,0,1,.06-1.12A2.24,2.24,0,0,1,81.5,112a3,3,0,0,1,.86-0.59,4.26,4.26,0,0,1,2.73-.29,2.72,2.72,0,0,1,1.38.73Z"/><path class="cls-3" d="M91.67,116.81a1.09,1.09,0,0,1-.18.81,1.06,1.06,0,0,1-.73.47,1.08,1.08,0,0,1-.84-0.18,1,1,0,0,1-.45-0.69,1.1,1.1,0,0,1,.9-1.28,1.08,1.08,0,0,1,.84.17A1,1,0,0,1,91.67,116.81Z"/><path class="cls-3" d="M100.33,116.27l-1.62.29L96.63,105l7.24-1.3,0.25,1.43-5.62,1,0.65,3.61,5.26-.94,0.25,1.39-5.26.94Z"/><path class="cls-3" d="M107.9,104a0.93,0.93,0,0,1-.17.76,1,1,0,0,1-.67.41,1,1,0,0,1-.77-0.16,1,1,0,0,1-.42-0.64,1,1,0,0,1,.17-0.76,1,1,0,0,1,.66-0.42,1,1,0,0,1,.77.16A1,1,0,0,1,107.9,104Zm1.65,10.61-1.54.28-1.39-7.77,1.54-.28Z"/><path class="cls-3" d="M113.85,113.85l-1.54.28-2.22-12.39,1.54-.28Z"/><path class="cls-3" d="M123.18,108.1l0,0.26a2.41,2.41,0,0,1,0,.26l-6.18,1.11a2.34,2.34,0,0,0,.39.88,2.45,2.45,0,0,0,.68.65,2.58,2.58,0,0,0,.88.35,2.82,2.82,0,0,0,2.29-.58,2.82,2.82,0,0,0,.75-1l1.24,0.67a3.94,3.94,0,0,1-1.25,1.48,4.51,4.51,0,0,1-1.81.73,4.56,4.56,0,0,1-1.69,0,3.86,3.86,0,0,1-1.44-.6,3.93,3.93,0,0,1-1.08-1.13,4.4,4.4,0,0,1-.61-1.62,4.51,4.51,0,0,1,0-1.72,3.87,3.87,0,0,1,.61-1.45,3.94,3.94,0,0,1,1.13-1.07,4.45,4.45,0,0,1,3.14-.59,3.26,3.26,0,0,1,1.33.59,3.69,3.69,0,0,1,1,1.14A5.14,5.14,0,0,1,123.18,108.1Zm-1.68-.34a3,3,0,0,0-.31-0.83,2,2,0,0,0-.53-0.62,2,2,0,0,0-.76-0.35,2.42,2.42,0,0,0-1,0,2.52,2.52,0,0,0-.89.34,2.43,2.43,0,0,0-.67.6,2.48,2.48,0,0,0-.4.79,2.26,2.26,0,0,0-.08.9Z"/><path class="cls-3" d="M136,107.1h0l1.83-9.53,2.52-.45,2.08,11.6-1.62.29-1.74-9.7h0L137,109.7l-1,.19-5.57-9h0l1.74,9.7-1.57.28-2.08-11.6,2.52-.45Z"/><path class="cls-3" d="M149.8,101.42a1.91,1.91,0,0,0-.85-0.5,2.3,2.3,0,0,0-1.09-.07,2.44,2.44,0,0,0-1,.42,2.48,2.48,0,0,0-.68.76,2.71,2.71,0,0,0-.34,1,3.45,3.45,0,0,0,.38,2.13,2.72,2.72,0,0,0,.66.8,2.44,2.44,0,0,0,.91.47,2.69,2.69,0,0,0,2.15-.39,2.22,2.22,0,0,0,.68-0.76l1.2,0.75a3.39,3.39,0,0,1-1.07,1.11,4.22,4.22,0,0,1-1.61.62,4.65,4.65,0,0,1-1.72,0,4,4,0,0,1-1.47-.59,3.89,3.89,0,0,1-1.11-1.13,4.34,4.34,0,0,1-.62-1.63,4.4,4.4,0,0,1,0-1.73,3.87,3.87,0,0,1,.64-1.45,4,4,0,0,1,1.17-1.07,4.59,4.59,0,0,1,1.59-.59,4.39,4.39,0,0,1,1.69,0,3,3,0,0,1,1.46.72Z"/><path class="cls-3" d="M155.38,106.4l-1.62.29-2.08-11.6,7.24-1.3,0.25,1.43-5.62,1,0.65,3.6,5.26-.94,0.25,1.39-5.26.94Z"/><path class="cls-3" d="M163,94.14a0.94,0.94,0,0,1-.17.76,1,1,0,0,1-.67.41,1,1,0,0,1-.77-0.16,1,1,0,0,1-.42-0.64,1,1,0,0,1,.17-0.76,1,1,0,0,1,.66-0.42,1,1,0,0,1,.77.16A1,1,0,0,1,163,94.14Zm1.65,10.61-1.54.28-1.39-7.77,1.54-.28Z"/><path class="cls-3" d="M168.9,104l-1.54.28-2.22-12.39,1.54-.28Z"/><path class="cls-3" d="M178.23,98.23l0,0.26a2.41,2.41,0,0,1,0,.26l-6.18,1.11a2.34,2.34,0,0,0,.39.88,2.44,2.44,0,0,0,.68.65,2.58,2.58,0,0,0,.88.35,2.82,2.82,0,0,0,2.29-.58,2.8,2.8,0,0,0,.75-1l1.24,0.67a3.94,3.94,0,0,1-1.25,1.48,4.78,4.78,0,0,1-3.5.73,3.78,3.78,0,0,1-2.53-1.73,4.38,4.38,0,0,1-.61-1.62,4.53,4.53,0,0,1,0-1.72,3.87,3.87,0,0,1,.61-1.46,3.94,3.94,0,0,1,1.13-1.07,4.46,4.46,0,0,1,3.14-.59,3.25,3.25,0,0,1,1.33.59,3.66,3.66,0,0,1,1,1.14A5.11,5.11,0,0,1,178.23,98.23Zm-1.68-.34a3,3,0,0,0-.31-0.83,2,2,0,0,0-.54-0.62,2,2,0,0,0-.75-0.35,2.42,2.42,0,0,0-1,0,2.52,2.52,0,0,0-.89.34,2.42,2.42,0,0,0-.67.6,2.49,2.49,0,0,0-.4.79,2.24,2.24,0,0,0-.08.9Z"/><path class="cls-3" d="M179.89,94.89q-0.1-.49-0.2-0.86l1.46-.26c0.06,0.19.11,0.42,0.17,0.67s0.1,0.46.13,0.63h0a2.73,2.73,0,0,1,.76-1.28,2.55,2.55,0,0,1,1.34-.67,2.37,2.37,0,0,1,.62,0l0.19,1.44a2.94,2.94,0,0,0-.72,0,2.16,2.16,0,0,0-.93.38,2,2,0,0,0-.58.67,2.36,2.36,0,0,0-.26.87,3.38,3.38,0,0,0,0,1l0.73,4.08-1.54.28-1.09-6.1C180,95.48,180,95.21,179.89,94.89Z"/><path class="cls-3" d="M190.58,93.38l-2.06.37,0.72,4a1.56,1.56,0,0,0,.44,1,1.07,1.07,0,0,0,.89.15,2.68,2.68,0,0,0,.45-0.13,1.89,1.89,0,0,0,.42-0.21l0.28,1.25a3.85,3.85,0,0,1-.59.27,4.19,4.19,0,0,1-.68.18,2.26,2.26,0,0,1-1.79-.3,2.58,2.58,0,0,1-.91-1.72L187,94l-1.49.27L185.28,93l1.49-.27-0.4-2.23,1.52-.27,0.4,2.23,2.06-.37Z"/><path class="cls-3" d="M200.57,94.27a4.31,4.31,0,0,1,0,1.71,4,4,0,0,1-1.83,2.55,4.73,4.73,0,0,1-3.31.59,3.92,3.92,0,0,1-1.48-.61,4,4,0,0,1-1.11-1.15,4.24,4.24,0,0,1-.62-1.6,4.19,4.19,0,0,1,0-1.7,4,4,0,0,1,.65-1.44A4,4,0,0,1,194,91.55a4.74,4.74,0,0,1,3.31-.59,4.12,4.12,0,0,1,1.49.6A3.94,3.94,0,0,1,200,92.69,4.22,4.22,0,0,1,200.57,94.27Zm-1.61.3a3.32,3.32,0,0,0-.36-1,2.75,2.75,0,0,0-.66-0.8,2.45,2.45,0,0,0-.92-0.47,2.86,2.86,0,0,0-2.22.4,2.45,2.45,0,0,0-.7.76,2.72,2.72,0,0,0-.34,1,3.42,3.42,0,0,0,.38,2.12,2.81,2.81,0,0,0,.66.81,2.39,2.39,0,0,0,.92.48,2.85,2.85,0,0,0,2.22-.4,2.4,2.4,0,0,0,.7-0.77,2.85,2.85,0,0,0,.34-1A3.34,3.34,0,0,0,199,94.57Z"/><path class="cls-3" d="M203.48,89.76c0.06,0.19.11,0.41,0.17,0.65s0.1,0.45.13,0.61h0a2.3,2.3,0,0,1,.3-0.65,3,3,0,0,1,2-1.29,3.08,3.08,0,0,1,1.34,0,2.65,2.65,0,0,1,1,.52,2.78,2.78,0,0,1,.71.9,4.27,4.27,0,0,1,.39,1.2l0.86,4.82-1.54.28L208.1,92.5a5.38,5.38,0,0,0-.23-0.89,2.23,2.23,0,0,0-.41-0.71,1.49,1.49,0,0,0-.63-0.43,1.79,1.79,0,0,0-.92,0,1.89,1.89,0,0,0-1.37,1,2.85,2.85,0,0,0-.25,2L205,97.5l-1.54.28-1.09-6.1c0-.21-0.09-0.47-0.16-0.8S202.09,90.27,202,90Z"/><path class="cls-3" d="M76,152l-1.15.21-1.26-7-1.36,1.62-0.82-.68,2-2.37,1-.18Z"/><path class="cls-3" d="M79.67,146.16v0a1.52,1.52,0,0,1,.45-0.25,3.06,3.06,0,0,1,.56-0.16,2.74,2.74,0,0,1,1.07,0,2.62,2.62,0,0,1,.94.4,2.55,2.55,0,0,1,.71.74,2.8,2.8,0,0,1,.39,1,3,3,0,0,1,0,1.19,2.64,2.64,0,0,1-.46,1,2.83,2.83,0,0,1-.82.74,3.42,3.42,0,0,1-2.32.41,2.81,2.81,0,0,1-1-.41,2.7,2.7,0,0,1-.77-0.77A2.81,2.81,0,0,1,78,149a3.38,3.38,0,0,1,0-1.29,7.28,7.28,0,0,1,.39-1.25L80,142.6l1.37-.25Zm-0.52,2.67a2,2,0,0,0,.25.67,1.66,1.66,0,0,0,.46.5,1.77,1.77,0,0,0,1.36.3,1.87,1.87,0,0,0,.69-0.26,1.61,1.61,0,0,0,.48-0.47,1.71,1.71,0,0,0,.25-0.64,2,2,0,0,0,0-.74,1.91,1.91,0,0,0-.25-0.68,1.73,1.73,0,0,0-.45-0.5,1.51,1.51,0,0,0-.61-0.27,1.92,1.92,0,0,0-.74,0,2,2,0,0,0-.7.26,1.61,1.61,0,0,0-.49.47,1.67,1.67,0,0,0-.26.63A2,2,0,0,0,79.15,148.83Z"/><path class="cls-3" d="M90,146.54l1.22-.22,0.18,1-1.22.22,0.34,1.9-1.12.2L89,147.73l-3.89.7-0.19-1,2.61-6.14L89,141Zm-1.88-4h0l-1.91,4.71,2.7-.48Z"/><path class="cls-3" d="M94.07,143.75l0.37-.07a3.78,3.78,0,0,0,.69-0.19,1.84,1.84,0,0,0,.56-0.34,1.27,1.27,0,0,0,.34-0.51,1.35,1.35,0,0,0,0-.71,1.38,1.38,0,0,0-.22-0.56,1.27,1.27,0,0,0-.41-0.38,1.62,1.62,0,0,0-.53-0.2,1.59,1.59,0,0,0-.58,0,1.53,1.53,0,0,0-.86.44,1.7,1.7,0,0,0-.43.87l-1.12-.18a2.54,2.54,0,0,1,.78-1.38,2.93,2.93,0,0,1,1.5-.72,3.37,3.37,0,0,1,1,0,2.56,2.56,0,0,1,.9.29,2.1,2.1,0,0,1,.69.62,2.29,2.29,0,0,1,.38,1,2,2,0,0,1,0,.69A2,2,0,0,1,97,143a2,2,0,0,1-.39.51,2,2,0,0,1-.55.37v0a2.31,2.31,0,0,1,.73.13,2,2,0,0,1,.62.35,2.11,2.11,0,0,1,.73,1.28,2.53,2.53,0,0,1,0,1.16,2.42,2.42,0,0,1-.48.92,2.76,2.76,0,0,1-.81.65,3.61,3.61,0,0,1-2.87.22,2.64,2.64,0,0,1-1.36-1.21l1-.55a1.88,1.88,0,0,0,.81.78,1.84,1.84,0,0,0,1.19.14,1.94,1.94,0,0,0,.61-0.21,1.63,1.63,0,0,0,.49-0.4,1.55,1.55,0,0,0,.29-0.57,1.65,1.65,0,0,0,0-.73,1.38,1.38,0,0,0-.32-0.71,1.54,1.54,0,0,0-.58-0.39,2.13,2.13,0,0,0-.73-0.14,3.88,3.88,0,0,0-.77.06l-0.36.06Z"/><path class="cls-3" d="M100.89,142.69h0l3.1-4.4,1.63-.29-3.41,4.6,5.18,3.8-1.69.3L101,143h0l0.78,4.37-1.18.21L99,139.18l1.18-.21Z"/><path class="cls-3" d="M107.11,137.73l2.91-.52a4.36,4.36,0,0,1,1-.06,2.55,2.55,0,0,1,.92.2,2,2,0,0,1,.73.55,2.06,2.06,0,0,1,.41,1,1.79,1.79,0,0,1-.2,1.25,2.1,2.1,0,0,1-1,.85v0a2.46,2.46,0,0,1,.79.07,2,2,0,0,1,.67.32,1.86,1.86,0,0,1,.5.55,2.28,2.28,0,0,1,.28.78,2.12,2.12,0,0,1-.61,2,3.22,3.22,0,0,1-.93.62,5,5,0,0,1-1.21.37l-2.78.5Zm1.82,3.36,1.54-.28a2.62,2.62,0,0,0,.62-0.19,1.64,1.64,0,0,0,.49-0.33,1.17,1.17,0,0,0,.29-0.47,1.25,1.25,0,0,0,0-.61,1.05,1.05,0,0,0-.68-0.88,2.72,2.72,0,0,0-1.4,0l-1.35.24Zm0.69,3.88,1.48-.26a4.46,4.46,0,0,0,.73-0.2,2.19,2.19,0,0,0,.64-0.36,1.35,1.35,0,0,0,.41-0.53,1.28,1.28,0,0,0,.06-0.74,1.22,1.22,0,0,0-.71-1,2.77,2.77,0,0,0-1.54-.07l-1.59.28Z"/><path class="cls-4" d="M77.12,173.14l-1,.18L74.76,166l1-.18Z"/><path class="cls-4" d="M77.78,165.42L80,165a4.69,4.69,0,0,1,1.1-.07,2.39,2.39,0,0,1,.9.22,1.72,1.72,0,0,1,.64.54,2.13,2.13,0,0,1,.35.89,2.06,2.06,0,0,1,0,1,1.79,1.79,0,0,1-.45.75,2.56,2.56,0,0,1-.79.52,4.64,4.64,0,0,1-1,.31l-1.16.21,0.58,3.23-1,.18Zm1.61,3.07,1.09-.2a3.33,3.33,0,0,0,.68-0.19,1.73,1.73,0,0,0,.51-0.31,1,1,0,0,0,.29-0.43,1.18,1.18,0,0,0,0-.58,1.1,1.1,0,0,0-.23-0.53,1.05,1.05,0,0,0-.42-0.3,1.5,1.5,0,0,0-.57-0.1,4,4,0,0,0-.69.07l-1.11.2Z"/><path class="cls-4" d="M86.35,171.48l-1,.18L84,164.31l4.6-.82,0.16,0.9-3.57.64,0.41,2.29,3.34-.6,0.16,0.88-3.34.6Z"/><path class="cls-4" d="M93.88,163.94a1.67,1.67,0,0,0-.68-0.39,1.84,1.84,0,0,0-.88,0,2,2,0,0,0-.49.16,1.37,1.37,0,0,0-.42.3,1.21,1.21,0,0,0-.27.43,1.06,1.06,0,0,0,0,.56,1,1,0,0,0,.21.48,1.1,1.1,0,0,0,.38.29,2.12,2.12,0,0,0,.52.15l0.63,0.1,0.8,0.12a2.79,2.79,0,0,1,.77.26,1.79,1.79,0,0,1,1,1.38,2.21,2.21,0,0,1,0,1,2.06,2.06,0,0,1-.44.8,2.47,2.47,0,0,1-.74.56,3.4,3.4,0,0,1-.93.31,3.54,3.54,0,0,1-1.4,0,2.72,2.72,0,0,1-1.22-.61L91.3,169a2,2,0,0,0,.81.5,2,2,0,0,0,1,.07,1.9,1.9,0,0,0,.51-0.17,1.43,1.43,0,0,0,.43-0.31,1.27,1.27,0,0,0,.28-0.45,1.15,1.15,0,0,0,0-.59,1,1,0,0,0-.24-0.53,1.27,1.27,0,0,0-.45-0.31,2.62,2.62,0,0,0-.6-0.17l-0.71-.1a5.75,5.75,0,0,1-.74-0.13,2.46,2.46,0,0,1-.68-0.27,1.82,1.82,0,0,1-.54-0.5,2,2,0,0,1-.32-0.82,1.91,1.91,0,0,1,.05-1,2.07,2.07,0,0,1,.46-0.76,2.48,2.48,0,0,1,.74-0.53,3.63,3.63,0,0,1,.89-0.28,3.22,3.22,0,0,1,1.25,0,2.47,2.47,0,0,1,1,.45Z"/><path class="cls-4" d="M98.7,161.67l1-.18,0.55,3.08,3.72-.67-0.55-3.08,1-.19,1.32,7.36-1,.19-0.6-3.37-3.72.67,0.6,3.37-1,.18Z"/><path class="cls-4" d="M108.11,167.58l-1.14.21,1.87-7.94,0.94-.17,4.48,6.8-1.17.21L112,165l-3.5.63Zm0.62-2.91,2.76-.49-2-3.21Z"/><path class="cls-4" d="M118.1,159.6a1.68,1.68,0,0,0-.68-0.39,1.86,1.86,0,0,0-.88,0,2.09,2.09,0,0,0-.49.16,1.38,1.38,0,0,0-.42.3,1.21,1.21,0,0,0-.27.43,1.07,1.07,0,0,0,0,.56,1,1,0,0,0,.21.48,1.1,1.1,0,0,0,.38.29,2.13,2.13,0,0,0,.52.15l0.62,0.1,0.8,0.12a2.78,2.78,0,0,1,.77.26,1.79,1.79,0,0,1,1,1.38,2.19,2.19,0,0,1,0,1,2.06,2.06,0,0,1-.44.8,2.45,2.45,0,0,1-.74.56,3.41,3.41,0,0,1-.93.31,3.54,3.54,0,0,1-1.4,0,2.69,2.69,0,0,1-1.22-.61l0.68-.82a2,2,0,0,0,1.8.57,1.91,1.91,0,0,0,.51-0.17,1.43,1.43,0,0,0,.43-0.31,1.29,1.29,0,0,0,.28-0.45,1.13,1.13,0,0,0,0-.59,1,1,0,0,0-.24-0.53,1.24,1.24,0,0,0-.45-0.31,2.61,2.61,0,0,0-.6-0.17l-0.71-.1a5.87,5.87,0,0,1-.74-0.13,2.48,2.48,0,0,1-.68-0.28,1.82,1.82,0,0,1-.54-0.5,2,2,0,0,1-.32-0.82,1.91,1.91,0,0,1,.05-1,2.07,2.07,0,0,1,.46-0.76,2.49,2.49,0,0,1,.74-0.53,3.68,3.68,0,0,1,.89-0.28,3.23,3.23,0,0,1,1.25,0,2.47,2.47,0,0,1,1,.45Z"/><path class="cls-4" d="M120.25,157.81l1-.18,0.55,3.08,3.72-.67L125,157l1-.19,1.32,7.36-1,.19-0.6-3.37-3.72.67,0.6,3.37-1,.18Z"/><path class="cls-4" d="M129.81,159.24a0.7,0.7,0,0,1-.57.81,0.69,0.69,0,0,1-.53-0.11,0.65,0.65,0,0,1-.29-0.44,0.68,0.68,0,0,1,.11-0.51,0.67,0.67,0,0,1,.46-0.3,0.68,0.68,0,0,1,.54.11A0.67,0.67,0,0,1,129.81,159.24Zm0.66,3.69a0.69,0.69,0,0,1-.11.51,0.67,0.67,0,0,1-.46.3,0.68,0.68,0,0,1-.53-0.11,0.67,0.67,0,0,1-.29-0.44,0.7,0.7,0,0,1,.57-0.81,0.69,0.69,0,0,1,.54.11A0.67,0.67,0,0,1,130.48,162.93Z"/><path class="cls-3" d="M85.59,185.12l-4,.72a4,4,0,0,1-1.48,0,3.39,3.39,0,0,1-1.25-.5,3.14,3.14,0,0,1-.93-1,3.91,3.91,0,0,1-.52-1.4,3.66,3.66,0,0,1,0-1.46,3.36,3.36,0,0,1,1.54-2.17,3.84,3.84,0,0,1,1.38-.52,3.8,3.8,0,0,1,1.46,0,3.45,3.45,0,0,1,1.25.52,3.35,3.35,0,0,1,.94,1,3.72,3.72,0,0,1,.52,1.37,3.27,3.27,0,0,1-.1,1.67,3,3,0,0,1-.83,1.27v0l1.88-.34Zm-7.17-2.33a3.09,3.09,0,0,0,.37,1,2.58,2.58,0,0,0,.66.75,2.43,2.43,0,0,0,.89.42,2.74,2.74,0,0,0,2.07-.37,2.4,2.4,0,0,0,.69-0.71,2.58,2.58,0,0,0,.36-0.94,3,3,0,0,0,0-1.08,3.1,3.1,0,0,0-.36-1,2.54,2.54,0,0,0-.65-0.75,2.43,2.43,0,0,0-.89-0.43,2.55,2.55,0,0,0-2.78,1.09,2.58,2.58,0,0,0-.36.94A3,3,0,0,0,78.42,182.78Z"/><path class="cls-3" d="M87.45,180.19a1.61,1.61,0,0,1,.86-0.42,1.67,1.67,0,0,1,.87.06,1.44,1.44,0,0,1,.71.6,1.68,1.68,0,0,1,.53-0.8,1.83,1.83,0,0,1,.87-0.4,1.78,1.78,0,0,1,.79,0,1.58,1.58,0,0,1,.6.3,1.62,1.62,0,0,1,.42.53,2.47,2.47,0,0,1,.23.71l0.51,2.84-0.91.16-0.46-2.54a2.8,2.8,0,0,0-.14-0.52,1.32,1.32,0,0,0-.24-0.42,0.9,0.9,0,0,0-.36-0.25,1,1,0,0,0-.51,0,1,1,0,0,0-.51.23,1.11,1.11,0,0,0-.3.4,1.45,1.45,0,0,0-.12.5,2.36,2.36,0,0,0,0,.54l0.44,2.47-0.91.16-0.49-2.72a2.43,2.43,0,0,0-.14-0.48,1,1,0,0,0-.23-0.35,0.81,0.81,0,0,0-.34-0.2,1.11,1.11,0,0,0-1.23.55,1.71,1.71,0,0,0-.14,1.16l0.44,2.43-0.91.16-0.64-3.59c0-.12-0.05-0.28-0.09-0.47s-0.08-.36-0.12-0.51l0.86-.15q0,0.17.1,0.39c0,0.14.06,0.26,0.07,0.36h0A1.57,1.57,0,0,1,87.45,180.19Z"/><path class="cls-3" d="M97.53,183l-1,.17-0.53-3-3.25-3.42,1.18-.21,2.45,2.75,1.35-3.43,1.11-.2L97,180Z"/><path class="cls-3" d="M100.26,177.76l1.66,3.31h0l0.46-3.69,1-.17,1.74,3.3h0l0.41-3.68,1-.17-0.7,4.85-0.95.17-1.75-3.24h0l-0.5,3.64-0.95.17-2.35-4.3Z"/><path class="cls-3" d="M108.59,181l-1.06.19,1.74-7.37,0.87-.16L114.3,180l-1.08.19-1-1.55-3.24.58Zm0.57-2.7,2.56-.46-1.85-3Z"/><path class="cls-3" d="M114.18,172.93l2.09-.37a4.33,4.33,0,0,1,1-.07,2.22,2.22,0,0,1,.83.21,1.58,1.58,0,0,1,.6.5,2,2,0,0,1,.33.83,1.92,1.92,0,0,1,0,.91,1.64,1.64,0,0,1-.42.69,2.37,2.37,0,0,1-.73.48,4.24,4.24,0,0,1-1,.29l-1.08.19,0.54,3-1,.17Zm1.5,2.85,1-.18a3.12,3.12,0,0,0,.63-0.18,1.63,1.63,0,0,0,.47-0.28,0.93,0.93,0,0,0,.27-0.4,1.09,1.09,0,0,0,0-.54,1,1,0,0,0-.21-0.5,1,1,0,0,0-.39-0.28,1.4,1.4,0,0,0-.53-0.09,3.55,3.55,0,0,0-.64.06l-1,.19Z"/><path class="cls-3" d="M120.43,177.29a1.14,1.14,0,0,0,.45.55,0.93,0.93,0,0,0,.69.13,1,1,0,0,0,.49-0.21,0.88,0.88,0,0,0,.26-0.37,1.49,1.49,0,0,0,.08-0.49,3.3,3.3,0,0,0-.05-0.57l-0.84-4.7,1-.17,0.85,4.74a3.92,3.92,0,0,1,.06.77,2.19,2.19,0,0,1-.16.79,1.71,1.71,0,0,1-.49.67,2.27,2.27,0,0,1-2.29.22,1.9,1.9,0,0,1-.83-0.93Z"/><path class="cls-3" d="M127.91,173.57l-2.06,3.54,2.71-.49,0.14,0.76-3.83.69-0.13-.74,2-3.56-2.46.44-0.13-.74,3.6-.65Z"/><path class="cls-3" d="M132.36,176.73l-1,.18-2.69-4.24,1-.18,2,3.36h0L132.4,172l1-.17Z"/><path class="cls-3" d="M138.08,169.5l-2.82.51,0.26,1.8a2.16,2.16,0,0,1,.41-0.17,3.54,3.54,0,0,1,.44-0.11,2.77,2.77,0,0,1,.94,0,2.13,2.13,0,0,1,.8.3,2,2,0,0,1,.6.6,2.25,2.25,0,0,1,.33.86,2.52,2.52,0,0,1,0,1,2.19,2.19,0,0,1-.37.83,2.27,2.27,0,0,1-.67.61,2.64,2.64,0,0,1-.92.34,2.4,2.4,0,0,1-1.42-.13,2.36,2.36,0,0,1-1-.85l0.79-.49a1.47,1.47,0,0,0,.64.58,1.4,1.4,0,0,0,.86.1,1.48,1.48,0,0,0,.54-0.21,1.37,1.37,0,0,0,.4-0.38,1.41,1.41,0,0,0,.22-0.52,1.59,1.59,0,0,0,0-.62,1.65,1.65,0,0,0-.25-0.65,1.33,1.33,0,0,0-.44-0.41,1.46,1.46,0,0,0-.56-0.18,2.17,2.17,0,0,0-.62,0,3.19,3.19,0,0,0-.77.25,3.71,3.71,0,0,0-.68.4l-0.55-3.65,3.69-.66Z"/><path class="cls-3" d="M146.71,173.06a3.09,3.09,0,0,1-.89,1.08,3.33,3.33,0,0,1-1.49.62,3.91,3.91,0,0,1-1.49,0,3.42,3.42,0,0,1-1.27-.54,3.48,3.48,0,0,1-1-1,4.1,4.1,0,0,1-.52-2.92,3.36,3.36,0,0,1,.56-1.27,3.51,3.51,0,0,1,1-.94,4,4,0,0,1,1.4-.52,3.93,3.93,0,0,1,.72-0.06,3.69,3.69,0,0,1,.72.08,2.9,2.9,0,0,1,.66.23,2.19,2.19,0,0,1,.54.38l-0.65.71a1.93,1.93,0,0,0-.81-0.45,2.25,2.25,0,0,0-1,0,2.6,2.6,0,0,0-1,.41,2.46,2.46,0,0,0-.71.74,2.74,2.74,0,0,0-.36,1,3.07,3.07,0,0,0,0,1.09,3.26,3.26,0,0,0,.37,1.05,2.64,2.64,0,0,0,.67.78,2.41,2.41,0,0,0,.92.44,2.64,2.64,0,0,0,1.11,0,2.4,2.4,0,0,0,1-.42,2.08,2.08,0,0,0,.66-0.82Z"/><path class="cls-3" d="M151.73,167.07l-2.94,5.84,3.92-.7,0.15,0.85-5.08.91-0.15-.84,2.93-5.85-3.78.68-0.15-.84,4.94-.89Z"/><path class="cls-3" d="M156.2,168.93a1.21,1.21,0,0,0-.51-0.33,1.28,1.28,0,0,0-.66,0,1.42,1.42,0,0,0-.3.09,0.91,0.91,0,0,0-.26.16,0.61,0.61,0,0,0-.16.22,0.51,0.51,0,0,0,0,.29,0.47,0.47,0,0,0,.34.38,3.28,3.28,0,0,0,.83.12,5,5,0,0,1,.64.07,1.93,1.93,0,0,1,.54.18,1.15,1.15,0,0,1,.39.32,1.11,1.11,0,0,1,.21.5,1.43,1.43,0,0,1,0,.71,1.38,1.38,0,0,1-.33.53,1.71,1.71,0,0,1-.54.36,2.91,2.91,0,0,1-.66.2,2.74,2.74,0,0,1-1.05,0,2,2,0,0,1-.94-0.47l0.55-.67a1.48,1.48,0,0,0,.59.36,1.44,1.44,0,0,0,.74.06,1.75,1.75,0,0,0,.33-0.09,1,1,0,0,0,.27-0.16,0.57,0.57,0,0,0,.19-0.57,0.51,0.51,0,0,0-.39-0.42,4.1,4.1,0,0,0-.95-0.13l-0.49-.06a1.58,1.58,0,0,1-.47-0.15,1.16,1.16,0,0,1-.38-0.3,1.11,1.11,0,0,1-.22-0.52,1.28,1.28,0,0,1,0-.66,1.34,1.34,0,0,1,.31-0.5,1.75,1.75,0,0,1,.51-0.35,2.49,2.49,0,0,1,1.61-.17,1.6,1.6,0,0,1,.81.43Z"/><path class="cls-3" d="M158.84,167.26c0,0.11.07,0.24,0.1,0.39s0.06,0.26.07,0.36h0a1.36,1.36,0,0,1,.18-0.38,1.75,1.75,0,0,1,.29-0.34,1.7,1.7,0,0,1,.39-0.26,1.74,1.74,0,0,1,.47-0.16,1.8,1.8,0,0,1,.79,0,1.57,1.57,0,0,1,.6.31,1.62,1.62,0,0,1,.42.53,2.51,2.51,0,0,1,.23.71l0.51,2.84-0.91.16-0.46-2.54a3.18,3.18,0,0,0-.14-0.52,1.28,1.28,0,0,0-.24-0.42,0.89,0.89,0,0,0-.37-0.25,1.07,1.07,0,0,0-.54,0,1.11,1.11,0,0,0-.81.57,1.68,1.68,0,0,0-.15,1.16l0.44,2.43-0.91.16-0.64-3.59c0-.12-0.05-0.28-0.09-0.47s-0.08-.36-0.12-0.51Z"/><path class="cls-3" d="M165,170.87l-1.06.19,1.74-7.37,0.87-.16,4.16,6.31-1.08.19-1-1.55-3.24.58Zm0.57-2.7,2.56-.46-1.85-3Z"/><path class="cls-3" d="M172.41,165.33v0a1.19,1.19,0,0,1,.36-0.2,2.35,2.35,0,0,1,.46-0.13,2.23,2.23,0,0,1,.86,0,2.12,2.12,0,0,1,.76.32,2,2,0,0,1,.58.6,2.25,2.25,0,0,1,.32.83,2.38,2.38,0,0,1,0,1,2.13,2.13,0,0,1-.37.81,2.31,2.31,0,0,1-.67.6,2.75,2.75,0,0,1-1.88.33,2.3,2.3,0,0,1-.83-0.33,2.2,2.2,0,0,1-.62-0.63,2.28,2.28,0,0,1-.34-0.87,2.75,2.75,0,0,1,0-1,5.8,5.8,0,0,1,.32-1l1.28-3.14,1.11-.2ZM172,167.49a1.6,1.6,0,0,0,.2.55,1.34,1.34,0,0,0,.37.41,1.44,1.44,0,0,0,.5.23,1.42,1.42,0,0,0,.6,0,1.51,1.51,0,0,0,.56-0.21,1.31,1.31,0,0,0,.39-0.38,1.42,1.42,0,0,0,.21-0.52,1.65,1.65,0,0,0,0-.6,1.56,1.56,0,0,0-.2-0.55,1.42,1.42,0,0,0-.36-0.4,1.24,1.24,0,0,0-.49-0.22,1.55,1.55,0,0,0-.6,0,1.58,1.58,0,0,0-.56.21,1.32,1.32,0,0,0-.4.38,1.37,1.37,0,0,0-.21.51A1.61,1.61,0,0,0,172,167.49Z"/><path class="cls-3" d="M181.71,167.88l-4.46.8-0.16-.9,2.24-3.19a4.36,4.36,0,0,0,.41-0.76,1.45,1.45,0,0,0,.08-0.82,1.21,1.21,0,0,0-.18-0.47,1.13,1.13,0,0,0-.76-0.49,1.39,1.39,0,0,0-.49,0,1.19,1.19,0,0,0-.8.49,1.53,1.53,0,0,0-.27.93h-0.95a2.1,2.1,0,0,1,.12-0.76,2.19,2.19,0,0,1,.38-0.67,2.16,2.16,0,0,1,.6-0.5,2.47,2.47,0,0,1,.79-0.28,2.69,2.69,0,0,1,.84,0,2.15,2.15,0,0,1,.76.24,1.79,1.79,0,0,1,.59.52,1.93,1.93,0,0,1,.33.81,2.09,2.09,0,0,1,0,.62,2.53,2.53,0,0,1-.14.58,3.15,3.15,0,0,1-.27.54q-0.16.26-.34,0.52l-1.83,2.56,3.35-.6Z"/><path class="cls-3" d="M186.11,160.89l-2.82.51,0.26,1.8A2.13,2.13,0,0,1,184,163a3.55,3.55,0,0,1,.44-0.11,2.74,2.74,0,0,1,.94,0,2.1,2.1,0,0,1,.8.3,2,2,0,0,1,.6.6,2.27,2.27,0,0,1,.33.86,2.52,2.52,0,0,1,0,1,2.21,2.21,0,0,1-.37.83,2.3,2.3,0,0,1-.67.61,2.64,2.64,0,0,1-.92.34,2.4,2.4,0,0,1-1.42-.13,2.36,2.36,0,0,1-1-.85l0.79-.49a1.48,1.48,0,0,0,.64.57,1.39,1.39,0,0,0,.86.1,1.49,1.49,0,0,0,.54-0.21,1.37,1.37,0,0,0,.4-0.38,1.41,1.41,0,0,0,.22-0.52,1.59,1.59,0,0,0,0-.62,1.63,1.63,0,0,0-.25-0.65,1.31,1.31,0,0,0-.44-0.41,1.47,1.47,0,0,0-.56-0.18,2.14,2.14,0,0,0-.62,0,3.22,3.22,0,0,0-.77.25,3.68,3.68,0,0,0-.67.4l-0.55-3.65,3.69-.66Z"/><path class="cls-3" d="M190.94,162.7a1.21,1.21,0,0,0-.51-0.33,1.29,1.29,0,0,0-.66,0,1.42,1.42,0,0,0-.3.09,0.93,0.93,0,0,0-.25.16,0.58,0.58,0,0,0-.16.22,0.51,0.51,0,0,0,0,.29,0.47,0.47,0,0,0,.34.38,3.32,3.32,0,0,0,.83.12,5,5,0,0,1,.64.07,1.93,1.93,0,0,1,.54.18,1.17,1.17,0,0,1,.39.32,1.12,1.12,0,0,1,.21.5,1.42,1.42,0,0,1,0,.71,1.36,1.36,0,0,1-.33.53,1.7,1.7,0,0,1-.54.36,2.93,2.93,0,0,1-.66.2,2.74,2.74,0,0,1-1.05,0,2,2,0,0,1-.94-0.47l0.55-.67a1.49,1.49,0,0,0,.59.36,1.45,1.45,0,0,0,.74.06,1.65,1.65,0,0,0,.33-0.09,0.93,0.93,0,0,0,.27-0.16,0.59,0.59,0,0,0,.17-0.24,0.6,0.6,0,0,0,0-.33,0.51,0.51,0,0,0-.39-0.42,4.1,4.1,0,0,0-.95-0.13l-0.49-.06a1.58,1.58,0,0,1-.47-0.15,1.16,1.16,0,0,1-.38-0.31,1.11,1.11,0,0,1-.22-0.51,1.28,1.28,0,0,1,0-.66,1.35,1.35,0,0,1,.31-0.5,1.78,1.78,0,0,1,.51-0.35,2.51,2.51,0,0,1,.62-0.2,2.46,2.46,0,0,1,1,0,1.59,1.59,0,0,1,.81.43Z"/><path class="cls-3" d="M194.22,161.56l0.3-.05a3,3,0,0,0,.56-0.16,1.49,1.49,0,0,0,.45-0.27,1,1,0,0,0,.28-0.42,1.08,1.08,0,0,0,0-.58,1.12,1.12,0,0,0-.18-0.45,1.06,1.06,0,0,0-.33-0.31,1.3,1.3,0,0,0-.43-0.16,1.32,1.32,0,0,0-.47,0,1.24,1.24,0,0,0-.7.36,1.37,1.37,0,0,0-.35.7l-0.9-.15a2,2,0,0,1,.63-1.11,2.37,2.37,0,0,1,1.22-.58,2.69,2.69,0,0,1,.83,0,2.06,2.06,0,0,1,.73.23,1.69,1.69,0,0,1,.56.5,1.86,1.86,0,0,1,.31.77,1.6,1.6,0,0,1,0,.56,1.71,1.71,0,0,1-.17.5,1.63,1.63,0,0,1-.32.42,1.65,1.65,0,0,1-.45.3v0a1.8,1.8,0,0,1,.59.1,1.59,1.59,0,0,1,.5.28,1.7,1.7,0,0,1,.59,1,2,2,0,0,1,0,.94,2,2,0,0,1-.39.74,2.24,2.24,0,0,1-.66.53,2.92,2.92,0,0,1-2.32.18,2.13,2.13,0,0,1-1.1-1l0.82-.45a1.52,1.52,0,0,0,.66.63,1.49,1.49,0,0,0,1,.12,1.61,1.61,0,0,0,.49-0.17,1.36,1.36,0,0,0,.4-0.33,1.21,1.21,0,0,0,.24-0.46,1.31,1.31,0,0,0,0-.59,1.11,1.11,0,0,0-.26-0.57,1.25,1.25,0,0,0-.47-0.32,1.76,1.76,0,0,0-.59-0.11,3,3,0,0,0-.62,0l-0.29.05Z"/><path class="cls-3" d="M200.94,160l1.17-2.84,1.12-.2-1.6,3.63,3.13,3.16-1.21.22-2.39-2.54-1.32,3.21-1.18.21,1.79-4.06L197.67,158l1.17-.21Z"/><path class="cls-3" d="M207.28,159.34l-1.06.19,0.69,3.83-0.91.16-0.69-3.83-0.91.16-0.13-.74,0.91-.16L205,158a2.91,2.91,0,0,1,0-.76,1.55,1.55,0,0,1,.19-0.65,1.46,1.46,0,0,1,.46-0.49,2,2,0,0,1,.76-0.29,2.2,2.2,0,0,1,.58,0l0,0.8h-0.22l-0.25,0a0.86,0.86,0,0,0-.4.17,0.65,0.65,0,0,0-.2.29,1,1,0,0,0-.05.37,3.1,3.1,0,0,0,0,.42l0.17,1,1.06-.19Z"/><path class="cls-3" d="M213.18,162.24l-4.46.8-0.16-.9,2.24-3.19a4.4,4.4,0,0,0,.41-0.76,1.45,1.45,0,0,0,.08-0.82,1.21,1.21,0,0,0-.18-0.47,1.18,1.18,0,0,0-.33-0.33,1.14,1.14,0,0,0-.43-0.17,1.36,1.36,0,0,0-.49,0,1.19,1.19,0,0,0-.8.49,1.54,1.54,0,0,0-.27.93h-0.95a2.09,2.09,0,0,1,.12-0.76,2.18,2.18,0,0,1,.38-0.67,2.13,2.13,0,0,1,.6-0.5,2.42,2.42,0,0,1,.79-0.28,2.69,2.69,0,0,1,.84,0,2.15,2.15,0,0,1,.76.24,1.8,1.8,0,0,1,.59.52,1.93,1.93,0,0,1,.33.81,2.09,2.09,0,0,1,0,.62,2.52,2.52,0,0,1-.14.57,3.2,3.2,0,0,1-.27.54q-0.16.26-.34,0.52L209.67,162l3.35-.6Z"/><path class="cls-3" d="M214.6,157.26q0,0.17.1,0.39c0,0.14.06,0.26,0.07,0.36h0a1.38,1.38,0,0,1,.17-0.39,1.83,1.83,0,0,1,.29-0.34,1.77,1.77,0,0,1,.86-0.42,1.8,1.8,0,0,1,.79,0,1.58,1.58,0,0,1,.6.31,1.64,1.64,0,0,1,.42.53,2.52,2.52,0,0,1,.23.71l0.51,2.84-0.91.16-0.46-2.54a3.28,3.28,0,0,0-.14-0.52,1.27,1.27,0,0,0-.24-0.42,0.88,0.88,0,0,0-.37-0.25,1.06,1.06,0,0,0-.54,0,1.12,1.12,0,0,0-.81.57,1.69,1.69,0,0,0-.15,1.16l0.44,2.43-0.91.16L214,158.39c0-.12-0.05-0.28-0.09-0.47s-0.08-.36-0.12-0.51Z"/><path class="cls-3" d="M224.24,157.85l0,0.15a1.42,1.42,0,0,1,0,.16l-3.64.65a1.37,1.37,0,0,0,.23.52,1.45,1.45,0,0,0,.4.38,1.51,1.51,0,0,0,.52.21,1.66,1.66,0,0,0,1.35-.34,1.69,1.69,0,0,0,.44-0.59l0.73,0.4a2.32,2.32,0,0,1-.74.87,2.64,2.64,0,0,1-1.06.43,2.7,2.7,0,0,1-1,0,2.24,2.24,0,0,1-1.49-1,2.61,2.61,0,0,1-.36-1,2.65,2.65,0,0,1,0-1,2.3,2.3,0,0,1,.36-0.86,2.33,2.33,0,0,1,.67-0.63,2.61,2.61,0,0,1,1.85-.35,1.9,1.9,0,0,1,.78.35,2.15,2.15,0,0,1,.58.67A3,3,0,0,1,224.24,157.85Zm-1-.2a1.8,1.8,0,0,0-.18-0.49,1.14,1.14,0,0,0-.76-0.57,1.42,1.42,0,0,0-.57,0,1.51,1.51,0,0,0-.53.2,1.42,1.42,0,0,0-.63.82,1.33,1.33,0,0,0,0,.53Z"/><path class="cls-3" d="M226.72,155.22a1.61,1.61,0,0,1,.86-0.42,1.67,1.67,0,0,1,.87.06,1.45,1.45,0,0,1,.71.6,1.67,1.67,0,0,1,.52-0.8,1.85,1.85,0,0,1,.87-0.4,1.79,1.79,0,0,1,.79,0,1.58,1.58,0,0,1,.6.3,1.62,1.62,0,0,1,.42.53,2.47,2.47,0,0,1,.23.71l0.51,2.84-0.91.16-0.46-2.54a2.78,2.78,0,0,0-.14-0.52,1.33,1.33,0,0,0-.24-0.42,0.9,0.9,0,0,0-.36-0.25,1,1,0,0,0-.51,0,1,1,0,0,0-.51.23,1.14,1.14,0,0,0-.3.4,1.45,1.45,0,0,0-.12.5,2.31,2.31,0,0,0,0,.54l0.44,2.47-0.91.16-0.49-2.72a2.36,2.36,0,0,0-.14-0.48,1,1,0,0,0-.23-0.35,0.84,0.84,0,0,0-.34-0.2,1,1,0,0,0-.47,0,1,1,0,0,0-.76.56,1.72,1.72,0,0,0-.14,1.16l0.44,2.43-0.91.16-0.64-3.59c0-.12-0.05-0.28-0.09-0.47s-0.08-.36-0.12-0.51l0.86-.15c0,0.11.07,0.24,0.1,0.39s0.06,0.26.07,0.36h0A1.58,1.58,0,0,1,226.72,155.22Z"/><path class="cls-3" d="M236.4,154.12l-1.22.22,0.43,2.38a0.91,0.91,0,0,0,.26.57,0.63,0.63,0,0,0,.53.09l0.26-.08a1.06,1.06,0,0,0,.25-0.13l0.16,0.74a2.2,2.2,0,0,1-.35.16,2.37,2.37,0,0,1-.4.11,1.33,1.33,0,0,1-1.05-.18,1.52,1.52,0,0,1-.54-1l-0.44-2.48-0.88.16-0.13-.74,0.88-.16-0.24-1.31,0.9-.16,0.24,1.31,1.22-.22Z"/><path class="cls-3" d="M240.67,157.31l-1,.17-0.53-3-3.25-3.42,1.18-.21,2.45,2.75,1.35-3.43L242,150l-1.86,4.34Z"/><path class="cls-3" d="M243.91,157.54a2.22,2.22,0,0,0,.84.41,2.25,2.25,0,0,0,1,0,2,2,0,0,0,.74-0.27,1.31,1.31,0,0,0,.43-0.45,1.4,1.4,0,0,0,.17-0.58,2.63,2.63,0,0,0,0-.68l-0.11-.59h0a1.63,1.63,0,0,1-.58.71,2.18,2.18,0,0,1-.89.37,2.43,2.43,0,0,1-1,0,2.19,2.19,0,0,1-.82-0.37,2.33,2.33,0,0,1-.6-0.67,2.61,2.61,0,0,1-.33-0.89,2.65,2.65,0,0,1,0-1,2.34,2.34,0,0,1,.33-0.84,2.2,2.2,0,0,1,.63-0.64,2.36,2.36,0,0,1,.91-0.36,2.21,2.21,0,0,1,1,0,1.65,1.65,0,0,1,.83.52h0l-0.13-.73,0.88-.16,0.78,4.35a3.68,3.68,0,0,1,0,1,2.11,2.11,0,0,1-.28.89,2.16,2.16,0,0,1-.68.71,3,3,0,0,1-1.16.43,3.56,3.56,0,0,1-1.24,0,3.08,3.08,0,0,1-1.15-.43Zm-0.29-3.17a1.87,1.87,0,0,0,.21.59,1.52,1.52,0,0,0,.94.73,1.48,1.48,0,0,0,.66,0,1.62,1.62,0,0,0,.62-0.24,1.47,1.47,0,0,0,.43-0.43,1.55,1.55,0,0,0,.22-0.57,1.8,1.8,0,0,0,0-.65,1.77,1.77,0,0,0-.22-0.6,1.59,1.59,0,0,0-.41-0.46,1.56,1.56,0,0,0-.56-0.26,1.52,1.52,0,0,0-.66,0,1.5,1.5,0,0,0-.62.25,1.53,1.53,0,0,0-.42.43,1.47,1.47,0,0,0-.21.57A1.92,1.92,0,0,0,243.62,154.37Z"/><path class="cls-3" d="M248.52,148.84l2.09-.37a4.38,4.38,0,0,1,1-.07,2.22,2.22,0,0,1,.83.21,1.59,1.59,0,0,1,.6.5,2,2,0,0,1,.33.83,1.92,1.92,0,0,1,0,.91,1.64,1.64,0,0,1-.42.69,2.37,2.37,0,0,1-.73.48,4.24,4.24,0,0,1-1,.29l-1.08.19,0.54,3-1,.17Zm1.5,2.85,1-.18a3.18,3.18,0,0,0,.63-0.18,1.63,1.63,0,0,0,.47-0.28,0.93,0.93,0,0,0,.27-0.4,1.09,1.09,0,0,0,0-.54,1,1,0,0,0-.21-0.5,1,1,0,0,0-.39-0.28,1.42,1.42,0,0,0-.53-0.09,3.55,3.55,0,0,0-.64.06l-1,.19Z"/><path class="cls-3" d="M256.86,156.8l-0.91.16-1.24-6.9,0.89-.16,0.13,0.71h0a1.73,1.73,0,0,1,.54-0.72,2.06,2.06,0,0,1,1-.42,2.32,2.32,0,0,1,1,0,2.14,2.14,0,0,1,.81.38,2.37,2.37,0,0,1,.61.68,2.85,2.85,0,0,1,.34,1.89,2.37,2.37,0,0,1-.32.86,2.17,2.17,0,0,1-.63.65,2.37,2.37,0,0,1-.92.36,2.11,2.11,0,0,1-1,0,1.71,1.71,0,0,1-.79-0.48h0Zm2.19-5.16a2,2,0,0,0-.21-0.6,1.58,1.58,0,0,0-.39-0.48,1.37,1.37,0,0,0-.54-0.28,1.53,1.53,0,0,0-.69,0,1.47,1.47,0,0,0-.61.25,1.54,1.54,0,0,0-.42.45,1.72,1.72,0,0,0-.22.59,1.85,1.85,0,0,0,.23,1.26,1.66,1.66,0,0,0,.41.47,1.57,1.57,0,0,0,.55.27,1.48,1.48,0,0,0,.66,0,1.51,1.51,0,0,0,.64-0.26,1.43,1.43,0,0,0,.41-0.46,1.57,1.57,0,0,0,.2-0.58A2,2,0,0,0,259,151.64Z"/><path class="cls-3" d="M260.69,146.66l1-.17,0.51,2.86,3.46-.62-0.51-2.86,1-.17,1.23,6.84-1,.17-0.56-3.13-3.46.62,0.56,3.13-1,.17Z"/><path class="cls-3" d="M272.65,150.83a1.73,1.73,0,0,1-.6.76,2.17,2.17,0,0,1-.9.39,2.38,2.38,0,0,1-1,0,2.18,2.18,0,0,1-.82-0.39,2.37,2.37,0,0,1-.6-0.69,2.73,2.73,0,0,1-.33-0.92,2.67,2.67,0,0,1,0-1,2.31,2.31,0,0,1,.33-0.85,2.17,2.17,0,0,1,.64-0.64,2.37,2.37,0,0,1,.9-0.35,2,2,0,0,1,1,.06,2.08,2.08,0,0,1,.76.46h0l-0.61-3.41,0.91-.16,1.31,7.3-0.88.16-0.13-.72h0Zm-3.29-1a2,2,0,0,0,.21.6,1.59,1.59,0,0,0,.38.48,1.48,1.48,0,0,0,.54.29,1.61,1.61,0,0,0,1.29-.23,1.58,1.58,0,0,0,.42-0.45,1.69,1.69,0,0,0,.22-0.58,1.84,1.84,0,0,0-.22-1.25,1.72,1.72,0,0,0-.41-0.47,1.51,1.51,0,0,0-.55-0.28,1.5,1.5,0,0,0-.66,0,1.52,1.52,0,0,0-.63.25,1.42,1.42,0,0,0-.41.45,1.61,1.61,0,0,0-.2.58A2.06,2.06,0,0,0,269.36,149.8Z"/><path class="cls-3" d="M277.09,149.34h0l0.63-5.73,1.05-.19,2.57,5.16h0l0.53-5.72,1-.18-0.78,7.2-1,.18-2.65-5.2h0l-0.67,5.79-1,.18-3.24-6.48,1-.19Z"/><path class="cls-3" d="M286.09,148.29l3.57-.64,0.15,0.85-4.53.81-1.23-6.84,4.38-.79,0.15,0.84-3.43.61,0.37,2,3.22-.58,0.15,0.82-3.22.58Z"/><path class="cls-3" d="M83.24,195.07l-2.06,3.54,2.71-.49L84,198.89l-3.83.69-0.13-.74,2-3.55-2.46.44L79.5,195l3.6-.65Z"/><path class="cls-3" d="M88.18,192l-1.67,6.48-1.07.19,1.77-6.52-3.39.61-0.15-.83,4.36-.78Z"/><path class="cls-3" d="M93,194.44h0a1.24,1.24,0,0,1-.37.21l-0.23.08-0.22.05a2.21,2.21,0,0,1-.87,0,2.13,2.13,0,0,1-.75-0.32,2.09,2.09,0,0,1-.58-0.6,2.26,2.26,0,0,1-.32-0.83,2.41,2.41,0,0,1,0-1,2.16,2.16,0,0,1,.37-0.81,2.3,2.3,0,0,1,.67-0.6,2.64,2.64,0,0,1,.91-0.33,2.58,2.58,0,0,1,1,0,2.3,2.3,0,0,1,.83.33,2.19,2.19,0,0,1,.62.63,2.29,2.29,0,0,1,.34.87,2.71,2.71,0,0,1,0,1,6.4,6.4,0,0,1-.31,1l-1.28,3.14-1.11.2Zm0.43-2.15a1.55,1.55,0,0,0-.2-0.55,1.36,1.36,0,0,0-.37-0.41,1.41,1.41,0,0,0-1.11-.25,1.5,1.5,0,0,0-.56.21,1.39,1.39,0,0,0-.39.39,1.32,1.32,0,0,0-.21.51,1.68,1.68,0,0,0,0,.61,1.58,1.58,0,0,0,.2.55,1.39,1.39,0,0,0,.37.4,1.28,1.28,0,0,0,.5.22,1.54,1.54,0,0,0,.6,0,1.6,1.6,0,0,0,.56-0.21,1.32,1.32,0,0,0,.4-0.38,1.35,1.35,0,0,0,.21-0.51A1.6,1.6,0,0,0,93.4,192.29Z"/><path class="cls-3" d="M100.64,193.54a2.5,2.5,0,0,1,0,1,2.33,2.33,0,0,1-.38.86,2.39,2.39,0,0,1-.7.64,2.8,2.8,0,0,1-2,.35,2.36,2.36,0,0,1-.87-0.36,2.41,2.41,0,0,1-.65-0.68,2.52,2.52,0,0,1-.36-0.94,2.49,2.49,0,0,1,0-1,2.33,2.33,0,0,1,1.08-1.49,2.79,2.79,0,0,1,1.95-.35,2.41,2.41,0,0,1,.88.36,2.31,2.31,0,0,1,.66.66A2.47,2.47,0,0,1,100.64,193.54Zm-0.94.17a2,2,0,0,0-.21-0.61,1.6,1.6,0,0,0-.39-0.47,1.45,1.45,0,0,0-.54-0.28,1.68,1.68,0,0,0-1.31.23,1.45,1.45,0,0,0-.41.45,1.62,1.62,0,0,0-.2.58,2,2,0,0,0,0,.64,1.92,1.92,0,0,0,.21.61,1.65,1.65,0,0,0,.39.48,1.42,1.42,0,0,0,.55.28,1.68,1.68,0,0,0,1.31-.23,1.42,1.42,0,0,0,.41-0.45,1.66,1.66,0,0,0,.2-0.58A2,2,0,0,0,99.69,193.71Z"/><path class="cls-3" d="M102.38,189.17a0.55,0.55,0,0,1-.1.45,0.65,0.65,0,0,1-.86.15,0.55,0.55,0,0,1-.25-0.38,0.57,0.57,0,0,1,.1-0.45,0.64,0.64,0,0,1,.86-0.15A0.57,0.57,0,0,1,102.38,189.17Zm-0.68,8.09a1.57,1.57,0,0,0,.38,0,0.63,0.63,0,0,0,.31-0.14,0.55,0.55,0,0,0,.16-0.24,1,1,0,0,0,0-.32,2.94,2.94,0,0,0,0-.39L101.62,191l0.91-.16,0.93,5.17a3.39,3.39,0,0,1,.06.67,1.54,1.54,0,0,1-.13.59,1.15,1.15,0,0,1-.39.46,1.73,1.73,0,0,1-.72.27L102,198h-0.26Z"/><path class="cls-3" d="M106.78,193.38h0l0.63-5.73,1.05-.19,2.57,5.16h0l0.53-5.72,1-.18-0.78,7.2-1,.18-2.65-5.2h0l-0.68,5.79-1,.18-3.23-6.48,1-.18Z"/><path class="cls-3" d="M114.67,188.67c0,0.11.07,0.24,0.1,0.38s0.06,0.26.07,0.36h0A1.34,1.34,0,0,1,115,189a1.7,1.7,0,0,1,.29-0.34,1.77,1.77,0,0,1,.86-0.42,1.82,1.82,0,0,1,.79,0,1.6,1.6,0,0,1,.6.31,1.65,1.65,0,0,1,.42.53,2.58,2.58,0,0,1,.23.71l0.51,2.84-0.91.16-0.46-2.54a3.18,3.18,0,0,0-.14-0.52,1.29,1.29,0,0,0-.24-0.42,0.88,0.88,0,0,0-.37-0.25,1.06,1.06,0,0,0-.54,0,1.11,1.11,0,0,0-.81.57,1.67,1.67,0,0,0-.15,1.16l0.44,2.43-0.91.16L114,189.81c0-.12-0.05-0.28-0.09-0.47s-0.08-.36-0.12-0.51Z"/><path class="cls-3" d="M119.29,185.51l2.09-.37a4.34,4.34,0,0,1,1-.07,2.22,2.22,0,0,1,.83.21,1.58,1.58,0,0,1,.6.5,2,2,0,0,1,.33.83,1.93,1.93,0,0,1,0,.91,1.62,1.62,0,0,1-.41.69,2.35,2.35,0,0,1-.73.49,4.28,4.28,0,0,1-1,.29l-1.08.19,0.54,3-1,.17Zm1.5,2.85,1-.18a3,3,0,0,0,.63-0.18,1.56,1.56,0,0,0,.47-0.28,0.92,0.92,0,0,0,.27-0.4,1.1,1.1,0,0,0,0-.54,1,1,0,0,0-.21-0.49,1,1,0,0,0-.39-0.28,1.46,1.46,0,0,0-.53-0.09,3.55,3.55,0,0,0-.64.06l-1,.18Z"/><path class="cls-3" d="M127.06,190.43l0.13,0.72-0.88.16L125,184l0.91-.16,0.61,3.41h0a2,2,0,0,1,1.48-1.1,2.35,2.35,0,0,1,1,0,2.18,2.18,0,0,1,.81.38,2.33,2.33,0,0,1,.6.68,2.84,2.84,0,0,1,.34,1.89,2.37,2.37,0,0,1-.32.86,2.18,2.18,0,0,1-.63.65,2.4,2.4,0,0,1-.92.36,2.13,2.13,0,0,1-1-.05,1.78,1.78,0,0,1-.83-0.5h0Zm2.76-2.12a2,2,0,0,0-.21-0.6,1.61,1.61,0,0,0-.38-0.48,1.44,1.44,0,0,0-.54-0.28,1.56,1.56,0,0,0-.69,0,1.48,1.48,0,0,0-.61.25,1.53,1.53,0,0,0-.42.45,1.68,1.68,0,0,0-.22.59,1.85,1.85,0,0,0,.22,1.25,1.61,1.61,0,0,0,.41.47,1.55,1.55,0,0,0,.55.27,1.48,1.48,0,0,0,.66,0,1.51,1.51,0,0,0,.64-0.26,1.48,1.48,0,0,0,.41-0.46,1.58,1.58,0,0,0,.19-0.58A2,2,0,0,0,129.82,188.31Z"/><path class="cls-3" d="M136.16,188.8a1.7,1.7,0,0,1-.6.76,2.17,2.17,0,0,1-.9.39,2.38,2.38,0,0,1-1,0,2.17,2.17,0,0,1-.82-0.39,2.35,2.35,0,0,1-.6-0.69,2.77,2.77,0,0,1-.33-0.92,2.73,2.73,0,0,1,0-1,2.36,2.36,0,0,1,.33-0.85,2.17,2.17,0,0,1,.64-0.64,2.38,2.38,0,0,1,.9-0.35,2,2,0,0,1,1,.06,2.07,2.07,0,0,1,.76.46h0L135,182.22l0.91-.16,1.31,7.3-0.88.16-0.13-.72h0Zm-3.29-1a2,2,0,0,0,.21.6,1.6,1.6,0,0,0,.39.48,1.51,1.51,0,0,0,.54.29,1.48,1.48,0,0,0,.68,0,1.51,1.51,0,0,0,.61-0.25,1.55,1.55,0,0,0,.42-0.45,1.68,1.68,0,0,0,.22-0.58,1.85,1.85,0,0,0-.22-1.25,1.75,1.75,0,0,0-.41-0.47,1.55,1.55,0,0,0-.55-0.28,1.46,1.46,0,0,0-.66,0,1.53,1.53,0,0,0-.63.25,1.44,1.44,0,0,0-.41.45,1.59,1.59,0,0,0-.2.58A2,2,0,0,0,132.87,187.77Z"/><path class="cls-3" d="M143.23,182.68a2.25,2.25,0,0,0-.89-0.4,2.76,2.76,0,0,0-1.1,0,2.63,2.63,0,0,0-1,.41,2.48,2.48,0,0,0-.71.74,2.75,2.75,0,0,0-.37,1,3.06,3.06,0,0,0,0,1.09,3.09,3.09,0,0,0,.38,1,2.64,2.64,0,0,0,.68.78,2.42,2.42,0,0,0,.93.44,2.82,2.82,0,0,0,1.14,0,4.29,4.29,0,0,0,.87-0.25,2.62,2.62,0,0,0,.66-0.38l-0.34-1.9-1.52.27-0.15-.81,2.46-.44,0.59,3.31a5,5,0,0,1-1.1.66,6,6,0,0,1-1.36.4,4,4,0,0,1-1.52,0,3.38,3.38,0,0,1-2.25-1.54,3.87,3.87,0,0,1-.53-1.41,3.83,3.83,0,0,1,0-1.51,3.36,3.36,0,0,1,.56-1.27,3.49,3.49,0,0,1,1-.94,4,4,0,0,1,1.4-.52,4.22,4.22,0,0,1,1.51,0,3.19,3.19,0,0,1,1.18.46Z"/><circle class="cls-5" cx="261.94" cy="72.73" r="11.38" transform="translate(-8.72 47.37) rotate(-10.17)"/><ellipse class="cls-6" cx="261.94" cy="72.73" rx="20.48" ry="3.34" transform="translate(28.1 211.37) rotate(-46.18)"/></svg>