<?xml version="1.0" encoding="utf-8"?>
<!-- Generator: Adobe Illustrator 19.1.0, SVG Export Plug-In . SVG Version: 6.00 Build 0)  -->
<svg version="1.1" id="Layer_1" xmlns="http://www.w3.org/2000/svg" xmlns:xlink="http://www.w3.org/1999/xlink" x="0px" y="0px"
	 width="302.3px" height="220px" viewBox="-302.3 340.2 302.3 220" style="enable-background:new -302.3 340.2 302.3 220;"
	 xml:space="preserve">
<style type="text/css">
	.st0{fill:#FFFFFF;stroke:#C3E9EC;stroke-width:5.69;stroke-linejoin:round;}
	.st1{fill:#FFFFFF;stroke:#6AC9D0;stroke-width:6.04;stroke-linejoin:round;}
	.st2{fill:#083B54;}
	.st3{fill:#6AC9D0;}
	.st4{fill:#FFE5CA;stroke:#F59122;stroke-width:2.26;stroke-miterlimit:10;}
	.st5{opacity:0.3;fill:none;stroke:#F59122;stroke-width:2.26;stroke-miterlimit:10;enable-background:new    ;}
</style>
<title>ipfs illustrations</title>
<rect x="-288.6" y="375.1" transform="matrix(-0.998 6.383562e-02 -6.383562e-02 -0.998 -284.0541 910.1866)" class="st0" width="264.2" height="150.9"/>
<rect x="-283" y="375.1" transform="matrix(-0.9679 0.2514 -0.2514 -0.9679 -183.8199 924.6567)" class="st0" width="264.1" height="150.9"/>
<rect x="-280.1" y="374.6" transform="matrix(-0.9843 0.1766 -0.1766 -0.9843 -214.202 919.1578)" class="st1" width="264.2" height="150.9"/>
<path class="st2" d="M-251,443.3L-251,443.3l1.8-9.5l2.5-0.4l2.1,11.6l-1.6,0.3l-1.7-9.7l0,0l-2.1,10.4l-1,0.2l-5.6-9l0,0l1.7,9.7
	l-1.6,0.3l-2.1-11.6l2.5-0.5L-251,443.3z"/>
<path class="st2" d="M-238.4,437.9c-0.2-0.3-0.5-0.5-0.9-0.6c-0.4-0.1-0.7-0.2-1.1-0.1c-0.2,0-0.3,0.1-0.5,0.1
	c-0.2,0.1-0.3,0.2-0.4,0.3c-0.1,0.1-0.2,0.2-0.3,0.4c0,0.2,0,0.3,0,0.5c0,0.3,0.3,0.6,0.6,0.7c0.5,0.1,0.9,0.2,1.4,0.2
	c0.4,0,0.7,0.1,1.1,0.1c0.3,0.1,0.6,0.2,0.9,0.3c0.3,0.1,0.5,0.3,0.7,0.6c0.2,0.2,0.3,0.5,0.4,0.9c0.1,0.4,0.1,0.8-0.1,1.2
	c-0.1,0.3-0.3,0.6-0.6,0.9c-0.3,0.3-0.6,0.5-0.9,0.6c-0.4,0.2-0.7,0.3-1.1,0.3c-0.6,0.1-1.2,0.1-1.8,0c-0.6-0.1-1.1-0.4-1.6-0.8
	l0.9-1.1c0.3,0.3,0.6,0.5,1,0.6c0.4,0.1,0.8,0.2,1.3,0.1c0.2,0,0.4-0.1,0.6-0.2c0.2-0.1,0.3-0.2,0.5-0.3c0.1-0.1,0.2-0.3,0.3-0.4
	c0.1-0.2,0.1-0.4,0-0.6c-0.1-0.3-0.3-0.6-0.7-0.7c-0.5-0.1-1.1-0.2-1.6-0.2c-0.3,0-0.6,0-0.8-0.1c-0.3,0-0.5-0.1-0.8-0.2
	c-0.2-0.1-0.5-0.3-0.6-0.5c-0.2-0.3-0.3-0.6-0.4-0.9c-0.1-0.4-0.1-0.8,0.1-1.1c0.1-0.3,0.3-0.6,0.5-0.9c0.3-0.2,0.5-0.4,0.9-0.6
	c0.9-0.4,1.8-0.5,2.7-0.3c0.5,0.1,1,0.4,1.4,0.7L-238.4,437.9z"/>
<path class="st2" d="M-232.3,441.7c0,0.3,0,0.6-0.2,0.8c-0.2,0.3-0.4,0.4-0.7,0.5c-0.3,0.1-0.6,0-0.8-0.2c-0.2-0.2-0.4-0.4-0.4-0.7
	c-0.1-0.6,0.3-1.2,0.9-1.3c0,0,0,0,0,0c0.3-0.1,0.6,0,0.8,0.2C-232.5,441.2-232.4,441.5-232.3,441.7z"/>
<path class="st2" d="M-223.7,441.2l-1.6,0.3l-2.1-11.6l7.2-1.3l0.2,1.4l-5.6,1l0.7,3.6l5.3-0.9l0.2,1.4l-5.3,0.9L-223.7,441.2z"/>
<path class="st2" d="M-216.1,428.9c0.1,0.3,0,0.5-0.2,0.8c-0.2,0.2-0.4,0.4-0.7,0.4c-0.3,0.1-0.5,0-0.8-0.2
	c-0.2-0.1-0.4-0.4-0.4-0.6c0-0.3,0-0.5,0.2-0.8c0.2-0.2,0.4-0.4,0.7-0.4c0.3-0.1,0.5,0,0.8,0.2
	C-216.3,428.4-216.1,428.7-216.1,428.9z M-214.4,439.5l-1.5,0.3l-1.4-7.8l1.5-0.3L-214.4,439.5z"/>
<path class="st2" d="M-210.1,438.8l-1.5,0.3l-2.2-12.4l1.5-0.3L-210.1,438.8z"/>
<path class="st2" d="M-200.8,433v0.3c0,0.1,0,0.2,0,0.3l-6.2,1.1c0.1,0.3,0.2,0.6,0.4,0.9c0.2,0.3,0.4,0.5,0.7,0.6
	c0.3,0.2,0.6,0.3,0.9,0.4c0.8,0.2,1.6-0.1,2.3-0.6c0.3-0.3,0.6-0.6,0.8-1l1.2,0.7c-0.3,0.6-0.7,1.1-1.2,1.5
	c-0.5,0.4-1.2,0.6-1.8,0.7c-0.6,0.1-1.1,0.1-1.7,0c-0.5-0.1-1-0.3-1.4-0.6c-0.4-0.3-0.8-0.7-1.1-1.1c-0.3-0.5-0.5-1-0.6-1.6
	c-0.1-0.6-0.1-1.2,0-1.7c0.1-0.5,0.3-1,0.6-1.4c0.3-0.4,0.7-0.8,1.1-1.1c0.9-0.6,2.1-0.8,3.1-0.6c0.5,0.1,0.9,0.3,1.3,0.6
	c0.4,0.3,0.7,0.7,1,1.1C-201.1,431.9-200.9,432.5-200.8,433z M-202.5,432.7c-0.1-0.3-0.2-0.6-0.3-0.8c-0.1-0.2-0.3-0.5-0.5-0.6
	c-0.2-0.2-0.5-0.3-0.8-0.4c-0.3-0.1-0.7-0.1-1,0c-0.3,0.1-0.6,0.2-0.9,0.3c-0.3,0.2-0.5,0.4-0.7,0.6c-0.2,0.2-0.3,0.5-0.4,0.8
	c-0.1,0.3-0.1,0.6-0.1,0.9L-202.5,432.7z"/>
<path class="st2" d="M-188,432L-188,432l1.8-9.5l2.5-0.5l2.1,11.6l-1.6,0.3l-1.7-9.7l0,0l-2.1,10.4l-1,0.2l-5.6-9l0,0l1.7,9.7
	l-1.6,0.3l-2.1-11.6l2.5-0.4L-188,432z"/>
<path class="st2" d="M-174.2,426.4c-0.2-0.2-0.5-0.4-0.9-0.5c-0.4-0.1-0.7-0.1-1.1-0.1c-0.4,0.1-0.7,0.2-1,0.4
	c-0.3,0.2-0.5,0.5-0.7,0.8c-0.2,0.3-0.3,0.6-0.3,1c-0.1,0.7,0,1.5,0.4,2.1c0.2,0.3,0.4,0.6,0.7,0.8c0.3,0.2,0.6,0.4,0.9,0.5
	c0.7,0.2,1.5,0,2.1-0.4c0.3-0.2,0.5-0.5,0.7-0.8l1.2,0.8c-0.3,0.4-0.6,0.8-1.1,1.1c-0.5,0.3-1,0.5-1.6,0.6c-0.6,0.1-1.2,0.1-1.7,0
	c-0.5-0.1-1-0.3-1.5-0.6c-0.4-0.3-0.8-0.7-1.1-1.1c-0.3-0.5-0.5-1.1-0.6-1.6c-0.1-0.6-0.1-1.2,0-1.7c0.1-0.5,0.3-1,0.6-1.5
	c0.3-0.4,0.7-0.8,1.2-1.1c0.5-0.3,1-0.5,1.6-0.6c0.6-0.1,1.1-0.1,1.7,0c0.5,0.1,1,0.4,1.5,0.7L-174.2,426.4z"/>
<path class="st2" d="M-168.6,431.3l-1.6,0.3l-2.1-11.6l7.2-1.3l0.2,1.4l-5.6,1l0.6,3.6l5.3-0.9l0.2,1.4l-5.3,0.9L-168.6,431.3z"/>
<path class="st2" d="M-161,419.1c0.1,0.3,0,0.5-0.2,0.8c-0.2,0.2-0.4,0.4-0.7,0.4c-0.3,0.1-0.5,0-0.8-0.2c-0.2-0.1-0.4-0.4-0.4-0.6
	c0-0.3,0-0.5,0.2-0.8c0.2-0.2,0.4-0.4,0.7-0.4c0.3-0.1,0.5,0,0.8,0.2C-161.2,418.6-161,418.8-161,419.1z M-159.3,429.7l-1.5,0.3
	l-1.4-7.8l1.5-0.3L-159.3,429.7z"/>
<path class="st2" d="M-155.1,428.9l-1.5,0.3l-2.2-12.4l1.5-0.3L-155.1,428.9z"/>
<path class="st2" d="M-145.8,423.2v0.3c0,0.1,0,0.2,0,0.3l-6.2,1.1c0.1,0.3,0.2,0.6,0.4,0.9c0.2,0.3,0.4,0.5,0.7,0.6
	c0.3,0.2,0.6,0.3,0.9,0.4c0.8,0.2,1.6-0.1,2.3-0.6c0.3-0.3,0.6-0.6,0.8-1l1.2,0.7c-0.3,0.6-0.7,1.1-1.2,1.5c-1,0.7-2.3,0.9-3.5,0.7
	c-1-0.2-2-0.8-2.5-1.7c-0.3-0.5-0.5-1-0.6-1.6c-0.1-0.6-0.1-1.2,0-1.7c0.1-0.5,0.3-1,0.6-1.5c0.3-0.4,0.7-0.8,1.1-1.1
	c0.9-0.6,2.1-0.8,3.1-0.6c0.5,0.1,0.9,0.3,1.3,0.6c0.4,0.3,0.7,0.7,1,1.1C-146.1,422-145.9,422.6-145.8,423.2z M-147.4,422.8
	c-0.1-0.3-0.2-0.6-0.3-0.8c-0.1-0.2-0.3-0.5-0.5-0.6c-0.2-0.2-0.5-0.3-0.8-0.4c-0.3-0.1-0.7-0.1-1,0c-0.3,0.1-0.6,0.2-0.9,0.3
	c-0.3,0.2-0.5,0.4-0.7,0.6c-0.2,0.2-0.3,0.5-0.4,0.8c-0.1,0.3-0.1,0.6-0.1,0.9L-147.4,422.8z"/>
<path class="st2" d="M-144.1,419.8c-0.1-0.3-0.1-0.6-0.2-0.9l1.5-0.3c0.1,0.2,0.1,0.4,0.2,0.7s0.1,0.5,0.1,0.6l0,0
	c0.1-0.5,0.4-0.9,0.8-1.3c0.4-0.4,0.8-0.6,1.3-0.7c0.2,0,0.4,0,0.6,0l0.2,1.4c-0.2,0-0.5,0-0.7,0c-0.3,0.1-0.7,0.2-0.9,0.4
	c-0.2,0.2-0.4,0.4-0.6,0.7c-0.1,0.3-0.2,0.6-0.3,0.9c0,0.3,0,0.7,0,1l0.7,4.1l-1.5,0.3l-1.1-6.1C-144,420.4-144,420.1-144.1,419.8z"
	/>
<path class="st2" d="M-133.4,418.3l-2.1,0.4l0.7,4c0,0.4,0.2,0.7,0.4,1c0.3,0.2,0.6,0.2,0.9,0.1c0.2,0,0.3-0.1,0.4-0.1
	c0.1-0.1,0.3-0.1,0.4-0.2l0.3,1.2c-0.2,0.1-0.4,0.2-0.6,0.3c-0.2,0.1-0.4,0.1-0.7,0.2c-0.6,0.2-1.3,0-1.8-0.3
	c-0.5-0.4-0.8-1-0.9-1.7l-0.8-4.2l-1.5,0.3l-0.2-1.3l1.5-0.3l-0.4-2.2l1.5-0.3l0.4,2.2l2.1-0.4L-133.4,418.3z"/>
<path class="st2" d="M-123.4,419.2c0.1,0.6,0.1,1.1,0,1.7c-0.2,1.1-0.9,2-1.8,2.5c-1,0.6-2.2,0.8-3.3,0.6c-0.5-0.1-1-0.3-1.5-0.6
	c-0.4-0.3-0.8-0.7-1.1-1.2c-0.3-0.5-0.5-1-0.6-1.6c-0.1-0.6-0.1-1.1,0-1.7c0.1-0.5,0.3-1,0.6-1.4c0.3-0.4,0.7-0.8,1.1-1.1
	c1-0.6,2.2-0.8,3.3-0.6c0.5,0.1,1,0.3,1.5,0.6c0.5,0.3,0.9,0.7,1.2,1.1C-123.7,418.1-123.5,418.6-123.4,419.2z M-125,419.5
	c-0.1-0.4-0.2-0.7-0.4-1c-0.2-0.3-0.4-0.6-0.7-0.8c-0.3-0.2-0.6-0.4-0.9-0.5c-0.8-0.2-1.6,0-2.2,0.4c-0.3,0.2-0.5,0.5-0.7,0.8
	c-0.2,0.3-0.3,0.6-0.3,1c-0.1,0.7,0,1.5,0.4,2.1c0.2,0.3,0.4,0.6,0.7,0.8c0.3,0.2,0.6,0.4,0.9,0.5c0.8,0.2,1.6,0,2.2-0.4
	c0.3-0.2,0.5-0.5,0.7-0.8c0.2-0.3,0.3-0.6,0.3-1C-124.9,420.3-124.9,419.9-125,419.5L-125,419.5z"/>
<path class="st2" d="M-120.5,414.7c0.1,0.2,0.1,0.4,0.2,0.6s0.1,0.5,0.1,0.6l0,0c0.1-0.2,0.2-0.5,0.3-0.7c0.5-0.7,1.2-1.2,2-1.3
	c0.4-0.1,0.9-0.1,1.3,0c0.4,0.1,0.7,0.3,1,0.5c0.3,0.2,0.5,0.6,0.7,0.9c0.2,0.4,0.3,0.8,0.4,1.2l0.9,4.8l-1.5,0.3l-0.7-4.3
	c-0.1-0.3-0.1-0.6-0.2-0.9c-0.1-0.3-0.2-0.5-0.4-0.7c-0.2-0.2-0.4-0.3-0.6-0.4c-0.3-0.1-0.6-0.1-0.9,0c-0.6,0.1-1.1,0.5-1.4,1
	c-0.3,0.6-0.4,1.3-0.2,2l0.7,4l-1.5,0.3l-1.1-6.1c0-0.2-0.1-0.5-0.2-0.8c-0.1-0.3-0.1-0.6-0.2-0.9L-120.5,414.7z"/>
<path class="st2" d="M-248,476.9l-1.2,0.2l-1.3-7l-1.4,1.6l-0.8-0.7l2-2.4l1-0.2L-248,476.9z"/>
<path class="st2" d="M-244.3,471.1L-244.3,471.1c0.1-0.1,0.3-0.2,0.4-0.2c0.2-0.1,0.4-0.1,0.6-0.2c0.4-0.1,0.7-0.1,1.1,0
	c0.3,0.1,0.7,0.2,0.9,0.4c0.3,0.2,0.5,0.4,0.7,0.7c0.2,0.3,0.3,0.6,0.4,1c0.1,0.4,0.1,0.8,0,1.2c-0.1,0.4-0.2,0.7-0.5,1
	c-0.2,0.3-0.5,0.5-0.8,0.7c-0.7,0.4-1.5,0.6-2.3,0.4c-0.4-0.1-0.7-0.2-1-0.4c-0.3-0.2-0.6-0.5-0.8-0.8c-0.2-0.3-0.4-0.7-0.4-1.1
	c-0.1-0.4-0.1-0.9,0-1.3c0.1-0.4,0.2-0.8,0.4-1.2l1.6-3.9l1.4-0.2L-244.3,471.1z M-244.8,473.8c0,0.2,0.1,0.5,0.2,0.7
	c0.1,0.2,0.3,0.4,0.5,0.5c0.4,0.3,0.9,0.4,1.4,0.3c0.2,0,0.5-0.1,0.7-0.3c0.2-0.1,0.4-0.3,0.5-0.5c0.1-0.2,0.2-0.4,0.2-0.6
	c0-0.2,0-0.5,0-0.7c0-0.2-0.1-0.5-0.2-0.7c-0.1-0.2-0.3-0.4-0.4-0.5c-0.2-0.1-0.4-0.2-0.6-0.3c-0.2,0-0.5,0-0.7,0
	c-0.2,0-0.5,0.1-0.7,0.3c-0.2,0.1-0.4,0.3-0.5,0.5c-0.1,0.2-0.2,0.4-0.3,0.6C-244.9,473.3-244.9,473.5-244.8,473.8z"/>
<path class="st2" d="M-234,471.5l1.2-0.2l0.2,1l-1.2,0.2l0.3,1.9l-1.1,0.2l-0.4-1.9l-3.9,0.7l-0.2-1l2.6-6.1l1.5-0.3L-234,471.5z
	 M-235.9,467.5L-235.9,467.5l-1.9,4.7l2.7-0.5L-235.9,467.5z"/>
<path class="st2" d="M-229.9,468.7l0.4-0.1c0.2,0,0.5-0.1,0.7-0.2c0.2-0.1,0.4-0.2,0.6-0.3c0.2-0.1,0.3-0.3,0.3-0.5
	c0.1-0.2,0.1-0.5,0-0.7c0-0.2-0.1-0.4-0.2-0.6c-0.1-0.2-0.2-0.3-0.4-0.4c-0.2-0.1-0.3-0.2-0.5-0.2c-0.2,0-0.4,0-0.6,0
	c-0.3,0-0.6,0.2-0.9,0.4c-0.2,0.2-0.4,0.5-0.4,0.9l-1.1-0.2c0.1-0.5,0.4-1,0.8-1.4c0.4-0.4,0.9-0.6,1.5-0.7c0.3,0,0.7,0,1,0
	c0.3,0,0.6,0.1,0.9,0.3c0.3,0.2,0.5,0.4,0.7,0.6c0.2,0.3,0.3,0.6,0.4,1c0,0.2,0,0.5,0,0.7c0,0.2-0.1,0.4-0.1,0.6
	c-0.1,0.2-0.2,0.4-0.4,0.5c-0.2,0.2-0.3,0.3-0.6,0.4l0,0c0.2,0,0.5,0,0.7,0.1c0.2,0.1,0.4,0.2,0.6,0.4c0.4,0.3,0.6,0.8,0.7,1.3
	c0.1,0.4,0.1,0.8,0,1.2c-0.1,0.3-0.3,0.7-0.5,0.9c-0.2,0.3-0.5,0.5-0.8,0.6c-0.9,0.5-1.9,0.5-2.9,0.2c-0.6-0.2-1.1-0.7-1.4-1.2
	l1-0.6c0.2,0.3,0.5,0.6,0.8,0.8c0.4,0.2,0.8,0.2,1.2,0.1c0.2,0,0.4-0.1,0.6-0.2c0.2-0.1,0.4-0.2,0.5-0.4c0.1-0.2,0.2-0.4,0.3-0.6
	c0.1-0.2,0.1-0.5,0-0.7c0-0.3-0.1-0.5-0.3-0.7c-0.2-0.2-0.4-0.3-0.6-0.4c-0.2-0.1-0.5-0.1-0.7-0.1c-0.3,0-0.5,0-0.8,0.1l-0.4,0.1
	L-229.9,468.7z"/>
<path class="st2" d="M-223.1,467.6L-223.1,467.6l3.1-4.4l1.6-0.3l-3.4,4.6l5.2,3.8l-1.7,0.3l-4.7-3.7l0,0l0.8,4.4l-1.2,0.2l-1.6-8.4
	l1.2-0.2L-223.1,467.6z"/>
<path class="st2" d="M-216.9,462.7l2.9-0.5c0.3-0.1,0.7-0.1,1-0.1c0.3,0,0.6,0.1,0.9,0.2c0.3,0.1,0.5,0.3,0.7,0.5
	c0.2,0.3,0.4,0.6,0.4,1c0.1,0.4,0,0.9-0.2,1.2c-0.2,0.4-0.6,0.7-1,0.9l0,0c0.3,0,0.5,0,0.8,0.1c0.2,0.1,0.5,0.2,0.7,0.3
	c0.2,0.1,0.4,0.3,0.5,0.6c0.1,0.2,0.2,0.5,0.3,0.8c0.2,0.7-0.1,1.5-0.6,2c-0.3,0.3-0.6,0.5-0.9,0.6c-0.4,0.2-0.8,0.3-1.2,0.4
	l-2.8,0.5L-216.9,462.7z M-215.1,466l1.5-0.3c0.2,0,0.4-0.1,0.6-0.2c0.2-0.1,0.3-0.2,0.5-0.3c0.1-0.1,0.2-0.3,0.3-0.5
	c0.1-0.2,0.1-0.4,0-0.6c0-0.4-0.3-0.7-0.7-0.9c-0.5-0.1-0.9-0.1-1.4,0l-1.3,0.2L-215.1,466z M-214.4,469.9l1.5-0.3
	c0.2,0,0.5-0.1,0.7-0.2c0.2-0.1,0.4-0.2,0.6-0.4c0.2-0.1,0.3-0.3,0.4-0.5c0.1-0.2,0.1-0.5,0.1-0.7c0-0.4-0.3-0.8-0.7-1
	c-0.5-0.2-1-0.2-1.5-0.1l-1.6,0.3L-214.4,469.9z"/>
<path class="st3" d="M-246.9,498.1l-1,0.2l-1.4-7.3l1-0.2L-246.9,498.1z"/>
<path class="st3" d="M-246.2,490.4l2.2-0.4c0.4-0.1,0.7-0.1,1.1-0.1c0.3,0,0.6,0.1,0.9,0.2c0.3,0.1,0.5,0.3,0.6,0.5
	c0.2,0.3,0.3,0.6,0.3,0.9c0.1,0.3,0.1,0.7,0,1c-0.1,0.3-0.2,0.5-0.4,0.8c-0.2,0.2-0.5,0.4-0.8,0.5c-0.3,0.1-0.7,0.2-1,0.3l-1.2,0.2
	l0.6,3.2l-1,0.2L-246.2,490.4z M-244.6,493.4l1.1-0.2c0.2,0,0.5-0.1,0.7-0.2c0.2-0.1,0.4-0.2,0.5-0.3c0.1-0.1,0.2-0.3,0.3-0.4
	c0-0.2,0-0.4,0-0.6c0-0.2-0.1-0.4-0.2-0.5c-0.1-0.1-0.3-0.2-0.4-0.3c-0.2-0.1-0.4-0.1-0.6-0.1c-0.2,0-0.5,0-0.7,0.1l-1.1,0.2
	L-244.6,493.4z"/>
<path class="st3" d="M-237.6,496.4l-1,0.2l-1.3-7.4l4.6-0.8l0.2,0.9l-3.6,0.6l0.4,2.3l3.3-0.6l0.2,0.9l-3.3,0.6L-237.6,496.4z"/>
<path class="st3" d="M-230.1,488.9c-0.2-0.2-0.4-0.3-0.7-0.4c-0.3-0.1-0.6-0.1-0.9,0c-0.2,0-0.3,0.1-0.5,0.2
	c-0.2,0.1-0.3,0.2-0.4,0.3c-0.1,0.1-0.2,0.3-0.3,0.4c-0.1,0.2-0.1,0.4,0,0.6c0,0.2,0.1,0.3,0.2,0.5c0.1,0.1,0.2,0.2,0.4,0.3
	c0.2,0.1,0.3,0.1,0.5,0.1l0.6,0.1l0.8,0.1c0.3,0,0.5,0.1,0.8,0.3c0.5,0.3,0.9,0.8,1,1.4c0.1,0.3,0.1,0.7,0,1
	c-0.1,0.3-0.2,0.6-0.4,0.8c-0.2,0.2-0.5,0.4-0.7,0.6c-0.3,0.1-0.6,0.3-0.9,0.3c-0.5,0.1-0.9,0.1-1.4,0c-0.5-0.1-0.9-0.3-1.2-0.6
	l0.6-0.8c0.2,0.2,0.5,0.4,0.8,0.5c0.3,0.1,0.7,0.1,1,0.1c0.2,0,0.3-0.1,0.5-0.2c0.2-0.1,0.3-0.2,0.4-0.3c0.1-0.1,0.2-0.3,0.3-0.5
	c0.1-0.2,0.1-0.4,0-0.6c0-0.2-0.1-0.4-0.2-0.5c-0.1-0.1-0.3-0.2-0.4-0.3c-0.2-0.1-0.4-0.1-0.6-0.2l-0.7-0.1c-0.2,0-0.5-0.1-0.7-0.1
	c-0.2-0.1-0.5-0.1-0.7-0.3c-0.2-0.1-0.4-0.3-0.5-0.5c-0.2-0.2-0.3-0.5-0.3-0.8c-0.1-0.3-0.1-0.7,0.1-1c0.1-0.3,0.3-0.5,0.5-0.8
	c0.2-0.2,0.5-0.4,0.7-0.5c0.3-0.1,0.6-0.2,0.9-0.3c0.4-0.1,0.8-0.1,1.2,0c0.4,0.1,0.7,0.2,1,0.4L-230.1,488.9z"/>
<path class="st3" d="M-225.3,486.6l1-0.2l0.6,3.1l3.7-0.7l-0.6-3.1l1-0.2l1.3,7.4l-1,0.2l-0.6-3.4l-3.7,0.7l0.6,3.4l-1,0.2
	L-225.3,486.6z"/>
<path class="st3" d="M-215.9,492.5l-1.1,0.2l1.9-7.9l0.9-0.2l4.5,6.8l-1.2,0.2l-1.1-1.7l-3.5,0.6L-215.9,492.5z M-215.3,489.6
	l2.8-0.5l-2-3.2L-215.3,489.6z"/>
<path class="st3" d="M-205.9,484.5c-0.2-0.2-0.4-0.3-0.7-0.4c-0.3-0.1-0.6-0.1-0.9,0c-0.2,0-0.3,0.1-0.5,0.2
	c-0.2,0.1-0.3,0.2-0.4,0.3c-0.1,0.1-0.2,0.3-0.3,0.4c0,0.2,0,0.4,0,0.6c0,0.2,0.1,0.3,0.2,0.5c0.1,0.1,0.2,0.2,0.4,0.3
	c0.2,0.1,0.3,0.1,0.5,0.1l0.6,0.1l0.8,0.1c0.3,0,0.5,0.1,0.8,0.3c0.5,0.3,0.9,0.8,1,1.4c0.1,0.3,0.1,0.7,0,1
	c-0.1,0.3-0.2,0.6-0.4,0.8c-0.2,0.2-0.5,0.4-0.7,0.6c-0.3,0.1-0.6,0.3-0.9,0.3c-0.5,0.1-0.9,0.1-1.4,0c-0.5-0.1-0.9-0.3-1.2-0.6
	l0.7-0.8c0.5,0.5,1.1,0.7,1.8,0.6c0.2,0,0.3-0.1,0.5-0.2c0.2-0.1,0.3-0.2,0.4-0.3c0.1-0.1,0.2-0.3,0.3-0.4c0.1-0.2,0.1-0.4,0-0.6
	c0-0.2-0.1-0.4-0.2-0.5c-0.1-0.1-0.3-0.2-0.4-0.3c-0.2-0.1-0.4-0.1-0.6-0.2l-0.7-0.1c-0.2,0-0.5-0.1-0.7-0.1
	c-0.2-0.1-0.5-0.2-0.7-0.3c-0.2-0.1-0.4-0.3-0.5-0.5c-0.2-0.2-0.3-0.5-0.3-0.8c-0.1-0.3-0.1-0.7,0.1-1c0.1-0.3,0.3-0.5,0.5-0.8
	c0.2-0.2,0.5-0.4,0.7-0.5c0.3-0.1,0.6-0.2,0.9-0.3c0.4-0.1,0.8-0.1,1.2,0c0.4,0.1,0.7,0.2,1,0.4L-205.9,484.5z"/>
<path class="st3" d="M-203.7,482.7l1-0.2l0.6,3.1l3.7-0.7l-0.5-3l1-0.2l1.3,7.4l-1,0.2l-0.6-3.4l-3.7,0.7l0.6,3.4l-1,0.2
	L-203.7,482.7z"/>
<path class="st3" d="M-194.2,484.2c0.1,0.4-0.2,0.7-0.6,0.8c0,0,0,0,0,0c-0.2,0-0.4,0-0.5-0.1c-0.2-0.1-0.3-0.3-0.3-0.4
	c0-0.2,0-0.4,0.1-0.5c0.1-0.2,0.3-0.3,0.5-0.3c0.2,0,0.4,0,0.5,0.1C-194.3,483.8-194.2,484-194.2,484.2z M-193.5,487.9
	c0,0.2,0,0.4-0.1,0.5c-0.1,0.2-0.3,0.3-0.5,0.3c-0.2,0-0.4,0-0.5-0.1c-0.2-0.1-0.3-0.3-0.3-0.4c-0.1-0.4,0.2-0.7,0.6-0.8
	c0,0,0,0,0,0c0.2,0,0.4,0,0.5,0.1C-193.7,487.5-193.6,487.7-193.5,487.9L-193.5,487.9z"/>
<path class="st2" d="M-238.4,510l-4,0.7c-0.5,0.1-1,0.1-1.5,0c-0.4-0.1-0.9-0.3-1.2-0.5c-0.4-0.3-0.7-0.6-0.9-1
	c-0.3-0.4-0.4-0.9-0.5-1.4c-0.1-0.5-0.1-1,0-1.5c0.2-0.9,0.7-1.7,1.5-2.2c0.4-0.3,0.9-0.4,1.4-0.5c0.5-0.1,1-0.1,1.5,0
	c0.4,0.1,0.9,0.3,1.2,0.5c0.4,0.3,0.7,0.6,0.9,1c0.3,0.4,0.4,0.9,0.5,1.4c0.1,0.6,0.1,1.1-0.1,1.7c-0.2,0.5-0.4,0.9-0.8,1.3l0,0
	l1.9-0.3L-238.4,510z M-245.6,507.7c0.1,0.4,0.2,0.7,0.4,1c0.2,0.3,0.4,0.5,0.7,0.8c0.3,0.2,0.6,0.3,0.9,0.4c0.7,0.2,1.5,0,2.1-0.4
	c0.3-0.2,0.5-0.4,0.7-0.7c0.2-0.3,0.3-0.6,0.4-0.9c0.1-0.4,0.1-0.7,0-1.1c-0.1-0.4-0.2-0.7-0.4-1c-0.2-0.3-0.4-0.5-0.7-0.8
	c-0.3-0.2-0.6-0.3-0.9-0.4c-1.1-0.3-2.2,0.2-2.8,1.1c-0.2,0.3-0.3,0.6-0.4,0.9C-245.6,507-245.7,507.4-245.6,507.7L-245.6,507.7z"/>
<path class="st2" d="M-236.5,505.1c0.2-0.2,0.5-0.4,0.9-0.4c0.3-0.1,0.6,0,0.9,0.1c0.3,0.1,0.5,0.3,0.7,0.6c0.1-0.3,0.3-0.6,0.5-0.8
	c0.2-0.2,0.5-0.3,0.9-0.4c0.3-0.1,0.5-0.1,0.8,0c0.2,0.1,0.4,0.2,0.6,0.3c0.2,0.1,0.3,0.3,0.4,0.5c0.1,0.2,0.2,0.5,0.2,0.7l0.5,2.8
	l-0.9,0.2l-0.5-2.5c0-0.2-0.1-0.4-0.1-0.5c-0.1-0.2-0.1-0.3-0.2-0.4c-0.1-0.1-0.2-0.2-0.4-0.2c-0.2,0-0.3,0-0.5,0
	c-0.2,0-0.4,0.1-0.5,0.2c-0.1,0.1-0.2,0.2-0.3,0.4c-0.1,0.2-0.1,0.3-0.1,0.5c0,0.2,0,0.4,0,0.5l0.4,2.5l-0.9,0.2l-0.5-2.7
	c0-0.2-0.1-0.3-0.1-0.5c-0.1-0.1-0.1-0.3-0.2-0.4c-0.1-0.1-0.2-0.2-0.3-0.2c-0.5-0.1-1,0.1-1.2,0.5c-0.2,0.4-0.2,0.8-0.1,1.2
	l0.4,2.4l-0.9,0.2l-0.6-3.6c0-0.1-0.1-0.3-0.1-0.5s-0.1-0.4-0.1-0.5l0.9-0.1c0,0.1,0,0.2,0.1,0.4c0,0.1,0.1,0.3,0.1,0.4l0,0
	C-236.9,505.6-236.8,505.3-236.5,505.1z"/>
<path class="st2" d="M-226.5,507.9l-1,0.2l-0.5-3l-3.2-3.4l1.2-0.2l2.4,2.8l1.4-3.4l1.1-0.2l-1.8,4.3L-226.5,507.9z"/>
<path class="st2" d="M-223.7,502.7l1.7,3.3l0,0l0.5-3.7l1-0.2l1.7,3.3l0,0l0.4-3.7l1-0.2l-0.7,4.9l-0.9,0.2l-1.8-3.2l0,0l-0.5,3.6
	l-0.9,0.2l-2.3-4.3L-223.7,502.7z"/>
<path class="st2" d="M-215.4,505.9l-1.1,0.2l1.7-7.4l0.9-0.2l4.2,6.3l-1.1,0.2l-1-1.5l-3.2,0.6L-215.4,505.9z M-214.8,503.2l2.6-0.5
	l-1.8-3L-214.8,503.2z"/>
<path class="st2" d="M-209.8,497.9l2.1-0.4c0.3-0.1,0.7-0.1,1-0.1c0.3,0,0.6,0.1,0.8,0.2c0.2,0.1,0.4,0.3,0.6,0.5
	c0.2,0.2,0.3,0.5,0.3,0.8c0.1,0.3,0.1,0.6,0,0.9c-0.1,0.3-0.2,0.5-0.4,0.7c-0.2,0.2-0.5,0.4-0.7,0.5c-0.3,0.1-0.7,0.2-1,0.3
	l-1.1,0.2l0.5,3l-1,0.2L-209.8,497.9z M-208.3,500.7l1-0.2c0.2,0,0.4-0.1,0.6-0.2c0.2-0.1,0.3-0.2,0.5-0.3c0.1-0.1,0.2-0.2,0.3-0.4
	c0-0.2,0-0.4,0-0.5c0-0.2-0.1-0.4-0.2-0.5c-0.1-0.1-0.2-0.2-0.4-0.3c-0.2-0.1-0.3-0.1-0.5-0.1c-0.2,0-0.4,0-0.6,0.1l-1,0.2
	L-208.3,500.7z"/>
<path class="st2" d="M-203.6,502.2c0.1,0.2,0.2,0.4,0.4,0.5c0.2,0.1,0.5,0.2,0.7,0.1c0.2,0,0.3-0.1,0.5-0.2c0.1-0.1,0.2-0.2,0.3-0.4
	c0.1-0.2,0.1-0.3,0.1-0.5c0-0.2,0-0.4-0.1-0.6l-0.8-4.7l1-0.2l0.9,4.7c0,0.3,0.1,0.5,0.1,0.8c0,0.3-0.1,0.5-0.2,0.8
	c-0.1,0.3-0.3,0.5-0.5,0.7c-0.7,0.5-1.5,0.6-2.3,0.2c-0.4-0.2-0.7-0.5-0.8-0.9L-203.6,502.2z"/>
<path class="st2" d="M-196.1,498.5l-2.1,3.5l2.7-0.5l0.1,0.8l-3.8,0.7l-0.1-0.7l2-3.6l-2.5,0.4l-0.1-0.7l3.6-0.6L-196.1,498.5z"/>
<path class="st2" d="M-191.6,501.7l-1,0.2l-2.7-4.2l1-0.2l2,3.4l0,0l0.7-3.9l1-0.2L-191.6,501.7z"/>
<path class="st2" d="M-185.9,494.4l-2.8,0.5l0.3,1.8c0.1-0.1,0.3-0.1,0.4-0.2c0.1,0,0.3-0.1,0.4-0.1c0.3-0.1,0.6-0.1,0.9,0
	c0.3,0,0.6,0.1,0.8,0.3c0.2,0.2,0.4,0.4,0.6,0.6c0.2,0.3,0.3,0.6,0.3,0.9c0.1,0.3,0.1,0.7,0,1c-0.1,0.3-0.2,0.6-0.4,0.8
	c-0.2,0.2-0.4,0.5-0.7,0.6c-0.3,0.2-0.6,0.3-0.9,0.3c-0.5,0.1-1,0.1-1.4-0.1c-0.4-0.2-0.8-0.5-1-0.9l0.8-0.5
	c0.2,0.3,0.4,0.5,0.6,0.6c0.3,0.1,0.6,0.2,0.9,0.1c0.2,0,0.4-0.1,0.5-0.2c0.2-0.1,0.3-0.2,0.4-0.4c0.1-0.2,0.2-0.3,0.2-0.5
	c0-0.2,0-0.4,0-0.6c0-0.2-0.1-0.5-0.2-0.6c-0.1-0.2-0.3-0.3-0.4-0.4c-0.2-0.1-0.4-0.2-0.6-0.2c-0.2,0-0.4,0-0.6,0
	c-0.3,0.1-0.5,0.1-0.8,0.2c-0.2,0.1-0.5,0.2-0.7,0.4l-0.6-3.6l3.7-0.7L-185.9,494.4z"/>
<path class="st2" d="M-177.3,498c-0.2,0.4-0.5,0.8-0.9,1.1c-0.4,0.3-1,0.5-1.5,0.6c-0.5,0.1-1,0.1-1.5,0c-0.5-0.1-0.9-0.3-1.3-0.5
	c-0.4-0.3-0.7-0.6-1-1c-0.5-0.9-0.7-1.9-0.5-2.9c0.1-0.5,0.3-0.9,0.6-1.3c0.3-0.4,0.6-0.7,1-0.9c0.4-0.3,0.9-0.4,1.4-0.5
	c0.2,0,0.5-0.1,0.7-0.1c0.2,0,0.5,0,0.7,0.1c0.2,0,0.5,0.1,0.7,0.2c0.2,0.1,0.4,0.2,0.5,0.4l-0.6,0.7c-0.2-0.2-0.5-0.4-0.8-0.4
	c-0.3-0.1-0.7-0.1-1,0c-0.4,0.1-0.7,0.2-1,0.4c-0.3,0.2-0.5,0.4-0.7,0.7c-0.2,0.3-0.3,0.6-0.4,1c-0.1,0.4-0.1,0.7,0,1.1
	c0.1,0.4,0.2,0.7,0.4,1.1c0.2,0.3,0.4,0.6,0.7,0.8c0.3,0.2,0.6,0.4,0.9,0.4c0.4,0.1,0.7,0.1,1.1,0c0.4-0.1,0.7-0.2,1-0.4
	c0.3-0.2,0.5-0.5,0.7-0.8L-177.3,498z"/>
<path class="st2" d="M-172.3,492l-2.9,5.8l3.9-0.7l0.1,0.9l-5.1,0.9l-0.1-0.8l2.9-5.9l-3.8,0.7l-0.1-0.8l4.9-0.9L-172.3,492z"/>
<path class="st2" d="M-167.8,493.9c-0.1-0.2-0.3-0.3-0.5-0.3c-0.2-0.1-0.4-0.1-0.7,0c-0.1,0-0.2,0-0.3,0.1c-0.1,0-0.2,0.1-0.3,0.2
	c-0.1,0.1-0.1,0.1-0.2,0.2c0,0.1,0,0.2,0,0.3c0,0.2,0.2,0.3,0.3,0.4c0.3,0.1,0.5,0.1,0.8,0.1c0.2,0,0.4,0,0.6,0.1
	c0.2,0,0.4,0.1,0.5,0.2c0.2,0.1,0.3,0.2,0.4,0.3c0.1,0.1,0.2,0.3,0.2,0.5c0.1,0.2,0.1,0.5,0,0.7c-0.1,0.2-0.2,0.4-0.3,0.5
	c-0.2,0.2-0.3,0.3-0.5,0.4c-0.2,0.1-0.4,0.2-0.7,0.2c-0.3,0.1-0.7,0.1-1.1,0c-0.3-0.1-0.7-0.2-0.9-0.5l0.6-0.7
	c0.2,0.2,0.4,0.3,0.6,0.4c0.2,0.1,0.5,0.1,0.7,0.1c0.1,0,0.2,0,0.3-0.1c0.1,0,0.2-0.1,0.3-0.2c0.2-0.1,0.2-0.4,0.2-0.6
	c0-0.2-0.2-0.4-0.4-0.4c-0.3-0.1-0.6-0.1-0.9-0.1l-0.5-0.1c-0.2,0-0.3-0.1-0.5-0.1c-0.1-0.1-0.3-0.2-0.4-0.3
	c-0.1-0.2-0.2-0.3-0.2-0.5c-0.1-0.2-0.1-0.4,0-0.7c0.1-0.2,0.2-0.4,0.3-0.5c0.1-0.1,0.3-0.3,0.5-0.4c0.5-0.2,1.1-0.3,1.6-0.2
	c0.3,0.1,0.6,0.2,0.8,0.4L-167.8,493.9z"/>
<path class="st2" d="M-165.2,492.2c0,0.1,0.1,0.2,0.1,0.4s0.1,0.3,0.1,0.4l0,0c0-0.1,0.1-0.3,0.2-0.4c0.1-0.1,0.2-0.2,0.3-0.3
	c0.1-0.1,0.2-0.2,0.4-0.3c0.1-0.1,0.3-0.1,0.5-0.2c0.3-0.1,0.5-0.1,0.8,0c0.2,0.1,0.4,0.2,0.6,0.3c0.2,0.1,0.3,0.3,0.4,0.5
	c0.1,0.2,0.2,0.5,0.2,0.7l0.5,2.8l-0.9,0.2l-0.5-2.5c0-0.2-0.1-0.4-0.1-0.5c-0.1-0.2-0.1-0.3-0.2-0.4c-0.1-0.1-0.2-0.2-0.4-0.2
	c-0.2,0-0.4,0-0.5,0c-0.3,0.1-0.6,0.3-0.8,0.6c-0.2,0.4-0.2,0.8-0.1,1.2l0.4,2.4l-0.9,0.2l-0.6-3.6c0-0.1-0.1-0.3-0.1-0.5
	s-0.1-0.4-0.1-0.5L-165.2,492.2z"/>
<path class="st2" d="M-159,495.8l-1.1,0.2l1.7-7.4l0.9-0.2l4.2,6.3l-1.1,0.2l-1-1.5l-3.2,0.6L-159,495.8z M-158.4,493.1l2.6-0.5
	l-1.9-3L-158.4,493.1z"/>
<path class="st2" d="M-151.6,490.3L-151.6,490.3c0.1-0.1,0.2-0.2,0.4-0.2c0.1-0.1,0.3-0.1,0.5-0.1c0.3-0.1,0.6-0.1,0.9,0
	c0.3,0.1,0.5,0.2,0.8,0.3c0.2,0.2,0.4,0.4,0.6,0.6c0.2,0.3,0.3,0.5,0.3,0.8c0.1,0.3,0.1,0.7,0,1c-0.1,0.3-0.2,0.6-0.4,0.8
	c-0.2,0.2-0.4,0.4-0.7,0.6c-0.6,0.3-1.2,0.4-1.9,0.3c-0.3-0.1-0.6-0.2-0.8-0.3c-0.2-0.2-0.5-0.4-0.6-0.6c-0.2-0.3-0.3-0.6-0.3-0.9
	c-0.1-0.3-0.1-0.7,0-1c0.1-0.3,0.2-0.7,0.3-1l1.3-3.1l1.1-0.2L-151.6,490.3z M-152,492.4c0,0.2,0.1,0.4,0.2,0.5
	c0.1,0.2,0.2,0.3,0.4,0.4c0.2,0.1,0.3,0.2,0.5,0.2c0.2,0,0.4,0,0.6,0c0.2,0,0.4-0.1,0.6-0.2c0.2-0.1,0.3-0.2,0.4-0.4
	c0.1-0.2,0.2-0.3,0.2-0.5c0-0.2,0-0.4,0-0.6c0-0.2-0.1-0.4-0.2-0.6c-0.1-0.2-0.2-0.3-0.4-0.4c-0.1-0.1-0.3-0.2-0.5-0.2
	c-0.2,0-0.4,0-0.6,0c-0.2,0-0.4,0.1-0.6,0.2c-0.2,0.1-0.3,0.2-0.4,0.4c-0.1,0.2-0.2,0.3-0.2,0.5C-152,492-152,492.2-152,492.4z"/>
<path class="st2" d="M-142.3,492.8l-4.5,0.8l-0.2-0.9l2.2-3.2c0.2-0.2,0.3-0.5,0.4-0.8c0.1-0.3,0.1-0.5,0.1-0.8
	c0-0.2-0.1-0.3-0.2-0.5c-0.2-0.3-0.4-0.4-0.8-0.5c-0.2,0-0.3,0-0.5,0c-0.3,0-0.6,0.2-0.8,0.5c-0.2,0.3-0.3,0.6-0.3,0.9h-0.9
	c0-0.3,0-0.5,0.1-0.8c0.1-0.2,0.2-0.5,0.4-0.7c0.2-0.2,0.4-0.4,0.6-0.5c0.2-0.1,0.5-0.2,0.8-0.3c0.3,0,0.6,0,0.8,0
	c0.3,0,0.5,0.1,0.8,0.2c0.2,0.1,0.4,0.3,0.6,0.5c0.2,0.2,0.3,0.5,0.3,0.8c0,0.2,0,0.4,0,0.6c0,0.2-0.1,0.4-0.1,0.6
	c-0.1,0.2-0.2,0.4-0.3,0.5c-0.1,0.2-0.2,0.3-0.3,0.5l-1.8,2.6l3.4-0.6L-142.3,492.8z"/>
<path class="st2" d="M-137.9,485.8l-2.8,0.5l0.3,1.8c0.1-0.1,0.3-0.2,0.5-0.2c0.1,0,0.3-0.1,0.4-0.1c0.3-0.1,0.6-0.1,0.9,0
	c0.3,0,0.6,0.1,0.8,0.3c0.2,0.2,0.4,0.4,0.6,0.6c0.2,0.3,0.3,0.6,0.3,0.9c0.1,0.3,0.1,0.7,0,1c-0.1,0.3-0.2,0.6-0.4,0.8
	c-0.2,0.2-0.4,0.5-0.7,0.6c-0.3,0.2-0.6,0.3-0.9,0.3c-0.5,0.1-1,0.1-1.4-0.1c-0.4-0.2-0.8-0.5-1-0.9l0.8-0.5
	c0.2,0.2,0.4,0.4,0.6,0.6c0.3,0.1,0.6,0.2,0.9,0.1c0.2,0,0.4-0.1,0.5-0.2c0.2-0.1,0.3-0.2,0.4-0.4c0.1-0.2,0.2-0.3,0.2-0.5
	c0-0.2,0-0.4,0-0.6c0-0.2-0.1-0.5-0.2-0.6c-0.1-0.2-0.3-0.3-0.4-0.4c-0.2-0.1-0.4-0.2-0.6-0.2c-0.2,0-0.4,0-0.6,0
	c-0.3,0.1-0.5,0.1-0.8,0.2c-0.2,0.1-0.5,0.2-0.7,0.4l-0.6-3.6l3.7-0.7L-137.9,485.8z"/>
<path class="st2" d="M-133.1,487.6c-0.1-0.2-0.3-0.3-0.5-0.3c-0.2-0.1-0.4-0.1-0.7,0c-0.1,0-0.2,0-0.3,0.1c-0.1,0-0.2,0.1-0.2,0.2
	c-0.1,0.1-0.1,0.1-0.2,0.2c0,0.1,0,0.2,0,0.3c0,0.2,0.2,0.3,0.3,0.4c0.3,0.1,0.5,0.1,0.8,0.1c0.2,0,0.4,0,0.6,0.1
	c0.2,0,0.4,0.1,0.5,0.2c0.2,0.1,0.3,0.2,0.4,0.3c0.1,0.1,0.2,0.3,0.2,0.5c0.1,0.2,0.1,0.5,0,0.7c-0.1,0.2-0.2,0.4-0.3,0.5
	c-0.2,0.2-0.3,0.3-0.5,0.4c-0.2,0.1-0.4,0.2-0.7,0.2c-0.3,0.1-0.7,0.1-1.1,0c-0.3-0.1-0.7-0.2-0.9-0.5l0.6-0.7
	c0.2,0.2,0.4,0.3,0.6,0.4c0.2,0.1,0.5,0.1,0.7,0.1c0.1,0,0.2,0,0.3-0.1c0.1,0,0.2-0.1,0.3-0.2c0.1-0.1,0.1-0.1,0.2-0.2
	c0-0.1,0-0.2,0-0.3c0-0.2-0.2-0.4-0.4-0.4c-0.3-0.1-0.6-0.1-0.9-0.1l-0.5-0.1c-0.2,0-0.3-0.1-0.5-0.1c-0.1-0.1-0.3-0.2-0.4-0.3
	c-0.1-0.1-0.2-0.3-0.2-0.5c-0.1-0.2-0.1-0.4,0-0.7c0.1-0.2,0.2-0.4,0.3-0.5c0.1-0.1,0.3-0.3,0.5-0.4c0.2-0.1,0.4-0.2,0.6-0.2
	c0.3-0.1,0.7-0.1,1,0c0.3,0.1,0.6,0.2,0.8,0.4L-133.1,487.6z"/>
<path class="st2" d="M-129.8,486.5l0.3,0c0.2,0,0.4-0.1,0.6-0.2c0.2-0.1,0.3-0.2,0.4-0.3c0.1-0.1,0.2-0.3,0.3-0.4
	c0.1-0.2,0.1-0.4,0-0.6c0-0.2-0.1-0.3-0.2-0.4c-0.1-0.1-0.2-0.2-0.3-0.3c-0.1-0.1-0.3-0.1-0.4-0.2c-0.2,0-0.3,0-0.5,0
	c-0.3,0-0.5,0.2-0.7,0.4c-0.2,0.2-0.3,0.4-0.4,0.7l-0.9-0.1c0.1-0.4,0.3-0.8,0.6-1.1c0.3-0.3,0.8-0.5,1.2-0.6c0.3,0,0.6,0,0.8,0
	c0.3,0,0.5,0.1,0.7,0.2c0.2,0.1,0.4,0.3,0.6,0.5c0.2,0.2,0.3,0.5,0.3,0.8c0,0.2,0,0.4,0,0.6c0,0.2-0.1,0.3-0.2,0.5
	c-0.1,0.2-0.2,0.3-0.3,0.4c-0.1,0.1-0.3,0.2-0.4,0.3l0,0c0.2,0,0.4,0,0.6,0.1c0.2,0.1,0.4,0.2,0.5,0.3c0.3,0.3,0.5,0.6,0.6,1
	c0.1,0.3,0.1,0.6,0,0.9c-0.1,0.3-0.2,0.5-0.4,0.7c-0.2,0.2-0.4,0.4-0.7,0.5c-0.7,0.4-1.6,0.4-2.3,0.2c-0.5-0.2-0.9-0.5-1.1-1
	l0.8-0.4c0.2,0.3,0.4,0.5,0.7,0.6c0.3,0.2,0.7,0.2,1,0.1c0.2,0,0.3-0.1,0.5-0.2c0.2-0.1,0.3-0.2,0.4-0.3c0.1-0.1,0.2-0.3,0.2-0.5
	c0-0.2,0-0.4,0-0.6c0-0.2-0.1-0.4-0.3-0.6c-0.1-0.1-0.3-0.3-0.5-0.3c-0.2-0.1-0.4-0.1-0.6-0.1c-0.2,0-0.4,0-0.6,0l-0.3,0
	L-129.8,486.5z"/>
<path class="st2" d="M-123.1,484.9l1.2-2.8l1.1-0.2l-1.6,3.6l3.1,3.2l-1.2,0.2l-2.4-2.5l-1.3,3.2l-1.2,0.2l1.8-4.1l-2.8-2.8l1.2-0.2
	L-123.1,484.9z"/>
<path class="st2" d="M-116.7,484.3l-1.1,0.2l0.7,3.8l-0.9,0.2l-0.7-3.8l-0.9,0.2l-0.1-0.7l0.9-0.2l-0.2-1c0-0.3,0-0.5,0-0.8
	c0-0.2,0.1-0.4,0.2-0.6c0.1-0.2,0.3-0.4,0.5-0.5c0.2-0.1,0.5-0.2,0.8-0.3c0.2,0,0.4,0,0.6,0v0.8h-0.2h-0.2c-0.1,0-0.3,0.1-0.4,0.2
	c-0.1,0.1-0.2,0.2-0.2,0.3c0,0.1-0.1,0.2-0.1,0.4c0,0.1,0,0.3,0,0.4l0.2,1l1.1-0.2L-116.7,484.3z"/>
<path class="st2" d="M-110.8,487.2l-4.5,0.8l-0.2-0.9l2.2-3.2c0.2-0.2,0.3-0.5,0.4-0.8c0.1-0.3,0.1-0.5,0.1-0.8
	c0-0.2-0.1-0.3-0.2-0.5c-0.1-0.1-0.2-0.2-0.3-0.3c-0.1-0.1-0.3-0.1-0.4-0.2c-0.2,0-0.3,0-0.5,0c-0.3,0-0.6,0.2-0.8,0.5
	c-0.2,0.3-0.3,0.6-0.3,0.9h-0.9c0-0.3,0-0.5,0.1-0.8c0.1-0.2,0.2-0.5,0.4-0.7c0.2-0.2,0.4-0.4,0.6-0.5c0.2-0.1,0.5-0.2,0.8-0.3
	c0.3,0,0.6,0,0.8,0c0.3,0,0.5,0.1,0.8,0.2c0.2,0.1,0.4,0.3,0.6,0.5c0.2,0.2,0.3,0.5,0.3,0.8c0,0.2,0,0.4,0,0.6
	c0,0.2-0.1,0.4-0.1,0.6c-0.1,0.2-0.2,0.4-0.3,0.5c-0.1,0.2-0.2,0.3-0.3,0.5l-1.8,2.6l3.4-0.6L-110.8,487.2z"/>
<path class="st2" d="M-109.4,482.2c0,0.1,0,0.2,0.1,0.4c0,0.1,0.1,0.3,0.1,0.4l0,0c0-0.1,0.1-0.3,0.2-0.4c0.1-0.1,0.2-0.2,0.3-0.3
	c0.2-0.2,0.5-0.4,0.9-0.4c0.3-0.1,0.5-0.1,0.8,0c0.2,0.1,0.4,0.2,0.6,0.3c0.2,0.1,0.3,0.3,0.4,0.5c0.1,0.2,0.2,0.5,0.2,0.7l0.5,2.8
	l-0.9,0.2l-0.5-2.5c0-0.2-0.1-0.4-0.1-0.5c-0.1-0.2-0.1-0.3-0.2-0.4c-0.1-0.1-0.2-0.2-0.4-0.2c-0.2,0-0.4,0-0.5,0
	c-0.3,0.1-0.6,0.3-0.8,0.6c-0.2,0.4-0.2,0.8-0.1,1.2l0.4,2.4l-0.9,0.2l-0.6-3.6c0-0.1-0.1-0.3-0.1-0.5s-0.1-0.4-0.1-0.5
	L-109.4,482.2z"/>
<path class="st2" d="M-99.8,482.8v0.1c0,0.1,0,0.1,0,0.2l-3.6,0.6c0,0.2,0.1,0.4,0.2,0.5c0.1,0.2,0.2,0.3,0.4,0.4
	c0.2,0.1,0.3,0.2,0.5,0.2c0.5,0.1,1,0,1.4-0.3c0.2-0.2,0.3-0.4,0.4-0.6l0.7,0.4c-0.2,0.3-0.4,0.6-0.7,0.9c-0.3,0.2-0.7,0.4-1.1,0.4
	c-0.3,0.1-0.7,0.1-1,0c-0.6-0.1-1.2-0.5-1.5-1c-0.2-0.3-0.3-0.6-0.4-1c-0.1-0.3-0.1-0.7,0-1c0.1-0.3,0.2-0.6,0.4-0.9
	c0.2-0.3,0.4-0.5,0.7-0.6c0.6-0.3,1.2-0.5,1.9-0.4c0.3,0.1,0.5,0.2,0.8,0.4c0.2,0.2,0.4,0.4,0.6,0.7
	C-100,482.1-99.8,482.4-99.8,482.8z M-100.8,482.6c0-0.2-0.1-0.3-0.2-0.5c-0.2-0.3-0.4-0.5-0.8-0.6c-0.2,0-0.4,0-0.6,0
	c-0.2,0-0.4,0.1-0.5,0.2c-0.3,0.2-0.5,0.5-0.6,0.8c0,0.2,0,0.4,0,0.5L-100.8,482.6z"/>
<path class="st2" d="M-97.3,480.1c0.2-0.2,0.5-0.4,0.9-0.4c0.3-0.1,0.6,0,0.9,0.1c0.3,0.1,0.5,0.3,0.7,0.6c0.1-0.3,0.3-0.6,0.5-0.8
	c0.2-0.2,0.5-0.3,0.9-0.4c0.3-0.1,0.5-0.1,0.8,0c0.2,0.1,0.4,0.2,0.6,0.3c0.2,0.1,0.3,0.3,0.4,0.5c0.1,0.2,0.2,0.5,0.2,0.7l0.5,2.8
	l-0.9,0.2l-0.5-2.5c0-0.2-0.1-0.4-0.1-0.5c-0.1-0.2-0.1-0.3-0.2-0.4c-0.1-0.1-0.2-0.2-0.4-0.2c-0.2,0-0.3,0-0.5,0
	c-0.2,0-0.4,0.1-0.5,0.2c-0.1,0.1-0.2,0.2-0.3,0.4c-0.1,0.2-0.1,0.3-0.1,0.5c0,0.2,0,0.4,0,0.5l0.4,2.5l-0.9,0.2l-0.5-2.7
	c0-0.2-0.1-0.3-0.1-0.5c-0.1-0.1-0.1-0.3-0.2-0.4c-0.1-0.1-0.2-0.2-0.3-0.2c-0.2,0-0.3,0-0.5,0c-0.3,0-0.6,0.3-0.8,0.6
	c-0.2,0.4-0.2,0.8-0.1,1.2l0.4,2.4l-0.9,0.2l-0.6-3.6c0-0.1-0.1-0.3-0.1-0.5s-0.1-0.4-0.1-0.5l0.9-0.1c0,0.1,0.1,0.2,0.1,0.4
	s0.1,0.3,0.1,0.4l0,0C-97.7,480.6-97.5,480.3-97.3,480.1z"/>
<path class="st2" d="M-87.6,479l-1.2,0.2l0.4,2.4c0,0.2,0.1,0.4,0.3,0.6c0.2,0.1,0.3,0.1,0.5,0.1l0.3-0.1c0.1,0,0.2-0.1,0.2-0.1
	l0.2,0.7c-0.1,0.1-0.2,0.1-0.4,0.2c-0.1,0-0.3,0.1-0.4,0.1c-0.4,0.1-0.7,0-1.1-0.2c-0.3-0.3-0.5-0.6-0.5-1l-0.4-2.5l-0.9,0.2
	l-0.1-0.7l0.9-0.2l-0.2-1.3l0.9-0.2l0.2,1.3l1.2-0.2L-87.6,479z"/>
<path class="st2" d="M-83.3,482.2l-1,0.2l-0.5-3l-3.2-3.4l1.2-0.2l2.4,2.8l1.4-3.4l1.1-0.2l-1.9,4.3L-83.3,482.2z"/>
<path class="st2" d="M-80.1,482.5c0.2,0.2,0.5,0.3,0.8,0.4c0.3,0.1,0.7,0.1,1,0c0.3,0,0.5-0.1,0.7-0.3c0.2-0.1,0.3-0.3,0.4-0.4
	c0.1-0.2,0.2-0.4,0.2-0.6c0-0.2,0-0.5,0-0.7l-0.1-0.6l0,0c-0.1,0.3-0.3,0.5-0.6,0.7c-0.3,0.2-0.6,0.3-0.9,0.4c-0.3,0.1-0.7,0.1-1,0
	c-0.3-0.1-0.6-0.2-0.8-0.4c-0.2-0.2-0.4-0.4-0.6-0.7c-0.2-0.3-0.3-0.6-0.3-0.9c-0.1-0.3-0.1-0.7,0-1c0.1-0.3,0.2-0.6,0.3-0.8
	c0.2-0.3,0.4-0.5,0.6-0.6c0.3-0.2,0.6-0.3,0.9-0.4c0.3-0.1,0.7-0.1,1,0c0.3,0.1,0.6,0.3,0.8,0.5l0,0l-0.1-0.7l0.9-0.2l0.8,4.4
	c0,0.3,0,0.7,0,1c0,0.3-0.1,0.6-0.3,0.9c-0.2,0.3-0.4,0.5-0.7,0.7c-0.4,0.2-0.7,0.4-1.2,0.4c-0.4,0.1-0.8,0.1-1.2,0
	c-0.4-0.1-0.8-0.2-1.1-0.4L-80.1,482.5z M-80.4,479.3c0,0.2,0.1,0.4,0.2,0.6c0.2,0.4,0.5,0.6,0.9,0.7c0.2,0,0.4,0,0.7,0
	c0.2,0,0.4-0.1,0.6-0.2c0.2-0.1,0.3-0.3,0.4-0.4c0.1-0.2,0.2-0.4,0.2-0.6c0-0.2,0-0.4,0-0.6c0-0.2-0.1-0.4-0.2-0.6
	c-0.1-0.2-0.2-0.3-0.4-0.5c-0.2-0.1-0.4-0.2-0.6-0.3c-0.2,0-0.4,0-0.7,0c-0.2,0-0.4,0.1-0.6,0.2c-0.2,0.1-0.3,0.3-0.4,0.4
	c-0.1,0.2-0.2,0.4-0.2,0.6C-80.4,478.9-80.4,479.1-80.4,479.3L-80.4,479.3z"/>
<path class="st2" d="M-75.5,473.8l2.1-0.4c0.3-0.1,0.7-0.1,1-0.1c0.3,0,0.6,0.1,0.8,0.2c0.2,0.1,0.4,0.3,0.6,0.5
	c0.2,0.2,0.3,0.5,0.3,0.8c0.1,0.3,0.1,0.6,0,0.9c-0.1,0.3-0.2,0.5-0.4,0.7c-0.2,0.2-0.5,0.4-0.7,0.5c-0.3,0.1-0.7,0.2-1,0.3
	l-1.1,0.2l0.5,3l-1,0.2L-75.5,473.8z M-74,476.6l1-0.2c0.2,0,0.4-0.1,0.6-0.2c0.2-0.1,0.3-0.2,0.5-0.3c0.1-0.1,0.2-0.2,0.3-0.4
	c0-0.2,0-0.4,0-0.5c0-0.2-0.1-0.4-0.2-0.5c-0.1-0.1-0.2-0.2-0.4-0.3c-0.2-0.1-0.3-0.1-0.5-0.1c-0.2,0-0.4,0-0.6,0.1l-1,0.2
	L-74,476.6z"/>
<path class="st2" d="M-67.1,481.7l-0.9,0.2l-1.2-6.9l0.9-0.2l0.1,0.7l0,0c0.1-0.3,0.3-0.5,0.5-0.7c0.3-0.2,0.6-0.4,1-0.4
	c0.3-0.1,0.7-0.1,1,0c0.3,0.1,0.6,0.2,0.8,0.4c0.2,0.2,0.5,0.4,0.6,0.7c0.3,0.6,0.4,1.2,0.3,1.9c0,0.3-0.2,0.6-0.3,0.9
	c-0.2,0.3-0.4,0.5-0.6,0.6c-0.3,0.2-0.6,0.3-0.9,0.4c-0.3,0.1-0.7,0.1-1,0c-0.3-0.1-0.6-0.3-0.8-0.5l0,0L-67.1,481.7z M-64.9,476.6
	c0-0.2-0.1-0.4-0.2-0.6c-0.1-0.2-0.2-0.3-0.4-0.5c-0.2-0.1-0.3-0.2-0.5-0.3c-0.2-0.1-0.5-0.1-0.7,0c-0.2,0-0.4,0.1-0.6,0.2
	c-0.2,0.1-0.3,0.3-0.4,0.5c-0.1,0.2-0.2,0.4-0.2,0.6c-0.1,0.4,0,0.9,0.2,1.3c0.1,0.2,0.2,0.3,0.4,0.5c0.2,0.1,0.4,0.2,0.5,0.3
	c0.2,0,0.4,0,0.7,0c0.2,0,0.4-0.1,0.6-0.3c0.2-0.1,0.3-0.3,0.4-0.5c0.1-0.2,0.2-0.4,0.2-0.6C-64.9,477-64.9,476.8-64.9,476.6
	L-64.9,476.6z"/>
<path class="st2" d="M-63.3,471.6l1-0.2l0.5,2.9l3.5-0.6l-0.5-2.9l1-0.2l1.2,6.8l-1,0.2l-0.6-3.1l-3.5,0.6l0.6,3.1l-1,0.2
	L-63.3,471.6z"/>
<path class="st2" d="M-51.3,475.8c-0.1,0.3-0.3,0.6-0.6,0.8c-0.3,0.2-0.6,0.3-0.9,0.4c-0.3,0.1-0.7,0.1-1,0
	c-0.3-0.1-0.6-0.2-0.8-0.4c-0.2-0.2-0.4-0.4-0.6-0.7c-0.2-0.3-0.3-0.6-0.3-0.9c-0.1-0.3-0.1-0.7,0-1c0.1-0.3,0.2-0.6,0.3-0.9
	c0.2-0.3,0.4-0.5,0.6-0.6c0.3-0.2,0.6-0.3,0.9-0.4c0.3-0.1,0.7,0,1,0.1c0.3,0.1,0.5,0.3,0.8,0.5l0,0l-0.6-3.4l0.9-0.2l1.3,7.3
	l-0.9,0.2L-51.3,475.8L-51.3,475.8L-51.3,475.8z M-54.6,474.8c0,0.2,0.1,0.4,0.2,0.6c0.1,0.2,0.2,0.3,0.4,0.5
	c0.2,0.1,0.3,0.2,0.5,0.3c0.4,0.1,0.9,0,1.3-0.2c0.2-0.1,0.3-0.3,0.4-0.4c0.1-0.2,0.2-0.4,0.2-0.6c0.1-0.4,0-0.9-0.2-1.2
	c-0.1-0.2-0.2-0.3-0.4-0.5c-0.2-0.1-0.3-0.2-0.5-0.3c-0.2,0-0.4,0-0.7,0c-0.2,0-0.4,0.1-0.6,0.2c-0.2,0.1-0.3,0.3-0.4,0.5
	c-0.1,0.2-0.2,0.4-0.2,0.6C-54.7,474.3-54.7,474.5-54.6,474.8L-54.6,474.8z"/>
<path class="st2" d="M-46.9,474.3L-46.9,474.3l0.6-5.7l1-0.2l2.6,5.2l0,0l0.5-5.7l1-0.2l-0.8,7.2l-1,0.2l-2.6-5.2l0,0l-0.7,5.8
	l-1,0.2l-3.2-6.5l1-0.2L-46.9,474.3z"/>
<path class="st2" d="M-37.9,473.2l3.6-0.6l0.1,0.9l-4.5,0.8l-1.2-6.8l4.4-0.8l0.1,0.8l-3.4,0.6l0.4,2l3.2-0.6l0.1,0.8l-3.2,0.6
	L-37.9,473.2z"/>
<path class="st2" d="M-240.8,520l-2.1,3.5l2.7-0.5l0.1,0.8l-3.8,0.7l-0.1-0.7l2-3.6l-2.5,0.4l-0.1-0.7l3.6-0.6L-240.8,520z"/>
<path class="st2" d="M-235.8,516.9l-1.7,6.5l-1.1,0.2l1.8-6.5l-3.4,0.6l-0.1-0.8l4.4-0.8L-235.8,516.9z"/>
<path class="st2" d="M-231,519.4L-231,519.4c-0.1,0.1-0.2,0.2-0.4,0.2l-0.2,0.1l-0.2,0c-0.3,0.1-0.6,0.1-0.9,0
	c-0.3-0.1-0.5-0.2-0.8-0.3c-0.2-0.2-0.4-0.4-0.6-0.6c-0.2-0.3-0.3-0.5-0.3-0.8c-0.1-0.3-0.1-0.7,0-1c0.1-0.3,0.2-0.6,0.4-0.8
	c0.2-0.2,0.4-0.4,0.7-0.6c0.3-0.2,0.6-0.3,0.9-0.3c0.3-0.1,0.7-0.1,1,0c0.3,0.1,0.6,0.2,0.8,0.3c0.2,0.2,0.5,0.4,0.6,0.6
	c0.2,0.3,0.3,0.6,0.3,0.9c0.1,0.3,0.1,0.7,0,1c-0.1,0.3-0.2,0.7-0.3,1l-1.3,3.1l-1.1,0.2L-231,519.4z M-230.6,517.2
	c0-0.2-0.1-0.4-0.2-0.6c-0.1-0.2-0.2-0.3-0.4-0.4c-0.3-0.2-0.7-0.3-1.1-0.2c-0.2,0-0.4,0.1-0.6,0.2c-0.2,0.1-0.3,0.2-0.4,0.4
	c-0.1,0.2-0.2,0.3-0.2,0.5c0,0.2,0,0.4,0,0.6c0,0.2,0.1,0.4,0.2,0.6c0.1,0.2,0.2,0.3,0.4,0.4c0.1,0.1,0.3,0.2,0.5,0.2
	c0.2,0,0.4,0,0.6,0c0.2,0,0.4-0.1,0.6-0.2c0.2-0.1,0.3-0.2,0.4-0.4c0.1-0.2,0.2-0.3,0.2-0.5C-230.5,517.6-230.6,517.4-230.6,517.2
	L-230.6,517.2z"/>
<path class="st2" d="M-223.4,518.5c0.1,0.3,0.1,0.7,0,1c-0.1,0.3-0.2,0.6-0.4,0.9c-0.2,0.3-0.4,0.5-0.7,0.6c-0.6,0.4-1.3,0.5-2,0.4
	c-0.3-0.1-0.6-0.2-0.9-0.4c-0.3-0.2-0.5-0.4-0.7-0.7c-0.2-0.3-0.3-0.6-0.4-0.9c-0.1-0.3-0.1-0.7,0-1c0.1-0.6,0.5-1.2,1.1-1.5
	c0.6-0.4,1.3-0.5,1.9-0.3c0.3,0.1,0.6,0.2,0.9,0.4c0.3,0.2,0.5,0.4,0.7,0.7C-223.6,517.8-223.4,518.1-223.4,518.5z M-224.3,518.6
	c0-0.2-0.1-0.4-0.2-0.6c-0.1-0.2-0.2-0.3-0.4-0.5c-0.2-0.1-0.3-0.2-0.5-0.3c-0.4-0.1-0.9,0-1.3,0.2c-0.2,0.1-0.3,0.3-0.4,0.4
	c-0.1,0.2-0.2,0.4-0.2,0.6c0,0.2,0,0.4,0,0.6c0,0.2,0.1,0.4,0.2,0.6c0.1,0.2,0.2,0.3,0.4,0.5c0.2,0.1,0.3,0.2,0.6,0.3
	c0.4,0.1,0.9,0,1.3-0.2c0.2-0.1,0.3-0.3,0.4-0.5c0.1-0.2,0.2-0.4,0.2-0.6C-224.3,519.1-224.3,518.9-224.3,518.6L-224.3,518.6z"/>
<path class="st2" d="M-221.6,514.1c0,0.2,0,0.3-0.1,0.5c-0.2,0.3-0.6,0.3-0.9,0.2c-0.1-0.1-0.2-0.2-0.2-0.4c0-0.2,0-0.3,0.1-0.5
	c0.2-0.3,0.6-0.3,0.9-0.2C-221.7,513.8-221.6,513.9-221.6,514.1z M-222.3,522.2c0.1,0,0.3,0,0.4,0c0.1,0,0.2-0.1,0.3-0.1
	c0.1-0.1,0.1-0.1,0.2-0.2c0-0.1,0-0.2,0-0.3c0-0.1,0-0.3,0-0.4l-0.9-5.2l0.9-0.2l0.9,5.2c0,0.2,0.1,0.4,0.1,0.7c0,0.2,0,0.4-0.1,0.6
	c-0.1,0.2-0.2,0.3-0.4,0.5c-0.2,0.1-0.5,0.2-0.7,0.3h-0.3h-0.3L-222.3,522.2z"/>
<path class="st2" d="M-217.2,518.3L-217.2,518.3l0.6-5.7l1.1-0.2l2.6,5.2l0,0l0.5-5.7l1-0.2l-0.8,7.2l-1,0.2l-2.7-5.2l0,0l-0.7,5.8
	l-1,0.2l-3.2-6.5l1-0.2L-217.2,518.3z"/>
<path class="st2" d="M-209.3,513.6c0,0.1,0.1,0.2,0.1,0.4c0,0.1,0.1,0.3,0.1,0.4l0,0c0-0.1,0.1-0.3,0.2-0.4c0.1-0.1,0.2-0.2,0.3-0.3
	c0.2-0.2,0.5-0.4,0.9-0.4c0.3-0.1,0.5-0.1,0.8,0c0.2,0.1,0.4,0.2,0.6,0.3c0.2,0.1,0.3,0.3,0.4,0.5c0.1,0.2,0.2,0.5,0.2,0.7l0.5,2.8
	l-0.9,0.2l-0.5-2.5c0-0.2-0.1-0.4-0.1-0.5c-0.1-0.2-0.1-0.3-0.2-0.4c-0.1-0.1-0.2-0.2-0.4-0.2c-0.2,0-0.4,0-0.5,0
	c-0.3,0.1-0.6,0.3-0.8,0.6c-0.2,0.4-0.2,0.8-0.1,1.2l0.4,2.4l-0.9,0.2l-0.6-3.6c0-0.1-0.1-0.3-0.1-0.5s-0.1-0.4-0.1-0.5
	L-209.3,513.6z"/>
<path class="st2" d="M-204.7,510.4l2.1-0.4c0.3-0.1,0.7-0.1,1-0.1c0.3,0,0.6,0.1,0.8,0.2c0.2,0.1,0.4,0.3,0.6,0.5
	c0.2,0.2,0.3,0.5,0.3,0.8c0.1,0.3,0.1,0.6,0,0.9c-0.1,0.3-0.2,0.5-0.4,0.7c-0.2,0.2-0.5,0.4-0.7,0.5c-0.3,0.1-0.7,0.2-1,0.3
	l-1.1,0.2l0.5,3l-1,0.2L-204.7,510.4z M-203.2,513.3l1-0.2c0.2,0,0.4-0.1,0.6-0.2c0.2-0.1,0.3-0.2,0.5-0.3c0.1-0.1,0.2-0.2,0.3-0.4
	c0-0.2,0-0.4,0-0.5c0-0.2-0.1-0.3-0.2-0.5c-0.1-0.1-0.2-0.2-0.4-0.3c-0.2-0.1-0.3-0.1-0.5-0.1c-0.2,0-0.4,0-0.6,0.1l-1,0.2
	L-203.2,513.3z"/>
<path class="st2" d="M-196.9,515.4l0.1,0.7l-0.9,0.2l-1.3-7.3l0.9-0.2l0.6,3.4l0,0c0.3-0.6,0.8-1,1.5-1.1c0.3-0.1,0.7-0.1,1,0
	c0.3,0.1,0.6,0.2,0.8,0.4c0.2,0.2,0.4,0.4,0.6,0.7c0.3,0.6,0.4,1.2,0.3,1.9c0,0.3-0.2,0.6-0.3,0.9c-0.2,0.3-0.4,0.5-0.6,0.6
	c-0.3,0.2-0.6,0.3-0.9,0.4c-0.3,0.1-0.7,0-1,0C-196.4,515.8-196.7,515.6-196.9,515.4L-196.9,515.4L-196.9,515.4z M-194.2,513.2
	c0-0.2-0.1-0.4-0.2-0.6c-0.1-0.2-0.2-0.3-0.4-0.5c-0.2-0.1-0.3-0.2-0.5-0.3c-0.2-0.1-0.5-0.1-0.7,0c-0.2,0-0.4,0.1-0.6,0.2
	c-0.2,0.1-0.3,0.3-0.4,0.5c-0.1,0.2-0.2,0.4-0.2,0.6c-0.1,0.4,0,0.9,0.2,1.2c0.1,0.2,0.2,0.3,0.4,0.5c0.2,0.1,0.4,0.2,0.6,0.3
	c0.2,0,0.4,0,0.7,0c0.2,0,0.4-0.1,0.6-0.3c0.2-0.1,0.3-0.3,0.4-0.5c0.1-0.2,0.2-0.4,0.2-0.6C-194.1,513.7-194.1,513.4-194.2,513.2
	L-194.2,513.2z"/>
<path class="st2" d="M-187.8,513.7c-0.1,0.3-0.3,0.6-0.6,0.8c-0.3,0.2-0.6,0.3-0.9,0.4c-0.3,0.1-0.7,0.1-1,0
	c-0.3-0.1-0.6-0.2-0.8-0.4c-0.2-0.2-0.4-0.4-0.6-0.7c-0.2-0.3-0.3-0.6-0.3-0.9c-0.1-0.3-0.1-0.7,0-1c0.1-0.3,0.2-0.6,0.3-0.9
	c0.2-0.3,0.4-0.5,0.6-0.6c0.3-0.2,0.6-0.3,0.9-0.4c0.3-0.1,0.7,0,1,0.1c0.3,0.1,0.5,0.3,0.8,0.5l0,0l-0.5-3.4l0.9-0.2l1.3,7.3
	l-0.9,0.2L-187.8,513.7L-187.8,513.7L-187.8,513.7z M-191.1,512.7c0,0.2,0.1,0.4,0.2,0.6c0.1,0.2,0.2,0.3,0.4,0.5
	c0.2,0.1,0.3,0.2,0.5,0.3c0.2,0.1,0.5,0.1,0.7,0c0.2,0,0.4-0.1,0.6-0.2c0.2-0.1,0.3-0.3,0.4-0.4c0.1-0.2,0.2-0.4,0.2-0.6
	c0.1-0.4,0-0.9-0.2-1.2c-0.1-0.2-0.2-0.3-0.4-0.5c-0.2-0.1-0.3-0.2-0.6-0.3c-0.2-0.1-0.4-0.1-0.7,0c-0.2,0-0.4,0.1-0.6,0.2
	c-0.2,0.1-0.3,0.3-0.4,0.4c-0.1,0.2-0.2,0.4-0.2,0.6C-191.2,512.3-191.2,512.5-191.1,512.7L-191.1,512.7z"/>
<path class="st2" d="M-180.8,507.6c-0.3-0.2-0.6-0.3-0.9-0.4c-0.4-0.1-0.7-0.1-1.1,0c-0.4,0.1-0.7,0.2-1,0.4
	c-0.3,0.2-0.5,0.4-0.7,0.7c-0.2,0.3-0.3,0.6-0.4,1c-0.1,0.4-0.1,0.7,0,1.1c0.1,0.4,0.2,0.7,0.4,1c0.2,0.3,0.4,0.6,0.7,0.8
	c0.3,0.2,0.6,0.4,0.9,0.4c0.4,0.1,0.8,0.1,1.1,0c0.3-0.1,0.6-0.1,0.9-0.2c0.2-0.1,0.5-0.2,0.7-0.4l-0.3-1.9l-1.5,0.3l-0.1-0.8
	l2.5-0.4l0.6,3.3c-0.3,0.3-0.7,0.5-1.1,0.7c-0.4,0.2-0.9,0.3-1.4,0.4c-0.5,0.1-1,0.1-1.5,0c-0.9-0.2-1.7-0.7-2.2-1.5
	c-0.3-0.4-0.4-0.9-0.5-1.4c-0.1-0.5-0.1-1,0-1.5c0.1-0.5,0.3-0.9,0.6-1.3c0.3-0.4,0.6-0.7,1-0.9c0.4-0.3,0.9-0.4,1.4-0.5
	c0.5-0.1,1-0.1,1.5,0c0.4,0.1,0.8,0.2,1.2,0.5L-180.8,507.6z"/>
<circle class="st4" cx="-62.1" cy="397.6" r="11.4"/>
<ellipse transform="matrix(-0.7215 -0.6924 0.6924 -0.7215 -382.1741 641.6161)" class="st5" cx="-62.1" cy="397.7" rx="3.3" ry="20.5"/>
</svg>
