<?xml version="1.0" encoding="utf-8"?>
<!-- Generator: Adobe Illustrator 19.1.0, SVG Export Plug-In . SVG Version: 6.00 Build 0)  -->
<svg version="1.1" id="Layer_1" xmlns="http://www.w3.org/2000/svg" xmlns:xlink="http://www.w3.org/1999/xlink" x="0px" y="0px"
	 width="278.4px" height="273.2px" viewBox="-295.5 313.8 278.4 273.2" style="enable-background:new -295.5 313.8 278.4 273.2;"
	 xml:space="preserve">
<style type="text/css">
	.st0{fill:#FFFFFF;stroke:#FFFFFF;stroke-width:3.6;stroke-miterlimit:10;}
	.st1{opacity:0.3;fill:none;stroke:#6AC9D0;stroke-width:5.03;stroke-linejoin:round;enable-background:new    ;}
	.st2{opacity:0.8;}
	.st3{fill:#6AC9D0;stroke:#6AC9D0;stroke-width:1.69;stroke-linecap:round;stroke-linejoin:round;}
	.st4{fill:#FFFFFF;}
	.st5{opacity:0.3;fill:none;stroke:#6AC9D0;stroke-width:5.03;stroke-miterlimit:10;enable-background:new    ;}
	.st6{fill:none;}
	.st7{opacity:0.3;fill:none;stroke:#6AC9D0;stroke-width:10.07;stroke-miterlimit:10;enable-background:new    ;}
	.st8{fill:#6AC9D0;}
	.st9{fill:#EF5034;}
	.st10{fill:#083B54;}
	.st11{fill:#F59122;}
	.st12{fill:#E0F1F2;stroke:#6AC9D0;stroke-width:2.77;stroke-miterlimit:10;}
	.st13{fill:#6AC9D0;stroke:#6AC9D0;stroke-width:2.36;stroke-miterlimit:10;}
	.st14{opacity:0.1;fill:#6AC9D0;enable-background:new    ;}
	.st15{opacity:0.9;fill:#FFFFFF;enable-background:new    ;}
	.st16{fill:#FFFFFF;stroke:#FFFFFF;stroke-width:5.03;stroke-miterlimit:10;}
	.st17{fill:#6AC9D0;stroke:#6AC9D0;stroke-width:3.6;stroke-linecap:round;stroke-linejoin:round;}
</style>
<title>ipfs illustrations</title>
<path class="st0" d="M-264.6,353.9c-9.2,2.5-14.7,11.9-12.2,21.2c0,0.1,0.1,0.3,0.1,0.4v0.1c2.6,9.2,12.2,14.6,21.4,12.1
	c0.1,0,0.3-0.1,0.4-0.1c2.7-0.7,5.2-2.1,7.3-4c2.1,0,12.9,2.5,12.9,2.5s-7.3-8.5-8-10.9c0.7-3,0.7-6.1-0.2-9.1v-0.1
	c-2.6-9.2-12.1-14.7-21.4-12.1C-264.3,353.9-264.5,353.9-264.6,353.9L-264.6,353.9L-264.6,353.9z"/>
<path class="st1" d="M-264.6,353.9c-9.2,2.5-14.7,11.9-12.2,21.2c0,0.1,0.1,0.3,0.1,0.4v0.1c2.6,9.2,12.2,14.6,21.4,12.1
	c0.1,0,0.3-0.1,0.4-0.1c2.7-0.7,5.2-2.1,7.3-4c2.1,0,12.9,2.5,12.9,2.5s-7.3-8.5-8-10.9c0.7-3,0.7-6.1-0.2-9.1v-0.1
	c-2.6-9.2-12.1-14.7-21.4-12.1C-264.3,353.9-264.5,353.9-264.6,353.9L-264.6,353.9L-264.6,353.9z"/>
<g class="st2">
	<path class="st3" d="M-265.1,364.3c0.3-0.7,0.7-1.4,1.2-2c0.5-0.6,1.2-1,1.9-1.3c0.8-0.3,1.6-0.5,2.5-0.5c0.8,0,1.5,0.1,2.2,0.4
		c0.6,0.2,1.2,0.6,1.8,1c0.5,0.5,0.9,1,1.1,1.6c0.3,0.7,0.4,1.5,0.4,2.2c0,0.5-0.1,1-0.2,1.5c-0.1,0.4-0.3,0.8-0.5,1.2
		c-0.2,0.4-0.5,0.7-0.7,1c-0.3,0.3-0.6,0.6-0.8,0.9l-0.8,0.8c-0.3,0.3-0.5,0.6-0.7,0.9c-0.2,0.3-0.4,0.6-0.5,1
		c-0.1,0.4-0.2,0.8-0.2,1.2l0,0c0,0.6-0.4,1-1,1h-0.3c-0.6,0-1-0.4-1-1v-0.2c0-0.6,0.2-1.3,0.4-1.9c0.2-0.5,0.5-1,0.9-1.4
		c0.3-0.4,0.7-0.8,1.1-1.1c0.4-0.3,0.7-0.7,1.1-1.1c0.3-0.4,0.6-0.8,0.8-1.3c0.2-0.5,0.3-1.1,0.2-1.7c0-0.8-0.3-1.7-0.9-2.3
		c-0.6-0.6-1.4-0.9-2.2-0.8c-0.6,0-1.1,0.1-1.6,0.3c-0.4,0.2-0.8,0.5-1.1,0.9c-0.3,0.4-0.5,0.9-0.6,1.4c-0.1,0.3-0.1,0.5-0.2,0.8
		c-0.1,0.5-0.5,0.9-1,0.9h-0.2c-0.6,0-1-0.4-1-1c0-0.1,0-0.1,0-0.1C-265.3,365.2-265.2,364.7-265.1,364.3z M-258.3,379.5v0.2
		c0,0.7-0.6,1.4-1.3,1.4c0,0,0,0,0,0h-0.2c-0.7,0-1.4-0.6-1.4-1.3c0,0,0,0,0,0v-0.2c0-0.7,0.6-1.3,1.4-1.3h0.2
		C-258.9,378.2-258.3,378.8-258.3,379.5z"/>
</g>
<path class="st4" d="M-165.2,476.3c-9.6-0.4-17.7,7-18.1,16.6c0,0.1,0,0.3,0,0.4v0.1c-0.1,3.1,0.6,6.1,2.1,8.9
	c-0.1,2.4-5,12.5-5,12.5s9.9-5.1,11.9-5.6c2.4,1.4,5.2,2.1,8,2.1c9.6,0.5,17.7-6.9,18.2-16.5c0-0.1,0-0.3,0-0.4v-0.1
	c0.4-9.5-7-17.6-16.6-18C-164.9,476.3-165,476.3-165.2,476.3L-165.2,476.3L-165.2,476.3z"/>
<line class="st5" x1="-199.2" y1="532" x2="-283" y2="481.9"/>
<line class="st6" x1="-199.2" y1="532" x2="-283" y2="481.9"/>
<polyline class="st5" points="-163.7,416.7 -219.2,395.5 -199.2,532 "/>
<line class="st7" x1="-125.4" y1="430.2" x2="-163" y2="416.8"/>
<circle class="st8" cx="-283" cy="481.9" r="12.4"/>
<line class="st5" x1="-199.2" y1="532" x2="-256.9" y2="574.7"/>
<line class="st6" x1="-199.2" y1="532" x2="-256.9" y2="574.7"/>
<circle class="st8" cx="-256.9" cy="574.7" r="12.4"/>
<circle class="st9" cx="-125.3" cy="429.5" r="16.1"/>
<circle class="st10" cx="-220.8" cy="395" r="12.4"/>
<circle class="st11" cx="-199.2" cy="532" r="12.4"/>
<path class="st12" d="M-88.2,473.2c2.9-1.8,4.9-4,4.3-4.9l-6.7-10.4c-0.6-0.9-3.4-0.1-6.4,1.7c-2.9,1.8-4.8,3.9-4.3,4.9l6.7,10.5
	c0.4,0.4,1,0.5,1.5,0.3"/>
<path class="st13" d="M-41.4,532.4l-43.3-67.9c-1-1.5-2.5,2.2-6.1,4.4s-8.1,2.3-7.1,3.8l43.3,67.8c1,1.5,4.7,0.9,8.4-1.4
	C-42.6,536.9-40.5,533.9-41.4,532.4z"/>
<path class="st14" d="M-119.3,464.6c-24.1,0-43.7-18.6-43.7-41.4c0-22.8,19.6-41.4,43.6-41.4s43.6,18.6,43.6,41.4
	S-95.3,464.6-119.3,464.6z"/>
<path class="st12" d="M-119.3,387.3c20.9,0,37.8,16.1,37.8,35.9S-98.5,459-119.3,459s-37.8-16-37.8-35.8S-140.2,387.3-119.3,387.3
	 M-119.3,379.5c-25.3,0-46,19.6-46,43.6s20.6,43.6,46,43.6s46-19.6,46-43.6S-94,379.5-119.3,379.5L-119.3,379.5z"/>
<path class="st15" d="M-89.7,426.5c1.3-11.6-5.5-35.5-37.7-31.2"/>
<path class="st16" d="M-56.9,317.6c-20.4-0.9-37.7,14.9-38.6,35.3c0,0.3,0,0.6,0,0.9v0.3c-0.2,6.6,1.3,13.1,4.4,18.9
	c-0.2,5.2-10.7,26.7-10.7,26.7s21-10.9,25.4-11.9c5.2,2.9,11.1,4.5,17.1,4.5c21.7,0.7,38.2-15.8,38.8-36.1v-0.3
	C-19.9,335.4-35.3,318.3-56.9,317.6L-56.9,317.6z"/>
<path class="st1" d="M-56.9,317.6c-20.4-0.9-37.7,14.9-38.6,35.3c0,0.3,0,0.6,0,0.9v0.3c-0.2,6.6,1.3,13.1,4.4,18.9
	c-0.2,5.2-10.7,26.7-10.7,26.7s21-10.9,25.4-11.9c5.2,2.9,11.1,4.5,17.1,4.5c21.7,0.7,38.2-15.8,38.8-36.1v-0.3
	C-19.9,335.4-35.3,318.3-56.9,317.6L-56.9,317.6z"/>
<g class="st2">
	<path class="st17" d="M-68.9,341c0.6-1.6,1.5-3,2.7-4.2c1.2-1.2,2.6-2.1,4.1-2.6c1.7-0.6,3.5-0.9,5.3-0.8c1.6,0.1,3.2,0.4,4.8,1
		c1.4,0.5,2.6,1.3,3.6,2.3c1,1,1.8,2.3,2.3,3.6c0.5,1.5,0.8,3.2,0.7,4.8c0,1-0.2,2.1-0.6,3c-0.3,0.9-0.7,1.7-1.2,2.4
		c-0.5,0.7-1,1.4-1.6,2c-0.6,0.6-1.2,1.2-1.8,1.8s-1.2,1.1-1.8,1.6c-0.6,0.5-1.2,1.1-1.6,1.8c-0.5,0.6-0.9,1.3-1.2,2.1
		c-0.3,0.8-0.5,1.7-0.5,2.6l0,0c-0.1,1.2-1.1,2.1-2.2,2.1h-0.5c-1.2-0.1-2.1-1.1-2.1-2.2v-0.5c0.1-1.4,0.4-2.7,1-4
		c0.5-1,1.2-2,2-2.9c0.7-0.8,1.6-1.6,2.4-2.3c0.8-0.7,1.6-1.4,2.3-2.2c0.7-0.8,1.3-1.6,1.8-2.6c0.5-1.1,0.7-2.3,0.6-3.5
		c0-1.8-0.6-3.5-1.8-4.9c-1.2-1.2-2.9-1.9-4.7-1.9c-1.2-0.1-2.4,0.1-3.5,0.6c-1,0.4-1.8,1.1-2.5,1.9c-0.7,0.8-1.2,1.8-1.5,2.9
		c-0.2,0.6-0.3,1.1-0.4,1.7c-0.2,1.1-1.1,1.8-2.2,1.8h-0.5c-1.2-0.1-2.1-1.1-2-2.3c0-0.1,0-0.1,0-0.2
		C-69.5,342.9-69.2,341.9-68.9,341z M-55.7,374v0.5c-0.1,1.6-1.4,2.8-3,2.8h-0.5c-1.6-0.1-2.8-1.4-2.8-3v-0.5c0.1-1.6,1.4-2.8,3-2.8
		h0.5C-56.9,371.1-55.6,372.4-55.7,374L-55.7,374z"/>
</g>
<path class="st1" d="M-165.2,476.3c-9.6-0.4-17.7,7-18.1,16.6c0,0.1,0,0.3,0,0.4v0.1c-0.1,3.1,0.6,6.1,2.1,8.9
	c-0.1,2.4-5,12.5-5,12.5s9.9-5.1,11.9-5.6c2.4,1.4,5.2,2.1,8,2.1c9.6,0.5,17.7-6.9,18.2-16.5c0-0.1,0-0.3,0-0.4v-0.1
	c0.4-9.5-7-17.6-16.6-18C-164.9,476.3-165,476.3-165.2,476.3L-165.2,476.3L-165.2,476.3z"/>
<g class="st2">
	<path class="st3" d="M-172.5,488.9c0.1-0.8,0.3-1.5,0.6-2.2c0.4-0.7,0.9-1.3,1.5-1.7c0.7-0.5,1.5-0.9,2.3-1.1
		c0.7-0.2,1.5-0.3,2.3-0.2c0.7,0.1,1.3,0.2,1.9,0.6c0.6,0.3,1.1,0.8,1.5,1.3c0.4,0.6,0.8,1.3,0.9,2.1c0.1,0.5,0.2,1,0.2,1.5
		c0,0.4-0.1,0.9-0.2,1.3c-0.1,0.4-0.3,0.8-0.5,1.1c-0.2,0.4-0.4,0.7-0.6,1c-0.2,0.3-0.4,0.6-0.6,1c-0.2,0.3-0.4,0.7-0.5,1
		c-0.1,0.4-0.2,0.7-0.3,1.1c0,0.4,0,0.8,0.1,1.2l0,0c0.1,0.5-0.2,1.1-0.7,1.2c0,0,0,0,0,0l-0.2,0.1c-0.5,0.1-1.1-0.2-1.2-0.7
		c0,0,0,0,0,0l0-0.2c-0.1-0.6-0.2-1.3-0.1-1.9c0.1-0.5,0.3-1.1,0.5-1.6c0.2-0.5,0.5-0.9,0.8-1.4c0.3-0.4,0.5-0.9,0.8-1.3
		c0.2-0.4,0.4-0.9,0.4-1.4c0.1-0.6,0-1.1-0.2-1.7c-0.2-0.8-0.7-1.5-1.5-2c-0.7-0.4-1.6-0.5-2.4-0.2c-0.6,0.1-1.1,0.4-1.5,0.7
		c-0.4,0.3-0.7,0.7-0.9,1.2c-0.2,0.5-0.3,1-0.3,1.5c0,0.3,0,0.6,0,0.8c0.1,0.5-0.3,1-0.8,1.1l-0.2,0c-0.5,0.1-1.1-0.2-1.2-0.7
		c0,0,0-0.1,0-0.1C-172.6,489.8-172.6,489.3-172.5,488.9z M-162.2,502l0.1,0.2c0.2,0.7-0.3,1.5-1,1.6c0,0,0,0,0,0l-0.2,0
		c-0.7,0.2-1.5-0.3-1.6-1c0,0,0,0,0,0l-0.1-0.2c-0.2-0.7,0.3-1.5,1-1.6c0,0,0,0,0,0l0.2-0.1C-163.1,500.8-162.4,501.2-162.2,502
		C-162.2,502-162.2,502-162.2,502L-162.2,502z"/>
</g>
</svg>
