<svg id="Layer_1" data-name="Layer 1" xmlns="http://www.w3.org/2000/svg" viewBox="0 0 138 131"><defs><style>.cls-1,.cls-11,.cls-4{fill:#fff;}.cls-1,.cls-11{stroke:#fff;}.cls-1,.cls-5{stroke-miterlimit:10;}.cls-1{stroke-width:2.48px;}.cls-2,.cls-5{fill:none;stroke:#6ac9d0;stroke-width:2.5px;}.cls-10,.cls-11,.cls-12,.cls-2,.cls-3{stroke-linejoin:round;}.cls-2{opacity:0.6;}.cls-10,.cls-12,.cls-3,.cls-8{fill:#083b54;}.cls-10,.cls-12,.cls-3{stroke:#083b54;stroke-linecap:round;}.cls-3{stroke-width:1.16px;}.cls-5{opacity:0.3;}.cls-6{fill:#6ac9d0;}.cls-7{fill:#ef5034;}.cls-9{fill:#f59122;}.cls-10{stroke-width:1.13px;}.cls-11{stroke-width:2.04px;}.cls-12{stroke-width:1.17px;}</style></defs><title>ipfs-illustrations-revised</title><path class="cls-1" d="M10.69,15.3a11.93,11.93,0,0,0-8.36,14.9l0,0.09A12,12,0,0,0,17.4,38.52a11.65,11.65,0,0,0,5-2.78c1.44,0,8.91,1.73,8.91,1.73s-5-5.9-5.48-7.51a12.11,12.11,0,0,0-.12-6.28l0-.08a12,12,0,0,0-15-8.28h0Z"/><path class="cls-2" d="M10.62,15.3a11.93,11.93,0,0,0-8.36,14.9l0,0.09a12,12,0,0,0,15.05,8.23,11.65,11.65,0,0,0,5-2.78c1.44,0,8.91,1.73,8.91,1.73s-5-5.9-5.48-7.51a12.11,12.11,0,0,0-.12-6.28l0-.08a12,12,0,0,0-15-8.28h0Z"/><path class="cls-3" d="M10.08,22.47a4.11,4.11,0,0,1,.81-1.39,3.61,3.61,0,0,1,1.29-.91,4.29,4.29,0,0,1,1.71-.32,4.67,4.67,0,0,1,1.55.25,3.48,3.48,0,0,1,1.21.71A3.17,3.17,0,0,1,17.44,22a4,4,0,0,1,.28,1.54,3.44,3.44,0,0,1-.14,1,3.62,3.62,0,0,1-.36.81,4.19,4.19,0,0,1-.5.67l-0.57.6-0.57.55a4.75,4.75,0,0,0-.51.6,2.89,2.89,0,0,0-.37.69,2.45,2.45,0,0,0-.14.84h0a0.7,0.7,0,0,1-.7.7H13.7a0.7,0.7,0,0,1-.7-0.7V29.11a3.51,3.51,0,0,1,.29-1.3,4.12,4.12,0,0,1,.6-1,8.17,8.17,0,0,1,.75-0.77,8.42,8.42,0,0,0,.73-0.74,3.27,3.27,0,0,0,.54-0.86,2.57,2.57,0,0,0,.17-1.14,2.34,2.34,0,0,0-.64-1.56,2.12,2.12,0,0,0-1.55-.57,2.5,2.5,0,0,0-1.13.23,2.32,2.32,0,0,0-.79.63,2.55,2.55,0,0,0-.47.94,4.16,4.16,0,0,0-.11.57,0.7,0.7,0,0,1-.69.61H10.55a0.7,0.7,0,0,1-.69-0.79A4.6,4.6,0,0,1,10.08,22.47ZM14.76,33v0.15a0.93,0.93,0,0,1-.93.93H13.67a0.93,0.93,0,0,1-.93-0.93V33A0.93,0.93,0,0,1,13.68,32h0.15A0.93,0.93,0,0,1,14.76,33Z"/><path class="cls-4" d="M71.2,76.08a11.65,11.65,0,0,0-13.34,10v0.08a11.77,11.77,0,0,0,.74,6.06c-0.24,1.62-4.26,8-4.26,8s7-2.68,8.34-2.87a11.33,11.33,0,0,0,5.21,2,11.65,11.65,0,0,0,13.38-10V89.29A11.59,11.59,0,0,0,71.2,76.08h0Z"/><line class="cls-5" x1="47.27" y1="104.37" x2="10.75" y2="82.53"/><polyline class="cls-5" points="82.83 57.13 38.46 41.46 48.49 105.1"/><circle class="cls-6" cx="9.53" cy="81.81" r="5.41"/><line class="cls-5" x1="47.65" y1="105.72" x2="22.5" y2="124.31"/><circle class="cls-6" cx="21.66" cy="124.93" r="5.41" transform="translate(-101.46 94.63) rotate(-66.34)"/><circle class="cls-7" cx="82.83" cy="57.49" r="6.99"/><circle class="cls-8" cx="38.46" cy="41.46" r="5.41"/><circle class="cls-9" cx="48.49" cy="105.1" r="5.41"/><path class="cls-2" d="M71.2,76.08a11.65,11.65,0,0,0-13.34,10v0.08a11.77,11.77,0,0,0,.74,6.06c-0.24,1.62-4.26,8-4.26,8s7-2.68,8.34-2.87a11.33,11.33,0,0,0,5.21,2,11.65,11.65,0,0,0,13.38-10V89.29A11.59,11.59,0,0,0,71.2,76.08h0Z"/><path class="cls-10" d="M65.48,83.9a4,4,0,0,1,.6-1.44,3.51,3.51,0,0,1,1.12-1.05,4.17,4.17,0,0,1,1.6-.54,4.54,4.54,0,0,1,1.53,0,3.39,3.39,0,0,1,1.26.52,3.09,3.09,0,0,1,.91,1A3.86,3.86,0,0,1,73,83.86a3.34,3.34,0,0,1,0,1,3.52,3.52,0,0,1-.23.83,4.07,4.07,0,0,1-.39.71q-0.23.33-.47,0.65l-0.48.61a4.62,4.62,0,0,0-.41.64,2.81,2.81,0,0,0-.26.71,2.38,2.38,0,0,0,0,.83h0a0.68,0.68,0,0,1-.58.76l-0.14,0A0.68,0.68,0,0,1,69.21,90l0-.15a3.42,3.42,0,0,1,.1-1.29,4,4,0,0,1,.45-1,7.94,7.94,0,0,1,.62-0.84A8.19,8.19,0,0,0,71,86a3.18,3.18,0,0,0,.4-0.9,2.5,2.5,0,0,0,0-1.12,2.28,2.28,0,0,0-.83-1.42A2.06,2.06,0,0,0,69,82.18a2.43,2.43,0,0,0-1.05.38,2.26,2.26,0,0,0-.68.72,2.48,2.48,0,0,0-.32,1,4,4,0,0,0,0,.56,0.68,0.68,0,0,1-.59.68l-0.15,0a0.68,0.68,0,0,1-.77-0.66A4.47,4.47,0,0,1,65.48,83.9Zm5.92,9.48,0,0.15a0.91,0.91,0,0,1-.77,1l-0.15,0a0.91,0.91,0,0,1-1-.77l0-.15a0.91,0.91,0,0,1,.77-1l0.15,0A0.91,0.91,0,0,1,71.4,93.39Z"/><path class="cls-11" d="M113.9,2.06A22.15,22.15,0,0,0,90.75,23.74V23.9A22.38,22.38,0,0,0,93.4,35.2c-0.12,3.12-4.88,14.94-4.88,14.94S99.58,44.65,102.17,44a21.54,21.54,0,0,0,10.26,2.7,22.15,22.15,0,0,0,23.23-21.59V25A22,22,0,0,0,113.9,2.06h0Z"/><path class="cls-2" d="M113.9,2.06A22.15,22.15,0,0,0,90.75,23.74V23.9A22.38,22.38,0,0,0,93.4,35.2c-0.12,3.12-4.88,14.94-4.88,14.94S99.58,44.65,102.17,44a21.54,21.54,0,0,0,10.26,2.7,22.15,22.15,0,0,0,23.23-21.59V25A22,22,0,0,0,113.9,2.06h0Z"/><path class="cls-12" d="M118.81,16.9A6.35,6.35,0,0,1,120.38,15a5.57,5.57,0,0,1,2.19-1.09,6.63,6.63,0,0,1,2.68-.09,7.21,7.21,0,0,1,2.31.74,5.38,5.38,0,0,1,1.68,1.37,4.9,4.9,0,0,1,.94,1.92,6.13,6.13,0,0,1,.06,2.42,5.31,5.31,0,0,1-.45,1.51,5.59,5.59,0,0,1-.73,1.15,6.47,6.47,0,0,1-.92.91q-0.5.4-1,.78l-1,.71a7.33,7.33,0,0,0-.92.79,4.46,4.46,0,0,0-.72,1,3.78,3.78,0,0,0-.41,1.26h0a1.08,1.08,0,0,1-1.23.9l-0.22,0a1.08,1.08,0,0,1-.9-1.23l0-.24a5.43,5.43,0,0,1,.74-1.91,6.36,6.36,0,0,1,1.14-1.31,12.62,12.62,0,0,1,1.32-1,13,13,0,0,0,1.29-1,5.05,5.05,0,0,0,1-1.19,4,4,0,0,0,.52-1.71,3.62,3.62,0,0,0-.61-2.54,3.27,3.27,0,0,0-2.24-1.23,3.86,3.86,0,0,0-1.77.09,3.59,3.59,0,0,0-1.36.78,3.94,3.94,0,0,0-.93,1.33,6.43,6.43,0,0,0-.3.84,1.08,1.08,0,0,1-1.2.77l-0.23,0a1.08,1.08,0,0,1-.88-1.36A7.1,7.1,0,0,1,118.81,16.9ZM123.51,34l0,0.23a1.44,1.44,0,0,1-1.64,1.2l-0.23,0a1.44,1.44,0,0,1-1.2-1.64l0-.23a1.44,1.44,0,0,1,1.64-1.2l0.23,0A1.44,1.44,0,0,1,123.51,34Z"/><path class="cls-8" d="M106.89,28l0.08-.44a8.16,8.16,0,0,0,.08-1,6.15,6.15,0,0,0-.09-1.3,2.1,2.1,0,0,0-.44-1l-0.09-.08s-0.06,0,0,0l0,0-0.1-.05a3,3,0,0,0-.27-0.14,1,1,0,0,0-.45-0.07,1.16,1.16,0,0,0-.48.24,2.41,2.41,0,0,0-.41.45,4.12,4.12,0,0,0-.49.91,3.31,3.31,0,0,0-.15.4,3.38,3.38,0,0,1-.1-0.43,3.1,3.1,0,0,1,0-1.18,2.6,2.6,0,0,1,.33-0.79,1.93,1.93,0,0,1,.8-0.74,2,2,0,0,1,1.25-.17,3.19,3.19,0,0,1,.57.17l0.1,0,0.05,0,0.12,0.06L107.51,23a2.57,2.57,0,0,1,.78,1,3.2,3.2,0,0,1,.23,1.09,3.52,3.52,0,0,1-.11,1,4.15,4.15,0,0,1-.31.78,2.91,2.91,0,0,1-.8.94A2.38,2.38,0,0,1,106.89,28Z"/><path class="cls-8" d="M109.35,27a2.53,2.53,0,0,0,.21-0.9,6.45,6.45,0,0,0-.31-2.33,5.86,5.86,0,0,0-1.63-2.68,2.89,2.89,0,0,0-1.44-.68,3.41,3.41,0,0,0-1.67.18,2.87,2.87,0,0,0-1.29,1,4.24,4.24,0,0,0-.66,1.59,7.49,7.49,0,0,0,.12,3.26,9.06,9.06,0,0,0,.88,2.25,8.2,8.2,0,0,0,.49.8,6.72,6.72,0,0,1-.67-0.67,7.78,7.78,0,0,1-1.33-2.17,7.4,7.4,0,0,1-.53-3.64,5,5,0,0,1,.72-2.08,3.78,3.78,0,0,1,1.82-1.53,4.33,4.33,0,0,1,2.34-.27,3.92,3.92,0,0,1,2,1.05,5.28,5.28,0,0,1,1.15,1.7,6.68,6.68,0,0,1,.47,1.7,5.45,5.45,0,0,1-.21,2.58,2.57,2.57,0,0,1-.34.64Z"/><path class="cls-8" d="M101.11,19.46s0-.16,0-0.45a1.74,1.74,0,0,1,.09-0.51,2.5,2.5,0,0,1,.25-0.65,3.23,3.23,0,0,1,.45-0.7,4.13,4.13,0,0,1,.66-0.66,4.57,4.57,0,0,1,.84-0.55,6.41,6.41,0,0,1,.95-0.39,6.68,6.68,0,0,1,1-.19,5.37,5.37,0,0,1,1,0,5.1,5.1,0,0,1,1.67.39,3.09,3.09,0,0,1,.61.31,2.28,2.28,0,0,1,.43.3c0.22,0.19.33,0.3,0.33,0.3l-0.44-.06a9.32,9.32,0,0,0-1.1-.11c-0.22,0-.46,0-0.71,0s-0.51,0-.78,0a9,9,0,0,0-1.62.32,5.13,5.13,0,0,0-.78.28,6.77,6.77,0,0,0-.72.35c-0.22.14-.44,0.26-0.63,0.41a5.58,5.58,0,0,0-.52.45,3.87,3.87,0,0,0-.41.43,2.51,2.51,0,0,0-.3.39C101.21,19.33,101.11,19.46,101.11,19.46Z"/><path class="cls-8" d="M107.12,31.79s-0.26.13-.71,0.32a5.55,5.55,0,0,1-.92.21,4.32,4.32,0,0,1-1.24-.06,4.68,4.68,0,0,1-1.41-.48,6.49,6.49,0,0,1-1.35-1,8.84,8.84,0,0,1-1.15-1.31,13,13,0,0,1-.9-1.54,9.83,9.83,0,0,1-.89-3.37,7.66,7.66,0,0,1,0-1.61,7.94,7.94,0,0,1,.28-1.39,6.81,6.81,0,0,1,.87-1.91,4.52,4.52,0,0,1,.49-0.62s-0.09.28-.19,0.75a11.71,11.71,0,0,0-.25,1.94c0,0.4,0,.83,0,1.28a12.29,12.29,0,0,0,.16,1.39,12.53,12.53,0,0,0,.37,1.43,12,12,0,0,0,.57,1.43,11.41,11.41,0,0,0,.73,1.35c0.14,0.21.29,0.41,0.42,0.62l0.45,0.56a8.59,8.59,0,0,0,1,.93,5.22,5.22,0,0,0,2,1c0.3,0,.58.1,0.83,0.1h0.78Z"/><path class="cls-8" d="M113.22,22.6a5.18,5.18,0,0,1,.37.86,7.87,7.87,0,0,1,.43,2.48,7.47,7.47,0,0,1-2.06,5.3c-0.26.28-.49,0.49-0.75,0.73s-0.53.47-.81,0.68a16.82,16.82,0,0,1-3.51,2.06c-1.18.52-2.31,0.88-3.25,1.2a10.19,10.19,0,0,0-2.16.93,2.87,2.87,0,0,0-.7.58l0.1-.23a2.85,2.85,0,0,1,.39-0.59,7.26,7.26,0,0,1,2-1.53c0.89-.52,1.93-1,3-1.63a23.49,23.49,0,0,0,3.15-2.07c0.25-.2.5-0.39,0.74-0.59s0.5-.43.7-0.63a8,8,0,0,0,1.11-1.34,8.38,8.38,0,0,0,1.14-2.93,11.78,11.78,0,0,0,.19-2.35C113.26,22.94,113.22,22.6,113.22,22.6Z"/><path class="cls-8" d="M115,28.86s0,0.23.1,0.63a2.54,2.54,0,0,1,0,.73,6.94,6.94,0,0,1-.14,1,6.75,6.75,0,0,1-.43,1.12,6,6,0,0,1-.74,1.12c-0.15.18-.3,0.36-0.47,0.53l-0.54.47a10,10,0,0,1-1.18.84,13.3,13.3,0,0,1-1.28.64,10.42,10.42,0,0,1-1.28.47,13.3,13.3,0,0,1-2.35.49,10.42,10.42,0,0,1-2.33,0s0.86-.39,2.11-0.89A37.55,37.55,0,0,0,110.84,34c0.34-.24.73-0.43,1-0.7l0.49-.36,0.43-.4a7.48,7.48,0,0,0,.77-0.81c0.23-.28.38-0.57,0.57-0.83s0.25-.53.37-0.77a3.52,3.52,0,0,0,.23-0.68C114.87,29.08,115,28.86,115,28.86Z"/><path class="cls-8" d="M115.19,26.4s0-.34-0.05-0.94l0-1.08C115,24,115,23.52,114.93,23s-0.23-1-.33-1.54-0.37-1.08-.56-1.64a11.13,11.13,0,0,0-.89-1.59A8.93,8.93,0,0,0,112,16.84a8.8,8.8,0,0,0-1.46-1.12,4.65,4.65,0,0,0-.79-0.43,4.44,4.44,0,0,0-.82-0.34l-0.83-.25-0.82-.14a4.6,4.6,0,0,0-.79-0.05,3.81,3.81,0,0,0-.75,0,7.93,7.93,0,0,0-1.31.19,6.34,6.34,0,0,0-1,.28l-0.88.33s0.26-.22.74-0.6a4.78,4.78,0,0,1,1-.56,6.06,6.06,0,0,1,1.37-.5,7.37,7.37,0,0,1,1.74-.21l1,0c0.33,0,.65.13,1,0.2a5.6,5.6,0,0,1,1,.33l0.5,0.19c0.16,0.08.31,0.18,0.47,0.27a10.08,10.08,0,0,1,1.78,1.3,10.41,10.41,0,0,1,1.34,1.73,9.6,9.6,0,0,1,.9,1.9,12.63,12.63,0,0,1,.43,1.89A12.55,12.55,0,0,1,115.8,23c0,0.54-.08,1-0.12,1.44s-0.17.76-.24,1.06C115.29,26.07,115.19,26.4,115.19,26.4Z"/><path class="cls-8" d="M114.39,15.34s-0.31-.25-0.82-0.71a5.21,5.21,0,0,0-1-.72c-0.2-.12-0.39-0.27-0.62-0.38l-0.74-.34a11.77,11.77,0,0,0-1.7-.6,11.36,11.36,0,0,0-2-.22,9.61,9.61,0,0,0-2.1.18l-1,.28c-0.34.12-.66,0.29-1,0.43a5,5,0,0,0-.94.53,4.08,4.08,0,0,0-.87.64c-0.26.25-.55,0.46-0.79,0.72l-0.67.81a5.47,5.47,0,0,0-.56.85c-0.17.29-.37,0.56-0.5,0.85-0.23.6-.52,1.15-0.69,1.69s-0.3,1.06-.43,1.51-0.15.87-.21,1.2c-0.11.67-.19,1.07-0.19,1.07s0-.39-0.06-1.08c0-.35,0-0.77,0-1.26s0.11-1,.19-1.63a17.3,17.3,0,0,1,.52-1.89c0.12-.33.3-0.65,0.46-1a5.18,5.18,0,0,1,.56-1l0.71-1a9.43,9.43,0,0,1,.87-0.86,5,5,0,0,1,1-.76,6,6,0,0,1,1.08-.64c0.39-.16.77-0.35,1.16-0.47l1.21-.3a9.23,9.23,0,0,1,2.4-.09,9.69,9.69,0,0,1,2.19.44,9.33,9.33,0,0,1,1.78.87L112.32,13c0.22,0.17.41,0.37,0.59,0.54a5.55,5.55,0,0,1,.86.92C114.17,15,114.39,15.34,114.39,15.34Z"/><path class="cls-8" d="M111.45,26.2s0,0.17,0,.45a3.44,3.44,0,0,1-.29,1.16,3.06,3.06,0,0,1-.39.74,3.35,3.35,0,0,1-.61.73,4.2,4.2,0,0,1-.84.62,4.46,4.46,0,0,1-1,.37,3.6,3.6,0,0,1-1.12,0,4.06,4.06,0,0,1-.55-0.11L106.07,30a2.42,2.42,0,0,1-.8-0.68A1.28,1.28,0,0,1,105,28.9a1.43,1.43,0,0,1-.14-0.43,1.68,1.68,0,0,1,0-.75,1.33,1.33,0,0,1,.17-0.52c0.14-.26.23-0.39,0.23-0.39s0,0.17,0,.44a1.51,1.51,0,0,0,.07.46,1.65,1.65,0,0,0,.2.51,0.79,0.79,0,0,0,.18.23,0.72,0.72,0,0,0,.22.21,2.26,2.26,0,0,0,.56.3L106.88,29l0.36,0A2.4,2.4,0,0,0,108,29a3.18,3.18,0,0,0,.74-0.22,5.59,5.59,0,0,0,.67-0.38,4.68,4.68,0,0,0,.59-0.47,4.89,4.89,0,0,0,.49-0.49l0.4-.46c0.1-.16.21-0.3,0.29-0.42S111.45,26.2,111.45,26.2Z"/><path class="cls-8" d="M103.16,33.81a3.53,3.53,0,0,1-1.42-.16,5.13,5.13,0,0,1-1.35-.6,5,5,0,0,1-.68-0.5,6.61,6.61,0,0,1-.62-0.61,7.54,7.54,0,0,1-.52-0.7,6.25,6.25,0,0,1-.39-0.75,5.46,5.46,0,0,1-.26-0.74,3.39,3.39,0,0,1-.14-0.68,4,4,0,0,1,0-1c0-.25,0-0.39,0-0.39S97.87,27.77,98,28s0.14,0.23.21,0.38,0.18,0.3.28,0.47,0.19,0.36.32,0.54l0.37,0.57,0.42,0.58a6.79,6.79,0,0,0,.47.57,11.38,11.38,0,0,0,1,1c0.35,0.31.69,0.61,1,.85C102.69,33.48,103.16,33.81,103.16,33.81Z"/><path class="cls-8" d="M111.6,24.51s0-.19,0-0.51c0-.16,0-0.35,0-0.56s-0.08-.45-0.1-0.7-0.11-.52-0.2-0.8a8.51,8.51,0,0,0-.3-0.84,5.94,5.94,0,0,0-.44-0.82,4.89,4.89,0,0,0-.56-0.75,4.31,4.31,0,0,0-.69-0.6,6.22,6.22,0,0,0-.77-0.47c-0.29-.08-0.54-0.24-0.82-0.29s-0.54-.16-0.8-0.18l-0.71-.11-0.56,0-0.51-.05,0.47-.2c0.15-.06.34-0.14,0.56-0.21s0.48-.1.77-0.14a4.37,4.37,0,0,1,.94,0,5.35,5.35,0,0,1,1.06.18,4.7,4.7,0,0,1,1.07.5,5.43,5.43,0,0,1,1,.77,6.14,6.14,0,0,1,.69,1,4.8,4.8,0,0,1,.43,1.07,4.86,4.86,0,0,1,.18,1,5.15,5.15,0,0,1,0,.94,4.85,4.85,0,0,1-.35,1.34C111.7,24.35,111.6,24.51,111.6,24.51Z"/><path class="cls-8" d="M100.78,35.36a1.3,1.3,0,0,1-.54.15,1.47,1.47,0,0,1-1-.28,1.58,1.58,0,0,1-.36-0.4,1.23,1.23,0,0,1-.18-0.47,1.13,1.13,0,0,1,0-.56,3.71,3.71,0,0,1,.53.06,1.92,1.92,0,0,1,.76.32,2.06,2.06,0,0,1,.3.3,1.77,1.77,0,0,1,.23.36A2.49,2.49,0,0,1,100.78,35.36Z"/></svg>