<svg id="Layer_1" xmlns="http://www.w3.org/2000/svg" width="191" height="119" viewBox="0 0 191 119"><style>.st0{fill:#e0f1f2}.st1,.st2{fill:#d3d4da;stroke:#d3d4db;stroke-linejoin:round;stroke-miterlimit:10}.st2{fill:#fff;stroke:#6ac9d0;stroke-width:2.5}.st3{fill:#d3d4da}.st4,.st5{fill:#fff;stroke:#6ac9d0;stroke-width:2.5;stroke-miterlimit:10}.st5{fill:#e0f1f2}.st6{fill:#083b54}.st7{fill:#ef5034}.st8{fill:#f59122}.st9{fill:#fff}.st10,.st11,.st12{fill:none;stroke-miterlimit:10}.st10{stroke-width:2.5;stroke:#6ac9d0}.st11,.st12{stroke:#ef5034}.st12{stroke:#d3d4da;stroke-width:.5}.st13,.st14{stroke:#063b54}.st13{stroke-linejoin:round;stroke-miterlimit:10;fill:#083b54;stroke-width:.5}.st14{fill:none;stroke-width:.7}.st14,.st15,.st16{stroke-miterlimit:10}.st15{stroke-width:.3;fill:none;stroke:#d3d4da}.st16{fill:#083b54;stroke:#063b54;stroke-linejoin:round}.st17{fill:#6ac9d0}.st18{fill:none;stroke:#063b54;stroke-width:2.5;stroke-miterlimit:10}.st19{fill:#063b54}.st20,.st21,.st22{fill:none;stroke:#6ac9d0;stroke-width:2.5}.st20{opacity:.3;stroke-miterlimit:10}.st21,.st22{stroke-linejoin:round}.st21{stroke-miterlimit:10}.st22{stroke-linecap:round}.st22,.st23,.st24,.st25{stroke-miterlimit:10}.st23{stroke:#f59122;fill:#ffe5ca}.st24,.st25{fill:none}.st24{opacity:.4;stroke:#f59122}.st25{stroke:#c3e9ec;stroke-width:2.5}.st26{clip-path:url(#SVGID_2_)}.st27{opacity:.25}.st27,.st28{fill:#469da1}.st29{opacity:.25;fill:#6ac9d0}.st30,.st31{opacity:.25;fill:#f59122}.st31{fill:#ef5034}.st32,.st33,.st34{stroke-miterlimit:10}.st32{fill:none;stroke-linecap:round;stroke-linejoin:round;stroke:#ef5034;stroke-width:.2218}.st33,.st34{stroke:#c3e9ec;stroke-width:2.5}.st33{stroke-linecap:round;fill:none}.st34{fill:#fff;stroke-linejoin:round}.st34,.st35,.st36{stroke-linecap:round}.st35{fill:#fff;stroke-width:2.5;stroke-linejoin:round;stroke-miterlimit:10;stroke:#91d5d9}.st36{stroke:#c0e869}.st36,.st37,.st38{fill:none;stroke-width:2.5;stroke-miterlimit:10}.st37{stroke-linecap:round;stroke:#ef5034}.st38{stroke:#f59685}.st38,.st39,.st40{stroke-linecap:round}.st39{stroke-width:2.5;stroke-miterlimit:10;fill:none;stroke:#f59122}.st40{fill:#fff;stroke:#6ac9d0;stroke-linejoin:round}.st40,.st41,.st42{stroke-width:2.5;stroke-miterlimit:10}.st41{stroke-linecap:round;fill:none;stroke:#96d805}.st42{fill:#fff;stroke:#c3e9ec;stroke-linejoin:round}.st43{fill:#fff;stroke:#fff;stroke-width:2.4804}.st43,.st44,.st45{stroke-miterlimit:10}.st44{opacity:.6;stroke-linejoin:round;fill:none;stroke:#6ac9d0;stroke-width:2.5}.st45{fill:#083b54;stroke:#083b54;stroke-width:1.1642;stroke-linecap:round}.st45,.st46,.st47{stroke-linejoin:round}.st46{stroke-linecap:round;stroke-miterlimit:10;fill:#083b54;stroke:#083b54;stroke-width:1.1318}.st47{fill:#fff;stroke:#fff;stroke-width:2.0393}.st47,.st48,.st49{stroke-miterlimit:10}.st48{stroke-linecap:round;stroke-linejoin:round;fill:#083b54;stroke:#083b54;stroke-width:1.1663}.st49{fill:#e0f1f2;stroke:#6ac9d0;stroke-width:1.9999}.st50{opacity:.5;fill:#6ac9d0}.st51,.st52,.st53{fill:#fff;stroke:#6ac9d0;stroke-width:1.9999;stroke-miterlimit:10}.st52,.st53{stroke:#083b54;stroke-width:2.5}.st53{fill:#d3d4da}.st54,.st55{opacity:.2;fill:#083b54}.st55{opacity:.3}.st56,.st57,.st58{opacity:.5;fill:#083b54}.st57,.st58{opacity:.85}.st58{opacity:.7}.st59,.st60{stroke-miterlimit:10}.st59{stroke-linecap:round;opacity:.5;fill:#fff;stroke:#6ac9d0}.st60{opacity:.3;fill:none;stroke:#f59122}.st61,.st62{fill:none;stroke:#6ac9d0}.st61{opacity:.3;stroke-miterlimit:10;stroke-width:2.0021}.st62{stroke-width:2.5;stroke-linecap:round}.st62,.st63,.st64,.st65{stroke-miterlimit:10}.st63{stroke-width:.7758;stroke-linejoin:round;fill:#ef5034;stroke:#ef5234}.st64,.st65{fill:none;stroke:#6ac9d0;stroke-linecap:round}.st64{stroke-linejoin:round;opacity:.6;stroke-width:3}.st65{opacity:.3;stroke-width:2.4797}</style><path class="st64" d="M33.9 45.1l-5.3-15.6M45.3 89.4l-9.2-22.1M45.3 89.4L78.9 113l34.7-9-7.2-44 23.8-22.9 54.7 33.7-9.3-49.3"/><path class="st65" d="M73.1 69.6l33.3-9.6M26.7 106.1l18.6-16.7M131 36.4l26.9-11.3M28.6 29.5L41.1 4M28.6 29.5l-3.6 14M4.1 24l24.8 5.5M169.5 95.2l15.4-24.4M120.5 72.5l-14-12.5M27.3 79.8l18 9.6M106.5 60l-30.4-9.1M113.7 17.5l16.5 18.9M47 45.4L28.9 29.5M110.1 36.4h19.4M109.9 60l27.9 4.6M50.5 78.6l-5.2 10.8M92.3 82.3l21.3 21.7 35.7-15.8M146.4 113l-32.8-9M184.9 70.8L134.5 83M140 8.7l-9 27.7M32.1 29.5l15-3.7"/><circle class="st7" cx="78.9" cy="113" r="5.6"/><circle class="st7" cx="149.3" cy="88.2" r="3.6"/><circle class="st17" cx="41.1" cy="4" r="3.6"/><circle class="st17" cx="140" cy="8.7" r="3.6"/><circle class="st17" cx="175.6" cy="23.5" r="5.6"/><circle class="st6" cx="131" cy="83" r="3.6"/><circle class="st6" cx="184.9" cy="70.8" r="5.6"/><circle class="st7" cx="4.1" cy="24" r="3.6"/><circle class="st7" cx="113" cy="17.5" r="3.6"/><circle class="st7" cx="73.1" cy="69.6" r="3.6"/><circle class="st17" cx="107.5" cy="36" r="3.6"/><circle class="st17" cx="130.2" cy="37.1" r="5.6"/><circle class="st17" cx="138.2" cy="64.8" r="3.6"/><circle class="st17" cx="120.5" cy="72.4" r="3.6"/><circle class="st17" cx="169.5" cy="95.2" r="3.6"/><circle class="st17" cx="113.6" cy="104" r="5.6"/><circle class="st17" cx="47" cy="45.4" r="3.6"/><circle class="st17" cx="76.1" cy="50.9" r="3.6"/><circle class="st17" cx="50.9" cy="76.6" r="3.6"/><circle class="st17" cx="26.7" cy="106.1" r="3.6"/><circle class="st17" cx="27.3" cy="80.2" r="3.6"/><circle class="st6" cx="157.9" cy="25.1" r="3.6"/><circle class="st6" cx="106.4" cy="60" r="5.6"/><circle class="st6" cx="146.4" cy="113" r="3.6"/><circle class="st6" cx="92.3" cy="82.3" r="3.6"/><circle class="st6" cx="28.6" cy="29.5" r="5.6"/><circle class="st6" cx="45.3" cy="89.4" r="5.6"/></svg>