<svg id="Layer_1" data-name="Layer 1" xmlns="http://www.w3.org/2000/svg" viewBox="0 0 200 94.4"><defs><style>.cls-1{fill:#e0f1f2;}.cls-1,.cls-3{stroke:#6ac9d0;stroke-miterlimit:10;stroke-width:2px;}.cls-12,.cls-2{fill:#6ac9d0;}.cls-2,.cls-6{opacity:0.5;}.cls-3{fill:#fff;}.cls-4,.cls-5,.cls-6,.cls-7,.cls-8,.cls-9{fill:#083b54;}.cls-4{opacity:0.2;}.cls-5{opacity:0.3;}.cls-7{opacity:0.85;}.cls-8{opacity:0.7;}.cls-10{fill:#ef5034;}.cls-11{fill:#f59122;}</style></defs><title>ipfs-illustrations-revised</title><path class="cls-1" d="M179.63,76.25l-52.91-13a0.81,0.81,0,0,1-.58-1l7.25-30a0.8,0.8,0,0,1,1-.59l52.91,13a0.81,0.81,0,0,1,.58,1l-7.25,30A0.8,0.8,0,0,1,179.63,76.25Z"/><path class="cls-2" d="M182.84,46.44L180.92,46a1.14,1.14,0,0,0-.6-0.15L134.26,34.46a1.79,1.79,0,0,0-2.16,1.33L126.5,58.92a1.81,1.81,0,0,0,1.32,2.19l48.58,12a1.79,1.79,0,0,0,2.16-1.33l5.59-23.13A1.81,1.81,0,0,0,182.84,46.44ZM134,36.46L177.6,47.22a5.34,5.34,0,0,0-.94,2c-0.55,2.26.35,4.42,2,4.83a2.67,2.67,0,0,0,2.29-.6L178.15,65a2.7,2.7,0,0,0-1.76-1.59c-1.65-.41-3.43,1.09-4,3.35a4.92,4.92,0,0,0,.32,3.38L128.48,59.2Zm42.59,34.6L176.7,71l0,0.12Z"/><path class="cls-2" d="M161.56,55.07c-1.28,5.28-5.44,8.79-9.3,7.84s-6-6-4.68-11.29,5.44-8.79,9.3-7.84S162.83,49.79,161.56,55.07Z"/><path class="cls-1" d="M19.64,79.92l52.05-16.2a0.81,0.81,0,0,0,.53-1l-9-29.5a0.8,0.8,0,0,0-1-.53L10.17,48.88a0.81,0.81,0,0,0-.53,1l9,29.5A0.8,0.8,0,0,0,19.64,79.92Z"/><path class="cls-2" d="M13.5,52.62l6.94,22.76a1.79,1.79,0,0,0,2.24,1.2L70.47,61.69a1.81,1.81,0,0,0,1.18-2.26L64.71,36.68a1.79,1.79,0,0,0-2.24-1.2L17.16,49.59a2.24,2.24,0,0,0-.31.05,2.25,2.25,0,0,0-.28.13l-1.88.59A1.81,1.81,0,0,0,13.5,52.62Zm56.2,7.21L26.16,73.38A4.93,4.93,0,0,0,26.28,70c-0.68-2.22-2.54-3.61-4.17-3.11a2.71,2.71,0,0,0-1.66,1.7L17,57.22a2.67,2.67,0,0,0,2.32.46C20.93,57.18,21.7,55,21,52.74A5.33,5.33,0,0,0,20,50.82L62.87,37.46ZM22.29,74.59l0-.12,0.14,0.08Z"/><path class="cls-2" d="M36.43,57.7c1.59,5.2,5.95,8.45,9.75,7.27s5.59-6.35,4-11.55S44.24,45,40.44,46.15,34.85,52.5,36.43,57.7Z"/><path class="cls-1" d="M194.1,56.14L140.85,67.73a0.8,0.8,0,0,1-.95-0.62l-6.44-30.18a0.81,0.81,0,0,1,.61-1L187.32,24.4a0.8,0.8,0,0,1,.95.62l6.44,30.18A0.81,0.81,0,0,1,194.1,56.14Z"/><path class="cls-2" d="M184.1,27.91l-1.93.42a1.14,1.14,0,0,0-.6.13L135.22,38.55a1.81,1.81,0,0,0-1.37,2.15l5,23.28a1.79,1.79,0,0,0,2.13,1.39l48.89-10.64a1.81,1.81,0,0,0,1.37-2.15l-5-23.28A1.79,1.79,0,0,0,184.1,27.91ZM135.83,40.48l43.89-9.55a5.37,5.37,0,0,0,0,2.2c0.48,2.27,2.22,3.82,3.88,3.46a2.7,2.7,0,0,0,1.8-1.54l2.48,11.62a2.67,2.67,0,0,0-2.27-.66c-1.66.36-2.61,2.5-2.13,4.77a4.89,4.89,0,0,0,1.75,2.9l-44.53,9.69ZM189.1,52.83l0.08-.14,0,0.12Z"/><path class="cls-2" d="M168.69,45.06c1.13,5.31-1.1,10.31-5,11.15s-8-2.78-9.09-8.09,1.1-10.31,5-11.15S167.55,39.75,168.69,45.06Z"/><path class="cls-1" d="M198,42.11l-51.11,19a0.8,0.8,0,0,1-1-.48l-10.57-29a0.81,0.81,0,0,1,.47-1l51.11-19a0.8,0.8,0,0,1,1,.48l10.57,29A0.81,0.81,0,0,1,198,42.11Z"/><path class="cls-2" d="M184.16,15.57l-1.85.69a1.14,1.14,0,0,0-.58.22L137.24,33a1.82,1.82,0,0,0-1.06,2.32l8.15,22.34a1.79,1.79,0,0,0,2.3,1.07l46.92-17.47A1.82,1.82,0,0,0,194.61,39l-8.15-22.34A1.79,1.79,0,0,0,184.16,15.57Zm-46,19.28,42.13-15.68a5.37,5.37,0,0,0,.32,2.18c0.8,2.18,2.73,3.47,4.33,2.87a2.71,2.71,0,0,0,1.57-1.78l4.07,11.15a2.67,2.67,0,0,0-2.34-.33c-1.59.59-2.24,2.84-1.45,5a4.87,4.87,0,0,0,2.13,2.62L146.13,56.83Zm54.46,4.68,0.06-.15,0,0.11Z"/><path class="cls-2" d="M171.28,34.74c1.86,5.1.35,10.36-3.38,11.75s-8.26-1.62-10.12-6.72S157.43,29.4,161.16,28,169.42,29.64,171.28,34.74Z"/><path class="cls-1" d="M198,42.11l-51.11,19a0.8,0.8,0,0,1-1-.48l-10.57-29a0.81,0.81,0,0,1,.47-1l51.11-19a0.8,0.8,0,0,1,1,.48l10.57,29A0.81,0.81,0,0,1,198,42.11Z"/><path class="cls-2" d="M184.16,15.57l-1.85.69a1.14,1.14,0,0,0-.58.22L137.24,33a1.82,1.82,0,0,0-1.06,2.32l8.15,22.34a1.79,1.79,0,0,0,2.3,1.07l46.92-17.47A1.82,1.82,0,0,0,194.61,39l-8.15-22.34A1.79,1.79,0,0,0,184.16,15.57Zm-46,19.28,42.13-15.68a5.37,5.37,0,0,0,.32,2.18c0.8,2.18,2.73,3.47,4.33,2.87a2.71,2.71,0,0,0,1.57-1.78l4.07,11.15a2.67,2.67,0,0,0-2.34-.33c-1.59.59-2.24,2.84-1.45,5a4.87,4.87,0,0,0,2.13,2.62L146.13,56.83Zm54.46,4.68,0.06-.15,0,0.11Z"/><path class="cls-2" d="M171.28,34.74c1.86,5.1.35,10.36-3.38,11.75s-8.26-1.62-10.12-6.72S157.43,29.4,161.16,28,169.42,29.64,171.28,34.74Z"/><path class="cls-1" d="M8,63L61.53,73.09a0.8,0.8,0,0,0,.93-0.64L68,42.1a0.81,0.81,0,0,0-.64-0.94L13.85,31.11a0.8,0.8,0,0,0-.93.64L7.34,62.1A0.81,0.81,0,0,0,8,63Z"/><path class="cls-2" d="M15.08,36L10.77,59.39a1.81,1.81,0,0,0,1.43,2.11l49.17,9.23a1.79,1.79,0,0,0,2.09-1.45l4.31-23.41a1.81,1.81,0,0,0-1.43-2.11L19.71,35a2.24,2.24,0,0,0-.3-0.1,2.24,2.24,0,0,0-.31,0l-1.94-.36A1.79,1.79,0,0,0,15.08,36ZM61.54,68.72L16.75,60.31a4.89,4.89,0,0,0,1.66-2.95c0.42-2.29-.59-4.39-2.26-4.71a2.67,2.67,0,0,0-2.25.72l2.15-11.68a2.7,2.7,0,0,0,1.84,1.49c1.67,0.31,3.37-1.29,3.79-3.57a5.37,5.37,0,0,0,0-2.2L65.78,45.7ZM12.77,59.56l0-.12,0.08,0.14Z"/><path class="cls-2" d="M33.06,51.23c-1,5.35,1.39,10.27,5.29,11s7.87-3,8.85-8.35-1.39-10.27-5.29-11S34,45.88,33.06,51.23Z"/><path class="cls-1" d="M4.49,47.9L56.12,65.45a0.8,0.8,0,0,0,1-.51l9.75-29.26a0.81,0.81,0,0,0-.5-1L14.75,17.12a0.8,0.8,0,0,0-1,.51L4,46.88A0.81,0.81,0,0,0,4.49,47.9Z"/><path class="cls-2" d="M15.29,22.12L7.77,44.69A1.82,1.82,0,0,0,8.9,47l47.4,16.11A1.79,1.79,0,0,0,58.56,62l7.52-22.57A1.82,1.82,0,0,0,65,37.09L20,21.82a2.25,2.25,0,0,0-.28-0.14,2.24,2.24,0,0,0-.31-0.06L17.56,21A1.79,1.79,0,0,0,15.29,22.12Zm41.45,39L13.56,46.45a4.87,4.87,0,0,0,2.06-2.68c0.73-2.2,0-4.43-1.59-5a2.67,2.67,0,0,0-2.33.4l3.75-11.26a2.71,2.71,0,0,0,1.62,1.74c1.61,0.55,3.51-.8,4.24-3a5.37,5.37,0,0,0,.26-2.19L64.13,38.93Zm-47-16,0-.12,0.06,0.15Z"/><path class="cls-2" d="M31,39.77c-1.72,5.15-.06,10.37,3.71,11.65s8.21-1.86,9.93-7S44.66,34,40.9,32.76,32.69,34.62,31,39.77Z"/><rect class="cls-3" x="39.87" y="2.14" width="121.48" height="90.76" rx="1.6" ry="1.6"/><path class="cls-1" d="M39.87,13V3.74a1.6,1.6,0,0,1,1.59-1.61h118.3a1.6,1.6,0,0,1,1.59,1.61V13H39.87Z"/><ellipse class="cls-4" cx="98.62" cy="36.78" rx="1.99" ry="2.01"/><ellipse class="cls-5" cx="109.96" cy="41.29" rx="2.79" ry="2.81"/><ellipse class="cls-6" cx="113.95" cy="54.54" rx="3.58" ry="3.62"/><ellipse class="cls-7" cx="87.36" cy="61.52" rx="5.17" ry="5.23"/><ellipse class="cls-8" cx="103.8" cy="66.75" rx="4.38" ry="4.42"/><ellipse class="cls-9" cx="86.22" cy="45.7" rx="5.97" ry="6.03"/><path class="cls-10" d="M184.44,12.54a6.18,6.18,0,1,1-12.36,0c0-3.45,5.45-8.57,6.18-8.57S184.44,9.09,184.44,12.54Z"/><path class="cls-11" d="M181.85,15.15a3.6,3.6,0,1,1-7.19,0c0-2,3.17-5,3.6-5S181.85,13.14,181.85,15.15Z"/><path class="cls-10" d="M29.34,18.24a6.18,6.18,0,1,1-12.36,0c0-3.45,5.45-8.57,6.18-8.57S29.34,14.8,29.34,18.24Z"/><path class="cls-11" d="M26.76,20.85a3.6,3.6,0,1,1-7.19,0c0-2,3.17-5,3.6-5S26.76,18.85,26.76,20.85Z"/><path class="cls-10" d="M9.82,35.82a4.16,4.16,0,1,1-8.32,0c0-2.32,3.67-5.77,4.16-5.77S9.82,33.5,9.82,35.82Z"/><path class="cls-11" d="M8.08,37.58a2.42,2.42,0,1,1-4.84,0c0-1.35,2.14-3.36,2.42-3.36S8.08,36.23,8.08,37.58Z"/><path class="cls-10" d="M197.73,27.24a4.59,4.59,0,1,1-9.18,0c0-2.56,4-6.36,4.59-6.36S197.73,24.68,197.73,27.24Z"/><path class="cls-11" d="M195.81,29.17a2.67,2.67,0,1,1-5.34,0c0-1.49,2.36-3.7,2.67-3.7S195.81,27.68,195.81,29.17Z"/><path class="cls-10" d="M182.52,47.22a7,7,0,1,1-13.94,0c0-3.89,6.15-9.66,7-9.66S182.52,43.33,182.52,47.22Z"/><path class="cls-11" d="M179.6,50.16a4.06,4.06,0,1,1-8.11,0c0-2.26,3.58-5.62,4.06-5.62S179.6,47.9,179.6,50.16Z"/><path class="cls-10" d="M31.49,67.49a4.16,4.16,0,1,1-8.32,0c0-2.32,3.67-5.77,4.16-5.77S31.49,65.17,31.49,67.49Z"/><path class="cls-11" d="M29.75,69.25a2.42,2.42,0,1,1-4.84,0c0-1.35,2.14-3.36,2.42-3.36S29.75,67.89,29.75,69.25Z"/><ellipse class="cls-12" cx="45.65" cy="7.76" rx="1.85" ry="1.87"/><ellipse class="cls-12" cx="51.41" cy="7.76" rx="1.85" ry="1.87"/><ellipse class="cls-12" cx="57.04" cy="7.76" rx="1.85" ry="1.87"/></svg>