<svg id="Layer_1" data-name="Layer 1" xmlns="http://www.w3.org/2000/svg" viewBox="0 0 172 113"><defs><style>.cls-1{fill:#e0f1f2;}.cls-1,.cls-2,.cls-7{stroke:#6ac9d0;}.cls-1,.cls-2,.cls-3,.cls-4,.cls-6,.cls-7,.cls-8{stroke-miterlimit:10;}.cls-1,.cls-2,.cls-3,.cls-4{stroke-width:2.5px;}.cls-2,.cls-3,.cls-7{fill:#fff;}.cls-3,.cls-4{stroke:#083b54;}.cls-4{fill:#d3d4da;}.cls-5{fill:#083b54;}.cls-6{fill:#ffe5ca;}.cls-6,.cls-8{stroke:#f59122;}.cls-7{stroke-linecap:round;opacity:0.5;}.cls-8{fill:none;opacity:0.3;}.cls-9{fill:#ef5034;}</style></defs><title>ipfs-illustrations-revised</title><path class="cls-1" d="M29.66,109.29H24.46c2.59-6.19,1.6-39.17,1.6-39.17h5.21S31.91,103.75,29.66,109.29Z"/><path class="cls-1" d="M136.15,109.29h-5.21c2.59-6.19.8-39.17,0.8-39.17H137S138.4,103.75,136.15,109.29Z"/><path class="cls-2" d="M82.7,110.83H77.49c2.59-6.19,1.6-40.72,1.6-40.72h5.21S84.94,105.29,82.7,110.83Z"/><path class="cls-2" d="M48,104.66h5.21c-2.59-6.19-.8-34.55-0.8-34.55H47.18S45.73,99.12,48,104.66Z"/><path class="cls-2" d="M121.88,103.12h5.21c-2.59-6.19-.8-33-0.8-33h-5.21S119.64,97.58,121.88,103.12Z"/><path class="cls-2" d="M58.9,108.52H64.1c-2.59-6.19-1.6-38.4-1.6-38.4H57.3S56.66,103,58.9,108.52Z"/><path class="cls-2" d="M111.55,109.29h5.21c-2.59-6.19-1.6-39.17-1.6-39.17H110S109.31,103.75,111.55,109.29Z"/><rect class="cls-1" x="36.12" y="70.12" width="5.21" height="36.86"/><rect class="cls-1" x="142.36" y="70.12" width="5.21" height="34.55"/><rect class="cls-2" x="67.81" y="70.12" width="5.21" height="35.32"/><rect class="cls-2" x="89.45" y="70.12" width="5.21" height="31.44"/><rect class="cls-2" x="99.82" y="70.12" width="5.21" height="36.86"/><path class="cls-3" d="M2.23,64.65v9.08a1.51,1.51,0,0,0,1.62,1.36h164.3a1.51,1.51,0,0,0,1.62-1.36V64.65"/><path class="cls-4" d="M153.53,45.67c0-.21-0.73-0.38-1.62-0.38H18.47c-0.89,0-1.62.17-1.62,0.38L2.23,64.21c0,0.21.73,0.38,1.62,0.38h164.3c0.89,0,1.62-.17,1.62-0.38Z"/><path class="cls-5" d="M150.78,51.65a11.76,11.76,0,0,0-2.33-.16H22.06a3.73,3.73,0,0,0-1.51.16L15,59a3.73,3.73,0,0,0,1.51.16H155.48A3.73,3.73,0,0,0,157,59Z"/><path class="cls-1" d="M147.56,57.08V9a1.63,1.63,0,0,0-1.65-1.6H93.86v-2A0.81,0.81,0,0,0,93,4.63H79a0.81,0.81,0,0,0-.82.8v2h-52A1.63,1.63,0,0,0,24.46,9V57.08"/><polyline class="cls-2" points="30.69 57.08 30.69 14.05 141.31 14.05 141.31 57.08"/><path class="cls-2" d="M35.61,57.08V2.17s6.28,2.47,24.06,2.47S86,13,86,13V57.08"/><path class="cls-2" d="M136.39,57.08V2.17s-6.28,2.47-24.06,2.47S86,13,86,13V57.08"/><circle class="cls-6" cx="111.2" cy="32.93" r="12.03"/><path class="cls-7" d="M42.38,10.68s32.29-1.3,37,7.31"/><path class="cls-7" d="M42.38,15.49s31.53-1.36,37,7.31"/><path class="cls-7" d="M42.38,20.49s24.49-3.28,37,6.25"/><path class="cls-7" d="M42.32,25.94s21.66-4.52,37,4.12"/><path class="cls-7" d="M42.32,31.14s20.83-4.84,37,2.22"/><path class="cls-7" d="M42.32,36.14s19.63-3.64,37,1"/><path class="cls-7" d="M42.32,39.9s18.88-2.07,37,.92"/><line class="cls-7" x1="42.38" y1="53.82" x2="79.34" y2="53.82"/><path class="cls-7" d="M42.38,49.77s22.39-1.12,37,0"/><path class="cls-7" d="M42.38,44.69a204.08,204.08,0,0,1,37,0"/><ellipse class="cls-8" cx="111.2" cy="32.93" rx="21.65" ry="3.53" transform="translate(1.89 71.68) rotate(-36.02)"/><path class="cls-9" d="M64.76,32.41V3.54A1,1,0,0,1,65.84,3H70.3a1,1,0,0,1,1.08.57V32.41l-3.31-2Z"/></svg>