<svg id="Layer_1" xmlns="http://www.w3.org/2000/svg" width="172" height="113" viewBox="0 0 172 113"><style>.st0{fill:#e0f1f2}.st1,.st2{fill:#d3d4da;stroke:#d3d4db;stroke-linejoin:round;stroke-miterlimit:10}.st2{fill:#fff;stroke:#6ac9d0;stroke-width:2.5}.st3{fill:#d3d4da}.st4,.st5{fill:#fff;stroke:#6ac9d0;stroke-width:2.5;stroke-miterlimit:10}.st5{fill:#e0f1f2}.st6{fill:#083b54}.st7{fill:#ef5034}.st8{fill:#f59122}.st9{fill:#fff}.st10,.st11,.st12{fill:none;stroke-miterlimit:10}.st10{stroke-width:2.5;stroke:#6ac9d0}.st11,.st12{stroke:#ef5034}.st12{stroke:#d3d4da;stroke-width:.5}.st13,.st14{stroke:#063b54}.st13{stroke-linejoin:round;stroke-miterlimit:10;fill:#083b54;stroke-width:.5}.st14{fill:none;stroke-width:.7}.st14,.st15,.st16{stroke-miterlimit:10}.st15{stroke-width:.3;fill:none;stroke:#d3d4da}.st16{fill:#083b54;stroke:#063b54;stroke-linejoin:round}.st17{fill:#6ac9d0}.st18{fill:none;stroke:#063b54;stroke-width:2.5;stroke-miterlimit:10}.st19{fill:#063b54}.st20,.st21,.st22{fill:none;stroke:#6ac9d0;stroke-width:2.5}.st20{opacity:.3;stroke-miterlimit:10}.st21,.st22{stroke-linejoin:round}.st21{stroke-miterlimit:10}.st22{stroke-linecap:round}.st22,.st23,.st24,.st25{stroke-miterlimit:10}.st23{stroke:#f59122;fill:#ffe5ca}.st24,.st25{fill:none}.st24{opacity:.4;stroke:#f59122}.st25{stroke:#c3e9ec;stroke-width:2.5}.st26{clip-path:url(#SVGID_2_)}.st27{opacity:.25}.st27,.st28{fill:#469da1}.st29{opacity:.25;fill:#6ac9d0}.st30,.st31{opacity:.25;fill:#f59122}.st31{fill:#ef5034}.st32,.st33,.st34{stroke-miterlimit:10}.st32{fill:none;stroke-linecap:round;stroke-linejoin:round;stroke:#ef5034;stroke-width:.2218}.st33,.st34{stroke:#c3e9ec;stroke-width:2.5}.st33{stroke-linecap:round;fill:none}.st34{fill:#fff;stroke-linejoin:round}.st34,.st35,.st36{stroke-linecap:round}.st35{fill:#fff;stroke-width:2.5;stroke-linejoin:round;stroke-miterlimit:10;stroke:#91d5d9}.st36{stroke:#c0e869}.st36,.st37,.st38{fill:none;stroke-width:2.5;stroke-miterlimit:10}.st37{stroke-linecap:round;stroke:#ef5034}.st38{stroke:#f59685}.st38,.st39,.st40{stroke-linecap:round}.st39{stroke-width:2.5;stroke-miterlimit:10;fill:none;stroke:#f59122}.st40{fill:#fff;stroke:#6ac9d0;stroke-linejoin:round}.st40,.st41,.st42{stroke-width:2.5;stroke-miterlimit:10}.st41{stroke-linecap:round;fill:none;stroke:#96d805}.st42{fill:#fff;stroke:#c3e9ec;stroke-linejoin:round}.st43{fill:#fff;stroke:#fff;stroke-width:2.4804}.st43,.st44,.st45{stroke-miterlimit:10}.st44{opacity:.6;stroke-linejoin:round;fill:none;stroke:#6ac9d0;stroke-width:2.5}.st45{fill:#083b54;stroke:#083b54;stroke-width:1.1642;stroke-linecap:round}.st45,.st46,.st47{stroke-linejoin:round}.st46{stroke-linecap:round;stroke-miterlimit:10;fill:#083b54;stroke:#083b54;stroke-width:1.1318}.st47{fill:#fff;stroke:#fff;stroke-width:2.0393}.st47,.st48,.st49{stroke-miterlimit:10}.st48{stroke-linecap:round;stroke-linejoin:round;fill:#083b54;stroke:#083b54;stroke-width:1.1663}.st49{fill:#e0f1f2;stroke:#6ac9d0;stroke-width:1.9999}.st50{opacity:.5;fill:#6ac9d0}.st51,.st52,.st53{fill:#fff;stroke:#6ac9d0;stroke-width:1.9999;stroke-miterlimit:10}.st52,.st53{stroke:#083b54;stroke-width:2.5}.st53{fill:#d3d4da}.st54,.st55{opacity:.2;fill:#083b54}.st55{opacity:.3}.st56,.st57,.st58{opacity:.5;fill:#083b54}.st57,.st58{opacity:.85}.st58{opacity:.7}.st59,.st60{stroke-miterlimit:10}.st59{stroke-linecap:round;opacity:.5;fill:#fff;stroke:#6ac9d0}.st60{opacity:.3;fill:none;stroke:#f59122}.st61,.st62{fill:none;stroke:#6ac9d0}.st61{opacity:.3;stroke-miterlimit:10;stroke-width:2.0021}.st62{stroke-width:2.5;stroke-linecap:round}.st62,.st63,.st64,.st65{stroke-miterlimit:10}.st63{stroke-width:.7758;stroke-linejoin:round;fill:#ef5034;stroke:#ef5234}.st64,.st65{fill:none;stroke:#6ac9d0;stroke-linecap:round}.st64{stroke-linejoin:round;opacity:.6;stroke-width:3}.st65{opacity:.3;stroke-width:2.4797}</style><path class="st5" d="M29.7 109.3h-5.2c2.6-6.2 1.6-39.2 1.6-39.2h5.2s.6 33.6-1.6 39.2zM136.2 109.3H131c2.6-6.2.8-39.2.8-39.2h5.2s1.4 33.6-.8 39.2z"/><path class="st4" d="M82.7 110.8h-5.2c2.6-6.2 1.6-40.7 1.6-40.7h5.2s.6 35.2-1.6 40.7zM48 104.7h5.2c-2.6-6.2-.8-34.5-.8-34.5h-5.2c0-.1-1.5 28.9.8 34.5zM121.9 103.1h5.2c-2.6-6.2-.8-33-.8-33h-5.2s-1.5 27.5.8 33zM58.9 108.5h5.2c-2.6-6.2-1.6-38.4-1.6-38.4h-5.2s-.6 32.9 1.6 38.4zM111.5 109.3h5.2c-2.6-6.2-1.6-39.2-1.6-39.2H110s-.7 33.6 1.5 39.2z"/><path class="st5" d="M36.1 70.1h5.2V107h-5.2zM142.4 70.1h5.2v34.5h-5.2z"/><path class="st4" d="M67.8 70.1H73v35.3h-5.2zM89.5 70.1h5.2v31.4h-5.2zM99.8 70.1h5.2V107h-5.2z"/><path class="st52" d="M2.2 64.7v9.1c0 .7.7 1.4 1.6 1.4h164.3c.9 0 1.6-.6 1.6-1.4v-9.1"/><path class="st53" d="M153.5 45.7c0-.2-.7-.4-1.6-.4H18.5c-.9 0-1.6.2-1.6.4L2.2 64.2c0 .2.7.4 1.6.4h164.3c.9 0 1.6-.2 1.6-.4l-16.2-18.5z"/><path class="st6" d="M150.8 51.7c0-.1-1.5-.2-2.3-.2H22.1c-.8 0-1.5.1-1.5.2L15 59c0 .1.7.2 1.5.2h138.9c.8 0 1.5-.1 1.5-.2l-6.1-7.3z"/><path class="st5" d="M147.6 57.1V9c0-.9-.7-1.6-1.6-1.6H93.9v-2c0-.4-.4-.8-.8-.8H79c-.5 0-.8.4-.8.8v2h-52c-.9 0-1.6.7-1.6 1.6v48.1"/><path class="st4" d="M30.7 57.1V14h110.6v43.1"/><path class="st4" d="M35.6 57.1V2.2s6.3 2.5 24.1 2.5S86 13 86 13v44.1M136.4 57.1V2.2s-6.3 2.5-24.1 2.5S86 13 86 13v44.1"/><circle class="st23" cx="111.2" cy="32.9" r="12"/><path class="st59" d="M42.4 10.7s32.3-1.3 37 7.3M42.4 15.5s31.5-1.4 37 7.3M42.4 20.5s24.5-3.3 37 6.3M42.3 25.9s21.7-4.5 37 4.1M42.3 31.1s20.8-4.8 37 2.2M42.3 36.1s19.6-3.6 37 1M42.3 39.9s18.9-2.1 37 .9M42.4 53.8h36.9M42.4 49.8s22.4-1.1 37 0M42.4 44.7s18-1.9 37 0"/><ellipse transform="scale(-1) rotate(-36.014 -101.312 342.073)" class="st60" cx="111.2" cy="32.9" rx="21.6" ry="3.5"/><path class="st7" d="M64.8 32.4V3.5c0-.3.5-.6 1.1-.6h4.5c.6 0 1.1.3 1.1.6v28.9l-3.3-2-3.4 2z"/></svg>