<svg id="Layer_1" data-name="Layer 1" xmlns="http://www.w3.org/2000/svg" viewBox="0 0 180 131"><defs><style>.cls-1,.cls-2{fill:#fff;stroke-linejoin:round;stroke-width:2.5px;}.cls-1{stroke:#c3e9ec;}.cls-2{stroke:#6ac9d0;}.cls-3{fill:#083b54;}.cls-4{fill:#6ac9d0;}.cls-5{fill:#ffe5ca;}.cls-5,.cls-6{stroke:#f59122;stroke-miterlimit:10;}.cls-6{fill:none;opacity:0.4;}</style></defs><title>ipfs-illustrations-revised</title><rect class="cls-1" x="6.38" y="20.3" width="158.04" height="90.33" transform="translate(-4.01 5.59) rotate(-3.66)"/><rect class="cls-1" x="10.83" y="20.34" width="158.05" height="90.33" transform="matrix(0.97, -0.25, 0.25, 0.97, -13.58, 24.7)"/><rect class="cls-2" x="13.21" y="19.91" width="158.04" height="90.33" transform="matrix(0.98, -0.18, 0.18, 0.98, -10.04, 17.3)"/><path class="cls-3" d="M30.1,60.89h0l1.09-5.7,1.51-.27L34,61.85,33,62l-1-5.81h0l-1.26,6.22-0.62.11-3.33-5.39h0l1,5.81-0.94.17L25.55,56.2l1.51-.27Z"/><path class="cls-3" d="M37.64,57.61a1.23,1.23,0,0,0-.52-0.34,1.28,1.28,0,0,0-.67,0,1.5,1.5,0,0,0-.31.09,1,1,0,0,0-.26.16,0.61,0.61,0,0,0-.16.22,0.52,0.52,0,0,0,0,.29,0.47,0.47,0,0,0,.34.39,3.29,3.29,0,0,0,.84.12,4.83,4.83,0,0,1,.65.08,2,2,0,0,1,.54.18,1.18,1.18,0,0,1,.4.33,1.15,1.15,0,0,1,.21.51,1.45,1.45,0,0,1,0,.72,1.38,1.38,0,0,1-.33.54,1.73,1.73,0,0,1-.55.37,3,3,0,0,1-.67.2,2.76,2.76,0,0,1-1.07,0,2.06,2.06,0,0,1-1-.48l0.56-.68a1.53,1.53,0,0,0,.6.37,1.46,1.46,0,0,0,.75.06,1.66,1.66,0,0,0,.33-0.1,1,1,0,0,0,.27-0.17,0.62,0.62,0,0,0,.17-0.24,0.61,0.61,0,0,0,0-.34,0.52,0.52,0,0,0-.39-0.42,4.25,4.25,0,0,0-1-.13l-0.5-.06a1.57,1.57,0,0,1-.48-0.15,1.16,1.16,0,0,1-.39-0.31,1.13,1.13,0,0,1-.22-0.52,1.29,1.29,0,0,1,0-.67,1.34,1.34,0,0,1,.32-0.51,1.76,1.76,0,0,1,.51-0.36,2.55,2.55,0,0,1,1.63-.18,1.63,1.63,0,0,1,.82.44Z"/><path class="cls-3" d="M41.29,59.93a0.65,0.65,0,0,1-.11.48,0.63,0.63,0,0,1-.44.28,0.65,0.65,0,0,1-.5-0.11A0.62,0.62,0,0,1,40,60.18a0.66,0.66,0,0,1,.54-0.77,0.65,0.65,0,0,1,.5.1A0.63,0.63,0,0,1,41.29,59.93Z"/><path class="cls-3" d="M46.47,59.61l-1,.17-1.24-6.94,4.33-.78,0.15,0.85-3.36.6,0.39,2.16,3.15-.56,0.15,0.83-3.15.56Z"/><path class="cls-3" d="M51,52.27a0.56,0.56,0,0,1-.1.45,0.62,0.62,0,0,1-.4.24A0.59,0.59,0,0,1,50,52.87a0.57,0.57,0,0,1-.25-0.39,0.58,0.58,0,0,1,.1-0.46,0.6,0.6,0,0,1,.4-0.25,0.61,0.61,0,0,1,.46.09A0.58,0.58,0,0,1,51,52.27Zm1,6.35-0.92.17-0.83-4.65L51.16,54Z"/><path class="cls-3" d="M54.56,58.16l-0.92.16-1.33-7.41,0.92-.17Z"/><path class="cls-3" d="M60.15,54.72l0,0.16a1.45,1.45,0,0,1,0,.16l-3.7.66a1.4,1.4,0,0,0,.23.53,1.47,1.47,0,0,0,.41.39,1.54,1.54,0,0,0,.53.21A1.69,1.69,0,0,0,59,56.48a1.69,1.69,0,0,0,.45-0.6l0.74,0.4a2.36,2.36,0,0,1-.75.88,2.7,2.7,0,0,1-1.08.43,2.73,2.73,0,0,1-1,0,2.31,2.31,0,0,1-.86-0.36,2.35,2.35,0,0,1-.65-0.68,2.63,2.63,0,0,1-.37-1,2.7,2.7,0,0,1,0-1,2.32,2.32,0,0,1,.37-0.87,2.36,2.36,0,0,1,.68-0.64,2.66,2.66,0,0,1,1.88-.35,2,2,0,0,1,.79.35,2.21,2.21,0,0,1,.58.68A3.08,3.08,0,0,1,60.15,54.72Zm-1-.2A1.8,1.8,0,0,0,59,54a1.2,1.2,0,0,0-.32-0.37,1.18,1.18,0,0,0-.45-0.21,1.45,1.45,0,0,0-.58,0,1.51,1.51,0,0,0-.54.2,1.45,1.45,0,0,0-.4.36,1.49,1.49,0,0,0-.24.47,1.35,1.35,0,0,0-.05.54Z"/><path class="cls-3" d="M67.84,54.12h0L69,48.41l1.51-.27,1.24,6.94-1,.17-1-5.81h0l-1.26,6.22-0.62.11-3.33-5.39h0l1,5.81-0.94.17L63.3,49.43l1.51-.27Z"/><path class="cls-3" d="M76.07,50.72a1.14,1.14,0,0,0-.51-0.3,1.37,1.37,0,0,0-.65,0,1.46,1.46,0,0,0-.62.25,1.48,1.48,0,0,0-.41.45,1.62,1.62,0,0,0-.2.59A2.07,2.07,0,0,0,73.91,53a1.63,1.63,0,0,0,.39.48,1.46,1.46,0,0,0,.55.28,1.61,1.61,0,0,0,1.29-.23A1.33,1.33,0,0,0,76.55,53l0.72,0.45a2,2,0,0,1-.64.67,2.52,2.52,0,0,1-1,.37,2.78,2.78,0,0,1-1,0,2.4,2.4,0,0,1-.88-0.35,2.33,2.33,0,0,1-.66-0.68,2.6,2.6,0,0,1-.37-1,2.63,2.63,0,0,1,0-1,2.32,2.32,0,0,1,.38-0.87,2.37,2.37,0,0,1,.7-0.64,2.75,2.75,0,0,1,1-.35,2.62,2.62,0,0,1,1,0,1.81,1.81,0,0,1,.87.43Z"/><path class="cls-3" d="M79.41,53.71l-1,.17-1.24-6.94,4.33-.78L81.68,47l-3.36.6,0.39,2.16,3.15-.56L82,50l-3.15.56Z"/><path class="cls-3" d="M83.94,46.36a0.56,0.56,0,0,1-.1.45,0.62,0.62,0,0,1-.4.24A0.59,0.59,0,0,1,83,47a0.57,0.57,0,0,1-.25-0.39,0.58,0.58,0,0,1,.1-0.46,0.6,0.6,0,0,1,.4-0.25,0.61,0.61,0,0,1,.46.09A0.57,0.57,0,0,1,83.94,46.36Zm1,6.35L84,52.88l-0.83-4.65,0.92-.17Z"/><path class="cls-3" d="M87.5,52.25l-0.92.17L85.25,45l0.92-.17Z"/><path class="cls-3" d="M93.08,48.81l0,0.16a1.45,1.45,0,0,1,0,.16l-3.7.66a1.4,1.4,0,0,0,.23.53,1.46,1.46,0,0,0,.41.39,1.54,1.54,0,0,0,.53.21A1.69,1.69,0,0,0,92,50.57a1.68,1.68,0,0,0,.45-0.6l0.74,0.4a2.36,2.36,0,0,1-.75.88,2.86,2.86,0,0,1-2.09.43,2.26,2.26,0,0,1-1.51-1,2.62,2.62,0,0,1-.37-1,2.71,2.71,0,0,1,0-1,2.32,2.32,0,0,1,.37-0.87,2.36,2.36,0,0,1,.68-0.64,2.67,2.67,0,0,1,1.88-.35,1.94,1.94,0,0,1,.79.35,2.19,2.19,0,0,1,.58.68A3.06,3.06,0,0,1,93.08,48.81Zm-1-.2a1.79,1.79,0,0,0-.19-0.5,1.21,1.21,0,0,0-.32-0.37,1.17,1.17,0,0,0-.45-0.21,1.45,1.45,0,0,0-.58,0,1.51,1.51,0,0,0-.54.2,1.45,1.45,0,0,0-.4.36,1.49,1.49,0,0,0-.24.47,1.34,1.34,0,0,0-.05.54Z"/><path class="cls-3" d="M94.08,46.81Q94,46.52,94,46.3l0.87-.16c0,0.12.07,0.25,0.1,0.4S95,46.82,95,46.92h0a1.64,1.64,0,0,1,.45-0.77,1.53,1.53,0,0,1,.8-0.4,1.42,1.42,0,0,1,.37,0l0.11,0.86a1.76,1.76,0,0,0-.43,0,1.29,1.29,0,0,0-.56.23,1.2,1.2,0,0,0-.35.4,1.41,1.41,0,0,0-.16.52,2,2,0,0,0,0,.58l0.44,2.44-0.92.17-0.65-3.65C94.15,47.17,94.12,47,94.08,46.81Z"/><path class="cls-3" d="M100.47,45.91l-1.23.22,0.43,2.41a0.93,0.93,0,0,0,.26.57,0.64,0.64,0,0,0,.53.09l0.27-.08A1.13,1.13,0,0,0,101,49l0.16,0.75a2.31,2.31,0,0,1-.35.16,2.51,2.51,0,0,1-.41.11,1.35,1.35,0,0,1-1.07-.18,1.54,1.54,0,0,1-.54-1l-0.45-2.52-0.89.16L97.3,45.7l0.89-.16L98,44.2,98.87,44l0.24,1.33,1.23-.22Z"/><path class="cls-3" d="M106.45,46.45a2.58,2.58,0,0,1,0,1,2.39,2.39,0,0,1-1.1,1.53,2.83,2.83,0,0,1-2,.35,2.34,2.34,0,0,1-.88-0.37,2.41,2.41,0,0,1-.66-0.69,2.54,2.54,0,0,1-.37-1,2.51,2.51,0,0,1,0-1,2.38,2.38,0,0,1,.39-0.86,2.41,2.41,0,0,1,.7-0.65,2.84,2.84,0,0,1,2-.35,2.47,2.47,0,0,1,.89.36,2.36,2.36,0,0,1,.67.68A2.53,2.53,0,0,1,106.45,46.45Zm-1,.18a2,2,0,0,0-.22-0.62,1.65,1.65,0,0,0-.4-0.48,1.47,1.47,0,0,0-.55-0.28,1.71,1.71,0,0,0-1.33.24,1.46,1.46,0,0,0-.42.45,1.63,1.63,0,0,0-.21.59,2,2,0,0,0,.23,1.27,1.68,1.68,0,0,0,.4.48,1.43,1.43,0,0,0,.55.28,1.71,1.71,0,0,0,1.33-.24,1.43,1.43,0,0,0,.42-0.46,1.7,1.7,0,0,0,.2-0.59A2,2,0,0,0,105.49,46.62Z"/><path class="cls-3" d="M108.19,43.75c0,0.12.07,0.25,0.1,0.39s0.06,0.27.08,0.37h0a1.37,1.37,0,0,1,.18-0.39,1.77,1.77,0,0,1,1.17-.77,1.84,1.84,0,0,1,.8,0,1.59,1.59,0,0,1,.61.31,1.67,1.67,0,0,1,.43.54,2.56,2.56,0,0,1,.23.72l0.52,2.88-0.92.17L111,45.39a3.22,3.22,0,0,0-.14-0.53,1.34,1.34,0,0,0-.24-0.42,0.89,0.89,0,0,0-.38-0.25,1.07,1.07,0,0,0-.55,0,1.13,1.13,0,0,0-.82.58,1.7,1.7,0,0,0-.15,1.17l0.44,2.47-0.92.17-0.65-3.65c0-.12-0.05-0.28-0.1-0.48s-0.08-.37-0.12-0.51Z"/><path class="cls-3" d="M31.92,81l-0.69.12-0.75-4.21-0.81,1-0.49-.41,1.23-1.42L31,76Z"/><path class="cls-3" d="M34.11,77.5h0a0.91,0.91,0,0,1,.27-0.15,1.83,1.83,0,0,1,.34-0.1,1.64,1.64,0,0,1,.64,0,1.57,1.57,0,0,1,.56.24,1.53,1.53,0,0,1,.43.44,1.67,1.67,0,0,1,.23.61,1.79,1.79,0,0,1,0,.71,1.58,1.58,0,0,1-.27.6,1.7,1.7,0,0,1-.49.44,2,2,0,0,1-1.39.25,1.68,1.68,0,0,1-.61-0.25,1.62,1.62,0,0,1-.46-0.46,1.68,1.68,0,0,1-.25-0.64,2,2,0,0,1,0-.77,4.36,4.36,0,0,1,.23-0.75l0.95-2.32,0.82-.15Zm-0.31,1.6a1.18,1.18,0,0,0,.15.4,1,1,0,0,0,.28.3A1.06,1.06,0,0,0,35,80a1.12,1.12,0,0,0,.41-0.16,1,1,0,0,0,.29-0.28,1,1,0,0,0,.15-0.38,1.2,1.2,0,0,0,0-.45,1.14,1.14,0,0,0-.15-0.41,1,1,0,0,0-.27-0.3,0.9,0.9,0,0,0-.36-0.16,1.15,1.15,0,0,0-.44,0,1.18,1.18,0,0,0-.42.16,1,1,0,0,0-.3.28,1,1,0,0,0-.15.37A1.19,1.19,0,0,0,33.8,79.09Z"/><path class="cls-3" d="M40.28,77.72L41,77.59l0.11,0.59-0.73.13,0.2,1.13-0.67.12-0.2-1.13-2.33.42-0.11-.63,1.56-3.68,0.85-.15Zm-1.13-2.41h0L38,78.13l1.61-.29Z"/><path class="cls-3" d="M42.73,76.05L43,76a2.26,2.26,0,0,0,.41-0.11,1.1,1.1,0,0,0,.34-0.2,0.76,0.76,0,0,0,.21-0.31,0.81,0.81,0,0,0,0-.43,0.83,0.83,0,0,0-.13-0.33,0.76,0.76,0,0,0-.24-0.23,1,1,0,0,0-.32-0.12,1,1,0,0,0-.35,0,0.91,0.91,0,0,0-.52.26,1,1,0,0,0-.26.52L41.44,75a1.52,1.52,0,0,1,.47-0.82,1.75,1.75,0,0,1,.9-0.43,2,2,0,0,1,.61,0,1.53,1.53,0,0,1,.54.17,1.26,1.26,0,0,1,.41.37,1.37,1.37,0,0,1,.23.57,1.18,1.18,0,0,1,0,.41,1.22,1.22,0,0,1-.13.37,1.17,1.17,0,0,1-.24.31,1.2,1.2,0,0,1-.33.22h0a1.38,1.38,0,0,1,.44.08,1.22,1.22,0,0,1,.37.21,1.27,1.27,0,0,1,.44.76,1.51,1.51,0,0,1,0,.69,1.45,1.45,0,0,1-.29.55,1.65,1.65,0,0,1-.49.39,2.16,2.16,0,0,1-1.72.13,1.58,1.58,0,0,1-.81-0.72l0.6-.33a1.13,1.13,0,0,0,.49.47,1.1,1.1,0,0,0,.71.09A1.16,1.16,0,0,0,44,78.3a1,1,0,0,0,.29-0.24,0.93,0.93,0,0,0,.17-0.34,1,1,0,0,0,0-.44,0.83,0.83,0,0,0-.19-0.42,0.92,0.92,0,0,0-.35-0.24,1.28,1.28,0,0,0-.44-0.08,2.32,2.32,0,0,0-.46,0l-0.21,0Z"/><path class="cls-3" d="M46.81,75.42h0l1.86-2.63,1-.18-2,2.75,3.1,2.27-1,.18-2.84-2.19h0l0.47,2.61-0.71.13L45.7,73.32l0.71-.13Z"/><path class="cls-3" d="M50.53,72.45l1.74-.31a2.61,2.61,0,0,1,.58,0,1.52,1.52,0,0,1,.55.12,1.19,1.19,0,0,1,.43.33,1.23,1.23,0,0,1,.25.58,1.07,1.07,0,0,1-.12.75,1.26,1.26,0,0,1-.57.51h0a1.47,1.47,0,0,1,.47,0,1.17,1.17,0,0,1,.4.19,1.11,1.11,0,0,1,.3.33,1.36,1.36,0,0,1,.17.46,1.27,1.27,0,0,1-.36,1.18,1.93,1.93,0,0,1-.56.37,3,3,0,0,1-.72.22l-1.66.3Zm1.09,2,0.92-.16a1.57,1.57,0,0,0,.37-0.12A1,1,0,0,0,53.2,74a0.7,0.7,0,0,0,.17-0.28,0.75,0.75,0,0,0,0-.37A0.63,0.63,0,0,0,53,72.8a1.63,1.63,0,0,0-.84,0l-0.81.14ZM52,76.78l0.88-.16a2.67,2.67,0,0,0,.44-0.12,1.31,1.31,0,0,0,.38-0.21A0.81,0.81,0,0,0,54,76a0.77,0.77,0,0,0,0-.44,0.73,0.73,0,0,0-.42-0.59,1.66,1.66,0,0,0-.92,0l-0.95.17Z"/><path class="cls-4" d="M32.58,93.64L32,93.75l-0.79-4.41,0.62-.11Z"/><path class="cls-4" d="M33,89l1.35-.24a2.81,2.81,0,0,1,.66,0,1.43,1.43,0,0,1,.54.13,1,1,0,0,1,.39.32,1.27,1.27,0,0,1,.21.53,1.23,1.23,0,0,1,0,.59,1.07,1.07,0,0,1-.27.45,1.53,1.53,0,0,1-.47.31,2.77,2.77,0,0,1-.63.19l-0.7.13,0.35,1.94-0.62.11Zm1,1.84,0.65-.12A2,2,0,0,0,35,90.63a1,1,0,0,0,.3-0.18,0.59,0.59,0,0,0,.17-0.26,0.7,0.7,0,0,0,0-.35,0.66,0.66,0,0,0-.14-0.32,0.63,0.63,0,0,0-.25-0.18,0.9,0.9,0,0,0-.34-0.06,2.37,2.37,0,0,0-.41,0l-0.67.12Z"/><path class="cls-4" d="M38.11,92.65l-0.62.11L36.7,88.36l2.75-.49,0.1,0.54-2.13.38,0.25,1.37,2-.36,0.1,0.53-2,.36Z"/><path class="cls-4" d="M42.61,88.14a1,1,0,0,0-.41-0.23,1.1,1.1,0,0,0-.52,0,1.23,1.23,0,0,0-.29.09,0.82,0.82,0,0,0-.25.18,0.72,0.72,0,0,0-.16.26,0.64,0.64,0,0,0,0,.33,0.59,0.59,0,0,0,.13.29,0.66,0.66,0,0,0,.23.17,1.27,1.27,0,0,0,.31.09L42,89.36l0.48,0.07a1.67,1.67,0,0,1,.46.16,1.07,1.07,0,0,1,.58.83,1.32,1.32,0,0,1,0,.62,1.23,1.23,0,0,1-.26.48,1.48,1.48,0,0,1-.44.33,2,2,0,0,1-.55.18,2.12,2.12,0,0,1-.83,0,1.63,1.63,0,0,1-.73-0.36l0.41-.49a1.19,1.19,0,0,0,.48.3,1.18,1.18,0,0,0,.59,0,1.14,1.14,0,0,0,.3-0.1,0.86,0.86,0,0,0,.26-0.19,0.76,0.76,0,0,0,.17-0.27,0.69,0.69,0,0,0,0-.35,0.63,0.63,0,0,0-.14-0.32,0.76,0.76,0,0,0-.27-0.19,1.57,1.57,0,0,0-.36-0.1l-0.42-.06a3.44,3.44,0,0,1-.44-0.08,1.47,1.47,0,0,1-.41-0.16,1.09,1.09,0,0,1-.32-0.3,1.18,1.18,0,0,1-.19-0.49,1.14,1.14,0,0,1,0-.59,1.24,1.24,0,0,1,.28-0.45,1.48,1.48,0,0,1,.45-0.31,2.17,2.17,0,0,1,.53-0.17,1.93,1.93,0,0,1,.75,0,1.48,1.48,0,0,1,.61.27Z"/><path class="cls-4" d="M45.5,86.78l0.62-.11,0.33,1.84,2.23-.4-0.33-1.84L49,86.16l0.79,4.41-0.62.11-0.36-2-2.23.4,0.36,2-0.62.11Z"/><path class="cls-4" d="M51.13,90.32l-0.68.12,1.12-4.75,0.56-.1,2.68,4.07-0.7.13-0.64-1-2.09.37Zm0.37-1.74,1.65-.3L52,86.36Z"/><path class="cls-4" d="M57.11,85.54a1,1,0,0,0-.41-0.23,1.11,1.11,0,0,0-.52,0,1.25,1.25,0,0,0-.29.09,0.83,0.83,0,0,0-.25.18,0.72,0.72,0,0,0-.16.26,0.64,0.64,0,0,0,0,.33,0.59,0.59,0,0,0,.13.29,0.66,0.66,0,0,0,.23.17,1.27,1.27,0,0,0,.31.09l0.37,0.06L57,86.84a1.66,1.66,0,0,1,.46.16,1.07,1.07,0,0,1,.59.83,1.31,1.31,0,0,1,0,.62,1.23,1.23,0,0,1-.26.48,1.47,1.47,0,0,1-.44.33,2,2,0,0,1-.56.18,2.12,2.12,0,0,1-.83,0A1.61,1.61,0,0,1,55.16,89l0.41-.49a1.21,1.21,0,0,0,1.08.34,1.14,1.14,0,0,0,.3-0.1,0.86,0.86,0,0,0,.26-0.19,0.77,0.77,0,0,0,.17-0.27,0.67,0.67,0,0,0,0-.35,0.62,0.62,0,0,0-.14-0.32A0.74,0.74,0,0,0,57,87.48a1.56,1.56,0,0,0-.36-0.1l-0.42-.06a3.51,3.51,0,0,1-.44-0.08,1.48,1.48,0,0,1-.41-0.16,1.09,1.09,0,0,1-.32-0.3,1.18,1.18,0,0,1-.19-0.49,1.14,1.14,0,0,1,0-.59,1.24,1.24,0,0,1,.28-0.45,1.49,1.49,0,0,1,.45-0.31,2.2,2.2,0,0,1,.53-0.17,1.93,1.93,0,0,1,.75,0,1.48,1.48,0,0,1,.61.27Z"/><path class="cls-4" d="M58.4,84.47L59,84.36l0.33,1.84,2.23-.4L61.24,84l0.62-.11,0.79,4.41L62,88.36l-0.36-2-2.23.4,0.36,2-0.62.11Z"/><path class="cls-4" d="M64.11,85.32a0.42,0.42,0,0,1-.34.49,0.41,0.41,0,0,1-.32-0.07,0.39,0.39,0,0,1-.17-0.26,0.41,0.41,0,0,1,.07-0.31A0.4,0.4,0,0,1,63.63,85a0.41,0.41,0,0,1,.32.07A0.4,0.4,0,0,1,64.11,85.32Zm0.4,2.21a0.41,0.41,0,0,1-.07.31,0.4,0.4,0,0,1-.28.18,0.41,0.41,0,0,1-.32-0.07,0.4,0.4,0,0,1-.17-0.26A0.42,0.42,0,0,1,64,87.2a0.41,0.41,0,0,1,.32.06A0.4,0.4,0,0,1,64.51,87.53Z"/><path class="cls-3" d="M37.65,100.81l-2.4.43a2.4,2.4,0,0,1-.89,0,2,2,0,0,1-.75-0.3,1.88,1.88,0,0,1-.56-0.58,2.34,2.34,0,0,1-.31-0.84,2.19,2.19,0,0,1,0-.88,2,2,0,0,1,.92-1.3A2.3,2.3,0,0,1,34.5,97a2.27,2.27,0,0,1,.87,0,2.06,2.06,0,0,1,.75.31,2,2,0,0,1,.56.58,2.23,2.23,0,0,1,.31.82,2,2,0,0,1-.06,1,1.81,1.81,0,0,1-.5.76h0l1.13-.2Zm-4.29-1.4a1.85,1.85,0,0,0,.22.61,1.55,1.55,0,0,0,.39.45,1.46,1.46,0,0,0,.53.25,1.64,1.64,0,0,0,1.24-.22,1.43,1.43,0,0,0,.42-0.42,1.55,1.55,0,0,0,.22-0.56,1.8,1.8,0,0,0,0-.65,1.86,1.86,0,0,0-.22-0.6,1.52,1.52,0,0,0-.39-0.45,1.45,1.45,0,0,0-.54-0.26,1.53,1.53,0,0,0-1.66.65,1.54,1.54,0,0,0-.22.56A1.8,1.8,0,0,0,33.37,99.41Z"/><path class="cls-3" d="M38.77,97.86a1,1,0,0,1,.51-0.25,1,1,0,0,1,.52,0,0.86,0.86,0,0,1,.42.36,1,1,0,0,1,.31-0.48,1.09,1.09,0,0,1,.52-0.24,1.06,1.06,0,0,1,.47,0,0.94,0.94,0,0,1,.36.18,1,1,0,0,1,.25.32,1.48,1.48,0,0,1,.14.42l0.3,1.7L42,100,41.77,98.5a1.68,1.68,0,0,0-.09-0.31,0.79,0.79,0,0,0-.15-0.25,0.54,0.54,0,0,0-.22-0.15,0.57,0.57,0,0,0-.31,0,0.62,0.62,0,0,0-.3.14,0.67,0.67,0,0,0-.18.24,0.87,0.87,0,0,0-.07.3,1.41,1.41,0,0,0,0,.33l0.27,1.48-0.54.1-0.29-1.63a1.45,1.45,0,0,0-.08-0.29,0.59,0.59,0,0,0-.14-0.21,0.49,0.49,0,0,0-.21-0.12,0.66,0.66,0,0,0-.74.33,1,1,0,0,0-.08.69l0.26,1.46-0.54.1L38,98.53l-0.06-.28c0-.12,0-0.22-0.07-0.3l0.51-.09,0.06,0.23,0,0.22h0A0.94,0.94,0,0,1,38.77,97.86Z"/><path class="cls-3" d="M44.8,99.53l-0.58.1L43.9,97.86l-1.95-2,0.71-.13,1.46,1.65,0.81-2.05,0.66-.12-1.11,2.6Z"/><path class="cls-3" d="M46.43,96.41l1,2h0l0.28-2.21,0.57-.1,1,2h0l0.24-2.2,0.57-.1-0.42,2.9-0.57.1-1-1.94h0L47.81,99l-0.57.1-1.4-2.58Z"/><path class="cls-3" d="M51.42,98.34l-0.64.11,1-4.41L52.34,94l2.49,3.78-0.65.12-0.6-.93-1.94.35Zm0.34-1.62,1.53-.27-1.11-1.78Z"/><path class="cls-3" d="M54.76,93.52L56,93.29a2.59,2.59,0,0,1,.61,0,1.33,1.33,0,0,1,.5.12,0.94,0.94,0,0,1,.36.3,1.17,1.17,0,0,1,.2.5,1.15,1.15,0,0,1,0,.55,1,1,0,0,1-.25.41,1.42,1.42,0,0,1-.44.29,2.53,2.53,0,0,1-.58.17l-0.65.12,0.32,1.8-0.57.1Zm0.9,1.71,0.61-.11A1.86,1.86,0,0,0,56.64,95a1,1,0,0,0,.28-0.17,0.56,0.56,0,0,0,.16-0.24,0.65,0.65,0,0,0,0-.32A0.62,0.62,0,0,0,57,94a0.59,0.59,0,0,0-.23-0.17,0.84,0.84,0,0,0-.32-0.06,2.12,2.12,0,0,0-.38,0l-0.62.11Z"/><path class="cls-3" d="M58.5,96.13a0.68,0.68,0,0,0,.27.33,0.56,0.56,0,0,0,.41.07,0.6,0.6,0,0,0,.29-0.12,0.52,0.52,0,0,0,.15-0.22,0.89,0.89,0,0,0,0-.3,2,2,0,0,0,0-.34l-0.5-2.81,0.57-.1,0.51,2.84a2.34,2.34,0,0,1,0,.46,1.31,1.31,0,0,1-.09.47,1,1,0,0,1-.3.4,1.36,1.36,0,0,1-1.37.13,1.14,1.14,0,0,1-.5-0.55Z"/><path class="cls-3" d="M63,93.9L61.74,96l1.62-.29,0.08,0.46-2.29.41-0.08-.44L62.29,94l-1.47.26-0.08-.44,2.16-.39Z"/><path class="cls-3" d="M65.64,95.79L65,95.9l-1.61-2.54,0.6-.11,1.19,2h0L65.66,93l0.58-.1Z"/><path class="cls-3" d="M69.06,91.47l-1.69.3,0.16,1.08a1.29,1.29,0,0,1,.25-0.1L68,92.67a1.66,1.66,0,0,1,.56,0,1.28,1.28,0,0,1,.48.18,1.2,1.2,0,0,1,.36.36,1.35,1.35,0,0,1,.2.52,1.51,1.51,0,0,1,0,.6,1.31,1.31,0,0,1-.22.5,1.36,1.36,0,0,1-.4.36,1.58,1.58,0,0,1-.55.2,1.43,1.43,0,0,1-.85-0.08A1.41,1.41,0,0,1,67,94.8l0.47-.29a0.88,0.88,0,0,0,.38.34,0.84,0.84,0,0,0,.52.06,0.89,0.89,0,0,0,.32-0.12,0.82,0.82,0,0,0,.24-0.23,0.84,0.84,0,0,0,.13-0.31,1,1,0,0,0,0-.37,1,1,0,0,0-.15-0.39,0.79,0.79,0,0,0-.26-0.24,0.87,0.87,0,0,0-.33-0.11,1.3,1.3,0,0,0-.37,0,1.91,1.91,0,0,0-.46.15,2.22,2.22,0,0,0-.4.24l-0.33-2.18L69,91Z"/><path class="cls-3" d="M74.22,93.59a1.85,1.85,0,0,1-.53.65,2,2,0,0,1-.89.37,2.34,2.34,0,0,1-.89,0,2,2,0,0,1-.76-0.32,2.09,2.09,0,0,1-.57-0.6,2.46,2.46,0,0,1-.31-1.75,2,2,0,0,1,.34-0.76,2.1,2.1,0,0,1,.61-0.56A2.38,2.38,0,0,1,72,90.31a2.35,2.35,0,0,1,.43,0,2.21,2.21,0,0,1,.43,0,1.74,1.74,0,0,1,.39.14,1.31,1.31,0,0,1,.33.22l-0.39.43a1.16,1.16,0,0,0-.49-0.27,1.34,1.34,0,0,0-.62,0,1.56,1.56,0,0,0-.62.25,1.47,1.47,0,0,0-.42.44,1.64,1.64,0,0,0-.22.58,1.84,1.84,0,0,0,0,.65,2,2,0,0,0,.22.63,1.58,1.58,0,0,0,.4.47,1.44,1.44,0,0,0,.55.26,1.58,1.58,0,0,0,.66,0,1.44,1.44,0,0,0,.6-0.25,1.25,1.25,0,0,0,.4-0.49Z"/><path class="cls-3" d="M77.23,90L75.47,93.5l2.35-.42,0.09,0.51-3,.54-0.09-.5,1.75-3.5-2.26.41L74.18,90l3-.53Z"/><path class="cls-3" d="M79.9,91.12a0.72,0.72,0,0,0-.3-0.2,0.77,0.77,0,0,0-.39,0L79,90.95a0.55,0.55,0,0,0-.15.09,0.36,0.36,0,0,0-.1.13,0.3,0.3,0,0,0,0,.17,0.28,0.28,0,0,0,.2.23,2,2,0,0,0,.5.07l0.38,0a1.15,1.15,0,0,1,.32.11,0.69,0.69,0,0,1,.23.19,0.67,0.67,0,0,1,.13.3,0.85,0.85,0,0,1,0,.43,0.83,0.83,0,0,1-.2.32,1,1,0,0,1-.32.22,1.74,1.74,0,0,1-.4.12,1.64,1.64,0,0,1-.63,0,1.22,1.22,0,0,1-.56-0.28l0.33-.4a0.89,0.89,0,0,0,.35.22,0.86,0.86,0,0,0,.44,0l0.2-.06a0.58,0.58,0,0,0,.16-0.1A0.34,0.34,0,0,0,80,92.43a0.3,0.3,0,0,0-.23-0.25,2.45,2.45,0,0,0-.57-0.08l-0.3,0A0.94,0.94,0,0,1,78.62,92a0.69,0.69,0,0,1-.23-0.18,0.66,0.66,0,0,1-.13-0.31,0.77,0.77,0,0,1,0-.39,0.8,0.8,0,0,1,.19-0.3,1,1,0,0,1,.3-0.21,1.49,1.49,0,0,1,1-.1,1,1,0,0,1,.48.26Z"/><path class="cls-3" d="M81.48,90.12c0,0.07,0,.14.06,0.23l0,0.22h0a0.81,0.81,0,0,1,.11-0.23,1,1,0,0,1,.17-0.2A1,1,0,0,1,82.12,90a1,1,0,0,1,.28-0.09,1.08,1.08,0,0,1,.47,0,0.94,0.94,0,0,1,.36.18,1,1,0,0,1,.25.32,1.51,1.51,0,0,1,.14.42l0.3,1.7-0.54.1-0.27-1.52A1.9,1.9,0,0,0,83,90.78a0.77,0.77,0,0,0-.14-0.25,0.53,0.53,0,0,0-.22-0.15,0.64,0.64,0,0,0-.32,0,0.67,0.67,0,0,0-.48.34,1,1,0,0,0-.09.69L82,92.85l-0.54.1L81.09,90.8,81,90.52c0-.12,0-0.22-0.07-0.3Z"/><path class="cls-3" d="M85.2,92.28l-0.64.11,1-4.41,0.52-.09,2.49,3.78L88,91.79l-0.6-.93-1.94.35Zm0.34-1.62,1.53-.27L86,88.61Z"/><path class="cls-3" d="M89.6,89h0a0.71,0.71,0,0,1,.22-0.12l0.27-.08a1.34,1.34,0,0,1,.52,0,1.27,1.27,0,0,1,.45.19,1.23,1.23,0,0,1,.34.36,1.35,1.35,0,0,1,.19.5,1.43,1.43,0,0,1,0,.58,1.27,1.27,0,0,1-.22.48,1.38,1.38,0,0,1-.4.36,1.65,1.65,0,0,1-1.12.2,1.37,1.37,0,0,1-.5-0.2A1.32,1.32,0,0,1,89,90.88a1.36,1.36,0,0,1-.2-0.52,1.65,1.65,0,0,1,0-.63A3.47,3.47,0,0,1,89,89.13l0.77-1.88,0.66-.12Zm-0.25,1.29a1,1,0,0,0,.12.33,0.8,0.8,0,0,0,.22.24A0.86,0.86,0,0,0,90,91a0.85,0.85,0,0,0,.36,0,0.91,0.91,0,0,0,.33-0.13,0.79,0.79,0,0,0,.23-0.23A0.85,0.85,0,0,0,91,90.31,1,1,0,0,0,91,90a0.93,0.93,0,0,0-.12-0.33,0.85,0.85,0,0,0-.22-0.24,0.74,0.74,0,0,0-.29-0.13,0.92,0.92,0,0,0-.36,0,0.94,0.94,0,0,0-.34.13,0.79,0.79,0,0,0-.24.23,0.82,0.82,0,0,0-.12.3A1,1,0,0,0,89.35,90.26Z"/><path class="cls-3" d="M95.16,90.49L92.5,91l-0.1-.54,1.34-1.91A2.61,2.61,0,0,0,94,88.07a0.87,0.87,0,0,0,0-.49,0.72,0.72,0,0,0-.11-0.28,0.7,0.7,0,0,0-.2-0.2,0.69,0.69,0,0,0-.26-0.1,0.83,0.83,0,0,0-.29,0,0.71,0.71,0,0,0-.48.29,0.92,0.92,0,0,0-.16.56H92A1.26,1.26,0,0,1,92,87.4a1.31,1.31,0,0,1,.22-0.4,1.29,1.29,0,0,1,.36-0.3,1.48,1.48,0,0,1,.47-0.17,1.61,1.61,0,0,1,.5,0,1.28,1.28,0,0,1,.45.14,1.07,1.07,0,0,1,.35.31,1.15,1.15,0,0,1,.2.48,1.25,1.25,0,0,1,0,.37,1.51,1.51,0,0,1-.08.34,1.89,1.89,0,0,1-.16.32l-0.21.31-1.1,1.53,2-.36Z"/><path class="cls-3" d="M97.8,86.31l-1.69.3,0.16,1.08a1.27,1.27,0,0,1,.25-0.1l0.27-.07a1.64,1.64,0,0,1,.56,0,1.26,1.26,0,0,1,.48.18,1.21,1.21,0,0,1,.36.36,1.36,1.36,0,0,1,.2.52,1.51,1.51,0,0,1,0,.6,1.32,1.32,0,0,1-.22.5,1.38,1.38,0,0,1-.4.36,1.58,1.58,0,0,1-.55.2,1.44,1.44,0,0,1-.85-0.08,1.41,1.41,0,0,1-.6-0.51l0.47-.29a0.89,0.89,0,0,0,.38.34,0.83,0.83,0,0,0,.52.06,0.89,0.89,0,0,0,.32-0.12,0.82,0.82,0,0,0,.24-0.23,0.84,0.84,0,0,0,.13-0.31,1,1,0,0,0,0-.37,1,1,0,0,0-.15-0.39,0.79,0.79,0,0,0-.26-0.24A0.88,0.88,0,0,0,97.07,88a1.28,1.28,0,0,0-.37,0,1.93,1.93,0,0,0-.46.15,2.2,2.2,0,0,0-.4.24L95.5,86.21l2.21-.4Z"/><path class="cls-3" d="M100.69,87.39a0.73,0.73,0,0,0-.3-0.2,0.77,0.77,0,0,0-.39,0l-0.18.05a0.56,0.56,0,0,0-.15.09,0.35,0.35,0,0,0-.1.13,0.3,0.3,0,0,0,0,.17,0.28,0.28,0,0,0,.2.23,2,2,0,0,0,.5.07l0.38,0a1.16,1.16,0,0,1,.32.11,0.7,0.7,0,0,1,.23.19,0.67,0.67,0,0,1,.13.3,0.85,0.85,0,0,1,0,.43,0.81,0.81,0,0,1-.2.32,1,1,0,0,1-.32.22,1.75,1.75,0,0,1-.4.12,1.64,1.64,0,0,1-.63,0,1.22,1.22,0,0,1-.56-0.28l0.33-.4a0.89,0.89,0,0,0,.35.22,0.87,0.87,0,0,0,.44,0l0.2-.06a0.56,0.56,0,0,0,.16-0.1,0.35,0.35,0,0,0,.1-0.14,0.36,0.36,0,0,0,0-.2,0.3,0.3,0,0,0-.23-0.25,2.45,2.45,0,0,0-.57-0.08l-0.29,0a0.94,0.94,0,0,1-.28-0.09,0.7,0.7,0,0,1-.23-0.18A0.66,0.66,0,0,1,99,87.76a0.77,0.77,0,0,1,0-.39,0.81,0.81,0,0,1,.19-0.3,1.07,1.07,0,0,1,.3-0.21,1.5,1.5,0,0,1,.37-0.12,1.47,1.47,0,0,1,.59,0A1,1,0,0,1,101,87Z"/><path class="cls-3" d="M102.65,86.71l0.18,0a1.8,1.8,0,0,0,.33-0.09,0.89,0.89,0,0,0,.27-0.16,0.61,0.61,0,0,0,.17-0.25,0.65,0.65,0,0,0,0-.35,0.67,0.67,0,0,0-.11-0.27,0.63,0.63,0,0,0-.2-0.18,0.78,0.78,0,0,0-.26-0.09,0.79,0.79,0,0,0-.28,0,0.74,0.74,0,0,0-.42.21,0.82,0.82,0,0,0-.21.42l-0.54-.09a1.23,1.23,0,0,1,.38-0.67,1.42,1.42,0,0,1,.73-0.35,1.61,1.61,0,0,1,.5,0,1.23,1.23,0,0,1,.44.14,1,1,0,0,1,.33.3,1.11,1.11,0,0,1,.19.46,1,1,0,0,1,0,.33,1,1,0,0,1-.1.3,1,1,0,0,1-.19.25,1,1,0,0,1-.27.18h0a1.07,1.07,0,0,1,.35.06,1,1,0,0,1,.3.17,1,1,0,0,1,.36.62,1.23,1.23,0,0,1,0,.56,1.17,1.17,0,0,1-.23.44,1.34,1.34,0,0,1-.39.32,1.75,1.75,0,0,1-1.39.11,1.27,1.27,0,0,1-.66-0.59l0.49-.27a0.91,0.91,0,0,0,.39.38,0.89,0.89,0,0,0,.58.07,1,1,0,0,0,.29-0.1,0.81,0.81,0,0,0,.24-0.2,0.73,0.73,0,0,0,.14-0.28,0.79,0.79,0,0,0,0-.35,0.67,0.67,0,0,0-.16-0.34,0.74,0.74,0,0,0-.28-0.19,1.05,1.05,0,0,0-.36-0.07,1.81,1.81,0,0,0-.37,0l-0.17,0Z"/><path class="cls-3" d="M106.67,85.78l0.7-1.7L108,84l-1,2.17L109,88l-0.72.13-1.43-1.52L106,88.55l-0.71.13,1.07-2.43-1.66-1.69,0.7-.13Z"/><path class="cls-3" d="M110.46,85.38l-0.64.11,0.41,2.29-0.54.1-0.41-2.29-0.54.1-0.08-.44,0.54-.1-0.1-.57a1.74,1.74,0,0,1,0-.46,0.93,0.93,0,0,1,.12-0.39,0.87,0.87,0,0,1,.27-0.29,1.17,1.17,0,0,1,.46-0.17,1.32,1.32,0,0,1,.35,0l0,0.48H110a0.51,0.51,0,0,0-.24.1,0.39,0.39,0,0,0-.12.17,0.6,0.6,0,0,0,0,.22,1.86,1.86,0,0,0,0,.25l0.1,0.57,0.64-.11Z"/><path class="cls-3" d="M114,87.12l-2.67.48-0.1-.54,1.34-1.91a2.63,2.63,0,0,0,.25-0.46,0.87,0.87,0,0,0,0-.49,0.72,0.72,0,0,0-.11-0.28,0.71,0.71,0,0,0-.2-0.19,0.68,0.68,0,0,0-.26-0.1,0.82,0.82,0,0,0-.29,0,0.71,0.71,0,0,0-.48.29,0.92,0.92,0,0,0-.16.56H110.8a1.25,1.25,0,0,1,.07-0.46,1.31,1.31,0,0,1,.22-0.4,1.27,1.27,0,0,1,.36-0.3,1.45,1.45,0,0,1,.47-0.17,1.61,1.61,0,0,1,.5,0,1.28,1.28,0,0,1,.45.14,1.08,1.08,0,0,1,.35.31,1.15,1.15,0,0,1,.2.48,1.25,1.25,0,0,1,0,.37,1.51,1.51,0,0,1-.08.34,1.91,1.91,0,0,1-.16.32l-0.21.31L111.9,87l2-.36Z"/><path class="cls-3" d="M114.84,84.14l0.06,0.23,0,0.22h0a0.82,0.82,0,0,1,.1-0.23,1.09,1.09,0,0,1,.18-0.2,1.06,1.06,0,0,1,.52-0.25,1.08,1.08,0,0,1,.47,0,1,1,0,0,1,.36.18,1,1,0,0,1,.25.32,1.51,1.51,0,0,1,.14.42l0.3,1.7-0.54.1-0.27-1.52a2,2,0,0,0-.08-0.31,0.76,0.76,0,0,0-.14-0.25,0.52,0.52,0,0,0-.22-0.15,0.64,0.64,0,0,0-.32,0,0.67,0.67,0,0,0-.48.34,1,1,0,0,0-.09.69l0.26,1.46-0.54.1-0.39-2.15-0.06-.28c0-.11,0-0.22-0.07-0.3Z"/><path class="cls-3" d="M120.61,84.49l0,0.09a0.85,0.85,0,0,1,0,.09l-2.18.39a0.82,0.82,0,0,0,.14.31,0.87,0.87,0,0,0,.24.23,0.9,0.9,0,0,0,.31.13,1,1,0,0,0,.81-0.21,1,1,0,0,0,.26-0.35l0.44,0.24a1.39,1.39,0,0,1-.44.52,1.58,1.58,0,0,1-.64.26,1.61,1.61,0,0,1-.6,0,1.34,1.34,0,0,1-.89-0.61,1.57,1.57,0,0,1-.22-0.57,1.59,1.59,0,0,1,0-.61,1.37,1.37,0,0,1,.22-0.51,1.39,1.39,0,0,1,.4-0.38,1.56,1.56,0,0,1,1.11-.21,1.14,1.14,0,0,1,.47.21,1.28,1.28,0,0,1,.34.4A1.8,1.8,0,0,1,120.61,84.49ZM120,84.37a1.08,1.08,0,0,0-.11-0.29,0.68,0.68,0,0,0-.46-0.34,0.85,0.85,0,0,0-.34,0,0.9,0.9,0,0,0-.32.12,0.85,0.85,0,0,0-.38.49,0.79,0.79,0,0,0,0,.32Z"/><path class="cls-3" d="M122.1,82.92a1,1,0,0,1,.51-0.25,1,1,0,0,1,.52,0,0.87,0.87,0,0,1,.43.36,1,1,0,0,1,.31-0.48,1.11,1.11,0,0,1,.52-0.24,1.07,1.07,0,0,1,.47,0,0.94,0.94,0,0,1,.36.18,1,1,0,0,1,.25.32,1.48,1.48,0,0,1,.14.42l0.3,1.7-0.54.1-0.27-1.52a1.67,1.67,0,0,0-.09-0.31,0.8,0.8,0,0,0-.15-0.25,0.54,0.54,0,0,0-.22-0.15,0.57,0.57,0,0,0-.31,0,0.62,0.62,0,0,0-.3.14,0.68,0.68,0,0,0-.18.24,0.87,0.87,0,0,0-.07.3,1.38,1.38,0,0,0,0,.33l0.27,1.48-0.54.1-0.29-1.63a1.41,1.41,0,0,0-.08-0.29,0.58,0.58,0,0,0-.14-0.21,0.5,0.5,0,0,0-.21-0.12,0.62,0.62,0,0,0-.28,0,0.63,0.63,0,0,0-.46.33,1,1,0,0,0-.08.69l0.26,1.46-0.54.1-0.39-2.15-0.06-.28c0-.12,0-0.22-0.07-0.3l0.51-.09c0,0.07,0,.14.06,0.23l0,0.22h0A1,1,0,0,1,122.1,82.92Z"/><path class="cls-3" d="M127.89,82.26l-0.73.13,0.25,1.42a0.55,0.55,0,0,0,.16.34,0.38,0.38,0,0,0,.31.05l0.16,0,0.15-.08,0.1,0.44-0.21.09-0.24.06a0.8,0.8,0,0,1-.63-0.11,0.91,0.91,0,0,1-.32-0.61l-0.27-1.49-0.53.09L126,82.13l0.53-.09-0.14-.79,0.54-.1,0.14,0.79,0.73-.13Z"/><path class="cls-3" d="M130.44,84.17l-0.58.1-0.32-1.77-1.95-2,0.7-.13L129.77,82l0.81-2.05,0.66-.12-1.11,2.6Z"/><path class="cls-3" d="M132.38,84.3a1.33,1.33,0,0,0,.51.24,1.35,1.35,0,0,0,.57,0,1.22,1.22,0,0,0,.44-0.16,0.78,0.78,0,0,0,.26-0.27,0.84,0.84,0,0,0,.1-0.35,1.57,1.57,0,0,0,0-.41L134.18,83h0a1,1,0,0,1-.35.43,1.31,1.31,0,0,1-.53.22,1.45,1.45,0,0,1-.59,0,1.31,1.31,0,0,1-.49-0.22,1.39,1.39,0,0,1-.36-0.4,1.56,1.56,0,0,1-.2-0.53,1.59,1.59,0,0,1,0-.57,1.4,1.4,0,0,1,.2-0.5,1.32,1.32,0,0,1,.38-0.38,1.41,1.41,0,0,1,.55-0.21,1.32,1.32,0,0,1,.59,0,1,1,0,0,1,.49.31h0l-0.08-.44,0.53-.09,0.47,2.6a2.21,2.21,0,0,1,0,.59,1.26,1.26,0,0,1-.17.53,1.29,1.29,0,0,1-.41.42,1.81,1.81,0,0,1-.69.26,2.13,2.13,0,0,1-.74,0,1.84,1.84,0,0,1-.69-0.26Zm-0.17-1.9a1.12,1.12,0,0,0,.13.35,0.91,0.91,0,0,0,.56.44,0.88,0.88,0,0,0,.4,0,1,1,0,0,0,.37-0.14,0.88,0.88,0,0,0,.26-0.26,0.93,0.93,0,0,0,.13-0.34,1.08,1.08,0,0,0,0-.39,1.06,1.06,0,0,0-.13-0.36,1,1,0,0,0-.25-0.27,0.93,0.93,0,0,0-.33-0.16,0.91,0.91,0,0,0-.39,0,0.9,0.9,0,0,0-.37.15,0.91,0.91,0,0,0-.25.26,0.88,0.88,0,0,0-.12.34A1.15,1.15,0,0,0,132.21,82.41Z"/><path class="cls-3" d="M135.14,79.1l1.25-.22a2.62,2.62,0,0,1,.61,0,1.33,1.33,0,0,1,.5.12,1,1,0,0,1,.36.3,1.17,1.17,0,0,1,.2.5,1.15,1.15,0,0,1,0,.55,1,1,0,0,1-.25.41,1.42,1.42,0,0,1-.44.29,2.53,2.53,0,0,1-.58.17l-0.65.12,0.32,1.8-0.57.1Zm0.9,1.71,0.61-.11a1.9,1.9,0,0,0,.38-0.11,1,1,0,0,0,.28-0.17,0.55,0.55,0,0,0,.16-0.24,0.65,0.65,0,0,0,0-.32,0.62,0.62,0,0,0-.13-0.3,0.6,0.6,0,0,0-.23-0.17,0.85,0.85,0,0,0-.32-0.06,2.12,2.12,0,0,0-.38,0l-0.62.11Z"/><path class="cls-3" d="M140.13,83.86l-0.54.1-0.74-4.13,0.53-.1,0.08,0.43h0a1,1,0,0,1,.32-0.43,1.23,1.23,0,0,1,.57-0.25,1.39,1.39,0,0,1,.58,0,1.28,1.28,0,0,1,.49.23,1.42,1.42,0,0,1,.36.41,1.71,1.71,0,0,1,.2,1.13,1.42,1.42,0,0,1-.19.51,1.3,1.3,0,0,1-.38.39,1.42,1.42,0,0,1-.55.22,1.26,1.26,0,0,1-.58,0,1,1,0,0,1-.47-0.28h0Zm1.31-3.09a1.22,1.22,0,0,0-.12-0.36,1,1,0,0,0-.23-0.29,0.82,0.82,0,0,0-.32-0.17,0.92,0.92,0,0,0-.41,0,0.88,0.88,0,0,0-.36.15,0.92,0.92,0,0,0-.25.27,1,1,0,0,0-.13.35,1.11,1.11,0,0,0,.13.75,1,1,0,0,0,.24.28,0.94,0.94,0,0,0,.33.16,0.89,0.89,0,0,0,.39,0,0.9,0.9,0,0,0,.38-0.16,0.86,0.86,0,0,0,.25-0.27,0.94,0.94,0,0,0,.12-0.35A1.22,1.22,0,0,0,141.43,80.78Z"/><path class="cls-3" d="M142.42,77.8l0.57-.1,0.31,1.71,2.07-.37-0.31-1.71,0.58-.1,0.73,4.09-0.58.1-0.34-1.87-2.07.37,0.34,1.87-0.57.1Z"/><path class="cls-3" d="M149.58,80.29a1,1,0,0,1-.36.46,1.3,1.3,0,0,1-.54.23,1.43,1.43,0,0,1-.59,0,1.3,1.3,0,0,1-.49-0.23,1.42,1.42,0,0,1-.36-0.41,1.63,1.63,0,0,1-.2-0.55,1.6,1.6,0,0,1,0-.58,1.38,1.38,0,0,1,.2-0.51,1.3,1.3,0,0,1,.38-0.39,1.42,1.42,0,0,1,.54-0.21,1.17,1.17,0,0,1,.61,0,1.24,1.24,0,0,1,.45.27h0l-0.37-2,0.54-.1,0.78,4.37-0.53.09-0.08-.43h0Zm-2-.62a1.21,1.21,0,0,0,.12.36,1,1,0,0,0,.23.29,0.89,0.89,0,0,0,.32.17,1,1,0,0,0,.77-0.14,1,1,0,0,0,.25-0.27,1,1,0,0,0,.13-0.35A1.1,1.1,0,0,0,149.3,79a1,1,0,0,0-.24-0.28,0.91,0.91,0,0,0-.33-0.17,0.9,0.9,0,0,0-.39,0,0.91,0.91,0,0,0-.38.15,0.85,0.85,0,0,0-.24.27,1,1,0,0,0-.12.35A1.23,1.23,0,0,0,147.6,79.67Z"/><path class="cls-3" d="M152.23,79.4h0L152.62,76l0.63-.11,1.54,3.09h0l0.32-3.42,0.61-.11-0.47,4.31-0.6.11-1.58-3.11h0l-0.4,3.47-0.6.11-1.94-3.88,0.62-.11Z"/><path class="cls-3" d="M157.62,78.77l2.14-.38,0.09,0.51-2.71.49-0.73-4.09,2.62-.47,0.09,0.5-2.05.37,0.22,1.23,1.93-.35,0.09,0.49-1.93.35Z"/><path class="cls-3" d="M36.25,106.77L35,108.89l1.62-.29,0.08,0.46-2.29.41L34.35,109l1.22-2.13-1.47.26L34,106.71l2.16-.39Z"/><path class="cls-3" d="M39.21,104.91l-1,3.88-0.64.12,1.06-3.9-2,.36-0.09-.5,2.61-.47Z"/><path class="cls-3" d="M42.07,106.39h0a0.74,0.74,0,0,1-.22.12l-0.14,0-0.13,0a1.32,1.32,0,0,1-.52,0,1.28,1.28,0,0,1-.45-0.19,1.25,1.25,0,0,1-.34-0.36,1.36,1.36,0,0,1-.19-0.5,1.44,1.44,0,0,1,0-.58,1.29,1.29,0,0,1,.22-0.48,1.37,1.37,0,0,1,.4-0.36,1.58,1.58,0,0,1,.54-0.2,1.55,1.55,0,0,1,.58,0,1.38,1.38,0,0,1,.5.2,1.31,1.31,0,0,1,.37.38,1.37,1.37,0,0,1,.2.52,1.62,1.62,0,0,1,0,.63,3.83,3.83,0,0,1-.18.6l-0.76,1.88-0.66.12Zm0.26-1.29a0.93,0.93,0,0,0-.12-0.33,0.81,0.81,0,0,0-.22-0.25,0.84,0.84,0,0,0-.66-0.15,0.9,0.9,0,0,0-.33.13,0.83,0.83,0,0,0-.24.23,0.79,0.79,0,0,0-.12.31,1,1,0,0,0,0,.36,0.94,0.94,0,0,0,.12.33A0.83,0.83,0,0,0,41,106a0.76,0.76,0,0,0,.3.13,0.92,0.92,0,0,0,.36,0A1,1,0,0,0,42,106a0.79,0.79,0,0,0,.24-0.23,0.81,0.81,0,0,0,.12-0.3A1,1,0,0,0,42.33,105.1Z"/><path class="cls-3" d="M46.66,105.85a1.5,1.5,0,0,1,0,.6,1.4,1.4,0,0,1-.23.51,1.43,1.43,0,0,1-.42.39,1.67,1.67,0,0,1-1.17.21,1.41,1.41,0,0,1-.52-0.22,1.44,1.44,0,0,1-.39-0.4,1.51,1.51,0,0,1-.22-0.56,1.49,1.49,0,0,1,0-.6,1.39,1.39,0,0,1,.64-0.89,1.67,1.67,0,0,1,1.17-.21,1.44,1.44,0,0,1,.52.21,1.38,1.38,0,0,1,.39.4A1.48,1.48,0,0,1,46.66,105.85Zm-0.57.1a1.17,1.17,0,0,0-.13-0.36,1,1,0,0,0-.23-0.28,0.87,0.87,0,0,0-.33-0.16,1,1,0,0,0-.78.14,0.87,0.87,0,0,0-.25.27,1,1,0,0,0-.12.35,1.17,1.17,0,0,0,0,.39,1.15,1.15,0,0,0,.13.36,1,1,0,0,0,.23.29,0.85,0.85,0,0,0,.33.17,1,1,0,0,0,.78-0.14,0.85,0.85,0,0,0,.25-0.27,1,1,0,0,0,.12-0.35A1.19,1.19,0,0,0,46.09,106Z"/><path class="cls-3" d="M47.7,103.24a0.33,0.33,0,0,1-.06.27,0.39,0.39,0,0,1-.51.09,0.33,0.33,0,0,1-.15-0.23A0.34,0.34,0,0,1,47,103.1a0.38,0.38,0,0,1,.51-0.09A0.34,0.34,0,0,1,47.7,103.24Zm-0.41,4.84h0.22a0.38,0.38,0,0,0,.19-0.08,0.33,0.33,0,0,0,.09-0.14,0.58,0.58,0,0,0,0-.19,1.76,1.76,0,0,0,0-.23l-0.55-3.07,0.54-.1,0.55,3.09a2,2,0,0,1,0,.4,0.92,0.92,0,0,1-.08.35,0.69,0.69,0,0,1-.23.28,1,1,0,0,1-.43.16l-0.16,0H47.32Z"/><path class="cls-3" d="M50.33,105.75h0l0.38-3.43,0.63-.11,1.54,3.09h0l0.32-3.42,0.61-.11-0.47,4.31-0.6.11-1.58-3.11h0l-0.4,3.47-0.6.11-1.94-3.88,0.62-.11Z"/><path class="cls-3" d="M55.05,102.94l0.06,0.23,0,0.22h0a0.8,0.8,0,0,1,.11-0.23,1,1,0,0,1,.17-0.2A1.06,1.06,0,0,1,56,102.7a1.09,1.09,0,0,1,.47,0,1,1,0,0,1,.36.18,1,1,0,0,1,.25.32,1.54,1.54,0,0,1,.14.42l0.3,1.7-0.54.1-0.27-1.52a1.9,1.9,0,0,0-.08-0.31,0.77,0.77,0,0,0-.14-0.25,0.53,0.53,0,0,0-.22-0.15,0.63,0.63,0,0,0-.32,0,0.67,0.67,0,0,0-.48.34,1,1,0,0,0-.09.69l0.26,1.46-0.54.1-0.39-2.15-0.06-.28-0.07-.3Z"/><path class="cls-3" d="M57.82,101l1.25-.22a2.59,2.59,0,0,1,.61,0,1.33,1.33,0,0,1,.5.12,0.94,0.94,0,0,1,.36.3,1.18,1.18,0,0,1,.2.5,1.15,1.15,0,0,1,0,.55,1,1,0,0,1-.25.41,1.41,1.41,0,0,1-.44.29,2.56,2.56,0,0,1-.58.17l-0.65.12,0.32,1.8-0.57.1Zm0.9,1.71,0.61-.11a1.82,1.82,0,0,0,.38-0.11,0.93,0.93,0,0,0,.28-0.17,0.55,0.55,0,0,0,.16-0.24,0.66,0.66,0,0,0,0-.32,0.62,0.62,0,0,0-.13-0.3,0.59,0.59,0,0,0-.23-0.17,0.88,0.88,0,0,0-.32-0.06,2.12,2.12,0,0,0-.38,0l-0.62.11Z"/><path class="cls-3" d="M62.47,104l0.08,0.43-0.53.09-0.78-4.37,0.54-.1,0.37,2h0a1.17,1.17,0,0,1,.89-0.66,1.41,1.41,0,0,1,.58,0,1.3,1.3,0,0,1,.49.23,1.39,1.39,0,0,1,.36.41,1.7,1.7,0,0,1,.2,1.13,1.42,1.42,0,0,1-.19.51,1.31,1.31,0,0,1-.38.39,1.44,1.44,0,0,1-.55.22,1.28,1.28,0,0,1-.58,0,1.07,1.07,0,0,1-.49-0.3h0Zm1.65-1.27a1.21,1.21,0,0,0-.12-0.36,1,1,0,0,0-.23-0.29,0.86,0.86,0,0,0-.32-0.17,0.93,0.93,0,0,0-.41,0,0.89,0.89,0,0,0-.36.15,0.92,0.92,0,0,0-.25.27,1,1,0,0,0-.13.35,1.1,1.1,0,0,0,.13.75,1,1,0,0,0,.24.28,0.93,0.93,0,0,0,.33.16,0.89,0.89,0,0,0,.39,0,0.91,0.91,0,0,0,.38-0.15,0.89,0.89,0,0,0,.25-0.27,1,1,0,0,0,.12-0.35A1.2,1.2,0,0,0,64.12,102.72Z"/><path class="cls-3" d="M67.91,103a1,1,0,0,1-.36.45,1.3,1.3,0,0,1-.54.23,1.42,1.42,0,0,1-.59,0,1.3,1.3,0,0,1-.49-0.23,1.41,1.41,0,0,1-.36-0.41,1.66,1.66,0,0,1-.2-0.55,1.63,1.63,0,0,1,0-.58,1.41,1.41,0,0,1,.2-0.51A1.3,1.3,0,0,1,66,101a1.42,1.42,0,0,1,.54-0.21,1.17,1.17,0,0,1,.61,0,1.24,1.24,0,0,1,.45.27h0l-0.37-2,0.54-.1,0.78,4.37-0.53.09L67.92,103h0Zm-2-.62a1.21,1.21,0,0,0,.12.36,1,1,0,0,0,.23.29,0.9,0.9,0,0,0,.32.17,0.88,0.88,0,0,0,.41,0,0.9,0.9,0,0,0,.36-0.15,0.93,0.93,0,0,0,.25-0.27,1,1,0,0,0,.13-0.35,1.1,1.1,0,0,0-.13-0.75,1,1,0,0,0-.24-0.28,0.93,0.93,0,0,0-.33-0.17,0.88,0.88,0,0,0-.39,0,0.91,0.91,0,0,0-.38.15,0.86,0.86,0,0,0-.24.27,1,1,0,0,0-.12.35A1.22,1.22,0,0,0,65.94,102.4Z"/><path class="cls-3" d="M72.14,99.35a1.35,1.35,0,0,0-.53-0.24,1.65,1.65,0,0,0-.66,0,1.57,1.57,0,0,0-.62.25,1.48,1.48,0,0,0-.43.44,1.64,1.64,0,0,0-.22.58,1.83,1.83,0,0,0,0,.65,1.85,1.85,0,0,0,.22.62,1.58,1.58,0,0,0,.41.47,1.45,1.45,0,0,0,.56.26,1.68,1.68,0,0,0,.68,0,2.57,2.57,0,0,0,.52-0.15,1.57,1.57,0,0,0,.39-0.23l-0.2-1.14-0.91.16-0.09-.49,1.47-.26,0.36,2a3,3,0,0,1-.66.39,3.59,3.59,0,0,1-.82.24,2.42,2.42,0,0,1-.91,0,2,2,0,0,1-1.34-.92,2.32,2.32,0,0,1-.32-0.84,2.29,2.29,0,0,1,0-.9,2,2,0,0,1,.34-0.76A2.09,2.09,0,0,1,70,98.91a2.39,2.39,0,0,1,.84-0.31,2.52,2.52,0,0,1,.9,0,1.91,1.91,0,0,1,.71.27Z"/><circle class="cls-5" cx="144.83" cy="31.24" r="6.81" transform="translate(-3.24 26.06) rotate(-10.17)"/><path class="cls-6" d="M139,34.95c-2,2.65-3.12,4.66-2.62,5.14,0.8,0.77,5.24-2.57,9.93-7.46s7.84-9.47,7-10.23c-0.51-.49-2.52.71-5.13,2.91"/></svg>