<?xml version="1.0" encoding="utf-8"?>
<!-- Generator: Adobe Illustrator 19.1.0, SVG Export Plug-In . SVG Version: 6.00 Build 0)  -->
<svg version="1.1" xmlns="http://www.w3.org/2000/svg" xmlns:xlink="http://www.w3.org/1999/xlink" x="0px" y="0px" width="249.1px"
	 height="116px" viewBox="0 0 249.1 116" style="enable-background:new 0 0 249.1 116;" xml:space="preserve">
<style type="text/css">
	.st0{display:none;}
	.st1{display:inline;fill:#F05135;}
	.st2{display:inline;fill:#083B54;}
	.st3{display:inline;fill:#6ACAD1;}
	.st4{display:inline;fill:#F59223;}
	.st5{display:inline;fill:none;stroke:#F05135;stroke-width:2.5;stroke-miterlimit:10;}
	.st6{display:inline;fill:none;stroke:#083B54;stroke-width:2.5;stroke-miterlimit:10;}
	.st7{display:inline;fill:none;stroke:#6ACAD1;stroke-width:2.5;stroke-miterlimit:10;}
	.st8{display:inline;fill:none;stroke:#F59223;stroke-width:2.5;stroke-miterlimit:10;}
	.st9{display:inline;fill:#FDD9C8;stroke:#F05135;stroke-width:2.5;stroke-miterlimit:10;}
	.st10{display:inline;fill:#D3D5DB;stroke:#083B54;stroke-width:2.5;stroke-miterlimit:10;}
	.st11{display:inline;fill:#E0F2F3;stroke:#6ACAD1;stroke-width:2.5;stroke-miterlimit:10;}
	.st12{display:inline;fill:#FEE5CB;stroke:#F59223;stroke-width:2.5;stroke-miterlimit:10;}
	.st13{display:inline;fill:#FFFFFF;stroke:#F05135;stroke-width:2.5;stroke-miterlimit:10;}
	.st14{display:inline;fill:#FFFFFF;stroke:#083B54;stroke-width:2.5;stroke-miterlimit:10;}
	.st15{display:inline;fill:#FFFFFF;stroke:#6ACAD1;stroke-width:2.5;stroke-miterlimit:10;}
	.st16{display:inline;fill:#FFFFFF;stroke:#F59223;stroke-width:2.5;stroke-miterlimit:10;}
	.st17{display:inline;}
	.st18{opacity:0.3;fill:none;stroke:#6ACAD1;stroke-width:2.5;stroke-miterlimit:10;}
	.st19{fill:#E0F2F3;stroke:#6ACAD1;stroke-width:2.5;stroke-miterlimit:10;}
	.st20{opacity:0.5;fill:#6ACAD1;}
	.st21{opacity:0.3;fill:none;stroke:#F59223;stroke-miterlimit:10;}
	.st22{fill:none;stroke:#6ACAD1;stroke-width:2.5;stroke-linecap:round;stroke-miterlimit:10;}
	.st23{fill:#FFFFFF;stroke:#6ACAD1;stroke-width:2.5;stroke-miterlimit:10;}
	.st24{fill:#FFFFFF;stroke:#083B54;stroke-width:2.5;stroke-miterlimit:10;}
	.st25{fill:#FFFFFF;}
	.st26{fill:none;stroke:#6ACAD1;stroke-width:2.5;stroke-miterlimit:10;}
	.st27{fill:#E0F2F3;}
	.st28{fill:#D3D5DB;stroke:#083B54;stroke-width:2.5;stroke-miterlimit:10;}
	.st29{fill:#083B54;}
	.st30{opacity:0.2;fill:#083B54;}
	.st31{opacity:0.3;fill:#083B54;}
	.st32{opacity:0.5;fill:#083B54;}
	.st33{opacity:0.85;fill:#083B54;}
	.st34{opacity:0.7;fill:#083B54;}
	.st35{fill:#FEE5CB;stroke:#F59223;stroke-miterlimit:10;}
	.st36{opacity:0.5;fill:#FFFFFF;stroke:#6ACAD1;stroke-linecap:round;stroke-miterlimit:10;}
	.st37{fill:#F05135;}
	.st38{fill:#F59223;}
	.st39{fill:#F05135;stroke:#F05235;stroke-linejoin:round;stroke-miterlimit:10;}
	.st40{fill:#6ACAD1;}
</style>
<g id="Layer_1" class="st0">
	<g id="_x38_jq36L_1_" class="st17">
		
			<image style="overflow:visible;" width="1001" height="475" id="_x38_jq36L_2_" xlink:href="F3F13B59423AF3C6.png"  transform="matrix(1 0 0 1 -115.4032 -117.3051)">
		</image>
	</g>
</g>
<g id="Layer_2">
	<g>
		<path class="st19" d="M223.8,94.1l-66.5-16.2c-0.5-0.1-0.9-0.7-0.7-1.2l9.1-37.3c0.1-0.5,0.7-0.9,1.2-0.7l66.5,16.2
			c0.5,0.1,0.9,0.7,0.7,1.2L225,93.3C224.9,93.9,224.3,94.2,223.8,94.1z"/>
		<path class="st20" d="M227.8,57l-2.4-0.6c-0.1,0-0.2-0.1-0.4-0.1c-0.1,0-0.3,0-0.4,0l-57.9-14.1c-1.2-0.3-2.4,0.4-2.7,1.7l-7,28.8
			c-0.3,1.2,0.4,2.4,1.7,2.7l61,14.9c1.2,0.3,2.4-0.4,2.7-1.7l7-28.8C229.8,58.5,229,57.3,227.8,57z M166.4,44.6L221.2,58
			c-0.5,0.7-0.9,1.5-1.2,2.5c-0.7,2.8,0.4,5.5,2.5,6c1,0.2,2-0.1,2.9-0.7l-3.5,14.4c-0.5-1-1.2-1.7-2.2-2c-2.1-0.5-4.3,1.4-5,4.2
			c-0.4,1.6-0.2,3.1,0.4,4.2l-55.6-13.6L166.4,44.6z M220,87.6c0.1,0,0.1-0.1,0.2-0.1l0,0.1L220,87.6z"/>
		
			<ellipse transform="matrix(0.9715 0.2372 -0.2372 0.9715 21.0419 -43.7407)" class="st20" cx="192.3" cy="65.6" rx="9" ry="12.2"/>
	</g>
	<g>
		<path class="st19" d="M22.8,98.6l65.4-20.2c0.5-0.2,0.8-0.7,0.7-1.3L77.5,40.5c-0.2-0.5-0.7-0.8-1.3-0.7L10.9,60
			c-0.5,0.2-0.8,0.7-0.7,1.3L21.5,98C21.7,98.5,22.3,98.8,22.8,98.6z"/>
		<path class="st20" d="M15.1,64.7L23.8,93c0.4,1.2,1.6,1.9,2.8,1.5l60-18.5c1.2-0.4,1.9-1.6,1.5-2.8l-8.7-28.3
			c-0.4-1.2-1.6-1.9-2.8-1.5L19.7,60.9c-0.1,0-0.3,0-0.4,0.1c-0.1,0-0.2,0.1-0.4,0.2l-2.4,0.7C15.4,62.2,14.7,63.5,15.1,64.7z
			 M85.7,73.6L31,90.5c0.5-1.2,0.6-2.7,0.2-4.2c-0.9-2.8-3.2-4.5-5.2-3.9c-1,0.3-1.7,1.1-2.1,2.1l-4.4-14.1c0.9,0.6,1.9,0.9,2.9,0.6
			c2-0.6,3-3.4,2.2-6.1c-0.3-0.9-0.8-1.7-1.3-2.4l53.9-16.6L85.7,73.6z M26.1,92l0-0.1c0.1,0,0.1,0.1,0.2,0.1L26.1,92z"/>
		
			<ellipse transform="matrix(-0.9557 0.2945 -0.2945 -0.9557 122.8498 118.1543)" class="st20" cx="52.5" cy="68.3" rx="9" ry="12.2"/>
	</g>
	<g>
		<path class="st19" d="M242,69.1l-66.9,14.4c-0.5,0.1-1.1-0.2-1.2-0.8l-8.1-37.5c-0.1-0.5,0.2-1.1,0.8-1.2l66.9-14.4
			c0.5-0.1,1.1,0.2,1.2,0.8l8.1,37.5C242.9,68.4,242.5,68.9,242,69.1z"/>
		<path class="st20" d="M229.4,33.9l-2.4,0.5c-0.1,0-0.3,0-0.4,0c-0.1,0-0.2,0.1-0.4,0.1L168,47.2c-1.2,0.3-2,1.5-1.7,2.7l6.2,29
			c0.3,1.2,1.5,2,2.7,1.7l61.4-13.2c1.2-0.3,2-1.5,1.7-2.7l-6.2-29C231.8,34.5,230.6,33.7,229.4,33.9z M168.8,49.6l55.1-11.9
			c-0.2,0.8-0.2,1.8,0,2.7c0.6,2.8,2.8,4.8,4.9,4.3c1-0.2,1.8-0.9,2.3-1.9l3.1,14.5c-0.9-0.7-1.9-1-2.9-0.8
			c-2.1,0.4-3.3,3.1-2.7,5.9c0.3,1.6,1.2,2.8,2.2,3.6l-56,12.1L168.8,49.6z M235.7,64.9c0-0.1,0.1-0.1,0.1-0.2l0,0.1L235.7,64.9z"/>
		<ellipse transform="matrix(0.9776 -0.2107 0.2107 0.9776 -7.5301 43.6716)" class="st20" cx="201.2" cy="57.2" rx="9" ry="12.2"/>
	</g>
	<g>
		<path class="st19" d="M246.9,51.6l-64.2,23.7c-0.5,0.2-1.1-0.1-1.3-0.6l-13.3-36c-0.2-0.5,0.1-1.1,0.6-1.3l64.2-23.7
			c0.5-0.2,1.1,0.1,1.3,0.6l13.3,36C247.6,50.8,247.4,51.4,246.9,51.6z"/>
		<path class="st20" d="M229.5,18.6l-2.3,0.9c-0.1,0-0.3,0-0.4,0.1c-0.1,0-0.2,0.1-0.3,0.2l-55.9,20.6c-1.2,0.4-1.8,1.7-1.3,2.9
			L179.5,71c0.4,1.2,1.7,1.8,2.9,1.3l59-21.7c1.2-0.4,1.8-1.7,1.3-2.9l-10.2-27.8C232,18.8,230.7,18.2,229.5,18.6z M171.6,42.6
			l52.9-19.5c-0.1,0.9,0.1,1.8,0.4,2.7c1,2.7,3.4,4.3,5.4,3.6c0.9-0.3,1.6-1.2,2-2.2l5.1,13.9c-0.9-0.6-2-0.8-2.9-0.4
			c-2,0.7-2.8,3.5-1.8,6.2c0.6,1.5,1.6,2.6,2.7,3.3l-53.7,19.8L171.6,42.6z M240.1,48.4c0-0.1,0.1-0.1,0.1-0.2l0.1,0.1L240.1,48.4z"
			/>
		<ellipse transform="matrix(0.9383 -0.3458 0.3458 0.9383 -3.1193 73.6408)" class="st20" cx="204.8" cy="45.6" rx="9" ry="12.2"/>
	</g>
	<g>
		<path class="st19" d="M246.9,51.6l-64.2,23.7c-0.5,0.2-1.1-0.1-1.3-0.6l-13.3-36c-0.2-0.5,0.1-1.1,0.6-1.3l64.2-23.7
			c0.5-0.2,1.1,0.1,1.3,0.6l13.3,36C247.6,50.8,247.4,51.4,246.9,51.6z"/>
		<path class="st20" d="M229.5,18.6l-2.3,0.9c-0.1,0-0.3,0-0.4,0.1c-0.1,0-0.2,0.1-0.3,0.2l-55.9,20.6c-1.2,0.4-1.8,1.7-1.3,2.9
			L179.5,71c0.4,1.2,1.7,1.8,2.9,1.3l59-21.7c1.2-0.4,1.8-1.7,1.3-2.9l-10.2-27.8C232,18.8,230.7,18.2,229.5,18.6z M171.6,42.6
			l52.9-19.5c-0.1,0.9,0.1,1.8,0.4,2.7c1,2.7,3.4,4.3,5.4,3.6c0.9-0.3,1.6-1.2,2-2.2l5.1,13.9c-0.9-0.6-2-0.8-2.9-0.4
			c-2,0.7-2.8,3.5-1.8,6.2c0.6,1.5,1.6,2.6,2.7,3.3l-53.7,19.8L171.6,42.6z M240.1,48.4c0-0.1,0.1-0.1,0.1-0.2l0.1,0.1L240.1,48.4z"
			/>
		<ellipse transform="matrix(0.9383 -0.3458 0.3458 0.9383 -3.1193 73.6408)" class="st20" cx="204.8" cy="45.6" rx="9" ry="12.2"/>
	</g>
	<g>
		<path class="st19" d="M9.1,77.6l67.3,12.5c0.5,0.1,1.1-0.3,1.2-0.8l7-37.7c0.1-0.5-0.3-1.1-0.8-1.2L16.5,37.9
			c-0.5-0.1-1.1,0.3-1.2,0.8l-7,37.7C8.2,77,8.6,77.5,9.1,77.6z"/>
		<path class="st20" d="M18.1,44l-5.4,29.1c-0.2,1.2,0.6,2.4,1.8,2.6l61.8,11.5c1.2,0.2,2.4-0.6,2.6-1.8l5.4-29.1
			c0.2-1.2-0.6-2.4-1.8-2.6L23.9,42.8c-0.1,0-0.2-0.1-0.4-0.1c-0.1,0-0.3,0-0.4,0l-2.4-0.5C19.5,41.9,18.3,42.8,18.1,44z M76.4,84.7
			L20.2,74.2c1-0.8,1.8-2.1,2.1-3.7c0.5-2.8-0.7-5.5-2.8-5.9c-1-0.2-2,0.2-2.8,0.9l2.7-14.5c0.5,1,1.3,1.7,2.3,1.9
			c2.1,0.4,4.2-1.6,4.8-4.4c0.2-1,0.1-1.9-0.1-2.7l55.5,10.3L76.4,84.7z M15.2,73.3l0-0.1c0,0.1,0.1,0.1,0.1,0.2L15.2,73.3z"/>
		
			<ellipse transform="matrix(-0.9832 -0.1827 0.1827 -0.9832 86.4459 137.1565)" class="st20" cx="49.5" cy="64.6" rx="9" ry="12.2"/>
	</g>
	<g>
		<path class="st19" d="M3.8,60.3l64.9,21.8c0.5,0.2,1.1-0.1,1.3-0.6l12.2-36.4c0.2-0.5-0.1-1.1-0.6-1.3L16.6,22
			c-0.5-0.2-1.1,0.1-1.3,0.6L3.1,59.1C3,59.6,3.2,60.1,3.8,60.3z"/>
		<path class="st20" d="M17.3,28.3L7.9,56.3c-0.4,1.2,0.2,2.5,1.4,2.9l59.5,20c1.2,0.4,2.5-0.2,2.9-1.4l9.4-28.1
			c0.4-1.2-0.2-2.5-1.4-2.9l-56.5-19c-0.1-0.1-0.2-0.1-0.4-0.2c-0.1,0-0.3,0-0.4-0.1l-2.3-0.8C19,26.4,17.7,27.1,17.3,28.3z
			 M69.4,76.8L15.2,58.5c1.1-0.6,2.1-1.8,2.6-3.3c0.9-2.7,0-5.5-2-6.2c-1-0.3-2-0.1-2.9,0.5l4.7-14c0.4,1,1.1,1.8,2,2.2
			c2,0.7,4.4-1,5.3-3.7c0.3-0.9,0.4-1.9,0.3-2.7l53.5,18L69.4,76.8z M10.3,56.9l0-0.1c0,0.1,0.1,0.1,0.1,0.2L10.3,56.9z"/>
		
			<ellipse transform="matrix(-0.9478 -0.3189 0.3189 -0.9478 71.8811 117.9417)" class="st20" cx="45.6" cy="53.1" rx="9" ry="12.2"/>
	</g>
	<g>
		<path class="st19" d="M3.8,58.8l64.9,21.8c0.5,0.2,1.1-0.1,1.3-0.6l12.2-36.4c0.2-0.5-0.1-1.1-0.6-1.3L16.6,20.5
			c-0.5-0.2-1.1,0.1-1.3,0.6L3.1,57.5C3,58.1,3.2,58.6,3.8,58.8z"/>
		<path class="st20" d="M17.3,26.7L7.9,54.8c-0.4,1.2,0.2,2.5,1.4,2.9l59.5,20c1.2,0.4,2.5-0.2,2.9-1.4l9.4-28.1
			c0.4-1.2-0.2-2.5-1.4-2.9l-56.5-19c-0.1-0.1-0.2-0.1-0.4-0.2c-0.1,0-0.3,0-0.4-0.1l-2.3-0.8C19,24.9,17.7,25.6,17.3,26.7z
			 M69.4,75.2L15.2,57c1.1-0.6,2.1-1.8,2.6-3.3c0.9-2.7,0-5.5-2-6.2c-1-0.3-2-0.1-2.9,0.5l4.7-14c0.4,1,1.1,1.8,2,2.2
			c2,0.7,4.4-1,5.3-3.7c0.3-0.9,0.4-1.9,0.3-2.7l53.5,18L69.4,75.2z M10.3,55.4l0-0.1c0,0.1,0.1,0.1,0.1,0.2L10.3,55.4z"/>
		
			<ellipse transform="matrix(-0.9478 -0.3189 0.3189 -0.9478 72.363 114.9982)" class="st20" cx="45.6" cy="51.6" rx="9" ry="12.2"/>
	</g>
	<path class="st23" d="M198.8,114.8H50.2c-1.1,0-2-0.9-2-2V3.9c0-1.1,0.9-2,2-2h148.6c1.1,0,2,0.9,2,2v108.9
		C200.8,113.9,199.9,114.8,198.8,114.8z"/>
	<path class="st19" d="M48.2,15.3V3.9c0-1.1,0.9-2,2-2h148.6c1.1,0,2,0.9,2,2v11.5H48.2z"/>
	<g>
		<circle class="st30" cx="122" cy="45" r="2.5"/>
		<circle class="st31" cx="136.3" cy="50.6" r="3.5"/>
		<circle class="st32" cx="141.3" cy="67.1" r="4.5"/>
		<circle class="st33" cx="107.9" cy="75.7" r="6.5"/>
		<circle class="st34" cx="128.5" cy="82.2" r="5.5"/>
		<circle class="st29" cx="106.4" cy="56.1" r="7.5"/>
	</g>
	<g>
		<path class="st37" d="M229.8,14.8c0,4.3-3.5,7.8-7.8,7.8c-4.3,0-7.8-3.5-7.8-7.8s6.8-10.7,7.8-10.7C223,4.2,229.8,10.5,229.8,14.8
			z"/>
		<path class="st38" d="M226.6,18.1c0,2.5-2,4.5-4.5,4.5c-2.5,0-4.5-2-4.5-4.5s4-6.2,4.5-6.2C222.6,11.9,226.6,15.6,226.6,18.1z"/>
	</g>
	<g>
		<path class="st37" d="M35,21.9c0,4.3-3.5,7.8-7.8,7.8s-7.8-3.5-7.8-7.8s6.8-10.7,7.8-10.7C28.1,11.3,35,17.6,35,21.9z"/>
		<path class="st38" d="M31.7,25.2c0,2.5-2,4.5-4.5,4.5s-4.5-2-4.5-4.5s4-6.2,4.5-6.2C27.8,19,31.7,22.7,31.7,25.2z"/>
	</g>
	<g>
		<path class="st37" d="M10.5,43.8c0,2.9-2.3,5.2-5.2,5.2S0,46.7,0,43.8c0-2.9,4.6-7.2,5.2-7.2S10.5,40.9,10.5,43.8z"/>
		<path class="st38" d="M8.3,46c0,1.7-1.4,3-3,3s-3-1.4-3-3s2.7-4.2,3-4.2S8.3,44.3,8.3,46z"/>
	</g>
	<g>
		<path class="st37" d="M246.5,33.1c0,3.2-2.6,5.8-5.8,5.8s-5.8-2.6-5.8-5.8s5.1-7.9,5.8-7.9C241.5,25.2,246.5,29.9,246.5,33.1z"/>
		<path class="st38" d="M244.1,35.5c0,1.9-1.5,3.4-3.4,3.4c-1.9,0-3.4-1.5-3.4-3.4s3-4.6,3.4-4.6C241.2,30.9,244.1,33.7,244.1,35.5z
			"/>
	</g>
	<g>
		<path class="st37" d="M227.4,58c0,4.8-3.9,8.8-8.8,8.8s-8.8-3.9-8.8-8.8s7.7-12,8.8-12C219.7,45.9,227.4,53.1,227.4,58z"/>
		<path class="st38" d="M223.8,61.6c0,2.8-2.3,5.1-5.1,5.1c-2.8,0-5.1-2.3-5.1-5.1s4.5-7,5.1-7C219.3,54.6,223.8,58.8,223.8,61.6z"
			/>
	</g>
	<g>
		<path class="st37" d="M37.7,83.2c0,2.9-2.3,5.2-5.2,5.2s-5.2-2.3-5.2-5.2c0-2.9,4.6-7.2,5.2-7.2C33.1,76,37.7,80.3,37.7,83.2z"/>
		<path class="st38" d="M35.5,85.4c0,1.7-1.4,3-3,3c-1.7,0-3-1.4-3-3s2.7-4.2,3-4.2S35.5,83.7,35.5,85.4z"/>
	</g>
	<circle class="st40" cx="55.5" cy="8.9" r="2.3"/>
	<circle class="st40" cx="62.7" cy="8.9" r="2.3"/>
	<circle class="st40" cx="69.8" cy="8.9" r="2.3"/>
</g>
</svg>
