<svg id="Layer_1" data-name="Layer 1" xmlns="http://www.w3.org/2000/svg" viewBox="0 0 330 320"><defs><style>.cls-1,.cls-11,.cls-4{fill:#fff;}.cls-1,.cls-11{stroke:#fff;}.cls-1,.cls-5{stroke-miterlimit:10;}.cls-1{stroke-width:5.69px;}.cls-2,.cls-5{fill:none;stroke:#6ac9d0;}.cls-10,.cls-11,.cls-12,.cls-2,.cls-3{stroke-linejoin:round;}.cls-2{stroke-width:4px;opacity:0.6;}.cls-10,.cls-12,.cls-3,.cls-8{fill:#083b54;}.cls-10,.cls-12,.cls-3{stroke:#083b54;stroke-linecap:round;}.cls-3{stroke-width:2.67px;}.cls-5{stroke-width:4px;opacity:0.3;}.cls-6{fill:#6ac9d0;}.cls-7{fill:#ef5034;}.cls-9{fill:#f59122;}.cls-10{stroke-width:2.6px;}.cls-11{stroke-width:4.68px;}.cls-12{stroke-width:2.68px;}</style></defs><title>ipfs-illustrations-how-4</title><path class="cls-1" d="M37.15,50.81A27.38,27.38,0,0,0,18,85L18,85.22a27.51,27.51,0,0,0,34.55,18.89,26.74,26.74,0,0,0,11.52-6.39c3.3,0,20.45,4,20.45,4S73.05,88.14,72,84.43A27.8,27.8,0,0,0,71.69,70l-0.06-.19a27.5,27.5,0,0,0-34.47-19h0Z"/><path class="cls-2" d="M37.15,50.81A27.38,27.38,0,0,0,18,85L18,85.22a27.51,27.51,0,0,0,34.55,18.89,26.74,26.74,0,0,0,11.52-6.39c3.3,0,20.45,4,20.45,4S73.05,88.14,72,84.43A27.8,27.8,0,0,0,71.69,70l-0.06-.19a27.5,27.5,0,0,0-34.47-19h0Z"/><path class="cls-3" d="M36.32,67.25a9.44,9.44,0,0,1,1.87-3.18,8.28,8.28,0,0,1,3-2.09,9.85,9.85,0,0,1,3.92-.74,10.71,10.71,0,0,1,3.56.58,8,8,0,0,1,2.77,1.64,7.29,7.29,0,0,1,1.8,2.61,9.11,9.11,0,0,1,.63,3.55,7.9,7.9,0,0,1-.32,2.31,8.3,8.3,0,0,1-.82,1.85,9.61,9.61,0,0,1-1.15,1.54q-0.65.71-1.32,1.37t-1.32,1.27a10.9,10.9,0,0,0-1.17,1.37,6.63,6.63,0,0,0-.84,1.58,5.62,5.62,0,0,0-.32,1.94v0A1.6,1.6,0,0,1,45,84.46H44.64A1.6,1.6,0,0,1,43,82.85V82.49a8.07,8.07,0,0,1,.66-3,9.45,9.45,0,0,1,1.38-2.18,18.76,18.76,0,0,1,1.72-1.77,19.33,19.33,0,0,0,1.67-1.7,7.51,7.51,0,0,0,1.24-2,5.9,5.9,0,0,0,.38-2.63,5.38,5.38,0,0,0-1.47-3.59,4.86,4.86,0,0,0-3.56-1.31,5.73,5.73,0,0,0-2.59.53,5.33,5.33,0,0,0-1.82,1.45,5.85,5.85,0,0,0-1.07,2.16,9.56,9.56,0,0,0-.25,1.3,1.6,1.6,0,0,1-1.59,1.4H37.39a1.61,1.61,0,0,1-1.59-1.81A10.55,10.55,0,0,1,36.32,67.25ZM47.05,91.37v0.35a2.14,2.14,0,0,1-2.15,2.13H44.55a2.14,2.14,0,0,1-2.13-2.15V91.35a2.14,2.14,0,0,1,2.15-2.13h0.35A2.14,2.14,0,0,1,47.05,91.37Z"/><path class="cls-4" d="M168.85,181.55a26.73,26.73,0,0,0-30.62,23l0,0.19a27,27,0,0,0,1.7,13.91c-0.56,3.73-9.78,18.31-9.78,18.31s16-6.16,19.15-6.58a26,26,0,0,0,12,4.59,26.74,26.74,0,0,0,30.71-22.86l0-.2a26.61,26.61,0,0,0-23.1-30.34h0Z"/><line class="cls-5" x1="119.5" y1="245.73" x2="35.67" y2="195.6"/><polyline class="cls-5" points="193.39 143.26 99.52 109.2 119.5 245.73"/><circle class="cls-6" cx="35.67" cy="195.6" r="12.41"/><line class="cls-5" x1="119.5" y1="245.73" x2="61.77" y2="288.42"/><circle class="cls-6" cx="61.77" cy="288.42" r="12.41" transform="translate(-227.19 229.25) rotate(-66.34)"/><circle class="cls-7" cx="193.39" cy="143.26" r="16.04"/><circle class="cls-8" cx="97.93" cy="108.76" r="12.41"/><circle class="cls-9" cx="119.5" cy="245.73" r="12.41"/><path class="cls-2" d="M168.85,181.55a26.73,26.73,0,0,0-30.62,23l0,0.19a27,27,0,0,0,1.7,13.91c-0.56,3.73-9.78,18.31-9.78,18.31s16-6.16,19.15-6.58a26,26,0,0,0,12,4.59,26.74,26.74,0,0,0,30.71-22.86l0-.2a26.61,26.61,0,0,0-23.1-30.34h0Z"/><path class="cls-10" d="M155.52,199.57a9.18,9.18,0,0,1,1.37-3.32,8.05,8.05,0,0,1,2.57-2.42,9.58,9.58,0,0,1,3.68-1.24,10.42,10.42,0,0,1,3.51.07,7.77,7.77,0,0,1,2.88,1.2,7.08,7.08,0,0,1,2.09,2.27,8.86,8.86,0,0,1,1.09,3.33,7.68,7.68,0,0,1,0,2.27,8.07,8.07,0,0,1-.54,1.89,9.35,9.35,0,0,1-.9,1.64q-0.53.77-1.08,1.5t-1.1,1.4a10.6,10.6,0,0,0-.94,1.48,6.44,6.44,0,0,0-.59,1.64,5.46,5.46,0,0,0,0,1.91v0a1.56,1.56,0,0,1-1.33,1.76l-0.32,0a1.56,1.56,0,0,1-1.76-1.33l0-.34a7.85,7.85,0,0,1,.23-3,9.19,9.19,0,0,1,1-2.29,18.24,18.24,0,0,1,1.41-1.93,18.8,18.8,0,0,0,1.38-1.87,7.3,7.3,0,0,0,.92-2.07,5.74,5.74,0,0,0,0-2.58,5.23,5.23,0,0,0-1.9-3.26,4.73,4.73,0,0,0-3.6-.77,5.57,5.57,0,0,0-2.42.86,5.18,5.18,0,0,0-1.55,1.64,5.69,5.69,0,0,0-.74,2.23,9.29,9.29,0,0,0-.07,1.29,1.56,1.56,0,0,1-1.34,1.57l-0.34,0a1.56,1.56,0,0,1-1.77-1.52A10.26,10.26,0,0,1,155.52,199.57Zm13.59,21.77,0,0.34a2.08,2.08,0,0,1-1.78,2.34l-0.34,0a2.08,2.08,0,0,1-2.34-1.78l0-.34a2.08,2.08,0,0,1,1.78-2.34l0.34,0A2.08,2.08,0,0,1,169.11,221.34Z"/><path class="cls-11" d="M263.17,19.2C233.5,18.28,210.86,40.86,210,69l0,0.37a51.39,51.39,0,0,0,6.08,25.94c-0.28,7.16-11.2,34.3-11.2,34.3s25.4-12.61,31.33-14.06c6.75,4,14.86,5.94,23.55,6.21,29.85,0.93,52.49-21.65,53.31-49.56V71.77c0.81-28.09-20.3-51.65-49.95-52.57h0Z"/><path class="cls-2" d="M263.17,19.2C233.5,18.28,210.86,40.86,210,69l0,0.37a51.39,51.39,0,0,0,6.08,25.94c-0.28,7.16-11.2,34.3-11.2,34.3s25.4-12.61,31.33-14.06c6.75,4,14.86,5.94,23.55,6.21,29.85,0.93,52.49-21.65,53.31-49.56V71.77c0.81-28.09-20.3-51.65-49.95-52.57h0Z"/><path class="cls-12" d="M274.7,53.49a14.58,14.58,0,0,1,3.59-4.43,12.79,12.79,0,0,1,5-2.51,15.22,15.22,0,0,1,6.16-.21A16.55,16.55,0,0,1,294.77,48a12.35,12.35,0,0,1,3.84,3.14,11.26,11.26,0,0,1,2.15,4.41,14.08,14.08,0,0,1,.14,5.56,12.2,12.2,0,0,1-1,3.46,12.82,12.82,0,0,1-1.68,2.64,14.85,14.85,0,0,1-2.12,2.08q-1.16.93-2.33,1.79t-2.31,1.63a16.84,16.84,0,0,0-2.11,1.82,10.23,10.23,0,0,0-1.65,2.22,8.68,8.68,0,0,0-.94,2.88v0a2.48,2.48,0,0,1-2.83,2.07l-0.51-.08a2.48,2.48,0,0,1-2.07-2.83l0.08-.54a12.46,12.46,0,0,1,1.69-4.4,14.6,14.6,0,0,1,2.62-3,29,29,0,0,1,3-2.3,29.86,29.86,0,0,0,3-2.21,11.6,11.6,0,0,0,2.35-2.73,9.12,9.12,0,0,0,1.2-3.92,8.31,8.31,0,0,0-1.41-5.82,7.51,7.51,0,0,0-5.13-2.82,8.85,8.85,0,0,0-4.07.21,8.23,8.23,0,0,0-3.11,1.8,9,9,0,0,0-2.14,3.06,14.77,14.77,0,0,0-.69,1.92A2.47,2.47,0,0,1,276,59.87l-0.53-.08a2.48,2.48,0,0,1-2-3.13A16.3,16.3,0,0,1,274.7,53.49ZM285.49,92.8l-0.08.54a3.3,3.3,0,0,1-3.77,2.76L281.1,96a3.3,3.3,0,0,1-2.75-3.77l0.08-.54A3.3,3.3,0,0,1,282.2,89L282.74,89A3.3,3.3,0,0,1,285.49,92.8Z"/><path class="cls-8" d="M245.86,78.92s0.08-.4.18-1a20,20,0,0,0,.2-2.39,15,15,0,0,0-.21-3,4.71,4.71,0,0,0-1-2.34,2.44,2.44,0,0,0-.2-0.2s-0.08-.06,0,0l-0.11-.07-0.22-.13a3.57,3.57,0,0,0-.55-0.28,1.94,1.94,0,0,0-1-.15,2.33,2.33,0,0,0-1.09.53,5.45,5.45,0,0,0-1,1,9.91,9.91,0,0,0-1.13,2.1c-0.23.56-.34,0.91-0.34,0.91a5.91,5.91,0,0,1-.23-1,7.28,7.28,0,0,1,.11-2.72,6,6,0,0,1,.75-1.82,4.42,4.42,0,0,1,4.69-2.08,6.07,6.07,0,0,1,1.37.42l0.24,0.11,0.12,0.05L246.63,67a5.22,5.22,0,0,1,.65.4,5.88,5.88,0,0,1,1.07,1.06,6.83,6.83,0,0,1,.71,1.24,7.05,7.05,0,0,1,.52,2.5,8,8,0,0,1-1,4,6.49,6.49,0,0,1-1.83,2.16,3.68,3.68,0,0,1-.67.42Z"/><path class="cls-8" d="M251.51,76.72l0.2-.53a7.65,7.65,0,0,0,.29-1.52,14.81,14.81,0,0,0-.71-5.36,16.33,16.33,0,0,0-1.4-3.24,10.67,10.67,0,0,0-2.33-2.91,6.64,6.64,0,0,0-3.29-1.57,9,9,0,0,0-1.91,0c-0.31,0-.7.09-0.95,0.16l-0.57.15-0.4.15a6.59,6.59,0,0,0-2.95,2.32A9.73,9.73,0,0,0,236,68a14.23,14.23,0,0,0-.27,3.91,17.81,17.81,0,0,0,.53,3.58,20.82,20.82,0,0,0,2,5.15c0.33,0.59.6,1.06,0.81,1.36l0.31,0.48L239,82.06a15,15,0,0,1-1.13-1.16,17.88,17.88,0,0,1-3-5,19.57,19.57,0,0,1-1.1-3.82,16.39,16.39,0,0,1-.12-4.53,11.53,11.53,0,0,1,1.65-4.77A9.58,9.58,0,0,1,237,60.72a9.32,9.32,0,0,1,2.4-1.44l0.7-.26,0.57-.16c0.51-.13.9-0.19,1.36-0.26a8.94,8.94,0,0,1,7.43,2.48,12.11,12.11,0,0,1,2.63,3.9,15.34,15.34,0,0,1,1.08,3.91,12.5,12.5,0,0,1-.49,5.92,6.07,6.07,0,0,1-.78,1.47C251.65,76.58,251.51,76.72,251.51,76.72Z"/><path class="cls-8" d="M232.59,59.4s0-.38,0-1c0-.16,0-0.34,0-0.53s0.1-.41.17-0.64l0.22-.75c0.1-.25.23-0.49,0.35-0.76a8.15,8.15,0,0,1,1-1.61,5.86,5.86,0,0,1,.7-0.78,6.83,6.83,0,0,1,.81-0.74,10.62,10.62,0,0,1,1.92-1.25,6.46,6.46,0,0,1,1.07-.49c0.37-.13.73-0.3,1.11-0.4l1.14-.28c0.38-.09.77-0.11,1.15-0.17l0.57-.07h0.57c0.38,0,.75,0,1.11,0a12.93,12.93,0,0,1,2.07.32l0.93,0.25,0.84,0.33a7.7,7.7,0,0,1,1.39.71,5.2,5.2,0,0,1,1,.68c0.51,0.42.77,0.69,0.77,0.69s-0.39,0-1-.15a10.19,10.19,0,0,0-1.11-.15A13,13,0,0,0,248,52.5l-0.79,0-0.84,0c-0.57,0-1.17.07-1.78,0.09s-1.24.13-1.86,0.28c-0.31.07-.63,0.12-0.94,0.19l-0.93.25a9.13,9.13,0,0,0-.91.3,6.5,6.5,0,0,0-.88.34c-0.28.13-.58,0.24-0.85,0.37s-0.53.29-.8,0.43a7.75,7.75,0,0,0-.75.46,5.82,5.82,0,0,0-.7.48,10.39,10.39,0,0,0-1.2,1l-0.53.5-0.42.49c-0.14.16-.26,0.31-0.39,0.45s-0.21.31-.3,0.44C232.83,59.1,232.59,59.4,232.59,59.4Z"/><path class="cls-8" d="M246.4,87.7s-0.59.3-1.63,0.74a12.74,12.74,0,0,1-2.11.48c-0.42,0-.86,0-1.34,0-0.24,0-.49,0-0.74,0l-0.76-.15a11.14,11.14,0,0,1-3.23-1.1c-0.52-.3-1.08-0.6-1.6-1s-1-.78-1.51-1.21-0.94-.92-1.39-1.42-0.85-1-1.25-1.58-0.76-1.13-1.11-1.71-0.65-1.2-.95-1.81-0.54-1.25-.78-1.89-0.44-1.28-.61-1.93a20.46,20.46,0,0,1-.67-3.92,17.19,17.19,0,0,1,0-1.89c0-.61.07-1.23,0.14-1.8a19.59,19.59,0,0,1,.66-3.19,15.63,15.63,0,0,1,2-4.39,10,10,0,0,1,.8-1.07l0.31-.35-0.12.45c-0.09.29-.19,0.72-0.31,1.26a26.94,26.94,0,0,0-.56,4.46c0,0.92,0,1.9,0,2.94,0,0.53.07,1,.13,1.57s0.15,1.06.24,1.62a27.19,27.19,0,0,0,.85,3.28c0.18,0.55.42,1.09,0.6,1.65s0.47,1.08.7,1.63,0.53,1.05.79,1.58l0.88,1.51,1,1.41,1,1.29c0.35,0.41.74,0.76,1.09,1.15s0.78,0.65,1.15,1a11.7,11.7,0,0,0,2.36,1.43L241,87l0.58,0.17c0.38,0.11.76,0.25,1.11,0.32,0.7,0.05,1.33.23,1.9,0.22C245.74,87.68,246.4,87.7,246.4,87.7Z"/><path class="cls-8" d="M260.4,66.6a11.31,11.31,0,0,1,.86,2,18.07,18.07,0,0,1,1,5.7,17.1,17.1,0,0,1-1.89,8.2,17.41,17.41,0,0,1-2.82,4c-0.27.29-.6,0.63-0.87,0.88s-0.54.52-.86,0.79c-0.62.55-1.23,1.06-1.86,1.56a37.94,37.94,0,0,1-8.06,4.75c-2.71,1.19-5.3,2-7.46,2.73a23.4,23.4,0,0,0-5,2.13,8.61,8.61,0,0,0-1.21.93l-0.39.4,0.22-.52a6.73,6.73,0,0,1,.89-1.36,16.66,16.66,0,0,1,4.57-3.52c2-1.2,4.43-2.38,6.87-3.75a55.57,55.57,0,0,0,7.24-4.74c0.58-.45,1.15-0.91,1.68-1.37,0.27-.22.55-0.5,0.84-0.74s0.51-.46.77-0.71a17.78,17.78,0,0,0,2.53-3.08,19.26,19.26,0,0,0,2.63-6.73,27.05,27.05,0,0,0,.44-5.39C260.49,67.38,260.4,66.6,260.4,66.6Z"/><path class="cls-8" d="M264.37,81l0.09,0.38c0,0.25.15,0.6,0.21,1.07a10.28,10.28,0,0,1,.06,1.75,11,11,0,0,1-.31,2.27,12.39,12.39,0,0,1-1,2.58,13.83,13.83,0,0,1-1.7,2.58,16.45,16.45,0,0,1-2.31,2.31,22,22,0,0,1-2.72,1.92,29.29,29.29,0,0,1-11.27,3.69,28.47,28.47,0,0,1-3.88.18c-0.94,0-1.48-.09-1.48-0.09s0.49-.23,1.35-0.59l3.5-1.46a81,81,0,0,0,10-4.73c0.83-.51,1.66-1,2.42-1.58,0.39-.27.74-0.58,1.12-0.85s0.7-.59,1-0.9a16.88,16.88,0,0,0,1.75-1.87,15.14,15.14,0,0,0,1.31-1.91,15.32,15.32,0,0,0,.89-1.81c0.25-.57.38-1.07,0.55-1.5C264.22,81.5,264.37,81,264.37,81Z"/><path class="cls-8" d="M264.91,75.33s0-.79-0.06-2.17l-0.15-2.44c-0.09-.94-0.19-2-0.37-3.11-0.06-.56-0.2-1.14-0.32-1.73s-0.27-1.2-.43-1.82a28.19,28.19,0,0,0-1.31-3.75,25.59,25.59,0,0,0-2-3.67,22.64,22.64,0,0,0-2.72-3.27,20.37,20.37,0,0,0-3.34-2.6A18.36,18.36,0,0,0,250.5,49a18,18,0,0,0-3.78-.91,19,19,0,0,0-3.54-.13l-0.81.06-0.77.11a13.37,13.37,0,0,0-1.44.25,19.82,19.82,0,0,0-2.32.66c-0.64.21-1.14,0.42-1.48,0.57l-0.53.21,0.42-.38a10.79,10.79,0,0,1,1.27-1,13.46,13.46,0,0,1,2.2-1.3A14.56,14.56,0,0,1,242.88,46c0.6-.17,1.24-0.25,1.91-0.37a17.61,17.61,0,0,1,2.09-.12,17,17,0,0,1,4.51.55,17.85,17.85,0,0,1,4.54,1.81,20.36,20.36,0,0,1,4.06,3,22,22,0,0,1,3.14,3.95,22.34,22.34,0,0,1,2,4.39,23,23,0,0,1,1,4.35,22.47,22.47,0,0,1,.19,3.94,25.09,25.09,0,0,1-.29,3.28c-0.15,1-.35,1.8-0.5,2.48C265.16,74.58,264.91,75.33,264.91,75.33Z"/><path class="cls-8" d="M263.09,49.95l-0.48-.44c-0.31-.28-0.76-0.73-1.37-1.21A26.17,26.17,0,0,0,259,46.65,25.12,25.12,0,0,0,255.87,45a16.34,16.34,0,0,0-1.88-.72c-0.65-.25-1.35-0.41-2.05-0.61a26,26,0,0,0-4.54-.57,23.29,23.29,0,0,0-4.82.46,18.46,18.46,0,0,0-4.7,1.62,18.07,18.07,0,0,0-4.17,2.69,21.19,21.19,0,0,0-3.34,3.52c-0.51.61-.87,1.31-1.33,1.93s-0.77,1.32-1.1,2a34.5,34.5,0,0,0-1.59,3.89c-0.19.63-.39,1.23-0.55,1.81l-0.42,1.66c-0.23,1.05-.4,2-0.56,2.76-0.22,1.55-.37,2.45-0.37,2.45s-0.1-.89-0.22-2.49c0-.79,0-1.77,0-2.88l0.14-1.78c0.06-.63.2-1.28,0.31-2a25.12,25.12,0,0,1,1.21-4.35c0.28-.75.64-1.51,1-2.29a21.23,21.23,0,0,1,1.33-2.26,20.21,20.21,0,0,1,3.6-4.18,20.79,20.79,0,0,1,4.76-3.19A21.41,21.41,0,0,1,242,40.68a21.06,21.06,0,0,1,10.53.81,20.23,20.23,0,0,1,4.11,2,18.54,18.54,0,0,1,1.66,1.13c0.51,0.39.95,0.8,1.38,1.17a18.39,18.39,0,0,1,2,2.15,13,13,0,0,1,1.06,1.51Z"/><path class="cls-8" d="M256.33,74.87s0,0.38-.05,1a10,10,0,0,1-.69,2.7,9.8,9.8,0,0,1-.89,1.69A9.25,9.25,0,0,1,253.29,82,8.94,8.94,0,0,1,249,84.24a7.56,7.56,0,0,1-5-.64A5.79,5.79,0,0,1,242.12,82a4.62,4.62,0,0,1-.89-2,4.54,4.54,0,0,1,0-1.73,4.6,4.6,0,0,1,.4-1.19,3.87,3.87,0,0,1,.4-0.67l0.16-.22v0.27a7.38,7.38,0,0,0,0,.74,7.07,7.07,0,0,0,.16,1.07,4.36,4.36,0,0,0,.5,1.17,3.94,3.94,0,0,0,2.21,1.68,5.72,5.72,0,0,0,1.6.27,7,7,0,0,0,1.71-.15,8.6,8.6,0,0,0,1.69-.54,10.06,10.06,0,0,0,1.55-.86,13.34,13.34,0,0,0,2.5-2.22c0.35-.37.64-0.76,0.92-1.09s0.5-.63.68-0.91C256.09,75.16,256.33,74.87,256.33,74.87Z"/><path class="cls-8" d="M237.3,92.34a4.7,4.7,0,0,1-.91,0,8.1,8.1,0,0,1-1-.1A10.08,10.08,0,0,1,234,92a12,12,0,0,1-1.51-.54,13.51,13.51,0,0,1-1.59-.84,11.65,11.65,0,0,1-1.56-1.15,11.81,11.81,0,0,1-1.43-1.41,13.35,13.35,0,0,1-1.2-1.61,12.37,12.37,0,0,1-1.5-3.41,9.16,9.16,0,0,1-.31-1.57,7.47,7.47,0,0,1-.11-1.34c0-.4,0-0.75,0-1a8.77,8.77,0,0,1,.1-0.89s0.2,0.28.48,0.77c0.14,0.24.31,0.53,0.48,0.87s0.42,0.69.64,1.08,0.43,0.83.74,1.24,0.54,0.88.85,1.32,0.62,0.9,1,1.33,0.66,0.91,1.07,1.3,0.74,0.85,1.14,1.24,0.79,0.78,1.18,1.16c0.8,0.72,1.57,1.4,2.29,2s1.33,1,1.77,1.37Z"/><path class="cls-8" d="M256.68,71s0-.43,0-1.18c0-.37-0.08-0.81-0.1-1.28s-0.17-1-.23-1.61L256.1,66a6.47,6.47,0,0,0-.26-0.93c-0.11-.31-0.18-0.64-0.3-1s-0.26-.64-0.39-1-0.32-.63-0.47-1l-0.24-.48-0.29-.45a13.8,13.8,0,0,0-1.28-1.72,11.69,11.69,0,0,0-1.59-1.38,13.48,13.48,0,0,0-1.77-1.07c-0.32-.12-0.64-0.23-1-0.36a4.54,4.54,0,0,0-.94-0.31l-0.93-.24a3.77,3.77,0,0,0-.9-0.19c-0.59-.07-1.13-0.16-1.63-0.25s-0.93-.05-1.3-0.08c-0.73-.06-1.17-0.12-1.17-0.12s0.38-.19,1.08-0.47c0.35-.13.78-0.31,1.29-0.47s1.1-.23,1.76-0.33a10.79,10.79,0,0,1,2.16-.08,5.3,5.3,0,0,1,1.19.15c0.41,0.07.82,0.17,1.25,0.26s0.82,0.32,1.24.49a5.68,5.68,0,0,1,.63.28l0.59,0.37a11.25,11.25,0,0,1,2.19,1.78,12.4,12.4,0,0,1,1.59,2.3l0.33,0.6,0.24,0.63a9.59,9.59,0,0,1,.42,1.24c0.1,0.42.19,0.82,0.27,1.22s0.1,0.8.13,1.18a12.89,12.89,0,0,1,0,2.15,13.22,13.22,0,0,1-.34,1.78,9.92,9.92,0,0,1-.46,1.31C256.91,70.63,256.68,71,256.68,71Z"/><path class="cls-8" d="M231.84,95.9a2.06,2.06,0,0,1-.36.17,3.34,3.34,0,0,1-.88.19,3.29,3.29,0,0,1-2.2-.64,3.24,3.24,0,0,1-1.25-2,2.79,2.79,0,0,1,.07-1.3l0.39,0c0.23,0,.52.06,0.83,0.12a5.08,5.08,0,0,1,.91.26,4,4,0,0,1,.83.47,4.24,4.24,0,0,1,1.22,1.52,6.55,6.55,0,0,1,.31.79C231.81,95.75,231.84,95.9,231.84,95.9Z"/></svg>