<svg id="Layer_1" data-name="Layer 1" xmlns="http://www.w3.org/2000/svg" xmlns:xlink="http://www.w3.org/1999/xlink" viewBox="0 0 185 131"><defs><style>.cls-1,.cls-16,.cls-2,.cls-3,.cls-5,.cls-6{fill:none;}.cls-2,.cls-3{stroke:#6ac9d0;stroke-linejoin:round;}.cls-16,.cls-2,.cls-3,.cls-6{stroke-width:2.5px;}.cls-16,.cls-3{stroke-linecap:round;}.cls-4{fill:#ffe5ca;}.cls-4,.cls-5{stroke:#f59122;}.cls-16,.cls-4,.cls-5,.cls-6{stroke-miterlimit:10;}.cls-5{opacity:0.4;}.cls-16,.cls-6{stroke:#c3e9ec;}.cls-7{clip-path:url(#clip-path);}.cls-8,.cls-9{fill:#469da1;}.cls-10,.cls-12,.cls-14,.cls-8{opacity:0.25;}.cls-10,.cls-11{fill:#6ac9d0;}.cls-12,.cls-13{fill:#f59122;}.cls-14,.cls-15{fill:#ef5034;}</style><clipPath id="clip-path"><ellipse class="cls-1" cx="130.44" cy="54.92" rx="52.15" ry="51.84"/></clipPath></defs><title>ipfs-illustrations-revised</title><rect class="cls-2" x="1.59" y="46.24" width="64.57" height="83.07"/><line class="cls-3" x1="11.62" y1="59.95" x2="56.14" y2="59.95"/><line class="cls-3" x1="11.62" y1="71.4" x2="56.14" y2="71.4"/><line class="cls-3" x1="11.62" y1="82.85" x2="56.14" y2="82.85"/><line class="cls-3" x1="11.62" y1="94.3" x2="56.14" y2="94.3"/><line class="cls-3" x1="11.62" y1="105.75" x2="31.12" y2="105.75"/><line class="cls-3" x1="11.62" y1="117.2" x2="31.12" y2="117.2"/><ellipse class="cls-4" cx="47.45" cy="111.15" rx="5.81" ry="5.77"/><path class="cls-5" d="M42.06,113.28c-2.17,1.94-3.41,3.49-3.06,4s2.22-.21,4.74-1.66a55.28,55.28,0,0,0,4.71-3.07c4.67-3.37,8-6.72,7.45-7.48-0.35-.48-2.17.19-4.64,1.61"/><ellipse class="cls-6" cx="53.26" cy="83.15" rx="6.64" ry="6.6"/><g class="cls-7"><rect class="cls-8" x="77.87" y="2.26" width="30.72" height="30.54" rx="1.07" ry="1.07"/><path class="cls-9" d="M98.91,25.26a1.19,1.19,0,0,1-.2.14,2,2,0,0,1-.67.23,4.43,4.43,0,0,1-2.51-.37,6.06,6.06,0,0,1-1.46-.94,6.33,6.33,0,0,1-1.27-1.51A8.66,8.66,0,0,1,92,20.9a12.49,12.49,0,0,1-.4-2.09,3.74,3.74,0,0,1,.08-1.21,2.28,2.28,0,0,1,.73-1.22A1.66,1.66,0,0,1,93.17,16a1.51,1.51,0,0,1,.47,0h0l0.08,0h0l0.06,0L94,16.12a1.91,1.91,0,0,1,1,1.07,7,7,0,0,1,.41,1.93,11.86,11.86,0,0,0,.24,1.52,7.55,7.55,0,0,0,.8,2.17,6,6,0,0,0,.51.76l-0.21-.12A3.73,3.73,0,0,1,96.18,23a5.87,5.87,0,0,1-1.45-2.09,10.84,10.84,0,0,1-.53-1.62,6.64,6.64,0,0,0-.44-1.56,0.83,0.83,0,0,0-.26-0.33,0.26,0.26,0,0,0-.07,0h0a0.29,0.29,0,0,0-.1.06A1.68,1.68,0,0,0,93,18.71a12.55,12.55,0,0,0,.3,1.83,7.36,7.36,0,0,0,.57,1.68,5.61,5.61,0,0,0,.9,1.36,5.72,5.72,0,0,0,1.12,1,4.6,4.6,0,0,0,2.13.79A1.74,1.74,0,0,0,98.91,25.26Z"/><path class="cls-9" d="M97.46,19.93s-0.11-.34-0.25-1-0.29-1.5-.59-2.44a3.63,3.63,0,0,0-.7-1.3,3,3,0,0,0-.58-0.48c-0.07,0-.27-0.17-0.37-0.21a2.89,2.89,0,0,0-.35-0.14,3,3,0,0,0-3.09.79,4.45,4.45,0,0,0-1.06,1.47,4.83,4.83,0,0,0-.39,1.69,7.46,7.46,0,0,0,.13,1.73,8.66,8.66,0,0,0,.47,1.53,8.12,8.12,0,0,0,.63,1.22,7,7,0,0,0,.64.87,5.62,5.62,0,0,0,.49.52l0.18,0.18a6.08,6.08,0,0,1-.86-0.48,5.26,5.26,0,0,1-.89-0.74A6.28,6.28,0,0,1,89.92,22a7.17,7.17,0,0,1-1.14-3.67,5.31,5.31,0,0,1,.41-2.28,5.8,5.8,0,0,1,1.35-1.93A4.77,4.77,0,0,1,92.69,13a4.14,4.14,0,0,1,2.94.46,5.22,5.22,0,0,1,.45.3,3.44,3.44,0,0,1,.76.81,4.07,4.07,0,0,1,.66,1.8,13.59,13.59,0,0,1,0,2.62Z"/><path class="cls-9" d="M98.33,21.94l0.11-1,0.33-2.48a13.66,13.66,0,0,0,0-3.38,5,5,0,0,0-.53-1.65,3.56,3.56,0,0,0-1.16-1.26,5.08,5.08,0,0,0-.76-0.44l-0.43-.17-0.42-.12a7.08,7.08,0,0,0-1.8-.16,8.43,8.43,0,0,0-3.2.75,4.74,4.74,0,0,0-1.85,1.45,3.92,3.92,0,0,0-.36.59l-0.1.23,0-.25a3,3,0,0,1,.18-0.71,4.46,4.46,0,0,1,1.68-2A7.7,7.7,0,0,1,93.62,10a7.09,7.09,0,0,1,2.19.06,5.82,5.82,0,0,1,.57.14c0.22,0.07.39,0.13,0.54,0.19A6.31,6.31,0,0,1,98,11a5,5,0,0,1,1.57,1.8,5.61,5.61,0,0,1,.56,2.17,8.48,8.48,0,0,1-.11,2,12.27,12.27,0,0,1-.39,1.69,21.45,21.45,0,0,1-.87,2.39C98.48,21.62,98.33,21.94,98.33,21.94Z"/><path class="cls-9" d="M87.35,16.23a11.52,11.52,0,0,0,0,2.7,9.56,9.56,0,0,0,.24,1.25,6.93,6.93,0,0,0,.45,1.32,6.49,6.49,0,0,0,.7,1.28,7.37,7.37,0,0,0,.45.6l0.12,0.15,0,0h0l0,0,0.07,0.07L89.75,24a10.45,10.45,0,0,0,1.14,1,11.16,11.16,0,0,0,1.26.77,9.81,9.81,0,0,0,2.49.87,8.17,8.17,0,0,0,1.07.14,6.31,6.31,0,0,0,.84,0,4.62,4.62,0,0,0,.55-0.06l0.2,0a4.32,4.32,0,0,1-.69.36,5.37,5.37,0,0,1-2,.37,6.56,6.56,0,0,1-1.4-.14,8.3,8.3,0,0,1-4.34-2.39l-0.28-.31-0.07-.08-0.05-.06,0,0-0.13-.18a5.13,5.13,0,0,1-.5-0.72,7.62,7.62,0,0,1-.71-1.54,7.79,7.79,0,0,1-.33-1.53,8.38,8.38,0,0,1,0-1.39,8.27,8.27,0,0,1,.36-2A5.42,5.42,0,0,1,87.35,16.23Z"/><path class="cls-9" d="M85.61,21s0.07,0.19.17,0.53l0.16,0.61c0.09,0.22.19,0.46,0.27,0.72s0.25,0.52.36,0.81a9.23,9.23,0,0,0,.48.84c0.18,0.28.41,0.54,0.62,0.82a8.2,8.2,0,0,0,.74.75,9.47,9.47,0,0,0,.82.67c0.3,0.18.57,0.41,0.88,0.57a15.11,15.11,0,0,0,1.7.85,14.61,14.61,0,0,0,1.83.64l-0.14,0a2.65,2.65,0,0,1-.41.08,5.88,5.88,0,0,1-1.48,0,6.68,6.68,0,0,1-1-.18,6.49,6.49,0,0,1-1.06-.35,6.85,6.85,0,0,1-2.09-1.3,6.75,6.75,0,0,1-.86-0.94A7.43,7.43,0,0,1,86,25.11,5.3,5.3,0,0,1,85.62,24a4.74,4.74,0,0,1-.17-1c0-.32,0-0.6,0-0.85s0.06-.45.09-0.62C85.56,21.22,85.61,21,85.61,21Z"/><path class="cls-9" d="M85.4,19.51s-0.1-.31-0.26-0.85c-0.07-.27-0.18-0.59-0.25-1s-0.09-.85-0.13-1.35a9.88,9.88,0,0,1,.09-1.61A10.34,10.34,0,0,1,85.31,13a8.29,8.29,0,0,1,.95-1.73,9.4,9.4,0,0,1,1.37-1.52,9.88,9.88,0,0,1,1.73-1.09,4.07,4.07,0,0,1,.92-0.38C90.58,8.14,90.88,8,91.19,8s0.62-.11.93-0.15a8,8,0,0,1,.9,0,6.13,6.13,0,0,1,2.9.66A5.49,5.49,0,0,1,96.8,9c0.43,0.38.66,0.6,0.66,0.6l-0.79-.37a8.1,8.1,0,0,0-.93-0.29,12.33,12.33,0,0,0-1.22-.19,10.44,10.44,0,0,0-1.45.06,9.49,9.49,0,0,0-1.57.32,9.08,9.08,0,0,0-1.56.67,8.75,8.75,0,0,0-1.45,1A8.07,8.07,0,0,0,87.31,12a9.16,9.16,0,0,0-.91,1.42,16,16,0,0,0-.56,1.5c-0.09.5-.27,1-0.3,1.43s-0.09.87-.13,1.25v1C85.41,19.19,85.4,19.51,85.4,19.51Z"/><path class="cls-9" d="M87.36,8.26S87.59,8,88,7.67a4.27,4.27,0,0,1,.81-0.61A6.57,6.57,0,0,1,90,6.41a6.89,6.89,0,0,1,1.52-.52,8.3,8.3,0,0,1,1.79-.27c0.32,0,.64,0,1,0l0.49,0,0.49,0.1a9.9,9.9,0,0,1,1.94.6,9.18,9.18,0,0,1,1.71,1.12c0.13,0.11.27,0.21,0.39,0.32l0.33,0.38a5.38,5.38,0,0,1,.61.76c0.17,0.27.34,0.54,0.49,0.8s0.23,0.56.34,0.83a6.62,6.62,0,0,1,.4,1.57,7.41,7.41,0,0,1,.07,1.34,4.46,4.46,0,0,1-.1,1c-0.09.56-.16,0.87-0.16,0.87l-0.11-.87a5.84,5.84,0,0,0-.15-1,11.3,11.3,0,0,0-.31-1.21,8.35,8.35,0,0,0-.57-1.33c-0.13-.22-0.23-0.46-0.38-0.68s-0.32-.43-0.48-0.65a4.31,4.31,0,0,0-.57-0.6,3.92,3.92,0,0,0-.63-0.55,8,8,0,0,0-1.46-.91A8.58,8.58,0,0,0,95,7.07a4.48,4.48,0,0,0-.84-0.16c-0.28,0-.56-0.09-0.84-0.09a10.75,10.75,0,0,0-1.6.07,8.89,8.89,0,0,0-1.44.26,9.13,9.13,0,0,0-1.19.37,5.54,5.54,0,0,0-.92.38Z"/><path class="cls-9" d="M101.35,16.69s0,0.15.1,0.4a5.62,5.62,0,0,1,.15,1.08,7.33,7.33,0,0,1-.09,1.55,7.74,7.74,0,0,1-.2.86,8.79,8.79,0,0,1-.32.87A6.07,6.07,0,0,1,100,23a4.42,4.42,0,0,1-.61.59,3.88,3.88,0,0,1-.63.43,3.67,3.67,0,0,1-1,.41l-0.42.06,0.31-.27a8.65,8.65,0,0,0,1.56-1.84c0.15-.21.25-0.45,0.39-0.67A7.75,7.75,0,0,0,99.92,21a14.44,14.44,0,0,0,.59-1.49c0.16-.49.3-1,0.42-1.38l0.29-1C101.3,16.84,101.35,16.69,101.35,16.69Z"/><path class="cls-9" d="M94.35,28.8l1.19-.36c0.34-.12.73-0.24,1.12-0.41,0.2-.07.38-0.19,0.59-0.27a4.58,4.58,0,0,0,.56-0.33,3,3,0,0,0,.52-0.37,4.35,4.35,0,0,0,.46-0.42,5,5,0,0,0,.4-0.45,3.82,3.82,0,0,0,.33-0.45c0.09-.15.21-0.27,0.28-0.41s0.14-.24.2-0.34l0.2-.3s0,0.13,0,.36a2.93,2.93,0,0,1-.08.95,2.25,2.25,0,0,1-.19.62,2.8,2.8,0,0,1-.35.65,3.05,3.05,0,0,1-.51.61,3.93,3.93,0,0,1-.64.52,5.74,5.74,0,0,1-.73.38A5,5,0,0,1,97,29a4.63,4.63,0,0,1-1.35.09A3.5,3.5,0,0,1,94.35,28.8Z"/><rect class="cls-10" x="115.1" y="2.26" width="30.72" height="30.54" rx="1.07" ry="1.07"/><path class="cls-11" d="M130.74,20.61l0.07-.41a7.35,7.35,0,0,0,.08-0.95,5.17,5.17,0,0,0-.08-1.18,1.89,1.89,0,0,0-.4-0.93l-0.08-.08s-0.05,0,0,0l0,0-0.09,0c-0.14-.09-0.19-0.1-0.24-0.13a0.89,0.89,0,0,0-.42-0.06,1.08,1.08,0,0,0-.44.22,2.2,2.2,0,0,0-.38.41,3.72,3.72,0,0,0-.45.83,3,3,0,0,0-.14.36,3.07,3.07,0,0,1-.09-0.39,2.81,2.81,0,0,1,0-1.08,2.38,2.38,0,0,1,.3-0.72,1.77,1.77,0,0,1,.73-0.67,1.87,1.87,0,0,1,1.14-.15,3,3,0,0,1,.52.15l0.1,0,0,0L131,15.89,131.3,16A2.34,2.34,0,0,1,132,17a2.92,2.92,0,0,1,.21,1,3.24,3.24,0,0,1-.39,1.59,2.65,2.65,0,0,1-.73.86A2.17,2.17,0,0,1,130.74,20.61Z"/><path class="cls-11" d="M133,19.74a2.3,2.3,0,0,0,.2-0.82,5.85,5.85,0,0,0-.29-2.13,5.33,5.33,0,0,0-1.5-2.44,2.66,2.66,0,0,0-1.32-.62,3.15,3.15,0,0,0-1.53.16,2.64,2.64,0,0,0-1.18.92,3.85,3.85,0,0,0-.61,1.45,6.79,6.79,0,0,0,.11,3,8.25,8.25,0,0,0,.8,2,7.48,7.48,0,0,0,.45.73,6.13,6.13,0,0,1-.62-0.61,7.09,7.09,0,0,1-1.22-2,6.72,6.72,0,0,1-.48-3.33,4.58,4.58,0,0,1,.66-1.9,3.47,3.47,0,0,1,1.67-1.39,4,4,0,0,1,2.13-.24,3.59,3.59,0,0,1,1.87,1,5.37,5.37,0,0,1,1.49,3.11,5,5,0,0,1-.19,2.36,2.34,2.34,0,0,1-.31.58Z"/><path class="cls-11" d="M125.43,12.86s0-.15,0-0.41a1.6,1.6,0,0,1,.09-0.47,2.27,2.27,0,0,1,.23-0.6,3,3,0,0,1,.41-0.64,3.8,3.8,0,0,1,.61-0.6,4.16,4.16,0,0,1,.77-0.5,5.91,5.91,0,0,1,.87-0.35,6.11,6.11,0,0,1,.92-0.18,5,5,0,0,1,.9,0,4.69,4.69,0,0,1,1.53.36,3.5,3.5,0,0,1,.95.55c0.2,0.17.31,0.27,0.31,0.27l-0.4-.06a8.61,8.61,0,0,0-1-.1c-0.2,0-.42,0-0.65,0s-0.47,0-.71,0a8.31,8.31,0,0,0-1.49.29,4.74,4.74,0,0,0-.72.25,6.11,6.11,0,0,0-.66.32,5.35,5.35,0,0,0-1.06.78,4.33,4.33,0,0,0-.65.74C125.53,12.74,125.43,12.86,125.43,12.86Z"/><path class="cls-11" d="M131,24.1l-0.65.29a5,5,0,0,1-.84.19,3.94,3.94,0,0,1-1.13-.05A4.33,4.33,0,0,1,127,24.1a6,6,0,0,1-1.24-.86,8.15,8.15,0,0,1-1.06-1.19,11.94,11.94,0,0,1-.83-1.4,12,12,0,0,1-.56-1.52,7.94,7.94,0,0,1-.27-1.56,7,7,0,0,1,0-1.47,7.19,7.19,0,0,1,.26-1.27,6.2,6.2,0,0,1,.8-1.75,4.13,4.13,0,0,1,.45-0.57s-0.08.25-.17,0.68a10.63,10.63,0,0,0-.23,1.77c0,0.36,0,.76,0,1.17a11.17,11.17,0,0,0,.15,1.27,11.53,11.53,0,0,0,.34,1.3,11,11,0,0,0,.53,1.3,10.52,10.52,0,0,0,.67,1.23c0.13,0.19.26,0.37,0.38,0.56l0.41,0.51a8,8,0,0,0,.9.84,5.09,5.09,0,0,0,.95.56,5,5,0,0,0,.91.3c0.28,0,.53.09,0.76,0.09H131Z"/><path class="cls-11" d="M136.55,15.72a4.68,4.68,0,0,1,.34.79,7.25,7.25,0,0,1,.39,2.27,6.68,6.68,0,0,1-.16,1.57A6.33,6.33,0,0,1,136.5,22a6.46,6.46,0,0,1-1.13,1.57,8.69,8.69,0,0,1-.69.66c-0.25.22-.49,0.43-0.74,0.62a15.45,15.45,0,0,1-3.22,1.88c-1.08.47-2.11,0.8-3,1.09a9.36,9.36,0,0,0-2,.84,2.62,2.62,0,0,0-.64.53l0.09-.21a2.61,2.61,0,0,1,.36-0.54,6.66,6.66,0,0,1,1.82-1.4c0.81-.47,1.77-0.94,2.74-1.48A21.68,21.68,0,0,0,133,23.73c0.23-.18.46-0.36,0.68-0.54a7.57,7.57,0,0,0,.64-0.58,6.86,6.86,0,0,0,1-1.22,7.4,7.4,0,0,0,1.06-2.67,10.41,10.41,0,0,0,.15-1.2c0-.36,0-0.68,0-1A8.36,8.36,0,0,0,136.55,15.72Z"/><path class="cls-11" d="M138.14,21.43s0,0.21.1,0.58a2.31,2.31,0,0,1,0,.67,6.11,6.11,0,0,1-.13.93,6,6,0,0,1-.4,1,5.11,5.11,0,0,1-.68,1,5.85,5.85,0,0,1-.92.92,9.4,9.4,0,0,1-1.08.77,12.21,12.21,0,0,1-1.17.58,9.87,9.87,0,0,1-1.18.42,11.65,11.65,0,0,1-2.15.45,9.57,9.57,0,0,1-2.13,0s0.79-.35,1.94-0.81c0.57-.24,1.23-0.51,1.92-0.82,0.35-.14.69-0.33,1-0.5s0.68-.38,1-0.56,0.67-.4,1-0.63l0.45-.33,0.4-.36a7.47,7.47,0,0,0,.7-0.74c0.21-.25.35-0.52,0.53-0.76s0.23-.49.34-0.71A3.17,3.17,0,0,0,138,22C138.07,21.64,138.14,21.43,138.14,21.43Z"/><path class="cls-11" d="M138.35,19.19s0-.32,0-0.86c0-.27,0-0.61,0-1s-0.11-.78-0.15-1.23-0.21-.91-0.3-1.41-0.34-1-.52-1.49a9.94,9.94,0,0,0-.82-1.45,7.35,7.35,0,0,0-2.42-2.33A4.43,4.43,0,0,0,133.33,9a4,4,0,0,0-.75-0.31l-0.76-.23-0.75-.13a4.35,4.35,0,0,0-.72,0,3.45,3.45,0,0,0-.69,0,7.25,7.25,0,0,0-1.2.17,5.8,5.8,0,0,0-.92.25l-0.81.3s0.23-.2.68-0.55A4.37,4.37,0,0,1,128.29,8a5.54,5.54,0,0,1,1.26-.46,6.8,6.8,0,0,1,1.59-.2l0.88,0c0.3,0,.6.12,0.91,0.18a5,5,0,0,1,.91.3,3.85,3.85,0,0,1,.89.42,9.11,9.11,0,0,1,1.63,1.18A9.32,9.32,0,0,1,137.61,11a8.65,8.65,0,0,1,.83,1.74,11.43,11.43,0,0,1,.4,1.73,11.76,11.76,0,0,1,.08,1.57c0,0.49-.07.93-0.11,1.32s-0.16.7-.22,1C138.45,18.88,138.35,19.19,138.35,19.19Z"/><path class="cls-11" d="M137.63,9.1l-0.75-.65A5.34,5.34,0,0,0,136,7.8c-0.18-.11-0.35-0.25-0.56-0.35l-0.68-.31a10.8,10.8,0,0,0-1.56-.54,10.44,10.44,0,0,0-1.81-.21,9,9,0,0,0-1.92.16l-1,.26c-0.31.1-.61,0.26-0.91,0.39a4.5,4.5,0,0,0-.87.48,3.84,3.84,0,0,0-.8.58c-0.24.23-.5,0.42-0.73,0.65l-0.62.74a4.82,4.82,0,0,0-.52.77c-0.15.26-.33,0.51-0.46,0.77-0.21.55-.48,1.05-0.64,1.55l-0.39,1.38c-0.1.42-.14,0.79-0.2,1.1l-0.18,1-0.06-1c0-.32,0-0.71,0-1.15s0.11-.94.18-1.49a16.48,16.48,0,0,1,.48-1.73c0.11-.3.28-0.59,0.42-0.9a4.61,4.61,0,0,1,.52-0.9l0.65-.87a9.68,9.68,0,0,1,.8-0.78,4.74,4.74,0,0,1,.9-0.69,5.37,5.37,0,0,1,1-.58c0.36-.14.7-0.32,1.07-0.43l1.11-.27a8.59,8.59,0,0,1,2.2-.08,8.9,8.9,0,0,1,2,.4,8.56,8.56,0,0,1,1.63.79L135.72,7c0.2,0.15.37,0.33,0.54,0.48a4.58,4.58,0,0,1,.79.84Z"/><path class="cls-11" d="M134.92,19s0,0.15,0,.41a3.13,3.13,0,0,1-.27,1.06,2.81,2.81,0,0,1-.36.68,3.08,3.08,0,0,1-.56.67,3.86,3.86,0,0,1-.77.56,4.09,4.09,0,0,1-.95.34,3.32,3.32,0,0,1-1,0,2.8,2.8,0,0,1-1-.29,2.21,2.21,0,0,1-.74-0.62,1.73,1.73,0,0,1-.36-0.77,1.54,1.54,0,0,1,0-.69,1.21,1.21,0,0,1,.16-0.47c0.13-.24.21-0.36,0.21-0.36l0,0.41a1.37,1.37,0,0,0,.07.42,1.51,1.51,0,0,0,.19.46,0.73,0.73,0,0,0,.17.21,0.65,0.65,0,0,0,.2.19,2.05,2.05,0,0,0,.52.27l0.31,0.08,0.33,0a2.23,2.23,0,0,0,.68-0.07,2.92,2.92,0,0,0,.68-0.2A5.16,5.16,0,0,0,133,21a4.33,4.33,0,0,0,.54-0.43,4.5,4.5,0,0,0,.45-0.45l0.37-.42c0.1-.15.19-0.28,0.27-0.38S134.92,19,134.92,19Z"/><path class="cls-11" d="M127.32,25.95a3.24,3.24,0,0,1-1.3-.14,4.72,4.72,0,0,1-1.24-.55,4.6,4.6,0,0,1-.62-0.45,6,6,0,0,1-.57-0.56,6.79,6.79,0,0,1-.48-0.64,5.55,5.55,0,0,1-.36-0.68,4.88,4.88,0,0,1-.24-0.68,3.08,3.08,0,0,1-.13-0.62,3.6,3.6,0,0,1,0-.95c0-.23,0-0.36,0-0.36s0.08,0.11.19,0.31,0.13,0.21.19,0.35,0.17,0.27.25,0.43,0.18,0.33.3,0.49l0.34,0.52a11,11,0,0,0,.82,1,10.43,10.43,0,0,0,.92,1c0.32,0.29.63,0.55,0.91,0.78C126.88,25.65,127.32,25.95,127.32,25.95Z"/><path class="cls-11" d="M135.07,17.47s0-.17,0-0.47a10.1,10.1,0,0,0-.13-1.15c-0.07-.23-0.1-0.48-0.19-0.73a7.88,7.88,0,0,0-.28-0.77,5.52,5.52,0,0,0-.4-0.75,4.33,4.33,0,0,0-.51-0.68,3.86,3.86,0,0,0-.64-0.55,5.71,5.71,0,0,0-.71-0.42c-0.26-.07-0.5-0.22-0.76-0.27s-0.49-.15-0.73-0.16l-0.65-.1-0.52,0-0.47,0,0.43-.19c0.14-.05.31-0.12,0.51-0.19s0.44-.09.7-0.13a3.93,3.93,0,0,1,.86,0,4.86,4.86,0,0,1,1,.16,4.31,4.31,0,0,1,1,.45,4.89,4.89,0,0,1,.88.7A5.49,5.49,0,0,1,135,13a4.42,4.42,0,0,1,.4,1,4.47,4.47,0,0,1,.16,1,4.65,4.65,0,0,1,0,.86,4.4,4.4,0,0,1-.32,1.23C135.15,17.32,135.07,17.47,135.07,17.47Z"/><path class="cls-11" d="M125.13,27.36a1.19,1.19,0,0,1-.49.14,1.34,1.34,0,0,1-.88-0.25,1.32,1.32,0,0,1-.5-0.79,1,1,0,0,1,0-.51,3.4,3.4,0,0,1,.48.06,1.55,1.55,0,0,1,1.19.9A2.27,2.27,0,0,1,125.13,27.36Z"/><rect class="cls-12" x="152.29" y="2.26" width="30.72" height="30.54" rx="1.07" ry="1.07"/><path class="cls-13" d="M164.11,19.6l0.31-.16A3.63,3.63,0,0,0,165.1,19a2.88,2.88,0,0,0,.63-0.78,1.3,1.3,0,0,0,.2-0.82,1,1,0,0,0,0-.11l0,0c0.06,0,0,0,0,0l-0.14-.11a1,1,0,0,0-.32-0.14,1.06,1.06,0,0,0-.8.34,3.14,3.14,0,0,0-.54.63,2.58,2.58,0,0,0-.18.29,2.17,2.17,0,0,1,0-.35,2.41,2.41,0,0,1,.25-0.92,2,2,0,0,1,.42-0.56,1.43,1.43,0,0,1,.8-0.38,1.56,1.56,0,0,1,1,.21l0.15,0.09,0.12,0.08,0.11,0.09a1.3,1.3,0,0,1,.33.5,1.66,1.66,0,0,1,0,1.06,2.28,2.28,0,0,1-.41.8,2.44,2.44,0,0,1-1.21.83,2,2,0,0,1-1,.05A1.75,1.75,0,0,1,164.11,19.6Z"/><path class="cls-13" d="M163.49,15.34l0.08-.15a2.45,2.45,0,0,1,.26-0.4,3.21,3.21,0,0,1,1.41-1,3,3,0,0,1,1.22-.18,3.11,3.11,0,0,1,1.34.4,3.3,3.3,0,0,1,.61.44,3.14,3.14,0,0,1,.5.58,3,3,0,0,1,.48,1.48,4.25,4.25,0,0,1-.83,2.72,4.93,4.93,0,0,1-1.82,1.56,4.88,4.88,0,0,1-1.58.48,4.54,4.54,0,0,1-.61,0,4.49,4.49,0,0,0,.58-0.2,5.65,5.65,0,0,0,1.36-.74,5,5,0,0,0,1.39-1.57,3.74,3.74,0,0,0,.49-2.2,2.3,2.3,0,0,0-.36-1,1.92,1.92,0,0,0-.35-0.38,4.85,4.85,0,0,0-.42-0.28,2.85,2.85,0,0,0-1.81-.37A4.56,4.56,0,0,0,164,15C163.7,15.21,163.49,15.34,163.49,15.34Z"/><path class="cls-13" d="M162.31,13.2s0.08-.15.23-0.41a1.87,1.87,0,0,1,.32-0.43,2.94,2.94,0,0,1,.53-0.51,3.29,3.29,0,0,1,.72-0.47A4.8,4.8,0,0,1,165,11a6,6,0,0,1,2.09-.2,6.22,6.22,0,0,1,1,.2,5.72,5.72,0,0,1,1,.36,5.08,5.08,0,0,1,1.47,1,2.94,2.94,0,0,1,.46.55,2.41,2.41,0,0,1,.28.47c0.13,0.27.19,0.43,0.19,0.43l-0.39-.25a8.07,8.07,0,0,0-1-.57c-0.2-.11-0.44-0.19-0.68-0.3s-0.51-.17-0.77-0.26-0.55-.14-0.83-0.19-0.58-.09-0.87-0.13a9.69,9.69,0,0,0-1.72,0c-0.26.07-.54,0.07-0.78,0.15a5.49,5.49,0,0,0-.7.21,5.94,5.94,0,0,0-1,.46Z"/><path class="cls-13" d="M168.77,28.46s-0.73.12-1.75,0.19a12.5,12.5,0,0,1-3.84-.26,6.17,6.17,0,0,1-2-.87,4,4,0,0,1-.81-0.72,2.81,2.81,0,0,1-.5-0.86,3.87,3.87,0,0,1-.14-0.41l0-.38a1.47,1.47,0,0,1,0-.6,4.58,4.58,0,0,1,.12-0.49s0.09,0.17.21,0.44a1.79,1.79,0,0,0,.25.45,2.1,2.1,0,0,0,.39.48,3.82,3.82,0,0,0,.52.43,5.42,5.42,0,0,0,.69.34c0.24,0.11.52,0.19,0.8,0.29s0.58,0.18.9,0.24l1.87,0.45c0.61,0.16,1.19.31,1.69,0.49A6.44,6.44,0,0,1,168.77,28.46Z"/><path class="cls-13" d="M172.87,15.16s0.14,0.19.36,0.54a3.52,3.52,0,0,1,.36.65c0.1,0.28.23,0.6,0.33,1a9.89,9.89,0,0,1,.15,1.19,6.16,6.16,0,0,1-.13,1.35c-0.05.23-.11,0.47-0.18,0.7l-0.28.68a7.67,7.67,0,0,1-.75,1.29,8.52,8.52,0,0,1-1,1.1,9.41,9.41,0,0,1-1.08.9,9.76,9.76,0,0,1-1.13.66,8.07,8.07,0,0,1-2,.72C167.23,26,167,26,166.76,26a6.29,6.29,0,0,1-.66,0l0.57-.28a15.08,15.08,0,0,0,1.37-.86c0.27-.19.55-0.41,0.85-0.64s0.57-.51.89-0.76,0.6-.56.86-0.88a11,11,0,0,0,.8-1,9.1,9.1,0,0,0,.66-1l0.28-.53,0.2-.54a8,8,0,0,0,.31-1.07l0.13-1c0-.31,0-0.6,0-0.87a6.33,6.33,0,0,0-.08-0.72C172.88,15.4,172.87,15.16,172.87,15.16Z"/><path class="cls-13" d="M175.89,17.42s-0.1-.23-0.26-0.64a7.35,7.35,0,0,0-.29-0.72c-0.13-.26-0.24-0.56-0.41-0.87s-0.33-.65-0.56-1a9.52,9.52,0,0,0-.72-1,10.2,10.2,0,0,0-.87-0.95,7.41,7.41,0,0,0-1-.81,3.38,3.38,0,0,0-.55-0.35,4.05,4.05,0,0,0-.58-0.3L170,10.55l-0.6-.19a10,10,0,0,0-1.18-.25,8.56,8.56,0,0,0-1.1-.08,6.77,6.77,0,0,0-1,0,5.23,5.23,0,0,0-.76.08l-0.68.09s0.2-.15.57-0.39A3.38,3.38,0,0,1,166,9.46a4.36,4.36,0,0,1,1-.34,5.37,5.37,0,0,1,1.26-.2,6.31,6.31,0,0,1,1.44.07l0.75,0.15c0.25,0.07.5,0.16,0.74,0.26a5.37,5.37,0,0,1,.72.34,4.32,4.32,0,0,1,.69.41,9,9,0,0,1,1.22,1,7.48,7.48,0,0,1,.93,1.23,6.26,6.26,0,0,1,.63,1.27,6.8,6.8,0,0,1,.36,1.2,7.42,7.42,0,0,1,.15,1,4,4,0,0,1,0,.79C175.92,17.17,175.89,17.42,175.89,17.42Z"/><path class="cls-13" d="M166.95,8.31l-0.43.11a3.63,3.63,0,0,0-.45.15c-0.16,0-.35.16-0.55,0.23a10.61,10.61,0,0,0-1.28.74c-0.23.14-.45,0.32-0.68,0.48s-0.45.35-.67,0.53c-0.45.36-.87,0.76-1.25,1.14l-0.54.57c-0.15.2-.33,0.36-0.46,0.54s-0.27.33-.36,0.49-0.21.28-.27,0.4-0.23.38-.23,0.38,0-.16,0-0.45a2.52,2.52,0,0,1,0-.52,3.27,3.27,0,0,1,.16-0.66,5.59,5.59,0,0,1,.77-1.5A7.82,7.82,0,0,1,162,9.53c0.26-.2.52-0.4,0.8-0.57a5.68,5.68,0,0,1,.85-0.45,5.44,5.44,0,0,1,.85-0.31,4.88,4.88,0,0,1,.8-0.14,3.25,3.25,0,0,1,.69,0,2.17,2.17,0,0,1,.52.09Z"/><path class="cls-13" d="M164.14,23.06l0.69-.12a3.55,3.55,0,0,0,.77-0.17,7.6,7.6,0,0,0,.91-0.32,6.82,6.82,0,0,0,1-.53l0.51-.34c0.15-.15.32-0.28,0.48-0.42a7.17,7.17,0,0,0,.89-1l0.38-.56a6.55,6.55,0,0,0,.3-0.6,2.63,2.63,0,0,0,.25-0.62,2.63,2.63,0,0,0,.17-0.63c0-.21.08-0.42,0.09-0.63V16.55a3.93,3.93,0,0,0-.3-1.12,3.52,3.52,0,0,0-.56-0.93,1.4,1.4,0,0,0-.34-0.37l-0.34-.32a3.26,3.26,0,0,0-.62-0.46L167.86,13l0.69,0.15a2.7,2.7,0,0,1,.79.26,3.77,3.77,0,0,1,.95.57l0.49,0.43a3.32,3.32,0,0,1,.42.57,4,4,0,0,1,.59,1.43l0.09,0.82a5.41,5.41,0,0,1-.06.83,3.73,3.73,0,0,1-.19.82,3.57,3.57,0,0,1-.29.79,7.87,7.87,0,0,1-.4.73l-0.49.67a5,5,0,0,1-.56.58,3.42,3.42,0,0,1-.6.5c-0.21.15-.42,0.3-0.62,0.43l-0.66.3a5.16,5.16,0,0,1-1.25.38,5,5,0,0,1-1.1.09,2.79,2.79,0,0,1-.81-0.08Z"/><path class="cls-13" d="M160.43,18.9s-0.08-.1-0.2-0.27a1.57,1.57,0,0,1-.19-0.33,4,4,0,0,1-.18-0.49,2.94,2.94,0,0,1,0-1.32,3.1,3.1,0,0,1,.23-0.72,4.54,4.54,0,0,1,.4-0.66,4.29,4.29,0,0,1,1.09-1,4.36,4.36,0,0,1,1.14-.54,3.09,3.09,0,0,1,1.21-.15l-0.91.72a10,10,0,0,0-1.63,1.64,3.46,3.46,0,0,0-.33.49,4.36,4.36,0,0,0-.53,1.51l0,0.43a3.26,3.26,0,0,0,0,.37C160.44,18.78,160.43,18.9,160.43,18.9Z"/><path class="cls-13" d="M163.86,21.37h-0.28a2.29,2.29,0,0,1-.73-0.13,2.25,2.25,0,0,1-.94-0.6,2,2,0,0,1-.38-0.58,2.76,2.76,0,0,1-.17-0.7,3.29,3.29,0,0,1,.06-0.68,2.82,2.82,0,0,1,.19-0.59,3.57,3.57,0,0,1,.56-0.88,3,3,0,0,1,.75-0.67s0,0.11,0,.28-0.08.41-.15,0.68l-0.1.43c0,0.15-.05.31-0.1,0.46a4.12,4.12,0,0,0-.07.9,2.14,2.14,0,0,0,.71,1.41c0.18,0.19.35,0.35,0.48,0.47Z"/><path class="cls-13" d="M162.27,8.39s0.14-.18.4-0.49a2.83,2.83,0,0,1,.53-0.5,4.16,4.16,0,0,1,.8-0.56,5,5,0,0,1,1-.49A7.33,7.33,0,0,1,166.28,6a8.38,8.38,0,0,1,1.38-.14,9.21,9.21,0,0,1,1.43.08,9.39,9.39,0,0,1,1.39.34,7.23,7.23,0,0,1,2.35,1.31,5.2,5.2,0,0,1,.8.86,3.48,3.48,0,0,1,.51.83,2.74,2.74,0,0,1,.26.69c0.1,0.4.13,0.62,0.13,0.62l-0.37-.51a3.71,3.71,0,0,0-.45-0.52A4.59,4.59,0,0,0,173.07,9a8.34,8.34,0,0,0-.83-0.58,10.7,10.7,0,0,0-1-.49l-0.55-.22-0.58-.17a8.41,8.41,0,0,0-1.21-.25,7.91,7.91,0,0,0-1.24-.12c-0.41,0-.82,0-1.21,0s-0.78.06-1.13,0.15a7.54,7.54,0,0,0-1,.24,6.21,6.21,0,0,0-.83.28,3.88,3.88,0,0,0-.64.28Z"/><path class="cls-13" d="M159.38,18.53s0,0.18.1,0.48a3.51,3.51,0,0,0,.14.52,5.69,5.69,0,0,0,.23.62c0.08,0.23.24,0.45,0.34,0.69s0.29,0.47.48,0.7a7.64,7.64,0,0,0,.58.68,5,5,0,0,0,.69.59,5.34,5.34,0,0,0,.76.51,7,7,0,0,0,.81.36,5.31,5.31,0,0,0,.81.23,7.53,7.53,0,0,0,.76.12c0.24,0,.47,0,0.68,0a4,4,0,0,0,.54,0l0.49,0s-0.14.11-.41,0.27a2.38,2.38,0,0,1-.51.27,4.31,4.31,0,0,1-.72.24,4,4,0,0,1-.91.11,3.76,3.76,0,0,1-1-.09,4.77,4.77,0,0,1-1.07-.34,5.46,5.46,0,0,1-1.82-1.39,5.22,5.22,0,0,1-.62-0.92,5,5,0,0,1-.41-0.94,4.59,4.59,0,0,1-.17-0.9,3.2,3.2,0,0,1,0-.77,2.3,2.3,0,0,1,.1-0.57C159.31,18.7,159.38,18.53,159.38,18.53Z"/><path class="cls-13" d="M168.41,27.12l0.53-.12,0.56-.18c0.21-.09.45-0.17,0.7-0.29s0.51-.25.78-0.4,0.53-.34.81-0.52a8.1,8.1,0,0,0,.79-0.64,7.85,7.85,0,0,0,.72-0.74,7,7,0,0,0,.62-0.82c0.21-.27.35-0.58,0.52-0.87s0.28-.59.39-0.88,0.22-.57.29-0.84,0.14-.52.2-0.74l0.13-.59c0.07-.33.13-0.53,0.13-0.53s0.06,0.19.14,0.53a5.64,5.64,0,0,1,.17,1.44,6.76,6.76,0,0,1-.34,2.07,7,7,0,0,1-.5,1.09,6.1,6.1,0,0,1-.72,1,6.52,6.52,0,0,1-.9.86,6.42,6.42,0,0,1-1,.65,5.67,5.67,0,0,1-1,.43,5.33,5.33,0,0,1-2.44.21Z"/><rect class="cls-10" x="77.87" y="76.45" width="30.72" height="30.54" rx="1.07" ry="1.07"/><path class="cls-11" d="M98.91,99.47a1.19,1.19,0,0,1-.2.14,2,2,0,0,1-.67.23,4.43,4.43,0,0,1-2.51-.37,6.06,6.06,0,0,1-1.46-.94A6.33,6.33,0,0,1,92.8,97,8.66,8.66,0,0,1,92,95.11a12.49,12.49,0,0,1-.4-2.09,3.74,3.74,0,0,1,.08-1.21,2.28,2.28,0,0,1,.73-1.22,1.66,1.66,0,0,1,.77-0.36,1.51,1.51,0,0,1,.47,0h0l0.08,0h0l0.06,0L94,90.32a1.91,1.91,0,0,1,1,1.07,7,7,0,0,1,.41,1.93,11.86,11.86,0,0,0,.24,1.52,7.55,7.55,0,0,0,.8,2.17,6,6,0,0,0,.51.76l-0.21-.12a3.73,3.73,0,0,1-.56-0.42,5.87,5.87,0,0,1-1.45-2.09,10.84,10.84,0,0,1-.53-1.62A6.64,6.64,0,0,0,93.76,92a0.83,0.83,0,0,0-.26-0.33,0.26,0.26,0,0,0-.07,0h0a0.29,0.29,0,0,0-.1.06A1.68,1.68,0,0,0,93,92.92a12.55,12.55,0,0,0,.3,1.83,7.36,7.36,0,0,0,.57,1.68,5.61,5.61,0,0,0,.9,1.36,5.72,5.72,0,0,0,1.12,1,4.6,4.6,0,0,0,2.13.79A1.74,1.74,0,0,0,98.91,99.47Z"/><path class="cls-11" d="M97.46,94.14s-0.11-.34-0.25-1-0.29-1.5-.59-2.44a3.63,3.63,0,0,0-.7-1.3A3,3,0,0,0,95.34,89c-0.07,0-.27-0.17-0.37-0.21a2.89,2.89,0,0,0-.35-0.14,3,3,0,0,0-3.09.79,4.45,4.45,0,0,0-1.06,1.47,4.83,4.83,0,0,0-.39,1.69,7.46,7.46,0,0,0,.13,1.73,8.66,8.66,0,0,0,.47,1.53A8.12,8.12,0,0,0,91.3,97a7,7,0,0,0,.64.87,5.62,5.62,0,0,0,.49.52l0.18,0.18a6.07,6.07,0,0,1-.86-0.48,5.26,5.26,0,0,1-.89-0.74,6.28,6.28,0,0,1-.94-1.19,7.17,7.17,0,0,1-1.14-3.67,5.31,5.31,0,0,1,.41-2.28,5.8,5.8,0,0,1,1.35-1.93,4.77,4.77,0,0,1,2.15-1.16,4.14,4.14,0,0,1,2.94.46,5.22,5.22,0,0,1,.45.3,3.44,3.44,0,0,1,.76.81,4.07,4.07,0,0,1,.66,1.8,13.59,13.59,0,0,1,0,2.62Z"/><path class="cls-11" d="M98.33,96.15l0.11-1,0.33-2.48a13.66,13.66,0,0,0,0-3.38,5,5,0,0,0-.53-1.65,3.56,3.56,0,0,0-1.16-1.26A5.08,5.08,0,0,0,96.37,86l-0.43-.17-0.42-.12a7.08,7.08,0,0,0-1.8-.16,8.43,8.43,0,0,0-3.2.75,4.74,4.74,0,0,0-1.85,1.45,3.92,3.92,0,0,0-.36.59l-0.1.23,0-.25a3,3,0,0,1,.18-0.71,4.46,4.46,0,0,1,1.68-2,7.7,7.7,0,0,1,3.53-1.31,7.09,7.09,0,0,1,2.19.06,5.82,5.82,0,0,1,.57.14c0.22,0.07.39,0.13,0.54,0.19a6.31,6.31,0,0,1,1,.58A5,5,0,0,1,99.53,87a5.61,5.61,0,0,1,.56,2.17,8.48,8.48,0,0,1-.11,2,12.27,12.27,0,0,1-.39,1.69,21.45,21.45,0,0,1-.87,2.39C98.48,95.83,98.33,96.15,98.33,96.15Z"/><path class="cls-11" d="M87.35,90.43a11.52,11.52,0,0,0,0,2.7,9.56,9.56,0,0,0,.24,1.25,6.93,6.93,0,0,0,.45,1.32,6.49,6.49,0,0,0,.7,1.28,7.37,7.37,0,0,0,.45.6l0.12,0.15,0,0h0l0,0,0.07,0.07,0.28,0.3a10.45,10.45,0,0,0,1.14,1,11.16,11.16,0,0,0,1.26.77,9.81,9.81,0,0,0,2.49.87,8.17,8.17,0,0,0,1.07.14,6.3,6.3,0,0,0,.84,0,4.61,4.61,0,0,0,.55-0.06l0.2,0a4.32,4.32,0,0,1-.69.36,5.37,5.37,0,0,1-2,.37,6.56,6.56,0,0,1-1.4-.14A8.3,8.3,0,0,1,88.84,99l-0.28-.31-0.07-.08-0.05-.06,0,0-0.13-.18a5.13,5.13,0,0,1-.5-0.72,7.62,7.62,0,0,1-.71-1.54,7.79,7.79,0,0,1-.33-1.53,8.38,8.38,0,0,1,0-1.39,8.27,8.27,0,0,1,.36-2A5.42,5.42,0,0,1,87.35,90.43Z"/><path class="cls-11" d="M85.61,95.23s0.07,0.19.17,0.53l0.16,0.61c0.09,0.22.19,0.46,0.27,0.72s0.25,0.52.36,0.81a9.24,9.24,0,0,0,.48.84c0.18,0.28.41,0.54,0.62,0.82a8.2,8.2,0,0,0,.74.75,9.47,9.47,0,0,0,.82.67c0.3,0.18.57,0.41,0.88,0.57a15.11,15.11,0,0,0,1.7.85,14.61,14.61,0,0,0,1.83.64l-0.14,0a2.65,2.65,0,0,1-.41.08,5.88,5.88,0,0,1-1.48,0,6.69,6.69,0,0,1-1-.18,6.5,6.5,0,0,1-1.06-.35,6.85,6.85,0,0,1-2.09-1.3,6.75,6.75,0,0,1-.86-0.94A7.43,7.43,0,0,1,86,99.31a5.3,5.3,0,0,1-.38-1.07,4.74,4.74,0,0,1-.17-1c0-.32,0-0.6,0-0.85s0.06-.45.09-0.62C85.56,95.42,85.61,95.23,85.61,95.23Z"/><path class="cls-11" d="M85.4,93.72s-0.1-.31-0.26-0.85c-0.07-.27-0.18-0.59-0.25-1S84.8,91,84.76,90.55a9.88,9.88,0,0,1,.09-1.61,10.34,10.34,0,0,1,.45-1.77,8.29,8.29,0,0,1,.95-1.73,9.4,9.4,0,0,1,1.37-1.52,9.88,9.88,0,0,1,1.73-1.09,4.08,4.08,0,0,1,.92-0.38c0.32-.09.62-0.21,0.93-0.27s0.62-.11.93-0.15a8,8,0,0,1,.9,0,6.13,6.13,0,0,1,2.9.66,5.49,5.49,0,0,1,.88.55c0.43,0.38.66,0.6,0.66,0.6l-0.79-.37a8.1,8.1,0,0,0-.93-0.29,12.32,12.32,0,0,0-1.22-.19,10.44,10.44,0,0,0-1.45.06,9.49,9.49,0,0,0-1.57.32,9.08,9.08,0,0,0-1.56.67,8.75,8.75,0,0,0-1.45,1,8.07,8.07,0,0,0-1.18,1.26,9.16,9.16,0,0,0-.91,1.42,16,16,0,0,0-.56,1.5c-0.09.5-.27,1-0.3,1.43s-0.09.87-.13,1.25v1C85.41,93.4,85.4,93.72,85.4,93.72Z"/><path class="cls-11" d="M87.36,82.47s0.23-.22.65-0.59a4.27,4.27,0,0,1,.81-0.61A6.57,6.57,0,0,1,90,80.62a6.89,6.89,0,0,1,1.52-.52,8.3,8.3,0,0,1,1.79-.27c0.32,0,.64,0,1,0l0.49,0L95.26,80a9.9,9.9,0,0,1,1.94.6,9.18,9.18,0,0,1,1.71,1.12c0.13,0.11.27,0.21,0.39,0.32l0.33,0.38a5.38,5.38,0,0,1,.61.76c0.17,0.27.34,0.54,0.49,0.8s0.23,0.56.34,0.83a6.62,6.62,0,0,1,.4,1.57,7.41,7.41,0,0,1,.07,1.34,4.46,4.46,0,0,1-.1,1c-0.09.56-.16,0.87-0.16,0.87l-0.11-.87a5.84,5.84,0,0,0-.15-1,11.3,11.3,0,0,0-.31-1.21,8.35,8.35,0,0,0-.57-1.33c-0.13-.22-0.23-0.46-0.38-0.68s-0.32-.43-0.48-0.65a4.31,4.31,0,0,0-.57-0.6,3.92,3.92,0,0,0-.63-0.55,8,8,0,0,0-1.46-.91A8.58,8.58,0,0,0,95,81.28a4.49,4.49,0,0,0-.84-0.16c-0.28,0-.56-0.09-0.84-0.09a10.75,10.75,0,0,0-1.6.07,8.9,8.9,0,0,0-1.44.26,9.13,9.13,0,0,0-1.19.37,5.54,5.54,0,0,0-.92.38Z"/><path class="cls-11" d="M101.35,90.9s0,0.15.1,0.4a5.62,5.62,0,0,1,.15,1.08,7.32,7.32,0,0,1-.09,1.55,7.74,7.74,0,0,1-.2.86,8.79,8.79,0,0,1-.32.87,6.07,6.07,0,0,1-1,1.53,4.42,4.42,0,0,1-.61.59,3.88,3.88,0,0,1-.63.43,3.67,3.67,0,0,1-1,.41l-0.42.06,0.31-.27a8.65,8.65,0,0,0,1.56-1.84c0.15-.21.25-0.45,0.39-0.67a7.75,7.75,0,0,0,.35-0.72,14.44,14.44,0,0,0,.59-1.49c0.16-.49.3-1,0.42-1.38l0.29-1C101.3,91,101.35,90.9,101.35,90.9Z"/><path class="cls-11" d="M94.35,103l1.19-.36c0.34-.12.73-0.24,1.12-0.41,0.2-.07.38-0.19,0.59-0.27a4.58,4.58,0,0,0,.56-0.33,3,3,0,0,0,.52-0.37,4.35,4.35,0,0,0,.46-0.42,5,5,0,0,0,.4-0.45,3.81,3.81,0,0,0,.33-0.45c0.09-.15.21-0.27,0.28-0.41s0.14-.24.2-0.34l0.2-.3s0,0.13,0,.36a2.93,2.93,0,0,1-.08.95,2.25,2.25,0,0,1-.19.62,2.8,2.8,0,0,1-.35.65,3.05,3.05,0,0,1-.51.61,3.93,3.93,0,0,1-.64.52,5.74,5.74,0,0,1-.73.38,5,5,0,0,1-.75.22,4.63,4.63,0,0,1-1.35.09A3.5,3.5,0,0,1,94.35,103Z"/><rect class="cls-10" x="170.83" y="39.36" width="30.72" height="30.54" rx="1.07" ry="1.07"/><path class="cls-11" d="M191.87,62.38a1.19,1.19,0,0,1-.2.14,2,2,0,0,1-.67.23,4.43,4.43,0,0,1-2.51-.37,6.06,6.06,0,0,1-1.46-.94,6.33,6.33,0,0,1-1.27-1.51,8.66,8.66,0,0,1-.82-1.92,12.49,12.49,0,0,1-.4-2.09,3.74,3.74,0,0,1,.08-1.21,2.28,2.28,0,0,1,.73-1.22,1.66,1.66,0,0,1,.77-0.36,1.51,1.51,0,0,1,.47,0h0l0.08,0h0l0.06,0,0.2,0.07a1.91,1.91,0,0,1,1,1.07,7,7,0,0,1,.41,1.93,11.86,11.86,0,0,0,.24,1.52,7.55,7.55,0,0,0,.8,2.17,6,6,0,0,0,.51.76l-0.21-.12a3.73,3.73,0,0,1-.56-0.42,5.87,5.87,0,0,1-1.45-2.09,10.84,10.84,0,0,1-.53-1.62,6.64,6.64,0,0,0-.44-1.56,0.83,0.83,0,0,0-.26-0.33,0.26,0.26,0,0,0-.07,0h0a0.29,0.29,0,0,0-.1.06,1.68,1.68,0,0,0-.29,1.25,12.55,12.55,0,0,0,.3,1.83,7.36,7.36,0,0,0,.57,1.68,5.61,5.61,0,0,0,.9,1.36,5.72,5.72,0,0,0,1.12,1,4.6,4.6,0,0,0,2.13.79A1.74,1.74,0,0,0,191.87,62.38Z"/><path class="cls-11" d="M190.41,57.05s-0.11-.34-0.25-1-0.29-1.5-.59-2.44a3.63,3.63,0,0,0-.7-1.3,3,3,0,0,0-.58-0.48c-0.07,0-.27-0.17-0.37-0.21a2.89,2.89,0,0,0-.35-0.14,3,3,0,0,0-3.09.79,4.45,4.45,0,0,0-1.06,1.47,4.84,4.84,0,0,0-.39,1.69,7.46,7.46,0,0,0,.13,1.73,8.66,8.66,0,0,0,.47,1.53,8.12,8.12,0,0,0,.63,1.22,7,7,0,0,0,.64.87,5.62,5.62,0,0,0,.49.52l0.18,0.18a6.07,6.07,0,0,1-.86-0.48,5.26,5.26,0,0,1-.89-0.74,6.28,6.28,0,0,1-.94-1.19,7.17,7.17,0,0,1-1.14-3.67,5.31,5.31,0,0,1,.41-2.28,5.8,5.8,0,0,1,1.35-1.93,4.77,4.77,0,0,1,2.15-1.16,4.14,4.14,0,0,1,2.94.46,5.21,5.21,0,0,1,.45.3,3.44,3.44,0,0,1,.76.81,4.07,4.07,0,0,1,.66,1.8,13.58,13.58,0,0,1,0,2.62Z"/><path class="cls-11" d="M191.29,59.06l0.11-1,0.33-2.48a13.66,13.66,0,0,0,0-3.38,5,5,0,0,0-.53-1.65,3.56,3.56,0,0,0-1.16-1.26,5.08,5.08,0,0,0-.76-0.44l-0.43-.17-0.42-.12a7.08,7.08,0,0,0-1.8-.16,8.43,8.43,0,0,0-3.2.75,4.74,4.74,0,0,0-1.85,1.45,3.92,3.92,0,0,0-.36.59l-0.1.23,0-.25a3,3,0,0,1,.18-0.71,4.46,4.46,0,0,1,1.68-2,7.7,7.7,0,0,1,3.53-1.31,7.09,7.09,0,0,1,2.19.06,5.82,5.82,0,0,1,.57.14c0.22,0.07.39,0.13,0.54,0.19a6.31,6.31,0,0,1,1,.58,5,5,0,0,1,1.57,1.8,5.61,5.61,0,0,1,.56,2.17,8.48,8.48,0,0,1-.11,2,12.27,12.27,0,0,1-.39,1.69,21.45,21.45,0,0,1-.87,2.39C191.44,58.75,191.29,59.06,191.29,59.06Z"/><path class="cls-11" d="M180.3,53.35a11.52,11.52,0,0,0,0,2.7,9.56,9.56,0,0,0,.24,1.25,6.93,6.93,0,0,0,.45,1.32,6.5,6.5,0,0,0,.7,1.28,7.37,7.37,0,0,0,.45.6l0.12,0.15,0,0h0l0,0,0.07,0.07,0.28,0.3a10.45,10.45,0,0,0,1.14,1,11.16,11.16,0,0,0,1.26.77,9.81,9.81,0,0,0,2.49.87,8.18,8.18,0,0,0,1.07.14,6.31,6.31,0,0,0,.84,0,4.62,4.62,0,0,0,.55-0.06l0.2,0a4.32,4.32,0,0,1-.69.36,5.37,5.37,0,0,1-2,.37,6.56,6.56,0,0,1-1.4-.14,8.3,8.3,0,0,1-4.34-2.39l-0.27-.31-0.07-.08-0.05-.06,0,0-0.13-.18a5.13,5.13,0,0,1-.5-0.72A7.62,7.62,0,0,1,180,59a7.79,7.79,0,0,1-.33-1.53,8.38,8.38,0,0,1,0-1.39,8.27,8.27,0,0,1,.36-2A5.42,5.42,0,0,1,180.3,53.35Z"/><path class="cls-11" d="M178.57,58.14s0.07,0.19.17,0.53l0.16,0.61c0.09,0.22.19,0.46,0.27,0.72s0.25,0.52.36,0.81a9.22,9.22,0,0,0,.48.84c0.18,0.28.41,0.54,0.62,0.82a8.2,8.2,0,0,0,.74.75,9.47,9.47,0,0,0,.82.67c0.3,0.18.57,0.41,0.88,0.57a15.1,15.1,0,0,0,1.7.85,14.62,14.62,0,0,0,1.83.64l-0.14,0a2.65,2.65,0,0,1-.41.08,5.88,5.88,0,0,1-1.48,0,6.68,6.68,0,0,1-1-.18,6.5,6.5,0,0,1-1.06-.35,6.85,6.85,0,0,1-2.09-1.3,6.75,6.75,0,0,1-.86-0.94,7.43,7.43,0,0,1-.63-1.06,5.3,5.3,0,0,1-.38-1.07,4.74,4.74,0,0,1-.17-1c0-.32,0-0.6,0-0.85s0.06-.45.09-0.62C178.52,58.34,178.57,58.14,178.57,58.14Z"/><path class="cls-11" d="M178.36,56.64s-0.1-.31-0.26-0.85c-0.07-.27-0.18-0.59-0.25-1s-0.09-.85-0.13-1.35a9.88,9.88,0,0,1,.09-1.61,10.34,10.34,0,0,1,.45-1.77,8.29,8.29,0,0,1,.95-1.73,9.4,9.4,0,0,1,1.37-1.52,9.89,9.89,0,0,1,1.73-1.09,4.07,4.07,0,0,1,.92-0.38c0.32-.09.62-0.21,0.93-0.27s0.62-.11.93-0.15a8,8,0,0,1,.9,0,6.13,6.13,0,0,1,2.9.66,5.49,5.49,0,0,1,.88.55c0.43,0.38.66,0.6,0.66,0.6l-0.79-.37a8.1,8.1,0,0,0-.93-0.29,12.32,12.32,0,0,0-1.22-.19,10.44,10.44,0,0,0-1.45.06,9.49,9.49,0,0,0-1.57.32,9.08,9.08,0,0,0-1.56.67,8.75,8.75,0,0,0-1.45,1,8.07,8.07,0,0,0-1.18,1.26,9.16,9.16,0,0,0-.91,1.42,16,16,0,0,0-.56,1.5c-0.09.5-.27,1-0.3,1.43s-0.09.87-.13,1.25v1C178.37,56.31,178.36,56.64,178.36,56.64Z"/><path class="cls-11" d="M180.32,45.38s0.23-.22.65-0.59a4.27,4.27,0,0,1,.81-0.61,6.57,6.57,0,0,1,1.18-.65,6.9,6.9,0,0,1,1.52-.52,8.3,8.3,0,0,1,1.79-.27c0.32,0,.64,0,1,0l0.49,0,0.49,0.1a9.9,9.9,0,0,1,1.94.61,9.18,9.18,0,0,1,1.71,1.12c0.13,0.11.27,0.21,0.39,0.32l0.33,0.38a5.39,5.39,0,0,1,.61.76c0.17,0.27.34,0.54,0.49,0.8s0.23,0.56.34,0.83a6.62,6.62,0,0,1,.4,1.57,7.41,7.41,0,0,1,.07,1.34,4.46,4.46,0,0,1-.1,1c-0.09.56-.16,0.87-0.16,0.87l-0.11-.87a5.84,5.84,0,0,0-.15-1,11.3,11.3,0,0,0-.31-1.21,8.35,8.35,0,0,0-.57-1.33c-0.13-.22-0.23-0.46-0.38-0.68s-0.32-.43-0.48-0.65a4.31,4.31,0,0,0-.57-0.6,3.91,3.91,0,0,0-.63-0.55,8,8,0,0,0-1.46-.91,8.58,8.58,0,0,0-1.64-.55,4.48,4.48,0,0,0-.84-0.16c-0.28,0-.56-0.09-0.84-0.09a10.76,10.76,0,0,0-1.6.07,8.9,8.9,0,0,0-1.44.26,9.13,9.13,0,0,0-1.19.37,5.54,5.54,0,0,0-.92.38Z"/><rect class="cls-12" x="115.08" y="76.55" width="30.72" height="30.54" rx="1.07" ry="1.07"/><path class="cls-13" d="M129.45,93.88a1.93,1.93,0,0,1-.33-0.37,2.74,2.74,0,0,1-.42-1.26,3.09,3.09,0,0,1,.42-1.91,2.36,2.36,0,0,1,.94-0.87,2.15,2.15,0,0,1,.69-0.21l0.32,0a1.66,1.66,0,0,1,.39,0,1.8,1.8,0,0,1,1.13.84,2.94,2.94,0,0,1,.37,1.08,4.16,4.16,0,0,1-.18,1.81,3.71,3.71,0,0,1-.56,1.1,3.22,3.22,0,0,1-.31.34,4.65,4.65,0,0,0,.27-1.55,4.28,4.28,0,0,0-.23-1.47,1.81,1.81,0,0,0-.34-0.63,0.6,0.6,0,0,0-.41-0.22h-0.09l-0.16,0s-0.14.07-.2,0.12a1.79,1.79,0,0,0-.4.4,4.57,4.57,0,0,0-.57,1.2,8.12,8.12,0,0,0-.27,1.06C129.47,93.69,129.45,93.88,129.45,93.88Z"/><path class="cls-13" d="M127.4,93.12a2.17,2.17,0,0,1-.12-0.24,2.69,2.69,0,0,1-.21-0.76,5.51,5.51,0,0,1,.41-2.8,5,5,0,0,1,1.1-1.66,3.65,3.65,0,0,1,2.11-1,4.34,4.34,0,0,1,2.43.46,3.56,3.56,0,0,1,1.08.78,4.79,4.79,0,0,1,.75,1,5.39,5.39,0,0,1,.59,2.42,5.32,5.32,0,0,1-.28,1.76l-0.23.56a7,7,0,0,1-2.69,3,5.83,5.83,0,0,1-1.48.6,4.2,4.2,0,0,1-2.24-.09,5.07,5.07,0,0,0,1,0,4.78,4.78,0,0,0,2.33-1A6.73,6.73,0,0,0,134,93.22l0.14-.43c0-.16.1-0.38,0.11-0.49a4.54,4.54,0,0,0,.06-1,4.31,4.31,0,0,0-.52-1.84,3.51,3.51,0,0,0-.55-0.75,2.16,2.16,0,0,0-.7-0.49,3.59,3.59,0,0,0-1.73-.36,2.77,2.77,0,0,0-1.48.62,4.66,4.66,0,0,0-1,1.21,6.51,6.51,0,0,0-.9,2.38A3,3,0,0,0,127.4,93.12Z"/><path class="cls-13" d="M135.93,88.64s-0.09-.14-0.24-0.39a3.42,3.42,0,0,0-.27-0.44c-0.12-.16-0.21-0.33-0.37-0.51a7.39,7.39,0,0,0-.49-0.56,6.92,6.92,0,0,0-.59-0.56c-0.2-.19-0.45-0.34-0.68-0.52a6,6,0,0,0-.76-0.45,6.24,6.24,0,0,0-.8-0.38c-0.28-.08-0.54-0.21-0.81-0.26s-0.53-.12-0.79-0.18-0.5-.07-0.73-0.07a5.65,5.65,0,0,0-.63,0,4.32,4.32,0,0,0-.5,0l-0.45.07s0.12-.11.36-0.29a2.43,2.43,0,0,1,.47-0.27,3.1,3.1,0,0,1,.67-0.25,4.49,4.49,0,0,1,.84-0.14,4.84,4.84,0,0,1,1,0,5.35,5.35,0,0,1,1,.21,6,6,0,0,1,1.86,1,5.54,5.54,0,0,1,.74.7,4.16,4.16,0,0,1,.56.77,3.88,3.88,0,0,1,.37.76,3.51,3.51,0,0,1,.2.69,2.14,2.14,0,0,1,.07.53C135.93,88.47,135.93,88.64,135.93,88.64Z"/><path class="cls-13" d="M129.87,98.29a6.06,6.06,0,0,0,2.38-.44,5.87,5.87,0,0,0,1.92-1.38,8.86,8.86,0,0,0,1.53-2.28,9.85,9.85,0,0,0,.86-2.62,11.2,11.2,0,0,0,.12-1.28c0-.41,0-0.81,0-1.17a9.83,9.83,0,0,0-.28-1.76c-0.11-.42-0.2-0.67-0.2-0.67a4.35,4.35,0,0,1,.42.57,6.39,6.39,0,0,1,.74,1.74,8.33,8.33,0,0,1,.27,2.69,8.66,8.66,0,0,1-.83,3,8.08,8.08,0,0,1-1.88,2.52,5.39,5.39,0,0,1-2.45,1.27,4.38,4.38,0,0,1-1.91,0,3.15,3.15,0,0,1-.5-0.15Z"/><path class="cls-13" d="M124.28,89.9a17.52,17.52,0,0,0,.32,3,11.51,11.51,0,0,0,.89,2.8A7.6,7.6,0,0,0,126.3,97a7.42,7.42,0,0,0,1.12,1.18c0.47,0.41.89,0.75,1.33,1.09a14,14,0,0,0,1.37.9,12,12,0,0,0,1.37.67c0.45,0.19.9,0.32,1.32,0.46,0.85,0.25,1.6.45,2.1,0.65a4.43,4.43,0,0,1,.57.26l0.2,0.1s-0.31,0-.84,0-1.27,0-2.21-.07a9,9,0,0,1-3.15-.81,9.17,9.17,0,0,1-1.6-.93,11.1,11.1,0,0,1-1.45-1.19,7.07,7.07,0,0,1-1.28-1.48,8.25,8.25,0,0,1-.83-1.69,9.74,9.74,0,0,1-.52-3.2,10.83,10.83,0,0,1,.24-2.23A7.35,7.35,0,0,1,124.28,89.9Z"/><path class="cls-13" d="M122.69,95.08s0.07,0.19.16,0.53c0.05,0.17.09,0.38,0.17,0.6s0.19,0.46.27,0.71,0.27,0.52.39,0.8l0.52,0.83a10.42,10.42,0,0,0,1.4,1.58c0.26,0.25.55,0.47,0.83,0.7s0.57,0.44.87,0.61,0.58,0.35.86,0.52,0.55,0.3.81,0.41a8.74,8.74,0,0,0,1.29.5,5.06,5.06,0,0,0,.53.12l-0.14,0a2,2,0,0,1-.41.11,4.6,4.6,0,0,1-1.5,0,6.46,6.46,0,0,1-1-.22,7.22,7.22,0,0,1-1-.41,7.84,7.84,0,0,1-2-1.36,6.79,6.79,0,0,1-.85-0.94,7,7,0,0,1-.66-1,8.09,8.09,0,0,1-.43-1.06,10,10,0,0,1-.2-1c0-.32,0-0.61,0-0.87a3.68,3.68,0,0,1,.08-0.63C122.64,95.28,122.69,95.08,122.69,95.08Z"/><path class="cls-13" d="M122.47,93.37s-0.06-.31-0.15-0.86c0-.28-0.1-0.61-0.13-1s0-.84,0-1.33a10.27,10.27,0,0,1,.14-1.57,11.69,11.69,0,0,1,.41-1.74c0.11-.29.24-0.59,0.37-0.89l0.2-.45,0.27-.42a8.78,8.78,0,0,1,1.26-1.61l0.82-.64a10.31,10.31,0,0,1,.9-0.51,4.43,4.43,0,0,1,.95-0.36,4.3,4.3,0,0,1,1-.2,6.75,6.75,0,0,1,1.83,0,7.3,7.3,0,0,1,1.57.38c0.23,0.09.46,0.16,0.66,0.24l0.56,0.3a4.71,4.71,0,0,1,.87.54c0.45,0.34.7,0.54,0.7,0.54l-0.82-.29a6.47,6.47,0,0,0-.94-0.29L132.29,83l-0.65-.11a10,10,0,0,0-1.44-.12,7.84,7.84,0,0,0-1.55.19,6,6,0,0,0-1.53.56c-0.23.15-.49,0.26-0.72,0.43l-0.65.54a7.44,7.44,0,0,0-1.08,1.31,10.65,10.65,0,0,0-.82,1.48c-0.16.53-.43,1-0.54,1.53s-0.3,1-.36,1.43-0.16.87-.24,1.24l-0.12,1C122.53,93.06,122.47,93.37,122.47,93.37Z"/><path class="cls-13" d="M133.34,81.88L133.87,82a5.78,5.78,0,0,1,1.33.55,5.84,5.84,0,0,1,.8.55,6.23,6.23,0,0,1,.8.75,7.19,7.19,0,0,1,.71.93,10.92,10.92,0,0,1,.59,1c0.15,0.37.3,0.74,0.41,1.12a8.44,8.44,0,0,1,.27,1.12,10.06,10.06,0,0,1,.15,2,9.16,9.16,0,0,1-.15,1.4c-0.06.34-.11,0.52-0.11,0.52s-0.05-.19-0.13-0.52l-0.3-1.34c-0.07-.27-0.15-0.57-0.22-0.88l-0.27-1a17,17,0,0,0-.74-2,12.29,12.29,0,0,0-1-1.82c-0.2-.26-0.39-0.53-0.59-0.76s-0.41-.44-0.59-0.65-0.38-.37-0.56-0.5-0.32-.28-0.46-0.37Z"/><path class="cls-13" d="M123.73,83.28s0.11-.21.33-0.56a3.82,3.82,0,0,1,.44-0.6,4.85,4.85,0,0,1,.67-0.72,6.36,6.36,0,0,1,.91-0.73,8,8,0,0,1,2.45-1.15,9.51,9.51,0,0,1,1.44-.29,8.81,8.81,0,0,1,1.47,0,6.81,6.81,0,0,1,1.4.27,6.15,6.15,0,0,1,1.22.52,4.84,4.84,0,0,1,1,.66,4.52,4.52,0,0,1,.71.69,3.1,3.1,0,0,1,.46.6c0.23,0.35.34,0.55,0.34,0.55L136,82.15a4.23,4.23,0,0,0-.58-0.42,6.66,6.66,0,0,0-.79-0.46,6.59,6.59,0,0,0-1-.42,7.27,7.27,0,0,0-2.34-.46,7.89,7.89,0,0,0-1.27,0,8.35,8.35,0,0,0-1.26.21,11.46,11.46,0,0,0-1.2.35c-0.37.16-.76,0.29-1.09,0.46s-0.67.33-.94,0.51a7.57,7.57,0,0,0-.77.5,5.88,5.88,0,0,0-.58.43Z"/><path class="cls-13" d="M126.44,93.19s0.09,0.1.23,0.27,0.16,0.2.24,0.32,0.22,0.22.33,0.35a3.21,3.21,0,0,0,.39.36,3.16,3.16,0,0,0,.46.3,2,2,0,0,0,.51.17,1.61,1.61,0,0,0,.52,0,1.85,1.85,0,0,0,.52-0.13,2,2,0,0,0,.47-0.26,3.21,3.21,0,0,0,.39-0.36,3,3,0,0,0,.26-0.42,1.54,1.54,0,0,0,.15-0.42A1.35,1.35,0,0,0,131,93c0-.21,0-0.35,0-0.35a3.27,3.27,0,0,1,.2.31,1.1,1.1,0,0,1,.16.4,1.41,1.41,0,0,1,.06.58,2.12,2.12,0,0,1-.15.7,2.42,2.42,0,0,1-.44.68,2.26,2.26,0,0,1-.7.54,2.94,2.94,0,0,1-.89.28,2.77,2.77,0,0,1-.94-0.1,2.36,2.36,0,0,1-.79-0.41,2.44,2.44,0,0,1-.54-0.58,2.18,2.18,0,0,1-.32-0.6,2.55,2.55,0,0,1-.21-0.94C126.44,93.32,126.44,93.19,126.44,93.19Z"/><path class="cls-13" d="M132.44,100.13a3.87,3.87,0,0,0,.43-0.16l0.46-.21c0.18-.07.36-0.2,0.57-0.3s0.42-.25.64-0.4,0.44-.32.67-0.48a8.53,8.53,0,0,0,1.25-1.22,6.75,6.75,0,0,0,.52-0.71,8,8,0,0,0,.42-0.75,9.06,9.06,0,0,0,.59-1.45l0.2-.62,0.12-.5c0.08-.28.13-0.44,0.13-0.44s0,0.16.11,0.45a4.56,4.56,0,0,1,.12,1.22,3.58,3.58,0,0,1-.07.83,3.9,3.9,0,0,1-.22.92,5.74,5.74,0,0,1-1,1.81,6.79,6.79,0,0,1-.75.74,5.74,5.74,0,0,1-.83.59,6,6,0,0,1-1.65.64,4.36,4.36,0,0,1-1.24.1,1.65,1.65,0,0,1-.34-0.05Z"/><path class="cls-13" d="M125.76,91.65s-0.09-.15-0.22-0.41a4.4,4.4,0,0,1-.32-1.23,4.65,4.65,0,0,1,0-.86,4.47,4.47,0,0,1,.16-1,4.42,4.42,0,0,1,.4-1,5.49,5.49,0,0,1,.64-0.91,4.9,4.9,0,0,1,.88-0.7,4.31,4.31,0,0,1,1-.45,4.86,4.86,0,0,1,1-.16,3.93,3.93,0,0,1,.86,0c0.26,0,.5.09,0.7,0.13s0.37,0.13.51,0.19l0.43,0.19-0.47,0-0.52,0-0.65.1c-0.24,0-.47.12-0.73,0.16s-0.49.19-.76,0.27a5.71,5.71,0,0,0-.71.42,3.87,3.87,0,0,0-.64.55,4.33,4.33,0,0,0-.51.68,5.52,5.52,0,0,0-.4.75,7.88,7.88,0,0,0-.28.77c-0.09.25-.12,0.5-0.19,0.73a10.09,10.09,0,0,0-.13,1.15C125.77,91.48,125.76,91.65,125.76,91.65Z"/><path class="cls-13" d="M135.16,101s0.3-.18.67-0.37a6.71,6.71,0,0,0,1.13-.71,3,3,0,0,0,.27-0.21c0.07-.09.19-0.14,0.26-0.23L138,99l0.42-.35,0.19-.13a1.92,1.92,0,0,1,0,.81,2.31,2.31,0,0,1-.28.78,2.5,2.5,0,0,1-.64.75,2.34,2.34,0,0,1-.91.42,2.08,2.08,0,0,1-.85,0A1.78,1.78,0,0,1,135.16,101Z"/><path class="cls-14" d="M153.36,76.45h28.42A1.23,1.23,0,0,1,183,77.68v28.07a1.23,1.23,0,0,1-1.23,1.23H153.52a1.23,1.23,0,0,1-1.23-1.23V77.51A1.07,1.07,0,0,1,153.36,76.45Z"/><rect class="cls-10" x="133.74" y="39.31" width="30.72" height="30.54" rx="1.07" ry="1.07"/><path class="cls-15" d="M167.81,94.87a2.24,2.24,0,0,1-.36-0.2,2.7,2.7,0,0,1-.75-0.83,3.28,3.28,0,0,1-.46-1.55,2.89,2.89,0,0,1,.15-1,2.27,2.27,0,0,1,.65-0.93l0.25-.16,0.1-.06,0,0,0.09,0a3,3,0,0,1,.5-0.18,1.8,1.8,0,0,1,1.11.1,1.75,1.75,0,0,1,.74.62,2.4,2.4,0,0,1,.34.69,2.86,2.86,0,0,1,.12,1.07,3.09,3.09,0,0,1-.06.39,3,3,0,0,0-.15-0.36,3.74,3.74,0,0,0-.48-0.82A1.55,1.55,0,0,0,168.8,91a1,1,0,0,0-.45.07,1.82,1.82,0,0,0-.25.13l-0.09.05,0,0c0.06,0,0,0,0,0l-0.08.09a1.84,1.84,0,0,0-.37,1,5.07,5.07,0,0,0,0,1.2,7,7,0,0,0,.15.94Z"/><path class="cls-15" d="M165.5,94.1l-0.16-.16a2.32,2.32,0,0,1-.36-0.56,4.9,4.9,0,0,1-.37-2.35,6,6,0,0,1,.34-1.6,4.78,4.78,0,0,1,1-1.63,3.62,3.62,0,0,1,1.87-1.07,4.06,4.06,0,0,1,2.18.16,3.58,3.58,0,0,1,1.77,1.34,4.67,4.67,0,0,1,.77,1.89,6.69,6.69,0,0,1-.32,3.38,6.94,6.94,0,0,1-1.14,2,6,6,0,0,1-.6.63,7.43,7.43,0,0,0,.4-0.76,8.21,8.21,0,0,0,.66-2.09,6.77,6.77,0,0,0-.09-2.95,3.85,3.85,0,0,0-.68-1.38,2.64,2.64,0,0,0-1.19-.83,3.1,3.1,0,0,0-1.49-.09,2.53,2.53,0,0,0-1.24.65,5.24,5.24,0,0,0-1.36,2.46,5.94,5.94,0,0,0-.2,2.13A2.36,2.36,0,0,0,165.5,94.1Z"/><path class="cls-15" d="M172.67,86.89s-0.11-.11-0.27-0.31a4.54,4.54,0,0,0-.71-0.69,5.67,5.67,0,0,0-.51-0.37c-0.18-.12-0.39-0.22-0.6-0.33a5.88,5.88,0,0,0-.67-0.27,6.66,6.66,0,0,0-.72-0.22,10.15,10.15,0,0,0-1.48-.24c-0.24,0-.48,0-0.71,0s-0.45,0-.65,0a9.39,9.39,0,0,0-1,.12l-0.41.06s0.09-.12.29-0.3a2.06,2.06,0,0,1,.37-0.31,2.74,2.74,0,0,1,.54-0.32,4.59,4.59,0,0,1,1.53-.45,5.34,5.34,0,0,1,.91,0,5.17,5.17,0,0,1,.94.14,4.92,4.92,0,0,1,.9.32,4.47,4.47,0,0,1,.8.48,3.77,3.77,0,0,1,.64.59,2.93,2.93,0,0,1,.44.64,2.29,2.29,0,0,1,.25.6,1.57,1.57,0,0,1,.1.47C172.67,86.73,172.67,86.89,172.67,86.89Z"/><path class="cls-15" d="M167.79,98.37h0.71c0.23,0,.48-0.08.76-0.11s0.29-.09.44-0.14a1.84,1.84,0,0,0,.46-0.19,5,5,0,0,0,.93-0.6,7.64,7.64,0,0,0,.86-0.89l0.39-.53c0.11-.2.24-0.39,0.36-0.58a10.28,10.28,0,0,0,.6-1.27,9.73,9.73,0,0,0,.79-3.94c0-.41,0-0.81-0.07-1.17a10.42,10.42,0,0,0-.35-1.75c-0.12-.42-0.22-0.67-0.22-0.67a4.25,4.25,0,0,1,.46.55,6.31,6.31,0,0,1,.87,1.7A7.36,7.36,0,0,1,175.1,90a7,7,0,0,1,.12,1.45,8.91,8.91,0,0,1-.65,3.1,11.61,11.61,0,0,1-.74,1.44,8.05,8.05,0,0,1-1,1.24,5.93,5.93,0,0,1-1.18.92,4.3,4.3,0,0,1-1.25.5,3.91,3.91,0,0,1-1.12.11,5.06,5.06,0,0,1-.84-0.14Z"/><path class="cls-15" d="M161.73,90.24a8.07,8.07,0,0,0,0,.85,10.72,10.72,0,0,0,.28,2.15,7.46,7.46,0,0,0,1.2,2.65,7,7,0,0,0,1.09,1.19,13.21,13.21,0,0,0,1.38,1.07,21.67,21.67,0,0,0,3,1.75c1,0.5,2,.91,2.83,1.34a6.78,6.78,0,0,1,1.9,1.29,2.67,2.67,0,0,1,.39.52l0.1,0.2a2.65,2.65,0,0,0-.66-0.51,9.27,9.27,0,0,0-2-.78c-0.87-.25-1.92-0.54-3-1a15.81,15.81,0,0,1-3.3-1.73A13.47,13.47,0,0,1,163.39,98a6.59,6.59,0,0,1-1.21-1.5,6.36,6.36,0,0,1-.72-1.64,6.71,6.71,0,0,1-.26-1.56,7.35,7.35,0,0,1,.24-2.29A4.74,4.74,0,0,1,161.73,90.24Z"/><path class="cls-15" d="M160.46,96s0.08,0.2.21,0.55a3.16,3.16,0,0,0,.24.61c0.13,0.21.23,0.45,0.38,0.69s0.34,0.5.57,0.74a7.56,7.56,0,0,0,.75.71L163,99.66,163.5,100c0.3,0.23.67,0.39,1,.59s0.7,0.36,1.06.51,0.71,0.32,1.07.45c0.7,0.28,1.38.52,2,.73,1.17,0.41,2,.72,2,0.72a9.7,9.7,0,0,1-2.14.05,11.81,11.81,0,0,1-2.17-.36,10,10,0,0,1-1.2-.37,12.46,12.46,0,0,1-1.2-.53,9.51,9.51,0,0,1-1.12-.72,5.92,5.92,0,0,1-1-.88,5.17,5.17,0,0,1-.74-1,6,6,0,0,1-.45-1,6.09,6.09,0,0,1-.18-0.92,2.32,2.32,0,0,1,0-.68C160.43,96.23,160.46,96,160.46,96Z"/><path class="cls-15" d="M160.12,93.79s-0.11-.3-0.27-0.82c-0.08-.26-0.19-0.58-0.27-1s-0.13-.82-0.18-1.31a11.5,11.5,0,0,1,0-1.57,11.34,11.34,0,0,1,.3-1.75,8.6,8.6,0,0,1,.74-1.78A9.14,9.14,0,0,1,161.58,84a8.94,8.94,0,0,1,1.57-1.26,3.88,3.88,0,0,1,.87-0.46,4.82,4.82,0,0,1,.9-0.34c0.31-.07.6-0.18,0.9-0.22l0.88-.08a6.81,6.81,0,0,1,1.59.13,5.48,5.48,0,0,1,1.27.4,4.35,4.35,0,0,1,.9.47c0.46,0.32.7,0.51,0.7,0.51l-0.82-.26a5.75,5.75,0,0,0-.93-0.21,7.12,7.12,0,0,0-1.21-.12,3.33,3.33,0,0,0-.68,0,4.75,4.75,0,0,0-.72.08l-0.74.16c-0.25.08-.49,0.17-0.75,0.26a3.8,3.8,0,0,0-.73.34,4.48,4.48,0,0,0-.71.42,7.23,7.23,0,0,0-2.3,2.44,9.83,9.83,0,0,0-.74,1.49c-0.15.52-.33,1-0.43,1.52s-0.2,1-.22,1.43-0.05.86-.08,1.23l0,1C160.13,93.47,160.12,93.79,160.12,93.79Z"/><path class="cls-15" d="M160.28,83.68l0.52-.85a4.53,4.53,0,0,1,.74-0.89,6.41,6.41,0,0,1,.52-0.52l0.65-.48a8.42,8.42,0,0,1,1.6-.88,8.88,8.88,0,0,1,2-.5,8.37,8.37,0,0,1,2.22,0l1.13,0.22c0.37,0.1.73,0.26,1.09,0.39a5.72,5.72,0,0,1,1,.54,4.7,4.7,0,0,1,.94.65,8.49,8.49,0,0,1,.84.75l0.7,0.85a11,11,0,0,1,1,1.77,15.83,15.83,0,0,1,.57,1.72c0.1,0.55.18,1,.25,1.49a11.33,11.33,0,0,1,0,1.15c0,0.64,0,1,0,1l-0.25-1c-0.08-.3-0.15-0.67-0.27-1.09s-0.32-.86-0.48-1.35-0.49-1-.73-1.5c-0.14-.26-0.34-0.49-0.51-0.74a5,5,0,0,0-.56-0.74L172.66,83c-0.23-.22-0.51-0.4-0.75-0.61a3.7,3.7,0,0,0-.81-0.54,4.72,4.72,0,0,0-.88-0.44c-0.31-.11-0.61-0.25-0.92-0.35l-1-.21a8.74,8.74,0,0,0-1.91-.09,10.72,10.72,0,0,0-1.79.26l-0.8.28a3,3,0,0,0-.73.31,6.81,6.81,0,0,0-1.21.71A5.39,5.39,0,0,0,161,83Z"/><path class="cls-15" d="M163.53,93.45s0.11,0.11.29,0.3,0.19,0.22.3,0.36l0.41,0.39a4.86,4.86,0,0,0,.48.41,4.51,4.51,0,0,0,.56.38,4.91,4.91,0,0,0,.62.3,3.74,3.74,0,0,0,.66.17,2.64,2.64,0,0,0,.66,0l0.32,0,0.29-.08a2,2,0,0,0,.49-0.27,0.59,0.59,0,0,0,.19-0.18A0.69,0.69,0,0,0,169,95a1.49,1.49,0,0,0,.18-0.46,1.39,1.39,0,0,0,.06-0.42c0-.25,0-0.41,0-0.41a3.8,3.8,0,0,1,.25.34,1.21,1.21,0,0,1,.2.47,1.54,1.54,0,0,1,.05.7,1.74,1.74,0,0,1-.32.82,2.21,2.21,0,0,1-.73.68L168.2,97a5.2,5.2,0,0,1-.51.13,3.17,3.17,0,0,1-1,0,3.76,3.76,0,0,1-1-.3,4.11,4.11,0,0,1-.8-0.55,3,3,0,0,1-.59-0.66,2.78,2.78,0,0,1-.39-0.67,3,3,0,0,1-.3-1.07C163.54,93.6,163.53,93.45,163.53,93.45Z"/><path class="cls-15" d="M171.52,100s0.41-.35.93-0.84c0.26-.24.55-0.53,0.85-0.83s0.58-.64.85-1c0.15-.16.26-0.36,0.39-0.53l0.36-.53,0.32-.53c0.11-.17.18-0.34,0.28-0.5s0.19-.3.25-0.44,0.13-.25.19-0.35,0.19-.31.19-0.31,0,0.13.08,0.35a3.42,3.42,0,0,1,.06,1,3,3,0,0,1-.08.64,4.62,4.62,0,0,1-.19.7,6,6,0,0,1-.32.71,5.11,5.11,0,0,1-.45.67,5,5,0,0,1-1.16,1.07,4.48,4.48,0,0,1-1.23.59A3.08,3.08,0,0,1,171.52,100Z"/><path class="cls-15" d="M163.31,91.92s-0.1-.14-0.26-0.39a4.28,4.28,0,0,1-.42-1.21,4.52,4.52,0,0,1-.07-0.86,4.32,4.32,0,0,1,.1-1,4.53,4.53,0,0,1,.34-1,4.8,4.8,0,0,1,.6-1,4.35,4.35,0,0,1,1.84-1.25,4.63,4.63,0,0,1,1-.19,3.77,3.77,0,0,1,.87,0,4.07,4.07,0,0,1,1.23.3l0.44,0.18-0.46.09L168,85.7c-0.19,0-.41.1-0.64,0.14s-0.46.15-.71,0.21-0.47.22-.72,0.31a5.12,5.12,0,0,0-.66.45,4.52,4.52,0,0,0-.59.56,5.3,5.3,0,0,0-.47.69,5,5,0,0,0-.36.75c-0.08.26-.19,0.51-0.24,0.77s-0.1.5-.16,0.73-0.06.45-.07,0.64,0,0.36,0,.51S163.31,91.92,163.31,91.92Z"/><path class="cls-15" d="M173.78,101.36a2.53,2.53,0,0,1,.12-0.51,1.52,1.52,0,0,1,.17-0.36,1.21,1.21,0,0,1,.25-0.29,1.46,1.46,0,0,1,.7-0.28,4,4,0,0,1,.52,0,1.16,1.16,0,0,1,0,1,1.18,1.18,0,0,1-.31.39,1.25,1.25,0,0,1-.89.27A1.27,1.27,0,0,1,173.78,101.36Z"/><rect class="cls-8" x="96.55" y="39.31" width="30.72" height="30.54" rx="1.07" ry="1.07"/><path class="cls-9" d="M106.23,62.31a1.74,1.74,0,0,0,.89.1,4.6,4.6,0,0,0,2.13-.79,5.72,5.72,0,0,0,1.12-1,5.61,5.61,0,0,0,.9-1.36,7.36,7.36,0,0,0,.57-1.68,12.55,12.55,0,0,0,.3-1.83,1.68,1.68,0,0,0-.29-1.25,0.28,0.28,0,0,0-.1-0.06h0a0.26,0.26,0,0,0-.07,0,0.83,0.83,0,0,0-.26.33,6.64,6.64,0,0,0-.44,1.56,10.84,10.84,0,0,1-.53,1.62A5.87,5.87,0,0,1,109,60.07a3.74,3.74,0,0,1-.56.42l-0.21.12a6,6,0,0,0,.51-0.76,7.55,7.55,0,0,0,.8-2.17,11.86,11.86,0,0,0,.24-1.52,7,7,0,0,1,.41-1.93,1.91,1.91,0,0,1,1-1.07l0.2-.07,0.06,0h0l0.08,0h0a1.51,1.51,0,0,1,.47,0,1.66,1.66,0,0,1,.77.36,2.28,2.28,0,0,1,.73,1.22,3.74,3.74,0,0,1,.08,1.21,12.49,12.49,0,0,1-.4,2.09,8.66,8.66,0,0,1-.82,1.92,6.33,6.33,0,0,1-1.27,1.51,6.06,6.06,0,0,1-1.46.94,4.43,4.43,0,0,1-2.51.37,2,2,0,0,1-.67-0.23A1.19,1.19,0,0,1,106.23,62.31Z"/><path class="cls-9" d="M107.69,57l-0.06-1a13.58,13.58,0,0,1,0-2.62,4.07,4.07,0,0,1,.66-1.8,3.44,3.44,0,0,1,.76-0.81,5.22,5.22,0,0,1,.45-0.3,4.14,4.14,0,0,1,2.94-.46,4.77,4.77,0,0,1,2.15,1.16A5.8,5.8,0,0,1,116,53.11a5.31,5.31,0,0,1,.41,2.28,7.17,7.17,0,0,1-1.14,3.67,6.28,6.28,0,0,1-.94,1.19,5.26,5.26,0,0,1-.89.74,6.07,6.07,0,0,1-.86.48l0.18-.18a5.61,5.61,0,0,0,.49-0.52,7,7,0,0,0,.64-0.87,8.12,8.12,0,0,0,.63-1.22,8.66,8.66,0,0,0,.47-1.53,7.46,7.46,0,0,0,.13-1.73,4.83,4.83,0,0,0-.39-1.69,4.45,4.45,0,0,0-1.06-1.47,3,3,0,0,0-3.09-.79,2.89,2.89,0,0,0-.35.14c-0.1,0-.31.17-0.37,0.21a3,3,0,0,0-.58.48,3.63,3.63,0,0,0-.7,1.3c-0.3.95-.44,1.84-0.59,2.44S107.69,57,107.69,57Z"/><path class="cls-9" d="M106.82,59s-0.15-.32-0.39-0.88a21.45,21.45,0,0,1-.87-2.39,12.27,12.27,0,0,1-.39-1.69,8.48,8.48,0,0,1-.11-2,5.61,5.61,0,0,1,.56-2.17,5,5,0,0,1,1.57-1.8,6.32,6.32,0,0,1,1-.58c0.15-.06.32-0.13,0.54-0.19a5.82,5.82,0,0,1,.57-0.14,7.09,7.09,0,0,1,2.19-.06,7.7,7.7,0,0,1,3.53,1.31,4.46,4.46,0,0,1,1.68,2,3,3,0,0,1,.18.71l0,0.25-0.1-.23a3.92,3.92,0,0,0-.36-0.59,4.74,4.74,0,0,0-1.85-1.45,8.43,8.43,0,0,0-3.2-.75,7.08,7.08,0,0,0-1.8.16l-0.42.12-0.43.17a5.08,5.08,0,0,0-.76.44,3.56,3.56,0,0,0-1.16,1.26,5,5,0,0,0-.53,1.65,13.66,13.66,0,0,0,0,3.38L106.7,58Z"/><path class="cls-9" d="M117.8,53.28a5.42,5.42,0,0,1,.28.72,8.26,8.26,0,0,1,.36,2,8.38,8.38,0,0,1,0,1.39,7.79,7.79,0,0,1-.33,1.53,7.62,7.62,0,0,1-.71,1.54,5.13,5.13,0,0,1-.5.72l-0.13.18,0,0-0.05.06-0.07.08-0.28.31A7.51,7.51,0,0,1,115,63a8.11,8.11,0,0,1-3,1.25,6.56,6.56,0,0,1-1.4.14,5.37,5.37,0,0,1-2-.37,4.32,4.32,0,0,1-.69-0.36l0.2,0a4.61,4.61,0,0,0,.55.06,6.31,6.31,0,0,0,.84,0,8.17,8.17,0,0,0,1.07-.14,9.81,9.81,0,0,0,2.49-.87,11.16,11.16,0,0,0,1.26-.77,10.45,10.45,0,0,0,1.14-1l0.28-.3,0.07-.07,0,0h0l0,0,0.12-.15a7.38,7.38,0,0,0,.45-0.6,6.49,6.49,0,0,0,.7-1.28,6.93,6.93,0,0,0,.45-1.32,9.55,9.55,0,0,0,.24-1.25A11.52,11.52,0,0,0,117.8,53.28Z"/><path class="cls-9" d="M119.54,58.07s0,0.2.1,0.54c0,0.17.06,0.38,0.09,0.62s0,0.53,0,.85a4.74,4.74,0,0,1-.17,1,5.3,5.3,0,0,1-.38,1.07,7.43,7.43,0,0,1-.63,1.06,6.75,6.75,0,0,1-.86.94,6.86,6.86,0,0,1-2.09,1.3,6.49,6.49,0,0,1-1.06.35,6.68,6.68,0,0,1-1,.18A5.88,5.88,0,0,1,112,66a2.65,2.65,0,0,1-.41-0.08l-0.14,0a14.62,14.62,0,0,0,1.83-.64,15.11,15.11,0,0,0,1.7-.85c0.31-.15.58-0.38,0.88-0.57a9.47,9.47,0,0,0,.82-0.67,8.2,8.2,0,0,0,.74-0.75c0.21-.27.44-0.53,0.62-0.82a9.24,9.24,0,0,0,.48-0.84c0.12-.29.29-0.55,0.36-0.81s0.18-.5.27-0.72l0.16-.61C119.47,58.26,119.54,58.07,119.54,58.07Z"/><path class="cls-9" d="M119.75,56.56s0-.32,0-0.88v-1c0-.38-0.1-0.8-0.13-1.25s-0.21-.93-0.3-1.43a16,16,0,0,0-.56-1.5,9.16,9.16,0,0,0-.91-1.42,8.07,8.07,0,0,0-1.18-1.26,8.75,8.75,0,0,0-1.45-1,9.08,9.08,0,0,0-1.56-.67,9.49,9.49,0,0,0-1.57-.32,10.44,10.44,0,0,0-1.45-.06,12.32,12.32,0,0,0-1.22.19,8.1,8.1,0,0,0-.93.29l-0.79.37s0.22-.22.66-0.6a5.49,5.49,0,0,1,.88-0.55,6.13,6.13,0,0,1,2.9-.66,8,8,0,0,1,.9,0c0.3,0,.61.1,0.93,0.15s0.62,0.18.93,0.27a4.08,4.08,0,0,1,.92.38,9.88,9.88,0,0,1,1.73,1.09,9.4,9.4,0,0,1,1.37,1.52,8.29,8.29,0,0,1,.95,1.73,10.34,10.34,0,0,1,.45,1.77,9.88,9.88,0,0,1,.09,1.61c0,0.5-.09,1-0.13,1.35s-0.18.71-.25,1C119.85,56.25,119.75,56.56,119.75,56.56Z"/><path class="cls-9" d="M117.79,45.31l-0.8-.36a5.54,5.54,0,0,0-.92-0.38,9.13,9.13,0,0,0-1.19-.37,8.9,8.9,0,0,0-1.44-.26,10.75,10.75,0,0,0-1.6-.07c-0.28,0-.55.06-0.84,0.09a4.49,4.49,0,0,0-.84.16,8.58,8.58,0,0,0-1.64.55,8,8,0,0,0-1.46.91,3.91,3.91,0,0,0-.63.55,4.31,4.31,0,0,0-.57.6c-0.16.22-.31,0.44-0.48,0.65s-0.26.46-.38,0.68a8.35,8.35,0,0,0-.57,1.33,11.3,11.3,0,0,0-.31,1.21,5.84,5.84,0,0,0-.15,1l-0.11.87s-0.07-.31-0.16-0.87a4.46,4.46,0,0,1-.1-1,7.41,7.41,0,0,1,.07-1.34,6.62,6.62,0,0,1,.4-1.57c0.11-.27.2-0.56,0.34-0.83s0.32-.53.49-0.8a5.38,5.38,0,0,1,.61-0.76l0.33-.38c0.12-.11.26-0.21,0.39-0.32a9.18,9.18,0,0,1,1.71-1.12,9.9,9.9,0,0,1,1.94-.6l0.49-.1,0.49,0c0.33,0,.65,0,1,0a8.3,8.3,0,0,1,1.79.27,6.9,6.9,0,0,1,1.52.52,6.57,6.57,0,0,1,1.18.65,4.27,4.27,0,0,1,.81.61C117.56,45.09,117.79,45.31,117.79,45.31Z"/><path class="cls-9" d="M103.8,53.74s0.05,0.14.13,0.4l0.29,1c0.12,0.41.26,0.88,0.42,1.38a14.44,14.44,0,0,0,.59,1.49,7.75,7.75,0,0,0,.35.72c0.14,0.22.25,0.46,0.39,0.67a8.66,8.66,0,0,0,1.56,1.84l0.31,0.27-0.42-.06a3.67,3.67,0,0,1-1-.41,3.88,3.88,0,0,1-.63-0.43,4.42,4.42,0,0,1-.61-0.59,6.07,6.07,0,0,1-1-1.53,8.79,8.79,0,0,1-.32-0.87,7.75,7.75,0,0,1-.2-0.86,7.33,7.33,0,0,1-.09-1.55,5.62,5.62,0,0,1,.15-1.08C103.76,53.89,103.8,53.74,103.8,53.74Z"/><path class="cls-9" d="M110.79,65.85a3.5,3.5,0,0,1-1.26.3,4.63,4.63,0,0,1-1.35-.09,5,5,0,0,1-.75-0.22,5.74,5.74,0,0,1-.73-0.38,3.93,3.93,0,0,1-.64-0.52,3.05,3.05,0,0,1-.51-0.61,2.8,2.8,0,0,1-.35-0.65,2.25,2.25,0,0,1-.19-0.62,2.93,2.93,0,0,1-.08-0.95c0-.23,0-0.36,0-0.36l0.2,0.3c0.06,0.09.13,0.21,0.2,0.34s0.19,0.26.28,0.41a3.81,3.81,0,0,0,.33.45,5,5,0,0,0,.4.45,4.36,4.36,0,0,0,.46.42,3,3,0,0,0,.52.37,4.58,4.58,0,0,0,.56.33c0.2,0.08.39,0.2,0.59,0.27,0.39,0.17.78,0.29,1.12,0.41Z"/><rect class="cls-14" x="59.32" y="39.31" width="30.72" height="30.54" rx="1.07" ry="1.07"/><path class="cls-15" d="M78.1,55.95a1.74,1.74,0,0,1-.35.1,2,2,0,0,1-1-.1,2.41,2.41,0,0,1-1.17-.89,2.26,2.26,0,0,1-.36-0.82,1.66,1.66,0,0,1,.1-1.05,1.31,1.31,0,0,1,.35-0.48l0.12-.09,0.12-.07,0.16-.09a1.57,1.57,0,0,1,1-.16,1.42,1.42,0,0,1,.78.42,2,2,0,0,1,.39.58,2.39,2.39,0,0,1,.2.93,2.16,2.16,0,0,1,0,.35,2.56,2.56,0,0,0-.16-0.3,3.08,3.08,0,0,0-.5-0.66A1,1,0,0,0,77,53.24a1,1,0,0,0-.33.13l-0.14.11s-0.09.06,0,0l0,0a1,1,0,0,0-.05.11,1.28,1.28,0,0,0,.15.82,2.81,2.81,0,0,0,.58.81,3.57,3.57,0,0,0,.65.5Z"/><path class="cls-15" d="M79,51.72s-0.2-.14-0.52-0.32a4.46,4.46,0,0,0-1.39-.5,2.86,2.86,0,0,0-1.82.28c-0.14.08-.32,0.18-0.43,0.26a2,2,0,0,0-.37.37,2.34,2.34,0,0,0-.42,1A3.71,3.71,0,0,0,74.36,55a4.91,4.91,0,0,0,1.3,1.64,5.56,5.56,0,0,0,1.32.81,4.46,4.46,0,0,0,.56.22,4.5,4.5,0,0,1-.61-0.07,4.9,4.9,0,0,1-3.28-2.21A4.22,4.22,0,0,1,73,52.61a3,3,0,0,1,.57-1.45,3.17,3.17,0,0,1,.53-0.55,3.33,3.33,0,0,1,.63-0.41,3.14,3.14,0,0,1,1.36-.34,2.92,2.92,0,0,1,1.21.23,3.17,3.17,0,0,1,1.36,1.07,2.43,2.43,0,0,1,.24.41Z"/><path class="cls-15" d="M80.28,49.64l-0.4-.24a5.8,5.8,0,0,0-1-.51,5.58,5.58,0,0,0-.69-0.24c-0.24-.09-0.52-0.11-0.78-0.18a9.68,9.68,0,0,0-1.72-.1,10.63,10.63,0,0,0-1.72.24c-0.26.08-.54,0.14-0.78,0.23s-0.48.16-.69,0.26a8.19,8.19,0,0,0-1,.52l-0.4.23s0.07-.15.21-0.42A2.41,2.41,0,0,1,71.57,49a2.93,2.93,0,0,1,.49-0.52,5.14,5.14,0,0,1,1.52-1,5.86,5.86,0,0,1,1-.31A6.43,6.43,0,0,1,75.62,47a6.26,6.26,0,0,1,1.07.06,5.94,5.94,0,0,1,1,.24,4.66,4.66,0,0,1,.88.41,3.32,3.32,0,0,1,.7.51,2.89,2.89,0,0,1,.5.53,1.87,1.87,0,0,1,.3.45C80.21,49.48,80.28,49.64,80.28,49.64Z"/><path class="cls-15" d="M72.93,64.58a6.48,6.48,0,0,1,1.65-.69c0.51-.16,1.1-0.29,1.72-0.41s1.27-.23,1.89-0.36c0.32-.05.61-0.14,0.91-0.2s0.57-.15.82-0.26a5.46,5.46,0,0,0,.71-0.31,3.89,3.89,0,0,0,.55-0.41,2.13,2.13,0,0,0,.41-0.46A1.82,1.82,0,0,0,81.88,61c0.14-.26.24-0.43,0.24-0.43a4.61,4.61,0,0,1,.09.5,1.49,1.49,0,0,1,0,.6l-0.06.38a4,4,0,0,1-.16.4,2.84,2.84,0,0,1-.54.83,4,4,0,0,1-.84.68,6.22,6.22,0,0,1-2.08.78,12.55,12.55,0,0,1-3.86.08C73.65,64.73,72.93,64.58,72.93,64.58Z"/><path class="cls-15" d="M69.62,51.1s0,0.24-.1.64a6.89,6.89,0,0,0-.12.72c0,0.27,0,.57-0.06.87l0.06,1a8.34,8.34,0,0,0,.24,1.08L69.81,56l0.25,0.54a8.84,8.84,0,0,0,.59,1.07,11.07,11.07,0,0,0,.74,1c0.25,0.33.55,0.62,0.81,0.92s0.55,0.57.84,0.8,0.55,0.48.81,0.68a14.8,14.8,0,0,0,1.32.93l0.56,0.31a6.26,6.26,0,0,1-.65,0c-0.2,0-.46-0.06-0.74-0.13a8,8,0,0,1-2-.81,9.55,9.55,0,0,1-1.09-.72,9.23,9.23,0,0,1-1-1,8.51,8.51,0,0,1-.91-1.16,7.53,7.53,0,0,1-.67-1.33l-0.24-.7-0.13-.71a6.29,6.29,0,0,1-.05-1.36,10.32,10.32,0,0,1,.22-1.18c0.13-.36.27-0.67,0.39-0.94a3.66,3.66,0,0,1,.39-0.62C69.47,51.28,69.62,51.1,69.62,51.1Z"/><path class="cls-15" d="M66.46,53.22s0-.25,0-0.69a4.05,4.05,0,0,1,.06-0.79,7.48,7.48,0,0,1,.21-1,6.9,6.9,0,0,1,.43-1.18,6.35,6.35,0,0,1,.7-1.24,7.66,7.66,0,0,1,1-1.18,9.2,9.2,0,0,1,1.27-1,4.25,4.25,0,0,1,.71-0.38,5.65,5.65,0,0,1,.74-0.31l0.76-.23,0.76-.12a6.33,6.33,0,0,1,1.44,0,5.46,5.46,0,0,1,1.25.25,4.32,4.32,0,0,1,1,.39,3.4,3.4,0,0,1,.7.4c0.36,0.26.56,0.42,0.56,0.42l-0.68-.13a5.27,5.27,0,0,0-.75-0.12,6.6,6.6,0,0,0-1-.07,8.82,8.82,0,0,0-1.11,0,10,10,0,0,0-1.19.2l-0.61.17-0.6.23a4.3,4.3,0,0,0-.59.28,3.32,3.32,0,0,0-.57.33,7.64,7.64,0,0,0-1.07.76,10.65,10.65,0,0,0-.92.91,9.76,9.76,0,0,0-.77,1c-0.25.31-.41,0.65-0.62,0.95s-0.31.59-.46,0.85a7.42,7.42,0,0,0-.33.7C66.58,53,66.46,53.22,66.46,53.22Z"/><path class="cls-15" d="M75.94,44.54l0.42-.13a2.13,2.13,0,0,1,.52-0.07,3.21,3.21,0,0,1,.69,0,4.82,4.82,0,0,1,.79.18,5.41,5.41,0,0,1,.83.35,5.59,5.59,0,0,1,.82.49c0.27,0.18.51,0.4,0.77,0.61A7.72,7.72,0,0,1,82,47.48,5.52,5.52,0,0,1,82.67,49a3.23,3.23,0,0,1,.12.66,2.49,2.49,0,0,1,0,.52c0,0.29-.05.44-0.05,0.44s-0.08-.15-0.2-0.39S82.4,50,82.31,49.84,82.1,49.52,82,49.33s-0.29-.36-0.42-0.57L81,48.17A16.83,16.83,0,0,0,79.87,47c-0.21-.19-0.42-0.39-0.64-0.56S78.8,46,78.58,45.9a10.34,10.34,0,0,0-1.24-.8C77.15,45,77,44.89,76.81,44.84a3.51,3.51,0,0,0-.44-0.17Z"/><path class="cls-15" d="M77.86,59.41l-0.7.11a2.78,2.78,0,0,1-.81,0,5,5,0,0,1-1.1-.14A5.1,5.1,0,0,1,74,59l-0.64-.33c-0.2-.14-0.4-0.3-0.6-0.46a3.47,3.47,0,0,1-.58-0.53A4.48,4.48,0,0,1,71.68,57l-0.45-.69c-0.14-.24-0.24-0.5-0.35-0.76a3.72,3.72,0,0,1-.24-0.81A3.52,3.52,0,0,1,70.51,54a4.48,4.48,0,0,1,0-.83l0.14-.81a4.14,4.14,0,0,1,.68-1.38,3.57,3.57,0,0,1,1-.95,4,4,0,0,1,1-.51,2.74,2.74,0,0,1,.8-0.22l0.7-.11-0.6.37a3.34,3.34,0,0,0-.64.43l-0.36.3a1.47,1.47,0,0,0-.36.35,3.66,3.66,0,0,0-.61.9,4.16,4.16,0,0,0-.37,1.1l0,0.62c0,0.21,0,.42,0,0.63a2.45,2.45,0,0,0,.13.64,2.75,2.75,0,0,0,.21.63c0.09,0.2.16,0.42,0.26,0.62l0.35,0.57a7,7,0,0,0,.83,1c0.15,0.15.31,0.29,0.46,0.44l0.49,0.36a6.69,6.69,0,0,0,1,.58,7.48,7.48,0,0,0,.9.36,3.54,3.54,0,0,0,.76.2Z"/><path class="cls-15" d="M81.82,55.43s0-.12,0-0.33a3.53,3.53,0,0,0,0-.37c0-.14,0-0.28,0-0.43a4.53,4.53,0,0,0-.22-1,4.24,4.24,0,0,0-.22-0.52,3.37,3.37,0,0,0-.3-0.5,9.68,9.68,0,0,0-1.53-1.72l-0.87-.76a3.06,3.06,0,0,1,1.19.21,4.31,4.31,0,0,1,1.11.59,4.24,4.24,0,0,1,1,1.06,3.41,3.41,0,0,1,.55,1.42,2.94,2.94,0,0,1-.11,1.31,4.19,4.19,0,0,1-.21.48,1.62,1.62,0,0,1-.21.31Z"/><path class="cls-15" d="M78.25,57.73l0.21-.19c0.14-.11.31-0.27,0.51-0.45a2.19,2.19,0,0,0,.8-1.37,4,4,0,0,0,0-.9c0-.31-0.1-0.62-0.14-0.9s-0.08-.52-0.11-0.69,0-.28,0-0.28a3,3,0,0,1,.71.71,3.56,3.56,0,0,1,.51.91,2.79,2.79,0,0,1,.15.6,3.17,3.17,0,0,1,0,.68,2.72,2.72,0,0,1-.21.69,2,2,0,0,1-.41.55,2.28,2.28,0,0,1-1,.55,2.31,2.31,0,0,1-.74.1Z"/><path class="cls-15" d="M80.94,44.9l-0.55-.32a3.88,3.88,0,0,0-.63-0.32A6,6,0,0,0,79,43.92a7.72,7.72,0,0,0-1-.3c-0.34-.12-0.74-0.13-1.12-0.22s-0.8-.09-1.21-0.08a8.21,8.21,0,0,0-1.24,0,8.48,8.48,0,0,0-1.23.18l-0.59.14L72,43.88a11,11,0,0,0-1,.44,8.22,8.22,0,0,0-.87.53,4.6,4.6,0,0,0-.68.55,3.73,3.73,0,0,0-.49.49l-0.41.48s0.05-.22.18-0.61A2.75,2.75,0,0,1,69,45.08a3.48,3.48,0,0,1,.56-0.8,5.17,5.17,0,0,1,.85-0.8,6.49,6.49,0,0,1,1.12-.68,6.42,6.42,0,0,1,1.31-.49A7.89,7.89,0,0,1,75.71,42a8.62,8.62,0,0,1,1.37.21,7.49,7.49,0,0,1,1.22.43,5.06,5.06,0,0,1,1,.56,4.07,4.07,0,0,1,.77.6,2.84,2.84,0,0,1,.5.53C80.81,44.7,80.94,44.9,80.94,44.9Z"/><path class="cls-15" d="M82.89,55.11s0.06,0.17.14,0.48a2.32,2.32,0,0,1,.07.58,3.23,3.23,0,0,1,0,.77,4.66,4.66,0,0,1-.22.89,5.09,5.09,0,0,1-.46.92,5.27,5.27,0,0,1-.67.88,5.51,5.51,0,0,1-1.89,1.29,4.75,4.75,0,0,1-1.08.29,3.74,3.74,0,0,1-1,0,3.91,3.91,0,0,1-.91-0.15,4.15,4.15,0,0,1-.71-0.27,2.35,2.35,0,0,1-.5-0.29c-0.26-.18-0.4-0.3-0.4-0.3l0.49,0a3.86,3.86,0,0,0,.54,0c0.21,0,.43,0,0.68,0a7.21,7.21,0,0,0,.77-0.08,5.23,5.23,0,0,0,.82-0.2,6.85,6.85,0,0,0,.82-0.32,5.34,5.34,0,0,0,.78-0.47,5.1,5.1,0,0,0,.73-0.56,7.74,7.74,0,0,0,.62-0.65c0.2-.22.35-0.46,0.52-0.68s0.29-.45.38-0.68a5.8,5.8,0,0,0,.27-0.61,3.55,3.55,0,0,0,.17-0.51C82.84,55.28,82.89,55.11,82.89,55.11Z"/><path class="cls-15" d="M73.36,63.25l-0.53.12a5.28,5.28,0,0,1-2.42-.32,5.6,5.6,0,0,1-1-.48,6.34,6.34,0,0,1-1-.7A6.42,6.42,0,0,1,67.58,61a6,6,0,0,1-.66-1.06,7,7,0,0,1-.44-1.12,6.73,6.73,0,0,1-.22-2.08,5.6,5.6,0,0,1,.26-1.42c0.1-.33.17-0.51,0.17-0.51s0,0.2.1,0.53l0.09,0.59c0.05,0.23.11,0.48,0.16,0.75s0.17,0.55.24,0.85,0.23,0.59.33,0.9,0.28,0.61.47,0.89a6.87,6.87,0,0,0,.57.85,7.65,7.65,0,0,0,.68.77,8,8,0,0,0,.75.68c0.27,0.19.52,0.4,0.78,0.56s0.51,0.31.76,0.44,0.48,0.22.68,0.32l0.55,0.2Z"/><path class="cls-11" d="M145.64,56.79l0.31-.19a3.86,3.86,0,0,0,.64-0.51,3,3,0,0,0,.56-0.78,1.37,1.37,0,0,0,.17-0.7V54.53l0,0h0l0,0-0.14-.12a0.8,0.8,0,0,0-.24-0.14,0.94,0.94,0,0,0-.75.28,3.18,3.18,0,0,0-.57.6,2.59,2.59,0,0,0-.2.28,2.13,2.13,0,0,1,0-.36,2.36,2.36,0,0,1,.22-1,2.08,2.08,0,0,1,.42-0.59,1.5,1.5,0,0,1,.85-0.42,1.69,1.69,0,0,1,1.09.21l0.15,0.09,0,0h0l0.07,0.05,0.12,0.1a1.49,1.49,0,0,1,.36.55,1.8,1.8,0,0,1,0,1.14,2.22,2.22,0,0,1-.44.84,2.45,2.45,0,0,1-1.28.83,2,2,0,0,1-1,0A1.64,1.64,0,0,1,145.64,56.79Z"/><path class="cls-11" d="M145,52.53a2.77,2.77,0,0,1,.3-0.59,3.13,3.13,0,0,1,4.11-.9,3.65,3.65,0,0,1,.65.47,3.15,3.15,0,0,1,1,2.19,4.35,4.35,0,0,1-.89,2.82,4.93,4.93,0,0,1-1.89,1.55,4.78,4.78,0,0,1-1.62.44,4.52,4.52,0,0,1-.62,0,4.47,4.47,0,0,0,.57-0.22,5.79,5.79,0,0,0,1.33-.79,5,5,0,0,0,1.32-1.58,3.62,3.62,0,0,0,.43-2.11,2,2,0,0,0-.34-0.89,1.92,1.92,0,0,0-.32-0.35,4.22,4.22,0,0,0-.38-0.26,2.87,2.87,0,0,0-1.68-.39,4.9,4.9,0,0,0-1.41.34C145.25,52.42,145,52.53,145,52.53Z"/><path class="cls-11" d="M143.84,50.39s0.07-.16.22-0.42a1.83,1.83,0,0,1,.31-0.44,2.92,2.92,0,0,1,.52-0.52,3.26,3.26,0,0,1,.72-0.49,4.72,4.72,0,0,1,.9-0.38,5.91,5.91,0,0,1,2.11-.21,6.18,6.18,0,0,1,1.06.2,5.48,5.48,0,0,1,1,.36,5.16,5.16,0,0,1,1.47,1.07,2.9,2.9,0,0,1,.45.56,2.38,2.38,0,0,1,.28.48C153,50.88,153,51,153,51l-0.4-.24a8.54,8.54,0,0,0-1-.55c-0.2-.11-0.44-0.18-0.68-0.29s-0.51-.16-0.77-0.25-0.54-.14-0.83-0.19-0.57-.08-0.86-0.12a10.19,10.19,0,0,0-1.7,0c-0.26.07-.54,0.06-0.78,0.14a5.75,5.75,0,0,0-.7.19,6.08,6.08,0,0,0-1.06.44Z"/><path class="cls-11" d="M150.29,65.66s-0.72.09-1.74,0.14a13.74,13.74,0,0,1-3.82-.3,6.24,6.24,0,0,1-2-.85,4,4,0,0,1-.8-0.7,2.82,2.82,0,0,1-.5-0.83,4,4,0,0,1-.14-0.4l0-.38a1.47,1.47,0,0,1,0-.59c0.05-.32.1-0.49,0.1-0.49s0.08,0.17.19,0.45a1.76,1.76,0,0,0,.24.46,2.08,2.08,0,0,0,.37.5,3.65,3.65,0,0,0,.52.46,5.12,5.12,0,0,0,.7.36,8.15,8.15,0,0,0,.81.31c0.3,0.08.59,0.18,0.91,0.25,0.62,0.16,1.27.29,1.88,0.44s1.2,0.29,1.7.46A6.87,6.87,0,0,1,150.29,65.66Z"/><path class="cls-11" d="M154.4,52.35s0.14,0.19.35,0.54a3.57,3.57,0,0,1,.35.65c0.1,0.28.22,0.6,0.32,1a10.14,10.14,0,0,1,.14,1.19,5.85,5.85,0,0,1-.14,1.34l-0.18.7c-0.09.22-.18,0.45-0.28,0.68a7.69,7.69,0,0,1-.75,1.28,8.56,8.56,0,0,1-1,1.1,9.52,9.52,0,0,1-1.08.9,9.9,9.9,0,0,1-1.12.66,8.17,8.17,0,0,1-2,.73c-0.29.06-.54,0.08-0.75,0.1-0.42,0-.65,0-0.65,0l0.58-.27a14.49,14.49,0,0,0,1.38-.85c0.27-.19.56-0.4,0.85-0.64s0.58-.51.89-0.76,0.6-.56.87-0.88a10.91,10.91,0,0,0,.8-1,9,9,0,0,0,.66-1c0.09-.18.18-0.36,0.28-0.53l0.21-.55a8.8,8.8,0,0,0,.3-1.08l0.12-1c0-.31,0-0.61,0-0.88a6.22,6.22,0,0,0-.09-0.72C154.41,52.59,154.4,52.35,154.4,52.35Z"/><path class="cls-11" d="M157.42,54.62s-0.1-.23-0.25-0.64a7.22,7.22,0,0,0-.28-0.72c-0.13-.26-0.24-0.56-0.4-0.88s-0.32-.66-0.56-1a9.34,9.34,0,0,0-.71-1,10,10,0,0,0-.87-1,7.46,7.46,0,0,0-1-.82,3.4,3.4,0,0,0-.56-0.36,4.09,4.09,0,0,0-.58-0.3l-0.59-.26-0.6-.19a9.73,9.73,0,0,0-1.19-.25,8.39,8.39,0,0,0-1.11-.08,6.65,6.65,0,0,0-1,0,5.13,5.13,0,0,0-.76.09l-0.68.1s0.2-.14.58-0.38a3.4,3.4,0,0,1,.72-0.36,4.4,4.4,0,0,1,1-.33,5.41,5.41,0,0,1,1.25-.19,6.35,6.35,0,0,1,1.43.08L152,46.38c0.25,0.07.49,0.16,0.74,0.26a5.33,5.33,0,0,1,.72.34,4.29,4.29,0,0,1,.69.41,8.93,8.93,0,0,1,1.21,1,7.51,7.51,0,0,1,.92,1.22,6.31,6.31,0,0,1,.63,1.26,6.88,6.88,0,0,1,.37,1.19,7.55,7.55,0,0,1,.16,1,4.08,4.08,0,0,1,0,.79C157.44,54.37,157.42,54.62,157.42,54.62Z"/><path class="cls-11" d="M148.47,45.5l-0.43.12a3.6,3.6,0,0,0-.45.17c-0.16,0-.34.17-0.54,0.25s-0.39.23-.61,0.33-0.43.27-.65,0.42-0.44.32-.67,0.48-0.44.35-.67,0.53c-0.44.37-.86,0.75-1.25,1.13l-0.55.56c-0.15.19-.34,0.36-0.46,0.53s-0.28.33-.38,0.48-0.22.28-.28,0.4-0.24.37-.24,0.37a4.54,4.54,0,0,1,0-.45,2.47,2.47,0,0,1,0-.52,3.2,3.2,0,0,1,.15-0.67,6.48,6.48,0,0,1,2.06-3,6.85,6.85,0,0,1,1.66-1,5.27,5.27,0,0,1,.86-0.3,4.71,4.71,0,0,1,.81-0.13,3.22,3.22,0,0,1,.7,0,2.1,2.1,0,0,1,.52.1Z"/><path class="cls-11" d="M145.67,60.25l0.69-.14a3.57,3.57,0,0,0,.77-0.18,7.81,7.81,0,0,0,.91-0.33,7,7,0,0,0,1-.54l0.51-.34c0.15-.15.31-0.28,0.47-0.42a7.24,7.24,0,0,0,.88-1l0.37-.55a6.49,6.49,0,0,0,.3-0.59A5.24,5.24,0,0,0,152,55c0-.21.08-0.42,0.09-0.62V53.75a4,4,0,0,0-.28-1.11,3.52,3.52,0,0,0-.54-0.92,1.39,1.39,0,0,0-.33-0.37L150.57,51a3.3,3.3,0,0,0-.61-0.47l-0.58-.41s0.25,0,.7.14a2.68,2.68,0,0,1,.79.25,3.75,3.75,0,0,1,1,.56l0.5,0.43a3.34,3.34,0,0,1,.42.57,4,4,0,0,1,.6,1.44l0.09,0.83a5.33,5.33,0,0,1-.06.84,3.78,3.78,0,0,1-.19.83,3.61,3.61,0,0,1-.29.8,7.93,7.93,0,0,1-.4.74l-0.49.67a4.89,4.89,0,0,1-.57.58,3.46,3.46,0,0,1-.61.5c-0.21.15-.42,0.3-0.63,0.43l-0.67.3a5.13,5.13,0,0,1-1.26.37,5,5,0,0,1-1.11.08,2.75,2.75,0,0,1-.81-0.09Z"/><path class="cls-11" d="M142,56.09s-0.09-.09-0.23-0.26a1.46,1.46,0,0,1-.23-0.32,3.38,3.38,0,0,1-.22-0.51,3.15,3.15,0,0,1-.12-0.64,2.61,2.61,0,0,1,0-.74,3.32,3.32,0,0,1,.64-1.46,4.17,4.17,0,0,1,2.32-1.52,3.39,3.39,0,0,1,.91-0.1,3,3,0,0,1,.35,0l-0.25.24-0.61.57A14.85,14.85,0,0,0,143,53.08a5.41,5.41,0,0,0-.32.46,4.32,4.32,0,0,0-.25.47,5.18,5.18,0,0,0-.33.95c0,0.15-.05.29-0.08,0.42a3.58,3.58,0,0,0,0,.38C142,56,142,56.09,142,56.09Z"/><path class="cls-11" d="M145.38,58.57l-0.29,0a2.08,2.08,0,0,1-.77-0.08,1.75,1.75,0,0,1-.5-0.2,1.84,1.84,0,0,1-.52-0.39,2.15,2.15,0,0,1-.42-0.62,2.49,2.49,0,0,1-.18-0.75,2.88,2.88,0,0,1,.28-1.33,3.39,3.39,0,0,1,.62-0.88,2.69,2.69,0,0,1,.85-0.62s0,0.11,0,.3,0,0.43-.08.71a10.34,10.34,0,0,0-.17,1.73,1.91,1.91,0,0,0,.16.67,2.81,2.81,0,0,0,.18.33c0.08,0.11.15,0.22,0.24,0.32s0.31,0.39.44,0.53S145.38,58.57,145.38,58.57Z"/><path class="cls-11" d="M143.8,45.59s0.14-.19.39-0.5a2.77,2.77,0,0,1,.52-0.51,4.12,4.12,0,0,1,.8-0.57l0.49-.28,0.55-.23a7.17,7.17,0,0,1,1.25-.37,8.75,8.75,0,0,1,1.39-.15,8,8,0,0,1,1.44.08,8.19,8.19,0,0,1,1.41.34,6.55,6.55,0,0,1,1.28.58,6.72,6.72,0,0,1,1.08.76,5.12,5.12,0,0,1,.79.87,3.45,3.45,0,0,1,.5.85,2.71,2.71,0,0,1,.25.7c0.09,0.41.12,0.63,0.12,0.63s-0.15-.19-0.38-0.5a3.81,3.81,0,0,0-.46-0.51,4.71,4.71,0,0,0-.65-0.58,8.76,8.76,0,0,0-.83-0.57,9.78,9.78,0,0,0-1-.48l-0.55-.21-0.58-.17a10.31,10.31,0,0,0-1.2-.25,9.72,9.72,0,0,0-1.23-.11c-0.41,0-.81,0-1.2,0s-0.77.05-1.12,0.14a7.85,7.85,0,0,0-1,.22A6.51,6.51,0,0,0,145,45a3.93,3.93,0,0,0-.65.27Z"/><path class="cls-11" d="M140.91,55.72s0.05,0.18.11,0.49a3.52,3.52,0,0,0,.16.52,6.17,6.17,0,0,0,.25.61c0.08,0.22.25,0.44,0.35,0.68s0.3,0.46.48,0.69a7,7,0,0,0,.58.66,6.45,6.45,0,0,0,.68.58,6.82,6.82,0,0,0,.74.5,6.74,6.74,0,0,0,.79.36,4.85,4.85,0,0,0,.79.25c0.26,0.08.51,0.08,0.76,0.13s0.47,0,.67,0a4.13,4.13,0,0,0,.54,0h0.5s-0.14.11-.41,0.29a2.35,2.35,0,0,1-.51.28,4.18,4.18,0,0,1-.73.25,3.9,3.9,0,0,1-.92.12,4,4,0,0,1-1-.08,4.89,4.89,0,0,1-1.08-.34,5.58,5.58,0,0,1-1-.61,5,5,0,0,1-1.47-1.73,4.93,4.93,0,0,1-.4-1,4.49,4.49,0,0,1-.16-0.91,3.17,3.17,0,0,1,0-.78,2.24,2.24,0,0,1,.12-0.57C140.83,55.89,140.91,55.72,140.91,55.72Z"/><path class="cls-11" d="M149.94,64.31l0.53-.14L151,64c0.21-.1.45-0.17,0.69-0.3s0.5-.26.77-0.41,0.53-.34.8-0.52a8.25,8.25,0,0,0,.77-0.64,8,8,0,0,0,.72-0.73,7.15,7.15,0,0,0,.62-0.81c0.21-.27.34-0.58,0.52-0.86s0.29-.58.4-0.87,0.22-.56.3-0.83,0.15-.51.22-0.73l0.14-.59c0.08-.33.14-0.53,0.14-0.53s0.06,0.19.15,0.53a5.5,5.5,0,0,1,.2,1.45,6.85,6.85,0,0,1-.32,2.09,6.73,6.73,0,0,1-.51,1.1,6.09,6.09,0,0,1-.73,1,6.5,6.5,0,0,1-.91.87,6.38,6.38,0,0,1-1,.65,5.57,5.57,0,0,1-1,.42,5.26,5.26,0,0,1-2.46.18Z"/></g><ellipse class="cls-6" cx="130.44" cy="54.92" rx="52.15" ry="51.84"/><line class="cls-6" x1="47.45" y1="79.95" x2="90.29" y2="21.82"/><line class="cls-16" x1="51.44" y1="89.75" x2="120.6" y2="105.75"/></svg>