<?xml version="1.0" encoding="utf-8"?>
<!-- Generator: Adobe Illustrator 19.1.0, SVG Export Plug-In . SVG Version: 6.00 Build 0)  -->
<svg version="1.1" id="Layer_1" xmlns="http://www.w3.org/2000/svg" xmlns:xlink="http://www.w3.org/1999/xlink" x="0px" y="0px"
	 width="302.2px" height="285.4px" viewBox="-320 306.4 302.2 285.4" style="enable-background:new -320 306.4 302.2 285.4;"
	 xml:space="preserve">
<style type="text/css">
	.st0{fill:#FFFFFF;stroke:#FFFFFF;stroke-width:5.69;stroke-miterlimit:10;}
	.st1{opacity:0.6;fill:none;stroke:#6AC9D0;stroke-width:4;stroke-linejoin:round;enable-background:new    ;}
	.st2{fill:#083B54;stroke:#083B54;stroke-width:2.67;stroke-linecap:round;stroke-linejoin:round;}
	.st3{fill:#FFFFFF;}
	.st4{opacity:0.3;fill:none;stroke:#6AC9D0;stroke-width:4;stroke-miterlimit:10;enable-background:new    ;}
	.st5{fill:#6AC9D0;}
	.st6{fill:#EF5034;}
	.st7{fill:#083B54;}
	.st8{fill:#F59122;}
	.st9{fill:#083B54;stroke:#083B54;stroke-width:2.6;stroke-linecap:round;stroke-linejoin:round;}
	.st10{fill:#FFFFFF;stroke:#FFFFFF;stroke-width:4.68;stroke-linejoin:round;}
	.st11{fill:#083B54;stroke:#083B54;stroke-width:2.68;stroke-linecap:round;stroke-linejoin:round;}
</style>
<title>ipfs-illustrations-how-4</title>
<path class="st0" d="M-296.8,341.8c-14.6,3.9-23.3,18.9-19.3,33.6c0.1,0.2,0.1,0.4,0.2,0.6v0.2c4.1,14.6,19.3,23.2,33.9,19.1
	c0.2-0.1,0.4-0.1,0.6-0.2c4.3-1.1,8.3-3.3,11.5-6.4c3.3,0,20.5,4,20.5,4s-11.5-13.6-12.5-17.3c1.2-4.8,1.1-9.7-0.3-14.4l-0.1-0.2
	c-4-14.6-19.2-23.2-33.8-19.2C-296.4,341.7-296.6,341.7-296.8,341.8L-296.8,341.8L-296.8,341.8z"/>
<path class="st1" d="M-296.8,341.8c-14.6,3.9-23.3,18.9-19.3,33.6c0.1,0.2,0.1,0.4,0.2,0.6v0.2c4.1,14.6,19.3,23.2,33.9,19.1
	c0.2-0.1,0.4-0.1,0.6-0.2c4.3-1.1,8.3-3.3,11.5-6.4c3.3,0,20.5,4,20.5,4s-11.5-13.6-12.5-17.3c1.2-4.8,1.1-9.7-0.3-14.4l-0.1-0.2
	c-4-14.6-19.2-23.2-33.8-19.2C-296.4,341.7-296.6,341.7-296.8,341.8L-296.8,341.8L-296.8,341.8z"/>
<path class="st2" d="M-297.7,358.2c0.4-1.2,1-2.3,1.9-3.2c0.8-0.9,1.9-1.6,3-2.1c1.2-0.5,2.6-0.8,3.9-0.7c1.2,0,2.4,0.2,3.6,0.6
	c1,0.4,2,0.9,2.8,1.6c0.8,0.7,1.4,1.6,1.8,2.6c0.4,1.1,0.7,2.3,0.6,3.5c0,0.8-0.1,1.6-0.3,2.3c-0.2,0.6-0.5,1.3-0.8,1.9
	c-0.3,0.6-0.7,1.1-1.1,1.5c-0.4,0.5-0.9,0.9-1.3,1.4s-0.9,0.9-1.3,1.3c-0.4,0.4-0.8,0.9-1.2,1.4c-0.4,0.5-0.6,1-0.8,1.6
	c-0.2,0.6-0.3,1.3-0.3,1.9l0,0c0,0.9-0.7,1.6-1.6,1.6c0,0,0,0,0,0h-0.4c-0.9,0-1.6-0.7-1.6-1.6c0,0,0,0,0-0.1v-0.4
	c0-1,0.2-2.1,0.7-3c0.4-0.8,0.8-1.5,1.4-2.2c0.5-0.6,1.1-1.2,1.7-1.8c0.6-0.5,1.1-1.1,1.7-1.7c0.5-0.6,0.9-1.3,1.2-2
	c0.3-0.8,0.5-1.7,0.4-2.6c0-1.3-0.6-2.6-1.5-3.6c-1-0.9-2.2-1.4-3.6-1.3c-0.9,0-1.8,0.2-2.6,0.5c-0.7,0.3-1.3,0.8-1.8,1.5
	c-0.5,0.6-0.9,1.4-1.1,2.2c-0.1,0.4-0.2,0.9-0.2,1.3c-0.1,0.8-0.8,1.4-1.6,1.4h-0.3c-0.9,0-1.6-0.7-1.6-1.6c0-0.1,0-0.1,0-0.2
	C-298.1,359.6-297.9,358.9-297.7,358.2z M-286.9,382.4v0.4c0,1.2-1,2.1-2.1,2.1c0,0,0,0,0,0h-0.4c-1.2,0-2.1-1-2.1-2.1c0,0,0,0,0,0
	v-0.3c0-1.2,1-2.1,2.1-2.1c0,0,0,0,0,0h0.4C-287.9,380.2-286.9,381.2-286.9,382.4C-286.9,382.4-286.9,382.4-286.9,382.4z"/>
<path class="st3" d="M-165.1,472.5c-14.6-2.3-28.3,7.7-30.5,22.3c0,0.2-0.1,0.5-0.1,0.7v0.2c-0.7,4.7-0.1,9.5,1.7,13.9
	c-0.6,3.7-9.8,18.3-9.8,18.3s16-6.2,19.1-6.6c3.6,2.5,7.7,4.1,12,4.6c14.6,2.3,28.3-7.6,30.6-22.2c0-0.2,0.1-0.4,0.1-0.7v-0.2
	c2.2-14.5-7.9-28.1-22.4-30.2C-164.6,472.6-164.9,472.6-165.1,472.5L-165.1,472.5L-165.1,472.5z"/>
<line class="st4" x1="-214.5" y1="536.7" x2="-298.3" y2="486.6"/>
<polyline class="st4" points="-140.6,434.3 -234.5,400.2 -214.5,536.7 "/>
<circle class="st5" cx="-298.3" cy="486.6" r="12.4"/>
<line class="st4" x1="-214.5" y1="536.7" x2="-272.2" y2="579.4"/>
<circle class="st5" cx="-272.2" cy="579.4" r="12.4"/>
<circle class="st6" cx="-140.6" cy="434.3" r="16"/>
<circle class="st7" cx="-236.1" cy="399.8" r="12.4"/>
<circle class="st8" cx="-214.5" cy="536.7" r="12.4"/>
<path class="st1" d="M-165.1,472.5c-14.6-2.3-28.3,7.7-30.5,22.3c0,0.2-0.1,0.5-0.1,0.7v0.2c-0.7,4.7-0.1,9.5,1.7,13.9
	c-0.6,3.7-9.8,18.3-9.8,18.3s16-6.2,19.1-6.6c3.6,2.5,7.7,4.1,12,4.6c14.6,2.3,28.3-7.6,30.6-22.2c0-0.2,0.1-0.4,0.1-0.7v-0.2
	c2.2-14.5-7.9-28.1-22.4-30.2C-164.6,472.6-164.9,472.6-165.1,472.5L-165.1,472.5L-165.1,472.5z"/>
<path class="st9" d="M-178.5,490.6c0.2-1.2,0.7-2.3,1.4-3.3c0.7-1,1.5-1.8,2.6-2.4c1.1-0.7,2.4-1.1,3.7-1.2c1.2-0.2,2.4-0.2,3.5,0.1
	c1,0.2,2,0.6,2.9,1.2c0.9,0.6,1.6,1.4,2.1,2.3c0.6,1,1,2.2,1.1,3.3c0.1,0.8,0.1,1.5,0,2.3c-0.1,0.6-0.3,1.3-0.5,1.9
	c-0.2,0.6-0.5,1.1-0.9,1.6c-0.4,0.5-0.7,1-1.1,1.5c-0.4,0.5-0.7,1-1.1,1.4c-0.4,0.5-0.7,1-0.9,1.5c-0.3,0.5-0.5,1.1-0.6,1.6
	c-0.1,0.6-0.1,1.3,0,1.9l0,0c0.1,0.9-0.5,1.6-1.3,1.8h-0.3c-0.9,0.1-1.6-0.5-1.8-1.3v-0.3c-0.1-1,0-2,0.2-3c0.2-0.8,0.6-1.6,1-2.3
	c0.4-0.7,0.9-1.3,1.4-1.9c0.5-0.6,1-1.2,1.4-1.9c0.4-0.6,0.7-1.3,0.9-2.1c0.2-0.8,0.2-1.7,0-2.6c-0.2-1.3-0.9-2.4-1.9-3.3
	c-1-0.7-2.3-1-3.6-0.8c-0.9,0.1-1.7,0.4-2.4,0.9c-0.6,0.4-1.2,1-1.6,1.6c-0.4,0.7-0.7,1.4-0.7,2.2c-0.1,0.4-0.1,0.9-0.1,1.3
	c0,0.8-0.6,1.5-1.3,1.6h-0.3c-0.9,0.1-1.6-0.5-1.8-1.3c0-0.1,0-0.1,0-0.2C-178.7,491.9-178.6,491.2-178.5,490.6z M-164.9,512.3v0.3
	c0.2,1.1-0.6,2.2-1.8,2.3h-0.3c-1.1,0.2-2.2-0.6-2.3-1.8v-0.3c-0.2-1.1,0.6-2.2,1.8-2.3h0.3C-166.1,510.4-165,511.2-164.9,512.3
	L-164.9,512.3z"/>
<path class="st10" d="M-70.8,310.2c-29.7-0.9-52.3,21.7-53.2,49.8v0.4c-0.3,9,1.8,18,6.1,25.9c-0.3,7.2-11.2,34.3-11.2,34.3
	s25.4-12.6,31.3-14.1c6.8,4,14.9,5.9,23.6,6.2c29.9,0.9,52.5-21.7,53.3-49.6v-0.4C-20.1,334.7-41.2,311.1-70.8,310.2L-70.8,310.2
	L-70.8,310.2z"/>
<path class="st1" d="M-70.8,310.2c-29.7-0.9-52.3,21.7-53.2,49.8v0.4c-0.3,9,1.8,18,6.1,25.9c-0.3,7.2-11.2,34.3-11.2,34.3
	s25.4-12.6,31.3-14.1c6.8,4,14.9,5.9,23.6,6.2c29.9,0.9,52.5-21.7,53.3-49.6v-0.4C-20.1,334.7-41.2,311.1-70.8,310.2L-70.8,310.2
	L-70.8,310.2z"/>
<path class="st11" d="M-59.3,344.5c0.9-1.7,2.1-3.2,3.6-4.4c1.5-1.2,3.2-2.1,5-2.5c2-0.5,4.1-0.6,6.2-0.2c1.9,0.2,3.7,0.8,5.3,1.7
	c1.5,0.8,2.8,1.8,3.8,3.1c1,1.3,1.8,2.8,2.1,4.4c0.4,1.8,0.5,3.7,0.1,5.6c-0.2,1.2-0.5,2.4-1,3.5c-0.5,0.9-1,1.8-1.7,2.6
	c-0.6,0.8-1.3,1.5-2.1,2.1c-0.8,0.6-1.5,1.2-2.3,1.8s-1.5,1.1-2.3,1.6c-0.8,0.5-1.5,1.2-2.1,1.8c-0.6,0.7-1.2,1.4-1.6,2.2
	c-0.5,0.9-0.8,1.9-0.9,2.9l0,0c-0.2,1.4-1.5,2.3-2.8,2.1l-0.5-0.1c-1.4-0.2-2.3-1.5-2.1-2.8l0.1-0.5c0.3-1.6,0.9-3.1,1.7-4.4
	c0.7-1.1,1.6-2.1,2.6-3c0.9-0.8,2-1.6,3-2.3c1-0.7,2-1.4,3-2.2c0.9-0.8,1.7-1.7,2.4-2.7c0.7-1.2,1.1-2.5,1.2-3.9
	c0.3-2-0.2-4.1-1.4-5.8c-1.3-1.6-3.1-2.6-5.1-2.8c-1.4-0.2-2.7-0.2-4.1,0.2c-1.2,0.4-2.2,1-3.1,1.8c-0.9,0.9-1.6,1.9-2.1,3.1
	c-0.3,0.6-0.5,1.3-0.7,1.9c-0.3,1.2-1.5,2-2.7,1.8l-0.5-0.1c-1.4-0.2-2.3-1.5-2.1-2.8c0-0.1,0-0.2,0.1-0.3
	C-60.2,346.6-59.8,345.5-59.3,344.5z M-48.5,383.8l-0.1,0.5c-0.3,1.8-2,3-3.8,2.8c0,0,0,0,0,0l-0.5-0.1c-1.8-0.3-3-2-2.8-3.8
	l0.1-0.5c0.3-1.8,2-3,3.8-2.7h0.5C-49.5,380.3-48.2,382-48.5,383.8C-48.5,383.8-48.5,383.8-48.5,383.8z"/>
<path class="st7" d="M-88.1,369.9c0,0,0.1-0.4,0.2-1c0.1-0.8,0.2-1.6,0.2-2.4c0-1,0-2-0.2-3c-0.1-0.9-0.5-1.7-1-2.3
	c-0.1-0.1-0.1-0.1-0.2-0.2c0,0-0.1-0.1,0,0l-0.1-0.1l-0.2-0.1c-0.2-0.1-0.4-0.2-0.6-0.3c-0.3-0.1-0.7-0.2-1-0.1
	c-0.4,0.1-0.8,0.3-1.1,0.5c-0.4,0.3-0.7,0.6-1,1c-0.5,0.7-0.8,1.4-1.1,2.1c-0.2,0.6-0.3,0.9-0.3,0.9c-0.1-0.3-0.2-0.7-0.2-1
	c-0.1-0.9-0.1-1.8,0.1-2.7c0.1-0.6,0.4-1.3,0.8-1.8c1-1.6,2.8-2.5,4.7-2.1c0.5,0.1,0.9,0.2,1.4,0.4l0.2,0.1l0.1,0.1l0.2,0.1
	c0.2,0.1,0.4,0.3,0.6,0.4c0.4,0.3,0.8,0.7,1.1,1.1c0.3,0.4,0.5,0.8,0.7,1.2c0.3,0.8,0.5,1.6,0.5,2.5c0,1.4-0.3,2.8-1,4
	c-0.4,0.8-1.1,1.6-1.8,2.2c-0.2,0.2-0.4,0.3-0.7,0.4L-88.1,369.9z"/>
<path class="st7" d="M-82.5,367.7l0.2-0.5c0.1-0.5,0.2-1,0.3-1.5c0.1-1.8-0.1-3.6-0.7-5.4c-0.3-1.1-0.8-2.2-1.4-3.2
	c-0.6-1.1-1.4-2.1-2.3-2.9c-0.9-0.8-2.1-1.4-3.3-1.6c-0.6-0.1-1.3-0.1-1.9,0c-0.3,0-0.7,0.1-0.9,0.2l-0.6,0.1l-0.4,0.2
	c-1.2,0.5-2.2,1.3-2.9,2.3c-0.7,1.1-1.2,2.3-1.5,3.6c-0.3,1.3-0.4,2.6-0.3,3.9c0.1,1.2,0.2,2.4,0.5,3.6c0.4,1.8,1.1,3.5,2,5.2
	c0.3,0.6,0.6,1.1,0.8,1.4l0.3,0.5l-0.4-0.4c-0.4-0.4-0.8-0.8-1.1-1.2c-1.3-1.5-2.3-3.2-3-5c-0.5-1.2-0.9-2.5-1.1-3.8
	c-0.2-1.5-0.3-3-0.1-4.5c0.2-1.7,0.8-3.3,1.6-4.8c0.5-0.8,1-1.5,1.7-2.1c0.7-0.6,1.5-1.1,2.4-1.4l0.7-0.3l0.6-0.2
	c0.5-0.1,0.9-0.2,1.4-0.3c2.7-0.4,5.5,0.6,7.4,2.5c1.1,1.1,2,2.4,2.6,3.9c0.5,1.2,0.9,2.6,1.1,3.9c0.3,2,0.1,4-0.5,5.9
	c-0.2,0.5-0.5,1-0.8,1.5C-82.3,367.6-82.5,367.7-82.5,367.7z"/>
<path class="st7" d="M-101.4,350.4c0,0,0-0.4,0-1c0-0.2,0-0.3,0-0.5s0.1-0.4,0.2-0.6l0.2-0.8c0.1-0.2,0.2-0.5,0.4-0.8
	c0.3-0.6,0.6-1.1,1-1.6c0.2-0.3,0.4-0.5,0.7-0.8c0.2-0.3,0.5-0.5,0.8-0.7c0.6-0.5,1.2-0.9,1.9-1.2c0.3-0.2,0.7-0.4,1.1-0.5
	c0.4-0.1,0.7-0.3,1.1-0.4l1.1-0.3c0.4-0.1,0.8-0.1,1.1-0.2l0.6-0.1h0.6c0.4,0,0.8,0,1.1,0c0.7,0.1,1.4,0.2,2.1,0.3l0.9,0.2l0.8,0.3
	c0.5,0.2,1,0.4,1.4,0.7c0.4,0.2,0.7,0.4,1,0.7c0.5,0.4,0.8,0.7,0.8,0.7s-0.4,0-1-0.1c-0.4-0.1-0.7-0.1-1.1-0.2
	c-0.5-0.1-0.9-0.1-1.4-0.1h-0.8h-0.8c-0.6,0-1.2,0.1-1.8,0.1s-1.2,0.1-1.9,0.3c-0.3,0.1-0.6,0.1-0.9,0.2l-0.9,0.2
	c-0.3,0.1-0.6,0.2-0.9,0.3c-0.3,0.1-0.6,0.2-0.9,0.3c-0.3,0.1-0.6,0.2-0.9,0.4c-0.3,0.1-0.5,0.3-0.8,0.4c-0.3,0.1-0.5,0.3-0.8,0.5
	c-0.2,0.1-0.5,0.3-0.7,0.5c-0.4,0.3-0.8,0.6-1.2,1l-0.5,0.5l-0.4,0.5c-0.1,0.2-0.3,0.3-0.4,0.5c-0.1,0.1-0.2,0.3-0.3,0.4
	C-101.2,350.1-101.4,350.4-101.4,350.4z"/>
<path class="st7" d="M-87.6,378.7c0,0-0.6,0.3-1.6,0.7c-0.7,0.2-1.4,0.4-2.1,0.5c-0.4,0-0.9,0-1.3,0c-0.2,0-0.5,0-0.7,0l-0.8-0.1
	c-1.1-0.2-2.2-0.6-3.2-1.1c-0.5-0.3-1.1-0.6-1.6-1c-0.5-0.4-1-0.8-1.5-1.2s-0.9-0.9-1.4-1.4s-0.9-1-1.2-1.6
	c-0.4-0.6-0.8-1.1-1.1-1.7c-0.4-0.6-0.6-1.2-0.9-1.8c-0.3-0.6-0.5-1.2-0.8-1.9c-0.2-0.6-0.4-1.3-0.6-1.9c-0.4-1.3-0.6-2.6-0.7-3.9
	c0-0.6,0-1.3,0-1.9c0-0.6,0.1-1.2,0.1-1.8c0.1-1.1,0.4-2.1,0.7-3.2c0.4-1.6,1.1-3,2-4.4c0.2-0.4,0.5-0.7,0.8-1.1l0.3-0.3l-0.1,0.4
	c-0.1,0.3-0.2,0.7-0.3,1.3c-0.3,1.5-0.5,3-0.6,4.5c0,0.9,0,1.9,0,2.9c0,0.5,0.1,1,0.1,1.6s0.1,1.1,0.2,1.6c0.2,1.1,0.5,2.2,0.9,3.3
	c0.2,0.6,0.4,1.1,0.6,1.6c0.2,0.6,0.5,1.1,0.7,1.6s0.5,1.1,0.8,1.6l0.9,1.5l1,1.4l1,1.3c0.4,0.4,0.7,0.8,1.1,1.1
	c0.3,0.4,0.8,0.7,1.1,1c0.7,0.6,1.5,1,2.4,1.4l0.6,0.3l0.6,0.2c0.4,0.1,0.8,0.2,1.1,0.3c0.7,0.1,1.3,0.2,1.9,0.2
	C-88.3,378.7-87.6,378.7-87.6,378.7z"/>
<path class="st7" d="M-73.6,357.6c0.4,0.6,0.6,1.3,0.9,2c0.6,1.8,1,3.8,1,5.7c0.1,2.8-0.6,5.7-1.9,8.2c-0.7,1.5-1.7,2.8-2.8,4
	c-0.3,0.3-0.6,0.6-0.9,0.9s-0.5,0.5-0.9,0.8c-0.6,0.6-1.2,1.1-1.9,1.6c-2.5,1.9-5.2,3.5-8.1,4.8c-2.7,1.2-5.3,2-7.5,2.7
	c-1.7,0.5-3.4,1.2-5,2.1c-0.4,0.3-0.8,0.6-1.2,0.9l-0.4,0.4l0.2-0.5c0.2-0.5,0.5-0.9,0.9-1.4c1.3-1.4,2.9-2.6,4.6-3.5
	c2-1.2,4.4-2.4,6.9-3.8c2.5-1.4,5-3,7.2-4.7c0.6-0.5,1.1-0.9,1.7-1.4c0.3-0.2,0.6-0.5,0.8-0.7c0.3-0.2,0.5-0.5,0.8-0.7
	c1-0.9,1.8-2,2.5-3.1c1.3-2.1,2.2-4.3,2.6-6.7c0.3-1.8,0.5-3.6,0.4-5.4C-73.5,358.4-73.6,357.6-73.6,357.6z"/>
<path class="st7" d="M-69.6,372l0.1,0.4c0,0.2,0.1,0.6,0.2,1.1c0.1,0.6,0.1,1.2,0.1,1.8c0,0.8-0.1,1.5-0.3,2.3
	c-0.2,0.9-0.6,1.8-1,2.6c-0.5,0.9-1,1.8-1.7,2.6c-0.7,0.8-1.5,1.6-2.3,2.3c-0.9,0.7-1.8,1.3-2.7,1.9c-3.5,2-7.3,3.2-11.3,3.7
	c-1.3,0.1-2.6,0.2-3.9,0.2c-0.9,0-1.5-0.1-1.5-0.1s0.5-0.2,1.4-0.6l3.5-1.5c3.4-1.3,6.8-2.9,10-4.7c0.8-0.5,1.7-1,2.4-1.6
	c0.4-0.3,0.7-0.6,1.1-0.9s0.7-0.6,1-0.9c0.6-0.6,1.2-1.2,1.8-1.9c0.5-0.6,0.9-1.2,1.3-1.9c0.3-0.6,0.6-1.2,0.9-1.8
	c0.2-0.6,0.4-1.1,0.5-1.5C-69.8,372.5-69.6,372-69.6,372z"/>
<path class="st7" d="M-69.1,366.3c0,0,0-0.8-0.1-2.2l-0.1-2.4c-0.1-0.9-0.2-2-0.4-3.1c-0.1-0.6-0.2-1.1-0.3-1.7
	c-0.1-0.6-0.3-1.2-0.4-1.8c-0.3-1.3-0.8-2.5-1.3-3.8c-0.6-1.3-1.2-2.5-2-3.7c-0.8-1.2-1.7-2.3-2.7-3.3c-1-1-2.1-1.9-3.3-2.6
	c-1.2-0.7-2.4-1.3-3.7-1.8c-1.2-0.4-2.5-0.7-3.8-0.9c-1.2-0.2-2.4-0.2-3.5-0.1l-0.8,0.1l-0.8,0.1c-0.5,0.1-1,0.1-1.4,0.2
	c-0.8,0.2-1.6,0.4-2.3,0.7c-0.6,0.2-1.1,0.4-1.5,0.6l-0.5,0.2l0.4-0.4c0.4-0.4,0.8-0.7,1.3-1c0.7-0.5,1.4-0.9,2.2-1.3
	c1-0.5,2.1-0.9,3.2-1.1c0.6-0.2,1.2-0.2,1.9-0.4c0.7-0.1,1.4-0.1,2.1-0.1c1.5,0,3,0.2,4.5,0.5c1.6,0.4,3.1,1,4.5,1.8
	c1.5,0.8,2.8,1.8,4.1,3c1.2,1.2,2.2,2.5,3.1,4c0.8,1.4,1.5,2.9,2,4.4c0.5,1.4,0.8,2.9,1,4.4c0.2,1.3,0.2,2.6,0.2,3.9
	c0,1.1-0.1,2.2-0.3,3.3c-0.1,1-0.4,1.8-0.5,2.5C-68.8,365.6-69.1,366.3-69.1,366.3z"/>
<path class="st7" d="M-70.9,341l-0.5-0.4c-0.3-0.3-0.8-0.7-1.4-1.2c-0.7-0.6-1.5-1.1-2.2-1.6c-1-0.6-2-1.2-3.1-1.6
	c-0.6-0.3-1.2-0.5-1.9-0.7c-0.6-0.2-1.4-0.4-2.1-0.6c-1.5-0.3-3-0.5-4.5-0.6c-1.6,0-3.2,0.1-4.8,0.5c-1.6,0.3-3.2,0.9-4.7,1.6
	c-1.5,0.7-2.9,1.6-4.2,2.7c-1.2,1-2.4,2.2-3.3,3.5c-0.5,0.6-0.9,1.3-1.3,1.9c-0.5,0.6-0.8,1.3-1.1,2c-0.6,1.3-1.1,2.6-1.6,3.9
	c-0.2,0.6-0.4,1.2-0.6,1.8l-0.4,1.7c-0.2,1-0.4,2-0.6,2.8c-0.2,1.5-0.4,2.4-0.4,2.4s-0.1-0.9-0.2-2.5c0-0.8,0-1.8,0-2.9l0.1-1.8
	c0.1-0.6,0.2-1.3,0.3-2c0.3-1.5,0.7-2.9,1.2-4.4c0.3-0.8,0.6-1.5,1-2.3c0.4-0.8,0.8-1.5,1.3-2.3c1-1.6,2.2-3,3.6-4.2
	c1.4-1.3,3-2.4,4.8-3.2c1.7-0.8,3.5-1.4,5.4-1.8c3.5-0.6,7.1-0.3,10.5,0.8c1.4,0.5,2.8,1.2,4.1,2c0.6,0.3,1.1,0.7,1.7,1.1
	c0.5,0.4,1,0.8,1.4,1.2c0.7,0.7,1.4,1.4,2,2.1c0.4,0.5,0.7,1,1.1,1.5L-70.9,341z"/>
<path class="st7" d="M-77.7,365.9c0,0,0,0.4,0,1c-0.1,0.9-0.3,1.8-0.7,2.7c-0.2,0.6-0.5,1.2-0.9,1.7c-0.4,0.6-0.9,1.2-1.4,1.7
	c-1.2,1.1-2.7,1.9-4.3,2.2c-1.7,0.4-3.5,0.1-5-0.6c-0.7-0.4-1.4-0.9-1.9-1.6c-0.5-0.6-0.8-1.3-0.9-2c-0.1-0.6-0.1-1.2,0-1.7
	c0.1-0.4,0.2-0.8,0.4-1.2c0.1-0.2,0.2-0.5,0.4-0.7l0.2-0.2v0.3c0,0.2,0,0.5,0,0.7c0,0.4,0.1,0.7,0.2,1.1c0.1,0.4,0.3,0.8,0.5,1.2
	c0.5,0.8,1.3,1.4,2.2,1.7c0.5,0.2,1.1,0.3,1.6,0.3c0.6,0,1.1,0,1.7-0.1c0.6-0.1,1.1-0.3,1.7-0.5c0.5-0.2,1.1-0.5,1.6-0.9
	c0.9-0.6,1.8-1.4,2.5-2.2c0.4-0.4,0.6-0.8,0.9-1.1c0.3-0.3,0.5-0.6,0.7-0.9C-77.9,366.2-77.7,365.9-77.7,365.9z"/>
<path class="st7" d="M-96.7,383.3c-0.3,0-0.6,0-0.9,0c-0.3,0-0.7,0-1-0.1c-0.5,0-0.9-0.1-1.4-0.2c-0.5-0.1-1-0.3-1.5-0.5
	c-0.5-0.2-1.1-0.5-1.6-0.8c-0.6-0.3-1.1-0.7-1.6-1.1c-0.5-0.4-1-0.9-1.4-1.4c-0.4-0.5-0.8-1-1.2-1.6c-0.7-1.1-1.2-2.2-1.5-3.4
	c-0.1-0.5-0.3-1-0.3-1.6c-0.1-0.4-0.1-0.9-0.1-1.3c0-0.4,0-0.8,0-1c0-0.3,0.1-0.6,0.1-0.9c0,0,0.2,0.3,0.5,0.8
	c0.1,0.2,0.3,0.5,0.5,0.9c0.2,0.3,0.4,0.7,0.6,1.1c0.2,0.4,0.4,0.8,0.7,1.2c0.3,0.4,0.5,0.9,0.9,1.3s0.6,0.9,1,1.3
	c0.4,0.4,0.7,0.9,1.1,1.3c0.4,0.4,0.7,0.9,1.1,1.2c0.4,0.4,0.8,0.8,1.2,1.2c0.8,0.7,1.6,1.4,2.3,2c0.7,0.6,1.3,1,1.8,1.4
	L-96.7,383.3z"/>
<path class="st7" d="M-77.3,362c0,0,0-0.4,0-1.2c0-0.4-0.1-0.8-0.1-1.3s-0.2-1-0.2-1.6l-0.2-0.9c-0.1-0.3-0.2-0.6-0.3-0.9
	c-0.1-0.3-0.2-0.6-0.3-1c-0.1-0.4-0.3-0.6-0.4-1c-0.1-0.4-0.3-0.6-0.5-1l-0.2-0.5l-0.3-0.5c-0.4-0.6-0.8-1.2-1.3-1.7
	c-0.5-0.5-1-1-1.6-1.4c-0.6-0.4-1.2-0.8-1.8-1.1c-0.3-0.1-0.6-0.2-1-0.4c-0.3-0.1-0.6-0.2-0.9-0.3l-0.9-0.2
	c-0.3-0.1-0.6-0.2-0.9-0.2c-0.6-0.1-1.1-0.2-1.6-0.2s-0.9,0-1.3-0.1c-0.7-0.1-1.2-0.1-1.2-0.1s0.4-0.2,1.1-0.5
	c0.4-0.1,0.8-0.3,1.3-0.5s1.1-0.2,1.8-0.3c0.7-0.1,1.4-0.1,2.2-0.1c0.4,0,0.8,0.1,1.2,0.2c0.4,0.1,0.8,0.2,1.2,0.3s0.8,0.3,1.2,0.5
	c0.2,0.1,0.4,0.2,0.6,0.3l0.6,0.4c0.8,0.5,1.5,1.1,2.2,1.8c0.6,0.7,1.1,1.5,1.6,2.3l0.3,0.6l0.2,0.6c0.2,0.4,0.3,0.8,0.4,1.2
	c0.1,0.4,0.2,0.8,0.3,1.2s0.1,0.8,0.1,1.2c0.1,0.7,0.1,1.4,0,2.1c-0.1,0.6-0.2,1.2-0.3,1.8c-0.1,0.4-0.3,0.9-0.5,1.3
	C-77.1,361.6-77.3,362-77.3,362z"/>
<path class="st7" d="M-102.2,386.9c-0.1,0.1-0.2,0.1-0.4,0.2c-0.3,0.1-0.6,0.2-0.9,0.2c-0.8,0.1-1.6-0.2-2.2-0.6
	c-0.7-0.5-1.1-1.2-1.2-2c-0.1-0.4-0.1-0.9,0.1-1.3h0.4c0.2,0,0.5,0.1,0.8,0.1c0.3,0.1,0.6,0.1,0.9,0.3c0.3,0.1,0.6,0.3,0.8,0.5
	c0.5,0.4,0.9,0.9,1.2,1.5c0.1,0.3,0.2,0.5,0.3,0.8C-102.2,386.8-102.2,386.9-102.2,386.9z"/>
</svg>
