<?xml version="1.0" encoding="utf-8"?>
<!-- Generator: Adobe Illustrator 19.1.0, SVG Export Plug-In . SVG Version: 6.00 Build 0)  -->
<svg version="1.1" xmlns="http://www.w3.org/2000/svg" xmlns:xlink="http://www.w3.org/1999/xlink" x="0px" y="0px" width="213.6px"
	 height="140.1px" viewBox="0 0 213.6 140.1" style="enable-background:new 0 0 213.6 140.1;" xml:space="preserve">
<style type="text/css">
	.st0{display:none;}
	.st1{display:inline;fill:#F05135;}
	.st2{display:inline;fill:#083B54;}
	.st3{display:inline;fill:#6ACAD1;}
	.st4{display:inline;fill:#F59223;}
	.st5{display:inline;fill:none;stroke:#F05135;stroke-width:2.5;stroke-miterlimit:10;}
	.st6{display:inline;fill:none;stroke:#083B54;stroke-width:2.5;stroke-miterlimit:10;}
	.st7{display:inline;fill:none;stroke:#6ACAD1;stroke-width:2.5;stroke-miterlimit:10;}
	.st8{display:inline;fill:none;stroke:#F59223;stroke-width:2.5;stroke-miterlimit:10;}
	.st9{display:inline;fill:#FDD9C8;stroke:#F05135;stroke-width:2.5;stroke-miterlimit:10;}
	.st10{display:inline;fill:#D3D5DB;stroke:#083B54;stroke-width:2.5;stroke-miterlimit:10;}
	.st11{display:inline;fill:#E0F2F3;stroke:#6ACAD1;stroke-width:2.5;stroke-miterlimit:10;}
	.st12{display:inline;fill:#FEE5CB;stroke:#F59223;stroke-width:2.5;stroke-miterlimit:10;}
	.st13{display:inline;fill:#FFFFFF;stroke:#F05135;stroke-width:2.5;stroke-miterlimit:10;}
	.st14{display:inline;fill:#FFFFFF;stroke:#083B54;stroke-width:2.5;stroke-miterlimit:10;}
	.st15{display:inline;fill:#FFFFFF;stroke:#6ACAD1;stroke-width:2.5;stroke-miterlimit:10;}
	.st16{display:inline;fill:#FFFFFF;stroke:#F59223;stroke-width:2.5;stroke-miterlimit:10;}
	.st17{display:inline;}
	.st18{opacity:0.3;fill:none;stroke:#6ACAD1;stroke-width:2.5;stroke-miterlimit:10;}
	.st19{fill:#E0F2F3;stroke:#6ACAD1;stroke-width:2.5;stroke-miterlimit:10;}
	.st20{opacity:0.5;fill:#6ACAD1;}
	.st21{opacity:0.3;fill:none;stroke:#F59223;stroke-miterlimit:10;}
	.st22{fill:none;stroke:#6ACAD1;stroke-width:2.5;stroke-linecap:round;stroke-miterlimit:10;}
	.st23{fill:#FFFFFF;stroke:#6ACAD1;stroke-width:2.5;stroke-miterlimit:10;}
	.st24{fill:#FFFFFF;stroke:#083B54;stroke-width:2.5;stroke-miterlimit:10;}
	.st25{fill:#FFFFFF;}
	.st26{fill:none;stroke:#6ACAD1;stroke-width:2.5;stroke-miterlimit:10;}
	.st27{fill:#E0F2F3;}
	.st28{fill:#D3D5DB;stroke:#083B54;stroke-width:2.5;stroke-miterlimit:10;}
	.st29{fill:#083B54;}
	.st30{opacity:0.2;fill:#083B54;}
	.st31{opacity:0.3;fill:#083B54;}
	.st32{opacity:0.5;fill:#083B54;}
	.st33{opacity:0.85;fill:#083B54;}
	.st34{opacity:0.7;fill:#083B54;}
	.st35{fill:#FEE5CB;stroke:#F59223;stroke-miterlimit:10;}
	.st36{opacity:0.5;fill:#FFFFFF;stroke:#6ACAD1;stroke-linecap:round;stroke-miterlimit:10;}
	.st37{fill:#F05135;}
	.st38{fill:#F59223;}
	.st39{fill:#F05135;stroke:#F05235;stroke-linejoin:round;stroke-miterlimit:10;}
	.st40{fill:#6ACAD1;}
</style>
<g id="Layer_1" class="st0">
	<g id="_x38_jq36L_1_" class="st17">
		
			<image style="overflow:visible;" width="1001" height="475" id="_x38_jq36L_2_" xlink:href="F3F9A665FC494811.png"  transform="matrix(1 0 0 1 -593.9461 -107.4788)">
		</image>
	</g>
</g>
<g id="Layer_2">
	<path class="st19" d="M36.4,136.9h-6.5c3.3-7.8,2-49.1,2-49.1h6.5C38.4,87.7,39.2,129.9,36.4,136.9z"/>
	<path class="st19" d="M169.9,136.9h-6.5c3.3-7.8,1-49.1,1-49.1h6.5C170.9,87.7,172.7,129.9,169.9,136.9z"/>
	<path class="st23" d="M102.9,138.8h-6.5c3.3-7.8,2-51.1,2-51.1h6.5C104.9,87.7,105.7,131.9,102.9,138.8z"/>
	<path class="st23" d="M59.4,131.1h6.5c-3.3-7.8-1-43.3-1-43.3h-6.5C58.4,87.7,56.6,124.1,59.4,131.1z"/>
	<path class="st23" d="M152,129.1h6.5c-3.3-7.8-1-41.4-1-41.4H151C151,87.7,149.2,122.2,152,129.1z"/>
	<path class="st23" d="M73.1,135.9h6.5c-3.3-7.8-2-48.2-2-48.2h-6.5C71.1,87.7,70.3,129,73.1,135.9z"/>
	<path class="st23" d="M139.1,136.9h6.5c-3.3-7.8-2-49.1-2-49.1h-6.5C137.1,87.7,136.3,129.9,139.1,136.9z"/>
	<rect x="44.5" y="87.7" class="st19" width="6.5" height="46.2"/>
	<rect x="177.7" y="87.7" class="st19" width="6.5" height="43.3"/>
	<rect x="84.2" y="87.7" class="st23" width="6.5" height="44.3"/>
	<rect x="111.4" y="87.7" class="st23" width="6.5" height="39.4"/>
	<rect x="124.4" y="87.7" class="st23" width="6.5" height="46.2"/>
	<path class="st24" d="M2,80.9v11.4C2,93.2,2.9,94,4,94h206c1.1,0,2-0.8,2-1.7V80.9"/>
	<path class="st28" d="M191.7,57.1c0-0.3-0.9-0.5-2-0.5H22.4c-1.1,0-2,0.2-2,0.5L2,80.3c0,0.3,0.9,0.5,2,0.5h206c1.1,0,2-0.2,2-0.5
		L191.7,57.1z"/>
	<path class="st29" d="M188.3,64.6c0-0.1-1.9-0.2-2.9-0.2H26.9c-1,0-1.9,0.1-1.9,0.2l-6.9,9.2c0,0.1,0.9,0.2,1.9,0.2h174.2
		c1,0,1.9-0.1,1.9-0.2L188.3,64.6z"/>
	<path class="st19" d="M184.2,71.4V11.1c0-1.1-0.9-2-2.1-2h-65.3V6.6c0-0.5-0.5-1-1-1H98.2c-0.6,0-1,0.5-1,1v2.5H31.9
		c-1.1,0-2.1,0.9-2.1,2v60.3"/>
	<polyline class="st23" points="37.7,71.4 37.7,17.4 176.4,17.4 176.4,71.4 	"/>
	<path class="st23" d="M43.9,71.4V2.5c0,0,7.9,3.1,30.2,3.1s33,10.5,33,10.5v55.2"/>
	<path class="st23" d="M170.2,71.4V2.5c0,0-7.9,3.1-30.2,3.1s-33,10.5-33,10.5v55.2"/>
	<circle class="st35" cx="138.6" cy="41.1" r="15.1"/>
	<path class="st36" d="M52.4,13.2c0,0,40.5-1.6,46.3,9.2"/>
	<path class="st36" d="M52.4,19.2c0,0,39.5-1.7,46.3,9.2"/>
	<path class="st36" d="M52.4,25.5c0,0,30.7-4.1,46.3,7.8"/>
	<path class="st36" d="M52.3,32.4c0,0,27.2-5.7,46.3,5.2"/>
	<path class="st36" d="M52.3,38.9c0,0,26.1-6.1,46.4,2.8"/>
	<path class="st36" d="M52.3,45.1c0,0,24.6-4.6,46.4,1.3"/>
	<path class="st36" d="M52.3,49.9c0,0,23.7-2.6,46.3,1.1"/>
	<line class="st36" x1="52.4" y1="67.3" x2="98.7" y2="67.3"/>
	<path class="st36" d="M52.4,62.2c0,0,28.1-1.4,46.3,0"/>
	<path class="st36" d="M52.4,55.9c0,0,22.6-2.4,46.3,0"/>
	
		<ellipse transform="matrix(-0.8089 0.588 -0.588 -0.8089 274.9647 -7.1302)" class="st21" cx="138.6" cy="41.1" rx="27.1" ry="4.4"/>
	<path class="st37" d="M80.4,40.5V4.3c0-0.4,0.6-0.7,1.4-0.7h5.6c0.7,0,1.4,0.3,1.4,0.7v36.2l-4.2-2.6L80.4,40.5z"/>
</g>
</svg>
