<?xml version="1.0" encoding="utf-8"?>
<!-- Generator: Adobe Illustrator 19.1.0, SVG Export Plug-In . SVG Version: 6.00 Build 0)  -->
<svg version="1.1" id="Layer_1" xmlns="http://www.w3.org/2000/svg" xmlns:xlink="http://www.w3.org/1999/xlink" x="0px" y="0px"
	 width="346.6px" height="245.2px" viewBox="-261.1 328.3 346.6 245.2" style="enable-background:new -261.1 328.3 346.6 245.2;"
	 xml:space="preserve">
<style type="text/css">
	.st0{fill:none;stroke:#6AC9D0;stroke-width:5.75;stroke-linejoin:round;}
	.st1{fill:none;stroke:#6AC9D0;stroke-width:5.75;stroke-linecap:round;stroke-linejoin:round;}
	.st2{fill:#FFE5CA;stroke:#F59122;stroke-width:2.16;stroke-miterlimit:10;}
	.st3{opacity:0.3;fill:none;stroke:#F59122;stroke-width:2.16;stroke-miterlimit:10;enable-background:new    ;}
	.st4{fill:none;stroke:#C3E9EC;stroke-width:5.03;stroke-miterlimit:10;}
	.st5{clip-path:url(#SVGID_2_);}
	.st6{opacity:0.25;fill:#469DA1;enable-background:new    ;}
	.st7{fill:#469DA1;}
	.st8{opacity:0.25;fill:#6AC9D0;enable-background:new    ;}
	.st9{fill:#6AC9D0;}
	.st10{opacity:0.25;fill:#F59122;enable-background:new    ;}
	.st11{fill:#F59122;}
	.st12{opacity:0.25;fill:#EF5034;enable-background:new    ;}
	.st13{fill:#EF5034;}
	.st14{fill:none;stroke:#C3E9EC;stroke-width:5.03;stroke-linecap:round;stroke-miterlimit:10;}
</style>
<title>ipfs illustrations</title>
<rect x="-256.5" y="413.5" class="st0" width="120.7" height="156.2"/>
<line class="st1" x1="-237.8" y1="439.2" x2="-154.6" y2="439.2"/>
<line class="st1" x1="-237.8" y1="460.8" x2="-154.6" y2="460.8"/>
<line class="st1" x1="-237.8" y1="482.3" x2="-154.6" y2="482.3"/>
<line class="st1" x1="-237.8" y1="503.8" x2="-154.6" y2="503.8"/>
<line class="st1" x1="-237.8" y1="525.3" x2="-201.3" y2="525.3"/>
<line class="st1" x1="-237.8" y1="546.9" x2="-201.3" y2="546.9"/>
<circle class="st2" cx="-170.8" cy="535.5" r="10.9"/>
<ellipse transform="matrix(-0.5881 -0.8088 0.8088 -0.5881 -704.3512 712.2186)" class="st3" cx="-170.8" cy="535.5" rx="3.2" ry="19.5"/>
<circle class="st4" cx="-160" cy="482.9" r="12.4"/>
<g>
	<defs>
		<circle id="SVGID_1_" cx="-15.7" cy="429.8" r="97.5"/>
	</defs>
	<clipPath id="SVGID_2_">
		<use xlink:href="#SVGID_1_"  style="overflow:visible;"/>
	</clipPath>
	<g class="st5">
		<path class="st6" d="M-111.7,330.8h52.8c1.3,0,2.3,1,2.3,2.3v52.8c0,1.3-1,2.3-2.3,2.3h-52.8c-1.3,0-2.3-1-2.3-2.3v-52.8
			C-114,331.8-112.9,330.8-111.7,330.8z"/>
		<path class="st7" d="M-74.6,374c-0.1,0.1-0.2,0.2-0.4,0.3c-0.4,0.2-0.8,0.4-1.3,0.4c-1.6,0.2-3.2,0-4.7-0.7
			c-1-0.5-1.9-1.1-2.7-1.8c-0.9-0.8-1.7-1.8-2.4-2.8c-0.6-1.1-1.2-2.3-1.5-3.6c-0.2-0.6-0.3-1.3-0.5-1.9c-0.1-0.7-0.2-1.3-0.3-2
			c-0.1-0.8,0-1.5,0.2-2.3c0.2-0.9,0.7-1.7,1.4-2.3c0.4-0.4,0.9-0.6,1.5-0.7c0.3,0,0.6,0,0.9,0l0,0h0.1l0,0h0.1h0.1
			c0.1,0,0.3,0.1,0.4,0.1c0.8,0.4,1.5,1.1,1.8,2c0.4,1.2,0.7,2.4,0.8,3.6c0.1,1,0.2,1.9,0.4,2.9c0.2,0.8,0.4,1.6,0.7,2.3
			c0.2,0.6,0.5,1.2,0.8,1.7c0.3,0.5,0.5,0.8,0.7,1.1l0.3,0.4l-0.4-0.2c-0.4-0.2-0.7-0.5-1.1-0.8c-0.5-0.4-0.9-0.9-1.3-1.4
			c-0.5-0.7-1-1.5-1.3-2.4c-0.4-1-0.7-2-1-3l-0.2-0.8c0-0.3-0.1-0.5-0.2-0.8c-0.1-0.5-0.3-0.9-0.5-1.4c-0.1-0.2-0.3-0.5-0.5-0.6
			c0,0,0.1,0,0,0h-0.1H-85h0.1l0,0c-0.1,0-0.1,0.1-0.2,0.1c-0.5,0.7-0.7,1.5-0.6,2.3c0,0.5,0.1,1.1,0.2,1.7s0.2,1.2,0.3,1.7
			c0.2,1.1,0.6,2.1,1.1,3c0.4,0.9,1,1.8,1.7,2.6c0.6,0.7,1.3,1.3,2.1,1.9c0.7,0.4,1.4,0.8,2.1,1.1c0.6,0.2,1.2,0.4,1.8,0.4
			c0.4,0,0.8,0,1.2-0.1C-74.9,374.1-74.8,374.1-74.6,374z"/>
		<path class="st7" d="M-77.4,364c0,0-0.2-0.6-0.5-1.8c-0.1-0.6-0.3-1.3-0.4-2c-0.2-0.7-0.4-1.7-0.6-2.5c-0.3-0.9-0.7-1.7-1.3-2.4
			c-0.3-0.3-0.7-0.7-1.1-0.9c-0.1-0.1-0.5-0.3-0.7-0.4c-0.2-0.1-0.4-0.2-0.7-0.3c-1-0.3-2-0.4-3-0.1c-1,0.3-2,0.8-2.8,1.6
			c-0.4,0.4-0.8,0.8-1.1,1.3c-0.1,0.1-0.2,0.3-0.2,0.3l-0.3,0.4c-0.1,0.2-0.2,0.4-0.4,0.7c-0.4,1-0.7,2.1-0.8,3.2
			c0,1.1,0,2.2,0.2,3.2c0.2,1,0.5,1.9,0.9,2.9c0.6,1.4,1.4,2.8,2.4,4c0.4,0.4,0.7,0.8,0.9,1l0.4,0.3l-0.4-0.2
			c-0.4-0.2-0.8-0.4-1.2-0.7c-1.4-1-2.5-2.2-3.4-3.6c-0.6-1-1.1-2-1.4-3.1c-0.4-1.2-0.7-2.5-0.7-3.8c-0.1-1.4,0.2-2.9,0.7-4.2
			c0.1-0.4,0.3-0.7,0.5-1.1l0.2-0.4c0.1-0.2,0.2-0.3,0.3-0.5c0.4-0.6,0.9-1.2,1.5-1.7c1.1-1.1,2.5-1.8,4-2.2
			c1.9-0.4,3.9-0.1,5.5,0.9c0.3,0.2,0.6,0.4,0.8,0.6c0.6,0.4,1,0.9,1.4,1.5c0.7,1,1.1,2.1,1.3,3.3c0.1,0.9,0.2,1.9,0.1,2.8
			c0,0.8,0,1.5-0.1,2.1L-77.4,364z"/>
		<path class="st7" d="M-75.7,367.8c0,0,0.1-0.7,0.2-1.8s0.4-2.8,0.6-4.7c0.3-2.1,0.3-4.2,0.1-6.3c-0.1-1.1-0.5-2.1-1-3.1
			c-0.5-1-1.3-1.8-2.2-2.4c-0.5-0.3-0.9-0.6-1.4-0.9l-0.4-0.2l-0.4-0.1c-0.3-0.1-0.5-0.2-0.8-0.2c-1.1-0.3-2.2-0.4-3.4-0.3
			c-1.1,0-2.2,0.2-3.2,0.4c-1,0.2-1.9,0.6-2.8,1c-1.4,0.6-2.6,1.5-3.5,2.7c-0.3,0.3-0.5,0.7-0.7,1.1l-0.2,0.4v-0.5
			c0.1-0.5,0.2-0.9,0.3-1.3c0.6-1.6,1.7-2.9,3.1-3.8c0.9-0.7,1.9-1.2,3-1.6c1.2-0.5,2.4-0.8,3.6-0.9c1.4-0.2,2.8-0.1,4.1,0.1
			c0.4,0.1,0.7,0.2,1.1,0.3l0.6,0.2l0.5,0.2c0.7,0.3,1.3,0.7,1.9,1.1c1.2,0.9,2.2,2,2.9,3.4c0.6,1.3,0.9,2.7,1,4.1
			c0.1,1.2,0,2.5-0.2,3.7c-0.2,1.1-0.4,2.1-0.7,3.2c-0.4,1.5-1,3-1.6,4.5C-75.4,367.2-75.7,367.8-75.7,367.8z"/>
		<path class="st7" d="M-96.3,357c0,0-0.1,0.5-0.1,1.4c0,1.2,0,2.4,0.2,3.6c0.2,1.7,0.6,3.3,1.3,4.8c0.4,0.8,0.8,1.7,1.3,2.4
			c0.3,0.4,0.5,0.8,0.8,1.1l0.2,0.3l0.1,0.1l0.1,0.1l0.5,0.6c0.4,0.4,0.7,0.6,1,1s0.7,0.6,1.1,0.9c0.7,0.5,1.5,1,2.4,1.5
			c0.8,0.4,1.6,0.7,2.4,1c0.7,0.3,1.5,0.5,2.3,0.6c0.7,0.1,1.3,0.2,2,0.3c0.3,0,0.6,0,0.9,0c0.2,0,0.5,0,0.7,0c0.3,0,0.7-0.1,1-0.1
			l0.4-0.1l-0.3,0.2c-0.3,0.2-0.7,0.4-1,0.5c-0.5,0.2-1.1,0.4-1.6,0.5c-0.7,0.1-1.5,0.2-2.2,0.2c-0.9,0-1.8-0.1-2.6-0.3
			c-1-0.2-1.9-0.5-2.8-0.9c-1-0.4-1.9-0.9-2.7-1.5c-0.5-0.3-0.9-0.7-1.3-1s-0.9-0.8-1.2-1.2l-0.5-0.6l-0.1-0.1l-0.2-0.2l-0.2-0.3
			c-0.3-0.4-0.6-0.9-0.9-1.4c-1.5-2.5-2.2-5.4-2-8.4c0.1-1.3,0.3-2.5,0.7-3.8C-96.6,357.9-96.5,357.5-96.3,357z"/>
		<path class="st7" d="M-99.5,366.1c0,0,0.1,0.4,0.3,1c0.1,0.3,0.2,0.7,0.3,1.1s0.4,0.9,0.5,1.4c0.4,1.1,1,2.1,1.6,3.1
			c0.3,0.5,0.8,1,1.1,1.5c0.4,0.5,0.9,1,1.4,1.4c0.5,0.4,1,0.9,1.5,1.3c0.6,0.4,1.1,0.8,1.6,1.1c0.6,0.3,1.1,0.6,1.6,0.9
			s1.1,0.5,1.5,0.7c1,0.4,1.8,0.7,2.4,0.9s1,0.3,1,0.3l-0.3,0.1c-0.2,0.1-0.5,0.1-0.8,0.2c-0.9,0.1-1.9,0.1-2.8,0
			c-0.6-0.1-1.2-0.2-1.8-0.3c-0.7-0.2-1.4-0.4-2-0.7c-0.3-0.1-0.7-0.3-1-0.5c-0.3-0.2-0.7-0.4-1-0.6c-0.7-0.4-1.3-0.9-1.9-1.5
			c-0.6-0.5-1.1-1.1-1.6-1.8c-0.2-0.3-0.4-0.7-0.6-1c-0.2-0.3-0.4-0.7-0.5-1c-0.3-0.6-0.5-1.3-0.7-2c-0.2-0.6-0.3-1.2-0.3-1.9
			c0-0.6,0-1.1-0.1-1.6c-0.1-0.5,0.1-0.8,0.2-1.2C-99.6,366.4-99.5,366.1-99.5,366.1z"/>
		<path class="st7" d="M-99.9,363.2c0,0-0.2-0.6-0.5-1.6c-0.1-0.5-0.3-1.1-0.4-1.9c-0.1-0.8-0.2-1.7-0.3-2.5c0-1,0-2,0.2-3
			c0.2-1.1,0.4-2.2,0.9-3.3c0.4-1.2,1-2.3,1.7-3.3c0.8-1,1.6-2,2.6-2.9c1-0.8,2.1-1.5,3.2-2.1c1.1-0.5,2.3-1,3.5-1.2
			c1.1-0.3,2.3-0.4,3.4-0.4c1,0,2,0.1,3,0.4c0.8,0.2,1.6,0.5,2.4,0.9c0.6,0.3,1.1,0.6,1.7,1c0.3,0.2,0.6,0.5,0.9,0.8l0.3,0.3
			l-0.4-0.2c-0.4-0.2-0.7-0.4-1.1-0.5c-0.3-0.1-0.5-0.2-0.8-0.3c-0.3-0.1-0.6-0.2-0.9-0.3c-0.8-0.2-1.5-0.3-2.3-0.4
			c-1.9-0.1-3.8,0.1-5.6,0.7c-1,0.3-2,0.7-2.9,1.2c-1,0.5-1.9,1.1-2.7,1.8c-1.6,1.4-3,3.1-3.9,5.1c-0.4,0.9-0.8,1.9-1.1,2.8
			c-0.1,0.5-0.2,0.9-0.3,1.4c-0.1,0.4-0.2,0.9-0.2,1.3c-0.1,0.9-0.2,1.6-0.2,2.4v1.9C-99.9,362.6-99.9,363.2-99.9,363.2z"/>
		<path class="st7" d="M-96.2,342.1c0,0,0.4-0.4,1.2-1.1l0.6-0.6c0.3-0.2,0.6-0.4,0.9-0.6c0.7-0.5,1.4-0.9,2.2-1.2l1.3-0.6
			c0.5-0.2,1-0.3,1.5-0.4c1.1-0.3,2.2-0.5,3.4-0.5c0.6,0,1.2,0,1.8,0.1c0.3,0,0.6,0,0.9,0.1l0.9,0.2c1.3,0.3,2.5,0.6,3.6,1.2l1.7,1
			c0.5,0.3,1,0.7,1.5,1.1c0.2,0.2,0.5,0.4,0.7,0.6l0.6,0.7c0.4,0.4,0.8,0.9,1.1,1.4c0.3,0.5,0.6,1,0.9,1.5c0.3,0.5,0.4,1.1,0.6,1.6
			c0.4,0.9,0.6,1.9,0.7,2.9c0.1,0.8,0.2,1.7,0.1,2.5c0,0.6-0.1,1.3-0.2,1.9c-0.2,1-0.3,1.6-0.3,1.6s-0.1-0.6-0.2-1.6
			c0-0.6-0.1-1.2-0.3-1.8l-0.3-1.1c-0.1-0.4-0.2-0.8-0.3-1.2c-0.3-0.9-0.6-1.7-1.1-2.5c-0.2-0.4-0.4-0.9-0.7-1.3s-0.6-0.8-0.9-1.2
			c-0.3-0.4-0.7-0.8-1.1-1.2l-0.6-0.6c-0.2-0.2-0.4-0.3-0.6-0.5c-0.4-0.3-0.8-0.7-1.3-0.9l-1.4-0.8c-1-0.4-2-0.8-3.1-1l-0.8-0.2
			c-0.3-0.1-0.5-0.1-0.8-0.1c-0.5,0-1-0.2-1.6-0.2c-1,0-2,0-3,0.1c-0.5,0.1-1,0.1-1.4,0.2l-1.3,0.3c-0.8,0.2-1.5,0.4-2.2,0.7
			c-0.3,0.1-0.6,0.2-0.9,0.3l-0.8,0.4C-95.7,341.8-96.2,342.1-96.2,342.1z"/>
		<path class="st7" d="M-70.1,357.9c0,0,0.1,0.3,0.2,0.8c0.2,0.7,0.3,1.3,0.3,2c0,1,0,2-0.2,2.9c-0.1,0.5-0.2,1.1-0.4,1.6
			c-0.2,0.6-0.4,1.1-0.6,1.6c-0.2,0.5-0.5,1-0.8,1.5c-0.3,0.5-0.6,0.9-1,1.4c-0.3,0.4-0.7,0.8-1.1,1.1c-0.4,0.3-0.8,0.6-1.2,0.8
			c-0.3,0.2-0.7,0.4-1.1,0.5c-0.3,0.1-0.6,0.2-0.9,0.3c-0.5,0.1-0.8,0.1-0.8,0.1s0.2-0.2,0.6-0.5l0.6-0.6c0.2-0.2,0.5-0.5,0.7-0.8
			c0.2-0.3,0.5-0.6,0.8-1c0.3-0.4,0.5-0.7,0.8-1.1s0.5-0.8,0.7-1.3c0.2-0.4,0.5-0.9,0.7-1.4s0.4-0.9,0.6-1.4l0.5-1.4
			c0.1-0.5,0.3-0.9,0.4-1.3s0.3-0.9,0.4-1.2c0.1-0.4,0.2-0.7,0.3-1.1l0.2-0.9C-70.2,358.2-70.1,357.9-70.1,357.9z"/>
		<path class="st7" d="M-83.2,380.7c0,0,1-0.3,2.2-0.7c0.6-0.2,1.4-0.5,2.1-0.8c0.4-0.1,0.7-0.3,1.1-0.5c0.4-0.2,0.7-0.4,1-0.6
			l0.5-0.3l0.5-0.4c0.3-0.2,0.6-0.5,0.9-0.8c0.3-0.3,0.5-0.5,0.7-0.8c0.2-0.3,0.4-0.5,0.6-0.8c0.2-0.3,0.4-0.5,0.5-0.8
			s0.3-0.4,0.4-0.6c0.2-0.3,0.4-0.6,0.4-0.6s0,0.2,0.1,0.7c0,0.2,0,0.5,0,0.8c0,0.3-0.1,0.7-0.2,1c-0.1,0.4-0.2,0.8-0.4,1.2
			c-0.2,0.4-0.4,0.8-0.6,1.2c-0.3,0.4-0.6,0.8-1,1.1c-0.2,0.2-0.4,0.4-0.6,0.5l-0.6,0.4c-0.4,0.3-0.9,0.5-1.4,0.7
			c-0.5,0.2-0.9,0.3-1.4,0.4c-0.8,0.2-1.7,0.2-2.5,0.2C-81.7,381.2-82.5,381-83.2,380.7z"/>
		<path class="st8" d="M-42.1,330.8h52.8c1.3,0,2.3,1,2.3,2.3v52.8c0,1.3-1,2.3-2.3,2.3h-52.8c-1.3,0-2.3-1-2.3-2.3v-52.8
			C-44.4,331.8-43.4,330.8-42.1,330.8z"/>
		<path class="st9" d="M-15.2,365.3c0,0,0.1-0.3,0.1-0.8c0-0.2,0.1-0.5,0.1-0.8c0-0.3,0.1-0.6,0-1c0-0.7,0-1.5-0.2-2.2
			c-0.1-0.6-0.3-1.2-0.8-1.8c0-0.1-0.1-0.1-0.1-0.1c0,0-0.1,0,0,0H-16l-0.2-0.1c-0.1-0.1-0.3-0.2-0.4-0.2c-0.2-0.1-0.5-0.1-0.8-0.1
			c-0.3,0.1-0.6,0.2-0.8,0.4c-0.3,0.2-0.5,0.5-0.7,0.8c-0.3,0.5-0.6,1-0.8,1.6c-0.2,0.4-0.2,0.7-0.2,0.7c-0.1-0.2-0.1-0.5-0.2-0.7
			c-0.1-0.7-0.1-1.3,0.1-2c0.1-0.5,0.3-0.9,0.6-1.4c0.3-0.5,0.8-1,1.4-1.3c0.7-0.3,1.4-0.4,2.1-0.3c0.3,0.1,0.7,0.2,1,0.3l0.2,0h0.1
			l0.2,0.1c0.2,0.1,0.3,0.2,0.5,0.3c0.6,0.4,1,1,1.3,1.7c0.2,0.6,0.4,1.2,0.4,1.9c0,1-0.2,2.1-0.7,3c-0.2,0.4-0.4,0.7-0.7,1
			c-0.2,0.2-0.4,0.4-0.7,0.6C-14.7,365.1-14.9,365.2-15.2,365.3z"/>
		<path class="st9" d="M-11,363.6c0.2-0.5,0.3-1,0.4-1.5c0.1-1.4-0.1-2.7-0.5-4c-0.2-0.8-0.6-1.7-1-2.4c-0.4-0.8-1-1.6-1.7-2.2
			c-0.7-0.6-1.5-1-2.5-1.2c-0.5-0.1-0.9-0.1-1.4,0c-0.2,0-0.5,0.1-0.7,0.1l-0.4,0.1l-0.3,0.1c-0.9,0.4-1.6,1-2.2,1.7
			c-0.6,0.8-0.9,1.7-1.1,2.7c-0.2,1-0.3,1.9-0.2,2.9c0,0.9,0.2,1.8,0.4,2.7c0.3,1.3,0.8,2.6,1.5,3.9c0.3,0.5,0.5,0.9,0.8,1.4
			l-0.3-0.3c-0.3-0.3-0.6-0.6-0.8-0.9c-1-1.1-1.7-2.4-2.3-3.7c-0.8-2-1.1-4.1-0.9-6.2c0.1-1.3,0.5-2.5,1.2-3.5
			c0.4-0.6,0.8-1.1,1.3-1.5c0.5-0.4,1.1-0.8,1.8-1.1l0.5-0.2l0.4-0.1c0.4-0.1,0.7-0.1,1-0.2c2-0.3,4.1,0.4,5.5,1.9
			c0.9,0.8,1.5,1.8,2,2.9c0.4,0.9,0.7,1.9,0.8,2.9c0.2,1.5,0.1,3-0.4,4.4c-0.1,0.4-0.3,0.8-0.6,1.1L-11,363.6z"/>
		<path class="st9" d="M-25.1,350.7c0,0,0-0.3,0-0.8c0-0.3,0.1-0.6,0.2-0.9l0.2-0.6c0.1-0.2,0.2-0.4,0.3-0.6
			c0.2-0.4,0.5-0.8,0.8-1.2c0.3-0.4,0.7-0.8,1.1-1.1c0.4-0.4,0.9-0.7,1.4-0.9c0.5-0.3,1.1-0.5,1.6-0.7c1.1-0.3,2.3-0.4,3.4-0.4
			c0.5,0,1,0.1,1.5,0.2l0.7,0.2l0.6,0.2c0.4,0.1,0.7,0.3,1,0.5c0.3,0.1,0.5,0.3,0.7,0.5c0.4,0.3,0.6,0.5,0.6,0.5s-0.3,0-0.8-0.1
			c-0.3-0.1-0.6-0.1-0.8-0.1c-0.3,0-0.7-0.1-1-0.1c-0.4,0-0.8,0-1.2,0s-0.9,0.1-1.3,0.1c-0.4,0-0.9,0.1-1.4,0.2
			c-0.5,0.1-0.9,0.2-1.4,0.3c-0.5,0.1-0.9,0.3-1.3,0.5c-0.2,0.1-0.4,0.2-0.6,0.3l-0.6,0.3c-0.4,0.2-0.7,0.4-1.1,0.7
			c-0.3,0.2-0.6,0.5-0.9,0.8c-0.3,0.2-0.5,0.5-0.7,0.7c-0.2,0.2-0.4,0.4-0.5,0.7C-24.9,350.5-25.1,350.7-25.1,350.7z"/>
		<path class="st9" d="M-14.8,371.9c0,0-0.4,0.2-1.2,0.6c-0.5,0.2-1,0.3-1.6,0.4c-0.3,0-0.6,0-1,0h-0.5l-0.6-0.1
			c-0.8-0.1-1.7-0.4-2.4-0.8c-0.4-0.2-0.8-0.4-1.2-0.7c-0.4-0.3-0.8-0.6-1.1-0.9s-0.7-0.7-1-1.1s-0.6-0.8-0.9-1.2
			c-0.3-0.4-0.6-0.8-0.8-1.3c-0.3-0.4-0.5-0.9-0.7-1.4s-0.4-0.9-0.6-1.4s-0.3-1-0.5-1.4c-0.3-1-0.4-1.9-0.5-2.9c0-0.5,0-0.9,0-1.4
			c0-0.4,0.1-0.9,0.1-1.3c0.1-0.8,0.2-1.6,0.5-2.4c0.3-1.2,0.8-2.3,1.5-3.3c0.2-0.3,0.4-0.5,0.6-0.8l0.2-0.3c0,0-0.1,0.5-0.3,1.3
			c-0.2,1.1-0.4,2.2-0.4,3.3c0,0.7,0,1.4,0,2.2c0,0.4,0.1,0.8,0.1,1.2s0.1,0.8,0.2,1.2c0.2,0.8,0.4,1.6,0.6,2.4
			c0.1,0.4,0.3,0.8,0.5,1.2s0.4,0.8,0.5,1.2l0.5,1.2l0.7,1.1l0.7,1l0.8,1c0.3,0.3,0.6,0.6,0.8,0.9s0.6,0.5,0.9,0.7
			c0.5,0.4,1.1,0.8,1.8,1.1l0.4,0.2l0.4,0.1c0.3,0.1,0.6,0.2,0.8,0.2c0.5,0,1,0.2,1.4,0.2C-15.3,371.8-14.8,371.9-14.8,371.9z"/>
		<path class="st9" d="M-4.3,356.1c0.3,0.5,0.5,1,0.6,1.5c0.5,1.4,0.7,2.8,0.7,4.2c0,2.1-0.4,4.2-1.4,6.1c-0.6,1.1-1.3,2.1-2.1,3
			c-0.2,0.2-0.5,0.5-0.6,0.7c-0.2,0.2-0.4,0.4-0.6,0.6c-0.5,0.4-0.9,0.8-1.4,1.2c-1,0.7-2,1.4-3,2c-1,0.6-2,1.1-3.1,1.5
			c-1,0.5-2,0.8-2.9,1.2s-1.8,0.6-2.6,0.9c-1.3,0.4-2.5,0.9-3.7,1.6c-0.3,0.2-0.6,0.4-0.9,0.7l-0.3,0.3l0.2-0.4
			c0.2-0.4,0.4-0.7,0.7-1c1-1.1,2.1-2,3.4-2.6c0.8-0.4,1.6-0.9,2.5-1.3l2.7-1.5c0.9-0.5,1.8-1.1,2.7-1.6c0.9-0.6,1.8-1.2,2.7-1.9
			c0.4-0.3,0.9-0.7,1.2-1c0.2-0.2,0.4-0.4,0.6-0.6c0.2-0.2,0.4-0.3,0.6-0.5c0.7-0.7,1.4-1.5,1.9-2.3c0.5-0.8,0.9-1.6,1.3-2.5
			c0.3-0.8,0.5-1.7,0.7-2.5c0.2-1.3,0.4-2.7,0.3-4C-4.2,356.7-4.3,356.1-4.3,356.1z"/>
		<path class="st9" d="M-1.3,366.8l0.1,0.3c0,0.2,0.1,0.5,0.1,0.8c0.1,1,0,2-0.2,3c-0.2,0.7-0.4,1.3-0.7,1.9
			c-0.4,0.7-0.8,1.3-1.3,1.9c-0.5,0.6-1.1,1.2-1.7,1.7c-0.6,0.5-1.3,1-2,1.4c-2.6,1.5-5.5,2.4-8.4,2.8c-1,0.1-1.9,0.2-2.9,0.1
			c-0.7,0-1.1-0.1-1.1-0.1s0.4-0.2,1-0.4l2.6-1.1c2.6-1,5.1-2.2,7.5-3.5c0.6-0.4,1.2-0.8,1.8-1.2c0.6-0.4,1.1-0.8,1.6-1.3
			c0.5-0.4,0.9-0.9,1.3-1.4c0.4-0.5,0.7-0.9,1-1.4c0.2-0.4,0.5-0.9,0.7-1.4c0.2-0.4,0.3-0.8,0.4-1.1C-1.5,367.2-1.3,366.8-1.3,366.8
			z"/>
		<path class="st9" d="M-1,362.6c0,0,0-0.6-0.1-1.6c0-0.5,0-1.1-0.1-1.9c-0.1-0.7-0.2-1.5-0.3-2.3c0-0.4-0.1-0.9-0.3-1.3
			c-0.1-0.4-0.2-0.9-0.3-1.4c-0.1-0.5-0.3-0.9-0.5-1.4c-0.2-0.5-0.3-1-0.5-1.4c-0.4-0.9-0.9-1.9-1.5-2.7c-0.6-0.9-1.3-1.7-2-2.5
			l-1.2-1c-0.4-0.3-0.8-0.6-1.3-0.9c-0.2-0.1-0.4-0.3-0.7-0.4l-0.7-0.3c-0.4-0.2-0.9-0.4-1.4-0.6l-1.4-0.4l-1.4-0.2
			c-0.4-0.1-0.9-0.1-1.4-0.1c-0.4,0-0.9,0-1.3,0c-0.8,0-1.5,0.2-2.2,0.3c-0.6,0.1-1.2,0.3-1.7,0.5c-0.9,0.4-1.5,0.6-1.5,0.6
			s0.4-0.4,1.3-1c0.5-0.4,1.1-0.7,1.6-1c0.7-0.4,1.5-0.7,2.4-0.9c0.5-0.1,0.9-0.2,1.4-0.3c0.5-0.1,1-0.1,1.6-0.1l1.7,0.1
			c0.6,0.1,1.1,0.2,1.7,0.4c0.6,0.1,1.2,0.3,1.7,0.6l0.9,0.3c0.3,0.1,0.5,0.3,0.8,0.5c0.6,0.3,1.1,0.6,1.6,1l1.5,1.2
			c0.9,0.9,1.6,1.9,2.3,3c0.6,1,1.1,2.1,1.5,3.3c0.2,0.5,0.3,1.1,0.4,1.6c0.1,0.5,0.2,1.1,0.3,1.6c0.1,1,0.2,2,0.1,2.9
			c0,0.9-0.1,1.8-0.2,2.5s-0.3,1.3-0.4,1.8C-0.8,362-1,362.6-1,362.6z"/>
		<path class="st9" d="M-2.3,343.6l-0.4-0.4c-0.2-0.2-0.6-0.5-1-0.9c-0.5-0.4-1.1-0.8-1.7-1.2c-0.7-0.5-1.5-0.9-2.3-1.3
			c-1-0.4-1.9-0.8-2.9-1c-1.1-0.2-2.3-0.4-3.4-0.4c-1.2,0-2.4,0.1-3.6,0.3c-1.2,0.2-2.4,0.7-3.5,1.2c-1.1,0.5-2.2,1.2-3.1,2
			c-0.9,0.8-1.8,1.7-2.5,2.6c-0.7,0.9-1.3,1.9-1.8,2.9c-0.5,0.9-0.9,1.9-1.2,2.9c-0.3,0.9-0.5,1.8-0.7,2.6s-0.3,1.5-0.4,2.1
			c-0.2,1.2-0.3,1.8-0.3,1.8s-0.1-0.7-0.2-1.9c0-0.6,0-1.3,0-2.1l0.1-1.3c0-0.5,0.1-1,0.2-1.5c0.2-1.1,0.5-2.2,0.9-3.2
			c0.2-0.6,0.5-1.1,0.7-1.7c0.3-0.6,0.6-1.1,1-1.7c1.5-2.4,3.7-4.3,6.2-5.5c1.3-0.6,2.7-1,4.1-1.3c1.4-0.2,2.7-0.3,4.1-0.2
			c2.4,0.2,4.8,1,6.8,2.2c0.8,0.5,1.6,1.1,2.3,1.7c0.5,0.5,1,1,1.5,1.6c0.3,0.4,0.6,0.7,0.8,1.1L-2.3,343.6z"/>
		<path class="st9" d="M-7.4,362.3c0,0,0,0.3,0,0.8c0,0.3-0.1,0.6-0.1,0.9c-0.1,0.4-0.2,0.8-0.4,1.1c-0.2,0.4-0.4,0.9-0.7,1.3
			c-0.3,0.5-0.6,0.9-1,1.3c-0.9,0.9-2,1.4-3.2,1.7c-1.3,0.3-2.6,0.1-3.7-0.5c-0.6-0.3-1.1-0.7-1.5-1.2c-0.6-0.8-0.8-1.8-0.7-2.8
			c0.1-0.3,0.2-0.6,0.3-0.9c0.1-0.2,0.2-0.3,0.3-0.5l0.1-0.2v0.2c0,0.2,0,0.4,0,0.5c0,0.3,0.1,0.5,0.1,0.8c0.1,0.3,0.2,0.6,0.4,0.9
			c0.4,0.6,1,1,1.6,1.2c0.8,0.2,1.7,0.3,2.5,0.1c0.9-0.2,1.7-0.5,2.4-1c0.7-0.5,1.4-1,1.9-1.7c0.5-0.6,0.9-1.1,1.2-1.5
			S-7.4,362.3-7.4,362.3z"/>
		<path class="st9" d="M-21.6,375.3c-0.2,0-0.5,0-0.7,0c-0.6,0-1.2-0.1-1.8-0.3c-1.8-0.5-3.3-1.5-4.5-2.9c-0.3-0.4-0.6-0.8-0.9-1.2
			c-0.5-0.8-0.9-1.6-1.1-2.5c-0.1-0.4-0.2-0.8-0.2-1.2c-0.1-0.3-0.1-0.7-0.1-1c0-0.3,0-0.6,0-0.8c0-0.4,0.1-0.7,0.1-0.7
			s0.1,0.2,0.4,0.6c0.1,0.2,0.2,0.4,0.4,0.6s0.3,0.5,0.5,0.8c0.2,0.3,0.3,0.6,0.6,0.9s0.4,0.7,0.6,1s0.5,0.7,0.7,1
			c0.3,0.3,0.5,0.7,0.8,1c0.5,0.6,1.1,1.2,1.7,1.8c0.6,0.5,1.2,1,1.7,1.5C-22.4,374.8-21.6,375.3-21.6,375.3z"/>
		<path class="st9" d="M-7.1,359.4c0,0,0-0.3,0-0.9c0-0.3-0.1-0.6-0.1-1s-0.1-0.8-0.2-1.2s-0.2-0.9-0.4-1.4c-0.1-0.5-0.3-1-0.5-1.4
			c-0.2-0.5-0.5-1-0.8-1.4c-0.3-0.5-0.6-0.9-1-1.3c-0.4-0.4-0.8-0.7-1.2-1c-0.4-0.3-0.9-0.6-1.3-0.8c-0.5-0.2-0.9-0.4-1.4-0.5
			l-0.7-0.2c-0.2-0.1-0.4-0.1-0.7-0.1c-0.4,0-0.9-0.1-1.2-0.2s-0.7,0-1-0.1c-0.5,0-0.9-0.1-0.9-0.1s0.3-0.1,0.8-0.3
			c0.3-0.1,0.6-0.2,1-0.4s0.8-0.2,1.3-0.2c0.5-0.1,1.1-0.1,1.6,0c0.6,0,1.2,0.1,1.8,0.3c0.6,0.2,1.3,0.5,1.8,0.9
			c0.6,0.4,1.2,0.8,1.7,1.3c0.5,0.5,0.9,1.1,1.2,1.7c0.2,0.3,0.3,0.6,0.4,0.9c0.1,0.3,0.2,0.6,0.3,0.9c0.2,0.6,0.3,1.2,0.3,1.8
			c0,0.5,0,1.1,0,1.6c-0.1,0.4-0.1,0.9-0.2,1.3c-0.1,0.3-0.2,0.7-0.3,1C-6.9,359.1-7.1,359.4-7.1,359.4z"/>
		<path class="st9" d="M-25.6,378c-0.3,0.2-0.6,0.2-0.9,0.3c-0.6,0-1.2-0.1-1.6-0.5c-0.5-0.4-0.8-0.9-0.9-1.5
			c-0.1-0.3-0.1-0.7,0.1-1h0.3c0.2,0,0.4,0,0.6,0.1c0.5,0.1,0.9,0.3,1.3,0.5c0.4,0.3,0.7,0.7,0.9,1.1
			C-25.8,377.3-25.7,377.7-25.6,378z"/>
		<path class="st10" d="M27.4,330.8h52.8c1.3,0,2.3,1,2.3,2.3v52.8c0,1.3-1,2.3-2.3,2.3H27.4c-1.3,0-2.3-1-2.3-2.3v-52.8
			C25.1,331.8,26.1,330.8,27.4,330.8z"/>
		<path class="st11" d="M47.2,363.4l0.2-0.1l0.4-0.2c0.4-0.2,0.9-0.5,1.2-0.9c0.5-0.4,0.9-0.9,1.2-1.5c0.3-0.5,0.4-1,0.4-1.5
			c0-0.1,0-0.1-0.1-0.2c-0.1-0.1-0.2-0.2-0.3-0.3c-0.2-0.2-0.4-0.3-0.6-0.3c-0.3,0-0.5,0-0.8,0.1c-0.3,0.1-0.5,0.3-0.8,0.5
			c-0.4,0.4-0.7,0.8-1,1.2c-0.1,0.2-0.2,0.4-0.3,0.5c0-0.2,0-0.4,0-0.7c0-0.6,0.2-1.2,0.5-1.7c0.2-0.4,0.5-0.7,0.8-1
			c0.4-0.4,0.9-0.6,1.5-0.7c0.6-0.1,1.3,0,1.8,0.4l0.4,0.2c0.1,0,0.1,0.1,0.2,0.1l0.2,0.1c0.3,0.3,0.5,0.6,0.6,0.9
			c0.2,0.6,0.3,1.3,0.1,2c-0.1,0.5-0.4,1.1-0.8,1.5c-0.6,0.7-1.4,1.3-2.3,1.6c-0.6,0.2-1.2,0.2-1.9,0.1c-0.2,0-0.3-0.1-0.5-0.1
			L47.2,363.4z"/>
		<path class="st11" d="M46,355.4l0.1-0.3c0.1-0.3,0.3-0.5,0.5-0.8c0.7-0.9,1.6-1.5,2.6-1.9c0.7-0.3,1.5-0.4,2.3-0.3
			c0.9,0.1,1.7,0.3,2.5,0.8c0.4,0.2,0.8,0.5,1.1,0.8c0.4,0.3,0.7,0.7,0.9,1.1c0.5,0.8,0.8,1.8,0.9,2.8c0.1,1.8-0.5,3.6-1.5,5.1
			c-0.9,1.2-2,2.2-3.4,2.9c-0.9,0.5-2,0.8-3,0.9c-0.3,0-0.6,0.1-0.9,0.1H48l0.3-0.1c0.3-0.1,0.5-0.1,0.8-0.2
			c0.9-0.3,1.8-0.8,2.5-1.4c1.1-0.8,2-1.8,2.6-3c0.4-0.6,0.6-1.3,0.8-2c0.2-0.7,0.2-1.4,0.1-2.1c-0.1-0.7-0.3-1.3-0.7-1.8
			c-0.2-0.3-0.4-0.5-0.6-0.7c-0.2-0.2-0.5-0.4-0.8-0.5c-0.5-0.3-1.1-0.5-1.7-0.6c-0.6-0.1-1.1-0.1-1.7,0c-0.5,0.1-1,0.2-1.5,0.4
			c-0.4,0.1-0.8,0.3-1.2,0.5c-0.3,0.2-0.6,0.3-0.7,0.4L46,355.4z"/>
		<path class="st11" d="M43.8,351.4c0,0,0.1-0.3,0.4-0.8l0.2-0.4c0.1-0.1,0.2-0.3,0.4-0.4c0.3-0.4,0.6-0.7,1-0.9l0.6-0.5
			c0.2-0.1,0.5-0.3,0.7-0.4c0.5-0.3,1.1-0.5,1.7-0.7c0.6-0.2,1.3-0.3,1.9-0.4c0.7-0.1,1.3-0.1,2,0c0.7,0.1,1.3,0.2,2,0.4
			c0.6,0.2,1.2,0.4,1.8,0.7c0.5,0.3,1.1,0.6,1.5,0.9c0.4,0.3,0.8,0.7,1.2,1.1c0.2,0.2,0.3,0.3,0.5,0.5l0.4,0.5
			c0.2,0.3,0.4,0.6,0.5,0.9c0.2,0.5,0.4,0.8,0.4,0.8s-0.3-0.2-0.7-0.5c-0.3-0.2-0.5-0.3-0.8-0.5c-0.3-0.2-0.7-0.4-1.1-0.6
			c-0.4-0.2-0.8-0.4-1.3-0.5s-0.9-0.3-1.4-0.5s-1-0.3-1.6-0.4c-0.6-0.1-1.1-0.2-1.6-0.2c-0.6-0.1-1.1-0.1-1.7-0.1
			c-0.5,0-1.1,0.1-1.6,0.1c-0.5,0-1,0.1-1.5,0.3l-0.7,0.2l-0.6,0.2c-0.4,0.1-0.7,0.3-1.1,0.4l-0.5,0.2l-0.4,0.2
			C44.1,351.2,43.8,351.4,43.8,351.4z"/>
		<path class="st11" d="M55.9,380c0,0-0.3,0.1-0.9,0.1s-1.4,0.2-2.3,0.2c-2.4,0.2-4.8,0-7.2-0.5c-0.7-0.2-1.3-0.4-2-0.6
			c-0.6-0.3-1.3-0.6-1.8-1c-0.3-0.2-0.6-0.4-0.8-0.6c-0.2-0.2-0.5-0.5-0.7-0.7c-0.4-0.5-0.7-1-0.9-1.6c-0.1-0.3-0.2-0.5-0.2-0.8
			l-0.1-0.7c0-0.2,0-0.4,0-0.6l0.1-0.5c0.1-0.3,0.1-0.6,0.2-0.9c0,0,0.2,0.3,0.4,0.8l0.2,0.4c0.1,0.1,0.2,0.3,0.3,0.4l0.3,0.5
			c0.1,0.1,0.3,0.3,0.4,0.4c0.3,0.3,0.6,0.6,1,0.8c0.2,0.1,0.4,0.2,0.6,0.3l0.3,0.2l0.3,0.2c0.2,0.1,0.5,0.2,0.7,0.3l0.8,0.3
			c0.5,0.1,1.1,0.3,1.7,0.5s1.2,0.3,1.8,0.4c0.6,0.1,1.2,0.3,1.7,0.4c1.1,0.3,2.2,0.6,3.2,0.9c0.8,0.3,1.5,0.6,2.2,1
			C55.6,379.9,55.9,380,55.9,380z"/>
		<path class="st11" d="M63.5,355c0,0,0.3,0.4,0.7,1c0.3,0.4,0.5,0.8,0.7,1.2c0.2,0.5,0.4,1.1,0.6,1.8c0.1,0.7,0.2,1.5,0.3,2.2
			l-0.1,1.2v0.6l-0.1,0.6c-0.1,0.4-0.2,0.9-0.3,1.3c-0.1,0.4-0.3,0.8-0.5,1.3c-0.2,0.4-0.4,0.8-0.6,1.2c-0.2,0.4-0.5,0.8-0.7,1.2
			c-0.5,0.7-1.2,1.4-1.8,2.1c-0.6,0.6-1.3,1.2-2,1.7c-0.7,0.5-1.4,0.9-2.1,1.3c-0.4,0.2-0.7,0.3-1,0.5l-1,0.4
			c-0.6,0.2-1.2,0.4-1.8,0.5c-0.5,0.1-1,0.1-1.4,0.2c-0.4,0-0.7,0-0.9,0H51l1.1-0.5l1.1-0.7c0.4-0.3,0.9-0.6,1.4-1s1-0.8,1.6-1.2
			c0.6-0.5,1.1-1,1.7-1.4c0.6-0.5,1.1-1,1.6-1.7c0.5-0.6,1-1.2,1.5-1.8c0.2-0.3,0.4-0.6,0.6-1c0.2-0.3,0.4-0.7,0.6-1
			c0.2-0.3,0.3-0.7,0.5-1c0.2-0.3,0.2-0.7,0.4-1l0.2-0.5l0.1-0.5l0.2-1c0.1-0.7,0.1-1.3,0.2-1.9c0.1-0.6,0-1.1,0-1.6
			c0-0.5-0.1-0.9-0.1-1.4C63.6,355.5,63.5,355,63.5,355z"/>
		<path class="st11" d="M69.2,359.3c0,0-0.2-0.4-0.5-1.2c-0.2-0.5-0.3-0.9-0.5-1.4c-0.2-0.5-0.5-1-0.8-1.6l-0.5-0.9l-0.2-0.5
			l-0.3-0.5l-0.6-1c-0.2-0.3-0.5-0.6-0.7-0.9c-0.5-0.6-1-1.2-1.6-1.8c-0.6-0.6-1.2-1.1-1.9-1.5l-0.5-0.4l-0.5-0.3
			c-0.3-0.2-0.7-0.4-1.1-0.6c-0.4-0.2-0.7-0.3-1.1-0.5c-0.4-0.2-0.8-0.2-1.1-0.4c-0.4-0.1-0.7-0.2-1.1-0.3c-0.4-0.1-0.7-0.2-1.1-0.2
			c-0.7-0.1-1.4-0.2-2.1-0.2c-0.3,0-0.6,0-0.9,0l-0.9,0.1c-0.3,0-0.5,0-0.8,0l-0.6,0.1c-0.8,0.1-1.3,0.2-1.3,0.2s0.4-0.3,1.1-0.7
			c0.2-0.1,0.4-0.2,0.6-0.4s0.5-0.2,0.8-0.3l0.9-0.4c0.3-0.1,0.6-0.2,1-0.3c0.4-0.1,0.7-0.2,1.1-0.2l1.2-0.1c0.4,0,0.9,0,1.3,0
			c0.5,0,0.9,0.1,1.4,0.1c0.5,0.1,0.9,0.2,1.4,0.3c0.5,0.1,0.9,0.3,1.4,0.5c0.5,0.2,0.9,0.4,1.4,0.6l0.7,0.4
			c0.2,0.1,0.4,0.3,0.6,0.4c0.4,0.3,0.8,0.6,1.2,0.9c0.4,0.3,0.7,0.7,1.1,1c0.4,0.3,0.6,0.8,0.9,1.1c0.3,0.4,0.6,0.8,0.8,1.2
			c0.2,0.4,0.5,0.8,0.7,1.2l0.5,1.2c0.5,1.4,0.8,2.8,0.9,4.2c0,0.5,0,1,0,1.5C69.3,358.8,69.2,359.3,69.2,359.3z"/>
		<path class="st11" d="M52.5,342.2c0,0-0.3,0.1-0.8,0.2c-0.3,0.1-0.6,0.2-0.9,0.3c-0.3,0.1-0.6,0.3-1,0.4c-0.4,0.1-0.8,0.4-1.2,0.6
			c-0.4,0.2-0.8,0.5-1.2,0.8l-0.6,0.4l-0.6,0.5c-0.4,0.3-0.8,0.7-1.3,1s-0.8,0.7-1.2,1.1c-0.4,0.4-0.8,0.7-1.1,1.1
			c-0.4,0.4-0.7,0.7-1,1.1c-0.3,0.3-0.6,0.7-0.9,1c-0.2,0.3-0.5,0.6-0.7,0.9s-0.4,0.5-0.5,0.8c-0.2,0.4-0.4,0.7-0.4,0.7
			c0-0.3,0-0.6,0-0.8c0-0.3,0-0.7,0.1-1c0.1-0.4,0.2-0.8,0.3-1.2c0.1-0.5,0.3-0.9,0.6-1.4c0.3-0.5,0.5-1,0.9-1.4
			c0.3-0.5,0.7-0.9,1.1-1.4c0.4-0.5,0.9-0.9,1.3-1.3c0.5-0.4,1-0.8,1.5-1.1c0.5-0.3,1-0.6,1.6-0.8c0.5-0.2,1-0.4,1.6-0.6
			c0.5-0.1,1-0.2,1.5-0.3c0.4,0,0.9,0,1.3,0c0.3,0,0.7,0.1,1,0.2C52.2,342,52.5,342.2,52.5,342.2z"/>
		<path class="st11" d="M47.2,369.9l1.3-0.2c0.4-0.1,0.9-0.2,1.4-0.3c0.3-0.1,0.6-0.2,0.8-0.3c0.3-0.1,0.6-0.2,0.9-0.3
			c0.3-0.1,0.6-0.3,0.9-0.5c0.3-0.2,0.6-0.3,1-0.5c0.6-0.4,1.2-0.9,1.8-1.5c0.6-0.6,1.2-1.2,1.6-1.8c0.5-0.7,0.9-1.4,1.3-2.2
			c0.4-0.7,0.6-1.5,0.8-2.4c0.2-0.8,0.2-1.6,0.1-2.3c-0.1-0.7-0.2-1.4-0.5-2.1c-0.3-0.6-0.6-1.2-1-1.7c-0.2-0.3-0.4-0.5-0.6-0.7
			c-0.2-0.2-0.4-0.4-0.6-0.6c-0.4-0.4-0.8-0.6-1.2-0.9l-1.1-0.7h0.3c0.2,0,0.6,0.1,1,0.2c0.5,0.1,1,0.3,1.5,0.5
			c0.3,0.1,0.6,0.3,0.9,0.4c0.3,0.2,0.6,0.4,0.9,0.6c1.5,1.2,2.4,2.8,2.8,4.7c0.2,1,0.2,2.1,0.1,3.1c-0.1,1-0.5,2.1-0.9,3
			c-0.9,1.9-2.2,3.5-3.8,4.7c-0.7,0.6-1.6,1-2.4,1.4c-0.8,0.3-1.5,0.6-2.4,0.7c-0.4,0.1-0.7,0.1-1.1,0.1c-0.3,0-0.7,0-1,0
			c-0.5,0-1,0-1.6-0.1c-0.3-0.1-0.7-0.1-1-0.2L47.2,369.9z"/>
		<path class="st11" d="M40.3,362.1c0,0-0.1-0.2-0.4-0.5c-0.1-0.2-0.3-0.4-0.4-0.6c-0.1-0.3-0.2-0.6-0.3-0.9
			c-0.1-0.4-0.1-0.8-0.2-1.1c0-0.4,0-0.9,0.1-1.3c0.1-0.5,0.2-0.9,0.4-1.4c0.2-0.4,0.5-0.9,0.7-1.2c0.3-0.4,0.6-0.7,1-1.1
			c0.3-0.3,0.7-0.6,1.1-0.8c0.3-0.2,0.7-0.4,1.1-0.6c0.3-0.2,0.7-0.3,1-0.4c0.5-0.2,1.1-0.3,1.6-0.3c0.4,0,0.6,0,0.6,0
			s-0.2,0.1-0.5,0.4l-1.2,1c-1.1,0.9-2.1,2-3,3.1c-0.2,0.3-0.4,0.6-0.6,0.9c-0.2,0.3-0.3,0.7-0.5,1c-0.1,0.3-0.2,0.7-0.3,1
			c-0.1,0.3-0.1,0.6-0.2,0.9s0,0.6-0.1,0.8c0,0.2,0,0.5,0,0.7C40.3,361.8,40.3,362.1,40.3,362.1z"/>
		<path class="st11" d="M46.7,366.7c0,0-0.2,0-0.5,0c-0.2,0-0.4,0-0.6-0.1c-0.3,0-0.5-0.1-0.8-0.2c-1.1-0.3-2-1.2-2.5-2.2
			c-0.1-0.2-0.2-0.4-0.2-0.6l-0.1-0.7c0-0.4,0-0.9,0.1-1.3c0.1-0.4,0.2-0.8,0.4-1.1c0.1-0.3,0.3-0.6,0.5-0.9
			c0.2-0.3,0.3-0.5,0.5-0.7c0.3-0.4,0.6-0.7,1-1c0.3-0.2,0.4-0.3,0.4-0.3s0,0.2-0.1,0.5c-0.1,0.3-0.1,0.8-0.3,1.3
			c-0.1,0.2-0.1,0.5-0.2,0.8s-0.1,0.6-0.2,0.9s-0.1,0.6-0.1,0.9c0,0.3,0,0.6,0,0.8c0,0.2,0.1,0.5,0.1,0.7c0.1,0.2,0.2,0.5,0.3,0.7
			c0.1,0.2,0.3,0.4,0.4,0.6c0.2,0.2,0.3,0.4,0.5,0.6c0.4,0.4,0.6,0.7,0.9,0.9S46.7,366.7,46.7,366.7z"/>
		<path class="st11" d="M43.7,342.3c0,0,0.3-0.4,0.8-0.9c0.1-0.1,0.2-0.3,0.4-0.5s0.4-0.3,0.6-0.5l0.7-0.5c0.2-0.2,0.5-0.3,0.8-0.5
			c0.3-0.2,0.6-0.4,0.9-0.5s0.7-0.3,1-0.4c0.8-0.3,1.5-0.5,2.3-0.7c0.4-0.1,0.8-0.1,1.3-0.2l0.6-0.1h0.7c0.4,0,0.9,0,1.3,0l1.3,0.1
			c0.4,0.1,0.9,0.2,1.3,0.3c0.4,0.1,0.9,0.2,1.3,0.4c0.4,0.2,0.8,0.3,1.2,0.5l1.1,0.6c0.4,0.2,0.7,0.4,1.1,0.7
			c0.3,0.2,0.7,0.5,1,0.7c0.6,0.5,1.1,1,1.5,1.6l0.6,0.8c0.2,0.3,0.3,0.5,0.4,0.8c0.2,0.4,0.4,0.8,0.5,1.3c0.2,0.8,0.2,1.2,0.2,1.2
			s-0.3-0.4-0.7-1c-0.2-0.4-0.5-0.7-0.8-1c-0.2-0.2-0.3-0.4-0.5-0.6l-0.7-0.5c-0.5-0.4-1-0.8-1.6-1.1c-0.3-0.2-0.6-0.3-0.9-0.5
			c-0.3-0.2-0.7-0.3-1-0.5l-1-0.4c-0.4-0.1-0.7-0.2-1.1-0.3c-0.4-0.1-0.7-0.2-1.1-0.3c-0.4-0.1-0.8-0.2-1.1-0.2L55,340l-1.2-0.1
			c-0.8,0-1.5,0-2.3,0c-0.7,0.1-1.5,0.1-2.1,0.3c-0.3,0.1-0.7,0.1-1,0.2c-0.3,0.1-0.6,0.2-0.9,0.3c-0.5,0.2-1.1,0.3-1.6,0.6
			l-0.7,0.2c-0.2,0.1-0.4,0.2-0.5,0.3C44.1,342.1,43.7,342.3,43.7,342.3z"/>
		<path class="st11" d="M38.3,361.4c0,0,0.1,0.3,0.2,0.9c0.1,0.3,0.1,0.7,0.3,1c0.1,0.4,0.3,0.8,0.4,1.2c0.1,0.4,0.4,0.8,0.6,1.3
			c0.3,0.5,0.6,0.9,0.9,1.3c0.2,0.2,0.3,0.5,0.5,0.6c0.2,0.2,0.4,0.4,0.6,0.6c0.2,0.2,0.4,0.4,0.6,0.6c0.2,0.2,0.4,0.4,0.7,0.5
			c0.4,0.3,0.9,0.7,1.4,0.9c0.5,0.3,1,0.5,1.5,0.7l0.8,0.2l0.8,0.2c0.2,0.1,0.5,0.1,0.7,0.1l0.7,0.1c0.5,0,0.9,0,1.3,0
			c0.3,0,0.7,0,1,0c0.6,0,0.9,0,0.9,0s-0.3,0.2-0.8,0.5c-0.3,0.2-0.6,0.4-1,0.5c-1,0.4-2,0.6-3.1,0.7h-1c-0.3,0-0.6-0.1-1-0.2
			c-0.3-0.1-0.7-0.1-1-0.3c-0.3-0.1-0.7-0.2-1-0.4c-0.7-0.3-1.3-0.7-1.8-1.1c-0.6-0.4-1.1-0.9-1.6-1.5c-0.4-0.5-0.8-1.1-1.2-1.7
			c-0.3-0.6-0.6-1.2-0.8-1.8c-0.2-0.6-0.3-1.1-0.3-1.7c-0.1-0.5-0.1-1,0-1.4c0-0.4,0.1-0.7,0.2-1.1
			C38.2,361.7,38.3,361.4,38.3,361.4z"/>
		<path class="st11" d="M55.2,377.5c0,0,0.4-0.1,1-0.2l1-0.3c0.4-0.2,0.9-0.3,1.3-0.5c2.2-1,4.2-2.5,5.8-4.3l0.6-0.8l0.5-0.8
			c0.4-0.5,0.6-1.1,1-1.6s0.5-1.1,0.7-1.6c0.2-0.5,0.4-1.1,0.5-1.6s0.3-1,0.4-1.4l0.2-1.1c0.1-0.6,0.2-1,0.2-1s0.1,0.4,0.3,1
			c0.1,0.4,0.2,0.8,0.2,1.2c0,0.4,0.1,1,0.1,1.5c0,0.6-0.1,1.2-0.1,1.8c-0.1,0.7-0.3,1.3-0.5,2l-0.4,1l-0.2,0.5l-0.3,0.5
			c-0.2,0.3-0.4,0.7-0.6,1l-0.7,0.9c-0.3,0.3-0.5,0.6-0.8,0.9c-0.3,0.3-0.6,0.5-0.9,0.8c-0.3,0.2-0.6,0.5-0.9,0.7l-1,0.6
			c-0.3,0.2-0.7,0.3-1,0.5c-0.3,0.1-0.7,0.3-1,0.4c-0.3,0.1-0.6,0.2-0.9,0.3l-0.9,0.1c-0.5,0.1-1,0.1-1.6,0.1
			c-0.5,0-0.9-0.1-1.2-0.1C55.6,377.6,55.2,377.5,55.2,377.5z"/>
		<path class="st8" d="M-111.7,470.3h52.8c1.3,0,2.3,1,2.3,2.3v52.8c0,1.3-1,2.3-2.3,2.3h-52.8c-1.3,0-2.3-1-2.3-2.3v-52.8
			C-114,471.3-112.9,470.3-111.7,470.3z"/>
		<path class="st9" d="M-74.6,513.5c-0.1,0.1-0.2,0.2-0.4,0.3c-0.4,0.2-0.8,0.4-1.3,0.4c-1.6,0.2-3.2,0-4.7-0.7
			c-1-0.5-1.9-1.1-2.7-1.8c-0.9-0.8-1.7-1.8-2.4-2.8c-0.6-1.1-1.2-2.3-1.5-3.6c-0.2-0.6-0.3-1.3-0.5-1.9c-0.1-0.7-0.2-1.3-0.3-2
			c-0.1-0.8,0-1.5,0.2-2.3c0.2-0.9,0.7-1.7,1.4-2.3c0.4-0.4,0.9-0.6,1.5-0.7c0.3,0,0.6,0,0.9,0l0,0h0.1l0,0h0.1h0.1
			c0.1,0,0.3,0.1,0.4,0.1c0.8,0.4,1.5,1.1,1.8,2c0.4,1.2,0.7,2.4,0.8,3.6c0.1,1,0.2,1.9,0.4,2.9c0.2,0.8,0.4,1.6,0.7,2.3
			c0.2,0.6,0.5,1.2,0.8,1.7c0.3,0.5,0.5,0.8,0.7,1.1l0.3,0.4l-0.4-0.2c-0.4-0.2-0.7-0.5-1.1-0.8c-0.5-0.5-1-1-1.4-1.6
			c-0.5-0.7-1-1.5-1.3-2.4c-0.4-1-0.7-2-1-3l-0.2-0.8c0-0.3-0.1-0.5-0.2-0.8c-0.1-0.5-0.3-0.9-0.5-1.4c-0.1-0.2-0.3-0.5-0.5-0.6
			c0,0,0.1,0,0,0H-85h0h0.1l0,0c-0.1,0-0.1,0.1-0.2,0.1c-0.5,0.7-0.7,1.5-0.6,2.3c0,0.5,0.1,1.1,0.2,1.7c0.1,0.6,0.2,1.2,0.3,1.7
			c0.2,1.1,0.6,2.2,1.1,3.2c0.4,0.9,1,1.8,1.7,2.6c0.6,0.7,1.3,1.3,2.1,1.9c0.7,0.4,1.4,0.8,2.1,1.1c0.6,0.2,1.2,0.4,1.8,0.4
			c0.4,0,0.8,0,1.2-0.1C-74.9,513.6-74.8,513.6-74.6,513.5z"/>
		<path class="st9" d="M-77.4,503.5c0,0-0.2-0.6-0.5-1.8c-0.1-0.6-0.3-1.3-0.4-2c-0.2-0.7-0.4-1.7-0.6-2.5c-0.3-0.9-0.7-1.7-1.3-2.4
			c-0.3-0.3-0.7-0.7-1.1-0.9c-0.1-0.1-0.5-0.3-0.7-0.4c-0.2-0.1-0.4-0.2-0.7-0.3c-1-0.3-2-0.4-3-0.1c-1,0.3-2,0.8-2.8,1.6
			c-0.4,0.4-0.8,0.8-1.1,1.3c-0.1,0.1-0.2,0.3-0.2,0.3l-0.3,0.4c-0.1,0.2-0.2,0.4-0.4,0.7c-0.4,1-0.7,2.1-0.8,3.2
			c0,1.1,0,2.2,0.2,3.2c0.2,1,0.5,1.9,0.9,2.9c0.6,1.4,1.4,2.8,2.4,4c0.4,0.4,0.7,0.8,0.9,1l0.4,0.3l-0.4-0.2
			c-0.4-0.2-0.8-0.4-1.2-0.7c-1.4-1-2.5-2.2-3.4-3.6c-0.6-1-1.1-2-1.4-3.1c-0.4-1.2-0.7-2.5-0.7-3.8c-0.1-1.4,0.2-2.9,0.7-4.2
			c0.1-0.4,0.3-0.7,0.5-1.1l0.2-0.4c0.1-0.2,0.2-0.3,0.3-0.5c0.4-0.6,0.9-1.2,1.5-1.7c1.1-1.1,2.5-1.8,4-2.2
			c1.9-0.4,3.9-0.1,5.5,0.9c0.3,0.2,0.6,0.4,0.8,0.6c0.6,0.4,1,0.9,1.4,1.5c0.7,1,1.1,2.2,1.2,3.4c0.1,0.9,0.2,1.9,0.1,2.8
			c0,0.8,0,1.5-0.1,2.1L-77.4,503.5z"/>
		<path class="st9" d="M-75.7,507.3c0,0,0.1-0.7,0.2-1.8c0.2-1.1,0.4-2.8,0.6-4.7c0.3-2.1,0.3-4.2,0.1-6.3c-0.1-1.1-0.5-2.1-1-3.1
			c-0.5-0.9-1.3-1.8-2.1-2.4c-0.5-0.3-0.9-0.6-1.4-0.9l-0.4-0.2l-0.4-0.1c-0.3-0.1-0.5-0.2-0.8-0.2c-1.1-0.3-2.2-0.4-3.4-0.3
			c-1.1,0-2.2,0.2-3.2,0.4c-1,0.2-1.9,0.6-2.8,1c-1.4,0.6-2.6,1.5-3.5,2.7c-0.3,0.3-0.5,0.7-0.7,1.1l-0.2,0.4v-0.5
			c0.1-0.5,0.2-0.9,0.3-1.3c0.6-1.6,1.7-2.9,3.1-3.8c0.9-0.7,1.9-1.2,3-1.6c1.2-0.5,2.4-0.8,3.6-0.9c1.4-0.2,2.8-0.1,4.1,0.1
			c0.4,0.1,0.7,0.2,1.1,0.3l0.6,0.2l0.5,0.2c0.7,0.3,1.3,0.7,1.9,1.1c1.2,0.9,2.2,2,2.9,3.4c0.6,1.3,0.9,2.7,1,4.1
			c0.1,1.2,0,2.5-0.2,3.7c-0.2,1.1-0.4,2.1-0.7,3.2c-0.5,1.5-1,3-1.6,4.5C-75.4,506.7-75.7,507.3-75.7,507.3z"/>
		<path class="st9" d="M-96.3,496.5c0,0-0.1,0.5-0.1,1.4c0,1.2,0,2.4,0.2,3.6c0.2,1.7,0.6,3.3,1.3,4.8c0.4,0.8,0.8,1.7,1.3,2.4
			c0.3,0.4,0.5,0.8,0.8,1.1l0.2,0.3l0.1,0.1l0.1,0.1l0.5,0.6c0.4,0.4,0.7,0.6,1,1s0.7,0.6,1.1,0.9c0.8,0.5,1.5,1,2.4,1.4
			c0.8,0.4,1.6,0.7,2.4,1c0.7,0.3,1.5,0.5,2.3,0.6c0.7,0.1,1.3,0.2,2,0.3c0.3,0,0.6,0,0.9,0c0.2,0,0.5,0,0.7,0c0.3,0,0.7-0.1,1-0.1
			l0.4-0.1l-0.3,0.3c-0.3,0.2-0.7,0.4-1,0.5c-0.5,0.2-1.1,0.4-1.6,0.5c-0.7,0.1-1.5,0.2-2.2,0.2c-0.9,0-1.8-0.1-2.6-0.3
			c-1-0.2-1.9-0.5-2.8-0.9c-1-0.4-1.9-0.9-2.8-1.5c-0.5-0.3-0.9-0.7-1.3-1c-0.4-0.3-0.9-0.8-1.2-1.2l-0.5-0.6l-0.1-0.1l-0.2-0.2
			l-0.2-0.3c-0.3-0.4-0.6-0.9-0.9-1.4c-1.5-2.5-2.2-5.4-2-8.4c0.1-1.3,0.3-2.5,0.7-3.8C-96.7,497.5-96.5,497-96.3,496.5z"/>
		<path class="st9" d="M-99.5,505.6c0,0,0.1,0.4,0.3,1c0.1,0.3,0.2,0.7,0.3,1.1s0.4,0.9,0.5,1.4c0.4,1.1,1,2.1,1.6,3.1
			c0.3,0.5,0.8,1,1.1,1.5c0.4,0.5,0.9,1,1.4,1.4c0.5,0.4,1,0.9,1.5,1.3c0.6,0.4,1.1,0.8,1.6,1.1s1.1,0.6,1.6,0.9s1.1,0.5,1.5,0.7
			c1,0.4,1.8,0.7,2.4,0.9s1,0.3,1,0.3l-0.3,0.1c-0.2,0.1-0.5,0.1-0.8,0.2c-0.9,0.1-1.9,0.1-2.8,0c-0.6-0.1-1.2-0.2-1.8-0.3
			c-0.7-0.2-1.4-0.4-2-0.7c-0.3-0.1-0.7-0.3-1-0.5c-0.3-0.2-0.7-0.3-1-0.6c-0.7-0.4-1.3-0.9-1.9-1.4c-0.6-0.5-1.1-1.1-1.6-1.8
			c-0.2-0.3-0.4-0.7-0.6-1c-0.2-0.3-0.4-0.7-0.5-1c-0.3-0.6-0.5-1.3-0.7-2c-0.2-0.6-0.3-1.2-0.3-1.9c0-0.6,0-1.1-0.1-1.6
			s0.1-0.8,0.2-1.2C-99.6,505.9-99.5,505.6-99.5,505.6z"/>
		<path class="st9" d="M-99.9,502.7c0,0-0.2-0.6-0.5-1.6c-0.1-0.5-0.3-1.1-0.4-1.9c-0.1-0.8-0.2-1.7-0.3-2.5c0-1,0-2,0.2-3
			c0.2-1.1,0.4-2.2,0.9-3.3c0.4-1.2,1-2.3,1.7-3.3c0.7-1.1,1.6-2,2.6-2.9c1-0.8,2.1-1.5,3.2-2.1c1.1-0.5,2.3-1,3.5-1.2
			c1.1-0.3,2.3-0.4,3.4-0.4c1,0,2,0.1,3,0.4c0.8,0.2,1.6,0.5,2.4,0.9c0.6,0.3,1.1,0.6,1.7,1c0.3,0.2,0.6,0.5,0.9,0.8l0.3,0.3
			l-0.4-0.2c-0.4-0.2-0.7-0.4-1.1-0.5c-0.3-0.1-0.5-0.2-0.8-0.3c-0.3-0.1-0.6-0.2-0.9-0.3c-0.8-0.2-1.5-0.3-2.3-0.4
			c-1.9-0.1-3.8,0.1-5.6,0.7c-1,0.3-2,0.7-2.9,1.2c-1,0.5-1.9,1.1-2.7,1.9c-1.6,1.4-2.9,3.1-3.8,5.1c-0.4,0.9-0.8,1.9-1.1,2.8
			c-0.1,0.5-0.2,0.9-0.3,1.4c-0.1,0.4-0.2,0.9-0.2,1.3c-0.1,0.9-0.2,1.6-0.2,2.4v1.9C-99.9,502.1-99.9,502.7-99.9,502.7z"/>
		<path class="st9" d="M-96.2,481.6c0,0,0.4-0.4,1.2-1.1l0.6-0.6c0.3-0.2,0.6-0.4,0.9-0.6c0.7-0.5,1.4-0.9,2.2-1.2l1.3-0.6
			c0.5-0.2,1-0.3,1.5-0.4c1.1-0.3,2.2-0.5,3.4-0.5c0.6,0,1.2,0,1.8,0.1c0.3,0,0.6,0,0.9,0.1l0.9,0.2c1.3,0.3,2.5,0.6,3.6,1.1l1.7,1
			c0.5,0.3,1,0.7,1.5,1.1c0.2,0.2,0.5,0.4,0.7,0.6l0.6,0.7c0.4,0.4,0.8,0.9,1.1,1.4c0.3,0.5,0.6,1,0.9,1.5c0.3,0.5,0.4,1.1,0.6,1.6
			c0.4,0.9,0.6,1.9,0.7,2.9c0.1,0.8,0.2,1.7,0.1,2.5c0,0.6-0.1,1.3-0.2,1.9c-0.2,1-0.3,1.6-0.3,1.6s-0.1-0.6-0.2-1.6
			c0-0.6-0.1-1.2-0.3-1.8l-0.3-1.1c-0.1-0.4-0.2-0.8-0.3-1.2c-0.3-0.9-0.6-1.7-1.1-2.5c-0.2-0.4-0.4-0.9-0.7-1.3s-0.6-0.8-0.9-1.2
			c-0.3-0.4-0.7-0.8-1.1-1.1l-0.6-0.6c-0.2-0.2-0.4-0.3-0.6-0.5c-0.4-0.3-0.8-0.7-1.3-0.9l-1.4-0.8c-1-0.4-2-0.8-3.1-1l-0.8-0.2
			c-0.3-0.1-0.5-0.1-0.8-0.1c-0.5,0-1-0.2-1.6-0.2c-1,0-2,0-3,0.1c-0.5,0.1-1,0.1-1.4,0.2l-1.3,0.3c-0.8,0.2-1.5,0.4-2.2,0.7
			c-0.3,0.1-0.6,0.2-0.9,0.3l-0.8,0.4C-95.7,481.3-96.2,481.6-96.2,481.6z"/>
		<path class="st9" d="M-70.1,497.4c0,0,0.1,0.3,0.2,0.8c0.2,0.7,0.3,1.3,0.3,2c0,1,0,2-0.2,2.9c-0.1,0.5-0.2,1.1-0.4,1.6
			c-0.2,0.6-0.4,1.1-0.6,1.6c-0.2,0.5-0.5,1-0.8,1.5c-0.3,0.5-0.6,0.9-1,1.4c-0.3,0.4-0.7,0.8-1.1,1.1c-0.4,0.3-0.8,0.6-1.2,0.8
			c-0.3,0.2-0.7,0.4-1.1,0.5c-0.3,0.1-0.6,0.2-0.9,0.3c-0.5,0.1-0.8,0.1-0.8,0.1s0.2-0.2,0.6-0.5l0.6-0.6c0.2-0.2,0.5-0.5,0.7-0.8
			s0.5-0.6,0.8-1s0.5-0.7,0.8-1.1s0.5-0.8,0.7-1.3s0.5-0.9,0.7-1.4c0.2-0.5,0.4-0.9,0.6-1.4l0.5-1.4c0.1-0.5,0.3-0.9,0.4-1.4
			s0.3-0.9,0.4-1.2c0.1-0.4,0.2-0.7,0.3-1.1l0.2-0.9C-70.2,497.7-70.1,497.4-70.1,497.4z"/>
		<path class="st9" d="M-83.2,520.2c0,0,1-0.3,2.2-0.7c0.6-0.2,1.4-0.5,2.1-0.8c0.4-0.1,0.7-0.3,1.1-0.5c0.4-0.2,0.7-0.4,1-0.6
			l0.5-0.3l0.5-0.4c0.3-0.2,0.6-0.5,0.9-0.8c0.3-0.3,0.5-0.5,0.7-0.8c0.2-0.3,0.4-0.5,0.6-0.8c0.2-0.3,0.4-0.5,0.5-0.8
			s0.3-0.5,0.4-0.6c0.2-0.4,0.4-0.6,0.4-0.6s0,0.2,0.1,0.7c0,0.2,0,0.5,0,0.8c0,0.3-0.1,0.7-0.2,1c-0.1,0.4-0.2,0.8-0.4,1.2
			c-0.2,0.4-0.4,0.8-0.6,1.2c-0.3,0.4-0.6,0.8-1,1.2c-0.2,0.2-0.4,0.4-0.6,0.5l-0.6,0.4c-0.4,0.3-0.9,0.5-1.4,0.7
			c-0.5,0.2-0.9,0.3-1.4,0.4c-0.8,0.2-1.7,0.2-2.5,0.2C-81.7,520.7-82.5,520.5-83.2,520.2z"/>
		<path class="st8" d="M62,400.5h52.8c1.3,0,2.3,1,2.3,2.3v52.8c0,1.3-1,2.3-2.3,2.3H62c-1.3,0-2.3-1-2.3-2.3v-52.8
			C59.7,401.6,60.8,400.5,62,400.5z"/>
		<path class="st9" d="M99.1,443.8c-0.1,0.1-0.2,0.2-0.4,0.3c-0.4,0.2-0.8,0.4-1.3,0.4c-1.6,0.2-3.2,0-4.7-0.7
			c-1-0.5-1.9-1.1-2.7-1.8c-0.9-0.8-1.7-1.8-2.4-2.8c-0.6-1.1-1.2-2.3-1.5-3.6c-0.2-0.6-0.3-1.3-0.5-1.9c-0.1-0.7-0.2-1.3-0.3-2
			c-0.1-0.8,0-1.5,0.2-2.3c0.2-0.9,0.7-1.7,1.4-2.3c0.4-0.4,0.9-0.6,1.5-0.7c0.3,0,0.6,0,0.9,0l0,0h0.1l0,0h0h0.1
			c0.1,0,0.3,0.1,0.4,0.2c0.8,0.4,1.5,1.1,1.8,2c0.4,1.2,0.7,2.4,0.8,3.6c0.1,1,0.2,1.9,0.4,2.9c0.2,0.8,0.4,1.6,0.7,2.3
			c0.2,0.6,0.5,1.2,0.8,1.7c0.3,0.5,0.5,0.8,0.7,1.1l0.3,0.4l-0.4-0.2c-0.4-0.2-0.7-0.5-1-0.8c-0.5-0.5-1-1-1.4-1.5
			c-0.5-0.7-1-1.5-1.3-2.4c-0.4-1-0.7-2-1-3l-0.2-0.8c0-0.3-0.1-0.5-0.2-0.8c-0.1-0.5-0.3-0.9-0.5-1.4c-0.1-0.2-0.3-0.5-0.5-0.6
			c0,0,0.1,0,0,0h-0.1h-0.1v0.1c0.2,0,0.1,0.2,0.1,0.2l0,0v-0.1c-0.1,0-0.1,0-0.2,0.1c-0.5,0.7-0.7,1.5-0.5,2.3
			c0,0.5,0.1,1.1,0.2,1.7c0.1,0.6,0.2,1.2,0.3,1.7c0.2,1.1,0.6,2.1,1.1,3.1c0.4,0.9,1,1.8,1.7,2.6c0.6,0.7,1.3,1.3,2.1,1.9
			c0.7,0.4,1.4,0.8,2.1,1.1c0.6,0.2,1.2,0.4,1.8,0.4c0.4,0,0.8,0,1.2-0.1C98.8,443.9,98.9,443.9,99.1,443.8z"/>
		<path class="st9" d="M96.3,433.8c0,0-0.2-0.6-0.5-1.8c-0.1-0.6-0.3-1.3-0.5-2s-0.4-1.7-0.6-2.5c-0.3-0.9-0.7-1.7-1.3-2.4
			c-0.3-0.3-0.7-0.7-1.1-0.9c-0.1-0.1-0.5-0.3-0.7-0.4c-0.2-0.1-0.4-0.2-0.7-0.3c-1-0.3-2-0.4-3-0.1c-1,0.3-2,0.8-2.8,1.6
			c-0.4,0.4-0.8,0.8-1.1,1.3c-0.1,0.1-0.2,0.3-0.2,0.3l-0.3,0.4c-0.1,0.2-0.2,0.4-0.4,0.7c-0.4,1-0.7,2.1-0.8,3.2
			c0,1.1,0,2.2,0.2,3.2c0.2,1,0.5,1.9,0.9,2.9c0.6,1.4,1.4,2.8,2.4,3.9c0.4,0.4,0.7,0.8,0.9,1l0.4,0.3l-0.4-0.2
			c-0.4-0.2-0.8-0.4-1.2-0.7c-1.4-1-2.5-2.2-3.4-3.6c-0.6-1-1.1-2-1.5-3.1c-0.4-1.2-0.7-2.5-0.7-3.8c-0.1-1.4,0.2-2.9,0.7-4.2
			c0.1-0.4,0.3-0.7,0.5-1.1l0.2-0.4c0.1-0.2,0.2-0.3,0.3-0.5c0.4-0.6,0.9-1.2,1.5-1.7c1.1-1.1,2.5-1.8,4-2.2
			c1.9-0.4,3.9-0.1,5.5,0.9c0.3,0.2,0.6,0.4,0.8,0.6c0.6,0.4,1,0.9,1.4,1.5c0.7,1,1.1,2.2,1.2,3.4c0.1,0.9,0.2,1.9,0.1,2.8
			c0,0.8,0,1.5-0.1,2.1L96.3,433.8z"/>
		<path class="st9" d="M98,437.6c0,0,0.1-0.7,0.2-1.8c0.1-1.1,0.4-2.8,0.6-4.7c0.3-2.1,0.3-4.2,0.1-6.3c-0.1-1.1-0.5-2.1-1-3.1
			c-0.5-0.9-1.3-1.8-2.1-2.4c-0.5-0.3-0.9-0.6-1.5-0.9l-0.4-0.2l-0.4-0.1c-0.3-0.1-0.5-0.2-0.8-0.2c-1.1-0.3-2.2-0.4-3.4-0.3
			c-1.1,0-2.2,0.2-3.2,0.4c-1,0.2-1.9,0.6-2.8,1c-1.4,0.6-2.6,1.5-3.5,2.7c-0.3,0.3-0.5,0.7-0.7,1.1l-0.2,0.4v-0.5
			c0.1-0.5,0.2-0.9,0.3-1.3c0.6-1.6,1.7-2.9,3.1-3.8c0.9-0.7,1.9-1.2,3-1.6c1.2-0.5,2.4-0.8,3.6-0.9c1.4-0.2,2.8-0.1,4.1,0.1
			c0.4,0.1,0.7,0.2,1.1,0.3l0.5,0.2l0.5,0.2c0.7,0.3,1.3,0.7,1.9,1.1c1.2,0.9,2.2,2,2.9,3.4c0.6,1.3,0.9,2.7,1,4.1
			c0.1,1.2,0,2.5-0.2,3.7c-0.2,1.1-0.4,2.1-0.7,3.2c-0.5,1.5-1,3-1.6,4.5C98.3,437,98,437.6,98,437.6z"/>
		<path class="st9" d="M77.4,426.8c0,0-0.1,0.5-0.1,1.4c0,1.2,0,2.4,0.2,3.7c0.2,1.7,0.6,3.3,1.3,4.8c0.4,0.8,0.8,1.7,1.3,2.4
			c0.3,0.4,0.5,0.8,0.8,1.1l0.2,0.3l0.1,0.1l0.1,0.1l0.5,0.6c0.4,0.4,0.7,0.6,1,1s0.7,0.6,1.1,0.9c0.7,0.5,1.5,1,2.4,1.5
			c0.8,0.4,1.6,0.7,2.4,1c0.7,0.3,1.5,0.5,2.3,0.6c0.7,0.1,1.3,0.2,2,0.3c0.3,0,0.6,0,0.9,0c0.2,0,0.5,0,0.7,0c0.3,0,0.7-0.1,1-0.1
			l0.4-0.1l-0.3,0.2c-0.3,0.2-0.7,0.4-1,0.5c-0.5,0.2-1.1,0.4-1.6,0.5c-0.7,0.1-1.5,0.2-2.2,0.2c-0.9,0-1.8-0.1-2.6-0.3
			c-1-0.2-1.9-0.5-2.8-0.9c-1-0.4-1.9-0.9-2.8-1.5c-0.5-0.3-0.9-0.7-1.3-1s-0.9-0.8-1.2-1.2l-0.5-0.6l-0.1-0.1l-0.2-0.2l-0.2-0.3
			c-0.3-0.4-0.6-0.9-0.9-1.4c-1.5-2.5-2.2-5.4-2-8.4c0.1-1.3,0.3-2.5,0.7-3.8C77,427.7,77.2,427.3,77.4,426.8z"/>
		<path class="st9" d="M74.2,435.8c0,0,0.1,0.4,0.3,1c0.1,0.3,0.2,0.7,0.3,1.1s0.4,0.9,0.5,1.4c0.4,1.1,1,2.1,1.6,3.1
			c0.3,0.5,0.8,1,1.1,1.5c0.4,0.5,0.9,1,1.4,1.4c0.5,0.4,1,0.9,1.5,1.3c0.6,0.4,1.1,0.8,1.6,1.1c0.6,0.3,1.1,0.6,1.6,0.9
			c0.5,0.3,1.1,0.5,1.5,0.7c1,0.4,1.8,0.7,2.4,0.9s1,0.3,1,0.3l-0.3,0.1c-0.2,0.1-0.5,0.1-0.8,0.1c-0.9,0.1-1.9,0.1-2.8,0
			c-0.6-0.1-1.2-0.2-1.8-0.3c-0.7-0.2-1.4-0.4-2-0.7c-0.3-0.1-0.7-0.3-1-0.5c-0.3-0.2-0.7-0.4-1-0.6c-0.7-0.4-1.3-0.9-1.9-1.4
			c-0.6-0.5-1.1-1.1-1.6-1.8c-0.2-0.3-0.4-0.7-0.6-1c-0.2-0.3-0.4-0.7-0.5-1c-0.3-0.6-0.5-1.3-0.7-2c-0.2-0.6-0.3-1.2-0.3-1.9
			c0-0.6,0-1.1,0-1.6c0-0.5,0.1-0.8,0.2-1.2C74.1,436.2,74.2,435.8,74.2,435.8z"/>
		<path class="st9" d="M73.8,433c0,0-0.2-0.6-0.5-1.6c-0.1-0.5-0.3-1.1-0.4-1.9c-0.1-0.8-0.2-1.7-0.3-2.5c-0.1-2.2,0.3-4.3,1-6.3
			c0.4-1.2,1-2.3,1.7-3.3c0.8-1,1.6-2,2.6-2.9c1-0.8,2.1-1.5,3.2-2.1c1.1-0.5,2.3-0.9,3.5-1.2c1.1-0.3,2.3-0.4,3.4-0.4
			c1,0,2,0.1,3,0.4c0.8,0.2,1.6,0.5,2.4,0.9c0.6,0.3,1.1,0.6,1.7,1c0.3,0.2,0.6,0.5,0.9,0.8l0.3,0.3l-0.4-0.2
			c-0.4-0.2-0.7-0.4-1.1-0.5c-0.3-0.1-0.5-0.2-0.8-0.3c-0.3-0.1-0.6-0.2-1-0.3c-0.8-0.2-1.5-0.3-2.3-0.4c-1.9-0.1-3.8,0.1-5.6,0.7
			c-1,0.3-2,0.7-2.9,1.2c-1,0.5-1.9,1.1-2.7,1.9c-1.6,1.4-3,3.1-3.9,5c-0.4,0.9-0.8,1.9-1,2.8c-0.1,0.5-0.2,0.9-0.3,1.4
			c-0.1,0.4-0.2,0.9-0.2,1.3c-0.1,0.8-0.2,1.6-0.2,2.4v1.9C73.8,432.4,73.8,433,73.8,433z"/>
		<path class="st9" d="M77.5,411.9c0,0,0.4-0.4,1.2-1.1l0.6-0.6c0.3-0.2,0.6-0.4,0.9-0.6c0.7-0.5,1.4-0.9,2.2-1.2l1.3-0.6
			c0.5-0.2,1-0.3,1.5-0.4c1.1-0.3,2.2-0.5,3.4-0.5c0.6,0,1.2,0,1.8,0.1c0.3,0,0.6,0,0.9,0.1l0.9,0.2c1.3,0.3,2.5,0.6,3.6,1.1l1.7,1
			c0.5,0.3,1,0.7,1.5,1.1c0.2,0.2,0.5,0.4,0.7,0.6l0.6,0.7c0.4,0.4,0.8,0.9,1.1,1.4c0.3,0.5,0.6,1,0.9,1.5s0.4,1.1,0.6,1.6
			c0.4,0.9,0.6,1.9,0.7,2.9c0.1,0.8,0.2,1.7,0.1,2.5c0,0.6-0.1,1.3-0.2,1.9c-0.2,1-0.3,1.6-0.3,1.6s-0.1-0.6-0.2-1.6
			c0-0.6-0.1-1.2-0.3-1.8l-0.3-1.1c-0.1-0.4-0.2-0.8-0.3-1.2c-0.3-0.9-0.6-1.7-1.1-2.5c-0.2-0.4-0.4-0.9-0.7-1.3
			c-0.3-0.4-0.6-0.8-0.9-1.2c-0.3-0.4-0.7-0.8-1-1.1l-0.6-0.6c-0.2-0.2-0.4-0.3-0.6-0.5c-0.4-0.3-0.8-0.7-1.3-0.9l-1.4-0.8
			c-1-0.4-2-0.8-3.1-1l-0.8-0.3c-0.3-0.1-0.5-0.1-0.8-0.1c-0.5,0-1-0.2-1.6-0.2c-1,0-2,0-3,0.1c-0.5,0.1-1,0.1-1.4,0.2l-1.3,0.3
			c-0.8,0.2-1.5,0.4-2.2,0.7c-0.3,0.1-0.6,0.2-0.9,0.3l-0.8,0.4C78,411.6,77.5,411.9,77.5,411.9z"/>
		<path class="st9" d="M103.6,427.7c0,0,0.1,0.3,0.2,0.8c0.2,0.7,0.3,1.3,0.3,2c0,1,0,2-0.2,2.9c-0.1,0.5-0.2,1.1-0.4,1.6
			c-0.2,0.6-0.4,1.1-0.6,1.6c-0.2,0.5-0.5,1-0.8,1.5c-0.3,0.5-0.6,0.9-1,1.3c-0.3,0.4-0.7,0.8-1.1,1.1c-0.4,0.3-0.8,0.6-1.2,0.8
			c-0.3,0.2-0.7,0.4-1.1,0.5c-0.3,0.1-0.6,0.2-0.9,0.3c-0.5,0.1-0.8,0.1-0.8,0.1s0.2-0.2,0.6-0.5l0.6-0.6c0.2-0.2,0.5-0.5,0.7-0.8
			s0.5-0.6,0.8-1s0.5-0.7,0.8-1.1c0.2-0.4,0.5-0.8,0.7-1.3c0.2-0.4,0.5-0.9,0.7-1.4s0.4-0.9,0.6-1.4l0.5-1.4
			c0.1-0.5,0.3-0.9,0.4-1.4s0.3-0.9,0.4-1.2c0.1-0.4,0.2-0.7,0.3-1.1l0.2-0.9C103.5,428,103.6,427.7,103.6,427.7z"/>
		<path class="st9" d="M90.5,450.5c0,0,1-0.3,2.2-0.7c0.6-0.2,1.4-0.5,2.1-0.8c0.4-0.1,0.7-0.3,1.1-0.5c0.4-0.2,0.7-0.4,1-0.6
			l0.5-0.3l0.5-0.4c0.3-0.2,0.6-0.5,0.9-0.8c0.3-0.3,0.5-0.5,0.7-0.8c0.2-0.3,0.4-0.5,0.6-0.8c0.2-0.3,0.4-0.5,0.5-0.8
			s0.3-0.5,0.4-0.6c0.2-0.4,0.4-0.6,0.4-0.6s0,0.2,0,0.7c0,0.2,0,0.5,0,0.8c0,0.3-0.1,0.7-0.2,1c-0.1,0.4-0.2,0.8-0.4,1.2
			c-0.2,0.4-0.4,0.8-0.6,1.2c-0.3,0.4-0.6,0.8-1,1.1c-0.2,0.2-0.4,0.4-0.6,0.5l-0.6,0.4c-0.4,0.3-0.9,0.5-1.4,0.7
			c-0.5,0.2-0.9,0.3-1.4,0.4c-0.8,0.2-1.7,0.2-2.5,0.2C92,451,91.2,450.8,90.5,450.5z"/>
		<path class="st10" d="M-42.1,470.3h52.8c1.3,0,2.3,1,2.3,2.3v52.8c0,1.3-1,2.3-2.3,2.3h-52.8c-1.3,0-2.3-1-2.3-2.3v-52.8
			C-44.4,471.3-43.4,470.3-42.1,470.3z"/>
		<path class="st11" d="M-15,504.8c0,0,0.1-0.3,0.1-0.8c0-0.2,0.1-0.5,0.1-0.8c0-0.3,0.1-0.6,0-1c0-0.7,0-1.5-0.2-2.2
			c-0.1-0.6-0.3-1.2-0.8-1.8c0-0.1-0.1-0.1-0.1-0.1c0,0-0.1,0,0,0h-0.1L-16,498c-0.1-0.1-0.3-0.2-0.4-0.2c-0.2-0.1-0.5-0.1-0.8-0.1
			c-0.3,0.1-0.6,0.2-0.8,0.4c-0.3,0.2-0.5,0.5-0.7,0.8c-0.3,0.5-0.6,1-0.8,1.6c-0.2,0.4-0.2,0.7-0.2,0.7c-0.1-0.3-0.1-0.5-0.2-0.8
			c-0.1-0.7-0.1-1.3,0.1-2c0.1-0.5,0.3-0.9,0.6-1.4c0.3-0.5,0.8-1,1.4-1.3c0.7-0.3,1.4-0.4,2.1-0.3c0.3,0.1,0.7,0.2,1,0.3l0.2,0.1
			h0.1l0.2,0.1c0.2,0.1,0.3,0.2,0.5,0.3c0.6,0.4,1,1,1.3,1.7c0.2,0.6,0.4,1.2,0.4,1.9c0,1-0.2,2.1-0.7,3c-0.2,0.4-0.4,0.7-0.7,1
			c-0.2,0.2-0.4,0.4-0.7,0.6C-14.5,504.5-14.8,504.7-15,504.8z"/>
		<path class="st11" d="M-10.8,503.1c0.2-0.5,0.3-1,0.4-1.5c0.1-1.4-0.1-2.7-0.5-4c-0.2-0.8-0.6-1.7-1-2.4c-0.4-0.8-1-1.6-1.7-2.2
			c-0.7-0.6-1.5-1-2.5-1.2c-0.5,0-0.9,0-1.4,0c-0.2,0-0.5,0.1-0.7,0.1l-0.4,0.1l-0.3,0.1c-0.9,0.4-1.6,1-2.2,1.7
			c-0.6,0.8-0.9,1.7-1.1,2.7c-0.2,1-0.3,1.9-0.2,2.9c0,0.9,0.2,1.8,0.4,2.7c0.3,1.3,0.8,2.6,1.5,3.9c0.3,0.5,0.5,0.9,0.8,1.4
			l-0.3-0.3c-0.3-0.3-0.6-0.6-0.8-0.9c-1-1.1-1.7-2.4-2.3-3.7c-0.8-2-1.1-4.1-0.9-6.2c0.1-1.3,0.6-2.5,1.2-3.6
			c0.4-0.6,0.8-1.1,1.3-1.5c0.5-0.4,1.1-0.8,1.8-1.1l0.5-0.2l0.4-0.1c0.4-0.1,0.7-0.1,1-0.2c2-0.3,4.1,0.4,5.5,1.9
			c0.9,0.8,1.5,1.8,2,2.9c0.4,0.9,0.7,1.9,0.8,2.9c0.2,1.5,0.1,3-0.4,4.4c-0.1,0.4-0.3,0.8-0.6,1.1L-10.8,503.1z"/>
		<path class="st11" d="M-24.9,490.2c0,0,0-0.3,0-0.8c0-0.3,0.1-0.6,0.2-0.9l0.2-0.6c0.1-0.2,0.2-0.4,0.3-0.6
			c0.2-0.4,0.5-0.8,0.8-1.2c0.3-0.4,0.7-0.8,1.1-1.1c0.4-0.4,0.9-0.7,1.4-0.9c0.5-0.3,1.1-0.5,1.6-0.7c1.1-0.3,2.3-0.4,3.4-0.4
			c0.5,0,1,0.1,1.5,0.2l0.7,0.2l0.6,0.2c0.4,0.1,0.7,0.3,1,0.5c0.3,0.1,0.5,0.3,0.7,0.5c0.4,0.3,0.6,0.5,0.6,0.5s-0.3,0-0.8-0.1
			c-0.3-0.1-0.6-0.1-0.8-0.1c-0.3,0-0.7-0.1-1-0.1c-0.4,0-0.8,0-1.2,0s-0.9,0.1-1.3,0.1c-0.4,0-0.9,0.1-1.4,0.2
			c-0.5,0.1-0.9,0.2-1.4,0.3c-0.5,0.1-0.9,0.3-1.3,0.5c-0.2,0.1-0.4,0.2-0.6,0.3l-0.6,0.3c-0.4,0.2-0.7,0.4-1.1,0.7
			c-0.3,0.2-0.6,0.5-0.9,0.8c-0.3,0.2-0.5,0.5-0.7,0.7c-0.2,0.2-0.4,0.4-0.5,0.7C-24.7,489.9-24.9,490.2-24.9,490.2z"/>
		<path class="st11" d="M-14.6,511.3c0,0-0.4,0.2-1.2,0.6c-0.5,0.2-1,0.3-1.6,0.4c-0.3,0-0.6,0-1,0h-0.5l-0.6-0.1
			c-0.8-0.1-1.7-0.4-2.4-0.8c-0.4-0.2-0.8-0.4-1.2-0.7c-0.4-0.3-0.8-0.6-1.1-0.9c-0.4-0.3-0.7-0.7-1-1.1s-0.6-0.8-0.9-1.2
			c-0.3-0.4-0.6-0.8-0.8-1.3s-0.5-0.9-0.7-1.4c-0.2-0.5-0.4-0.9-0.6-1.4s-0.3-1-0.5-1.4c-0.3-1-0.4-1.9-0.5-2.9c0-0.5,0-0.9,0-1.4
			c0-0.5,0.1-0.9,0.1-1.3c0.1-0.8,0.2-1.6,0.5-2.4c0.3-1.2,0.8-2.3,1.5-3.3c0.2-0.3,0.4-0.5,0.6-0.8l0.2-0.3c0,0-0.1,0.5-0.3,1.3
			c-0.2,1.1-0.4,2.2-0.4,3.3c0,0.7,0,1.4,0,2.2c0,0.4,0.1,0.8,0.1,1.2s0.1,0.8,0.2,1.2c0.2,0.8,0.4,1.6,0.6,2.4
			c0.1,0.4,0.3,0.8,0.5,1.2c0.1,0.4,0.4,0.8,0.5,1.2l0.6,1.2l0.7,1.1l0.7,1.1l0.8,1c0.3,0.3,0.6,0.6,0.8,0.9
			c0.3,0.3,0.6,0.5,0.9,0.7c0.5,0.4,1.1,0.8,1.8,1.1l0.4,0.2l0.4,0.1c0.3,0.1,0.6,0.2,0.8,0.2c0.5,0,1,0.2,1.4,0.2
			C-15.1,511.3-14.6,511.3-14.6,511.3z"/>
		<path class="st11" d="M-4.1,495.5c0.3,0.5,0.5,1,0.6,1.5c0.5,1.4,0.7,2.8,0.7,4.2c0,2.1-0.4,4.2-1.4,6.1c-0.6,1.1-1.3,2.1-2.1,3
			c-0.2,0.2-0.5,0.5-0.6,0.6s-0.4,0.4-0.6,0.6c-0.5,0.4-0.9,0.8-1.4,1.2c-1,0.7-2,1.4-3,2c-1,0.5-2,1-3,1.5c-1,0.5-2,0.8-2.9,1.2
			c-0.9,0.3-1.8,0.6-2.6,0.9c-1.3,0.4-2.5,0.9-3.7,1.6c-0.3,0.2-0.6,0.4-0.9,0.7l-0.3,0.3l0.2-0.4c0.2-0.4,0.4-0.7,0.7-1
			c1-1.1,2.1-2,3.4-2.6c0.8-0.4,1.6-0.9,2.5-1.3l2.7-1.5c0.9-0.5,1.8-1.1,2.7-1.7c0.9-0.6,1.8-1.2,2.7-1.9c0.4-0.3,0.9-0.7,1.2-1
			c0.2-0.2,0.4-0.4,0.6-0.5c0.2-0.2,0.4-0.3,0.6-0.5c0.7-0.7,1.4-1.5,1.9-2.3c0.5-0.8,0.9-1.6,1.3-2.5c0.3-0.8,0.5-1.7,0.7-2.5
			c0.2-1.3,0.4-2.7,0.3-4C-4.1,496.1-4.1,495.5-4.1,495.5z"/>
		<path class="st11" d="M-1.2,506.3l0.1,0.3c0,0.2,0.1,0.5,0.1,0.8c0.1,1,0,2-0.2,3c-0.2,0.7-0.4,1.3-0.7,1.9
			c-0.4,0.7-0.8,1.3-1.3,1.9c-0.5,0.6-1.1,1.2-1.7,1.7c-0.6,0.5-1.3,1-2,1.4c-2.6,1.5-5.5,2.4-8.4,2.8c-1,0.1-1.9,0.2-2.9,0.1
			c-0.7,0-1.1-0.1-1.1-0.1s0.4-0.2,1-0.4l2.6-1.1c2.6-1,5.1-2.2,7.5-3.5c0.6-0.4,1.2-0.8,1.8-1.2c0.6-0.4,1.1-0.8,1.6-1.3
			c0.5-0.4,0.9-0.9,1.3-1.4c0.4-0.5,0.7-0.9,1-1.4c0.2-0.4,0.5-0.9,0.7-1.4c0.2-0.4,0.3-0.8,0.4-1.1C-1.3,506.7-1.2,506.3-1.2,506.3
			z"/>
		<path class="st11" d="M-0.8,502.1c0,0,0-0.6-0.1-1.6c0-0.5,0-1.1-0.1-1.9c-0.1-0.7-0.2-1.5-0.3-2.3c0-0.4-0.1-0.9-0.3-1.3
			c-0.1-0.4-0.2-0.9-0.3-1.4c-0.1-0.5-0.3-0.9-0.5-1.4c-0.2-0.5-0.3-1-0.5-1.4c-0.4-0.9-0.9-1.9-1.5-2.7c-0.6-0.9-1.3-1.7-2-2.5
			l-1.2-1c-0.4-0.3-0.8-0.6-1.3-0.9c-0.2-0.1-0.4-0.3-0.7-0.4l-0.7-0.3c-0.4-0.2-0.9-0.4-1.4-0.6l-1.4-0.4l-1.4-0.2
			c-0.4-0.1-0.9-0.1-1.4-0.1c-0.4,0-0.9,0-1.3,0c-0.8,0-1.5,0.2-2.2,0.3c-0.6,0.1-1.2,0.3-1.7,0.5c-0.9,0.4-1.5,0.6-1.5,0.6
			s0.4-0.4,1.3-1c0.5-0.4,1.1-0.7,1.6-1c0.7-0.4,1.5-0.7,2.4-0.9c0.5-0.1,0.9-0.2,1.4-0.3c0.5-0.1,1-0.1,1.6-0.1l1.7,0.1
			c0.6,0.1,1.1,0.2,1.7,0.4c0.6,0.1,1.2,0.3,1.7,0.6l0.9,0.3c0.3,0.1,0.5,0.3,0.8,0.5c0.6,0.3,1.1,0.6,1.6,1l1.5,1.2
			c0.9,0.9,1.6,1.9,2.3,3c0.6,1,1.1,2.1,1.5,3.3c0.2,0.6,0.3,1.1,0.4,1.6c0.1,0.5,0.2,1.1,0.3,1.6c0.1,1,0.2,2,0.1,2.9
			c0,0.9-0.1,1.8-0.2,2.5s-0.3,1.3-0.4,1.8C-0.6,501.5-0.8,502.1-0.8,502.1z"/>
		<path class="st11" d="M-2.1,483.1l-0.4-0.3c-0.2-0.2-0.6-0.6-1-0.9c-0.5-0.4-1.1-0.8-1.7-1.2c-0.7-0.5-1.5-0.9-2.3-1.3
			c-1-0.4-1.9-0.8-2.9-1c-1.1-0.2-2.2-0.4-3.4-0.4c-1.2,0-2.4,0.1-3.6,0.3c-1.2,0.2-2.4,0.7-3.5,1.2c-1.1,0.5-2.2,1.2-3.1,2
			c-0.9,0.8-1.8,1.7-2.5,2.6c-0.7,0.9-1.3,1.9-1.8,2.9c-0.5,0.9-0.9,1.9-1.2,2.9c-0.3,0.9-0.5,1.8-0.7,2.6s-0.3,1.5-0.4,2.1
			c-0.2,1.2-0.3,1.8-0.3,1.8s-0.1-0.7-0.2-1.9c0-0.6,0-1.3,0-2.1l0.1-1.3c0-0.5,0.1-1,0.2-1.5c0.2-1.1,0.5-2.2,0.9-3.2
			c0.2-0.6,0.5-1.1,0.7-1.7c0.3-0.6,0.6-1.1,1-1.7c1.5-2.4,3.7-4.3,6.2-5.5c1.3-0.6,2.7-1.1,4.1-1.3c1.4-0.2,2.7-0.3,4.1-0.2
			c2.4,0.2,4.8,1,6.8,2.2c0.8,0.5,1.6,1.1,2.3,1.7c0.5,0.5,1,1,1.5,1.6c0.3,0.4,0.6,0.7,0.8,1.1L-2.1,483.1z"/>
		<path class="st11" d="M-7.2,501.7c0,0,0,0.3,0,0.8c0,0.3-0.1,0.6-0.1,0.9c-0.1,0.4-0.2,0.8-0.4,1.1c-0.2,0.4-0.4,0.9-0.7,1.3
			c-0.3,0.5-0.6,0.9-1,1.3c-0.9,0.9-2,1.4-3.2,1.7c-1.3,0.3-2.6,0.1-3.7-0.5c-0.5-0.3-1-0.7-1.4-1.2c-0.6-0.8-0.8-1.8-0.7-2.8
			c0.1-0.3,0.2-0.6,0.3-0.9c0.1-0.2,0.2-0.3,0.3-0.5l0.1-0.2v0.2c0,0.2,0,0.4,0,0.6c0,0.3,0.1,0.5,0.1,0.8c0.1,0.3,0.2,0.6,0.4,0.9
			c0.4,0.6,1,1,1.6,1.2c0.8,0.2,1.7,0.3,2.5,0.1c0.9-0.2,1.7-0.5,2.4-1c0.7-0.5,1.3-1,1.9-1.6c0.5-0.6,0.9-1.1,1.2-1.5
			C-7.3,502-7.2,501.7-7.2,501.7z"/>
		<path class="st11" d="M-21.4,514.8c-0.2,0-0.5,0-0.7,0c-0.6,0-1.2-0.1-1.8-0.3c-1.8-0.5-3.3-1.5-4.5-2.9c-0.3-0.4-0.6-0.8-0.9-1.2
			c-0.5-0.8-0.9-1.6-1.1-2.6c-0.1-0.4-0.2-0.8-0.2-1.2c-0.1-0.3-0.1-0.7-0.1-1c0-0.3,0-0.6,0-0.8c0-0.4,0.1-0.7,0.1-0.7
			s0.1,0.2,0.4,0.6c0.1,0.2,0.2,0.4,0.4,0.6s0.3,0.5,0.5,0.8c0.2,0.3,0.3,0.6,0.6,0.9s0.4,0.7,0.6,1s0.5,0.7,0.7,1
			c0.3,0.3,0.5,0.7,0.8,1c0.5,0.6,1.1,1.2,1.7,1.8c0.6,0.5,1.2,1,1.7,1.5C-22.2,514.2-21.4,514.8-21.4,514.8z"/>
		<path class="st11" d="M-6.9,498.8c0,0,0-0.3,0-0.9c0-0.3-0.1-0.6-0.1-1s-0.1-0.8-0.2-1.2s-0.2-0.9-0.4-1.4c-0.1-0.5-0.3-1-0.5-1.4
			c-0.2-0.5-0.5-1-0.8-1.4c-0.3-0.5-0.6-0.9-1-1.3c-0.4-0.4-0.8-0.7-1.2-1c-0.4-0.3-0.9-0.6-1.3-0.8c-0.5-0.1-0.9-0.4-1.4-0.5
			l-0.7-0.2c-0.2-0.1-0.4-0.1-0.7-0.1c-0.4,0-0.9-0.1-1.2-0.2c-0.4-0.1-0.7,0-1-0.1c-0.5,0-0.9-0.1-0.9-0.1s0.3-0.1,0.8-0.4
			c0.3-0.1,0.6-0.2,1-0.4c0.4-0.1,0.8-0.2,1.3-0.2c0.5-0.1,1.1-0.1,1.6,0c0.6,0,1.2,0.1,1.8,0.3c0.6,0.2,1.3,0.5,1.8,0.9
			c0.6,0.4,1.2,0.8,1.6,1.3c0.5,0.5,0.9,1.1,1.2,1.7c0.2,0.3,0.3,0.6,0.4,0.9c0.1,0.3,0.2,0.6,0.3,0.9c0.2,0.6,0.3,1.2,0.3,1.8
			c0,0.5,0,1.1,0,1.6c-0.1,0.4-0.1,0.9-0.2,1.3c-0.1,0.3-0.2,0.7-0.3,1C-6.7,498.6-6.9,498.8-6.9,498.8z"/>
		<path class="st11" d="M-25.5,517.4c-0.3,0.2-0.6,0.2-0.9,0.3c-0.6,0-1.2-0.1-1.6-0.5c-0.5-0.4-0.8-0.9-0.9-1.5
			c-0.1-0.3-0.1-0.7,0-1h0.3c0.2,0,0.4,0,0.6,0.1c0.5,0.1,0.9,0.3,1.3,0.5c0.4,0.3,0.7,0.7,0.9,1.1
			C-25.6,516.8-25.5,517.1-25.5,517.4z"/>
		<path class="st12" d="M27.4,470.3h52.8c1.3,0,2.3,1,2.3,2.3v52.8c0,1.3-1,2.3-2.3,2.3H27.4c-1.3,0-2.3-1-2.3-2.3v-52.8
			C25.1,471.3,26.1,470.3,27.4,470.3z"/>
		<path class="st8" d="M-7.3,400.4h52.8c1.3,0,2.3,1,2.3,2.3v52.8c0,1.3-1,2.3-2.3,2.3H-7.3c-1.3,0-2.3-1-2.3-2.3v-52.8
			C-9.6,401.5-8.5,400.4-7.3,400.4z"/>
		<path class="st13" d="M54.1,504.9c-0.2-0.1-0.5-0.2-0.7-0.4c-0.3-0.2-0.5-0.4-0.7-0.6c-0.3-0.3-0.5-0.6-0.7-0.9
			c-0.5-0.9-0.8-1.9-0.9-2.9c0-0.6,0.1-1.3,0.3-1.9c0.2-0.7,0.7-1.3,1.2-1.8c0.1-0.1,0.3-0.2,0.5-0.3l0.1-0.1h0.1l0.2-0.1
			c0.3-0.2,0.7-0.3,1-0.4c1.3-0.3,2.7,0.2,3.5,1.4c0.3,0.4,0.5,0.8,0.6,1.3c0.2,0.6,0.3,1.3,0.2,2c0,0.2-0.1,0.5-0.1,0.7
			c0,0-0.1-0.3-0.3-0.7c-0.2-0.5-0.5-1.1-0.9-1.5c-0.2-0.3-0.5-0.5-0.8-0.8c-0.3-0.2-0.6-0.3-0.9-0.4c-0.3,0-0.6,0-0.8,0.1
			c-0.1,0.1-0.3,0.1-0.4,0.2l-0.2,0.1l-0.1,0l0,0c-0.1,0.1-0.1,0.1-0.1,0.2c-0.4,0.5-0.6,1.2-0.7,1.9c-0.1,0.8-0.1,1.5,0,2.3
			c0,0.4,0.1,0.7,0.1,1s0.1,0.6,0.2,0.8C54,504.6,54.1,504.9,54.1,504.9z"/>
		<path class="st13" d="M49.8,503.4l-0.3-0.3c-0.3-0.3-0.5-0.7-0.7-1.1c-0.6-1.4-0.8-2.9-0.7-4.4c0.1-1,0.3-2,0.6-3
			c0.4-1.1,1-2.2,1.8-3.1c1.4-1.5,3.5-2.3,5.6-2.1c0.4,0,0.6,0.1,1,0.2l0.4,0.1l0.5,0.2c0.7,0.2,1.3,0.6,1.9,1
			c0.5,0.4,1,0.9,1.4,1.5c0.7,1.1,1.2,2.3,1.4,3.5c0.3,2.1,0.1,4.3-0.6,6.3c-0.5,1.4-1.2,2.7-2.1,3.8c-0.3,0.3-0.5,0.6-0.8,0.9
			l-0.3,0.3c0.3-0.5,0.5-0.9,0.7-1.4c0.6-1.2,1-2.6,1.2-3.9c0.2-0.9,0.2-1.8,0.2-2.7c0-1-0.1-1.9-0.4-2.9c-0.2-0.9-0.7-1.8-1.3-2.6
			c-0.6-0.7-1.3-1.3-2.2-1.6l-0.3-0.1l-0.4-0.1c-0.2,0-0.5,0-0.7-0.1c-0.5,0-0.9,0-1.4,0.1c-0.9,0.2-1.7,0.6-2.3,1.2
			c-0.7,0.6-1.2,1.4-1.6,2.2c-0.4,0.8-0.7,1.6-0.9,2.4c-0.4,1.3-0.5,2.7-0.4,4C49.4,502.5,49.5,503,49.8,503.4z"/>
		<path class="st13" d="M63.2,489.9c0,0-0.2-0.2-0.5-0.6c-0.2-0.2-0.4-0.4-0.6-0.6c-0.2-0.2-0.5-0.5-0.8-0.7c-0.3-0.2-0.7-0.5-1-0.7
			c-0.4-0.2-0.7-0.4-1.1-0.6l-0.6-0.3c-0.2-0.1-0.4-0.1-0.6-0.2c-0.2-0.1-0.4-0.2-0.7-0.2c-0.2-0.1-0.4-0.1-0.7-0.2
			c-0.5-0.1-0.9-0.2-1.4-0.3s-0.9-0.1-1.4-0.2s-0.9-0.1-1.3,0c-0.4,0-0.8,0-1.2,0c-0.4,0-0.7,0.1-1,0.1c-0.3,0-0.6,0.1-0.8,0.1
			c-0.5,0.1-0.8,0.1-0.8,0.1c0.2-0.2,0.3-0.4,0.5-0.6c0.2-0.2,0.4-0.4,0.7-0.6c0.3-0.2,0.6-0.4,1-0.6l0.6-0.3l0.7-0.2
			c1.1-0.3,2.2-0.5,3.3-0.4c0.6,0,1.2,0.1,1.8,0.3c0.6,0.1,1.1,0.4,1.7,0.6c0.5,0.2,1,0.5,1.5,0.9c0.4,0.3,0.8,0.7,1.2,1.1
			c0.3,0.4,0.6,0.8,0.8,1.2c0.1,0.2,0.2,0.4,0.3,0.6l0.2,0.6c0.1,0.3,0.2,0.6,0.2,0.9C63.2,489.6,63.2,489.9,63.2,489.9z"/>
		<path class="st13" d="M54,511.5c0,0,0.5,0,1.3,0c0.4,0,0.9-0.1,1.4-0.2c0.3-0.1,0.5-0.2,0.8-0.3l0.4-0.1l0.4-0.2
			c0.6-0.3,1.2-0.7,1.7-1.1c0.3-0.3,0.6-0.5,0.8-0.8c0.3-0.3,0.5-0.6,0.8-0.9l0.7-1l0.7-1.1l0.6-1.2c0.2-0.4,0.4-0.8,0.5-1.2
			c0.3-0.8,0.6-1.7,0.8-2.5c0.2-0.8,0.4-1.7,0.5-2.5c0-0.4,0.1-0.8,0.1-1.2s0-0.8,0-1.2c0-0.8-0.1-1.5-0.1-2.2
			c-0.1-1.1-0.3-2.2-0.6-3.3c-0.2-0.8-0.4-1.2-0.4-1.2c0.3,0.3,0.6,0.6,0.9,1c0.7,1,1.3,2.1,1.6,3.2c0.3,0.8,0.5,1.5,0.6,2.3
			c0.1,0.4,0.1,0.9,0.2,1.3c0,0.5,0,0.9,0,1.4c0,1-0.1,2-0.3,2.9c-0.2,1-0.5,2-0.9,2.9c-0.2,0.5-0.4,0.9-0.6,1.4
			c-0.2,0.5-0.5,0.9-0.8,1.3s-0.6,0.8-0.9,1.2s-0.6,0.8-1,1.1c-0.4,0.4-0.7,0.7-1.1,1s-0.8,0.5-1.1,0.8c-0.7,0.4-1.5,0.8-2.3,0.9
			l-0.5,0.1h-0.5c-0.4,0-0.7,0-1,0c-0.5,0-1.1-0.1-1.6-0.3C54.5,511.6,54,511.5,54,511.5z"/>
		<path class="st13" d="M42.7,496.2c0,0.5,0,1.1,0,1.6c0,1.3,0.2,2.7,0.5,4c0.2,0.9,0.4,1.7,0.8,2.5c0.4,0.9,0.9,1.7,1.4,2.5
			c0.6,0.8,1.3,1.6,2,2.2c0.4,0.3,0.8,0.7,1.3,1c0.4,0.3,0.9,0.6,1.3,1c0.9,0.6,1.8,1.2,2.8,1.8c1,0.5,1.9,1.1,2.8,1.5l2.8,1.3
			c0.9,0.4,1.8,0.8,2.5,1.2c1.3,0.6,2.5,1.4,3.6,2.4c0.3,0.3,0.5,0.6,0.7,1l0.2,0.4l-0.3-0.3c-0.3-0.2-0.6-0.5-0.9-0.7
			c-1.2-0.6-2.5-1.1-3.8-1.5c-0.8-0.2-1.7-0.5-2.7-0.8s-2-0.6-3-1c-1.1-0.4-2.1-0.9-3.1-1.4c-1.1-0.6-2.1-1.2-3.1-1.8
			c-0.5-0.4-1-0.7-1.4-1.1c-0.4-0.4-0.9-0.7-1.4-1.2c-2.4-2.3-3.9-5.5-4-8.8c-0.1-1.4,0.1-2.9,0.5-4.3
			C42.3,497.3,42.5,496.7,42.7,496.2z"/>
		<path class="st13" d="M40.4,507c0,0,0.1,0.4,0.4,1c0.1,0.3,0.3,0.7,0.5,1.1c0.2,0.5,0.5,0.9,0.7,1.3c0.3,0.5,0.7,1,1.1,1.4
			c0.4,0.5,0.9,0.9,1.4,1.3c0.5,0.4,1.1,0.9,1.7,1.2c0.6,0.4,1.2,0.8,1.9,1.1c1.3,0.7,2.6,1.3,4,1.8c1.3,0.5,2.6,1,3.7,1.4l2.7,1
			c0.6,0.2,1,0.4,1,0.4c-1.3,0.2-2.7,0.2-4,0.1c-1.4-0.1-2.7-0.3-4.1-0.7c-1.6-0.4-3.1-1-4.5-1.7c-0.7-0.4-1.4-0.8-2.1-1.3
			c-0.7-0.5-1.3-1-1.8-1.6c-0.5-0.6-1-1.2-1.4-1.9c-0.4-0.6-0.6-1.2-0.8-1.9c-0.3-1-0.4-2-0.4-3c0-0.4,0.1-0.6,0.1-0.8L40.4,507z"/>
		<path class="st13" d="M39.7,502.9c0,0-0.2-0.6-0.5-1.5c-0.1-0.5-0.4-1.1-0.5-1.8c-0.2-0.7-0.2-1.5-0.3-2.4c-0.1-1-0.1-2,0-2.9
			c0-0.5,0.1-1.1,0.2-1.6c0.1-0.5,0.2-1.1,0.3-1.7c0.3-1.2,0.8-2.3,1.4-3.3c0.6-1.1,1.3-2.1,2.1-3.1l1.4-1.3c0.5-0.4,1-0.8,1.5-1.1
			c0.3-0.2,0.5-0.4,0.8-0.5l0.8-0.4c0.5-0.3,1.1-0.5,1.7-0.6c0.6-0.1,1.1-0.3,1.7-0.4L52,480c0.3,0,0.5,0,0.8,0l0.8,0
			c0.5,0,1,0.1,1.4,0.2c0.8,0.2,1.6,0.4,2.4,0.8c0.6,0.2,1.2,0.5,1.7,0.9c0.9,0.6,1.3,1,1.3,1s-0.6-0.2-1.5-0.5
			c-0.6-0.2-1.2-0.3-1.8-0.4c-0.7-0.1-1.5-0.2-2.3-0.2c-0.4,0-0.9,0-1.3,0.1c-0.5,0-0.9,0.1-1.4,0.1l-1.4,0.3l-1.4,0.5
			c-0.5,0.2-0.9,0.4-1.4,0.6c-0.5,0.2-0.9,0.5-1.3,0.8c-0.4,0.3-0.9,0.6-1.3,0.9l-1.1,1.1c-0.7,0.8-1.3,1.6-1.9,2.6
			c-0.5,0.9-1,1.8-1.4,2.8c-0.2,0.5-0.3,1-0.4,1.4c-0.2,0.5-0.3,0.9-0.4,1.4c-0.1,0.5-0.1,0.9-0.2,1.4c-0.1,0.4-0.2,0.9-0.2,1.3
			c0,0.8-0.1,1.6-0.2,2.3c-0.1,0.7,0,1.3,0,1.9C39.7,502.3,39.7,502.9,39.7,502.9z"/>
		<path class="st13" d="M40,483.9l0.2-0.4c0.2-0.4,0.5-0.8,0.7-1.2c0.4-0.6,0.9-1.2,1.4-1.7c0.7-0.7,1.4-1.3,2.2-1.9
			c2-1.4,4.3-2.3,6.8-2.6c2.8-0.4,5.7,0,8.3,1.1c1.3,0.6,2.6,1.3,3.7,2.2c1.1,0.9,2,1.9,2.9,3c0.4,0.5,0.8,1.1,1.1,1.6
			c0.3,0.6,0.6,1.1,0.8,1.7c0.5,1,0.8,2.1,1.1,3.2c0.1,0.5,0.2,1,0.3,1.5l0.2,1.3c0.1,0.8,0.1,1.6,0.1,2.2c0,1.2-0.1,1.9-0.1,1.9
			s-0.2-0.7-0.4-1.8l-0.6-2c-0.2-0.8-0.5-1.6-0.9-2.5c-0.4-1-0.9-1.9-1.4-2.8c-0.6-1-1.3-1.9-2-2.8c-0.8-0.9-1.7-1.7-2.6-2.5
			c-2-1.5-4.3-2.5-6.7-2.9c-1.2-0.2-2.4-0.3-3.6-0.2c-1.1,0.1-2.3,0.3-3.4,0.5c-1,0.3-2,0.6-2.9,1.1c-0.8,0.4-1.5,0.9-2.2,1.4
			c-0.6,0.4-1.1,0.8-1.6,1.3c-0.4,0.4-0.8,0.7-1,0.9L40,483.9z"/>
		<path class="st13" d="M46.1,502.2c0,0,0.2,0.2,0.5,0.6c0.3,0.4,0.8,0.9,1.3,1.4c0.6,0.6,1.3,1.1,2,1.5c0.7,0.4,1.6,0.8,2.4,0.9
			c0.8,0.1,1.6,0.1,2.4-0.2c0.6-0.2,1.2-0.6,1.6-1.2c0.2-0.3,0.3-0.6,0.3-0.9c0.1-0.3,0.1-0.5,0.1-0.8c0-0.5,0-0.8,0-0.8l0.1,0.2
			c0.1,0.1,0.3,0.3,0.4,0.5c0.2,0.3,0.3,0.6,0.4,0.9c0.1,0.4,0.2,0.9,0.1,1.3c-0.1,0.6-0.3,1.1-0.6,1.6c-0.4,0.5-0.8,1-1.4,1.3
			c-1.2,0.7-2.5,0.9-3.8,0.7c-1.2-0.2-2.4-0.8-3.4-1.6c-0.8-0.7-1.4-1.5-1.8-2.5c-0.2-0.4-0.3-0.7-0.4-1.1c-0.1-0.3-0.1-0.6-0.2-0.9
			C46.1,502.5,46.1,502.2,46.1,502.2z"/>
		<path class="st13" d="M61,514.6l0.5-0.5c0.3-0.3,0.8-0.7,1.2-1.1c0.5-0.5,1-1,1.6-1.6c0.6-0.6,1.1-1.2,1.6-1.9
			c0.3-0.3,0.5-0.7,0.7-1l0.7-1c0.2-0.3,0.4-0.7,0.6-1s0.4-0.6,0.5-0.9c0.2-0.3,0.4-0.6,0.5-0.8s0.2-0.5,0.4-0.7
			c0.2-0.4,0.4-0.6,0.4-0.6c0.1,0.2,0.1,0.4,0.1,0.7c0,0.2,0.1,0.5,0.1,0.8c0,0.3,0,0.7,0,1c0,0.4-0.1,0.8-0.1,1.2
			c-0.2,0.9-0.5,1.8-1,2.6c-0.2,0.4-0.5,0.9-0.8,1.3c-0.3,0.4-0.6,0.8-1,1.1c-0.4,0.3-0.7,0.6-1.1,0.9c-0.7,0.5-1.5,0.9-2.3,1.1
			c-0.6,0.2-1.2,0.3-1.8,0.3C61.5,514.6,61.2,514.6,61,514.6z"/>
		<path class="st13" d="M45.7,499.3c0,0-0.2-0.3-0.5-0.7c-0.2-0.3-0.3-0.7-0.4-1c-0.3-0.9-0.5-1.9-0.5-2.9c0-0.6,0.1-1.2,0.2-1.8
			c0.1-0.3,0.1-0.7,0.3-1l0.1-0.5l0.2-0.5c0.3-0.6,0.7-1.3,1.1-1.8c0.5-0.5,1-1,1.6-1.4c0.6-0.4,1.2-0.7,1.8-0.9
			c0.6-0.2,1.2-0.3,1.8-0.4c0.5-0.1,1.1-0.1,1.6,0c0.5,0.1,0.9,0.1,1.3,0.2c0.4,0.1,0.7,0.2,1,0.3c0.5,0.2,0.8,0.3,0.8,0.3
			s-0.3,0.1-0.9,0.2c-0.3,0-0.6,0.1-1,0.1s-0.8,0.2-1.2,0.3c-0.2,0-0.4,0.1-0.6,0.2l-0.7,0.2c-0.5,0.1-0.9,0.4-1.4,0.6
			c-0.4,0.3-0.8,0.5-1.2,0.9c-0.4,0.3-0.8,0.7-1.1,1.1c-0.3,0.4-0.6,0.8-0.9,1.3c-0.3,0.5-0.5,0.9-0.7,1.4c-0.1,0.2-0.2,0.5-0.3,0.7
			c-0.1,0.2-0.1,0.5-0.2,0.7c-0.1,0.5-0.2,0.9-0.3,1.4c-0.1,0.4-0.1,0.9-0.1,1.2c0,0.4-0.1,0.7,0,1C45.7,499,45.7,499.3,45.7,499.3z
			"/>
		<path class="st13" d="M65.3,517.1c0,0,0-0.1,0-0.3c0-0.2,0.1-0.4,0.2-0.6c0.1-0.5,0.4-0.9,0.8-1.2c0.4-0.3,0.8-0.5,1.3-0.5
			l0.7-0.1h0.3c0.1,0.3,0.2,0.7,0.2,1c-0.1,1.3-1.2,2.2-2.4,2.1c0,0,0,0,0,0c-0.2,0-0.5-0.1-0.7-0.2
			C65.4,517.2,65.3,517.1,65.3,517.1z"/>
		<path class="st6" d="M-76.7,400.4H-24c1.3,0,2.3,1,2.3,2.3v52.8c0,1.3-1,2.3-2.3,2.3h-52.8c-1.3,0-2.3-1-2.3-2.3v-52.8
			C-79.1,401.5-78,400.4-76.7,400.4z"/>
		<path class="st7" d="M-61,443.7c0.1,0.1,0.3,0.1,0.4,0.1c0.4,0.1,0.8,0.1,1.2,0.1c0.6-0.1,1.2-0.2,1.8-0.4
			c0.8-0.3,1.5-0.6,2.1-1.1c0.8-0.5,1.5-1.2,2.1-1.9c0.7-0.8,1.2-1.6,1.7-2.6c0.5-1,0.8-2.1,1.1-3.2c0.1-0.6,0.2-1.1,0.3-1.7
			c0.1-0.6,0.2-1.2,0.2-1.7c0.1-0.8-0.1-1.7-0.6-2.3c0,0-0.1-0.1-0.2-0.1l0,0h0.1h-0.1h-0.1c-0.1,0,0,0,0,0
			c-0.2,0.2-0.4,0.4-0.5,0.6c-0.2,0.4-0.4,0.9-0.5,1.4c-0.1,0.2-0.1,0.5-0.2,0.8l-0.2,0.8c-0.3,1-0.6,2-1,3
			c-0.4,0.8-0.8,1.6-1.3,2.4c-0.4,0.6-0.9,1.1-1.4,1.5c-0.3,0.3-0.7,0.6-1.1,0.8l-0.4,0.2l0.3-0.4c0.2-0.2,0.4-0.6,0.7-1.1
			c0.3-0.6,0.6-1.1,0.8-1.7c0.3-0.8,0.5-1.5,0.7-2.3c0.2-0.9,0.4-1.9,0.4-2.9c0.1-1.2,0.3-2.5,0.8-3.6c0.3-0.9,1-1.6,1.8-2
			c0.1-0.1,0.3-0.1,0.4-0.1h0.1h0.1l0,0h0.1l0,0c0.3,0,0.6,0,0.9,0c0.5,0.1,1,0.3,1.5,0.7c0.7,0.6,1.2,1.4,1.4,2.3
			c0.2,0.7,0.2,1.5,0.2,2.3c-0.1,0.7-0.2,1.3-0.3,2c-0.1,0.6-0.3,1.3-0.5,1.9c-0.4,1.3-0.9,2.5-1.5,3.6c-0.6,1.1-1.4,2-2.4,2.8
			c-0.8,0.7-1.7,1.3-2.7,1.8c-1.5,0.7-3.1,0.9-4.7,0.7c-0.4-0.1-0.9-0.2-1.3-0.4C-60.8,443.9-60.9,443.8-61,443.7z"/>
		<path class="st7" d="M-58.2,433.7l-0.1-1.8c0-0.6-0.1-1.3-0.1-2.1c0-0.9,0-1.9,0.1-2.8c0.1-1.2,0.6-2.4,1.2-3.4
			c0.4-0.6,0.9-1.1,1.4-1.5c0.3-0.2,0.6-0.4,0.8-0.6c1.7-1,3.6-1.3,5.5-0.9c1.5,0.4,2.9,1.1,4,2.2c0.5,0.5,1,1.1,1.5,1.7
			c0.1,0.2,0.2,0.3,0.3,0.5l0.2,0.4c0.2,0.3,0.4,0.7,0.5,1.1c0.5,1.3,0.8,2.8,0.7,4.2c0,1.3-0.3,2.6-0.7,3.8
			c-0.4,1.1-0.8,2.1-1.4,3.1c-0.9,1.4-2,2.7-3.4,3.6c-0.4,0.3-0.8,0.5-1.2,0.7l-0.4,0.2l0.4-0.3c0.2-0.2,0.5-0.6,0.9-1
			c1-1.2,1.8-2.5,2.4-4c0.4-0.9,0.7-1.9,0.9-2.9c0.2-1.1,0.3-2.2,0.2-3.2c-0.1-1.1-0.3-2.2-0.8-3.2c-0.1-0.3-0.2-0.5-0.4-0.7
			l-0.3-0.4c0-0.1-0.2-0.2-0.2-0.3c-0.3-0.5-0.7-0.9-1.1-1.3c-0.8-0.8-1.7-1.3-2.8-1.6c-1-0.3-2-0.2-3,0.1c-0.2,0.1-0.4,0.2-0.7,0.3
			c-0.2,0.1-0.6,0.3-0.7,0.4c-0.4,0.3-0.8,0.6-1.1,0.9c-0.6,0.7-1,1.5-1.3,2.4c-0.3,0.9-0.5,1.8-0.6,2.5s-0.3,1.5-0.4,2
			C-58,433-58.2,433.7-58.2,433.7z"/>
		<path class="st7" d="M-59.9,437.4c0,0-0.3-0.6-0.7-1.7c-0.6-1.5-1.2-3-1.6-4.5c-0.3-1-0.6-2.1-0.7-3.2c-0.2-1.2-0.3-2.5-0.2-3.7
			c0.1-1.4,0.4-2.8,1-4.1c0.7-1.4,1.7-2.5,2.9-3.4c0.6-0.4,1.2-0.8,1.9-1.1l0.5-0.2l0.6-0.2c0.4-0.1,0.7-0.2,1.1-0.3
			c1.4-0.3,2.7-0.3,4.1-0.1c1.3,0.1,2.5,0.4,3.6,0.9c1.1,0.4,2.1,0.9,3,1.6c1.4,0.9,2.5,2.3,3.1,3.8c0.2,0.4,0.3,0.9,0.3,1.3v0.5
			l-0.2-0.4c-0.2-0.4-0.4-0.8-0.7-1.1c-0.9-1.2-2.1-2.1-3.5-2.7c-0.9-0.4-1.8-0.8-2.8-1c-1.1-0.2-2.1-0.4-3.2-0.4
			c-1.1,0-2.3,0.1-3.4,0.3c-0.3,0.1-0.5,0.1-0.8,0.2l-0.4,0.1l-0.4,0.2c-0.5,0.2-1,0.5-1.4,0.8c-0.9,0.6-1.6,1.4-2.1,2.4
			c-0.5,1-0.9,2-1,3.1c-0.2,2.1-0.2,4.2,0.1,6.3c0.2,1.9,0.5,3.5,0.6,4.7S-59.9,437.4-59.9,437.4z"/>
		<path class="st7" d="M-39.3,426.7c0.2,0.4,0.4,0.9,0.5,1.3c0.4,1.2,0.6,2.5,0.7,3.8c0.2,2.9-0.5,5.9-2,8.4
			c-0.3,0.5-0.6,0.9-0.9,1.4l-0.2,0.3l-0.2,0.2l-0.1,0.1l-0.5,0.6c-0.4,0.4-0.8,0.8-1.2,1.2c-0.4,0.4-0.9,0.7-1.3,1
			c-0.9,0.6-1.8,1.1-2.8,1.5c-0.9,0.4-1.9,0.7-2.8,0.9c-0.9,0.2-1.7,0.3-2.6,0.3c-0.7,0-1.5-0.1-2.2-0.2c-0.6-0.1-1.1-0.3-1.6-0.5
			c-0.3-0.1-0.7-0.3-1-0.5l-0.3-0.2l0.4,0.1c0.3,0.1,0.7,0.1,1,0.1c0.2,0,0.5,0,0.7,0c0.3,0,0.6,0,0.9,0c0.7,0,1.3-0.1,2-0.3
			c0.8-0.2,1.5-0.4,2.3-0.6c0.8-0.3,1.6-0.6,2.4-1c0.8-0.4,1.6-0.9,2.4-1.5c0.4-0.2,0.7-0.6,1.1-0.9c0.4-0.3,0.7-0.6,1-1l0.5-0.6
			l0.1-0.1l0.1-0.1l0.2-0.3c0.3-0.4,0.6-0.7,0.8-1.1c0.5-0.8,1-1.6,1.3-2.4c0.7-1.5,1.1-3.2,1.3-4.8c0.2-1.2,0.2-2.4,0.2-3.7
			C-39.3,427.2-39.3,426.7-39.3,426.7z"/>
		<path class="st7" d="M-36.1,435.7c0,0,0.1,0.4,0.2,1c0,0.3,0.1,0.7,0.2,1.2c0,0.4,0,1,0,1.6c0,0.6-0.1,1.3-0.3,1.9
			c-0.2,0.7-0.4,1.4-0.7,2c-0.1,0.3-0.3,0.7-0.5,1c-0.2,0.3-0.4,0.7-0.6,1c-0.5,0.6-1,1.2-1.6,1.8c-0.6,0.5-1.2,1-1.9,1.4
			c-0.3,0.2-0.7,0.4-1,0.6c-0.3,0.2-0.7,0.3-1,0.5c-0.6,0.3-1.3,0.5-2,0.7c-0.6,0.2-1.2,0.3-1.8,0.3c-0.9,0.1-1.9,0.1-2.8,0
			c-0.3,0-0.5-0.1-0.8-0.1l-0.3-0.1c0,0,0.4-0.1,1-0.3c0.6-0.2,1.5-0.5,2.4-0.9c0.5-0.2,1-0.5,1.5-0.7c0.5-0.3,1.1-0.5,1.6-0.9
			s1.1-0.7,1.6-1.1c0.5-0.4,1.1-0.8,1.5-1.3c0.5-0.4,0.9-0.9,1.4-1.4c0.4-0.5,0.8-1,1.1-1.5c0.6-1,1.1-2,1.6-3.1
			c0.2-0.5,0.3-0.9,0.5-1.4s0.2-0.8,0.3-1.1C-36.2,436.1-36.1,435.7-36.1,435.7z"/>
		<path class="st7" d="M-35.7,432.9c0,0,0-0.6,0-1.7v-1.9c-0.1-0.7-0.1-1.5-0.2-2.4c-0.1-0.4-0.1-0.9-0.2-1.3
			c-0.1-0.4-0.2-0.9-0.3-1.4c-0.3-1-0.6-1.9-1.1-2.8c-0.9-1.9-2.3-3.7-3.9-5.1c-0.8-0.7-1.7-1.3-2.7-1.8c-0.9-0.5-1.9-0.9-2.9-1.2
			c-1.8-0.6-3.7-0.8-5.6-0.7c-0.8,0.1-1.5,0.2-2.3,0.3c-0.3,0.1-0.6,0.2-0.9,0.3c-0.3,0.1-0.5,0.2-0.8,0.3c-0.4,0.1-0.7,0.3-1.1,0.5
			l-0.4,0.2l0.3-0.3c0.3-0.3,0.6-0.6,0.9-0.8c0.5-0.4,1.1-0.7,1.7-1c0.8-0.4,1.6-0.7,2.4-0.9c1-0.2,2-0.4,3-0.4
			c1.1,0,2.3,0.1,3.4,0.4c1.2,0.3,2.4,0.7,3.5,1.2c1.1,0.6,2.2,1.3,3.2,2.1c1,0.9,1.8,1.8,2.6,2.9c0.7,1,1.3,2.1,1.7,3.3
			c0.7,2,1.1,4.2,1,6.3c0,0.8-0.1,1.7-0.3,2.5c-0.1,0.7-0.3,1.4-0.4,1.9C-35.5,432.3-35.7,432.9-35.7,432.9z"/>
		<path class="st7" d="M-39.4,411.7c0,0-0.6-0.2-1.5-0.7l-0.8-0.4c-0.3-0.1-0.6-0.2-0.9-0.3c-0.7-0.3-1.5-0.5-2.2-0.7l-1.3-0.3
			c-0.4-0.1-0.9-0.1-1.4-0.2c-1-0.1-2-0.2-3-0.1c-0.5,0-1,0.1-1.6,0.2c-0.3,0-0.5,0.1-0.8,0.1l-0.8,0.2c-1.1,0.2-2.1,0.6-3.1,1
			l-1.4,0.8c-0.5,0.3-0.9,0.6-1.3,0.9c-0.2,0.2-0.4,0.3-0.6,0.5l-0.6,0.6c-0.4,0.3-0.7,0.7-1.1,1.1c-0.3,0.4-0.6,0.8-0.9,1.2
			c-0.3,0.4-0.5,0.9-0.7,1.3c-0.4,0.8-0.8,1.6-1.1,2.5c-0.2,0.4-0.3,0.8-0.3,1.2l-0.3,1.1c-0.1,0.6-0.2,1.2-0.3,1.8
			c-0.1,1-0.2,1.6-0.2,1.6s-0.1-0.6-0.3-1.6c-0.1-0.6-0.2-1.3-0.2-1.9c0-0.8,0-1.7,0.1-2.5c0.1-1,0.4-2,0.7-2.9
			c0.2-0.5,0.4-1,0.6-1.6c0.2-0.5,0.6-1,0.9-1.5c0.3-0.5,0.7-1,1.1-1.4l0.6-0.7c0.2-0.2,0.5-0.4,0.7-0.6c0.5-0.4,1-0.8,1.5-1.2
			l1.7-1c1.2-0.5,2.4-0.9,3.6-1.1l0.9-0.2c0.3,0,0.6,0,0.9-0.1c0.6,0,1.2-0.1,1.8-0.1c1.1,0,2.3,0.2,3.4,0.5c0.5,0.1,1,0.2,1.5,0.4
			l1.3,0.6c0.8,0.3,1.5,0.7,2.2,1.2c0.3,0.2,0.6,0.4,0.9,0.6l0.6,0.6C-39.8,411.3-39.4,411.7-39.4,411.7z"/>
		<path class="st7" d="M-65.5,427.6c0,0,0.1,0.3,0.2,0.7l0.2,0.8c0.1,0.3,0.2,0.7,0.3,1.1c0.1,0.4,0.3,0.8,0.4,1.2
			c0.1,0.4,0.3,0.9,0.4,1.3l0.5,1.4c0.2,0.5,0.4,0.9,0.6,1.4s0.4,0.9,0.7,1.4c0.2,0.5,0.5,0.9,0.7,1.3s0.5,0.8,0.8,1.1
			c0.3,0.4,0.5,0.7,0.8,1c0.3,0.3,0.5,0.5,0.7,0.8l0.6,0.6c0.4,0.3,0.6,0.5,0.6,0.5s-0.3,0-0.8-0.1c-0.2-0.1-0.5-0.1-0.9-0.3
			c-0.4-0.1-0.7-0.3-1.1-0.5c-0.4-0.2-0.8-0.5-1.2-0.8c-0.4-0.3-0.8-0.7-1.1-1.1c-0.4-0.4-0.7-0.9-1-1.4c-0.3-0.5-0.6-1-0.8-1.5
			c-0.2-0.5-0.4-1.1-0.6-1.6c-0.2-0.5-0.3-1.1-0.4-1.6c-0.2-1-0.2-1.9-0.2-2.9c0-0.7,0.1-1.3,0.3-2
			C-65.6,427.9-65.5,427.6-65.5,427.6z"/>
		<path class="st7" d="M-52.4,450.3c-0.7,0.3-1.6,0.5-2.4,0.6c-0.8,0.1-1.7,0-2.5-0.2c-0.5-0.1-0.9-0.3-1.4-0.4
			c-0.5-0.2-0.9-0.4-1.4-0.7l-0.6-0.4c-0.2-0.2-0.4-0.4-0.6-0.5c-0.4-0.3-0.7-0.7-1-1.1c-0.3-0.4-0.5-0.8-0.6-1.2
			c-0.2-0.4-0.3-0.8-0.4-1.2c-0.1-0.3-0.1-0.7-0.2-1c0-0.3,0-0.6,0-0.8c0-0.4,0.1-0.7,0.1-0.7s0.1,0.2,0.4,0.6
			c0.1,0.2,0.2,0.4,0.4,0.6c0.1,0.2,0.4,0.5,0.5,0.8c0.2,0.3,0.4,0.6,0.6,0.8c0.2,0.3,0.5,0.6,0.7,0.8c0.3,0.3,0.6,0.5,0.9,0.8
			l0.5,0.4l0.5,0.3c0.3,0.2,0.7,0.4,1,0.6s0.7,0.4,1.1,0.5c0.7,0.3,1.4,0.6,2.1,0.8C-53.4,450.1-52.4,450.3-52.4,450.3z"/>
		<path class="st12" d="M-146.3,400.4h52.8c1.3,0,2.3,1,2.3,2.3v52.8c0,1.3-1,2.3-2.3,2.3h-52.8c-1.3,0-2.3-1-2.3-2.3v-52.8
			C-148.6,401.5-147.6,400.4-146.3,400.4z"/>
		<path class="st13" d="M-113.5,431.7l-0.2,0.1c-0.2,0.1-0.3,0.1-0.5,0.1c-0.6,0.1-1.3,0-1.9-0.2c-0.9-0.3-1.6-0.9-2.2-1.7
			c-0.3-0.5-0.6-1-0.7-1.5c-0.2-0.7-0.1-1.4,0.2-2c0.2-0.3,0.4-0.6,0.7-0.9l0.2-0.2l0.2-0.1l0.4-0.2c0.6-0.3,1.2-0.4,1.8-0.3
			c0.6,0.1,1.1,0.4,1.5,0.8c0.3,0.3,0.5,0.7,0.7,1.1c0.2,0.6,0.4,1.1,0.4,1.8c0,0.2,0,0.4-0.1,0.7c-0.1-0.2-0.2-0.4-0.3-0.6
			c-0.3-0.5-0.6-0.9-0.9-1.2c-0.2-0.2-0.5-0.4-0.7-0.5c-0.2-0.1-0.5-0.2-0.7-0.2c-0.2,0-0.5,0.1-0.7,0.3c-0.1,0.1-0.2,0.2-0.3,0.3
			c0,0.1-0.1,0.1-0.1,0.2c-0.1,0.5,0,1.1,0.3,1.6c0.3,0.6,0.6,1.1,1.1,1.5c0.4,0.4,0.8,0.7,1.2,0.9l0.4,0.2L-113.5,431.7z"/>
		<path class="st13" d="M-111.9,423.8l-0.3-0.2c-0.2-0.1-0.4-0.3-0.7-0.4c-0.4-0.2-0.7-0.4-1.1-0.5c-0.5-0.2-1-0.3-1.5-0.4
			c-0.6-0.1-1.1-0.1-1.7,0c-0.6,0.1-1.2,0.3-1.7,0.6c-0.3,0.1-0.5,0.3-0.8,0.5c-0.3,0.2-0.5,0.4-0.7,0.7c-0.4,0.5-0.7,1.1-0.8,1.8
			c-0.2,1.4,0,2.9,0.7,4.2c0.6,1.2,1.4,2.2,2.4,3.1c0.7,0.6,1.6,1.1,2.5,1.5c0.3,0.1,0.5,0.2,0.8,0.3l0.3,0.1h-0.3
			c-0.3,0-0.6-0.1-0.9-0.1c-1-0.2-2-0.5-2.9-1.1c-1.3-0.8-2.4-1.8-3.2-3.1c-1-1.5-1.4-3.4-1.2-5.2c0.1-1,0.5-1.9,1.1-2.7
			c0.3-0.4,0.6-0.7,1-1c0.4-0.3,0.8-0.6,1.2-0.8c0.8-0.4,1.7-0.6,2.5-0.6c0.8,0,1.6,0.1,2.3,0.4c1,0.4,1.9,1.1,2.6,2
			c0.2,0.2,0.3,0.5,0.4,0.8L-111.9,423.8z"/>
		<path class="st13" d="M-109.5,419.9c0,0-0.3-0.1-0.8-0.5l-0.4-0.2l-0.5-0.2c-0.3-0.2-0.7-0.3-1.1-0.5l-0.6-0.2l-0.7-0.2
			c-0.4-0.2-1-0.2-1.4-0.4c-0.4-0.1-1-0.2-1.6-0.2c-0.6,0-1.1,0-1.6,0s-1.1,0.1-1.6,0.2s-1.1,0.2-1.6,0.3c-0.5,0.1-1,0.3-1.5,0.4
			c-0.5,0.2-0.9,0.3-1.3,0.5c-0.4,0.1-0.7,0.3-1.1,0.5c-0.3,0.1-0.6,0.3-0.8,0.5c-0.5,0.3-0.8,0.4-0.8,0.4s0.1-0.3,0.4-0.8
			c0.2-0.3,0.3-0.6,0.6-0.9l0.4-0.5c0.2-0.2,0.3-0.3,0.5-0.5c0.4-0.4,0.8-0.7,1.3-1c0.5-0.3,1-0.6,1.6-0.9c0.6-0.2,1.2-0.4,1.8-0.6
			c0.7-0.1,1.3-0.2,2-0.3c0.7,0,1.3,0,2,0.1c0.6,0.1,1.3,0.2,1.9,0.4c0.6,0.2,1.1,0.5,1.6,0.8c0.2,0.2,0.5,0.3,0.7,0.4
			s0.4,0.4,0.6,0.5c0.4,0.3,0.7,0.6,0.9,1c0.1,0.2,0.2,0.3,0.3,0.4l0.2,0.4C-109.6,419.6-109.5,419.9-109.5,419.9z"/>
		<path class="st13" d="M-123.2,447.9c0,0,0.3-0.2,0.8-0.4c0.7-0.3,1.5-0.6,2.3-0.9c0.9-0.3,2-0.5,3.2-0.8c0.6-0.1,1.2-0.2,1.8-0.3
			s1.2-0.2,1.8-0.3c0.6-0.1,1.1-0.3,1.7-0.4l0.8-0.2c0.3-0.1,0.5-0.2,0.7-0.3l0.4-0.1l0.3-0.2c0.2-0.1,0.4-0.2,0.6-0.3
			c0.4-0.2,0.7-0.5,1-0.8c0.1-0.1,0.3-0.3,0.4-0.4l0.3-0.5c0.1-0.1,0.2-0.3,0.3-0.4l0.2-0.4c0.3-0.5,0.4-0.8,0.4-0.8
			c0.1,0.3,0.1,0.6,0.2,0.9l0.1,0.5c0,0.2,0,0.4-0.1,0.6l-0.1,0.8c-0.1,0.3-0.2,0.5-0.3,0.8c-0.2,0.6-0.6,1.1-1,1.6
			c-0.2,0.2-0.5,0.5-0.7,0.7c-0.3,0.2-0.5,0.4-0.8,0.6c-0.6,0.4-1.2,0.7-1.9,0.9c-0.7,0.2-1.3,0.4-2,0.6c-2.4,0.4-4.8,0.5-7.2,0.2
			c-1-0.1-1.7-0.2-2.3-0.4S-123.2,447.9-123.2,447.9z"/>
		<path class="st13" d="M-129.4,422.6c0,0,0,0.4-0.2,1.2c-0.1,0.4-0.2,0.9-0.2,1.3c0,0.5,0,1.1-0.1,1.6l0.1,1.9l0.2,1l0.1,0.5
			l0.2,0.5c0.1,0.3,0.2,0.7,0.3,1s0.3,0.7,0.5,1c0.1,0.3,0.3,0.7,0.5,1c0.2,0.3,0.3,0.7,0.6,1c0.4,0.7,0.9,1.3,1.4,1.9
			c0.5,0.6,1,1.2,1.5,1.7s1,1.1,1.6,1.5s1,0.9,1.5,1.3c0.5,0.4,1,0.7,1.4,1l1.1,0.7l1,0.6h-0.3c-0.2,0-0.5,0-0.9,0
			c-0.5-0.1-0.9-0.1-1.4-0.2c-0.6-0.1-1.2-0.3-1.8-0.6l-1-0.4c-0.3-0.2-0.6-0.4-1-0.5c-0.7-0.4-1.4-0.9-2-1.4
			c-0.7-0.6-1.3-1.2-1.9-1.8c-0.6-0.7-1.2-1.4-1.7-2.2c-0.3-0.4-0.5-0.8-0.7-1.2c-0.2-0.4-0.4-0.8-0.6-1.3c-0.2-0.4-0.3-0.9-0.4-1.3
			c-0.1-0.4-0.2-0.9-0.2-1.3l-0.1-0.6c0-0.2,0-0.4,0-0.6c0-0.4,0-0.8,0-1.2c0.1-0.7,0.2-1.5,0.4-2.2c0.2-0.7,0.5-1.3,0.7-1.8
			c0.2-0.4,0.5-0.8,0.7-1.2C-129.7,422.9-129.4,422.6-129.4,422.6z"/>
		<path class="st13" d="M-135.3,426.6c0,0,0-0.5,0-1.3c0-0.5,0-1,0.1-1.5c0.2-1.4,0.6-2.8,1.2-4.2l0.6-1.2c0.2-0.4,0.5-0.8,0.7-1.2
			c0.2-0.4,0.5-0.8,0.9-1.1c0.3-0.4,0.6-0.7,1-1.1c0.7-0.7,1.5-1.3,2.4-1.8l0.6-0.4l0.7-0.3c0.4-0.2,0.9-0.4,1.4-0.6l1.4-0.4
			c0.5-0.1,1-0.2,1.4-0.2c0.5-0.1,0.9-0.1,1.4-0.1c0.4,0,0.9,0,1.3,0.1l1.2,0.2c0.4,0.1,0.7,0.2,1.1,0.3c0.4,0.1,0.7,0.2,1,0.3
			l0.9,0.4c0.3,0.1,0.5,0.2,0.7,0.4s0.4,0.3,0.6,0.4c0.7,0.5,1,0.8,1,0.8s-0.5-0.1-1.3-0.2c-0.2,0-0.4-0.1-0.6-0.1s-0.5-0.1-0.8-0.1
			l-0.9-0.1h-0.9c-0.7,0-1.4,0-2.1,0.1c-0.4,0-0.7,0.1-1.1,0.2c-0.4,0-0.8,0.1-1.1,0.2l-1.1,0.3c-0.4,0.2-0.8,0.3-1.1,0.4
			c-0.4,0.2-0.7,0.3-1.1,0.5l-0.6,0.3l-0.5,0.3c-0.7,0.4-1.4,0.9-2,1.4c-0.6,0.5-1.2,1.1-1.7,1.7c-0.3,0.3-0.5,0.6-0.8,0.9l-0.7,0.9
			c-0.2,0.3-0.4,0.6-0.6,0.9l-0.6,0.9c-0.3,0.6-0.6,1.1-0.9,1.6c-0.2,0.4-0.4,0.9-0.6,1.3C-135.1,426.2-135.3,426.6-135.3,426.6z"/>
		<path class="st13" d="M-117.6,410.3c0,0,0.3-0.1,0.8-0.2c0.3-0.1,0.7-0.1,1-0.1c0.4,0,0.9,0,1.3,0.1c0.5,0.1,1,0.2,1.5,0.3
			c0.5,0.2,1,0.4,1.6,0.6c0.5,0.3,1,0.6,1.5,0.9c0.5,0.4,1,0.7,1.4,1.1c0.4,0.4,0.9,0.9,1.2,1.3c0.4,0.5,0.7,0.9,1,1.4
			c0.3,0.5,0.6,1,0.8,1.5c0.2,0.5,0.4,0.9,0.5,1.4c0.1,0.4,0.2,0.8,0.2,1.2c0,0.3,0,0.7,0,1c0,0.3-0.1,0.6-0.1,0.8
			c0,0-0.2-0.3-0.4-0.7c-0.1-0.2-0.3-0.5-0.4-0.8c-0.2-0.3-0.4-0.6-0.6-1c-0.2-0.4-0.5-0.7-0.8-1.1c-0.3-0.4-0.6-0.7-0.9-1.1
			s-0.7-0.8-1.1-1.1c-0.4-0.4-0.8-0.8-1.1-1.1c-0.4-0.4-0.8-0.7-1.2-1.1l-0.6-0.5l-0.6-0.5c-0.4-0.3-0.8-0.6-1.2-0.8
			s-0.8-0.5-1.2-0.7c-0.4-0.2-0.7-0.4-1-0.5c-0.3-0.1-0.5-0.2-0.8-0.3C-117.3,410.4-117.6,410.3-117.6,410.3z"/>
		<path class="st13" d="M-114,438.2l-0.3,0.1c-0.3,0.1-0.7,0.1-1,0.2c-0.5,0.1-1,0.1-1.6,0.1c-0.3,0-0.7,0-1-0.1
			c-0.4,0-0.7-0.1-1.1-0.2c-0.8-0.2-1.6-0.5-2.3-0.8c-0.8-0.4-1.6-0.9-2.3-1.5c-1.6-1.3-2.8-3-3.6-4.9c-0.4-1-0.6-2-0.7-3.1
			c-0.1-1,0-2.1,0.3-3.1c0.5-1.8,1.6-3.3,3.1-4.4c0.3-0.2,0.6-0.4,0.9-0.6c0.3-0.2,0.6-0.3,0.9-0.4c0.5-0.2,1-0.3,1.5-0.4
			c0.4-0.1,0.8-0.1,1-0.1h0.3l-1.1,0.6c-0.3,0.2-0.8,0.5-1.2,0.8c-0.2,0.2-0.5,0.4-0.7,0.6c-0.2,0.2-0.5,0.4-0.7,0.7
			c-0.5,0.5-0.8,1.1-1.1,1.7c-0.3,0.7-0.5,1.4-0.6,2.1c-0.2,1.6,0,3.2,0.6,4.7c0.3,0.8,0.7,1.5,1.1,2.2c0.9,1.3,2,2.5,3.3,3.4
			c0.3,0.2,0.6,0.4,0.9,0.6c0.3,0.2,0.6,0.4,0.9,0.5c0.3,0.1,0.6,0.3,0.9,0.4c0.3,0.1,0.5,0.2,0.8,0.3c0.5,0.2,1,0.3,1.4,0.4
			L-114,438.2z"/>
		<path class="st13" d="M-106.6,430.7c0,0,0-0.2,0-0.6c0-0.2,0-0.5,0-0.7c0-0.3,0-0.5,0-0.8s-0.1-0.6-0.1-0.9
			c-0.1-0.3-0.2-0.7-0.3-1c-0.1-0.3-0.2-0.7-0.4-1c-0.2-0.3-0.4-0.6-0.6-1c-0.8-1.2-1.8-2.3-2.9-3.2l-1.2-1
			c-0.3-0.2-0.5-0.4-0.5-0.4s0.2,0,0.6,0c0.5,0.1,1.1,0.2,1.6,0.4c0.3,0.1,0.7,0.3,1,0.4c0.4,0.2,0.7,0.4,1.1,0.7
			c0.4,0.3,0.7,0.6,1,0.9c0.3,0.3,0.6,0.7,0.9,1.1c0.3,0.4,0.5,0.8,0.7,1.3c0.2,0.4,0.3,0.9,0.4,1.4c0.1,0.4,0.1,0.9,0,1.3
			c-0.1,0.4-0.1,0.8-0.2,1.1c-0.1,0.3-0.2,0.6-0.4,0.9c-0.1,0.2-0.2,0.4-0.4,0.6C-106.4,430.6-106.6,430.7-106.6,430.7z"/>
		<path class="st13" d="M-113.3,435.1c0,0,0.1-0.1,0.4-0.3c0.2-0.2,0.6-0.5,1-0.8c0.2-0.2,0.4-0.4,0.5-0.6c0.2-0.2,0.3-0.4,0.5-0.6
			c0.1-0.2,0.2-0.4,0.3-0.7l0.1-0.4l0.1-0.4c0-0.3,0-0.6,0-0.8c0-0.3,0-0.6-0.1-0.9s-0.1-0.6-0.1-0.9c-0.1-0.3-0.1-0.6-0.1-0.8
			c-0.1-0.5-0.1-1-0.2-1.3s0-0.5,0-0.5s0.2,0.1,0.4,0.3c0.3,0.3,0.7,0.6,0.9,1c0.2,0.2,0.4,0.5,0.5,0.8c0.2,0.3,0.3,0.6,0.4,0.9
			c0.1,0.4,0.2,0.7,0.3,1.1c0.1,0.4,0.1,0.8,0,1.3l-0.1,0.7c-0.1,0.2-0.2,0.4-0.2,0.6c-0.4,0.7-1,1.3-1.7,1.7
			c-0.3,0.2-0.6,0.3-0.9,0.4c-0.3,0.1-0.5,0.1-0.8,0.2c-0.2,0-0.4,0-0.6,0C-113.1,435.1-113.3,435.1-113.3,435.1z"/>
		<path class="st13" d="M-108.2,410.9c0,0-0.4-0.2-1-0.6c-0.2-0.1-0.3-0.2-0.5-0.3l-0.6-0.3l-0.7-0.3l-0.8-0.3
			c-0.3-0.1-0.6-0.2-0.9-0.3s-0.6-0.2-1-0.2c-0.6-0.2-1.4-0.2-2.1-0.4s-1.5-0.2-2.3-0.1c-0.4,0-0.8,0-1.2,0l-1.2,0.1
			c-0.4,0-0.8,0.1-1.2,0.1c-0.4,0-0.8,0.1-1.1,0.2c-0.4,0.1-0.7,0.2-1.1,0.2l-1.1,0.4c-0.3,0.1-0.7,0.2-1,0.4
			c-0.3,0.1-0.6,0.3-0.9,0.4c-0.6,0.3-1.1,0.6-1.6,1l-0.7,0.5c-0.2,0.2-0.4,0.4-0.6,0.5c-0.3,0.3-0.6,0.6-0.9,0.9
			c-0.5,0.6-0.8,0.9-0.8,0.9s0.1-0.4,0.3-1.1c0.1-0.4,0.3-0.9,0.6-1.3c0.1-0.2,0.3-0.5,0.4-0.8l0.6-0.7c0.5-0.6,1-1.1,1.6-1.5
			c0.3-0.2,0.7-0.5,1-0.7c0.3-0.2,0.7-0.4,1.1-0.6l1.2-0.5c0.4-0.1,0.8-0.3,1.3-0.4c0.4-0.1,0.9-0.2,1.3-0.3
			c0.4-0.1,0.9-0.2,1.3-0.2l1.4-0.1c0.4,0,0.9,0,1.3,0.1c0.4,0,0.9,0.1,1.3,0.2l1.3,0.2c0.8,0.2,1.5,0.5,2.3,0.8
			c0.4,0.2,0.7,0.3,1,0.5s0.6,0.4,0.9,0.6s0.6,0.4,0.8,0.5l0.6,0.6c0.2,0.2,0.4,0.3,0.6,0.5c0.2,0.2,0.3,0.3,0.4,0.5
			C-108.5,410.6-108.2,410.9-108.2,410.9z"/>
		<path class="st13" d="M-104.6,430.1c0,0,0.1,0.3,0.2,0.9c0.1,0.4,0.1,0.7,0.1,1.1c0,0.5,0,1-0.1,1.5c-0.1,0.6-0.2,1.1-0.4,1.7
			c-0.2,0.6-0.5,1.2-0.9,1.7c-0.4,0.6-0.8,1.2-1.2,1.7c-0.5,0.5-1,1-1.6,1.4c-0.6,0.4-1.2,0.7-1.9,1c-0.3,0.1-0.7,0.2-1,0.3
			l-0.5,0.1l-0.5,0.1c-0.3,0-0.7,0.1-1,0.1h-1c-0.6,0-1.1-0.1-1.7-0.3c-0.5-0.1-0.9-0.3-1.3-0.5c-0.3-0.1-0.7-0.3-0.9-0.5
			c-0.5-0.3-0.8-0.6-0.8-0.6s0.4,0,0.9,0.1c0.3,0.1,0.7,0.1,1,0.1c0.4,0,0.8,0,1.3,0l0.7-0.1c0.2,0,0.5,0,0.7-0.1l0.8-0.1l0.8-0.2
			c0.5-0.2,1-0.4,1.5-0.6c0.5-0.3,1-0.6,1.5-0.9c0.2-0.1,0.5-0.3,0.7-0.5c0.2-0.2,0.5-0.3,0.7-0.5s0.4-0.4,0.6-0.6s0.4-0.4,0.6-0.6
			c0.4-0.4,0.7-0.8,1-1.3c0.2-0.5,0.6-0.8,0.7-1.3c0.2-0.4,0.4-0.8,0.5-1.2c0.1-0.3,0.2-0.7,0.3-1
			C-104.7,430.5-104.6,430.1-104.6,430.1z"/>
		<path class="st13" d="M-122.4,445.4c0,0-0.4,0.1-1,0.2c-0.3,0-0.7,0.1-1.2,0.1c-0.5,0-1-0.1-1.6-0.2l-0.9-0.2
			c-0.3-0.1-0.6-0.2-0.9-0.3c-0.3-0.1-0.6-0.2-0.9-0.4c-0.3-0.1-0.6-0.3-0.9-0.5l-0.9-0.6c-0.3-0.2-0.6-0.5-0.9-0.7
			c-0.3-0.2-0.6-0.5-0.8-0.8c-0.3-0.3-0.5-0.6-0.8-0.9l-0.7-1c-0.2-0.3-0.4-0.7-0.6-1l-0.3-0.5l-0.2-0.5l-0.4-1
			c-0.2-0.7-0.3-1.4-0.4-2.1c0-0.6,0-1.2,0-1.8c0-0.6,0.1-1.1,0.2-1.5c0.1-0.4,0.2-0.8,0.3-1.1c0.2-0.6,0.3-1,0.3-1s0.1,0.4,0.2,1
			l0.2,1.1c0.1,0.4,0.2,0.9,0.3,1.4c0.1,0.5,0.3,1,0.4,1.6s0.4,1.1,0.6,1.7c0.2,0.6,0.5,1.1,0.9,1.7l0.5,0.8l0.6,0.8
			c1.5,1.9,3.4,3.5,5.5,4.6c0.4,0.2,0.9,0.4,1.3,0.6l1,0.4C-122.7,445.3-122.4,445.4-122.4,445.4z"/>
		<path class="st9" d="M12.7,432.3l0.2-0.1l0.4-0.3c0.4-0.3,0.8-0.6,1.2-1c0.4-0.4,0.7-0.9,1-1.5c0.1-0.3,0.2-0.5,0.3-0.8
			c0-0.2,0-0.4,0-0.5V428l0,0l0,0c0,0-0.1,0,0,0l0,0l0,0l-0.1-0.1c-0.1,0-0.1-0.1-0.1-0.1c-0.1-0.1-0.3-0.2-0.5-0.3
			c-0.2,0-0.5,0-0.7,0.1c-0.3,0.1-0.5,0.3-0.8,0.4c-0.4,0.3-0.8,0.7-1.1,1.1c-0.2,0.3-0.4,0.5-0.4,0.5c0-0.2-0.1-0.4-0.1-0.7
			c0-0.6,0.1-1.2,0.4-1.8c0.2-0.4,0.5-0.8,0.8-1.1c0.4-0.4,1-0.7,1.6-0.8c0.7-0.1,1.4,0,2,0.4c0.1,0.1,0.3,0.2,0.4,0.2h0.1l0,0
			l0.1,0.1l0.2,0.2c0.3,0.3,0.5,0.6,0.7,1c0.3,0.7,0.3,1.4,0.1,2.1c-0.2,0.6-0.4,1.1-0.8,1.6c-0.6,0.8-1.4,1.3-2.4,1.6
			c-0.6,0.2-1.3,0.2-1.9,0C13,432.4,12.8,432.4,12.7,432.3z"/>
		<path class="st9" d="M11.5,424.3l0.1-0.3c0.1-0.3,0.3-0.5,0.4-0.8c0.7-0.9,1.6-1.7,2.6-2.1c0.8-0.3,1.6-0.4,2.4-0.4
			c0.9,0,1.8,0.3,2.7,0.8c0.4,0.2,0.8,0.5,1.2,0.9c1.2,1.1,1.8,2.5,1.9,4.1c0.1,1.9-0.5,3.8-1.7,5.3c-0.9,1.3-2.1,2.3-3.5,2.9
			c-0.9,0.5-2,0.7-3,0.8c-0.3,0-0.6,0-0.9,0h-0.3l0.3-0.1c0.3-0.1,0.5-0.2,0.8-0.3c0.4-0.2,0.8-0.4,1.1-0.6c0.5-0.3,0.9-0.6,1.3-0.9
			c1-0.8,1.9-1.8,2.5-3c0.7-1.2,0.9-2.6,0.8-4c-0.1-0.6-0.3-1.2-0.6-1.7c-0.2-0.2-0.4-0.5-0.6-0.7c-0.2-0.2-0.5-0.3-0.7-0.5
			c-0.9-0.6-2-0.8-3.1-0.7c-0.5,0-1,0.1-1.5,0.2c-0.4,0.1-0.8,0.2-1.2,0.4c-0.3,0.1-0.6,0.2-0.8,0.3L11.5,424.3z"/>
		<path class="st9" d="M9.3,420.3c0,0,0.1-0.3,0.4-0.8l0.2-0.4c0.1-0.1,0.2-0.3,0.4-0.4c0.3-0.4,0.6-0.7,1-1l0.6-0.5
			c0.2-0.1,0.5-0.3,0.7-0.4c0.5-0.3,1.1-0.5,1.7-0.7c0.6-0.2,1.3-0.3,1.9-0.4c0.7-0.1,1.3-0.1,2,0c0.7,0.1,1.3,0.2,2,0.4
			c0.6,0.2,1.2,0.4,1.8,0.7c0.5,0.3,1.1,0.6,1.5,0.9c0.4,0.3,0.8,0.7,1.2,1.1c0.2,0.2,0.3,0.4,0.5,0.5l0.4,0.5
			c0.2,0.3,0.4,0.6,0.5,0.9c0.1,0.3,0.2,0.5,0.3,0.8c0,0-0.3-0.2-0.8-0.5c-0.3-0.2-0.5-0.3-0.8-0.5c-0.3-0.2-0.7-0.4-1.1-0.5
			c-0.4-0.2-0.8-0.3-1.3-0.5c-0.4-0.2-0.9-0.3-1.4-0.5c-0.5-0.1-1-0.3-1.5-0.4s-1.1-0.2-1.6-0.2s-1.1-0.1-1.6-0.1
			c-0.5,0-1,0.1-1.6,0.1c-0.6,0-1,0.1-1.5,0.3l-0.7,0.2l-0.6,0.2c-0.4,0.1-0.7,0.3-1.1,0.4l-0.5,0.2l-0.4,0.2
			C9.6,420.1,9.3,420.3,9.3,420.3z"/>
		<path class="st9" d="M21.4,449c0,0-0.3,0-0.9,0.1c-0.6,0-1.4,0.1-2.3,0.2c-2.4,0.2-4.8,0-7.1-0.6c-0.7-0.2-1.3-0.4-2-0.6
			c-0.6-0.3-1.3-0.6-1.8-1c-0.3-0.2-0.6-0.4-0.8-0.6c-0.2-0.2-0.5-0.4-0.7-0.7c-0.4-0.5-0.7-1-0.9-1.6c-0.1-0.2-0.2-0.5-0.3-0.7
			l-0.1-0.7c0-0.2,0-0.4,0-0.6l0.1-0.5c0-0.3,0.1-0.6,0.2-0.9c0,0,0.1,0.3,0.4,0.8l0.2,0.4c0.1,0.1,0.2,0.3,0.3,0.4l0.3,0.5
			c0.1,0.1,0.3,0.3,0.4,0.5c0.3,0.3,0.6,0.6,1,0.9c0.2,0.1,0.4,0.2,0.6,0.4c0.2,0.1,0.4,0.2,0.7,0.3c0.2,0.1,0.5,0.2,0.7,0.3
			l0.8,0.3c0.5,0.1,1.1,0.3,1.7,0.5c2.3,0.6,4.8,1.1,6.7,1.7c0.8,0.2,1.5,0.5,2.2,0.9C21.1,448.8,21.4,449,21.4,449z"/>
		<path class="st9" d="M29,424c0,0,0.3,0.4,0.7,1c0.3,0.4,0.5,0.8,0.6,1.2c0.2,0.5,0.4,1.1,0.6,1.8c0.1,0.7,0.2,1.5,0.3,2.2
			l-0.1,1.2c0,0.2,0,0.4,0,0.6l-0.1,0.6c-0.1,0.4-0.2,0.9-0.3,1.3c-0.1,0.4-0.3,0.9-0.5,1.3c-0.2,0.4-0.4,0.8-0.6,1.2
			c-0.2,0.4-0.5,0.8-0.8,1.2c-0.5,0.7-1.1,1.4-1.8,2.1c-0.6,0.6-1.3,1.2-2,1.7c-0.7,0.5-1.4,0.9-2.1,1.3c-0.4,0.2-0.7,0.4-1,0.5
			l-1,0.4c-0.6,0.2-1.2,0.4-1.8,0.5c-0.5,0.1-1,0.1-1.4,0.2c-0.4,0-0.7,0-0.9,0h-0.3l1.1-0.5l1.2-0.7c0.4-0.3,0.9-0.6,1.4-0.9
			s1-0.8,1.6-1.2s1.1-1,1.7-1.4c0.6-0.4,1.1-1,1.6-1.7c0.5-0.6,1-1.2,1.5-1.8c0.2-0.3,0.4-0.7,0.6-1c0.2-0.3,0.4-0.7,0.6-1
			c0.2-0.3,0.3-0.7,0.5-1l0.4-1l0.2-0.5l0.1-0.5l0.2-1l0.2-1.9c0-0.6,0-1.1,0-1.7c0-0.5-0.1-0.9-0.2-1.3C29.1,424.4,29,424,29,424z"
			/>
		<path class="st9" d="M34.7,428.2c0,0-0.2-0.4-0.5-1.2c-0.2-0.5-0.3-0.9-0.5-1.4c-0.2-0.5-0.4-1.1-0.8-1.6l-0.5-0.9
			c-0.1-0.2-0.2-0.3-0.2-0.5l-0.3-0.5l-0.6-1c-0.2-0.3-0.5-0.6-0.7-0.9c-0.5-0.6-1-1.2-1.6-1.8c-0.6-0.6-1.2-1.1-1.9-1.6l-0.5-0.4
			l-0.5-0.2c-0.3-0.2-0.7-0.4-1.1-0.6l-1.1-0.5c-0.4-0.1-0.8-0.2-1.1-0.4c-0.4-0.1-0.7-0.2-1.1-0.3c-0.4-0.1-0.7-0.2-1.1-0.2
			c-0.7-0.1-1.4-0.1-2.1-0.1c-0.3,0-0.6,0-1,0l-0.9,0.1l-0.8,0.1l-0.6,0.1c-0.8,0.1-1.3,0.2-1.3,0.2s0.4-0.3,1.1-0.7
			c0.2-0.1,0.4-0.2,0.6-0.4s0.5-0.2,0.8-0.3l0.9-0.4c0.3-0.1,0.6-0.2,1-0.3c0.4-0.1,0.7-0.2,1.1-0.2c0.4,0,0.8-0.1,1.2-0.1
			c0.4,0,0.9,0,1.3,0c0.5,0,0.9,0.1,1.4,0.1l1.4,0.3c0.5,0.1,0.9,0.3,1.4,0.5c0.5,0.2,0.9,0.4,1.4,0.6l0.7,0.4
			c0.2,0.1,0.4,0.3,0.6,0.4c0.4,0.3,0.8,0.6,1.2,0.9c0.4,0.3,0.7,0.7,1.1,1s0.6,0.8,0.9,1.1c0.3,0.4,0.6,0.8,0.8,1.2
			c0.2,0.4,0.5,0.8,0.7,1.2l0.5,1.2c0.3,0.7,0.5,1.5,0.7,2.2c0.1,0.7,0.2,1.3,0.3,2c0,0.5,0,1,0,1.5
			C34.7,427.8,34.7,428.2,34.7,428.2z"/>
		<path class="st9" d="M18,411.1c0,0-0.3,0.1-0.8,0.2c-0.3,0.1-0.6,0.2-0.8,0.3c-0.3,0.1-0.6,0.3-1,0.5c-0.4,0.1-0.7,0.4-1.1,0.6
			c-0.4,0.2-0.8,0.5-1.2,0.8l-0.6,0.4l-0.6,0.5c-0.4,0.3-0.8,0.7-1.2,1s-0.8,0.7-1.2,1.1s-0.8,0.7-1.1,1.1c-0.4,0.4-0.7,0.7-1,1.1
			s-0.6,0.7-0.9,1c-0.2,0.3-0.5,0.6-0.7,0.9s-0.4,0.5-0.5,0.7c-0.3,0.4-0.5,0.7-0.5,0.7c0-0.3-0.1-0.6-0.1-0.9c0-0.3,0-0.7,0.1-1
			c0-0.4,0.1-0.8,0.3-1.2c0.1-0.5,0.3-1,0.5-1.4c0.3-0.5,0.5-1,0.9-1.5c0.3-0.5,0.7-1,1.1-1.4c0.4-0.5,0.9-0.9,1.3-1.3
			c0.5-0.4,1-0.8,1.5-1.1c0.5-0.3,1-0.6,1.6-0.8c0.5-0.2,1.1-0.4,1.6-0.6c0.5-0.1,1-0.2,1.5-0.2c0.4,0,0.9,0,1.3,0
			c0.3,0,0.7,0.1,1,0.2C17.7,410.9,18,411.1,18,411.1z"/>
		<path class="st9" d="M12.7,438.8l1.3-0.2c0.4-0.1,0.9-0.2,1.4-0.3c0.3-0.1,0.6-0.2,0.8-0.3c0.3-0.1,0.6-0.2,0.9-0.4
			c0.3-0.1,0.6-0.3,0.9-0.5c0.3-0.2,0.6-0.4,0.9-0.6c0.6-0.4,1.3-0.9,1.8-1.4c0.6-0.6,1.1-1.2,1.6-1.8c0.5-0.7,0.9-1.4,1.3-2.1
			c0.4-0.7,0.6-1.5,0.8-2.3c0.2-0.8,0.2-1.5,0.1-2.3c-0.1-0.7-0.2-1.4-0.5-2.1c-0.3-0.6-0.6-1.2-1-1.7c-0.2-0.2-0.4-0.5-0.6-0.7
			c-0.2-0.2-0.4-0.4-0.6-0.6c-0.4-0.4-0.8-0.7-1.1-0.9l-1.1-0.7H20c0.2,0,0.6,0.1,1,0.2c0.5,0.1,1,0.3,1.5,0.5
			c0.3,0.1,0.6,0.3,0.9,0.4c0.3,0.2,0.6,0.4,0.9,0.6c1.5,1.1,2.5,2.8,2.8,4.6c0.2,1,0.2,2.1,0.1,3.1c-0.1,1-0.5,2.1-0.9,3
			c-0.9,1.9-2.2,3.5-3.9,4.7c-0.7,0.6-1.6,1-2.4,1.4c-0.8,0.3-1.6,0.6-2.4,0.7c-0.4,0.1-0.7,0.1-1.1,0.1c-0.3,0-0.7,0-1,0
			c-0.5,0-1-0.1-1.6-0.2c-0.3-0.1-0.7-0.1-1-0.2L12.7,438.8z"/>
		<path class="st9" d="M5.8,431c-0.2-0.2-0.3-0.3-0.4-0.5c-0.2-0.2-0.3-0.4-0.4-0.6c-0.2-0.3-0.3-0.6-0.4-1
			c-0.1-0.4-0.2-0.8-0.2-1.2c0-0.5,0-0.9,0.1-1.4c0.1-0.5,0.2-1,0.4-1.4c0.2-0.5,0.5-0.9,0.8-1.3c0.6-0.8,1.3-1.4,2.1-1.9
			c0.4-0.2,0.7-0.4,1.1-0.6c0.4-0.1,0.7-0.3,1.1-0.4c0.6-0.1,1.1-0.2,1.7-0.2c0.2,0,0.4,0,0.7,0.1c0,0-0.2,0.2-0.5,0.5l-1.1,1.1
			c-1,1-2,2-2.9,3.1c-0.2,0.3-0.4,0.6-0.6,0.9c-0.2,0.3-0.3,0.6-0.5,0.9c-0.1,0.3-0.3,0.6-0.4,0.9c-0.1,0.3-0.2,0.6-0.2,0.9L6,429.6
			c0,0.2-0.1,0.5-0.1,0.7C5.9,430.6,5.8,430.8,5.8,431z"/>
		<path class="st9" d="M12.2,435.6c-0.2,0-0.4,0.1-0.5,0.1c-0.2,0-0.4,0-0.6,0c-0.3,0-0.6-0.1-0.8-0.1c-0.7-0.2-1.4-0.6-1.9-1.1
			c-0.3-0.3-0.6-0.7-0.8-1.2c-0.1-0.2-0.2-0.5-0.2-0.7l-0.1-0.7c0-0.4,0-0.9,0.1-1.3c0.1-0.4,0.2-0.8,0.4-1.1
			c0.2-0.3,0.3-0.6,0.5-0.9c0.2-0.3,0.4-0.5,0.6-0.7c0.3-0.3,0.7-0.6,1.1-0.9c0.2-0.1,0.3-0.2,0.5-0.3c0,0.2,0,0.4,0,0.6
			c0,0.3-0.1,0.8-0.1,1.3c0,0.3-0.1,0.5-0.1,0.8s-0.1,0.6-0.1,0.9S10,430.7,10,431s0,0.5,0,0.8c0,0.2,0,0.4,0.1,0.6
			c0.1,0.4,0.3,0.9,0.5,1.2c0.1,0.2,0.3,0.4,0.4,0.6c0.3,0.4,0.6,0.7,0.8,1C12,435.4,12.1,435.5,12.2,435.6z"/>
		<path class="st9" d="M9.2,411.2c0,0,0.2-0.4,0.7-0.9c0.1-0.1,0.2-0.3,0.4-0.5s0.4-0.3,0.6-0.5l0.7-0.6c0.3-0.2,0.5-0.4,0.8-0.5
			c0.3-0.2,0.6-0.4,0.9-0.5c0.3-0.2,0.7-0.3,1-0.4c0.8-0.3,1.5-0.5,2.3-0.7c0.4-0.1,0.8-0.1,1.3-0.2l0.6-0.1h0.7c0.4,0,0.9,0,1.4,0
			l1.4,0.1c0.4,0.1,0.9,0.2,1.3,0.3c0.4,0.1,0.9,0.2,1.3,0.4l1.2,0.5c0.4,0.2,0.8,0.4,1.2,0.6c0.4,0.2,0.7,0.4,1.1,0.7
			c0.3,0.3,0.7,0.5,1,0.8c0.6,0.5,1,1,1.5,1.6c0.2,0.3,0.4,0.5,0.5,0.8c0.2,0.3,0.3,0.5,0.4,0.8c0.2,0.4,0.4,0.9,0.5,1.3
			c0.2,0.8,0.2,1.2,0.2,1.2s-0.3-0.3-0.7-0.9c-0.3-0.4-0.5-0.7-0.9-1c-0.2-0.2-0.3-0.4-0.5-0.5l-0.7-0.5c-0.5-0.4-1-0.7-1.6-1.1
			c-0.3-0.2-0.6-0.3-0.9-0.5c-0.3-0.2-0.7-0.3-1-0.4l-1-0.4l-1.1-0.3c-0.7-0.2-1.5-0.3-2.2-0.5l-1.1-0.2l-1.1-0.1
			c-0.8-0.1-1.5,0-2.2,0s-1.5,0.1-2.1,0.3c-0.3,0.1-0.6,0.1-1,0.2c-0.4,0.1-0.6,0.2-0.9,0.2c-0.5,0.1-1,0.3-1.5,0.5l-0.7,0.2
			c-0.2,0.1-0.4,0.2-0.6,0.3C9.6,411.1,9.2,411.2,9.2,411.2z"/>
		<path class="st9" d="M3.8,430.3c0,0,0.1,0.3,0.2,0.9c0.1,0.3,0.2,0.7,0.3,1c0.1,0.4,0.3,0.8,0.5,1.1c0.1,0.4,0.5,0.8,0.7,1.3
			c0.2,0.5,0.5,0.9,0.9,1.3c0.2,0.2,0.3,0.4,0.5,0.6c0.2,0.2,0.4,0.4,0.6,0.6s0.4,0.4,0.6,0.6c0.2,0.2,0.4,0.4,0.6,0.5
			c0.4,0.3,0.9,0.7,1.4,0.9c0.5,0.3,1,0.5,1.5,0.7l0.7,0.3l0.7,0.1c0.2,0.1,0.5,0.1,0.7,0.1l0.7,0.1c0.5,0.1,0.9,0,1.3,0.1
			c0.3,0,0.7,0,1,0c0.6,0,0.9,0,0.9,0c-0.2,0.2-0.5,0.4-0.8,0.6c-0.3,0.2-0.6,0.4-1,0.5c-1,0.4-2,0.7-3.1,0.7h-1
			c-0.3,0-0.7-0.1-1-0.2c-0.3,0-0.7-0.1-1-0.3c-0.3-0.1-0.7-0.2-1-0.4c-0.7-0.3-1.3-0.7-1.9-1.1c-0.6-0.4-1.1-0.9-1.6-1.5
			c-0.4-0.5-0.8-1.1-1.2-1.8c-0.3-0.6-0.6-1.2-0.7-1.8c-0.2-0.6-0.2-1.1-0.3-1.7c-0.1-0.5-0.1-1,0-1.5c0-0.4,0.1-0.7,0.2-1.1
			C3.7,430.6,3.8,430.3,3.8,430.3z"/>
		<path class="st9" d="M20.7,446.4c0,0,0.4-0.1,1-0.2l1-0.4c0.4-0.2,0.8-0.3,1.3-0.6c2.2-1,4.1-2.5,5.7-4.4l0.6-0.7l0.5-0.8
			c0.4-0.5,0.6-1.1,1-1.6c0.4-0.5,0.5-1.1,0.7-1.6c0.2-0.5,0.4-1,0.6-1.5s0.3-1,0.4-1.4l0.3-1.1c0.1-0.6,0.3-1,0.3-1s0.1,0.4,0.3,1
			c0.1,0.4,0.2,0.8,0.2,1.2c0,0.5,0.1,1,0.1,1.6c0,0.6,0,1.2-0.1,1.9c-0.1,0.7-0.3,1.4-0.5,2.1l-0.4,1l-0.2,0.5l-0.3,0.5
			c-0.2,0.3-0.4,0.7-0.6,1l-0.7,0.9c-0.3,0.3-0.5,0.6-0.8,0.9c-0.3,0.3-0.6,0.5-0.9,0.8c-0.3,0.2-0.6,0.5-0.9,0.7s-0.6,0.4-1,0.6
			c-0.3,0.2-0.7,0.3-1,0.5c-0.3,0.1-0.7,0.3-1,0.4c-0.3,0.1-0.6,0.2-0.9,0.3l-0.9,0.1c-0.5,0.1-1,0.1-1.6,0.1
			c-0.5,0-0.9-0.1-1.2-0.1C21,446.6,20.7,446.4,20.7,446.4z"/>
	</g>
</g>
<circle class="st4" cx="-15.7" cy="429.8" r="97.5"/>
<line class="st4" x1="-170.8" y1="476.8" x2="-90.8" y2="367.6"/>
<line class="st14" x1="-163.4" y1="495.3" x2="-34.1" y2="525.3"/>
</svg>
