<svg id="Layer_1" xmlns="http://www.w3.org/2000/svg" width="200" height="94.4" viewBox="0 0 200 94.4"><style>.st0{fill:#e0f1f2}.st1,.st2{fill:#d3d4da;stroke:#d3d4db;stroke-linejoin:round;stroke-miterlimit:10}.st2{fill:#fff;stroke:#6ac9d0;stroke-width:2.5}.st3{fill:#d3d4da}.st4,.st5{fill:#fff;stroke:#6ac9d0;stroke-width:2.5;stroke-miterlimit:10}.st5{fill:#e0f1f2}.st6{fill:#083b54}.st7{fill:#ef5034}.st8{fill:#f59122}.st9{fill:#fff}.st10,.st11,.st12{fill:none;stroke-miterlimit:10}.st10{stroke-width:2.5;stroke:#6ac9d0}.st11,.st12{stroke:#ef5034}.st12{stroke:#d3d4da;stroke-width:.5}.st13,.st14{stroke:#063b54}.st13{stroke-linejoin:round;stroke-miterlimit:10;fill:#083b54;stroke-width:.5}.st14{fill:none;stroke-width:.7}.st14,.st15,.st16{stroke-miterlimit:10}.st15{stroke-width:.3;fill:none;stroke:#d3d4da}.st16{fill:#083b54;stroke:#063b54;stroke-linejoin:round}.st17{fill:#6ac9d0}.st18{fill:none;stroke:#063b54;stroke-width:2.5;stroke-miterlimit:10}.st19{fill:#063b54}.st20,.st21,.st22{fill:none;stroke:#6ac9d0;stroke-width:2.5}.st20{opacity:.3;stroke-miterlimit:10}.st21,.st22{stroke-linejoin:round}.st21{stroke-miterlimit:10}.st22{stroke-linecap:round}.st22,.st23,.st24,.st25{stroke-miterlimit:10}.st23{stroke:#f59122;fill:#ffe5ca}.st24,.st25{fill:none}.st24{opacity:.4;stroke:#f59122}.st25{stroke:#c3e9ec;stroke-width:2.5}.st26{clip-path:url(#SVGID_2_)}.st27{opacity:.25}.st27,.st28{fill:#469da1}.st29{opacity:.25;fill:#6ac9d0}.st30,.st31{opacity:.25;fill:#f59122}.st31{fill:#ef5034}.st32,.st33,.st34{stroke-miterlimit:10}.st32{fill:none;stroke-linecap:round;stroke-linejoin:round;stroke:#ef5034;stroke-width:.2218}.st33,.st34{stroke:#c3e9ec;stroke-width:2.5}.st33{stroke-linecap:round;fill:none}.st34{fill:#fff;stroke-linejoin:round}.st34,.st35,.st36{stroke-linecap:round}.st35{fill:#fff;stroke-width:2.5;stroke-linejoin:round;stroke-miterlimit:10;stroke:#91d5d9}.st36{stroke:#c0e869}.st36,.st37,.st38{fill:none;stroke-width:2.5;stroke-miterlimit:10}.st37{stroke-linecap:round;stroke:#ef5034}.st38{stroke:#f59685}.st38,.st39,.st40{stroke-linecap:round}.st39{stroke-width:2.5;stroke-miterlimit:10;fill:none;stroke:#f59122}.st40{fill:#fff;stroke:#6ac9d0;stroke-linejoin:round}.st40,.st41,.st42{stroke-width:2.5;stroke-miterlimit:10}.st41{stroke-linecap:round;fill:none;stroke:#96d805}.st42{fill:#fff;stroke:#c3e9ec;stroke-linejoin:round}.st43{fill:#fff;stroke:#fff;stroke-width:2.4804}.st43,.st44,.st45{stroke-miterlimit:10}.st44{opacity:.6;stroke-linejoin:round;fill:none;stroke:#6ac9d0;stroke-width:2.5}.st45{fill:#083b54;stroke:#083b54;stroke-width:1.1642;stroke-linecap:round}.st45,.st46,.st47{stroke-linejoin:round}.st46{stroke-linecap:round;stroke-miterlimit:10;fill:#083b54;stroke:#083b54;stroke-width:1.1318}.st47{fill:#fff;stroke:#fff;stroke-width:2.0393}.st47,.st48,.st49{stroke-miterlimit:10}.st48{stroke-linecap:round;stroke-linejoin:round;fill:#083b54;stroke:#083b54;stroke-width:1.1663}.st49{fill:#e0f1f2;stroke:#6ac9d0;stroke-width:1.9999}.st50{opacity:.5;fill:#6ac9d0}.st51,.st52,.st53{fill:#fff;stroke:#6ac9d0;stroke-width:1.9999;stroke-miterlimit:10}.st52,.st53{stroke:#083b54;stroke-width:2.5}.st53{fill:#d3d4da}.st54,.st55{opacity:.2;fill:#083b54}.st55{opacity:.3}.st56,.st57,.st58{opacity:.5;fill:#083b54}.st57,.st58{opacity:.85}.st58{opacity:.7}.st59,.st60{stroke-miterlimit:10}.st59{stroke-linecap:round;opacity:.5;fill:#fff;stroke:#6ac9d0}.st60{opacity:.3;fill:none;stroke:#f59122}.st61,.st62{fill:none;stroke:#6ac9d0}.st61{opacity:.3;stroke-miterlimit:10;stroke-width:2.0021}.st62{stroke-width:2.5;stroke-linecap:round}.st62,.st63,.st64,.st65{stroke-miterlimit:10}.st63{stroke-width:.7758;stroke-linejoin:round;fill:#ef5034;stroke:#ef5234}.st64,.st65{fill:none;stroke:#6ac9d0;stroke-linecap:round}.st64{stroke-linejoin:round;opacity:.6;stroke-width:3}.st65{opacity:.3;stroke-width:2.4797}</style><path class="st49" d="M179.6 76.2l-52.9-13c-.4-.1-.7-.5-.6-1l7.2-30c.1-.4.5-.7 1-.6l52.9 13c.4.1.7.5.6 1l-7.2 30c-.1.5-.5.8-1 .6z"/><path class="st50" d="M182.8 46.4l-1.9-.5c-.1 0-.2-.1-.3-.1h-.3l-46.1-11.4c-1-.2-1.9.4-2.2 1.3l-5.6 23.1c-.2 1 .4 1.9 1.3 2.2l48.6 12c1 .2 1.9-.4 2.2-1.3l5.6-23.1c.3-.9-.3-1.9-1.3-2.2zM134 36.5l43.6 10.8c-.4.5-.8 1.2-.9 2-.5 2.3.3 4.4 2 4.8.8.2 1.6-.1 2.3-.6L178.2 65c-.4-.8-1-1.4-1.8-1.6-1.7-.4-3.4 1.1-4 3.4-.3 1.3-.1 2.5.3 3.4l-44.3-10.9 5.6-22.8zm42.6 34.6l.1-.1v.1h-.1z"/><path class="st50" d="M161.6 55.1c-1.3 5.3-5.4 8.8-9.3 7.8-3.9-1-6-6-4.7-11.3 1.3-5.3 5.4-8.8 9.3-7.8 3.8.9 5.9 6 4.7 11.3z"/><path class="st49" d="M19.6 79.9l52.1-16.2c.4-.1.7-.6.5-1l-9-29.5c-.1-.4-.6-.7-1-.5l-52 16.2c-.4.1-.7.6-.5 1l9 29.5c.1.4.5.6.9.5z"/><path class="st50" d="M13.5 52.6l6.9 22.8c.3 1 1.3 1.5 2.2 1.2l47.8-14.9c.9-.3 1.5-1.3 1.2-2.3l-6.9-22.8c-.3-1-1.3-1.5-2.2-1.2L17.2 49.6c-.1 0-.2 0-.3.1-.1 0-.2.1-.3.1l-1.9.6c-1 .2-1.5 1.3-1.2 2.2zm56.2 7.2L26.2 73.4c.4-.9.5-2.2.1-3.4-.7-2.2-2.5-3.6-4.2-3.1-.8.2-1.3.9-1.7 1.7L17 57.2c.7.5 1.5.7 2.3.5 1.6-.5 2.4-2.7 1.7-4.9-.2-.8-.6-1.4-1.1-1.9l42.9-13.4 6.9 22.3zM22.3 74.6v-.1l.1.1h-.1z"/><path class="st50" d="M36.4 57.7c1.6 5.2 5.9 8.4 9.7 7.3s5.6-6.4 4-11.5-5.9-8.4-9.7-7.3c-3.8 1.1-5.6 6.3-4 11.5z"/><path class="st49" d="M194.1 56.1l-53.2 11.6c-.4.1-.9-.2-.9-.6l-6.4-30.2c-.1-.4.2-.9.6-1l53.2-11.6c.4-.1.9.2.9.6l6.4 30.2c.1.5-.2 1-.6 1z"/><path class="st50" d="M184.1 27.9l-1.9.4h-.3c-.1 0-.2.1-.3.1l-46.4 10.1c-1 .2-1.6 1.2-1.4 2.1l5 23.3c.2 1 1.2 1.6 2.1 1.4l48.9-10.6c1-.2 1.6-1.2 1.4-2.1l-5-23.3c-.2-1-1.1-1.6-2.1-1.4zm-48.3 12.6l43.9-9.6c-.1.7-.2 1.4 0 2.2.5 2.3 2.2 3.8 3.9 3.5.8-.2 1.4-.7 1.8-1.5l2.5 11.6c-.7-.6-1.5-.8-2.3-.7-1.7.4-2.6 2.5-2.1 4.8.3 1.3.9 2.3 1.7 2.9l-44.5 9.7-4.9-22.9zm53.3 12.3l.1-.1v.1h-.1z"/><path class="st50" d="M168.7 45.1c1.1 5.3-1.1 10.3-5 11.2-3.9.8-8-2.8-9.1-8.1s1.1-10.3 5-11.2c3.9-.9 8 2.7 9.1 8.1z"/><path class="st49" d="M198 42.1l-51.1 19c-.4.2-.9-.1-1-.5l-10.6-29c-.2-.4.1-.9.5-1l51.1-19c.4-.2.9.1 1 .5l10.6 29c.1.4-.1.9-.5 1z"/><path class="st50" d="M184.2 15.6l-1.8.7c-.1 0-.2 0-.3.1-.1 0-.2.1-.3.1L137.2 33c-.9.3-1.4 1.4-1.1 2.3l8.2 22.3c.3.9 1.4 1.4 2.3 1.1l46.9-17.5c.9-.3 1.4-1.4 1.1-2.3l-8.2-22.3c-.3-.9-1.3-1.4-2.2-1zm-46.1 19.3l42.1-15.7c0 .7 0 1.4.3 2.2.8 2.2 2.7 3.5 4.3 2.9.8-.3 1.3-.9 1.6-1.8l4.1 11.2c-.8-.5-1.6-.6-2.3-.3-1.6.6-2.2 2.8-1.4 5 .4 1.2 1.2 2.1 2.1 2.6l-42.7 15.9-8.1-22zm54.5 4.6c0-.1 0-.1.1-.2v.1l-.1.1z"/><path class="st50" d="M171.3 34.7c1.9 5.1.3 10.4-3.4 11.8-3.7 1.4-8.3-1.6-10.1-6.7-1.9-5.1-.3-10.4 3.4-11.8 3.7-1.4 8.2 1.6 10.1 6.7z"/><path class="st49" d="M198 42.1l-51.1 19c-.4.2-.9-.1-1-.5l-10.6-29c-.2-.4.1-.9.5-1l51.1-19c.4-.2.9.1 1 .5l10.6 29c.1.4-.1.9-.5 1z"/><path class="st50" d="M184.2 15.6l-1.8.7c-.1 0-.2 0-.3.1-.1 0-.2.1-.3.1L137.2 33c-.9.3-1.4 1.4-1.1 2.3l8.2 22.3c.3.9 1.4 1.4 2.3 1.1l46.9-17.5c.9-.3 1.4-1.4 1.1-2.3l-8.2-22.3c-.3-.9-1.3-1.4-2.2-1zm-46.1 19.3l42.1-15.7c0 .7 0 1.4.3 2.2.8 2.2 2.7 3.5 4.3 2.9.8-.3 1.3-.9 1.6-1.8l4.1 11.2c-.8-.5-1.6-.6-2.3-.3-1.6.6-2.2 2.8-1.4 5 .4 1.2 1.2 2.1 2.1 2.6l-42.7 15.9-8.1-22zm54.5 4.6c0-.1 0-.1.1-.2v.1l-.1.1z"/><path class="st50" d="M171.3 34.7c1.9 5.1.3 10.4-3.4 11.8-3.7 1.4-8.3-1.6-10.1-6.7-1.9-5.1-.3-10.4 3.4-11.8 3.7-1.4 8.2 1.6 10.1 6.7z"/><path class="st49" d="M8 63l53.5 10.1c.4.1.8-.2.9-.6L68 42.1c.1-.4-.2-.9-.6-.9L13.9 31.1c-.4-.1-.8.2-.9.6L7.3 62.1c0 .4.2.9.7.9z"/><path class="st50" d="M15.1 36l-4.3 23.4c-.2 1 .5 1.9 1.4 2.1l49.2 9.2c1 .2 1.9-.5 2.1-1.4l4.3-23.4c.2-1-.5-1.9-1.4-2.1L19.7 35c-.1 0-.2-.1-.3-.1h-.3l-1.9-.4c-1-.2-1.9.5-2.1 1.5zm46.4 32.7l-44.8-8.4c.8-.6 1.4-1.7 1.7-2.9.4-2.3-.6-4.4-2.3-4.7-.8-.1-1.6.1-2.2.7L16 41.7c.4.8 1.1 1.3 1.8 1.5 1.7.3 3.4-1.3 3.8-3.6.1-.8.1-1.5 0-2.2l44.1 8.3-4.2 23zm-48.7-9.1v-.1l.1.1h-.1z"/><path class="st50" d="M33.1 51.2c-1 5.3 1.4 10.3 5.3 11 3.9.7 7.9-3 8.9-8.4 1-5.3-1.4-10.3-5.3-11s-8 3.1-8.9 8.4z"/><path class="st49" d="M4.5 47.9l51.6 17.5c.4.1.9-.1 1-.5l9.7-29.3c.1-.4-.1-.9-.5-1L14.7 17.1c-.4-.1-.9.1-1 .5L4 46.9c-.1.4.1.9.5 1z"/><path class="st50" d="M15.3 22.1L7.8 44.7c-.3.9.2 2 1.1 2.3l47.4 16.1c.9.3 2-.2 2.3-1.1l7.5-22.6c.3-.9-.2-2-1.1-2.3L20 21.8c-.1 0-.2-.1-.3-.1s-.2 0-.3-.1l-1.8-.6c-1-.3-2 .2-2.3 1.1zm41.4 39L13.6 46.4c.9-.5 1.6-1.5 2.1-2.7.7-2.2 0-4.4-1.6-5-.8-.3-1.6-.1-2.3.4l3.8-11.3c.3.8.9 1.5 1.6 1.7 1.6.5 3.5-.8 4.2-3 .2-.8.3-1.5.3-2.2l42.6 14.5-7.6 22.3zm-47-16V45c0 .1 0 .1.1.2l-.1-.1z"/><path class="st50" d="M31 39.8c-1.7 5.2-.1 10.4 3.7 11.6 3.8 1.3 8.2-1.9 9.9-7 1.7-5.2.1-10.4-3.7-11.6-3.8-1.3-8.2 1.8-9.9 7z"/><path class="st51" d="M159.8 92.9H41.5c-.9 0-1.6-.7-1.6-1.6V3.7c0-.9.7-1.6 1.6-1.6h118.3c.9 0 1.6.7 1.6 1.6v87.6c0 .9-.8 1.6-1.6 1.6z"/><path class="st49" d="M39.9 13V3.7c0-.9.7-1.6 1.6-1.6h118.3c.9 0 1.6.7 1.6 1.6V13H39.9z"/><g><ellipse class="st54" cx="98.6" cy="36.8" rx="2" ry="2"/><ellipse class="st55" cx="110" cy="41.3" rx="2.8" ry="2.8"/><ellipse class="st56" cx="113.9" cy="54.5" rx="3.6" ry="3.6"/><ellipse class="st57" cx="87.4" cy="61.5" rx="5.2" ry="5.2"/><ellipse class="st58" cx="103.8" cy="66.7" rx="4.4" ry="4.4"/><ellipse class="st6" cx="86.2" cy="45.7" rx="6" ry="6"/></g><g><path class="st7" d="M184.4 12.5c0 3.4-2.8 6.2-6.2 6.2s-6.2-2.8-6.2-6.2 5.4-8.6 6.2-8.6c.8.1 6.2 5.2 6.2 8.6z"/><path class="st8" d="M181.9 15.1c0 2-1.6 3.6-3.6 3.6s-3.6-1.6-3.6-3.6 3.2-5 3.6-5c.4.1 3.6 3 3.6 5z"/></g><g><path class="st7" d="M29.3 18.2c0 3.4-2.8 6.2-6.2 6.2S17 21.7 17 18.2s5.4-8.6 6.2-8.6c.7.1 6.1 5.2 6.1 8.6z"/><path class="st8" d="M26.8 20.9c0 2-1.6 3.6-3.6 3.6s-3.6-1.6-3.6-3.6 3.2-5 3.6-5 3.6 2.9 3.6 5z"/></g><g><path class="st7" d="M9.8 35.8C9.8 38.1 8 40 5.7 40s-4.2-1.9-4.2-4.2c0-2.3 3.7-5.8 4.2-5.8s4.1 3.5 4.1 5.8z"/><path class="st8" d="M8.1 37.6C8.1 38.9 7 40 5.7 40s-2.4-1.1-2.4-2.4 2.1-3.4 2.4-3.4c.2 0 2.4 2 2.4 3.4z"/></g><g><path class="st7" d="M197.7 27.2c0 2.6-2.1 4.6-4.6 4.6s-4.6-2.1-4.6-4.6 4-6.4 4.6-6.4 4.6 3.9 4.6 6.4z"/><path class="st8" d="M195.8 29.2c0 1.5-1.2 2.7-2.7 2.7s-2.7-1.2-2.7-2.7 2.4-3.7 2.7-3.7 2.7 2.2 2.7 3.7z"/></g><g><path class="st7" d="M182.5 47.2c0 3.9-3.1 7-7 7s-7-3.2-7-7 6.1-9.7 7-9.7c.9.1 7 5.8 7 9.7z"/><path class="st8" d="M179.6 50.2c0 2.3-1.8 4.1-4.1 4.1s-4.1-1.8-4.1-4.1 3.6-5.6 4.1-5.6c.5-.1 4.1 3.3 4.1 5.6z"/></g><g><path class="st7" d="M31.5 67.5c0 2.3-1.9 4.2-4.2 4.2s-4.2-1.9-4.2-4.2 3.7-5.8 4.2-5.8 4.2 3.5 4.2 5.8z"/><path class="st8" d="M29.7 69.2c0 1.4-1.1 2.4-2.4 2.4-1.3 0-2.4-1.1-2.4-2.4s2.1-3.4 2.4-3.4 2.4 2.1 2.4 3.4z"/></g><ellipse class="st17" cx="45.6" cy="7.8" rx="1.9" ry="1.9"/><ellipse class="st17" cx="51.4" cy="7.8" rx="1.9" ry="1.9"/><ellipse class="st17" cx="57" cy="7.8" rx="1.9" ry="1.9"/></svg>