<svg id="Layer_1" data-name="Layer 1" xmlns="http://www.w3.org/2000/svg" viewBox="0 0 202 134"><defs><style>.cls-1,.cls-2{fill:none;}.cls-1{stroke:#f59122;opacity:0.3;}.cls-1,.cls-2,.cls-3,.cls-4,.cls-5{stroke-miterlimit:10;}.cls-2,.cls-4,.cls-5{stroke:#6ac9d0;}.cls-2{stroke-linecap:round;}.cls-2,.cls-3,.cls-4,.cls-5{stroke-width:2.5px;}.cls-3{fill:#d3d4da;stroke:#083b54;}.cls-4{fill:#fff;}.cls-5{fill:#e0f1f2;}.cls-6,.cls-7{fill:#ef5034;}.cls-6{stroke:#ef5234;stroke-linejoin:round;stroke-width:0.78px;}</style></defs><title>ipfs-illustrations-revised</title><ellipse class="cls-1" cx="103.38" cy="53.45" rx="49.13" ry="28.04"/><ellipse class="cls-1" cx="103.38" cy="60.18" rx="72.61" ry="41.45"/><ellipse class="cls-1" cx="103.38" cy="65.54" rx="92.54" ry="52.82"/><line class="cls-2" x1="69.34" y1="62.72" x2="89.44" y2="49.17"/><line class="cls-2" x1="49.47" y1="38.6" x2="86.76" y2="36.83"/><line class="cls-2" x1="23.57" y1="72.42" x2="86.76" y2="43.25"/><line class="cls-2" x1="181.76" y1="47.47" x2="120.65" y2="36.83"/><line class="cls-2" x1="151.21" y1="102.63" x2="107.97" y2="47.47"/><line class="cls-2" x1="103.38" y1="49.17" x2="99.66" y2="103.91"/><line class="cls-2" x1="112.92" y1="44.22" x2="139.54" y2="60.18"/><line class="cls-2" x1="131.86" y1="19.8" x2="114.44" y2="33.42"/><circle class="cls-3" cx="103.38" cy="36.83" r="20.5"/><circle class="cls-4" cx="146.25" cy="66.88" r="8.87"/><circle class="cls-5" cx="135.34" cy="16.33" r="7.11"/><circle class="cls-5" cx="63.13" cy="69.05" r="8.87"/><circle class="cls-5" cx="13.6" cy="75.75" r="11.1"/><circle class="cls-4" cx="41.92" cy="38.6" r="8.87"/><circle class="cls-5" cx="190.63" cy="47.47" r="8.87"/><circle class="cls-5" cx="155.12" cy="108.49" r="9.87"/><circle class="cls-5" cx="98.4" cy="117.14" r="14.51"/><polygon class="cls-6" points="79.77 12.53 85.65 24.92 110.92 17.73 109.2 4.16 105.01 12.38 99.01 7.06 96.17 14.89 89.99 9.62 87.52 17.36 79.77 12.53"/><circle class="cls-7" cx="79.77" cy="12.53" r="1.81" transform="translate(-0.38 22.31) rotate(-15.88)"/><circle class="cls-7" cx="89.78" cy="8.86" r="1.81" transform="translate(1 24.91) rotate(-15.88)"/><circle class="cls-7" cx="98.74" cy="6.31" r="1.81" transform="translate(2.04 27.27) rotate(-15.88)"/><circle class="cls-7" cx="109.2" cy="4.16" r="1.81" transform="translate(3.03 30.05) rotate(-15.88)"/></svg>