<svg id="Layer_1" data-name="Layer 1" xmlns="http://www.w3.org/2000/svg" viewBox="0 0 225 164"><defs><style>.cls-1,.cls-2{fill:#fff;stroke-linejoin:round;stroke-width:4.24px;}.cls-1{stroke:#c3e9ec;}.cls-2{stroke:#6ac9d0;}.cls-3{fill:#083b54;}.cls-4{fill:#6ac9d0;}.cls-5{fill:#ffe5ca;}.cls-5,.cls-6{stroke:#f59122;stroke-miterlimit:10;stroke-width:2px;}.cls-6{fill:none;opacity:0.4;}</style></defs><title>ipfs-illustrations-how</title><rect class="cls-1" x="7.5" y="25.99" width="197.6" height="112.94" transform="translate(-5.05 6.96) rotate(-3.66)"/><rect class="cls-1" x="13.07" y="26.03" width="197.61" height="112.94" transform="translate(-17.15 30.78) rotate(-14.56)"/><rect class="cls-2" x="16.04" y="25.5" width="197.6" height="112.94" transform="translate(-12.67 21.56) rotate(-10.17)"/><path class="cls-3" d="M37.16,76.73h0l1.37-7.13,1.89-.34L42,77.94l-1.21.22-1.3-7.26h0l-1.58,7.77-0.77.14-4.17-6.74h0l1.3,7.26L33,79.55l-1.56-8.68,1.89-.34Z"/><path class="cls-3" d="M46.58,72.64a1.53,1.53,0,0,0-.65-0.42,1.6,1.6,0,0,0-.83-0.06,1.88,1.88,0,0,0-.38.11,1.2,1.2,0,0,0-.33.2,0.76,0.76,0,0,0-.2.28,0.65,0.65,0,0,0,0,.37,0.59,0.59,0,0,0,.43.49,4.12,4.12,0,0,0,1,.15,6,6,0,0,1,.81.09,2.44,2.44,0,0,1,.68.23,1.48,1.48,0,0,1,.5.41,1.44,1.44,0,0,1,.27.64,1.81,1.81,0,0,1,0,.91,1.73,1.73,0,0,1-.42.68,2.17,2.17,0,0,1-.68.46,3.73,3.73,0,0,1-.84.25,3.46,3.46,0,0,1-1.34,0,2.57,2.57,0,0,1-1.19-.6l0.7-.85a1.92,1.92,0,0,0,.75.46,1.83,1.83,0,0,0,.94.07,2.07,2.07,0,0,0,.42-0.12,1.24,1.24,0,0,0,.34-0.21,0.78,0.78,0,0,0,.22-0.31,0.77,0.77,0,0,0,0-.42,0.65,0.65,0,0,0-.49-0.53,5.32,5.32,0,0,0-1.2-.17c-0.21,0-.41,0-0.63-0.07a2,2,0,0,1-.6-0.19,1.45,1.45,0,0,1-.48-0.39,1.41,1.41,0,0,1-.27-0.65,1.61,1.61,0,0,1,0-.84,1.67,1.67,0,0,1,.4-0.64,2.2,2.2,0,0,1,.64-0.45,3.18,3.18,0,0,1,2-.22,2,2,0,0,1,1,.55Z"/><path class="cls-3" d="M51.15,75.54a0.81,0.81,0,0,1-.13.61,0.79,0.79,0,0,1-.54.35,0.81,0.81,0,0,1-.63-0.14,0.78,0.78,0,0,1-.34-0.51,0.82,0.82,0,0,1,.68-1,0.81,0.81,0,0,1,.63.13A0.78,0.78,0,0,1,51.15,75.54Z"/><path class="cls-3" d="M57.63,75.14l-1.21.22-1.56-8.68,5.42-1,0.19,1.07-4.2.75,0.48,2.7,3.93-.71,0.19,1-3.93.71Z"/><path class="cls-3" d="M63.3,66a0.7,0.7,0,0,1-.13.57,0.78,0.78,0,0,1-.5.31,0.74,0.74,0,0,1-.57-0.12,0.71,0.71,0,0,1-.31-0.48,0.73,0.73,0,0,1,.12-0.57,0.75,0.75,0,0,1,.5-0.31,0.77,0.77,0,0,1,.58.12A0.72,0.72,0,0,1,63.3,66Zm1.23,7.94-1.15.21-1-5.81,1.15-.21Z"/><path class="cls-3" d="M67.75,73.32l-1.15.21-1.66-9.27,1.15-.21Z"/><path class="cls-3" d="M74.73,69l0,0.2a1.81,1.81,0,0,1,0,.2l-4.62.83a1.75,1.75,0,0,0,.29.66,1.84,1.84,0,0,0,.51.49,1.93,1.93,0,0,0,.66.26,2.11,2.11,0,0,0,1.71-.43,2.11,2.11,0,0,0,.56-0.75L74.82,71a3,3,0,0,1-.93,1.11,3.37,3.37,0,0,1-1.35.54,3.41,3.41,0,0,1-1.27,0,2.89,2.89,0,0,1-1.08-.45,2.94,2.94,0,0,1-.81-0.85,3.29,3.29,0,0,1-.46-1.21,3.38,3.38,0,0,1,0-1.29,2.89,2.89,0,0,1,.46-1.09,3,3,0,0,1,.84-0.8,3.33,3.33,0,0,1,2.35-.44,2.44,2.44,0,0,1,1,.44,2.76,2.76,0,0,1,.73.85A3.84,3.84,0,0,1,74.73,69Zm-1.26-.26a2.26,2.26,0,0,0-.23-0.62,1.51,1.51,0,0,0-.4-0.47,1.47,1.47,0,0,0-.57-0.26,1.81,1.81,0,0,0-.73,0,1.89,1.89,0,0,0-.67.25,1.82,1.82,0,0,0-.5.45,1.86,1.86,0,0,0-.3.59,1.69,1.69,0,0,0-.06.67Z"/><path class="cls-3" d="M84.35,68.27h0l1.37-7.13,1.89-.34,1.56,8.68L88,69.7l-1.3-7.26h0l-1.58,7.77-0.77.14-4.17-6.74h0l1.3,7.26-1.18.21-1.56-8.68,1.89-.34Z"/><path class="cls-3" d="M94.64,64A1.43,1.43,0,0,0,94,63.65a1.72,1.72,0,0,0-.82,0,1.83,1.83,0,0,0-.77.32,1.85,1.85,0,0,0-.51.57,2,2,0,0,0-.25.74,2.58,2.58,0,0,0,.29,1.59,2,2,0,0,0,.49.6,1.83,1.83,0,0,0,.68.35,2,2,0,0,0,1.61-.29,1.66,1.66,0,0,0,.51-0.57l0.9,0.56a2.53,2.53,0,0,1-.8.83,3.16,3.16,0,0,1-1.21.46,3.48,3.48,0,0,1-1.28,0,3,3,0,0,1-1.1-.44,2.91,2.91,0,0,1-.83-0.84,3.25,3.25,0,0,1-.47-1.22,3.29,3.29,0,0,1,0-1.29,2.9,2.9,0,0,1,.48-1.09,3,3,0,0,1,.87-0.8A3.43,3.43,0,0,1,93,62.63a3.28,3.28,0,0,1,1.26,0,2.27,2.27,0,0,1,1.09.54Z"/><path class="cls-3" d="M98.81,67.75L97.6,68,96,59.29l5.42-1,0.19,1.07-4.2.75,0.48,2.7,3.93-.71,0.19,1-3.93.71Z"/><path class="cls-3" d="M104.48,58.57a0.7,0.7,0,0,1-.13.57,0.78,0.78,0,0,1-.5.31,0.74,0.74,0,0,1-.57-0.12,0.71,0.71,0,0,1-.31-0.48,0.73,0.73,0,0,1,.12-0.57,0.75,0.75,0,0,1,.5-0.31,0.77,0.77,0,0,1,.58.12A0.72,0.72,0,0,1,104.48,58.57Zm1.23,7.94-1.15.21-1-5.81,1.15-.21Z"/><path class="cls-3" d="M108.93,65.94l-1.15.21-1.66-9.27,1.15-.21Z"/><path class="cls-3" d="M115.91,61.64l0,0.2a1.81,1.81,0,0,1,0,.2l-4.62.83a1.75,1.75,0,0,0,.29.66,1.83,1.83,0,0,0,.51.49,1.93,1.93,0,0,0,.66.26,2.11,2.11,0,0,0,1.71-.43,2.1,2.1,0,0,0,.56-0.75l0.93,0.5a3,3,0,0,1-.93,1.11,3.58,3.58,0,0,1-2.62.54,2.82,2.82,0,0,1-1.89-1.29,3.28,3.28,0,0,1-.46-1.21,3.39,3.39,0,0,1,0-1.28,2.9,2.9,0,0,1,.46-1.09,3,3,0,0,1,.84-0.8,3.34,3.34,0,0,1,2.35-.44,2.43,2.43,0,0,1,1,.44,2.74,2.74,0,0,1,.73.85A3.83,3.83,0,0,1,115.91,61.64Zm-1.26-.26a2.24,2.24,0,0,0-.23-0.62,1.51,1.51,0,0,0-.4-0.47,1.46,1.46,0,0,0-.56-0.26,1.81,1.81,0,0,0-.73,0,1.89,1.89,0,0,0-.67.25,1.81,1.81,0,0,0-.5.45,1.86,1.86,0,0,0-.3.59,1.68,1.68,0,0,0-.06.67Z"/><path class="cls-3" d="M117.15,59.14q-0.08-.36-0.15-0.64l1.09-.2c0,0.14.08,0.31,0.13,0.5s0.07,0.35.1,0.47h0a2,2,0,0,1,.57-1,1.91,1.91,0,0,1,1-.5,1.77,1.77,0,0,1,.46,0l0.14,1.08a2.2,2.2,0,0,0-.54,0,1.62,1.62,0,0,0-.69.28,1.5,1.5,0,0,0-.44.5,1.76,1.76,0,0,0-.19.65,2.53,2.53,0,0,0,0,.72l0.55,3.05-1.15.21-0.82-4.56C117.25,59.58,117.2,59.38,117.15,59.14Z"/><path class="cls-3" d="M125.15,58l-1.54.28,0.54,3a1.16,1.16,0,0,0,.33.72,0.8,0.8,0,0,0,.67.11,2,2,0,0,0,.34-0.09,1.41,1.41,0,0,0,.31-0.16L126,62.81a2.88,2.88,0,0,1-.44.2,3.13,3.13,0,0,1-.51.14,1.69,1.69,0,0,1-1.34-.23,1.93,1.93,0,0,1-.68-1.28l-0.57-3.15-1.12.2-0.17-.94,1.12-.2L122,55.87l1.14-.2,0.3,1.67,1.54-.28Z"/><path class="cls-3" d="M132.62,58.68a3.22,3.22,0,0,1,0,1.28,3,3,0,0,1-1.37,1.91,3.54,3.54,0,0,1-2.48.44,2.93,2.93,0,0,1-1.11-.46,3,3,0,0,1-.83-0.86,3.17,3.17,0,0,1-.46-1.2,3.14,3.14,0,0,1,0-1.28,3,3,0,0,1,.48-1.08,3,3,0,0,1,.88-0.81,3.55,3.55,0,0,1,2.48-.44,3.08,3.08,0,0,1,1.11.45,3,3,0,0,1,.84.84A3.16,3.16,0,0,1,132.62,58.68Zm-1.2.22a2.49,2.49,0,0,0-.27-0.77,2.06,2.06,0,0,0-.49-0.6,1.84,1.84,0,0,0-.69-0.35,2.14,2.14,0,0,0-1.66.3,1.83,1.83,0,0,0-.53.57,2,2,0,0,0-.26.73,2.56,2.56,0,0,0,.28,1.59,2.1,2.1,0,0,0,.5.61,1.79,1.79,0,0,0,.69.36,2.13,2.13,0,0,0,1.66-.3,1.79,1.79,0,0,0,.53-0.57,2.13,2.13,0,0,0,.25-0.74A2.5,2.5,0,0,0,131.42,58.9Z"/><path class="cls-3" d="M134.8,55.3c0,0.14.08,0.31,0.12,0.49s0.07,0.33.09,0.46h0a1.72,1.72,0,0,1,.22-0.49,2.21,2.21,0,0,1,1.47-1,2.3,2.3,0,0,1,1,0,2,2,0,0,1,.77.39,2.08,2.08,0,0,1,.53.68,3.2,3.2,0,0,1,.29.9L140,60.37l-1.15.21-0.58-3.22a4,4,0,0,0-.18-0.66,1.67,1.67,0,0,0-.3-0.53,1.11,1.11,0,0,0-.47-0.32,1.34,1.34,0,0,0-.69,0,1.41,1.41,0,0,0-1,.72A2.13,2.13,0,0,0,135.4,58L136,61.09l-1.15.21L134,56.74c0-.15-0.07-0.36-0.12-0.6s-0.1-.46-0.15-0.64Z"/><path class="cls-3" d="M39.43,101.89l-0.86.15-0.94-5.27-1,1.21L36,97.48l1.53-1.78,0.77-.14Z"/><path class="cls-3" d="M42.18,97.5v0a1.14,1.14,0,0,1,.34-0.19,2.29,2.29,0,0,1,.42-0.12,2,2,0,0,1,.8,0,2,2,0,0,1,.7.3,1.91,1.91,0,0,1,.53.55,2.09,2.09,0,0,1,.29.77,2.23,2.23,0,0,1,0,.89,2,2,0,0,1-.34.75,2.12,2.12,0,0,1-.62.55,2.56,2.56,0,0,1-1.74.31A2.1,2.1,0,0,1,41.8,101a2,2,0,0,1-.57-0.58,2.1,2.1,0,0,1-.31-0.8,2.53,2.53,0,0,1,0-1,5.45,5.45,0,0,1,.29-0.94l1.18-2.9,1-.18Zm-0.39,2a1.47,1.47,0,0,0,.19.5,1.24,1.24,0,0,0,.34.38,1.33,1.33,0,0,0,1,.22,1.4,1.4,0,0,0,.51-0.19,1.2,1.2,0,0,0,.36-0.36,1.28,1.28,0,0,0,.19-0.48,1.5,1.5,0,0,0,0-.56,1.43,1.43,0,0,0-.19-0.51,1.3,1.3,0,0,0-.33-0.37,1.13,1.13,0,0,0-.46-0.2,1.43,1.43,0,0,0-.55,0,1.48,1.48,0,0,0-.52.2,1.21,1.21,0,0,0-.37.35,1.25,1.25,0,0,0-.19.47A1.49,1.49,0,0,0,41.79,99.49Z"/><path class="cls-3" d="M49.89,97.78l0.91-.16,0.13,0.74L50,98.52l0.25,1.42-0.84.15-0.25-1.42-2.91.52-0.14-.79,1.95-4.6,1.06-.19Zm-1.41-3h0L47,98.29l2-.36Z"/><path class="cls-3" d="M53,95.7l0.28,0a2.83,2.83,0,0,0,.51-0.14,1.38,1.38,0,0,0,.42-0.25,1,1,0,0,0,.26-0.38,1,1,0,0,0,0-.53,1,1,0,0,0-.17-0.42,1,1,0,0,0-.3-0.28,1.21,1.21,0,0,0-.39-0.15,1.19,1.19,0,0,0-.44,0,1.14,1.14,0,0,0-.65.33,1.27,1.27,0,0,0-.32.65l-0.84-.14a1.9,1.9,0,0,1,.58-1,2.19,2.19,0,0,1,1.12-.54,2.52,2.52,0,0,1,.76,0,1.92,1.92,0,0,1,.68.22,1.57,1.57,0,0,1,.52.46,1.72,1.72,0,0,1,.29.71,1.47,1.47,0,0,1,0,.52,1.53,1.53,0,0,1-.16.46,1.47,1.47,0,0,1-.29.39,1.5,1.5,0,0,1-.41.28v0a1.73,1.73,0,0,1,.55.09,1.53,1.53,0,0,1,.47.26,1.58,1.58,0,0,1,.55,1A1.89,1.89,0,0,1,56,98a1.81,1.81,0,0,1-.36.69,2.07,2.07,0,0,1-.61.49,2.7,2.7,0,0,1-2.14.16,2,2,0,0,1-1-.9L52.6,98a1.41,1.41,0,0,0,.61.58,1.37,1.37,0,0,0,.89.11,1.45,1.45,0,0,0,.46-0.16,1.22,1.22,0,0,0,.37-0.3,1.16,1.16,0,0,0,.22-0.43,1.23,1.23,0,0,0,0-.55,1,1,0,0,0-.24-0.53,1.15,1.15,0,0,0-.43-0.29,1.6,1.6,0,0,0-.55-0.1,2.9,2.9,0,0,0-.57,0l-0.27,0Z"/><path class="cls-3" d="M58.05,94.9h0l2.32-3.29,1.22-.22-2.55,3.44,3.87,2.84-1.27.23-3.55-2.74h0l0.59,3.27-0.88.16-1.13-6.32,0.88-.16Z"/><path class="cls-3" d="M62.7,91.19l2.18-.39a3.26,3.26,0,0,1,.73,0,1.91,1.91,0,0,1,.69.15,1.48,1.48,0,0,1,.54.41,1.54,1.54,0,0,1,.31.73A1.34,1.34,0,0,1,67,93a1.57,1.57,0,0,1-.71.63v0a1.84,1.84,0,0,1,.59.06,1.47,1.47,0,0,1,.5.24,1.39,1.39,0,0,1,.37.41,1.7,1.7,0,0,1,.21.58,1.59,1.59,0,0,1-.45,1.48,2.41,2.41,0,0,1-.69.47,3.77,3.77,0,0,1-.9.28l-2.08.37Zm1.36,2.51,1.15-.21a2,2,0,0,0,.47-0.14A1.22,1.22,0,0,0,66,93.1a0.88,0.88,0,0,0,.21-0.35,0.94,0.94,0,0,0,0-.46,0.79,0.79,0,0,0-.51-0.66,2,2,0,0,0-1,0l-1,.18Zm0.52,2.9,1.11-.2a3.33,3.33,0,0,0,.55-0.15A1.64,1.64,0,0,0,66.72,96a1,1,0,0,0,.31-0.4,1,1,0,0,0,0-.56,0.91,0.91,0,0,0-.53-0.74,2.07,2.07,0,0,0-1.15-.05l-1.19.21Z"/><path class="cls-4" d="M40.27,117.69l-0.77.14-1-5.51,0.77-.14Z"/><path class="cls-4" d="M40.76,111.91l1.68-.3a3.51,3.51,0,0,1,.82-0.06,1.79,1.79,0,0,1,.67.16,1.28,1.28,0,0,1,.48.4,1.59,1.59,0,0,1,.26.67,1.54,1.54,0,0,1,0,.74,1.34,1.34,0,0,1-.33.56,1.91,1.91,0,0,1-.59.39,3.47,3.47,0,0,1-.78.23l-0.87.16,0.43,2.42-0.77.14Zm1.21,2.3,0.82-.15a2.49,2.49,0,0,0,.51-0.14,1.3,1.3,0,0,0,.38-0.23,0.74,0.74,0,0,0,.22-0.32,0.88,0.88,0,0,0,0-.44,0.82,0.82,0,0,0-.17-0.4,0.79,0.79,0,0,0-.31-0.22,1.12,1.12,0,0,0-.43-0.08,3,3,0,0,0-.51,0l-0.83.15Z"/><path class="cls-4" d="M47.18,116.45l-0.77.14-1-5.51,3.44-.62L49,111.14l-2.67.48,0.31,1.71,2.5-.45,0.12,0.66-2.5.45Z"/><path class="cls-4" d="M52.81,110.8a1.25,1.25,0,0,0-.51-0.29,1.38,1.38,0,0,0-.66,0,1.53,1.53,0,0,0-.37.12,1,1,0,0,0-.32.23,0.91,0.91,0,0,0-.2.33,0.8,0.8,0,0,0,0,.42,0.74,0.74,0,0,0,.16.36,0.82,0.82,0,0,0,.29.21,1.59,1.59,0,0,0,.39.11L52,112.33l0.6,0.09a2.08,2.08,0,0,1,.57.2,1.34,1.34,0,0,1,.73,1,1.65,1.65,0,0,1,0,.77,1.54,1.54,0,0,1-.33.6,1.85,1.85,0,0,1-.56.42,2.54,2.54,0,0,1-.69.23,2.64,2.64,0,0,1-1,0,2,2,0,0,1-.91-0.45l0.51-.61a1.49,1.49,0,0,0,.6.37,1.47,1.47,0,0,0,.74.05,1.42,1.42,0,0,0,.38-0.12,1.07,1.07,0,0,0,.32-0.23,1,1,0,0,0,.21-0.34,0.86,0.86,0,0,0,0-.44,0.78,0.78,0,0,0-.18-0.4,1,1,0,0,0-.34-0.23,2,2,0,0,0-.45-0.12L51.66,113a4.3,4.3,0,0,1-.56-0.1,1.84,1.84,0,0,1-.51-0.21,1.36,1.36,0,0,1-.4-0.37,1.47,1.47,0,0,1-.24-0.62,1.43,1.43,0,0,1,0-.74,1.55,1.55,0,0,1,.35-0.57A1.85,1.85,0,0,1,50.9,110a2.72,2.72,0,0,1,.66-0.21,2.41,2.41,0,0,1,.93,0,1.85,1.85,0,0,1,.76.34Z"/><path class="cls-4" d="M56.41,109.11l0.77-.14,0.41,2.3,2.78-.5L60,108.47l0.78-.14,1,5.51L61,114l-0.45-2.52-2.78.5,0.45,2.52-0.77.14Z"/><path class="cls-4" d="M63.45,113.53l-0.86.15,1.4-5.94,0.7-.13,3.35,5.09-0.87.16-0.8-1.25-2.61.47Zm0.46-2.18L66,111l-1.49-2.4Z"/><path class="cls-4" d="M70.93,107.55a1.26,1.26,0,0,0-.51-0.29,1.39,1.39,0,0,0-.66,0,1.56,1.56,0,0,0-.37.12,1,1,0,0,0-.32.23,0.91,0.91,0,0,0-.2.33,0.8,0.8,0,0,0,0,.42,0.74,0.74,0,0,0,.16.36,0.82,0.82,0,0,0,.29.21,1.59,1.59,0,0,0,.39.11l0.47,0.07,0.6,0.09a2.08,2.08,0,0,1,.57.2,1.34,1.34,0,0,1,.73,1,1.64,1.64,0,0,1,0,.77,1.54,1.54,0,0,1-.33.6,1.83,1.83,0,0,1-.56.42,2.55,2.55,0,0,1-.69.23,2.64,2.64,0,0,1-1,0,2,2,0,0,1-.91-0.45l0.51-.61a1.52,1.52,0,0,0,1.34.43,1.43,1.43,0,0,0,.38-0.12,1.07,1.07,0,0,0,.32-0.23,1,1,0,0,0,.21-0.34,0.84,0.84,0,0,0,0-.44,0.77,0.77,0,0,0-.18-0.4,0.93,0.93,0,0,0-.34-0.23,2,2,0,0,0-.45-0.12l-0.53-.08a4.39,4.39,0,0,1-.56-0.1,1.85,1.85,0,0,1-.51-0.21,1.36,1.36,0,0,1-.4-0.37,1.47,1.47,0,0,1-.24-0.62,1.43,1.43,0,0,1,0-.74,1.55,1.55,0,0,1,.35-0.57,1.87,1.87,0,0,1,.56-0.39,2.75,2.75,0,0,1,.66-0.21,2.41,2.41,0,0,1,.93,0,1.85,1.85,0,0,1,.76.34Z"/><path class="cls-4" d="M72.54,106.21l0.77-.14,0.41,2.3,2.78-.5-0.41-2.3,0.78-.14,1,5.51-0.78.14-0.45-2.52-2.78.5,0.45,2.52-0.77.14Z"/><path class="cls-4" d="M79.69,107.28a0.52,0.52,0,0,1-.43.61,0.52,0.52,0,0,1-.4-0.08,0.49,0.49,0,0,1-.22-0.33,0.51,0.51,0,0,1,.08-0.39,0.5,0.5,0,0,1,.35-0.22,0.51,0.51,0,0,1,.4.08A0.5,0.5,0,0,1,79.69,107.28Zm0.5,2.76a0.52,0.52,0,0,1-.08.38,0.5,0.5,0,0,1-.35.22,0.51,0.51,0,0,1-.4-0.09,0.5,0.5,0,0,1-.22-0.33,0.52,0.52,0,0,1,.43-0.61,0.51,0.51,0,0,1,.4.08A0.5,0.5,0,0,1,80.18,110Z"/><path class="cls-3" d="M46.61,126.65l-3,.54a3,3,0,0,1-1.11,0,2.54,2.54,0,0,1-.94-0.38,2.35,2.35,0,0,1-.7-0.72,2.93,2.93,0,0,1-.39-1,2.74,2.74,0,0,1,0-1.1,2.51,2.51,0,0,1,1.15-1.62,2.88,2.88,0,0,1,1-.39,2.84,2.84,0,0,1,1.09,0,2.58,2.58,0,0,1,.94.39,2.51,2.51,0,0,1,.7.73,2.78,2.78,0,0,1,.39,1,2.45,2.45,0,0,1-.07,1.25,2.26,2.26,0,0,1-.62.95h0L46.5,126Zm-5.36-1.75a2.31,2.31,0,0,0,.27.76,1.93,1.93,0,0,0,.49.56,1.82,1.82,0,0,0,.67.32,2,2,0,0,0,1.55-.28,1.79,1.79,0,0,0,.52-0.53A1.93,1.93,0,0,0,45,125a2.25,2.25,0,0,0,0-.81,2.32,2.32,0,0,0-.27-0.75,1.9,1.9,0,0,0-.49-0.56,1.82,1.82,0,0,0-.67-0.32,1.91,1.91,0,0,0-2.08.82,1.93,1.93,0,0,0-.27.7A2.25,2.25,0,0,0,41.24,124.9Z"/><path class="cls-3" d="M48,123a1.2,1.2,0,0,1,.64-0.31,1.25,1.25,0,0,1,.65,0,1.08,1.08,0,0,1,.53.45,1.25,1.25,0,0,1,.39-0.6,1.37,1.37,0,0,1,.65-0.3,1.33,1.33,0,0,1,.59,0,1.18,1.18,0,0,1,.45.23,1.21,1.21,0,0,1,.31.4,1.85,1.85,0,0,1,.17.53l0.38,2.12-0.68.12-0.34-1.9a2.1,2.1,0,0,0-.11-0.39,1,1,0,0,0-.18-0.31,0.67,0.67,0,0,0-.27-0.19,0.71,0.71,0,0,0-.38,0,0.78,0.78,0,0,0-.38.17,0.83,0.83,0,0,0-.23.3,1.09,1.09,0,0,0-.09.38,1.77,1.77,0,0,0,0,.41L50.47,126l-0.68.12-0.37-2a1.82,1.82,0,0,0-.1-0.36,0.74,0.74,0,0,0-.17-0.26,0.61,0.61,0,0,0-.26-0.15,0.83,0.83,0,0,0-.92.41,1.28,1.28,0,0,0-.1.86l0.33,1.82-0.68.12L47,123.8,47,123.44c0-.14-0.06-0.27-0.09-0.38l0.64-.12q0,0.13.07,0.29c0,0.11,0,.2.06,0.27h0A1.17,1.17,0,0,1,48,123Z"/><path class="cls-3" d="M55.54,125l-0.72.13L54.42,123,52,120.4l0.88-.16,1.83,2.06,1-2.57,0.83-.15-1.39,3.25Z"/><path class="cls-3" d="M57.58,121.14l1.24,2.48h0l0.35-2.76,0.71-.13,1.3,2.47h0l0.3-2.75,0.72-.13-0.52,3.63-0.71.13-1.31-2.42h0l-0.38,2.72-0.71.13-1.76-3.22Z"/><path class="cls-3" d="M63.81,123.56L63,123.7l1.3-5.51,0.65-.12,3.11,4.72-0.81.14-0.75-1.16-2.43.44Zm0.43-2,1.91-.34L64.77,119Z"/><path class="cls-3" d="M68,117.53l1.56-.28a3.24,3.24,0,0,1,.77-0.05,1.66,1.66,0,0,1,.62.15,1.18,1.18,0,0,1,.45.37,1.46,1.46,0,0,1,.25.62,1.44,1.44,0,0,1,0,.68,1.22,1.22,0,0,1-.31.52,1.77,1.77,0,0,1-.55.36,3.17,3.17,0,0,1-.73.22l-0.81.15,0.4,2.25-0.72.13Zm1.12,2.13,0.76-.14a2.33,2.33,0,0,0,.47-0.13,1.22,1.22,0,0,0,.35-0.21,0.7,0.7,0,0,0,.2-0.3,0.82,0.82,0,0,0,0-.41,0.77,0.77,0,0,0-.16-0.37,0.74,0.74,0,0,0-.29-0.21,1,1,0,0,0-.4-0.07,2.65,2.65,0,0,0-.48,0l-0.77.14Z"/><path class="cls-3" d="M72.67,120.79a0.86,0.86,0,0,0,.33.41,0.7,0.7,0,0,0,.52.09,0.75,0.75,0,0,0,.36-0.15,0.66,0.66,0,0,0,.19-0.28,1.11,1.11,0,0,0,.06-0.37,2.47,2.47,0,0,0,0-.43l-0.63-3.52,0.71-.13L74.82,120a2.93,2.93,0,0,1,0,.57,1.64,1.64,0,0,1-.12.59,1.28,1.28,0,0,1-.37.5,1.7,1.7,0,0,1-1.71.17A1.42,1.42,0,0,1,72,121.1Z"/><path class="cls-3" d="M78.26,118l-1.54,2.65,2-.36,0.1,0.57-2.87.51-0.1-.56,1.52-2.66-1.84.33-0.1-.56,2.69-.48Z"/><path class="cls-3" d="M81.59,120.37l-0.74.13-2-3.17,0.75-.13,1.49,2.51h0l0.53-2.88,0.72-.13Z"/><path class="cls-3" d="M85.87,115l-2.11.38,0.2,1.34a1.62,1.62,0,0,1,.31-0.13l0.33-.08a2.07,2.07,0,0,1,.7,0,1.59,1.59,0,0,1,.6.23,1.5,1.5,0,0,1,.45.45,1.69,1.69,0,0,1,.25.65,1.89,1.89,0,0,1,0,.76,1.64,1.64,0,0,1-.28.62,1.69,1.69,0,0,1-.5.46,2,2,0,0,1-.69.25,1.79,1.79,0,0,1-1.06-.1,1.76,1.76,0,0,1-.75-0.64l0.59-.37a1.1,1.1,0,0,0,.48.43,1,1,0,0,0,.64.08,1.11,1.11,0,0,0,.4-0.16,1,1,0,0,0,.3-0.28,1.05,1.05,0,0,0,.16-0.39,1.19,1.19,0,0,0,0-.46,1.23,1.23,0,0,0-.19-0.48,1,1,0,0,0-.33-0.3,1.09,1.09,0,0,0-.42-0.13,1.62,1.62,0,0,0-.47,0,2.39,2.39,0,0,0-.58.19,2.77,2.77,0,0,0-.51.3L83,114.84l2.76-.49Z"/><path class="cls-3" d="M92.33,117.63a2.31,2.31,0,0,1-.67.81,2.49,2.49,0,0,1-1.12.47,2.92,2.92,0,0,1-1.12,0,2.56,2.56,0,0,1-1-.4,2.61,2.61,0,0,1-.71-0.75,3.07,3.07,0,0,1-.39-2.18,2.52,2.52,0,0,1,.42-0.95,2.62,2.62,0,0,1,.77-0.7,3,3,0,0,1,1-.39,2.94,2.94,0,0,1,.54,0,2.76,2.76,0,0,1,.54.06,2.17,2.17,0,0,1,.49.17,1.64,1.64,0,0,1,.41.28l-0.49.53a1.44,1.44,0,0,0-.61-0.34,1.68,1.68,0,0,0-.77,0,2,2,0,0,0-.78.31,1.84,1.84,0,0,0-.53.55,2,2,0,0,0-.27.72,2.3,2.3,0,0,0,0,.82,2.44,2.44,0,0,0,.28.79,2,2,0,0,0,.5.58,1.8,1.8,0,0,0,.69.33,2,2,0,0,0,.83,0,1.79,1.79,0,0,0,.76-0.31,1.56,1.56,0,0,0,.5-0.61Z"/><path class="cls-3" d="M96.08,113.14l-2.2,4.37,2.93-.53,0.11,0.64-3.8.68L93,117.67l2.19-4.38-2.82.51-0.11-.63,3.7-.66Z"/><path class="cls-3" d="M99.43,114.53a0.9,0.9,0,0,0-.38-0.25,1,1,0,0,0-.49,0l-0.23.07a0.68,0.68,0,0,0-.19.12,0.45,0.45,0,0,0-.12.16,0.38,0.38,0,0,0,0,.22,0.35,0.35,0,0,0,.25.29,2.45,2.45,0,0,0,.62.09,3.77,3.77,0,0,1,.48.06,1.44,1.44,0,0,1,.4.13,0.86,0.86,0,0,1,.29.24,0.83,0.83,0,0,1,.16.37,1.07,1.07,0,0,1,0,.53,1,1,0,0,1-.24.4,1.28,1.28,0,0,1-.4.27,2.18,2.18,0,0,1-.49.15,2.05,2.05,0,0,1-.79,0,1.52,1.52,0,0,1-.7-0.35l0.41-.5a1.11,1.11,0,0,0,.44.27,1.08,1.08,0,0,0,.56,0l0.25-.07a0.72,0.72,0,0,0,.2-0.12,0.43,0.43,0,0,0,.14-0.43,0.38,0.38,0,0,0-.29-0.31,3.07,3.07,0,0,0-.71-0.1l-0.37,0a1.18,1.18,0,0,1-.35-0.11,0.87,0.87,0,0,1-.28-0.23,0.83,0.83,0,0,1-.16-0.39,1,1,0,0,1,0-.49,1,1,0,0,1,.23-0.38,1.31,1.31,0,0,1,.38-0.26,1.86,1.86,0,0,1,1.2-.13,1.2,1.2,0,0,1,.61.32Z"/><path class="cls-3" d="M101.4,113.29c0,0.08,0,.18.07,0.29s0,0.2.06,0.27h0a1,1,0,0,1,.13-0.29,1.31,1.31,0,0,1,.22-0.26,1.27,1.27,0,0,1,.29-0.2,1.3,1.3,0,0,1,.35-0.12,1.35,1.35,0,0,1,.59,0,1.17,1.17,0,0,1,.45.23,1.21,1.21,0,0,1,.31.4,1.88,1.88,0,0,1,.17.53l0.38,2.12-0.68.12-0.34-1.9a2.38,2.38,0,0,0-.1-0.39,1,1,0,0,0-.18-0.31,0.67,0.67,0,0,0-.28-0.19,0.8,0.8,0,0,0-.41,0,0.83,0.83,0,0,0-.6.43,1.26,1.26,0,0,0-.11.87l0.33,1.82-0.68.12-0.48-2.69-0.07-.35c0-.14-0.06-0.27-0.09-0.38Z"/><path class="cls-3" d="M106,116l-0.79.14,1.3-5.51,0.65-.12,3.11,4.72-0.81.14-0.75-1.16-2.43.44Zm0.43-2,1.91-.34L107,111.39Z"/><path class="cls-3" d="M111.55,111.85h0a0.89,0.89,0,0,1,.27-0.15,1.76,1.76,0,0,1,.34-0.1,1.67,1.67,0,0,1,.65,0,1.58,1.58,0,0,1,.57.24,1.53,1.53,0,0,1,.43.45,1.68,1.68,0,0,1,.24.62,1.78,1.78,0,0,1,0,.72,1.59,1.59,0,0,1-.28.61,1.73,1.73,0,0,1-.5.45,2.06,2.06,0,0,1-1.4.25,1.72,1.72,0,0,1-.62-0.25,1.65,1.65,0,0,1-.47-0.47,1.71,1.71,0,0,1-.25-0.65,2.06,2.06,0,0,1,0-.78,4.34,4.34,0,0,1,.24-0.76l1-2.35,0.83-.15Zm-0.31,1.61a1.2,1.2,0,0,0,.15.41,1,1,0,0,0,.28.3,1.08,1.08,0,0,0,.38.17,1.06,1.06,0,0,0,.45,0,1.13,1.13,0,0,0,.42-0.16,1,1,0,0,0,.29-0.29,1.07,1.07,0,0,0,.15-0.39,1.23,1.23,0,0,0,0-.45,1.17,1.17,0,0,0-.15-0.41,1.07,1.07,0,0,0-.27-0.3,0.93,0.93,0,0,0-.37-0.17,1.16,1.16,0,0,0-.45,0,1.18,1.18,0,0,0-.42.16,1,1,0,0,0-.3.28,1,1,0,0,0-.16.38A1.21,1.21,0,0,0,111.24,113.46Z"/><path class="cls-3" d="M118.51,113.75l-3.34.6-0.12-.67,1.67-2.39a3.26,3.26,0,0,0,.31-0.57,1.08,1.08,0,0,0,.06-0.61,0.91,0.91,0,0,0-.14-0.35,0.87,0.87,0,0,0-.24-0.24,0.87,0.87,0,0,0-.32-0.12,1,1,0,0,0-.36,0,0.89,0.89,0,0,0-.6.36,1.14,1.14,0,0,0-.2.7h-0.71a1.57,1.57,0,0,1,.09-0.57,1.64,1.64,0,0,1,.28-0.5,1.62,1.62,0,0,1,.45-0.37,1.84,1.84,0,0,1,.59-0.21,2,2,0,0,1,.63,0,1.6,1.6,0,0,1,.57.18,1.34,1.34,0,0,1,.44.39,1.44,1.44,0,0,1,.25.6,1.56,1.56,0,0,1,0,.47,1.89,1.89,0,0,1-.11.43,2.36,2.36,0,0,1-.2.4l-0.26.39-1.37,1.92,2.51-.45Z"/><path class="cls-3" d="M121.8,108.52l-2.11.38,0.2,1.34a1.59,1.59,0,0,1,.31-0.13l0.33-.08a2.05,2.05,0,0,1,.7,0,1.57,1.57,0,0,1,.6.23,1.51,1.51,0,0,1,.45.45,1.7,1.7,0,0,1,.25.65,1.88,1.88,0,0,1,0,.76,1.66,1.66,0,0,1-.28.62,1.72,1.72,0,0,1-.5.46,2,2,0,0,1-.69.25,1.8,1.8,0,0,1-1.06-.1,1.76,1.76,0,0,1-.76-0.64l0.59-.37a1.11,1.11,0,0,0,.48.43,1,1,0,0,0,.64.08,1.11,1.11,0,0,0,.4-0.15,1,1,0,0,0,.3-0.28,1.05,1.05,0,0,0,.16-0.39,1.19,1.19,0,0,0,0-.46,1.22,1.22,0,0,0-.19-0.48,1,1,0,0,0-.33-0.3,1.1,1.1,0,0,0-.42-0.13,1.6,1.6,0,0,0-.47,0,2.41,2.41,0,0,0-.58.19,2.75,2.75,0,0,0-.5.3l-0.41-2.73,2.76-.49Z"/><path class="cls-3" d="M125.41,109.87a0.91,0.91,0,0,0-.38-0.25,1,1,0,0,0-.49,0l-0.23.07a0.7,0.7,0,0,0-.19.12,0.43,0.43,0,0,0-.12.16,0.38,0.38,0,0,0,0,.22,0.35,0.35,0,0,0,.25.29,2.48,2.48,0,0,0,.62.09,3.75,3.75,0,0,1,.48.06,1.45,1.45,0,0,1,.4.13,0.88,0.88,0,0,1,.29.24,0.84,0.84,0,0,1,.16.37,1.07,1.07,0,0,1,0,.53,1,1,0,0,1-.25.4,1.27,1.27,0,0,1-.4.27,2.19,2.19,0,0,1-.49.15,2.05,2.05,0,0,1-.79,0,1.52,1.52,0,0,1-.7-0.35l0.41-.5a1.11,1.11,0,0,0,.44.27,1.08,1.08,0,0,0,.56,0l0.24-.07a0.7,0.7,0,0,0,.2-0.12,0.44,0.44,0,0,0,.13-0.18,0.45,0.45,0,0,0,0-.25,0.38,0.38,0,0,0-.29-0.31,3.07,3.07,0,0,0-.71-0.1l-0.37,0a1.18,1.18,0,0,1-.35-0.11,0.87,0.87,0,0,1-.28-0.23,0.83,0.83,0,0,1-.16-0.39,1,1,0,0,1,0-.49,1,1,0,0,1,.23-0.38,1.33,1.33,0,0,1,.38-0.26,1.87,1.87,0,0,1,.47-0.15,1.84,1.84,0,0,1,.74,0,1.19,1.19,0,0,1,.61.32Z"/><path class="cls-3" d="M127.87,109l0.22,0a2.25,2.25,0,0,0,.42-0.12,1.12,1.12,0,0,0,.34-0.2,0.76,0.76,0,0,0,.21-0.31,0.81,0.81,0,0,0,0-.43,0.84,0.84,0,0,0-.14-0.34,0.79,0.79,0,0,0-.25-0.23,1,1,0,0,0-.32-0.12,1,1,0,0,0-.35,0,0.93,0.93,0,0,0-.52.27,1,1,0,0,0-.26.52l-0.68-.11a1.53,1.53,0,0,1,.47-0.83,1.78,1.78,0,0,1,.91-0.44,2,2,0,0,1,.62,0,1.54,1.54,0,0,1,.55.17,1.27,1.27,0,0,1,.42.37,1.39,1.39,0,0,1,.23.58,1.2,1.2,0,0,1,0,.42,1.28,1.28,0,0,1-.13.37,1.22,1.22,0,0,1-.24.31,1.24,1.24,0,0,1-.33.22h0a1.34,1.34,0,0,1,.44.08,1.19,1.19,0,0,1,.38.21,1.27,1.27,0,0,1,.44.77,1.53,1.53,0,0,1,0,.7,1.46,1.46,0,0,1-.29.55,1.68,1.68,0,0,1-.49.39,2.18,2.18,0,0,1-1.74.13,1.59,1.59,0,0,1-.82-0.73l0.61-.33a1.14,1.14,0,0,0,.49.47,1.12,1.12,0,0,0,.72.09,1.2,1.2,0,0,0,.37-0.13,1,1,0,0,0,.3-0.24,0.91,0.91,0,0,0,.18-0.35,1,1,0,0,0,0-.44,0.83,0.83,0,0,0-.2-0.43,0.93,0.93,0,0,0-.35-0.24,1.32,1.32,0,0,0-.44-0.08,2.26,2.26,0,0,0-.46,0l-0.22,0Z"/><path class="cls-3" d="M132.9,107.86l0.87-2.12,0.84-.15-1.2,2.71,2.34,2.36-0.9.16-1.79-1.9-1,2.4-0.88.16,1.34-3-2.08-2.11,0.87-.16Z"/><path class="cls-3" d="M137.64,107.36l-0.79.14,0.52,2.87-0.68.12-0.51-2.87-0.68.12-0.1-.56,0.68-.12-0.13-.72a2.18,2.18,0,0,1,0-.57,1.16,1.16,0,0,1,.14-0.48,1.09,1.09,0,0,1,.34-0.37,1.46,1.46,0,0,1,.57-0.21,1.65,1.65,0,0,1,.44,0l0,0.6h-0.17l-0.18,0a0.64,0.64,0,0,0-.3.12,0.49,0.49,0,0,0-.15.22,0.75,0.75,0,0,0,0,.28,2.32,2.32,0,0,0,0,.31l0.13,0.72,0.79-.14Z"/><path class="cls-3" d="M142.05,109.53l-3.34.6-0.12-.67,1.67-2.39a3.29,3.29,0,0,0,.31-0.57,1.09,1.09,0,0,0,.06-0.61,0.9,0.9,0,0,0-.14-0.35,0.88,0.88,0,0,0-.25-0.24,0.86,0.86,0,0,0-.32-0.12,1,1,0,0,0-.36,0,0.89,0.89,0,0,0-.6.36,1.15,1.15,0,0,0-.2.7h-0.71a1.57,1.57,0,0,1,.09-0.57,1.63,1.63,0,0,1,.28-0.5,1.59,1.59,0,0,1,.45-0.37,1.81,1.81,0,0,1,.59-0.21,2,2,0,0,1,.63,0,1.6,1.6,0,0,1,.57.18,1.35,1.35,0,0,1,.44.39,1.44,1.44,0,0,1,.25.6,1.56,1.56,0,0,1,0,.47,1.88,1.88,0,0,1-.11.43,2.39,2.39,0,0,1-.2.4l-0.26.39-1.37,1.92,2.51-.45Z"/><path class="cls-3" d="M143.11,105.8q0,0.13.07,0.29c0,0.11,0,.2.06,0.27h0a1,1,0,0,1,.13-0.29,1.37,1.37,0,0,1,.22-0.26,1.33,1.33,0,0,1,.64-0.31,1.35,1.35,0,0,1,.59,0,1.18,1.18,0,0,1,.45.23,1.23,1.23,0,0,1,.31.4,1.89,1.89,0,0,1,.17.53l0.38,2.12-0.68.12-0.34-1.9a2.45,2.45,0,0,0-.1-0.39,1,1,0,0,0-.18-0.31,0.66,0.66,0,0,0-.28-0.19,0.79,0.79,0,0,0-.41,0,0.84,0.84,0,0,0-.61.43,1.26,1.26,0,0,0-.11.87l0.33,1.82-0.68.12-0.48-2.69-0.07-.35c0-.14-0.06-0.27-0.09-0.38Z"/><path class="cls-3" d="M150.33,106.25l0,0.12a1.06,1.06,0,0,1,0,.12l-2.72.49a1,1,0,0,0,.17.39,1.09,1.09,0,0,0,.3.29,1.13,1.13,0,0,0,.39.16,1.24,1.24,0,0,0,1-.26,1.26,1.26,0,0,0,.33-0.44l0.55,0.3a1.74,1.74,0,0,1-.55.65,2,2,0,0,1-.8.32,2,2,0,0,1-.75,0,1.67,1.67,0,0,1-1.11-.76,2,2,0,0,1-.27-0.71,2,2,0,0,1,0-.76,1.72,1.72,0,0,1,.27-0.64,1.74,1.74,0,0,1,.5-0.47,2,2,0,0,1,1.38-.26,1.42,1.42,0,0,1,.59.26,1.61,1.61,0,0,1,.43.5A2.25,2.25,0,0,1,150.33,106.25Zm-0.74-.15a1.34,1.34,0,0,0-.14-0.37,0.85,0.85,0,0,0-.57-0.43,1.06,1.06,0,0,0-.43,0,1.13,1.13,0,0,0-.4.15,1.07,1.07,0,0,0-.47.61,1,1,0,0,0,0,.4Z"/><path class="cls-3" d="M152.19,104.28a1.2,1.2,0,0,1,.64-0.31,1.25,1.25,0,0,1,.65,0,1.08,1.08,0,0,1,.53.45,1.25,1.25,0,0,1,.39-0.6,1.38,1.38,0,0,1,.65-0.3,1.34,1.34,0,0,1,.59,0,1.18,1.18,0,0,1,.45.23,1.21,1.21,0,0,1,.31.4,1.85,1.85,0,0,1,.17.53l0.38,2.12-0.68.12-0.34-1.9a2.08,2.08,0,0,0-.11-0.39,1,1,0,0,0-.18-0.31,0.68,0.68,0,0,0-.27-0.19,0.72,0.72,0,0,0-.38,0,0.78,0.78,0,0,0-.38.17,0.85,0.85,0,0,0-.23.3,1.09,1.09,0,0,0-.09.38,1.73,1.73,0,0,0,0,.41l0.33,1.85-0.68.12-0.37-2a1.77,1.77,0,0,0-.1-0.36,0.73,0.73,0,0,0-.17-0.26,0.63,0.63,0,0,0-.26-0.15,0.77,0.77,0,0,0-.35,0,0.78,0.78,0,0,0-.57.42,1.29,1.29,0,0,0-.1.86l0.33,1.82-0.68.12-0.48-2.69-0.07-.35c0-.14-0.06-0.27-0.09-0.38l0.64-.12c0,0.08,0,.18.07,0.29s0,0.2.06,0.27h0A1.18,1.18,0,0,1,152.19,104.28Z"/><path class="cls-3" d="M159.43,103.45l-0.91.16,0.32,1.78a0.68,0.68,0,0,0,.2.42,0.47,0.47,0,0,0,.39.07l0.2-.06a0.79,0.79,0,0,0,.18-0.09l0.12,0.55-0.26.12-0.3.08a1,1,0,0,1-.79-0.13,1.14,1.14,0,0,1-.4-0.76l-0.33-1.86-0.66.12-0.1-.56,0.66-.12-0.18-1,0.67-.12,0.18,1,0.91-.16Z"/><path class="cls-3" d="M162.62,105.84l-0.72.13-0.4-2.21-2.43-2.56,0.88-.16,1.83,2.06,1-2.57,0.83-.15-1.39,3.25Z"/><path class="cls-3" d="M165,106a1.66,1.66,0,0,0,.63.3,1.68,1.68,0,0,0,.72,0,1.53,1.53,0,0,0,.55-0.2,1,1,0,0,0,.32-0.34,1,1,0,0,0,.13-0.44,2,2,0,0,0,0-.51l-0.08-.44h0a1.22,1.22,0,0,1-.43.53,1.63,1.63,0,0,1-.67.28,1.82,1.82,0,0,1-.74,0,1.63,1.63,0,0,1-.61-0.28,1.74,1.74,0,0,1-.45-0.5,2,2,0,0,1-.25-0.67,2,2,0,0,1,0-.72,1.75,1.75,0,0,1,.25-0.63,1.65,1.65,0,0,1,.47-0.48,1.76,1.76,0,0,1,.68-0.27,1.66,1.66,0,0,1,.73,0,1.24,1.24,0,0,1,.62.39h0l-0.1-.55,0.66-.12,0.58,3.25a2.76,2.76,0,0,1,0,.74,1.58,1.58,0,0,1-.21.66,1.62,1.62,0,0,1-.51.53,2.26,2.26,0,0,1-.87.32,2.66,2.66,0,0,1-.93,0,2.31,2.31,0,0,1-.86-0.32Zm-0.22-2.37a1.4,1.4,0,0,0,.16.44,1.14,1.14,0,0,0,.7.55,1.11,1.11,0,0,0,.5,0,1.21,1.21,0,0,0,.46-0.18,1.1,1.1,0,0,0,.32-0.32,1.16,1.16,0,0,0,.17-0.43,1.35,1.35,0,0,0,0-.49,1.32,1.32,0,0,0-.17-0.45,1.19,1.19,0,0,0-.31-0.34,1.17,1.17,0,0,0-.42-0.2,1.13,1.13,0,0,0-.49,0,1.12,1.12,0,0,0-.46.18,1.14,1.14,0,0,0-.31.32,1.1,1.1,0,0,0-.16.42A1.43,1.43,0,0,0,164.83,103.64Z"/><path class="cls-3" d="M168.49,99.51l1.56-.28a3.28,3.28,0,0,1,.77-0.05,1.66,1.66,0,0,1,.62.15,1.19,1.19,0,0,1,.45.37,1.47,1.47,0,0,1,.24.62,1.44,1.44,0,0,1,0,.68,1.22,1.22,0,0,1-.31.52,1.77,1.77,0,0,1-.55.36,3.17,3.17,0,0,1-.73.22l-0.81.15,0.4,2.25-0.72.13Zm1.12,2.13,0.76-.14a2.38,2.38,0,0,0,.47-0.13,1.22,1.22,0,0,0,.35-0.21,0.69,0.69,0,0,0,.2-0.3,0.82,0.82,0,0,0,0-.41,0.77,0.77,0,0,0-.16-0.37,0.75,0.75,0,0,0-.29-0.21,1.06,1.06,0,0,0-.4-0.07,2.65,2.65,0,0,0-.48,0l-0.77.14Z"/><path class="cls-3" d="M174.73,105.46l-0.68.12-0.92-5.16,0.66-.12,0.1,0.53h0a1.3,1.3,0,0,1,.41-0.54A1.54,1.54,0,0,1,175,100a1.74,1.74,0,0,1,.72,0,1.6,1.6,0,0,1,.61.29,1.77,1.77,0,0,1,.45.51,2.14,2.14,0,0,1,.25,1.41,1.77,1.77,0,0,1-.24.64,1.62,1.62,0,0,1-.47.48,1.77,1.77,0,0,1-.69.27,1.58,1.58,0,0,1-.72,0,1.28,1.28,0,0,1-.59-0.36h0Zm1.64-3.86a1.52,1.52,0,0,0-.16-0.45,1.19,1.19,0,0,0-.29-0.36,1,1,0,0,0-.41-0.21,1.15,1.15,0,0,0-.51,0,1.1,1.1,0,0,0-.46.19,1.15,1.15,0,0,0-.32.34,1.29,1.29,0,0,0-.16.44,1.38,1.38,0,0,0,.17.94,1.24,1.24,0,0,0,.3.35,1.17,1.17,0,0,0,.41.21,1.11,1.11,0,0,0,.49,0,1.13,1.13,0,0,0,.48-0.19,1.07,1.07,0,0,0,.31-0.34,1.17,1.17,0,0,0,.15-0.44A1.52,1.52,0,0,0,176.36,101.6Z"/><path class="cls-3" d="M177.6,97.87l0.72-.13,0.38,2.14,2.59-.46-0.38-2.14,0.72-.13,0.92,5.12-0.72.13-0.42-2.34-2.59.46,0.42,2.34-0.72.13Z"/><path class="cls-3" d="M186.54,101a1.3,1.3,0,0,1-.45.57,1.62,1.62,0,0,1-.68.29,1.78,1.78,0,0,1-.74,0,1.63,1.63,0,0,1-.61-0.29,1.77,1.77,0,0,1-.45-0.52,2,2,0,0,1-.25-0.69,2,2,0,0,1,0-.73,1.73,1.73,0,0,1,.25-0.64,1.62,1.62,0,0,1,.48-0.48,1.78,1.78,0,0,1,.68-0.26,1.46,1.46,0,0,1,.76,0,1.55,1.55,0,0,1,.57.34h0l-0.46-2.55,0.68-.12,1,5.46-0.66.12-0.1-.54h0Zm-2.46-.77a1.51,1.51,0,0,0,.15.45,1.19,1.19,0,0,0,.29.36,1.11,1.11,0,0,0,.4.21,1.21,1.21,0,0,0,1-.17,1.18,1.18,0,0,0,.32-0.34,1.26,1.26,0,0,0,.16-0.44,1.38,1.38,0,0,0-.17-0.94A1.29,1.29,0,0,0,185.9,99a1.13,1.13,0,0,0-.41-0.21,1.12,1.12,0,0,0-.49,0,1.14,1.14,0,0,0-.47.19,1.06,1.06,0,0,0-.31.34,1.21,1.21,0,0,0-.15.43A1.54,1.54,0,0,0,184.08,100.22Z"/><path class="cls-3" d="M189.86,99.88h0l0.47-4.29,0.79-.14,1.92,3.86h0l0.4-4.28,0.76-.14-0.59,5.38-0.74.13-2-3.89h0l-0.5,4.33-0.74.13-2.42-4.85L188,96Z"/><path class="cls-3" d="M196.6,99.09l2.67-.48,0.11,0.64-3.39.61-0.92-5.12,3.28-.59,0.11,0.63-2.56.46,0.27,1.53,2.41-.43L198.7,97l-2.41.43Z"/><path class="cls-3" d="M44.85,134.1l-1.54,2.65,2-.36,0.1,0.57-2.87.51-0.1-.56L44,134.25l-1.84.33-0.1-.56,2.69-.48Z"/><path class="cls-3" d="M48.55,131.77l-1.25,4.85-0.8.14,1.33-4.88-2.54.45-0.11-.62,3.26-.58Z"/><path class="cls-3" d="M52.13,133.62h0a0.92,0.92,0,0,1-.28.15l-0.17.06-0.17,0a1.65,1.65,0,0,1-.65,0,1.6,1.6,0,0,1-.56-0.24,1.56,1.56,0,0,1-.43-0.45,1.69,1.69,0,0,1-.24-0.62,1.81,1.81,0,0,1,0-.72,1.61,1.61,0,0,1,.27-0.61,1.72,1.72,0,0,1,.5-0.45,2,2,0,0,1,.68-0.25,1.93,1.93,0,0,1,.72,0,1.72,1.72,0,0,1,.62.25,1.64,1.64,0,0,1,.46.47,1.72,1.72,0,0,1,.25.65,2,2,0,0,1,0,.78,4.79,4.79,0,0,1-.23.76l-1,2.35-0.83.15ZM52.45,132a1.16,1.16,0,0,0-.15-0.41A1,1,0,0,0,52,131.3a1.05,1.05,0,0,0-.83-0.18,1.12,1.12,0,0,0-.42.16,1,1,0,0,0-.3.29,1,1,0,0,0-.15.39,1.26,1.26,0,0,0,0,.46,1.18,1.18,0,0,0,.15.41,1,1,0,0,0,.27.3,1,1,0,0,0,.37.16,1.16,1.16,0,0,0,.45,0,1.19,1.19,0,0,0,.42-0.16,1,1,0,0,0,.3-0.28,1,1,0,0,0,.16-0.38A1.2,1.2,0,0,0,52.45,132Z"/><path class="cls-3" d="M57.86,133a1.87,1.87,0,0,1,0,.76,1.75,1.75,0,0,1-.29.64,1.79,1.79,0,0,1-.52.48,2.09,2.09,0,0,1-1.46.26,1.77,1.77,0,0,1-.65-0.27,1.81,1.81,0,0,1-.49-0.51,1.89,1.89,0,0,1-.27-0.7,1.87,1.87,0,0,1,0-.75,1.74,1.74,0,0,1,.8-1.11,2.09,2.09,0,0,1,1.46-.26,1.8,1.8,0,0,1,.66.27,1.73,1.73,0,0,1,.49.5A1.85,1.85,0,0,1,57.86,133Zm-0.71.13a1.46,1.46,0,0,0-.16-0.45,1.2,1.2,0,0,0-.29-0.35,1.08,1.08,0,0,0-.41-0.21,1.26,1.26,0,0,0-1,.18,1.09,1.09,0,0,0-.31.33,1.21,1.21,0,0,0-.15.43,1.46,1.46,0,0,0,0,.48,1.44,1.44,0,0,0,.16.45,1.23,1.23,0,0,0,.29.36,1.06,1.06,0,0,0,.41.21,1.26,1.26,0,0,0,1-.18A1.06,1.06,0,0,0,57,134a1.24,1.24,0,0,0,.15-0.44A1.48,1.48,0,0,0,57.16,133.08Z"/><path class="cls-3" d="M59.17,129.68a0.41,0.41,0,0,1-.08.33,0.48,0.48,0,0,1-.64.11,0.41,0.41,0,0,1-.19-0.28,0.42,0.42,0,0,1,.08-0.34,0.48,0.48,0,0,1,.64-0.12A0.42,0.42,0,0,1,59.17,129.68Zm-0.51,6.05a1.17,1.17,0,0,0,.28,0,0.47,0.47,0,0,0,.24-0.1,0.41,0.41,0,0,0,.12-0.18,0.72,0.72,0,0,0,0-.24,2.2,2.2,0,0,0,0-.29l-0.69-3.84,0.68-.12L60,134.8a2.54,2.54,0,0,1,0,.5,1.15,1.15,0,0,1-.1.44,0.86,0.86,0,0,1-.29.35,1.3,1.3,0,0,1-.54.2l-0.2,0H58.69Z"/><path class="cls-3" d="M62.46,132.83h0l0.47-4.29,0.79-.14,1.92,3.86h0l0.4-4.28,0.76-.14-0.59,5.39-0.74.13-2-3.89h0L63,133.81l-0.74.13-2.42-4.85L60.6,129Z"/><path class="cls-3" d="M68.36,129.31c0,0.08,0,.18.07,0.29l0.06,0.27h0a1,1,0,0,1,.13-0.29,1.27,1.27,0,0,1,.22-0.26A1.33,1.33,0,0,1,69.5,129a1.36,1.36,0,0,1,.59,0,1.19,1.19,0,0,1,.45.23,1.23,1.23,0,0,1,.31.4,1.93,1.93,0,0,1,.17.53l0.38,2.12-0.68.12-0.34-1.9a2.38,2.38,0,0,0-.1-0.39,1,1,0,0,0-.18-0.31,0.66,0.66,0,0,0-.28-0.19,0.79,0.79,0,0,0-.41,0,0.83,0.83,0,0,0-.61.43,1.25,1.25,0,0,0-.11.87L69,132.72l-0.68.12-0.48-2.69-0.07-.35c0-.14-0.06-0.27-0.09-0.38Z"/><path class="cls-3" d="M71.82,126.94l1.56-.28a3.24,3.24,0,0,1,.77-0.05,1.66,1.66,0,0,1,.62.15,1.18,1.18,0,0,1,.45.37,1.47,1.47,0,0,1,.25.62,1.44,1.44,0,0,1,0,.68,1.21,1.21,0,0,1-.31.52,1.76,1.76,0,0,1-.55.36,3.2,3.2,0,0,1-.73.22l-0.81.14,0.4,2.25-0.72.13Zm1.12,2.13,0.76-.14a2.28,2.28,0,0,0,.47-0.13,1.17,1.17,0,0,0,.35-0.21,0.69,0.69,0,0,0,.2-0.3,0.82,0.82,0,0,0,0-.41,0.77,0.77,0,0,0-.16-0.37,0.74,0.74,0,0,0-.29-0.21,1.09,1.09,0,0,0-.4-0.07,2.66,2.66,0,0,0-.48,0l-0.77.14Z"/><path class="cls-3" d="M77.63,130.62l0.1,0.54-0.66.12-1-5.46,0.68-.12,0.46,2.55h0a1.47,1.47,0,0,1,1.11-.82,1.76,1.76,0,0,1,.72,0,1.63,1.63,0,0,1,.61.29,1.74,1.74,0,0,1,.45.51,2.13,2.13,0,0,1,.25,1.41,1.77,1.77,0,0,1-.24.64,1.63,1.63,0,0,1-.47.48A1.79,1.79,0,0,1,79,131a1.6,1.6,0,0,1-.73,0,1.33,1.33,0,0,1-.62-0.38h0ZM79.7,129a1.51,1.51,0,0,0-.16-0.45,1.21,1.21,0,0,0-.29-0.36,1.08,1.08,0,0,0-.41-0.21,1.17,1.17,0,0,0-.51,0,1.11,1.11,0,0,0-.46.19,1.15,1.15,0,0,0-.32.34,1.26,1.26,0,0,0-.16.44,1.38,1.38,0,0,0,.17.94,1.2,1.2,0,0,0,.3.35,1.16,1.16,0,0,0,.41.2,1.11,1.11,0,0,0,.49,0,1.13,1.13,0,0,0,.48-0.19,1.11,1.11,0,0,0,.31-0.34,1.19,1.19,0,0,0,.15-0.44A1.5,1.5,0,0,0,79.7,129Z"/><path class="cls-3" d="M84.44,129.4A1.27,1.27,0,0,1,84,130a1.62,1.62,0,0,1-.68.29,1.78,1.78,0,0,1-.74,0A1.62,1.62,0,0,1,82,130a1.76,1.76,0,0,1-.45-0.52,2.07,2.07,0,0,1-.25-0.69,2,2,0,0,1,0-.73,1.77,1.77,0,0,1,.25-0.64,1.63,1.63,0,0,1,.48-0.48,1.78,1.78,0,0,1,.68-0.26,1.46,1.46,0,0,1,.76,0A1.55,1.55,0,0,1,84,127h0l-0.46-2.55,0.68-.12,1,5.46-0.66.12-0.1-.54h0ZM82,128.63a1.51,1.51,0,0,0,.15.45,1.2,1.2,0,0,0,.29.36,1.13,1.13,0,0,0,.4.21,1.1,1.1,0,0,0,.51,0,1.13,1.13,0,0,0,.46-0.19,1.16,1.16,0,0,0,.32-0.34,1.25,1.25,0,0,0,.16-0.43,1.38,1.38,0,0,0-.17-0.94,1.31,1.31,0,0,0-.31-0.35,1.16,1.16,0,0,0-.41-0.21,1.09,1.09,0,0,0-.49,0,1.14,1.14,0,0,0-.47.19,1.08,1.08,0,0,0-.3.34,1.19,1.19,0,0,0-.15.43A1.52,1.52,0,0,0,82,128.63Z"/><path class="cls-3" d="M89.72,124.82a1.69,1.69,0,0,0-.66-0.3,2.07,2.07,0,0,0-.82,0,2,2,0,0,0-.78.31,1.85,1.85,0,0,0-.53.55,2.06,2.06,0,0,0-.27.72,2.29,2.29,0,0,0,0,.82,2.32,2.32,0,0,0,.28.78,2,2,0,0,0,.51.58,1.81,1.81,0,0,0,.7.33,2.11,2.11,0,0,0,.85,0,3.21,3.21,0,0,0,.65-0.18,2,2,0,0,0,.49-0.28l-0.25-1.42-1.13.2-0.11-.61,1.84-.33,0.44,2.48a3.77,3.77,0,0,1-.82.49,4.49,4.49,0,0,1-1,.3,3,3,0,0,1-1.14,0,2.53,2.53,0,0,1-1.68-1.15,2.9,2.9,0,0,1-.4-1.05,2.87,2.87,0,0,1,0-1.13A2.51,2.51,0,0,1,86.3,125a2.61,2.61,0,0,1,.77-0.7,3,3,0,0,1,1-.39,3.15,3.15,0,0,1,1.13,0,2.39,2.39,0,0,1,.89.34Z"/><circle class="cls-5" cx="180.61" cy="39.67" r="8.52" transform="translate(-4.17 32.51) rotate(-10.17)"/><path class="cls-6" d="M173.27,44.3c-2.56,3.31-3.9,5.83-3.27,6.43,1,1,6.56-3.22,12.41-9.33s9.8-11.83,8.81-12.79c-0.64-.61-3.15.88-6.42,3.64"/></svg>