<?xml version="1.0" encoding="utf-8"?>
<!-- Generator: Adobe Illustrator 19.1.0, SVG Export Plug-In . SVG Version: 6.00 Build 0)  -->
<svg version="1.1" xmlns="http://www.w3.org/2000/svg" xmlns:xlink="http://www.w3.org/1999/xlink" x="0px" y="0px" width="115px"
	 height="108.5px" viewBox="0 0 115 108.5" style="enable-background:new 0 0 115 108.5;" xml:space="preserve">
<style type="text/css">
	.st0{display:none;}
	.st1{display:inline;fill:#F05135;}
	.st2{display:inline;fill:#083B54;}
	.st3{display:inline;fill:#6ACAD1;}
	.st4{display:inline;fill:#F59223;}
	.st5{display:inline;fill:none;stroke:#F05135;stroke-width:2.5;stroke-miterlimit:10;}
	.st6{display:inline;fill:none;stroke:#083B54;stroke-width:2.5;stroke-miterlimit:10;}
	.st7{display:inline;fill:none;stroke:#6ACAD1;stroke-width:2.5;stroke-miterlimit:10;}
	.st8{display:inline;fill:none;stroke:#F59223;stroke-width:2.5;stroke-miterlimit:10;}
	.st9{display:inline;fill:#FDD9C8;stroke:#F05135;stroke-width:2.5;stroke-miterlimit:10;}
	.st10{display:inline;fill:#D3D5DB;stroke:#083B54;stroke-width:2.5;stroke-miterlimit:10;}
	.st11{display:inline;fill:#E0F2F3;stroke:#6ACAD1;stroke-width:2.5;stroke-miterlimit:10;}
	.st12{display:inline;fill:#FEE5CB;stroke:#F59223;stroke-width:2.5;stroke-miterlimit:10;}
	.st13{display:inline;fill:#FFFFFF;stroke:#F05135;stroke-width:2.5;stroke-miterlimit:10;}
	.st14{display:inline;fill:#FFFFFF;stroke:#083B54;stroke-width:2.5;stroke-miterlimit:10;}
	.st15{display:inline;fill:#FFFFFF;stroke:#6ACAD1;stroke-width:2.5;stroke-miterlimit:10;}
	.st16{display:inline;fill:#FFFFFF;stroke:#F59223;stroke-width:2.5;stroke-miterlimit:10;}
	.st17{display:inline;}
	.st18{display:inline;fill:#FFFFFF;}
	.st19{fill:#FFFFFF;}
	.st20{fill:#E0F2F3;}
	.st21{fill:#D3D5DB;stroke:#D3D5DB;stroke-linejoin:round;stroke-miterlimit:10;}
	.st22{fill:#FFFFFF;stroke:#6ACAD1;stroke-width:2.5;stroke-linejoin:round;stroke-miterlimit:10;}
	.st23{fill:#063B54;}
	.st24{fill:#FFFFFF;stroke:#6ACAD1;stroke-width:2.5;stroke-miterlimit:10;}
	.st25{fill:#E0F2F3;stroke:#6ACAD1;stroke-width:2.5;stroke-linejoin:round;stroke-miterlimit:10;}
	.st26{fill:none;stroke:#6ACAD1;stroke-width:1.5;stroke-miterlimit:10;}
	.st27{fill:#D3D5DB;}
	.st28{fill:#E0F2F3;stroke:#6ACAD1;stroke-width:2.5;stroke-miterlimit:10;}
	.st29{fill:#083B54;}
	.st30{fill:#F05135;}
	.st31{fill:#F59223;}
	.st32{fill:none;stroke:#6ACAD1;stroke-width:2.5;stroke-miterlimit:10;}
	.st33{fill:none;stroke:#F05135;stroke-miterlimit:10;}
	.st34{fill:none;stroke:#D3D5DB;stroke-width:0.5;stroke-miterlimit:10;}
	.st35{fill:#083B54;stroke:#063B54;stroke-width:0.5;stroke-linejoin:round;stroke-miterlimit:10;}
	.st36{fill:none;stroke:#063B54;stroke-width:0.7;stroke-miterlimit:10;}
	.st37{fill:none;stroke:#D3D5DB;stroke-width:0.3;stroke-miterlimit:10;}
	.st38{fill:none;stroke:#6ACAD1;stroke-width:2.5;stroke-linejoin:round;stroke-miterlimit:10;}
	.st39{fill:none;stroke:#F05135;stroke-width:2.5;stroke-linecap:round;stroke-miterlimit:10;}
	.st40{fill:#083B54;stroke:#063B54;stroke-linejoin:round;stroke-miterlimit:10;}
	.st41{fill:none;stroke:#E0F2F3;stroke-miterlimit:10;}
	.st42{fill:none;stroke:#6ACAD1;stroke-linecap:round;stroke-linejoin:round;stroke-miterlimit:10;}
	.st43{fill:none;stroke:#6ACAD1;stroke-width:2.5;stroke-linecap:round;stroke-linejoin:round;stroke-miterlimit:10;}
	.st44{fill:#F05135;stroke:#F05235;stroke-linejoin:round;stroke-miterlimit:10;}
	.st45{fill:none;stroke:#F05135;stroke-width:2;stroke-linecap:round;stroke-miterlimit:10;}
	.st46{fill:none;stroke:#E0F2F3;stroke-width:1.5;stroke-linecap:round;stroke-miterlimit:10;}
	.st47{fill:none;stroke:#FCC941;stroke-width:2;stroke-miterlimit:10;}
	.st48{fill:#6ACAD1;}
	.st49{fill:none;stroke:#063B54;stroke-width:2.5;stroke-miterlimit:10;}
</style>
<g id="template" class="st0">
	<g class="st17">
		<g id="Kopayy_1_">
			
				<image style="overflow:visible;" width="949" height="694" id="Kopayy_2_" xlink:href="56973B0D5D8B5D54.png"  transform="matrix(1 0 0 1 -707.0463 -375.1662)">
			</image>
		</g>
	</g>
</g>
<g id="Layer_3">
	<circle class="st20" cx="57.1" cy="57.8" r="50.7"/>
</g>
<g id="stuffs">
	<path class="st21" d="M110.5,104.9H4.6c-1.6,0-3-1.3-3-3v-6l13-28.4c0-1.7,1.3-3,3-3h79.9c1.7,0,3,1.3,3,3l13,28.4v6
		C113.5,103.5,112.2,104.9,110.5,104.9z"/>
	<path class="st22" d="M110.5,100.9H4.6c-1.6,0-3-1.3-3-3v-6l13-28.4c0-1.7,1.3-3,3-3h79.9c1.7,0,3,1.3,3,3l13,28.4v6
		C113.5,99.5,112.2,100.9,110.5,100.9z"/>
	<path class="st28" d="M110.5,94.9H4.6c-1.6,0-3-1.3-3-3l13-34.4c0-1.7,1.3-3,3-3h79.9c1.7,0,3,1.3,3,3l13,34.4
		C113.5,93.5,112.2,94.9,110.5,94.9z"/>
	<path class="st22" d="M91,89.3H11.4c-1.2,0-2.3-1-2.3-2.3l9.8-25.9c0-1.2,1-2.3,2.3-2.3h63.1c1.2,0,2.3,1,2.3,2.3l6.8,25.9
		C93.3,88.3,92.2,89.3,91,89.3z"/>
	<ellipse class="st48" cx="98.3" cy="73.7" rx="3.3" ry="2.6"/>
	<ellipse class="st21" cx="28.9" cy="71.1" rx="6" ry="2.8"/>
	<ellipse class="st21" cx="45.4" cy="68" rx="6" ry="2.8"/>
	<line class="st49" x1="28.9" y1="71.1" x2="28.9" y2="41.9"/>
	<circle class="st30" cx="28.9" cy="40.1" r="8.9"/>
	<path class="st30" d="M49.8,66.9c0,1.5-2,2.7-4.4,2.7c-2.4,0-4.4-1.2-4.4-2.7c0-0.6,0-1.5,0-1.5s2.9-1.1,4.4-1.1
		c1.8,0,4.4,1.1,4.4,1.1S49.8,66.5,49.8,66.9z"/>
	<ellipse class="st30" cx="45.4" cy="65.4" rx="4.4" ry="2.7"/>
	<ellipse class="st21" cx="54.1" cy="75.9" rx="6" ry="2.8"/>
	<path class="st29" d="M58.5,74.7c0,1.5-2,2.7-4.4,2.7c-2.4,0-4.4-1.2-4.4-2.7c0-0.6,0-1.5,0-1.5s2.9-1.1,4.4-1.1
		c1.8,0,4.4,1.1,4.4,1.1S58.5,74.3,58.5,74.7z"/>
	<ellipse class="st29" cx="54.1" cy="73.2" rx="4.4" ry="2.7"/>
	<rect x="61.9" y="30.6" class="st29" width="25.8" height="17.4"/>
	<rect x="61.5" y="25.2" transform="matrix(0.9896 -0.144 0.144 0.9896 -3.1114 10.9889)" class="st29" width="25.8" height="3.6"/>
	<polygon class="st19" points="68.2,29.1 65.5,29.5 63.5,27.4 66.3,27 	"/>
	<polygon class="st19" points="74.4,28.2 71.7,28.6 69.7,26.5 72.4,26.1 	"/>
	<polygon class="st19" points="80.7,27.3 78,27.6 76,25.6 78.7,25.2 	"/>
	<polygon class="st19" points="86.9,26.3 84.2,26.7 82.2,24.7 84.9,24.3 	"/>
	<polygon class="st19" points="82.8,33.6 85.6,33.6 87.2,31.2 84.5,31.2 	"/>
	<polygon class="st19" points="76.6,33.6 79.3,33.6 80.9,31.2 78.2,31.2 	"/>
	<polygon class="st19" points="70.2,33.6 73,33.6 74.6,31.2 71.9,31.2 	"/>
	<polygon class="st19" points="64,33.6 66.7,33.6 68.3,31.2 65.6,31.2 	"/>
	<ellipse class="st21" cx="73.3" cy="64.5" rx="10.7" ry="1.3"/>
	<ellipse class="st29" cx="44.1" cy="25.8" rx="2.8" ry="1.9"/>
	<g>
		<rect x="46" y="15.4" class="st23" width="0.9" height="10.4"/>
	</g>
	<ellipse class="st29" cx="51.6" cy="23.5" rx="2.8" ry="1.9"/>
	<g>
		<polygon class="st23" points="54.5,23.5 53.5,23.5 53.5,13.5 54.5,13.1 		"/>
	</g>
	<polygon class="st23" points="54.5,14.9 46,17.2 46,15.4 54.5,13.1 	"/>
	<ellipse class="st29" cx="33.8" cy="17.8" rx="2.8" ry="1.9"/>
	<g>
		<rect x="35.7" y="7.5" class="st23" width="0.9" height="10.4"/>
	</g>
	<polygon class="st23" points="38.9,8.3 35.7,9.2 35.7,7.5 38.9,6.6 	"/>
	<ellipse class="st30" cx="61.5" cy="11.2" rx="2.8" ry="1.9"/>
	<g>
		<rect x="63.4" y="0.9" class="st30" width="0.9" height="10.4"/>
	</g>
	<polygon class="st30" points="66.6,1.8 63.4,2.7 63.4,0.9 66.6,0 	"/>
</g>
</svg>
