<svg id="Layer_1" data-name="Layer 1" xmlns="http://www.w3.org/2000/svg" viewBox="0 0 300 300"><defs><style>.cls-1,.cls-2,.cls-7{fill:#fff;}.cls-1{stroke:#c3e9ec;}.cls-1,.cls-2,.cls-3,.cls-4,.cls-5,.cls-6,.cls-7,.cls-8,.cls-9{stroke-linecap:round;stroke-width:4px;}.cls-1,.cls-2,.cls-7,.cls-8{stroke-linejoin:round;}.cls-2{stroke:#91d5d9;}.cls-3,.cls-4,.cls-5,.cls-6,.cls-8,.cls-9{fill:none;}.cls-3{stroke:#ef5034;}.cls-3,.cls-4,.cls-5,.cls-6,.cls-9{stroke-miterlimit:10;}.cls-4{stroke:#f59685;}.cls-5{stroke:#c0e869;}.cls-6{stroke:#f59122;}.cls-7,.cls-8{stroke:#6ac9d0;}.cls-9{stroke:#96d805;}</style></defs><title>ipfs-illustrations-how-2</title><rect class="cls-1" x="34.19" y="30.59" width="117.98" height="152.68"/><line class="cls-1" x1="52.51" y1="55.8" x2="133.84" y2="55.8"/><line class="cls-1" x1="52.51" y1="77.35" x2="133.84" y2="77.35"/><line class="cls-1" x1="52.51" y1="98.9" x2="133.84" y2="98.9"/><line class="cls-1" x1="52.51" y1="120.44" x2="133.84" y2="120.44"/><line class="cls-1" x1="52.51" y1="141.99" x2="105.72" y2="141.99"/><rect class="cls-2" x="91.01" y="73.66" width="117.98" height="152.68"/><line class="cls-2" x1="109.33" y1="98.87" x2="190.67" y2="98.87"/><line class="cls-2" x1="109.33" y1="120.42" x2="190.67" y2="120.42"/><line class="cls-3" x1="158.55" y1="120.42" x2="178.71" y2="120.42"/><line class="cls-2" x1="109.33" y1="141.97" x2="190.67" y2="141.97"/><line class="cls-2" x1="109.33" y1="163.39" x2="190.67" y2="163.39"/><line class="cls-2" x1="109.33" y1="185.06" x2="162.54" y2="185.06"/><line class="cls-4" x1="126.24" y1="142.2" x2="152.81" y2="142.2"/><line class="cls-5" x1="116.77" y1="185.06" x2="131.1" y2="185.06"/><line class="cls-6" x1="166.16" y1="228.13" x2="247.49" y2="228.13"/><rect class="cls-7" x="147.83" y="116.73" width="117.98" height="152.68"/><line class="cls-8" x1="166.16" y1="141.94" x2="247.49" y2="141.94"/><line class="cls-9" x1="180.22" y1="141.94" x2="219.36" y2="141.94"/><line class="cls-8" x1="166.16" y1="163.49" x2="247.49" y2="163.49"/><line class="cls-9" x1="202.02" y1="163.49" x2="219.36" y2="163.49"/><line class="cls-3" x1="215.38" y1="163.49" x2="235.54" y2="163.49"/><line class="cls-8" x1="166.16" y1="185.04" x2="247.49" y2="185.04"/><line class="cls-8" x1="166.16" y1="206.46" x2="247.49" y2="206.46"/><line class="cls-9" x1="209.92" y1="206.46" x2="236.49" y2="206.46"/><line class="cls-8" x1="166.16" y1="228.13" x2="219.36" y2="228.13"/><line class="cls-3" x1="181.09" y1="206.46" x2="207.66" y2="206.46"/><line class="cls-9" x1="167.03" y1="249.35" x2="193.6" y2="249.35"/><line class="cls-9" x1="218.19" y1="228.13" x2="248.19" y2="228.13"/></svg>