<svg id="Layer_1" data-name="Layer 1" xmlns="http://www.w3.org/2000/svg" viewBox="0 0 221 208.84"><defs><style>.cls-1,.cls-11,.cls-4{fill:#fff;}.cls-1,.cls-11{stroke:#fff;}.cls-1,.cls-5{stroke-miterlimit:10;}.cls-1{stroke-width:3.98px;}.cls-2,.cls-5{fill:none;stroke:#6ac9d0;stroke-width:4.23px;}.cls-10,.cls-11,.cls-12,.cls-2,.cls-3{stroke-linejoin:round;}.cls-2{opacity:0.6;}.cls-10,.cls-12,.cls-3,.cls-8{fill:#083b54;}.cls-10,.cls-12,.cls-3{stroke:#083b54;stroke-linecap:round;}.cls-3{stroke-width:1.87px;}.cls-5{opacity:0.3;}.cls-6{fill:#6ac9d0;}.cls-7{fill:#ef5034;}.cls-9{fill:#f59122;}.cls-10{stroke-width:1.82px;}.cls-11{stroke-width:3.27px;}.cls-12{stroke-width:1.87px;}</style></defs><title>ipfs-illustrations-how</title><path class="cls-1" d="M17.92,24.11A19.15,19.15,0,0,0,4.5,48l0,0.14A19.24,19.24,0,0,0,28.71,61.4a18.71,18.71,0,0,0,8.06-4.47c2.31,0,14.31,2.77,14.31,2.77s-8-9.47-8.81-12.07a19.44,19.44,0,0,0-.19-10.08l0-.13a19.24,19.24,0,0,0-24.12-13.3h0Z"/><path class="cls-2" d="M17.81,24.11A19.15,19.15,0,0,0,4.39,48l0,0.14A19.24,19.24,0,0,0,28.6,61.4a18.71,18.71,0,0,0,8.06-4.47C39,56.91,51,59.7,51,59.7s-8-9.47-8.81-12.07A19.44,19.44,0,0,0,42,37.55l0-.13a19.24,19.24,0,0,0-24.12-13.3h0Z"/><path class="cls-3" d="M17,35.62a6.6,6.6,0,0,1,1.31-2.23,5.79,5.79,0,0,1,2.08-1.47,6.89,6.89,0,0,1,2.74-.51,7.5,7.5,0,0,1,2.49.4A5.59,5.59,0,0,1,27.51,33a5.1,5.1,0,0,1,1.26,1.83,6.37,6.37,0,0,1,.44,2.48A5.52,5.52,0,0,1,29,38.89a5.81,5.81,0,0,1-.57,1.3,6.72,6.72,0,0,1-.81,1.08q-0.45.49-.92,1l-0.92.89a7.62,7.62,0,0,0-.82,1,4.63,4.63,0,0,0-.59,1.11,3.93,3.93,0,0,0-.22,1.36v0A1.12,1.12,0,0,1,23,47.66H22.77a1.12,1.12,0,0,1-1.12-1.13V46.28a5.64,5.64,0,0,1,.46-2.08,6.61,6.61,0,0,1,1-1.53,13.12,13.12,0,0,1,1.2-1.23,13.52,13.52,0,0,0,1.17-1.19,5.25,5.25,0,0,0,.87-1.38A4.13,4.13,0,0,0,26.59,37a3.76,3.76,0,0,0-1-2.51,3.4,3.4,0,0,0-2.49-.91,4,4,0,0,0-1.81.37A3.73,3.73,0,0,0,20,35a4.1,4.1,0,0,0-.75,1.51,6.69,6.69,0,0,0-.18.91,1.12,1.12,0,0,1-1.11,1H17.7a1.12,1.12,0,0,1-1.11-1.26A7.38,7.38,0,0,1,17,35.62Zm7.51,16.87v0.25A1.5,1.5,0,0,1,23,54.23H22.71a1.5,1.5,0,0,1-1.49-1.5V52.48A1.5,1.5,0,0,1,22.72,51H23A1.5,1.5,0,0,1,24.46,52.49Z"/><path class="cls-4" d="M115.1,121.71a18.7,18.7,0,0,0-21.42,16.07l0,0.13a18.9,18.9,0,0,0,1.19,9.73C94.45,150.25,88,160.45,88,160.45s11.17-4.31,13.4-4.6a18.19,18.19,0,0,0,8.36,3.21,18.71,18.71,0,0,0,21.48-16l0-.14a18.62,18.62,0,0,0-16.16-21.22h0Z"/><line class="cls-5" x1="76.67" y1="167.14" x2="18.02" y2="132.07"/><polyline class="cls-5" points="133.77 91.28 62.53 66.11 78.63 168.31"/><circle class="cls-6" cx="16.07" cy="130.91" r="8.68"/><line class="cls-5" x1="77.28" y1="169.3" x2="36.9" y2="199.16"/><circle class="cls-6" cx="35.55" cy="200.16" r="8.68" transform="translate(-162.04 152.38) rotate(-66.34)"/><circle class="cls-7" cx="133.77" cy="91.85" r="11.22"/><circle class="cls-8" cx="62.53" cy="66.11" r="8.68"/><circle class="cls-9" cx="78.63" cy="168.31" r="8.68"/><path class="cls-2" d="M115.1,121.71a18.7,18.7,0,0,0-21.42,16.07l0,0.13a18.9,18.9,0,0,0,1.19,9.73C94.45,150.25,88,160.45,88,160.45s11.17-4.31,13.4-4.6a18.19,18.19,0,0,0,8.36,3.21,18.71,18.71,0,0,0,21.48-16l0-.14a18.62,18.62,0,0,0-16.16-21.22h0Z"/><path class="cls-10" d="M105.91,134.27a6.42,6.42,0,0,1,1-2.32,5.63,5.63,0,0,1,1.8-1.69,6.7,6.7,0,0,1,2.57-.87,7.29,7.29,0,0,1,2.45.05,5.44,5.44,0,0,1,2,.84,5,5,0,0,1,1.46,1.59,6.2,6.2,0,0,1,.76,2.33,5.37,5.37,0,0,1,0,1.59,5.65,5.65,0,0,1-.38,1.32,6.54,6.54,0,0,1-.63,1.14q-0.37.54-.76,1t-0.77,1a7.41,7.41,0,0,0-.66,1,4.51,4.51,0,0,0-.42,1.14,3.82,3.82,0,0,0,0,1.33v0a1.09,1.09,0,0,1-.93,1.23l-0.23,0a1.09,1.09,0,0,1-1.23-.93l0-.24a5.49,5.49,0,0,1,.16-2.07,6.43,6.43,0,0,1,.73-1.6,12.76,12.76,0,0,1,1-1.35,13.15,13.15,0,0,0,1-1.31,5.1,5.1,0,0,0,.65-1.45,4,4,0,0,0,0-1.8A3.66,3.66,0,0,0,114,132a3.31,3.31,0,0,0-2.52-.54,3.9,3.9,0,0,0-1.69.6,3.62,3.62,0,0,0-1.09,1.15,4,4,0,0,0-.52,1.56,6.5,6.5,0,0,0,0,.9,1.09,1.09,0,0,1-.94,1.1l-0.23,0a1.09,1.09,0,0,1-1.24-1.07A7.17,7.17,0,0,1,105.91,134.27Zm9.51,15.22,0,0.24a1.45,1.45,0,0,1-1.24,1.64l-0.24,0a1.45,1.45,0,0,1-1.64-1.24l0-.24a1.45,1.45,0,0,1,1.24-1.64l0.24,0A1.45,1.45,0,0,1,115.42,149.5Z"/><path class="cls-11" d="M183.66,2.86A35.56,35.56,0,0,0,146.5,37.66v0.26a35.94,35.94,0,0,0,4.26,18.15c-0.2,5-7.83,24-7.83,24s17.77-8.82,21.92-9.84a34.59,34.59,0,0,0,16.47,4.34c20.88,0.65,36.72-15.14,37.3-34.67V39.63C219.17,20,204.4,3.5,183.66,2.86h0Z"/><path class="cls-2" d="M183.66,2.86A35.56,35.56,0,0,0,146.5,37.66v0.26a35.94,35.94,0,0,0,4.26,18.15c-0.2,5-7.83,24-7.83,24s17.77-8.82,21.92-9.84a34.59,34.59,0,0,0,16.47,4.34c20.88,0.65,36.72-15.14,37.3-34.67V39.63C219.17,20,204.4,3.5,183.66,2.86h0Z"/><path class="cls-12" d="M191.55,26.69a10.2,10.2,0,0,1,2.51-3.1,9,9,0,0,1,3.51-1.76,10.65,10.65,0,0,1,4.31-.15,11.58,11.58,0,0,1,3.71,1.19,8.64,8.64,0,0,1,2.69,2.2,7.87,7.87,0,0,1,1.5,3.08,9.85,9.85,0,0,1,.1,3.89,8.53,8.53,0,0,1-.72,2.42A9,9,0,0,1,208,36.31a10.39,10.39,0,0,1-1.48,1.46q-0.81.65-1.63,1.25t-1.61,1.14a11.78,11.78,0,0,0-1.47,1.27A7.16,7.16,0,0,0,200.64,43a6.07,6.07,0,0,0-.66,2v0a1.73,1.73,0,0,1-2,1.45l-0.36-.06a1.73,1.73,0,0,1-1.45-2l0.06-.38A8.72,8.72,0,0,1,197.44,41a10.21,10.21,0,0,1,1.83-2.11,20.27,20.27,0,0,1,2.12-1.61,20.89,20.89,0,0,0,2.06-1.55,8.11,8.11,0,0,0,1.64-1.91,6.38,6.38,0,0,0,.84-2.74A5.82,5.82,0,0,0,205,27a5.25,5.25,0,0,0-3.59-2,6.19,6.19,0,0,0-2.85.15,5.76,5.76,0,0,0-2.18,1.26,6.33,6.33,0,0,0-1.5,2.14,10.33,10.33,0,0,0-.48,1.35,1.73,1.73,0,0,1-1.93,1.24l-0.37-.06a1.73,1.73,0,0,1-1.41-2.19A11.4,11.4,0,0,1,191.55,26.69Zm7.55,27.5-0.06.38a2.31,2.31,0,0,1-2.64,1.93L196,56.43a2.31,2.31,0,0,1-1.93-2.64l0.06-.38a2.31,2.31,0,0,1,2.64-1.93l0.38,0.06A2.31,2.31,0,0,1,199.1,54.19Z"/><path class="cls-8" d="M172.4,44.45s0.06-.28.12-0.7c0-.22.07-0.47,0.09-0.75s0.06-.59,0-0.92a10.69,10.69,0,0,0-.15-2.08,3.3,3.3,0,0,0-.7-1.64l-0.14-.14s-0.06,0,0,0l-0.08,0-0.15-.09a2.48,2.48,0,0,0-.38-0.2,1.36,1.36,0,0,0-.73-0.1,1.71,1.71,0,0,0-.77.37,3.84,3.84,0,0,0-.66.73,6.89,6.89,0,0,0-.79,1.47c-0.16.39-.24,0.64-0.24,0.64a4.15,4.15,0,0,1-.16-0.68,5.1,5.1,0,0,1,.08-1.9,4.15,4.15,0,0,1,.53-1.27,3.15,3.15,0,0,1,1.28-1.19,3.21,3.21,0,0,1,2-.26,4.25,4.25,0,0,1,1,.29L172.71,36l0.08,0,0.15,0.08a3.61,3.61,0,0,1,.45.28A3.92,3.92,0,0,1,174.65,38a4.93,4.93,0,0,1,.36,1.75,5.56,5.56,0,0,1-.68,2.8,5.37,5.37,0,0,1-.65.92,3.83,3.83,0,0,1-.63.59A2.31,2.31,0,0,1,172.4,44.45Z"/><path class="cls-8" d="M176.36,42.91a4.06,4.06,0,0,0,.34-1.44,10.37,10.37,0,0,0-.5-3.75,11.44,11.44,0,0,0-1-2.27,7.46,7.46,0,0,0-1.63-2,4.64,4.64,0,0,0-2.3-1.1,6.31,6.31,0,0,0-1.33,0c-0.22,0-.49.07-0.66,0.11l-0.4.1-0.28.1a4.62,4.62,0,0,0-2.06,1.62,6.82,6.82,0,0,0-1.06,2.55,12,12,0,0,0,.19,5.24,14.56,14.56,0,0,0,1.41,3.61,13.24,13.24,0,0,0,.79,1.29l-0.29-.27a10.33,10.33,0,0,1-.79-0.81,12.51,12.51,0,0,1-2.13-3.48,11.88,11.88,0,0,1-.85-5.85A8.07,8.07,0,0,1,165,33.17a6.7,6.7,0,0,1,1.24-1.45,6.51,6.51,0,0,1,1.68-1l0.49-.18,0.4-.11c0.36-.09.63-0.13,1-0.18a6.26,6.26,0,0,1,5.2,1.74,8.48,8.48,0,0,1,1.84,2.73,10.74,10.74,0,0,1,.76,2.74,8.75,8.75,0,0,1-.34,4.14,4.13,4.13,0,0,1-.55,1Z"/><path class="cls-8" d="M163.12,30.79s0-.27,0-0.72a2.8,2.8,0,0,1,.15-0.82l0.15-.52c0.07-.18.16-0.34,0.25-0.53a5.19,5.19,0,0,1,.72-1.13A7.15,7.15,0,0,1,165.47,26a7.43,7.43,0,0,1,1.34-.87,8.6,8.6,0,0,1,1.53-.62,9.64,9.64,0,0,1,3.18-.36,8.72,8.72,0,0,1,1.45.23l0.65,0.17,0.59,0.24a5,5,0,0,1,1,.49,3.66,3.66,0,0,1,.68.48c0.36,0.3.54,0.48,0.54,0.48s-0.27,0-.71-0.1a15,15,0,0,0-1.76-.18c-0.36,0-.74,0-1.14,0S172,26,171.54,26s-0.87.09-1.3,0.2a12.2,12.2,0,0,0-1.3.31,11,11,0,0,0-1.25.45c-0.2.09-.4,0.17-0.6,0.26l-0.56.3a10.92,10.92,0,0,0-1,.66,9,9,0,0,0-.84.72,6.23,6.23,0,0,0-.65.69,4,4,0,0,0-.48.62C163.28,30.59,163.12,30.79,163.12,30.79Z"/><path class="cls-8" d="M172.78,50.59s-0.41.21-1.14,0.52a8.92,8.92,0,0,1-1.47.34c-0.29,0-.6,0-0.94,0h-0.52l-0.53-.1a7.51,7.51,0,0,1-2.26-.78c-0.36-.22-0.76-0.42-1.12-0.67s-0.71-.54-1.06-0.85-0.66-.64-1-1-0.6-.72-0.88-1.11-0.53-.79-0.77-1.2-0.45-.84-0.66-1.27-0.38-.88-0.55-1.32-0.31-.9-0.43-1.35a14.29,14.29,0,0,1-.47-2.74,11.16,11.16,0,0,1,0-1.32c0-.42.06-0.86,0.1-1.26a12.76,12.76,0,0,1,.45-2.23,11,11,0,0,1,1.4-3.07,6.84,6.84,0,0,1,.78-1s-0.13.44-.3,1.2a18.78,18.78,0,0,0-.4,3.12c0,0.64,0,1.33,0,2.06a17.72,17.72,0,0,0,.27,2.23,19.07,19.07,0,0,0,.6,2.29,23.72,23.72,0,0,0,.91,2.29l0.55,1.11L164,45.53l0.67,1,0.72,0.9c0.25,0.28.52,0.53,0.76,0.8s0.54,0.46.8,0.69a8.74,8.74,0,0,0,1.66,1L169,50.11l0.41,0.12c0.27,0.08.53,0.17,0.77,0.23,0.49,0,.93.16,1.33,0.15C172.32,50.58,172.78,50.59,172.78,50.59Z"/><path class="cls-8" d="M182.57,35.83a7.91,7.91,0,0,1,.6,1.39,12.63,12.63,0,0,1,.68,4,11.94,11.94,0,0,1-3.3,8.51c-0.42.44-.78,0.79-1.21,1.17s-0.86.74-1.3,1.09a26.56,26.56,0,0,1-5.64,3.32c-1.9.82-3.71,1.41-5.22,1.91a16.35,16.35,0,0,0-3.47,1.49,6,6,0,0,0-.85.65l-0.27.28,0.15-.37a4.68,4.68,0,0,1,.62-0.95,11.65,11.65,0,0,1,3.2-2.46c1.42-.84,3.1-1.65,4.81-2.62a38.91,38.91,0,0,0,5.06-3.31c0.4-.32.8-0.64,1.17-1s0.81-.7,1.12-1a12.43,12.43,0,0,0,1.77-2.15,13.18,13.18,0,0,0,1.84-4.71,18.87,18.87,0,0,0,.3-3.77C182.64,36.38,182.57,35.83,182.57,35.83Z"/><path class="cls-8" d="M185.36,45.89l0.06,0.26c0,0.17.11,0.42,0.14,0.75a8,8,0,0,1-.18,2.81,8.45,8.45,0,0,1-.68,1.81,9.67,9.67,0,0,1-1.19,1.8,11.52,11.52,0,0,1-1.62,1.62,15.36,15.36,0,0,1-1.9,1.34,20.3,20.3,0,0,1-7.89,2.57,16.83,16.83,0,0,1-3.74.07s0.34-.16.94-0.41l2.45-1a58.45,58.45,0,0,0,7-3.31c0.58-.35,1.16-0.71,1.69-1.11a15.69,15.69,0,0,0,1.49-1.22,11.79,11.79,0,0,0,1.22-1.31,11,11,0,0,0,.92-1.34,12.16,12.16,0,0,0,.62-1.27c0.18-.4.27-0.75,0.38-1.05C185.25,46.25,185.36,45.89,185.36,45.89Z"/><path class="cls-8" d="M185.73,41.94s0-.55-0.08-1.52c0-.48,0-1.07-0.06-1.73s-0.19-1.38-.27-2.15a7.05,7.05,0,0,0-.24-1.2l-0.28-1.28a8.23,8.23,0,0,0-.43-1.3c-0.18-.43-0.29-0.89-0.48-1.33a17.05,17.05,0,0,0-1.43-2.54,15.91,15.91,0,0,0-1.87-2.31l-1.13-1a10.49,10.49,0,0,0-1.21-.83c-0.21-.13-0.4-0.28-0.62-0.39L177,24.09a7.12,7.12,0,0,0-1.31-.55l-1.33-.4L173,22.9a7.39,7.39,0,0,0-1.27-.09,6.13,6.13,0,0,0-1.2,0,12.74,12.74,0,0,0-2.11.3,10.19,10.19,0,0,0-1.62.45c-0.87.34-1.41,0.53-1.41,0.53s0.41-.36,1.19-1a7.69,7.69,0,0,1,1.54-.9,9.73,9.73,0,0,1,2.2-.8,7.25,7.25,0,0,1,1.33-.24,7.51,7.51,0,0,1,1.46-.1l1.55,0.07c0.53,0.07,1.05.21,1.59,0.33a9,9,0,0,1,1.6.53l0.81,0.31c0.26,0.12.5,0.29,0.76,0.43a10.5,10.5,0,0,1,1.49,1l1.37,1.14a15.44,15.44,0,0,1,2.16,2.78,15.9,15.9,0,0,1,1.44,3.05c0.17,0.52.29,1,.4,1.55a9.61,9.61,0,0,1,.28,1.49,20.23,20.23,0,0,1,.14,2.76c-0.05.86-.13,1.64-0.2,2.31s-0.28,1.22-.38,1.69C185.89,41.41,185.73,41.94,185.73,41.94Z"/><path class="cls-8" d="M184.46,24.18l-0.33-.31c-0.22-.2-0.53-0.51-1-0.85a18.21,18.21,0,0,0-1.57-1.15,17.6,17.6,0,0,0-2.19-1.18,17.24,17.24,0,0,0-2.75-.93,18.2,18.2,0,0,0-3.18-.4,16.3,16.3,0,0,0-3.38.32,12.92,12.92,0,0,0-3.28,1.13,12.64,12.64,0,0,0-2.92,1.88,14.81,14.81,0,0,0-2.33,2.46,17.94,17.94,0,0,0-1.7,2.74,24.16,24.16,0,0,0-1.11,2.72c-0.29.87-.5,1.69-0.68,2.43s-0.28,1.39-.39,1.93c-0.15,1.08-.26,1.72-0.26,1.72s-0.07-.63-0.15-1.74c0-.55,0-1.24,0-2l0.1-1.25c0-.44.14-0.89,0.22-1.37a17.57,17.57,0,0,1,.85-3c0.2-.53.45-1.06,0.69-1.6a15.38,15.38,0,0,1,6.78-6.74,15,15,0,0,1,3.81-1.23,15.44,15.44,0,0,1,3.86-.17A14.5,14.5,0,0,1,180,19.64a13.55,13.55,0,0,1,2.12,1.61,12.82,12.82,0,0,1,1.38,1.5,9.05,9.05,0,0,1,.74,1.05Z"/><path class="cls-8" d="M179.73,41.61s0,0.27-.06.72c0,0.23-.06.5-0.11,0.81a9.1,9.1,0,0,1-.36,1.06,4.91,4.91,0,0,1-.63,1.19,5.71,5.71,0,0,1-1,1.18,3.15,3.15,0,0,1-.63.52,6.77,6.77,0,0,1-.71.47,6.4,6.4,0,0,1-1.66.59,3.45,3.45,0,0,1-.89.11,4.11,4.11,0,0,1-.9,0,8.63,8.63,0,0,1-.88-0.18c-0.28-.11-0.56-0.22-0.82-0.34a4,4,0,0,1-1.29-1.1,2.06,2.06,0,0,1-.4-0.67,2.3,2.3,0,0,1-.22-0.69c0-.23-0.06-0.44-0.07-0.65a2.51,2.51,0,0,1,.08-0.56,2.13,2.13,0,0,1,.27-0.83,6.58,6.58,0,0,1,.37-0.63s0,0.28,0,.71A2.43,2.43,0,0,0,170,44a2.65,2.65,0,0,0,.33.82,1.26,1.26,0,0,0,.29.37,1.16,1.16,0,0,0,.35.33,3.35,3.35,0,0,0,.91.48c0.18,0,.36.08,0.54,0.14L173,46.22a3.39,3.39,0,0,0,.59,0,2,2,0,0,0,.6-0.09,6.18,6.18,0,0,0,1.18-.36,8.76,8.76,0,0,0,1.08-.61,6.68,6.68,0,0,0,.95-0.75,7.84,7.84,0,0,0,.79-0.79l0.65-.74c0.17-.26.33-0.49,0.47-0.67C179.55,41.81,179.73,41.61,179.73,41.61Z"/><path class="cls-8" d="M166.42,53.84a3.62,3.62,0,0,1-.64,0,6.54,6.54,0,0,1-1.65-.27,8.6,8.6,0,0,1-3.26-1.76,8.27,8.27,0,0,1-1-1,9.36,9.36,0,0,1-.84-1.13A8.67,8.67,0,0,1,158,47.32a6.07,6.07,0,0,1-.21-1.1,6.35,6.35,0,0,1,0-1.66c0-.4.07-0.62,0.07-0.62s0.14,0.2.34,0.54c0.1,0.17.22,0.37,0.34,0.61s0.3,0.48.44,0.76,0.31,0.57.52,0.86,0.38,0.61.6,0.92,0.43,0.63.68,0.93,0.46,0.63.75,0.91a19.84,19.84,0,0,0,1.62,1.68c0.56,0.51,1.1,1,1.6,1.37C165.66,53.3,166.42,53.84,166.42,53.84Z"/><path class="cls-8" d="M180,38.91s0-.3,0-0.82c0-.26-0.06-0.56-0.07-0.9s-0.12-.72-0.16-1.12-0.17-.84-0.33-1.28a11.84,11.84,0,0,0-.49-1.35,9.41,9.41,0,0,0-.7-1.31,9.61,9.61,0,0,0-.89-1.2,8.1,8.1,0,0,0-1.11-1,9.43,9.43,0,0,0-1.24-.75c-0.46-.14-0.87-0.39-1.32-0.48L173,28.57a2.64,2.64,0,0,0-.63-0.13c-0.41,0-.79-0.11-1.14-0.17l-0.91-.06c-0.51,0-.82-0.09-0.82-0.09s0.26-.13.75-0.33c0.25-.09.55-0.22,0.9-0.33s0.77-.16,1.23-0.23a7,7,0,0,1,1.51-.05,9.23,9.23,0,0,1,1.71.28,7.76,7.76,0,0,1,1.72.8,7.88,7.88,0,0,1,1.53,1.24A8.7,8.7,0,0,1,180,31.11a4.23,4.23,0,0,1,.4.86,6.69,6.69,0,0,1,.29.86,9.42,9.42,0,0,1,.26,3.19,7.78,7.78,0,0,1-.56,2.16C180.13,38.65,180,38.91,180,38.91Z"/><path class="cls-8" d="M162.6,56.33a2.09,2.09,0,0,1-.86.25,2.26,2.26,0,0,1-1.54-.45,2.22,2.22,0,0,1-.87-1.39,1.81,1.81,0,0,1,0-.9l0.27,0a5.59,5.59,0,0,1,.58.09,2.84,2.84,0,0,1,1.23.51,2.87,2.87,0,0,1,.85,1.07A4,4,0,0,1,162.6,56.33Z"/></svg>