<?xml version="1.0" encoding="utf-8"?>
<!-- Generator: Adobe Illustrator 19.1.0, SVG Export Plug-In . SVG Version: 6.00 Build 0)  -->
<svg version="1.1" xmlns="http://www.w3.org/2000/svg" xmlns:xlink="http://www.w3.org/1999/xlink" x="0px" y="0px" width="140.9px"
	 height="101.4px" viewBox="0 0 140.9 101.4" style="enable-background:new 0 0 140.9 101.4;" xml:space="preserve">
<style type="text/css">
	.st0{display:none;}
	.st1{display:inline;fill:#F05135;}
	.st2{display:inline;fill:#083B54;}
	.st3{display:inline;fill:#6ACAD1;}
	.st4{display:inline;fill:#F59223;}
	.st5{display:inline;fill:none;stroke:#F05135;stroke-width:2.5;stroke-miterlimit:10;}
	.st6{display:inline;fill:none;stroke:#083B54;stroke-width:2.5;stroke-miterlimit:10;}
	.st7{display:inline;fill:none;stroke:#6ACAD1;stroke-width:2.5;stroke-miterlimit:10;}
	.st8{display:inline;fill:none;stroke:#F59223;stroke-width:2.5;stroke-miterlimit:10;}
	.st9{display:inline;fill:#FDD9C8;stroke:#F05135;stroke-width:2.5;stroke-miterlimit:10;}
	.st10{display:inline;fill:#D3D5DB;stroke:#083B54;stroke-width:2.5;stroke-miterlimit:10;}
	.st11{display:inline;fill:#E0F2F3;stroke:#6ACAD1;stroke-width:2.5;stroke-miterlimit:10;}
	.st12{display:inline;fill:#FEE5CB;stroke:#F59223;stroke-width:2.5;stroke-miterlimit:10;}
	.st13{display:inline;fill:#FFFFFF;stroke:#F05135;stroke-width:2.5;stroke-miterlimit:10;}
	.st14{display:inline;fill:#FFFFFF;stroke:#083B54;stroke-width:2.5;stroke-miterlimit:10;}
	.st15{display:inline;fill:#FFFFFF;stroke:#6ACAD1;stroke-width:2.5;stroke-miterlimit:10;}
	.st16{display:inline;fill:#FFFFFF;stroke:#F59223;stroke-width:2.5;stroke-miterlimit:10;}
	.st17{display:inline;}
	.st18{display:inline;fill:#FFFFFF;}
	.st19{fill:#FFFFFF;}
	.st20{fill:#E0F2F3;}
	.st21{fill:#D3D5DB;stroke:#D3D5DB;stroke-linejoin:round;stroke-miterlimit:10;}
	.st22{fill:#FFFFFF;stroke:#6ACAD1;stroke-width:2.5;stroke-linejoin:round;stroke-miterlimit:10;}
	.st23{fill:#063B54;}
	.st24{fill:#FFFFFF;stroke:#6ACAD1;stroke-width:2.5;stroke-miterlimit:10;}
	.st25{fill:#E0F2F3;stroke:#6ACAD1;stroke-width:2.5;stroke-linejoin:round;stroke-miterlimit:10;}
	.st26{fill:none;stroke:#6ACAD1;stroke-width:1.5;stroke-miterlimit:10;}
	.st27{fill:#D3D5DB;}
	.st28{fill:#E0F2F3;stroke:#6ACAD1;stroke-width:2.5;stroke-miterlimit:10;}
	.st29{fill:#083B54;}
	.st30{fill:#F05135;}
	.st31{fill:#F59223;}
	.st32{fill:none;stroke:#6ACAD1;stroke-width:2.5;stroke-miterlimit:10;}
	.st33{fill:none;stroke:#F05135;stroke-miterlimit:10;}
	.st34{fill:none;stroke:#D3D5DB;stroke-width:0.5;stroke-miterlimit:10;}
	.st35{fill:#083B54;stroke:#063B54;stroke-width:0.5;stroke-linejoin:round;stroke-miterlimit:10;}
	.st36{fill:none;stroke:#063B54;stroke-width:0.7;stroke-miterlimit:10;}
	.st37{fill:none;stroke:#D3D5DB;stroke-width:0.3;stroke-miterlimit:10;}
	.st38{fill:none;stroke:#6ACAD1;stroke-width:2.5;stroke-linejoin:round;stroke-miterlimit:10;}
	.st39{fill:none;stroke:#F05135;stroke-width:2.5;stroke-linecap:round;stroke-miterlimit:10;}
	.st40{fill:#083B54;stroke:#063B54;stroke-linejoin:round;stroke-miterlimit:10;}
	.st41{fill:none;stroke:#E0F2F3;stroke-miterlimit:10;}
	.st42{fill:none;stroke:#6ACAD1;stroke-linecap:round;stroke-linejoin:round;stroke-miterlimit:10;}
	.st43{fill:none;stroke:#6ACAD1;stroke-width:2.5;stroke-linecap:round;stroke-linejoin:round;stroke-miterlimit:10;}
	.st44{fill:#F05135;stroke:#F05235;stroke-linejoin:round;stroke-miterlimit:10;}
	.st45{fill:none;stroke:#F05135;stroke-width:2;stroke-linecap:round;stroke-miterlimit:10;}
	.st46{fill:none;stroke:#E0F2F3;stroke-width:1.5;stroke-linecap:round;stroke-miterlimit:10;}
	.st47{fill:none;stroke:#FCC941;stroke-width:2;stroke-miterlimit:10;}
	.st48{fill:#6ACAD1;}
	.st49{fill:none;stroke:#063B54;stroke-width:2.5;stroke-miterlimit:10;}
</style>
<g id="template" class="st0">
	<g class="st17">
		<g id="Kopayy_1_">
			
				<image style="overflow:visible;" width="949" height="694" id="Kopayy_2_" xlink:href="568ED000A37D090D.png"  transform="matrix(1 0 0 1 -108.6102 -382.2769)">
			</image>
		</g>
	</g>
</g>
<g id="Layer_3">
	<circle class="st20" cx="70.4" cy="50.7" r="50.7"/>
</g>
<g id="stuffs">
	<path class="st27" d="M139.3,83.4c-4.4-7.3-24.6-44.2-24.9-44.5c-0.1-0.1-22.6-7.9-22.6-7.9s-21.3,7.3-21.5,7.3
		C66.5,37.6,47,31.4,47,31.4s-23,6.1-23.1,6.2C23.5,37.7,2.1,82.1,1.6,83.7c-0.1,0.3,34.3-4.3,34.3-4.3s28.1,3.7,33.8,4.1
		c0.2,0,34-6.3,34-6.3S139.4,83.6,139.3,83.4z"/>
	<path class="st20" d="M139.3,79.6c-4.4-7.3-24.6-44.2-24.9-44.5c-0.1-0.1-22.6-7.9-22.6-7.9s-21.3,7.3-21.5,7.3
		C66.5,33.8,47,27.6,47,27.6s-23,6.1-23.1,6.2C23.5,33.9,2.1,78.3,1.6,79.9c-0.1,0.3,34.3-7.3,34.3-7.3s28.1,6.7,33.8,7.1
		c0.2,0,34-9.3,34-9.3S139.4,79.8,139.3,79.6z"/>
	<path class="st19" d="M91.8,27.2l-21.5,7.3l-0.5,45.3l34-9.3L91.8,27.2z"/>
	<path class="st19" d="M47,27.6c0,0-23,6.1-23.1,6.2C23.5,33.9,2.1,78.3,1.6,79.9c-0.1,0.3,34.3-7.3,34.3-7.3L47,27.6z"/>
	<path class="st32" d="M139.3,79.6c-4.4-7.3-24.6-44.2-24.9-44.5c-0.1-0.1-22.6-7.9-22.6-7.9s-21.3,7.3-21.5,7.3
		C66.5,33.8,47,27.6,47,27.6s-23,6.1-23.1,6.2C23.5,33.9,2.1,78.3,1.6,79.9c-0.1,0.3,34.3-7.3,34.3-7.3s28.1,6.7,33.8,7.1
		c0.2,0,34-9.3,34-9.3S139.4,79.8,139.3,79.6z"/>
	<path class="st27" d="M108.9,54.2c-2.3,0-3.3,1.1-2.4,2.6c0.9,1.4,6.3,4.2,6.8,4.2c0.5,0,2.3-2.7,1.4-4.2
		C113.7,55.3,111.1,54.2,108.9,54.2z M110.5,56.7c-0.7,0-1.5-0.4-1.8-0.8c-0.3-0.4,0.1-0.8,0.8-0.8c0.7,0,1.5,0.4,1.8,0.8
		C111.6,56.4,111.2,56.7,110.5,56.7z"/>
	<path class="st27" d="M31.2,42c-2.3,0-3.3,1.1-2.4,2.6c0.9,1.4,6.3,4.2,6.8,4.2c0.5,0,2.3-2.7,1.4-4.2C36,43.1,33.4,42,31.2,42z
		 M32.8,44.6c-0.7,0-1.5-0.4-1.8-0.8c-0.3-0.4,0.1-0.8,0.8-0.8c0.7,0,1.5,0.4,1.8,0.8C33.9,44.2,33.5,44.6,32.8,44.6z"/>
	<path class="st27" d="M55.8,62.3c-2.3,0-3.3,1.1-2.4,2.6c0.9,1.4,6.3,4.2,6.8,4.2c0.5,0,2.3-2.7,1.4-4.2
		C60.6,63.5,58,62.3,55.8,62.3z M57.4,64.9c-0.7,0-1.5-0.4-1.8-0.8c-0.3-0.4,0.1-0.8,0.8-0.8c0.7,0,1.5,0.4,1.8,0.8
		C58.5,64.5,58.2,64.9,57.4,64.9z"/>
	<path class="st29" d="M35.6,35.3c-2.8,0-5.1,2.3-5.1,5.1c0,2.8,4.5,8.3,5.1,8.3c0.6,0,5.1-5.5,5.1-8.3
		C40.7,37.6,38.4,35.3,35.6,35.3z M35.6,40.4c-0.9,0-1.6-0.7-1.6-1.6c0-0.9,0.7-1.6,1.6-1.6c0.9,0,1.6,0.7,1.6,1.6
		C37.2,39.7,36.5,40.4,35.6,40.4z"/>
	<path class="st29" d="M60.2,55.6c-2.8,0-5.1,2.3-5.1,5.1c0,2.8,4.5,8.3,5.1,8.3c0.6,0,5.1-5.5,5.1-8.3C65.3,57.9,63,55.6,60.2,55.6
		z M60.2,60.7c-0.9,0-1.6-0.7-1.6-1.6c0-0.9,0.7-1.6,1.6-1.6c0.9,0,1.6,0.7,1.6,1.6C61.8,60,61.1,60.7,60.2,60.7z"/>
	<path class="st29" d="M113.6,47.3c-2.8,0-5.1,2.3-5.1,5.1c0,2.8,4.5,8.3,5.1,8.3c0.6,0,5.1-5.5,5.1-8.3
		C118.7,49.6,116.4,47.3,113.6,47.3z M113.6,52.4c-0.9,0-1.6-0.7-1.6-1.6c0-0.9,0.7-1.6,1.6-1.6c0.9,0,1.6,0.7,1.6,1.6
		C115.2,51.7,114.5,52.4,113.6,52.4z"/>
	<path class="st27" d="M83,34.6c-1.2-1.8-4.2-3.2-7.1-3.6c-0.1,0.5-0.3,0.9-0.5,1.3c0.1,0,0.2,0,0.3,0c1,0,2.2,0.5,2.6,1.1
		c0.4,0.6-0.1,1.1-1.1,1.1c-0.6,0-1.3-0.2-1.9-0.5l-3.5,1.1c2.2,2.1,8.5,5.3,9.2,5.3C81.7,40.6,84.3,36.6,83,34.6z"/>
	<path class="st30" d="M81.5,19.9c-4.3,0-7.8,3.5-7.8,7.8c0,4.3,6.8,12.7,7.8,12.7c0.9,0,7.8-8.4,7.8-12.7
		C89.2,23.4,85.7,19.9,81.5,19.9z M81.5,27.7c-1.3,0-2.4-1.1-2.4-2.4c0-1.3,1.1-2.4,2.4-2.4c1.3,0,2.4,1.1,2.4,2.4
		C83.9,26.6,82.8,27.7,81.5,27.7z"/>
</g>
</svg>
