<?xml version="1.0" encoding="utf-8"?>
<!-- Generator: Adobe Illustrator 19.1.0, SVG Export Plug-In . SVG Version: 6.00 Build 0)  -->
<svg version="1.1" id="Layer_1" xmlns="http://www.w3.org/2000/svg" xmlns:xlink="http://www.w3.org/1999/xlink" x="0px" y="0px"
	 width="343.4px" height="242px" viewBox="-291.1 330 343.4 242" style="enable-background:new -291.1 330 343.4 242;"
	 xml:space="preserve">
<style type="text/css">
	.st0{fill:none;stroke:#6AC9D0;stroke-width:4;stroke-linejoin:round;}
	.st1{fill:none;stroke:#6AC9D0;stroke-width:4;stroke-linecap:round;stroke-linejoin:round;}
	.st2{fill:#FFE5CA;stroke:#F59122;stroke-width:2.16;stroke-miterlimit:10;}
	.st3{opacity:0.3;fill:none;stroke:#F59122;stroke-width:2.16;stroke-miterlimit:10;enable-background:new    ;}
	.st4{fill:none;stroke:#C3E9EC;stroke-width:4;stroke-miterlimit:10;}
	.st5{clip-path:url(#SVGID_2_);}
	.st6{opacity:0.25;fill:#469DA1;enable-background:new    ;}
	.st7{fill:#469DA1;}
	.st8{opacity:0.25;fill:#6AC9D0;enable-background:new    ;}
	.st9{fill:#6AC9D0;}
	.st10{opacity:0.25;fill:#F59122;enable-background:new    ;}
	.st11{fill:#F59122;}
	.st12{opacity:0.25;fill:#EF5034;enable-background:new    ;}
	.st13{fill:#EF5034;}
	.st14{fill:none;stroke:#C3E9EC;stroke-width:4;stroke-linecap:round;stroke-miterlimit:10;}
</style>
<title>ipfs-illustrations-how</title>
<rect x="-288.1" y="413.5" class="st0" width="120.7" height="156.2"/>
<line class="st1" x1="-269.4" y1="439.3" x2="-186.2" y2="439.3"/>
<line class="st1" x1="-269.4" y1="460.8" x2="-186.2" y2="460.8"/>
<line class="st1" x1="-269.4" y1="482.3" x2="-186.2" y2="482.3"/>
<line class="st1" x1="-269.4" y1="503.9" x2="-186.2" y2="503.9"/>
<line class="st1" x1="-269.4" y1="525.4" x2="-232.9" y2="525.4"/>
<line class="st1" x1="-269.4" y1="546.9" x2="-232.9" y2="546.9"/>
<circle class="st2" cx="-202.4" cy="535.5" r="10.9"/>
<ellipse transform="matrix(-0.5881 -0.8088 0.8088 -0.5881 -754.5695 686.7017)" class="st3" cx="-202.4" cy="535.5" rx="3.2" ry="19.5"/>
<circle class="st4" cx="-191.6" cy="482.9" r="12.4"/>
<g>
	<defs>
		<circle id="SVGID_1_" cx="-47.3" cy="429.8" r="97.5"/>
	</defs>
	<clipPath id="SVGID_2_">
		<use xlink:href="#SVGID_1_"  style="overflow:visible;"/>
	</clipPath>
	<g class="st5">
		<path class="st6" d="M-143.6,330.8h53.4c1.1,0,2,0.9,2,2v53.4c0,1.1-0.9,2-2,2h-53.4c-1.1,0-2-0.9-2-2v-53.4
			C-145.6,331.7-144.7,330.8-143.6,330.8z"/>
		<path class="st7" d="M-106.3,374.1c-0.1,0.1-0.2,0.2-0.4,0.3c-0.4,0.2-0.8,0.4-1.3,0.4c-1.6,0.2-3.2,0-4.7-0.7
			c-1-0.5-1.9-1.1-2.7-1.8c-0.9-0.8-1.7-1.8-2.4-2.8c-0.6-1.1-1.2-2.3-1.5-3.6c-0.2-0.6-0.3-1.3-0.5-1.9c-0.1-0.7-0.2-1.3-0.3-2
			c-0.1-0.8,0-1.5,0.2-2.3c0.2-0.9,0.7-1.7,1.4-2.3c0.4-0.4,0.9-0.6,1.5-0.7c0.3,0,0.6,0,0.9,0l0,0h0.1l0,0h0.1h0.1
			c0.1,0,0.3,0.1,0.4,0.1c0.8,0.4,1.5,1.1,1.8,2c0.4,1.2,0.7,2.4,0.8,3.6c0.1,1,0.2,1.9,0.4,2.9c0.2,0.8,0.4,1.6,0.7,2.3
			c0.2,0.6,0.5,1.2,0.8,1.7c0.3,0.5,0.5,0.8,0.7,1.1l0.3,0.4l-0.4-0.2c-0.4-0.2-0.7-0.5-1.1-0.8c-0.5-0.5-1-1-1.4-1.5
			c-0.5-0.7-1-1.5-1.3-2.4c-0.4-1-0.7-2-1-3l-0.2-0.8c0-0.3-0.1-0.5-0.2-0.8c-0.1-0.5-0.3-0.9-0.5-1.4c-0.1-0.2-0.3-0.5-0.5-0.6
			c0,0,0.1,0,0,0h-0.1h0h0.1l0,0c-0.1,0-0.1,0.1-0.2,0.1c-0.5,0.7-0.7,1.5-0.6,2.3c0,0.5,0.1,1.2,0.2,1.7s0.2,1.2,0.3,1.7
			c0.2,1.1,0.6,2.1,1.1,3.1c0.4,0.9,0.9,1.8,1.6,2.6c0.6,0.7,1.3,1.3,2.1,1.9c0.7,0.4,1.4,0.8,2.1,1.1c0.6,0.2,1.2,0.4,1.8,0.4
			c0.4,0,0.8,0,1.2-0.1C-106.6,374.2-106.4,374.1-106.3,374.1z"/>
		<path class="st7" d="M-109,364c0,0-0.2-0.6-0.5-1.8c-0.1-0.6-0.3-1.3-0.4-2c-0.2-0.7-0.4-1.7-0.6-2.5c-0.3-0.9-0.7-1.7-1.3-2.4
			c-0.3-0.3-0.7-0.7-1.1-0.9c-0.1-0.1-0.5-0.3-0.7-0.4c-0.2-0.1-0.4-0.2-0.7-0.3c-1-0.3-2-0.4-3-0.1c-1,0.3-2,0.8-2.8,1.6
			c-0.4,0.4-0.8,0.8-1.1,1.3c-0.1,0.1-0.2,0.3-0.2,0.3l-0.3,0.4c-0.1,0.2-0.2,0.4-0.4,0.7c-0.4,1-0.7,2.1-0.8,3.2
			c0,1.1,0,2.2,0.2,3.2c0.2,1,0.5,1.9,0.9,2.9c0.6,1.4,1.4,2.8,2.4,4c0.4,0.4,0.7,0.8,0.9,1l0.4,0.3l-0.4-0.2
			c-0.4-0.2-0.8-0.4-1.2-0.7c-1.4-1-2.5-2.2-3.4-3.6c-0.6-1-1.1-2-1.4-3.1c-0.4-1.2-0.7-2.5-0.7-3.8c-0.1-1.4,0.2-2.9,0.7-4.2
			c0.1-0.4,0.3-0.7,0.5-1.1l0.3-0.4c0.1-0.2,0.2-0.3,0.3-0.5c0.4-0.6,0.9-1.2,1.5-1.7c1.1-1.1,2.5-1.8,4-2.2
			c1.9-0.4,3.9-0.1,5.5,0.9c0.3,0.2,0.6,0.4,0.8,0.6c0.6,0.4,1,0.9,1.4,1.5c0.7,1,1.1,2.2,1.2,3.4c0.1,0.9,0.2,1.9,0.1,2.8
			c0,0.8-0.1,1.5-0.1,2.1L-109,364z"/>
		<path class="st7" d="M-107.3,367.8c0,0,0.1-0.7,0.2-1.8s0.4-2.8,0.6-4.7c0.3-2.1,0.3-4.2,0.1-6.3c-0.1-1.1-0.5-2.1-1-3.1
			c-0.5-0.9-1.3-1.8-2.1-2.4c-0.4-0.3-0.9-0.6-1.4-0.9l-0.4-0.2l-0.4-0.1c-0.3-0.1-0.5-0.2-0.8-0.2c-1.1-0.3-2.2-0.4-3.4-0.3
			c-1.1,0-2.2,0.2-3.2,0.4c-1,0.2-1.9,0.6-2.8,1c-1.4,0.6-2.6,1.5-3.5,2.7c-0.3,0.3-0.5,0.7-0.7,1.1l-0.2,0.4v-0.5
			c0.1-0.5,0.2-0.9,0.3-1.3c0.6-1.6,1.7-2.9,3.1-3.8c0.9-0.7,1.9-1.2,3-1.6c1.2-0.5,2.4-0.8,3.6-0.9c1.4-0.2,2.8-0.1,4.1,0.1
			c0.4,0.1,0.7,0.2,1.1,0.3l0.6,0.2l0.5,0.2c0.7,0.3,1.3,0.7,1.9,1.1c1.2,0.9,2.2,2,2.9,3.4c0.6,1.3,0.9,2.7,1,4.1
			c0.1,1.2,0,2.5-0.2,3.7c-0.2,1.1-0.4,2.1-0.7,3.2c-0.5,1.5-1,3-1.6,4.5C-107.1,367.2-107.3,367.8-107.3,367.8z"/>
		<path class="st7" d="M-127.9,357.1c0,0-0.1,0.5-0.1,1.4c0,1.2,0,2.4,0.2,3.6c0.2,1.7,0.6,3.3,1.3,4.9c0.4,0.8,0.8,1.7,1.3,2.4
			c0.3,0.4,0.6,0.8,0.8,1.1l0.2,0.3l0.1,0.1l0.1,0.1l0.5,0.6c0.4,0.4,0.7,0.6,1,1s0.7,0.6,1.1,0.9c0.7,0.5,1.5,1,2.4,1.5
			c0.8,0.4,1.6,0.7,2.4,1c0.7,0.3,1.5,0.5,2.3,0.6c0.7,0.1,1.3,0.2,2,0.3c0.3,0,0.6,0,0.9,0c0.2,0,0.5,0,0.7,0c0.3,0,0.7-0.1,1-0.1
			l0.4-0.1l-0.3,0.2c-0.3,0.2-0.7,0.4-1,0.5c-0.5,0.2-1.1,0.4-1.6,0.5c-0.7,0.1-1.5,0.2-2.2,0.2c-0.9,0-1.8-0.1-2.6-0.3
			c-1-0.2-1.9-0.5-2.8-0.9c-1-0.4-1.9-0.9-2.8-1.5c-0.5-0.3-0.9-0.7-1.3-1s-0.9-0.8-1.2-1.2l-0.5-0.6l-0.1-0.1
			c-0.1-0.1-0.1-0.1-0.2-0.2l-0.2-0.3c-0.3-0.4-0.6-0.9-0.9-1.4c-1.5-2.5-2.2-5.4-2-8.4c0.1-1.3,0.3-2.5,0.7-3.8
			C-128.3,358-128.1,357.5-127.9,357.1z"/>
		<path class="st7" d="M-131.1,366.1c0,0,0.1,0.4,0.3,1c0.1,0.3,0.2,0.7,0.3,1.1s0.4,0.9,0.5,1.3c0.2,0.5,0.4,1,0.7,1.5
			c0.3,0.5,0.6,1.1,0.9,1.6c0.3,0.5,0.8,1,1.1,1.5c0.4,0.5,0.9,1,1.4,1.4c0.5,0.4,1,0.9,1.5,1.3c0.6,0.3,1.1,0.8,1.6,1.1
			c0.6,0.3,1.1,0.6,1.6,0.9c0.5,0.3,1.1,0.5,1.5,0.7c1,0.4,1.8,0.7,2.4,0.9s1,0.3,1,0.3l-0.3,0.1c-0.2,0.1-0.5,0.1-0.8,0.1
			c-0.9,0.1-1.9,0.1-2.8,0c-0.6-0.1-1.2-0.2-1.8-0.3c-0.7-0.2-1.4-0.4-2-0.7c-0.3-0.1-0.7-0.3-1-0.5c-0.3-0.2-0.7-0.4-1-0.6
			c-0.7-0.4-1.3-0.9-1.9-1.4c-0.6-0.5-1.1-1.1-1.6-1.8c-0.2-0.3-0.4-0.7-0.6-1c-0.2-0.3-0.4-0.7-0.5-1c-0.3-0.6-0.5-1.3-0.7-2
			c-0.2-0.6-0.3-1.2-0.3-1.9c0-0.6,0-1.1,0-1.6s0.1-0.8,0.2-1.2C-131.2,366.5-131.1,366.1-131.1,366.1z"/>
		<path class="st7" d="M-131.5,363.2c0,0-0.2-0.6-0.5-1.6c-0.1-0.5-0.3-1.1-0.4-1.9c-0.1-0.8-0.2-1.7-0.3-2.5c0-1,0-2,0.2-3
			c0.2-1.1,0.4-2.2,0.9-3.3c0.4-1.2,1-2.3,1.7-3.3c0.8-1,1.6-2,2.6-2.9c1-0.8,2.1-1.5,3.2-2.1c1.1-0.5,2.3-1,3.5-1.2
			c1.1-0.3,2.3-0.4,3.4-0.4c1,0,2,0.1,3,0.4c0.8,0.2,1.6,0.5,2.4,0.9c0.6,0.3,1.1,0.6,1.7,1c0.3,0.2,0.6,0.5,0.9,0.8l0.3,0.3
			l-0.4-0.2c-0.4-0.2-0.7-0.4-1.1-0.5c-0.3-0.1-0.5-0.2-0.8-0.3c-0.3-0.1-0.6-0.2-0.9-0.3c-0.8-0.2-1.5-0.3-2.3-0.4
			c-1.9-0.1-3.8,0.1-5.6,0.7c-1,0.4-2,0.8-2.9,1.3c-1,0.5-1.9,1.1-2.7,1.8c-1.6,1.4-3,3.1-3.9,5.1c-0.4,0.9-0.8,1.9-1.1,2.8
			c-0.1,0.5-0.2,0.9-0.3,1.4c-0.1,0.4-0.2,0.9-0.2,1.3c-0.1,0.9-0.2,1.7-0.2,2.4v1.9C-131.5,362.6-131.5,363.2-131.5,363.2z"/>
		<path class="st7" d="M-127.8,342.1c0,0,0.4-0.4,1.2-1.1l0.6-0.6c0.3-0.2,0.6-0.4,0.9-0.6c0.7-0.5,1.4-0.9,2.2-1.2l1.3-0.6
			c0.5-0.2,1-0.3,1.5-0.4c1.1-0.3,2.2-0.5,3.4-0.5c0.6,0,1.2,0,1.8,0.1c0.3,0,0.6,0,0.9,0.1l1,0.2c1.3,0.3,2.5,0.6,3.6,1.1l1.7,1
			c0.5,0.3,1,0.7,1.5,1.2c0.2,0.2,0.5,0.4,0.7,0.6l0.6,0.6c0.4,0.4,0.8,0.9,1.1,1.4c0.3,0.5,0.6,1,0.9,1.5c0.3,0.5,0.4,1,0.6,1.5
			c0.4,0.9,0.6,1.9,0.7,2.9c0.1,0.8,0.2,1.7,0.1,2.5c0,0.6-0.1,1.3-0.2,1.9c-0.2,1-0.3,1.6-0.3,1.6s-0.1-0.6-0.2-1.6
			c0-0.6-0.1-1.2-0.3-1.8l-0.3-1c-0.1-0.4-0.2-0.8-0.3-1.2c-0.3-0.9-0.6-1.7-1.1-2.5c-0.2-0.4-0.4-0.9-0.7-1.3s-0.6-0.8-0.9-1.2
			c-0.3-0.4-0.7-0.8-1.1-1.1l-0.6-0.6c-0.2-0.2-0.4-0.3-0.6-0.5c-0.4-0.3-0.8-0.7-1.3-0.9l-1.4-0.8c-1-0.4-2-0.8-3.1-1l-0.8-0.2
			c-0.3,0-0.5-0.1-0.8-0.1c-0.5-0.1-1-0.2-1.6-0.2c-1,0-2,0-3,0.1c-0.5,0.1-1,0.1-1.4,0.2l-1.3,0.3c-0.8,0.2-1.5,0.4-2.2,0.7
			c-0.3,0.1-0.6,0.2-0.9,0.3l-0.8,0.4C-127.3,341.9-127.8,342.1-127.8,342.1z"/>
		<path class="st7" d="M-101.7,358c0,0,0.1,0.3,0.2,0.8c0.2,0.7,0.3,1.3,0.3,2c0,1,0,2-0.2,2.9c-0.1,0.5-0.2,1.1-0.4,1.6
			c-0.2,0.6-0.4,1.1-0.6,1.6c-0.2,0.5-0.5,1-0.8,1.5c-0.3,0.5-0.6,0.9-1,1.4c-0.3,0.4-0.7,0.8-1.1,1.1c-0.4,0.3-0.8,0.6-1.2,0.8
			c-0.3,0.2-0.7,0.4-1.1,0.5c-0.3,0.1-0.6,0.2-0.9,0.3c-0.5,0.1-0.8,0.1-0.8,0.1s0.2-0.2,0.6-0.5l0.6-0.6c0.2-0.2,0.5-0.5,0.7-0.8
			s0.5-0.6,0.8-1s0.5-0.7,0.8-1.1c0.2-0.4,0.5-0.8,0.7-1.3s0.5-0.9,0.7-1.4c0.2-0.5,0.4-0.9,0.6-1.4l0.5-1.4
			c0.1-0.5,0.3-0.9,0.4-1.4s0.3-0.9,0.4-1.2c0.1-0.4,0.2-0.7,0.3-1.1l0.2-0.9C-101.8,358.2-101.7,358-101.7,358z"/>
		<path class="st7" d="M-114.8,380.7c0,0,1-0.3,2.2-0.7c0.6-0.2,1.4-0.5,2.1-0.8c0.4-0.1,0.7-0.3,1.1-0.5c0.4-0.2,0.7-0.4,1-0.6
			l0.5-0.3l0.5-0.4c0.3-0.2,0.6-0.5,0.9-0.8c0.3-0.3,0.5-0.5,0.7-0.8c0.2-0.3,0.4-0.5,0.6-0.8c0.2-0.3,0.4-0.5,0.5-0.8
			s0.3-0.4,0.4-0.6c0.2-0.3,0.4-0.6,0.4-0.6s0,0.2,0.1,0.7c0,0.2,0,0.5,0,0.8c0,0.3-0.1,0.7-0.2,1c-0.1,0.4-0.2,0.8-0.4,1.2
			c-0.2,0.4-0.4,0.8-0.6,1.2c-0.3,0.4-0.6,0.8-1,1.2c-0.2,0.2-0.4,0.4-0.6,0.5l-0.6,0.4c-0.4,0.3-0.9,0.5-1.4,0.7
			c-0.5,0.2-0.9,0.3-1.4,0.4c-0.8,0.2-1.7,0.2-2.5,0.2C-113.3,381.2-114.1,381-114.8,380.7z"/>
		<path class="st8" d="M-74,330.8h53.4c1.1,0,2,0.9,2,2v53.4c0,1.1-0.9,2-2,2H-74c-1.1,0-2-0.9-2-2v-53.4
			C-76,331.7-75.1,330.8-74,330.8z"/>
		<path class="st9" d="M-46.8,365.3c0,0,0.1-0.3,0.1-0.8c0-0.2,0.1-0.5,0.1-0.8c0-0.3,0.1-0.6,0-1c0-0.7,0-1.5-0.2-2.2
			c-0.1-0.6-0.3-1.2-0.8-1.8c0-0.1-0.1-0.1-0.1-0.1c0,0-0.1,0,0,0h-0.1l-0.2-0.1c-0.1-0.1-0.3-0.2-0.4-0.2c-0.2-0.1-0.5-0.1-0.8-0.1
			c-0.3,0.1-0.6,0.2-0.8,0.4c-0.3,0.2-0.5,0.5-0.7,0.8c-0.3,0.5-0.6,1-0.8,1.6c-0.2,0.4-0.2,0.7-0.2,0.7c-0.1-0.2-0.1-0.5-0.2-0.7
			c-0.1-0.7-0.1-1.3,0.1-2c0.1-0.5,0.3-0.9,0.6-1.4c0.3-0.5,0.8-1,1.4-1.3c0.7-0.3,1.4-0.4,2.1-0.3c0.3,0.1,0.7,0.2,1,0.3l0.2,0.1
			h0.1l0.2,0.1c0.2,0.1,0.3,0.2,0.5,0.3c0.6,0.4,1,1,1.3,1.7c0.2,0.6,0.4,1.2,0.4,1.9c0,1-0.2,2.1-0.7,3c-0.2,0.4-0.4,0.7-0.7,1
			c-0.2,0.2-0.4,0.4-0.7,0.6C-46.3,365.1-46.5,365.3-46.8,365.3z"/>
		<path class="st9" d="M-42.6,363.7c0.2-0.5,0.3-1,0.4-1.5c0.1-1.4-0.1-2.7-0.5-4c-0.2-0.8-0.6-1.7-1-2.4c-0.4-0.8-1-1.6-1.7-2.2
			c-0.7-0.6-1.6-1-2.5-1.2c-0.5-0.1-0.9-0.1-1.4,0c-0.2,0-0.5,0.1-0.7,0.1l-0.4,0.1l-0.3,0.1c-0.9,0.4-1.6,1-2.2,1.7
			c-0.6,0.8-0.9,1.7-1.1,2.7c-0.2,1-0.3,1.9-0.2,2.9c0,0.9,0.2,1.8,0.4,2.7c0.3,1.3,0.8,2.6,1.5,3.9c0.3,0.5,0.5,0.9,0.8,1.4
			l-0.3-0.3c-0.3-0.3-0.6-0.6-0.8-0.9c-1-1.1-1.7-2.4-2.3-3.7c-0.8-2-1.1-4.1-0.9-6.2c0.1-1.3,0.6-2.5,1.2-3.6
			c0.4-0.6,0.8-1.1,1.3-1.6c0.5-0.4,1.1-0.8,1.8-1.1l0.5-0.2l0.4-0.1c0.4-0.1,0.7-0.1,1-0.2c2-0.3,4.1,0.4,5.6,1.8
			c0.9,0.8,1.5,1.8,2,2.9c0.4,0.9,0.7,1.9,0.8,2.9c0.2,1.5,0.1,3-0.4,4.4c-0.1,0.4-0.3,0.8-0.6,1.1L-42.6,363.7z"/>
		<path class="st9" d="M-56.7,350.7c0,0,0-0.3,0-0.8c0-0.3,0.1-0.6,0.2-0.9l0.2-0.6c0.1-0.2,0.2-0.4,0.3-0.6
			c0.2-0.4,0.5-0.8,0.8-1.2c0.3-0.4,0.7-0.8,1.1-1.1c0.4-0.4,0.9-0.7,1.4-0.9c0.5-0.3,1.1-0.5,1.6-0.7c1.1-0.3,2.3-0.4,3.4-0.4
			c0.5,0,1,0.1,1.5,0.2l0.7,0.2l0.6,0.2c0.4,0.1,0.7,0.3,1,0.5c0.3,0.1,0.5,0.3,0.7,0.5c0.4,0.3,0.6,0.5,0.6,0.5s-0.3,0-0.8-0.1
			c-0.3-0.1-0.6-0.1-0.8-0.1c-0.3,0-0.7-0.1-1-0.1c-0.4,0-0.8,0-1.2,0s-0.9,0.1-1.3,0.1s-0.9,0.1-1.4,0.2c-0.5,0.1-0.9,0.2-1.4,0.3
			c-0.5,0.1-0.9,0.3-1.3,0.5c-0.2,0.1-0.4,0.2-0.6,0.3l-0.6,0.3c-0.4,0.2-0.7,0.4-1.1,0.7c-0.3,0.2-0.6,0.5-0.9,0.8
			c-0.3,0.2-0.5,0.5-0.7,0.7c-0.2,0.2-0.4,0.4-0.5,0.7C-56.5,350.5-56.7,350.7-56.7,350.7z"/>
		<path class="st9" d="M-46.4,371.9c0,0-0.4,0.2-1.2,0.6c-0.5,0.2-1,0.3-1.6,0.4c-0.3,0-0.6,0-1,0h-0.5l-0.6-0.1
			c-0.8-0.1-1.7-0.4-2.4-0.8c-0.4-0.2-0.8-0.5-1.2-0.7s-0.8-0.6-1.1-0.9s-0.7-0.7-1-1.1c-0.3-0.4-0.7-0.8-1-1.2s-0.6-0.8-0.8-1.3
			s-0.5-0.9-0.7-1.4s-0.4-0.9-0.6-1.4s-0.3-1-0.5-1.4c-0.3-1-0.4-1.9-0.5-2.9c0-0.5,0-0.9,0-1.4c0-0.4,0.1-0.9,0.1-1.3
			c0.1-0.8,0.2-1.6,0.5-2.4c0.3-1.2,0.8-2.3,1.5-3.3c0.2-0.3,0.4-0.5,0.6-0.8l0.2-0.3c0,0-0.1,0.5-0.3,1.3c-0.2,1.1-0.4,2.2-0.4,3.3
			c0,0.7,0,1.4,0,2.2c0,0.4,0.1,0.8,0.1,1.2s0.1,0.8,0.2,1.2c0.2,0.8,0.4,1.6,0.6,2.4c0.1,0.4,0.3,0.8,0.4,1.2s0.4,0.8,0.5,1.2
			l0.6,1.2l0.7,1.1l0.7,1.1l0.8,1c0.3,0.3,0.6,0.6,0.8,0.9s0.6,0.5,0.8,0.7c0.5,0.4,1.1,0.8,1.8,1.1l0.4,0.2l0.4,0.1
			c0.3,0.1,0.6,0.2,0.8,0.2c0.5,0,1,0.2,1.4,0.2C-46.9,371.9-46.4,371.9-46.4,371.9z"/>
		<path class="st9" d="M-35.9,356.1c0.3,0.5,0.5,1,0.6,1.5c0.5,1.4,0.7,2.8,0.7,4.2c0,2.1-0.5,4.3-1.5,6.2c-0.6,1.1-1.3,2.1-2.1,3
			c-0.2,0.2-0.5,0.5-0.6,0.6s-0.4,0.4-0.6,0.6c-0.5,0.4-0.9,0.8-1.4,1.2c-1,0.7-2,1.4-3,2c-1,0.6-2,1.1-3.1,1.5
			c-1,0.5-2,0.8-2.9,1.2s-1.8,0.6-2.6,0.9c-1.3,0.4-2.5,0.9-3.7,1.6c-0.3,0.2-0.6,0.4-0.9,0.7l-0.3,0.3l0.2-0.4
			c0.2-0.4,0.4-0.7,0.7-1c1-1.1,2.2-2,3.5-2.7c0.8-0.4,1.6-0.9,2.5-1.3l2.7-1.5c0.9-0.5,1.8-1.1,2.7-1.6c0.9-0.6,1.8-1.2,2.7-1.9
			c0.4-0.3,0.9-0.7,1.2-1c0.2-0.2,0.4-0.4,0.6-0.5s0.4-0.3,0.6-0.5c0.7-0.7,1.4-1.5,1.9-2.3c0.5-0.8,0.9-1.6,1.3-2.5
			c0.3-0.8,0.5-1.7,0.7-2.5c0.2-1.3,0.4-2.7,0.3-4C-35.9,356.7-35.9,356.1-35.9,356.1z"/>
		<path class="st9" d="M-33,366.9l0.1,0.3c0,0.2,0.1,0.5,0.1,0.8c0.1,1,0,2-0.2,3c-0.2,0.7-0.4,1.3-0.7,1.9
			c-0.3,0.7-0.8,1.3-1.3,1.9c-0.5,0.6-1.1,1.2-1.7,1.7c-0.6,0.5-1.3,1-2,1.4c-2.6,1.5-5.5,2.4-8.4,2.8c-1,0.1-1.9,0.2-2.9,0.1
			c-0.7,0-1.1-0.1-1.1-0.1s0.4-0.2,1-0.4l2.6-1.1c2.6-1,5.1-2.2,7.5-3.5c0.6-0.4,1.2-0.8,1.8-1.2c0.6-0.4,1.1-0.8,1.6-1.3
			c0.5-0.4,0.9-0.9,1.3-1.4c0.4-0.5,0.7-0.9,1-1.4c0.2-0.4,0.5-0.9,0.7-1.4c0.2-0.4,0.3-0.8,0.4-1.1C-33.1,367.2-33,366.9-33,366.9z
			"/>
		<path class="st9" d="M-32.5,362.6c0,0,0-0.6-0.1-1.6c0-0.5,0-1.1-0.1-1.9c-0.1-0.7-0.2-1.5-0.3-2.3c0-0.4-0.1-0.9-0.3-1.3
			c-0.1-0.4-0.2-0.9-0.3-1.4c-0.1-0.5-0.3-0.9-0.5-1.4c-0.2-0.5-0.3-1-0.5-1.4c-0.4-0.9-0.9-1.9-1.5-2.7c-0.6-0.9-1.2-1.7-2-2.5
			l-1.2-1c-0.4-0.3-0.8-0.6-1.3-0.9c-0.2-0.1-0.4-0.3-0.7-0.4l-0.7-0.3c-0.4-0.2-0.9-0.4-1.4-0.6l-1.4-0.4l-1.4-0.2
			c-0.4-0.1-0.9-0.1-1.4-0.1c-0.4,0-0.9,0-1.3,0c-0.8,0-1.5,0.2-2.2,0.3c-0.6,0.1-1.2,0.3-1.7,0.5c-0.9,0.4-1.5,0.6-1.5,0.6
			s0.4-0.4,1.3-1c0.5-0.4,1.1-0.7,1.6-1c0.7-0.4,1.5-0.7,2.4-0.9c0.5-0.1,0.9-0.2,1.4-0.3c0.5-0.1,1-0.1,1.6-0.1l1.7,0.1
			c0.6,0.1,1.1,0.2,1.7,0.4c0.6,0.1,1.2,0.3,1.7,0.6l0.9,0.3c0.3,0.1,0.5,0.3,0.8,0.5c0.6,0.3,1.1,0.6,1.6,1l1.5,1.2
			c0.9,0.9,1.6,1.9,2.3,3c0.6,1,1.1,2.1,1.5,3.3c0.2,0.6,0.3,1.1,0.4,1.7c0.1,0.5,0.2,1.1,0.3,1.6c0.1,1,0.2,2,0.1,2.9
			c-0.1,0.9-0.1,1.8-0.2,2.5s-0.3,1.3-0.4,1.8C-32.4,362.1-32.5,362.6-32.5,362.6z"/>
		<path class="st9" d="M-33.9,343.7l-0.4-0.3c-0.2-0.2-0.6-0.5-1-0.9c-0.6-0.4-1.1-0.9-1.7-1.2c-0.7-0.5-1.5-0.9-2.3-1.2
			c-1-0.4-1.9-0.8-2.9-1c-1.1-0.2-2.2-0.4-3.4-0.4c-1.2,0-2.4,0.1-3.6,0.3c-1.2,0.2-2.4,0.7-3.5,1.2c-1.1,0.5-2.2,1.2-3.1,2
			c-0.9,0.8-1.8,1.7-2.5,2.6c-0.7,0.9-1.3,1.9-1.8,2.9c-0.5,0.9-0.9,1.9-1.2,2.9c-0.3,0.9-0.5,1.8-0.7,2.6s-0.3,1.5-0.4,2.1
			c-0.2,1.2-0.3,1.8-0.3,1.8s-0.1-0.7-0.2-1.9c0-0.6,0-1.3,0-2.2l0.1-1.3c0-0.5,0.1-1,0.2-1.5c0.2-1.1,0.5-2.2,0.9-3.2
			c0.2-0.6,0.5-1.1,0.7-1.7c0.3-0.6,0.6-1.1,1-1.7c1.5-2.4,3.7-4.3,6.2-5.5c1.3-0.6,2.7-1.1,4.1-1.3c1.4-0.2,2.7-0.3,4.1-0.2
			c2.4,0.2,4.8,1,6.8,2.2c0.8,0.5,1.6,1.1,2.3,1.7c0.5,0.5,1,1,1.5,1.6c0.3,0.4,0.6,0.7,0.8,1.1L-33.9,343.7z"/>
		<path class="st9" d="M-39,362.3c0,0,0,0.3,0,0.8c0,0.3-0.1,0.6-0.1,0.9c-0.1,0.4-0.2,0.8-0.4,1.1c-0.2,0.4-0.4,0.9-0.7,1.3
			c-0.3,0.5-0.6,0.9-1,1.3c-0.9,0.9-2,1.4-3.2,1.7c-1.3,0.3-2.6,0.1-3.7-0.5c-0.5-0.3-1-0.7-1.4-1.2c-0.6-0.8-0.8-1.8-0.7-2.8
			c0.1-0.3,0.2-0.6,0.3-0.9c0.1-0.2,0.2-0.3,0.3-0.5l0.1-0.2v0.2c0,0.2,0,0.4,0,0.6c0,0.3,0.1,0.5,0.1,0.8c0.1,0.3,0.2,0.6,0.4,0.9
			c0.4,0.6,0.9,1,1.6,1.2c0.8,0.2,1.7,0.3,2.5,0.1c0.9-0.2,1.7-0.5,2.4-1c0.7-0.5,1.3-1,1.9-1.6c0.5-0.6,0.9-1.1,1.2-1.5
			C-39.1,362.6-39,362.3-39,362.3z"/>
		<path class="st9" d="M-53.2,375.3c-0.2,0-0.5,0-0.7,0c-0.6,0-1.2-0.1-1.8-0.3c-1.8-0.5-3.3-1.5-4.6-2.9c-0.3-0.4-0.6-0.8-0.9-1.2
			c-0.3-0.4-0.5-0.8-0.7-1.3c-0.2-0.4-0.3-0.8-0.4-1.3c-0.1-0.4-0.2-0.8-0.2-1.2c-0.1-0.3-0.1-0.7-0.1-1c0-0.3,0-0.6,0-0.8
			c0-0.4,0.1-0.7,0.1-0.7s0.1,0.2,0.4,0.6c0.1,0.2,0.2,0.4,0.4,0.6s0.3,0.5,0.5,0.8c0.2,0.3,0.3,0.6,0.6,0.9s0.4,0.7,0.6,1
			s0.5,0.7,0.7,1c0.3,0.3,0.5,0.7,0.8,1c0.5,0.6,1.1,1.2,1.7,1.8c0.6,0.5,1.2,1,1.7,1.5C-54,374.8-53.2,375.3-53.2,375.3z"/>
		<path class="st9" d="M-38.7,359.4c0,0,0-0.3,0-0.9c0-0.3-0.1-0.6-0.1-1c0-0.4-0.1-0.8-0.2-1.2s-0.2-0.9-0.4-1.4
			c-0.1-0.5-0.3-1-0.5-1.4c-0.2-0.5-0.5-1-0.8-1.4c-0.3-0.5-0.6-0.9-1-1.3c-0.4-0.4-0.8-0.7-1.2-1c-0.4-0.3-0.9-0.6-1.3-0.8
			c-0.5-0.1-0.9-0.4-1.4-0.5l-0.7-0.2c-0.2-0.1-0.4-0.1-0.7-0.1c-0.4,0-0.9-0.1-1.2-0.2c-0.4-0.1-0.7,0-1-0.1
			c-0.5,0-0.9-0.1-0.9-0.1s0.3-0.1,0.8-0.3c0.3-0.1,0.6-0.2,1-0.4s0.8-0.2,1.3-0.2c0.5-0.1,1.1-0.1,1.6-0.1c0.6,0,1.2,0.1,1.8,0.3
			c0.6,0.2,1.3,0.5,1.8,0.9c0.6,0.4,1.2,0.8,1.6,1.3c0.5,0.5,0.9,1.1,1.2,1.7c0.2,0.3,0.3,0.6,0.4,0.9c0.1,0.3,0.2,0.6,0.3,0.9
			c0.2,0.6,0.3,1.2,0.3,1.8c0,0.5,0,1.1,0,1.6c-0.1,0.4-0.1,0.9-0.2,1.3c-0.1,0.3-0.2,0.7-0.3,1C-38.5,359.1-38.7,359.4-38.7,359.4z
			"/>
		<path class="st9" d="M-57.3,378c-0.3,0.2-0.6,0.2-0.9,0.3c-0.6,0-1.2-0.1-1.6-0.5c-0.5-0.4-0.8-0.9-0.9-1.5
			c-0.1-0.3-0.1-0.7,0.1-1h0.3c0.2,0,0.4,0,0.6,0.1c0.5,0.1,0.9,0.3,1.3,0.5c0.4,0.3,0.7,0.7,0.9,1.1
			C-57.4,377.4-57.3,377.7-57.3,378z"/>
		<path class="st10" d="M-4.5,330.8h53.4c1.1,0,2,0.9,2,2v53.4c0,1.1-0.9,2-2,2H-4.5c-1.1,0-2-0.9-2-2v-53.4
			C-6.5,331.7-5.6,330.8-4.5,330.8z"/>
		<path class="st11" d="M15.6,363.4l0.2-0.1l0.4-0.2c0.4-0.2,0.9-0.5,1.2-0.9c0.5-0.4,0.9-0.9,1.2-1.5c0.3-0.5,0.4-1,0.4-1.5
			c0-0.1,0-0.1-0.1-0.2c-0.1-0.1-0.2-0.2-0.3-0.3c-0.2-0.2-0.4-0.3-0.6-0.3c-0.3,0-0.5,0-0.8,0.1c-0.3,0.1-0.5,0.3-0.8,0.5
			c-0.4,0.4-0.7,0.8-1,1.2c-0.1,0.2-0.2,0.4-0.3,0.5c0-0.2,0-0.4,0-0.7c0-0.6,0.2-1.2,0.5-1.7c0.2-0.4,0.5-0.7,0.8-1
			c0.4-0.4,0.9-0.6,1.5-0.7c0.6-0.1,1.3,0,1.8,0.4l0.4,0.2c0.1,0,0.1,0.1,0.2,0.1l0.2,0.2c0.3,0.3,0.5,0.6,0.6,0.9
			c0.2,0.6,0.3,1.3,0.1,2c-0.1,0.5-0.4,1.1-0.8,1.5c-0.6,0.7-1.4,1.3-2.3,1.6c-0.6,0.2-1.2,0.2-1.9,0.1c-0.2,0-0.3-0.1-0.5-0.1
			L15.6,363.4z"/>
		<path class="st11" d="M14.4,355.4l0.1-0.3c0.1-0.3,0.3-0.5,0.5-0.8c0.7-0.9,1.6-1.5,2.6-1.9c0.7-0.3,1.5-0.4,2.3-0.3
			c0.9,0.1,1.7,0.3,2.5,0.8c0.4,0.2,0.8,0.5,1.1,0.8c0.4,0.3,0.7,0.7,0.9,1.1c0.5,0.8,0.8,1.8,0.9,2.8c0.1,1.8-0.5,3.6-1.5,5.1
			c-0.9,1.2-2,2.2-3.4,2.9c-0.9,0.5-2,0.8-3,0.9c-0.3,0-0.6,0.1-0.9,0.1h-0.3l0.3-0.1c0.3-0.1,0.5-0.2,0.8-0.3
			c0.9-0.3,1.8-0.8,2.5-1.4c1.1-0.8,2-1.8,2.6-3c0.4-0.6,0.6-1.3,0.8-2c0.2-0.7,0.2-1.4,0.1-2.1c-0.1-0.6-0.3-1.2-0.6-1.8
			c-0.2-0.3-0.4-0.5-0.6-0.7c-0.2-0.2-0.5-0.4-0.8-0.5c-0.5-0.3-1.1-0.5-1.7-0.6c-0.6-0.1-1.1-0.1-1.7,0c-0.5,0.1-1,0.2-1.5,0.4
			c-0.4,0.1-0.8,0.3-1.2,0.5c-0.3,0.2-0.6,0.3-0.7,0.4L14.4,355.4z"/>
		<path class="st11" d="M12.2,351.4c0,0,0.1-0.3,0.4-0.8l0.2-0.4c0.1-0.1,0.2-0.3,0.4-0.4c0.3-0.4,0.6-0.7,1-0.9l0.6-0.5
			c0.2-0.1,0.5-0.3,0.7-0.4c0.5-0.3,1.1-0.5,1.7-0.7c0.6-0.2,1.3-0.3,1.9-0.4c0.7-0.1,1.3-0.1,2,0c0.7,0.1,1.3,0.2,2,0.4
			c0.6,0.2,1.2,0.4,1.8,0.7c0.5,0.3,1.1,0.6,1.5,0.9c0.4,0.3,0.8,0.7,1.2,1c0.2,0.2,0.3,0.3,0.5,0.5l0.4,0.5
			c0.2,0.3,0.4,0.6,0.5,0.9c0.2,0.5,0.4,0.8,0.4,0.8s-0.3-0.2-0.7-0.5c-0.3-0.2-0.5-0.3-0.8-0.5c-0.3-0.2-0.7-0.4-1.1-0.6
			c-0.4-0.2-0.8-0.4-1.3-0.6s-0.9-0.3-1.4-0.5s-1-0.3-1.6-0.4s-1.1-0.2-1.6-0.2c-0.5,0-1.1-0.1-1.6,0c-0.5,0-1.1,0.1-1.6,0.1
			s-1,0.1-1.5,0.3l-0.7,0.2l-0.6,0.2c-0.4,0.1-0.7,0.3-1.1,0.4l-0.5,0.2L13,351C12.5,351.2,12.2,351.4,12.2,351.4z"/>
		<path class="st11" d="M24.3,380.1c0,0-0.3,0.1-0.9,0.1s-1.4,0.2-2.3,0.2c-2.4,0.2-4.8,0-7.2-0.5c-0.7-0.2-1.3-0.4-2-0.6
			c-0.6-0.3-1.3-0.6-1.8-1c-0.3-0.2-0.6-0.4-0.8-0.6c-0.2-0.2-0.5-0.5-0.7-0.7c-0.4-0.5-0.7-1-0.9-1.6c-0.1-0.3-0.2-0.5-0.2-0.8
			l-0.1-0.7c0-0.2,0-0.4,0-0.6l0.1-0.5c0.1-0.3,0.1-0.6,0.2-0.9c0,0,0.2,0.3,0.4,0.8l0.2,0.4c0.1,0.1,0.2,0.3,0.3,0.4l0.3,0.5
			c0.1,0.1,0.3,0.3,0.4,0.4c0.3,0.3,0.6,0.6,1,0.8c0.2,0.1,0.4,0.2,0.6,0.3l0.3,0.2l0.4,0.1c0.2,0.1,0.5,0.2,0.7,0.3l0.8,0.3
			c0.5,0.1,1.1,0.3,1.7,0.5s1.2,0.3,1.7,0.4c0.6,0.1,1.2,0.3,1.7,0.4c1.1,0.3,2.2,0.6,3.2,0.9c0.8,0.3,1.5,0.6,2.2,1
			C24,379.9,24.3,380.1,24.3,380.1z"/>
		<path class="st11" d="M31.9,355.1c0,0,0.3,0.4,0.7,1c0.3,0.4,0.5,0.8,0.7,1.2c0.2,0.5,0.4,1.1,0.6,1.8c0.1,0.7,0.2,1.5,0.3,2.2
			l-0.1,1.2v0.6l-0.1,0.6c-0.1,0.4-0.2,0.9-0.3,1.3c-0.1,0.4-0.3,0.8-0.5,1.3c-0.2,0.4-0.4,0.8-0.6,1.2c-0.2,0.4-0.5,0.8-0.8,1.2
			c-0.6,0.8-1.2,1.5-1.9,2.1c-0.6,0.6-1.3,1.2-2,1.7c-0.7,0.5-1.4,0.9-2.1,1.3c-0.4,0.2-0.7,0.3-1,0.5l-1,0.4
			c-0.6,0.2-1.2,0.4-1.8,0.5c-0.5,0.1-1,0.1-1.4,0.2c-0.4,0-0.7,0-0.9,0h-0.3l1.1-0.5l1.1-0.7c0.4-0.3,0.9-0.6,1.4-1s1-0.8,1.6-1.2
			c0.6-0.5,1.1-1,1.7-1.4c0.6-0.5,1.1-1,1.6-1.7c0.5-0.6,1-1.2,1.5-1.8c0.2-0.3,0.4-0.6,0.6-1c0.2-0.3,0.4-0.7,0.6-1
			c0.2-0.3,0.3-0.7,0.5-1c0.2-0.3,0.2-0.7,0.4-1l0.2-0.5l0.1-0.5l0.2-1c0.1-0.7,0.1-1.3,0.2-1.9c0.1-0.6,0-1.1,0-1.6
			c0-0.5-0.1-0.9-0.1-1.4C32,355.5,31.9,355.1,31.9,355.1z"/>
		<path class="st11" d="M37.6,359.3c0,0-0.2-0.4-0.5-1.2c-0.2-0.5-0.3-0.9-0.5-1.4c-0.2-0.5-0.5-1-0.8-1.6l-0.5-0.9l-0.2-0.5
			l-0.3-0.5l-0.6-0.9c-0.2-0.3-0.5-0.6-0.7-0.9c-0.5-0.6-1-1.2-1.6-1.8c-0.6-0.6-1.2-1.1-1.9-1.5l-0.5-0.4l-0.5-0.3
			c-0.3-0.2-0.7-0.4-1.1-0.6c-0.4-0.2-0.7-0.3-1.1-0.5c-0.4-0.2-0.8-0.2-1.1-0.4c-0.4-0.1-0.7-0.2-1.1-0.3c-0.4-0.1-0.7-0.2-1.1-0.2
			c-0.7-0.1-1.4-0.2-2.1-0.2c-0.3,0-0.6,0-0.9,0l-0.9,0.1c-0.3,0-0.5,0-0.8,0.1l-0.6,0.1c-0.8,0.1-1.3,0.2-1.3,0.2s0.4-0.3,1.1-0.7
			c0.2-0.1,0.4-0.2,0.6-0.4s0.5-0.2,0.8-0.3l0.9-0.4c0.3-0.1,0.6-0.2,1-0.3c0.4-0.1,0.7-0.2,1.1-0.2l1.2-0.1c0.4,0,0.9,0,1.3,0
			c0.5,0,0.9,0.1,1.4,0.1c0.5,0.1,0.9,0.2,1.4,0.3s0.9,0.3,1.4,0.5c0.5,0.2,0.9,0.4,1.4,0.6l0.7,0.4c0.2,0.1,0.4,0.3,0.6,0.4
			c0.4,0.3,0.8,0.6,1.2,0.9c0.4,0.3,0.7,0.7,1.1,1s0.6,0.8,0.9,1.1c0.3,0.4,0.6,0.8,0.8,1.2c0.2,0.4,0.5,0.8,0.7,1.2l0.5,1.2
			c0.3,0.7,0.5,1.5,0.7,2.3c0.1,0.7,0.2,1.3,0.3,2c0,0.5,0,1,0,1.5C37.6,358.9,37.6,359.3,37.6,359.3z"/>
		<path class="st11" d="M20.9,342.2c0,0-0.3,0.1-0.8,0.2c-0.3,0.1-0.6,0.2-0.9,0.3c-0.3,0.1-0.6,0.3-1,0.4c-0.4,0.1-0.8,0.4-1.2,0.6
			c-0.4,0.2-0.8,0.5-1.2,0.8l-0.6,0.4l-0.6,0.5c-0.4,0.3-0.8,0.7-1.3,1s-0.8,0.7-1.2,1.1c-0.4,0.4-0.8,0.7-1.1,1.1
			c-0.4,0.4-0.7,0.7-1,1.1s-0.6,0.7-0.9,1c-0.2,0.3-0.5,0.6-0.7,0.9c-0.2,0.3-0.4,0.5-0.5,0.8c-0.2,0.4-0.4,0.7-0.4,0.7
			c0-0.3,0-0.6,0-0.8c0-0.3,0-0.7,0.1-1c0.1-0.4,0.2-0.8,0.3-1.2c0.1-0.5,0.3-0.9,0.6-1.4c0.3-0.5,0.5-1,0.9-1.4
			c0.3-0.5,0.7-1,1.1-1.4c0.4-0.5,0.9-0.9,1.3-1.3c0.5-0.4,1-0.8,1.5-1.1c0.5-0.3,1-0.6,1.6-0.8c0.5-0.2,1-0.4,1.6-0.6
			c0.5-0.1,1-0.2,1.5-0.3c0.4,0,0.9,0,1.3,0c0.3,0,0.7,0.1,1,0.2C20.6,342.1,20.9,342.2,20.9,342.2z"/>
		<path class="st11" d="M15.6,369.9l1.3-0.2c0.4-0.1,0.9-0.2,1.4-0.3c0.3-0.1,0.6-0.2,0.8-0.3c0.3-0.1,0.6-0.2,0.9-0.3
			c0.3-0.1,0.6-0.3,0.9-0.4c0.3-0.2,0.6-0.4,1-0.5c0.7-0.4,1.3-0.9,1.9-1.4c0.6-0.6,1.2-1.2,1.6-1.8c0.5-0.7,0.9-1.4,1.3-2.2
			c0.4-0.7,0.6-1.5,0.8-2.3c0.2-0.8,0.2-1.6,0.1-2.3c-0.1-0.7-0.2-1.4-0.5-2.1c-0.3-0.6-0.6-1.2-1-1.7c-0.2-0.3-0.4-0.5-0.6-0.7
			c-0.2-0.2-0.4-0.4-0.6-0.6c-0.4-0.4-0.8-0.6-1.2-0.9l-1.1-0.7H23c0.2,0,0.6,0.1,1,0.2c0.5,0.1,1,0.3,1.5,0.5
			c0.3,0.1,0.6,0.3,0.9,0.4c0.3,0.2,0.6,0.4,0.9,0.6c1.4,1.1,2.4,2.8,2.8,4.6c0.2,1,0.2,2.1,0.1,3.1c-0.1,1-0.4,2.1-0.9,3
			c-0.9,1.9-2.2,3.5-3.8,4.7c-0.7,0.6-1.6,1-2.4,1.4c-0.8,0.3-1.5,0.6-2.4,0.7c-0.4,0.1-0.7,0.1-1.1,0.1c-0.3,0-0.7,0-1,0
			c-0.5,0-1,0-1.6-0.1c-0.3-0.1-0.7-0.1-1-0.2L15.6,369.9z"/>
		<path class="st11" d="M8.7,362.1c0,0-0.1-0.2-0.4-0.5c-0.1-0.2-0.2-0.4-0.3-0.6c-0.1-0.3-0.2-0.6-0.3-0.9
			c-0.1-0.4-0.1-0.8-0.2-1.1c0-0.4,0-0.9,0.1-1.3c0.1-0.5,0.2-0.9,0.4-1.4c0.2-0.4,0.5-0.9,0.7-1.2c0.3-0.4,0.6-0.7,1-1.1
			c0.3-0.3,0.7-0.6,1.1-0.8c0.3-0.2,0.7-0.4,1.1-0.6c0.3-0.2,0.7-0.3,1-0.4c0.5-0.2,1.1-0.3,1.6-0.3c0.4,0,0.6,0,0.6,0
			s-0.2,0.1-0.5,0.4l-1.2,1c-1.1,0.9-2.1,2-3,3.1c-0.2,0.3-0.4,0.6-0.6,0.9c-0.2,0.3-0.3,0.7-0.5,1c-0.1,0.3-0.2,0.7-0.3,1
			c-0.1,0.3-0.1,0.6-0.2,0.9c-0.1,0.3,0,0.6-0.1,0.8c0,0.2,0,0.5,0,0.7C8.7,361.9,8.7,362.1,8.7,362.1z"/>
		<path class="st11" d="M15.1,366.8c0,0-0.2,0-0.5,0c-0.2,0-0.4,0-0.6-0.1c-0.3,0-0.5-0.1-0.8-0.2c-0.7-0.2-1.3-0.6-1.8-1.1
			c-0.3-0.3-0.5-0.7-0.7-1.1c-0.1-0.2-0.2-0.4-0.2-0.6l-0.1-0.7c0-0.4,0-0.9,0.1-1.3c0.1-0.4,0.2-0.8,0.4-1.1
			c0.1-0.3,0.3-0.6,0.5-0.9c0.2-0.3,0.3-0.5,0.5-0.7c0.3-0.4,0.6-0.7,1-0.9c0.3-0.2,0.4-0.3,0.4-0.3s0,0.2-0.1,0.5s-0.1,0.8-0.3,1.3
			c-0.1,0.2-0.1,0.5-0.2,0.8s-0.1,0.6-0.2,0.9c-0.1,0.3-0.1,0.6-0.1,0.9c0,0.3,0,0.6,0,0.8c0,0.2,0.1,0.5,0.1,0.7
			c0.1,0.2,0.2,0.5,0.3,0.7c0.1,0.2,0.3,0.4,0.4,0.6c0.2,0.2,0.3,0.4,0.5,0.6c0.4,0.4,0.6,0.7,0.9,0.9
			C15.1,366.6,15.1,366.8,15.1,366.8z"/>
		<path class="st11" d="M12.1,342.3c0,0,0.3-0.3,0.8-0.9c0.1-0.1,0.2-0.3,0.4-0.5s0.4-0.3,0.6-0.5l0.7-0.6c0.2-0.2,0.5-0.3,0.8-0.5
			s0.6-0.4,0.9-0.5c0.3-0.2,0.7-0.3,1-0.4c0.8-0.3,1.5-0.5,2.3-0.7c0.4-0.1,0.8-0.1,1.3-0.2l0.6-0.1h0.7c0.4,0,0.9,0,1.3,0l1.3,0.1
			c0.4,0.1,0.9,0.2,1.3,0.3c0.4,0.1,0.9,0.2,1.3,0.4c0.4,0.1,0.8,0.3,1.2,0.5l1.1,0.6c0.4,0.2,0.7,0.4,1.1,0.7
			c0.3,0.2,0.7,0.5,1,0.7c0.6,0.5,1,1,1.5,1.6l0.6,0.8c0.2,0.3,0.3,0.5,0.4,0.8c0.2,0.4,0.4,0.8,0.5,1.3c0.2,0.8,0.2,1.2,0.2,1.2
			s-0.3-0.3-0.7-0.9c-0.2-0.4-0.5-0.7-0.8-1c-0.2-0.2-0.3-0.4-0.5-0.6l-0.7-0.6c-0.5-0.4-1-0.8-1.5-1.1c-0.3-0.2-0.6-0.3-0.9-0.5
			c-0.3-0.2-0.7-0.3-1-0.5l-1-0.4c-0.4-0.1-0.7-0.2-1.1-0.3c-0.4-0.1-0.7-0.2-1.1-0.3c-0.4-0.1-0.8-0.2-1.1-0.2l-1.2-0.1l-1.1-0.1
			c-0.8,0-1.5,0-2.3,0c-0.7,0.1-1.5,0.1-2.1,0.3c-0.3,0.1-0.7,0.1-1,0.2c-0.3,0.1-0.6,0.2-0.9,0.3c-0.5,0.1-1,0.3-1.5,0.5l-0.7,0.2
			c-0.2,0.1-0.4,0.2-0.5,0.3C12.5,342.2,12.1,342.3,12.1,342.3z"/>
		<path class="st11" d="M6.7,361.4c0,0,0.1,0.3,0.2,0.9c0.1,0.3,0.1,0.7,0.3,1c0.1,0.4,0.3,0.8,0.4,1.2c0.1,0.4,0.4,0.8,0.6,1.3
			c0.3,0.5,0.6,0.9,0.9,1.3c0.2,0.2,0.3,0.5,0.5,0.7c0.2,0.2,0.4,0.4,0.6,0.6s0.4,0.4,0.6,0.6c0.2,0.2,0.4,0.4,0.7,0.5
			c0.4,0.3,0.9,0.7,1.4,1c0.5,0.3,1,0.5,1.5,0.7l0.8,0.3l0.8,0.1c0.2,0.1,0.5,0.1,0.7,0.1l0.7,0.1c0.5,0,0.9,0,1.3,0
			c0.3,0,0.7,0,1,0c0.6,0,0.9,0,0.9,0s-0.3,0.2-0.8,0.5c-0.3,0.2-0.6,0.4-1,0.5c-1,0.4-2,0.6-3.1,0.7h-1c-0.3,0-0.6-0.1-1-0.2
			c-0.3-0.1-0.7-0.1-1-0.3c-0.3-0.1-0.7-0.2-1-0.4c-0.6-0.3-1.2-0.7-1.8-1.2c-0.6-0.4-1.1-0.9-1.5-1.4c-0.4-0.5-0.8-1.1-1.2-1.7
			c-0.3-0.6-0.6-1.2-0.8-1.8c-0.2-0.6-0.3-1.1-0.3-1.7c-0.1-0.5-0.1-1,0-1.4c0-0.4,0.1-0.7,0.2-1.1C6.6,361.7,6.7,361.4,6.7,361.4z"
			/>
		<path class="st11" d="M23.6,377.5c0,0,0.4-0.1,1-0.2l1-0.3c0.4-0.2,0.9-0.3,1.3-0.5c2.2-1,4.2-2.5,5.8-4.3l0.6-0.8l0.5-0.8
			c0.4-0.5,0.6-1.1,1-1.6c0.4-0.5,0.5-1.1,0.7-1.6c0.2-0.5,0.4-1.1,0.5-1.6c0.1-0.5,0.3-1,0.4-1.4l0.2-1.1c0.1-0.6,0.2-1,0.2-1
			s0.1,0.4,0.3,1c0.1,0.4,0.2,0.8,0.2,1.2c0,0.4,0.1,1,0.1,1.5c0,0.6-0.1,1.2-0.1,1.8c-0.1,0.7-0.3,1.3-0.5,2l-0.4,1l-0.2,0.5
			l-0.3,0.5c-0.2,0.3-0.4,0.7-0.6,1l-0.7,0.9c-0.3,0.3-0.5,0.6-0.8,0.9c-0.3,0.3-0.6,0.5-0.9,0.8c-0.3,0.2-0.6,0.5-0.9,0.7l-1,0.6
			c-0.3,0.2-0.7,0.3-1,0.5c-0.3,0.1-0.7,0.3-1,0.4c-0.3,0.1-0.6,0.2-0.9,0.3l-0.9,0.1c-0.5,0.1-1,0.1-1.6,0.1
			c-0.5,0-0.9-0.1-1.2-0.1C24,377.7,23.6,377.5,23.6,377.5z"/>
		<path class="st8" d="M-143.6,470.3h53.4c1.1,0,2,0.9,2,2v53.4c0,1.1-0.9,2-2,2h-53.4c-1.1,0-2-0.9-2-2v-53.4
			C-145.6,471.2-144.7,470.3-143.6,470.3z"/>
		<path class="st9" d="M-106.3,513.6c-0.1,0.1-0.2,0.2-0.4,0.3c-0.4,0.2-0.8,0.4-1.3,0.4c-1.6,0.2-3.2,0-4.7-0.7
			c-1-0.5-1.9-1.1-2.7-1.8c-0.9-0.8-1.7-1.8-2.4-2.8c-0.6-1.1-1.2-2.3-1.5-3.6c-0.2-0.6-0.3-1.3-0.5-1.9c-0.1-0.7-0.2-1.3-0.3-2
			c-0.1-0.8,0-1.5,0.2-2.3c0.2-0.9,0.7-1.7,1.4-2.3c0.4-0.4,0.9-0.6,1.5-0.7c0.3,0,0.6,0,0.9,0l0,0h0.1l0,0h0.1h0.1
			c0.1,0,0.3,0.1,0.4,0.1c0.8,0.4,1.5,1.1,1.8,2c0.4,1.2,0.7,2.4,0.8,3.6c0.1,1,0.2,1.9,0.4,2.9c0.2,0.8,0.4,1.6,0.7,2.3
			c0.2,0.6,0.5,1.2,0.8,1.7c0.3,0.5,0.5,0.8,0.7,1.1l0.3,0.4l-0.4-0.2c-0.4-0.2-0.7-0.5-1.1-0.8c-0.5-0.5-1-1-1.4-1.6
			c-0.5-0.7-1-1.5-1.3-2.4c-0.4-1-0.7-2-1-3l-0.2-0.8c0-0.3-0.1-0.5-0.2-0.8c-0.1-0.5-0.3-0.9-0.5-1.4c-0.1-0.2-0.3-0.5-0.5-0.6
			c0,0,0.1,0,0,0h-0.1h0h0.1l0,0c-0.1,0-0.1,0.1-0.2,0.1c-0.5,0.7-0.7,1.5-0.6,2.3c0,0.5,0.1,1.1,0.2,1.7c0.1,0.6,0.2,1.2,0.3,1.7
			c0.2,1.1,0.6,2.1,1.1,3.1c0.4,0.9,1,1.8,1.7,2.6c0.6,0.7,1.3,1.3,2.1,1.9c0.7,0.4,1.4,0.8,2.1,1.1c0.6,0.2,1.2,0.4,1.8,0.4
			c0.4,0,0.8,0,1.2-0.1C-106.5,513.7-106.4,513.6-106.3,513.6z"/>
		<path class="st9" d="M-109,503.5c0,0-0.2-0.6-0.5-1.8c-0.1-0.6-0.3-1.3-0.4-2c-0.2-0.7-0.4-1.7-0.6-2.5c-0.3-0.9-0.7-1.7-1.3-2.4
			c-0.3-0.3-0.7-0.7-1.1-0.9c-0.1-0.1-0.5-0.3-0.7-0.4c-0.2-0.1-0.4-0.2-0.7-0.3c-1-0.3-2-0.4-3-0.1c-1,0.3-2,0.8-2.8,1.6
			c-0.4,0.4-0.8,0.8-1.1,1.3c-0.1,0.1-0.2,0.3-0.2,0.3l-0.3,0.4c-0.1,0.2-0.2,0.4-0.4,0.7c-0.4,1-0.7,2.1-0.8,3.2
			c0,1.1,0,2.2,0.2,3.2c0.2,1,0.5,1.9,0.9,2.9c0.6,1.4,1.4,2.8,2.4,3.9c0.4,0.4,0.7,0.8,0.9,1l0.4,0.3l-0.4-0.2
			c-0.4-0.2-0.8-0.4-1.2-0.7c-1.4-1-2.5-2.2-3.4-3.6c-0.6-1-1.1-2-1.4-3.1c-0.4-1.2-0.7-2.5-0.7-3.8c-0.1-1.4,0.2-2.9,0.7-4.2
			c0.1-0.4,0.3-0.7,0.5-1.1l0.3-0.4c0.1-0.2,0.2-0.3,0.3-0.5c0.4-0.6,0.9-1.2,1.5-1.7c1.1-1.1,2.5-1.8,4-2.2
			c1.9-0.4,3.9-0.1,5.5,0.9c0.3,0.2,0.6,0.4,0.8,0.6c0.6,0.4,1,0.9,1.4,1.5c0.7,1,1.1,2.2,1.2,3.4c0.1,0.9,0.2,1.9,0.1,2.8
			c0,0.8-0.1,1.5-0.1,2.1L-109,503.5z"/>
		<path class="st9" d="M-107.3,507.3c0,0,0.1-0.7,0.2-1.8c0.2-1.1,0.4-2.8,0.6-4.7c0.3-2.1,0.3-4.2,0.1-6.3c-0.1-1.1-0.5-2.1-1-3.1
			c-0.5-0.9-1.3-1.8-2.1-2.4c-0.5-0.3-0.9-0.6-1.4-0.9l-0.4-0.2l-0.4-0.1c-0.3-0.1-0.5-0.2-0.8-0.2c-1.1-0.3-2.2-0.4-3.4-0.3
			c-1.1,0-2.2,0.2-3.2,0.4c-1,0.2-1.9,0.6-2.8,1c-1.4,0.6-2.6,1.5-3.5,2.7c-0.3,0.3-0.5,0.7-0.7,1.1l-0.2,0.4v-0.5
			c0.1-0.5,0.2-0.9,0.3-1.3c0.6-1.6,1.7-2.9,3.1-3.8c0.9-0.7,1.9-1.2,3-1.6c1.2-0.5,2.4-0.8,3.6-0.9c1.4-0.2,2.8-0.1,4.1,0.1
			c0.4,0.1,0.7,0.2,1.1,0.3l0.6,0.2l0.5,0.2c0.7,0.3,1.3,0.7,1.9,1.1c1.2,0.9,2.2,2,2.9,3.4c0.6,1.3,0.9,2.7,1,4.1
			c0.1,1.2,0,2.5-0.2,3.7c-0.2,1.1-0.4,2.1-0.7,3.2c-0.5,1.5-1,3-1.6,4.5C-107.1,506.7-107.3,507.3-107.3,507.3z"/>
		<path class="st9" d="M-127.9,496.6c0,0-0.1,0.5-0.1,1.4c0,1.2,0,2.4,0.2,3.6c0.2,1.7,0.6,3.3,1.3,4.8c0.4,0.8,0.8,1.7,1.3,2.4
			c0.3,0.4,0.6,0.8,0.8,1.1l0.2,0.3l0.1,0.1l0.1,0.1l0.5,0.6c0.4,0.4,0.7,0.6,1,1c0.3,0.4,0.7,0.6,1.1,0.9c0.7,0.5,1.5,1,2.4,1.5
			c0.8,0.4,1.6,0.7,2.4,1c0.7,0.3,1.5,0.5,2.3,0.6c0.7,0.1,1.3,0.2,2,0.3c0.3,0,0.6,0,0.9,0c0.2,0,0.5,0,0.7,0c0.3,0,0.7-0.1,1-0.1
			l0.4-0.1l-0.3,0.2c-0.3,0.2-0.7,0.4-1,0.5c-0.5,0.2-1.1,0.4-1.6,0.5c-0.7,0.1-1.5,0.2-2.2,0.2c-0.9,0-1.8-0.1-2.6-0.3
			c-1-0.2-1.9-0.5-2.8-0.9c-1-0.4-1.9-0.9-2.8-1.5c-0.5-0.3-0.9-0.7-1.3-1c-0.4-0.3-0.9-0.8-1.2-1.2l-0.5-0.6l-0.1-0.1
			c-0.1-0.1-0.1-0.1-0.2-0.2l-0.2-0.3c-0.3-0.4-0.6-0.9-0.9-1.4c-1.5-2.5-2.2-5.4-2-8.4c0.1-1.3,0.3-2.5,0.7-3.8
			C-128.3,497.5-128.1,497-127.9,496.6z"/>
		<path class="st9" d="M-131.1,505.6c0,0,0.1,0.4,0.3,1c0.1,0.3,0.2,0.7,0.3,1.1s0.4,0.9,0.5,1.4c0.2,0.5,0.4,1,0.7,1.5
			c0.3,0.5,0.6,1.1,0.9,1.6c0.3,0.5,0.8,1,1.1,1.5c0.4,0.5,0.9,1,1.4,1.4c0.5,0.4,1,0.9,1.5,1.3c0.6,0.4,1.1,0.8,1.6,1.1
			c0.6,0.3,1.1,0.6,1.6,0.9s1.1,0.5,1.5,0.7c1,0.4,1.8,0.7,2.4,0.9s1,0.3,1,0.3l-0.3,0.1c-0.2,0.1-0.5,0.1-0.8,0.2
			c-0.9,0.1-1.9,0.1-2.8,0c-0.6-0.1-1.2-0.2-1.8-0.3c-0.7-0.2-1.4-0.4-2-0.7c-0.3-0.1-0.7-0.3-1-0.5c-0.3-0.2-0.7-0.3-1-0.6
			c-0.7-0.4-1.3-0.9-1.9-1.4c-0.6-0.5-1.1-1.1-1.6-1.8c-0.2-0.3-0.4-0.7-0.6-1c-0.2-0.3-0.4-0.7-0.5-1c-0.3-0.6-0.5-1.3-0.7-2
			c-0.2-0.6-0.3-1.2-0.3-1.9c0-0.6,0-1.1,0-1.6s0.1-0.8,0.2-1.2C-131.2,506-131.1,505.6-131.1,505.6z"/>
		<path class="st9" d="M-131.5,502.8c0,0-0.2-0.6-0.5-1.6c-0.1-0.5-0.3-1.1-0.4-1.9c-0.1-0.8-0.2-1.7-0.3-2.5c0-1,0-2,0.2-3
			c0.2-1.1,0.4-2.2,0.9-3.3c0.4-1.2,1-2.3,1.7-3.3c0.8-1,1.6-2,2.6-2.9c1-0.8,2.1-1.5,3.2-2.1c1.1-0.5,2.3-1,3.5-1.2
			c1.1-0.3,2.3-0.4,3.4-0.4c1,0,2,0.1,3,0.4c0.8,0.2,1.6,0.5,2.4,0.9c0.6,0.3,1.1,0.6,1.7,1c0.3,0.2,0.6,0.5,0.9,0.8l0.3,0.3
			l-0.4-0.2c-0.4-0.2-0.7-0.4-1.1-0.5c-0.3-0.1-0.5-0.2-0.8-0.3c-0.3-0.1-0.6-0.2-0.9-0.3c-0.8-0.2-1.5-0.3-2.3-0.4
			c-1.9-0.1-3.8,0.1-5.6,0.7c-1,0.3-2,0.7-2.9,1.2c-1,0.5-1.9,1.1-2.7,1.9c-1.6,1.4-3,3.1-3.9,5.1c-0.4,0.9-0.8,1.9-1.1,2.8
			c-0.1,0.5-0.2,0.9-0.3,1.4c-0.1,0.4-0.2,0.9-0.2,1.3c-0.1,0.9-0.2,1.6-0.2,2.4v1.9C-131.5,502.1-131.5,502.8-131.5,502.8z"/>
		<path class="st9" d="M-127.8,481.6c0,0,0.4-0.4,1.2-1.1l0.6-0.6c0.3-0.2,0.6-0.4,0.9-0.6c0.7-0.5,1.4-0.9,2.2-1.2l1.3-0.6
			c0.5-0.2,1-0.3,1.5-0.4c1.1-0.3,2.2-0.5,3.4-0.5c0.6,0,1.2,0,1.8,0.1c0.3,0,0.6,0,0.9,0.1l1,0.2c1.3,0.3,2.5,0.6,3.6,1.1l1.7,1
			c0.5,0.3,1,0.7,1.5,1.1c0.2,0.2,0.5,0.4,0.7,0.6l0.6,0.7c0.4,0.4,0.8,0.9,1.1,1.4c0.3,0.5,0.6,1,0.9,1.5c0.3,0.5,0.4,1.1,0.6,1.6
			c0.4,0.9,0.6,1.9,0.7,2.9c0.1,0.8,0.2,1.7,0.1,2.5c0,0.6-0.1,1.3-0.2,1.9c-0.2,1-0.3,1.6-0.3,1.6s-0.1-0.6-0.2-1.6
			c0-0.6-0.1-1.2-0.3-1.8l-0.3-1.1c-0.1-0.4-0.2-0.8-0.3-1.2c-0.3-0.9-0.6-1.7-1.1-2.5c-0.2-0.4-0.4-0.9-0.7-1.3s-0.6-0.8-0.9-1.2
			c-0.3-0.4-0.7-0.8-1.1-1.1l-0.6-0.6c-0.2-0.2-0.4-0.3-0.6-0.5c-0.4-0.3-0.8-0.7-1.3-0.9l-1.4-0.8c-1-0.4-2-0.8-3.1-1l-0.8-0.2
			c-0.3-0.1-0.5-0.1-0.8-0.1c-0.5,0-1-0.2-1.6-0.2c-1,0-2,0-3,0.1c-0.5,0.1-1,0.1-1.4,0.2l-1.3,0.3c-0.8,0.2-1.5,0.4-2.2,0.7
			c-0.3,0.1-0.6,0.2-0.9,0.3l-0.8,0.4C-127.3,481.4-127.8,481.6-127.8,481.6z"/>
		<path class="st9" d="M-101.7,497.4c0,0,0.1,0.3,0.2,0.8c0.2,0.7,0.3,1.3,0.3,2c0,1,0,2-0.2,2.9c-0.1,0.5-0.2,1.1-0.4,1.6
			c-0.2,0.6-0.4,1.1-0.6,1.6c-0.2,0.5-0.5,1-0.8,1.5c-0.3,0.5-0.6,0.9-1,1.4c-0.3,0.4-0.7,0.8-1.1,1.1c-0.4,0.3-0.8,0.6-1.2,0.8
			c-0.3,0.2-0.7,0.4-1.1,0.5c-0.3,0.1-0.6,0.2-0.9,0.3c-0.5,0.1-0.8,0.1-0.8,0.1s0.2-0.2,0.6-0.5l0.6-0.5c0.2-0.2,0.5-0.5,0.7-0.8
			s0.5-0.6,0.8-1s0.5-0.7,0.8-1.1s0.5-0.8,0.7-1.3s0.5-0.9,0.7-1.4c0.2-0.5,0.4-0.9,0.6-1.4l0.5-1.4c0.1-0.5,0.3-0.9,0.4-1.4
			s0.3-0.9,0.4-1.2c0.1-0.4,0.2-0.7,0.3-1.1l0.2-0.9C-101.8,497.7-101.7,497.4-101.7,497.4z"/>
		<path class="st9" d="M-114.8,520.2c0,0,1-0.3,2.2-0.7c0.6-0.2,1.4-0.5,2.1-0.8c0.4-0.2,0.7-0.3,1.1-0.5s0.7-0.4,1-0.6l0.5-0.3
			l0.5-0.4c0.3-0.2,0.6-0.5,0.9-0.8c0.3-0.3,0.5-0.5,0.7-0.8c0.2-0.3,0.4-0.5,0.6-0.8c0.2-0.3,0.4-0.5,0.5-0.8s0.3-0.5,0.4-0.6
			c0.2-0.3,0.4-0.6,0.4-0.6s0,0.2,0.1,0.7c0,0.2,0,0.5,0,0.8c0,0.3-0.1,0.7-0.2,1c-0.1,0.4-0.2,0.8-0.4,1.2
			c-0.2,0.4-0.4,0.8-0.6,1.2c-0.3,0.4-0.6,0.8-1,1.1c-0.2,0.2-0.4,0.4-0.6,0.5l-0.6,0.4c-0.4,0.3-0.9,0.5-1.4,0.7
			c-0.5,0.2-0.9,0.3-1.4,0.4c-0.8,0.2-1.7,0.2-2.5,0.2C-113.3,520.7-114.1,520.5-114.8,520.2z"/>
		<path class="st8" d="M30.1,400.6h53.4c1.1,0,2,0.9,2,2V456c0,1.1-0.9,2-2,2H30.1c-1.1,0-2-0.9-2-2v-53.4
			C28.1,401.5,29,400.6,30.1,400.6z"/>
		<path class="st9" d="M67.5,443.8c-0.1,0.1-0.2,0.2-0.4,0.3c-0.4,0.2-0.8,0.4-1.3,0.4c-1.6,0.2-3.2,0-4.7-0.7
			c-1-0.5-1.9-1.1-2.7-1.8c-0.9-0.8-1.7-1.8-2.4-2.8c-0.6-1.1-1.2-2.3-1.5-3.6c-0.2-0.6-0.3-1.3-0.5-1.9c-0.1-0.7-0.2-1.3-0.3-2
			c-0.1-0.8,0-1.5,0.2-2.3c0.2-0.9,0.7-1.7,1.4-2.3c0.4-0.4,0.9-0.6,1.5-0.7c0.3,0,0.6,0,0.9,0l0,0h0.1l0,0h0h0.1
			c0.1,0,0.3,0.1,0.4,0.2c0.8,0.4,1.5,1.1,1.8,2c0.4,1.2,0.7,2.4,0.8,3.6c0.1,1,0.2,1.9,0.4,2.9c0.2,0.8,0.4,1.6,0.7,2.3
			c0.2,0.6,0.5,1.2,0.8,1.7c0.3,0.5,0.5,0.8,0.7,1.1l0.3,0.4l-0.4-0.2c-0.4-0.2-0.7-0.5-1-0.8c-0.5-0.5-1-1-1.4-1.5
			c-0.5-0.7-1-1.5-1.3-2.4c-0.4-1-0.7-2-1-3l-0.2-0.8c0-0.3-0.1-0.5-0.2-0.8c-0.1-0.5-0.3-0.9-0.5-1.4c-0.1-0.2-0.3-0.5-0.5-0.6
			c0,0,0.1,0,0,0h-0.1h0h0.1l0,0c-0.1,0-0.1,0.1-0.2,0.1c-0.5,0.7-0.7,1.5-0.5,2.3c0,0.5,0.1,1.1,0.2,1.7s0.2,1.2,0.3,1.7
			c0.2,1.1,0.6,2.1,1.1,3.1c0.4,0.9,1,1.8,1.7,2.6c0.6,0.7,1.3,1.3,2.1,1.9c0.7,0.4,1.4,0.8,2.1,1.1c0.6,0.2,1.2,0.4,1.8,0.4
			c0.4,0.1,0.8,0,1.2,0C67.2,444,67.3,443.9,67.5,443.8z"/>
		<path class="st9" d="M64.7,433.8c0,0-0.2-0.6-0.5-1.8c-0.1-0.6-0.3-1.3-0.5-2s-0.4-1.7-0.6-2.5c-0.3-0.9-0.7-1.7-1.3-2.4
			c-0.3-0.3-0.7-0.7-1.1-0.9c-0.1-0.1-0.5-0.3-0.7-0.4c-0.2-0.1-0.4-0.2-0.7-0.3c-1-0.3-2-0.4-3-0.1c-1,0.3-2,0.8-2.8,1.6
			c-0.4,0.4-0.8,0.8-1.1,1.3c-0.1,0.1-0.2,0.3-0.2,0.3L52,427c-0.1,0.2-0.2,0.4-0.4,0.7c-0.4,1-0.7,2.1-0.8,3.2c0,1.1,0,2.2,0.2,3.2
			c0.2,1,0.5,1.9,0.9,2.8c0.6,1.4,1.4,2.8,2.4,3.9c0.4,0.4,0.7,0.8,0.9,1l0.4,0.3l-0.4-0.2c-0.4-0.2-0.8-0.4-1.2-0.7
			c-1.4-1-2.5-2.2-3.4-3.6c-0.6-1-1.1-2-1.5-3.1c-0.4-1.2-0.7-2.5-0.7-3.8c-0.1-1.4,0.2-2.9,0.7-4.2c0.1-0.4,0.3-0.7,0.5-1.1
			l0.2-0.4c0.1-0.2,0.2-0.3,0.3-0.5c0.4-0.6,0.9-1.2,1.5-1.7c1.1-1.1,2.5-1.8,4-2.2c1.9-0.4,3.9-0.1,5.5,0.9
			c0.3,0.2,0.6,0.4,0.8,0.6c0.6,0.4,1,0.9,1.4,1.5c0.7,1,1.1,2.2,1.2,3.4c0.1,0.9,0.2,1.9,0.1,2.8c0,0.8,0,1.5-0.1,2.1L64.7,433.8z"
			/>
		<path class="st9" d="M66.4,437.6c0,0,0.1-0.7,0.2-1.8c0.1-1.1,0.4-2.8,0.6-4.7c0.3-2.1,0.3-4.2,0.1-6.3c-0.1-1.1-0.5-2.1-1-3.1
			c-0.5-0.9-1.3-1.8-2.1-2.4c-0.5-0.3-0.9-0.6-1.5-0.9l-0.4-0.2l-0.4-0.1c-0.3-0.1-0.5-0.2-0.8-0.2c-1.1-0.3-2.2-0.4-3.4-0.3
			c-1.1,0-2.2,0.2-3.2,0.4c-1,0.2-1.9,0.6-2.8,1c-1.4,0.6-2.6,1.5-3.5,2.7c-0.3,0.3-0.5,0.7-0.7,1.1l-0.2,0.4v-0.5
			c0.1-0.5,0.2-0.9,0.3-1.3c0.6-1.6,1.7-2.9,3.1-3.8c0.9-0.7,1.9-1.2,3-1.6c1.2-0.5,2.4-0.8,3.6-0.9c1.4-0.2,2.8-0.1,4.1,0.1
			c0.4,0.1,0.7,0.2,1.1,0.3l0.5,0.2l0.5,0.2c0.7,0.3,1.3,0.7,1.9,1.1c1.2,0.9,2.2,2,2.9,3.4c0.6,1.3,0.9,2.7,1,4.1
			c0.1,1.2,0,2.5-0.2,3.7c-0.2,1.1-0.4,2.1-0.7,3.2c-0.4,1.5-1,3-1.6,4.5C66.6,437,66.4,437.6,66.4,437.6z"/>
		<path class="st9" d="M45.8,426.9c0,0-0.1,0.5-0.1,1.4c0,1.2,0,2.4,0.2,3.6c0.2,1.7,0.6,3.3,1.3,4.8c0.4,0.8,0.8,1.7,1.3,2.4
			c0.3,0.4,0.5,0.8,0.8,1.1l0.2,0.3l0.1,0.1l0.1,0.1l0.5,0.6c0.4,0.4,0.7,0.6,1,1s0.7,0.6,1.1,0.9c0.7,0.5,1.5,1,2.4,1.5
			c0.8,0.4,1.6,0.7,2.4,1c0.7,0.3,1.5,0.5,2.3,0.6c0.7,0.1,1.3,0.2,2,0.3c0.3,0,0.6,0,0.9,0c0.2,0,0.5,0,0.7,0c0.3,0,0.7-0.1,1-0.1
			l0.4-0.1l-0.3,0.2c-0.3,0.2-0.7,0.4-1,0.5c-0.5,0.2-1.1,0.4-1.6,0.5c-0.7,0.1-1.5,0.2-2.2,0.2c-0.9,0-1.8-0.1-2.6-0.3
			c-1-0.2-1.9-0.5-2.8-0.9c-1-0.4-1.9-0.9-2.8-1.5c-0.5-0.3-0.9-0.7-1.3-1s-0.9-0.8-1.2-1.2l-0.5-0.6l-0.1-0.1
			c-0.1-0.1-0.1-0.1-0.2-0.2l-0.2-0.3c-0.3-0.4-0.6-0.9-0.9-1.4c-1.5-2.5-2.2-5.4-2-8.4c0.1-1.3,0.3-2.5,0.7-3.8
			C45.4,427.8,45.6,427.3,45.8,426.9z"/>
		<path class="st9" d="M42.6,435.9c0,0,0.1,0.4,0.3,1c0.1,0.3,0.2,0.7,0.3,1.1s0.4,0.9,0.5,1.4c0.4,1.1,1,2.1,1.6,3.1
			c0.3,0.5,0.8,1,1.1,1.5c0.4,0.5,0.9,1,1.4,1.4c0.5,0.4,1,0.9,1.5,1.3c0.6,0.4,1.1,0.8,1.6,1.1c0.6,0.3,1.1,0.6,1.6,0.9
			c0.5,0.3,1.1,0.5,1.5,0.7c1,0.4,1.8,0.7,2.4,0.9s1,0.3,1,0.3l-0.3,0.1c-0.2,0.1-0.5,0.1-0.8,0.1c-0.9,0.1-1.9,0.1-2.8,0
			c-0.6-0.1-1.2-0.2-1.8-0.3c-0.7-0.2-1.4-0.4-2-0.7c-0.3-0.1-0.7-0.3-1-0.5c-0.3-0.2-0.7-0.4-1-0.6c-0.7-0.4-1.3-0.9-1.9-1.4
			c-0.6-0.5-1.1-1.1-1.6-1.8c-0.2-0.3-0.4-0.7-0.6-1c-0.2-0.3-0.4-0.7-0.5-1c-0.3-0.6-0.5-1.3-0.7-2c-0.2-0.6-0.3-1.2-0.3-1.9
			c0-0.6,0-1.1,0-1.6c0-0.5,0.1-0.8,0.2-1.2C42.5,436.2,42.6,435.9,42.6,435.9z"/>
		<path class="st9" d="M42.2,433c0,0-0.2-0.6-0.5-1.6c-0.1-0.5-0.3-1.1-0.4-1.9c-0.1-0.8-0.2-1.7-0.3-2.5c-0.1-2.2,0.3-4.3,1-6.3
			c0.4-1.2,1-2.3,1.7-3.3c0.8-1,1.6-2,2.6-2.8c1-0.8,2.1-1.5,3.2-2.1c1.1-0.5,2.3-0.9,3.5-1.2c1.1-0.3,2.3-0.4,3.4-0.4
			c1,0,2,0.1,3,0.4c0.8,0.2,1.6,0.5,2.4,0.9c0.6,0.3,1.1,0.6,1.7,1c0.3,0.2,0.6,0.5,0.9,0.8l0.3,0.3l-0.4-0.2
			c-0.4-0.2-0.7-0.4-1.1-0.5c-0.3-0.1-0.5-0.2-0.8-0.3c-0.3-0.1-0.6-0.2-1-0.3c-0.8-0.2-1.5-0.3-2.3-0.4c-1.9-0.1-3.8,0.1-5.6,0.7
			c-1,0.3-2,0.7-2.9,1.2c-1,0.5-1.9,1.1-2.7,1.9c-1.6,1.4-3,3.1-3.9,5.1c-0.4,0.9-0.8,1.9-1,2.8c-0.1,0.5-0.2,0.9-0.3,1.4
			c-0.1,0.4-0.2,0.9-0.2,1.3c-0.1,0.9-0.2,1.6-0.2,2.4v1.9C42.2,432.4,42.2,433,42.2,433z"/>
		<path class="st9" d="M45.9,411.9c0,0,0.4-0.4,1.2-1.1l0.6-0.6c0.3-0.2,0.6-0.4,0.9-0.6c0.7-0.5,1.4-0.9,2.2-1.2l1.3-0.6
			c0.5-0.2,1-0.3,1.5-0.4c1.1-0.3,2.2-0.5,3.4-0.5c0.6,0,1.2,0,1.8,0.1c0.3,0,0.6,0,0.9,0.1l0.9,0.2c1.3,0.3,2.5,0.6,3.6,1.1l1.7,1
			c0.5,0.3,1,0.7,1.5,1.2c0.2,0.2,0.5,0.4,0.7,0.6l0.6,0.7c0.4,0.4,0.8,0.9,1.1,1.4c0.3,0.5,0.6,1,0.9,1.5c0.3,0.5,0.4,1.1,0.6,1.6
			c0.4,0.9,0.6,1.9,0.7,2.9c0.1,0.8,0.2,1.7,0.1,2.5c0,0.6-0.1,1.3-0.2,1.9c-0.2,1-0.3,1.6-0.3,1.6s-0.1-0.6-0.2-1.6
			c0-0.6-0.1-1.2-0.3-1.8l-0.3-1.1c-0.1-0.4-0.2-0.8-0.3-1.2c-0.3-0.9-0.6-1.7-1.1-2.5c-0.2-0.4-0.4-0.9-0.7-1.3
			c-0.3-0.4-0.6-0.8-0.9-1.2c-0.3-0.4-0.7-0.8-1-1.1l-0.6-0.6c-0.2-0.2-0.4-0.3-0.6-0.5c-0.4-0.3-0.8-0.7-1.3-0.9l-1.4-0.8
			c-1-0.4-2-0.8-3.1-1l-0.8-0.2c-0.3,0-0.5-0.1-0.8-0.1c-0.5-0.1-1-0.2-1.6-0.2c-1,0-2,0-3,0.1c-0.5,0.1-1,0.1-1.4,0.2l-1.3,0.3
			c-0.8,0.2-1.5,0.4-2.2,0.7c-0.3,0.1-0.6,0.2-0.9,0.3l-0.8,0.4C46.4,411.6,45.9,411.9,45.9,411.9z"/>
		<path class="st9" d="M72,427.7c0,0,0.1,0.3,0.2,0.8c0.2,0.7,0.3,1.3,0.3,2c0,1,0,2-0.2,2.9c-0.1,0.5-0.2,1.1-0.4,1.6
			c-0.2,0.6-0.4,1.1-0.6,1.6c-0.2,0.5-0.5,1-0.8,1.5c-0.3,0.5-0.6,0.9-1,1.4c-0.3,0.4-0.7,0.8-1.1,1.1c-0.4,0.3-0.8,0.6-1.2,0.8
			c-0.3,0.2-0.7,0.4-1.1,0.5c-0.3,0.1-0.6,0.2-0.9,0.3c-0.5,0.1-0.8,0.1-0.8,0.1s0.2-0.2,0.6-0.5l0.6-0.6c0.2-0.2,0.5-0.5,0.7-0.8
			s0.5-0.6,0.8-1c0.3-0.4,0.5-0.7,0.8-1.1s0.5-0.8,0.7-1.3c0.2-0.4,0.5-0.9,0.7-1.4s0.4-0.9,0.6-1.4l0.5-1.4
			c0.1-0.5,0.3-0.9,0.4-1.3c0.1-0.4,0.3-0.9,0.4-1.2c0.1-0.4,0.2-0.7,0.3-1.1l0.2-0.8C71.9,428,72,427.7,72,427.7z"/>
		<path class="st9" d="M58.9,450.5c0,0,1-0.3,2.2-0.7c0.6-0.2,1.4-0.5,2.1-0.8c0.4-0.1,0.7-0.3,1.1-0.5c0.4-0.2,0.7-0.4,1-0.6
			l0.5-0.3l0.5-0.4c0.3-0.2,0.6-0.5,0.9-0.8c0.3-0.3,0.5-0.5,0.7-0.8c0.2-0.3,0.4-0.5,0.6-0.8c0.2-0.3,0.4-0.5,0.5-0.8
			c0.1-0.2,0.3-0.4,0.4-0.6c0.2-0.4,0.4-0.6,0.4-0.6s0,0.2,0,0.7c0,0.2,0,0.5,0,0.8c0,0.3-0.1,0.7-0.2,1c-0.1,0.4-0.2,0.8-0.4,1.2
			c-0.2,0.4-0.4,0.8-0.6,1.2c-0.3,0.4-0.6,0.8-1,1.1c-0.2,0.2-0.4,0.4-0.6,0.5l-0.6,0.4c-0.4,0.3-0.9,0.5-1.4,0.7
			c-0.5,0.2-0.9,0.3-1.4,0.4c-0.8,0.2-1.7,0.2-2.5,0.2C60.4,451,59.6,450.8,58.9,450.5z"/>
		<path class="st10" d="M-74.1,470.5h53.4c1.1,0,2,0.9,2,2v53.4c0,1.1-0.9,2-2,2h-53.4c-1.1,0-2-0.9-2-2v-53.4
			C-76.1,471.4-75.2,470.5-74.1,470.5z"/>
		<path class="st11" d="M-49.2,503.1c-0.2-0.2-0.5-0.4-0.6-0.7c-0.4-0.7-0.7-1.5-0.8-2.4c-0.1-1.3,0.1-2.5,0.8-3.6
			c0.4-0.7,1-1.3,1.8-1.6c0.4-0.2,0.9-0.3,1.3-0.4h0.2h0.4c0.2,0,0.5,0,0.7,0.1c0.9,0.2,1.6,0.8,2.1,1.5c0.4,0.6,0.6,1.3,0.7,2
			c0.1,1.1,0,2.3-0.3,3.4c-0.2,0.7-0.6,1.4-1,2.1c-0.2,0.2-0.4,0.4-0.6,0.6c0.1-0.3,0.2-0.5,0.2-0.8c0.2-0.7,0.3-1.4,0.3-2.1
			c0-0.9-0.1-1.9-0.4-2.8c-0.1-0.4-0.4-0.8-0.6-1.2c-0.2-0.2-0.5-0.4-0.8-0.4h-0.2h-0.2c-0.1,0-0.3,0.1-0.4,0.2
			c-0.3,0.2-0.5,0.5-0.7,0.8c-0.5,0.7-0.8,1.5-1.1,2.2c-0.2,0.7-0.4,1.3-0.5,2C-49.2,502.7-49.2,503.1-49.2,503.1z"/>
		<path class="st11" d="M-53,501.6c-0.1-0.1-0.2-0.3-0.2-0.5c-0.2-0.5-0.3-0.9-0.4-1.4c-0.2-1.8,0.1-3.6,0.8-5.2
			c0.5-1.2,1.1-2.2,2-3.1c1.1-1.1,2.4-1.8,4-2c0.8-0.1,1.6-0.1,2.4,0.1c0.8,0.2,1.5,0.4,2.2,0.8l0.1,0.1h0.1l0.1,0.1l0.2,0.1
			c0.2,0.1,0.4,0.2,0.5,0.3c0.4,0.2,0.7,0.5,1,0.9c0.6,0.6,1,1.3,1.4,2c1.4,2.8,1.5,6,0.1,8.9c-1.1,2.3-2.8,4.3-5,5.6
			c-0.9,0.5-1.8,0.9-2.8,1.1c-0.7,0.2-1.5,0.2-2.3,0.2c-0.5,0-1-0.1-1.4-0.2l-0.5-0.1h0.5c0.5,0,0.9,0,1.4-0.1
			c1.6-0.3,3.1-0.9,4.4-2c1.7-1.4,3.1-3.2,3.9-5.3c0.4-1.1,0.6-2.3,0.6-3.5c-0.1-1.2-0.4-2.4-1-3.5c-0.3-0.5-0.6-1-1-1.4
			c-0.2-0.2-0.4-0.4-0.6-0.5c-0.2-0.2-0.5-0.3-0.7-0.4c-1-0.5-2.1-0.7-3.2-0.7c-1,0.1-2,0.5-2.8,1.2c-0.8,0.6-1.4,1.4-1.9,2.3
			c-0.8,1.4-1.4,2.9-1.7,4.5C-53.1,500.3-53.1,501-53,501.6z"/>
		<path class="st11" d="M-37.1,493.2c0,0-0.2-0.3-0.5-0.7c-0.1-0.3-0.3-0.6-0.5-0.8c-0.2-0.3-0.4-0.6-0.7-1s-0.6-0.7-0.9-1
			c-0.2-0.2-0.3-0.4-0.5-0.5c-0.2-0.2-0.4-0.3-0.6-0.5c-0.4-0.4-0.8-0.6-1.3-1c-0.5-0.3-0.9-0.6-1.4-0.8c-0.5-0.3-1-0.5-1.5-0.7
			c-0.5-0.2-1-0.4-1.5-0.5s-1-0.2-1.5-0.3c-0.5-0.1-0.9-0.1-1.4-0.1c-0.4,0-0.8,0-1.2,0c-0.3,0-0.6,0-0.9,0.1
			c-0.5,0.1-0.9,0.1-0.9,0.1s0.2-0.2,0.7-0.5c0.3-0.2,0.6-0.4,0.9-0.5c0.4-0.2,0.8-0.4,1.2-0.5c0.5-0.1,1-0.2,1.6-0.3
			c0.6,0,1.2,0,1.8,0.1c0.6,0.1,1.3,0.2,1.9,0.4c0.6,0.2,1.2,0.5,1.8,0.8c0.6,0.3,1.1,0.7,1.7,1.1c0.3,0.2,0.5,0.4,0.7,0.6
			c0.2,0.2,0.5,0.4,0.6,0.7c0.2,0.2,0.4,0.5,0.6,0.7c0.2,0.2,0.3,0.5,0.5,0.7c0.3,0.4,0.5,0.9,0.7,1.4c0.2,0.4,0.3,0.8,0.4,1.3
			c0.1,0.3,0.1,0.7,0.1,1C-37.1,492.9-37.1,493.2-37.1,493.2z"/>
		<path class="st11" d="M-48.4,511.3h0.3c0.2,0,0.6,0,1,0c1.1-0.1,2.2-0.3,3.2-0.8c0.6-0.3,1.3-0.6,1.8-1c0.6-0.5,1.2-1,1.8-1.6
			c0.6-0.6,1.1-1.3,1.6-2c0.5-0.7,0.9-1.5,1.3-2.3c0.4-0.8,0.7-1.6,1-2.4c0.3-0.8,0.5-1.6,0.6-2.5c0.1-0.4,0.1-0.8,0.1-1.2
			s0.1-0.8,0.1-1.2c0-0.8,0-1.5,0-2.2c-0.1-1.1-0.2-2.2-0.5-3.3c-0.2-0.8-0.4-1.2-0.4-1.2l0.2,0.3c0.2,0.3,0.4,0.5,0.6,0.8
			c0.6,1,1.1,2.1,1.4,3.3c0.2,0.8,0.4,1.6,0.4,2.4c0,0.4,0.1,0.9,0.1,1.3c0,0.5,0,0.9,0,1.4c-0.1,1-0.2,1.9-0.5,2.9
			c-0.3,1-0.6,1.9-1,2.8c-0.4,0.9-1,1.8-1.5,2.6c-0.6,0.8-1.3,1.5-2,2.2c-1.3,1.2-2.9,2-4.6,2.4c-1.2,0.3-2.4,0.3-3.6,0
			c-0.3-0.1-0.6-0.2-0.9-0.3L-48.4,511.3z"/>
		<path class="st11" d="M-58.9,495.6c0,0,0,0.6,0.1,1.6c0.1,1.3,0.3,2.7,0.5,4c0.2,0.9,0.4,1.7,0.6,2.6c0.3,0.9,0.6,1.8,1,2.7
			c0.4,0.9,0.9,1.8,1.5,2.6c0.6,0.8,1.3,1.6,2.1,2.2c0.9,0.8,1.6,1.4,2.5,2c0.8,0.6,1.6,1.3,2.5,1.8c0.8,0.5,1.7,0.9,2.6,1.3
			c0.9,0.3,1.7,0.6,2.5,0.9c1.6,0.5,3,0.8,3.9,1.2c0.4,0.1,0.7,0.3,1.1,0.5l0.4,0.2H-38c-0.3,0-0.7,0-1.1-0.1c-1,0-2.4,0-4.1-0.1
			c-1-0.1-1.9-0.2-2.8-0.5c-1.1-0.3-2.1-0.6-3.1-1.1c-0.5-0.2-1-0.5-1.5-0.8c-0.5-0.3-1-0.6-1.5-1c-1-0.7-1.9-1.4-2.7-2.2
			c-0.9-0.8-1.7-1.8-2.4-2.8c-0.6-1-1.2-2.1-1.6-3.2c-0.7-1.9-1-4-1-6c0-1.4,0.2-2.8,0.4-4.2C-59.2,496.6-59.1,496.1-58.9,495.6z"/>
		<path class="st11" d="M-61.8,505.3c0,0,0.1,0.4,0.3,1c0.1,0.3,0.2,0.7,0.3,1.1s0.4,0.9,0.5,1.3l0.7,1.5c0.3,0.5,0.6,1,1,1.6
			c0.4,0.5,0.8,1,1.2,1.5l0.7,0.8l0.7,0.7c0.5,0.5,1,0.9,1.5,1.3c0.5,0.4,1.1,0.8,1.6,1.2c0.6,0.3,1.1,0.7,1.6,1s1,0.6,1.5,0.8
			c0.5,0.2,0.9,0.4,1.3,0.6s0.8,0.3,1.1,0.4c0.2,0.1,0.5,0.1,0.7,0.2l0.3,0.1l-0.3,0.1c-0.2,0.1-0.5,0.2-0.8,0.2
			c-0.4,0.1-0.8,0.1-1.2,0.1h-0.8l-0.8-0.1c-0.6-0.1-1.2-0.2-1.8-0.4c-0.7-0.2-1.4-0.5-2-0.8c-0.7-0.3-1.4-0.7-2-1.1
			c-0.7-0.4-1.3-0.9-1.9-1.5l-0.8-0.8c-0.3-0.3-0.5-0.6-0.8-0.9c-0.5-0.6-0.9-1.3-1.2-2c-0.3-0.6-0.6-1.3-0.8-2
			c-0.1-0.7-0.3-1.3-0.4-1.9c-0.1-0.6,0-1.1-0.1-1.6c0-0.4,0.1-0.8,0.1-1.2C-61.9,505.7-61.8,505.3-61.8,505.3z"/>
		<path class="st11" d="M-62.2,502.1c0,0-0.1-0.6-0.3-1.6c-0.1-0.5-0.2-1.1-0.2-1.9s0-1.6,0-2.5c0-1,0.1-2,0.3-3
			c0-0.3,0.1-0.5,0.1-0.8l0.2-0.8c0.1-0.6,0.3-1.1,0.4-1.7s0.4-1.1,0.7-1.7l0.4-0.9l0.5-0.8c0.3-0.5,0.7-1.1,1.1-1.6l1.3-1.5
			l1.5-1.2c0.5-0.4,1.1-0.7,1.7-1c0.6-0.3,1.2-0.5,1.8-0.7c0.3-0.1,0.6-0.2,0.9-0.3l0.9-0.1c1.1-0.2,2.3-0.2,3.4,0
			c1,0.1,2,0.4,2.9,0.7c0.4,0.2,0.9,0.3,1.2,0.5l1,0.6c0.3,0.2,0.6,0.3,0.9,0.5s0.5,0.4,0.7,0.5c0.9,0.6,1.3,1,1.3,1
			s-0.6-0.2-1.5-0.5c-0.2-0.1-0.5-0.2-0.8-0.3l-1-0.3l-1.1-0.3l-1.2-0.2c-0.9-0.1-1.8-0.2-2.7-0.2c-0.5,0-1,0.1-1.4,0.1
			c-0.5,0-1,0.1-1.5,0.2l-0.7,0.2c-0.2,0.1-0.5,0.2-0.7,0.3l-0.7,0.3c-0.2,0.1-0.5,0.2-0.7,0.3c-0.5,0.2-0.9,0.5-1.3,0.8l-1.2,1
			l-1.1,1.2c-0.3,0.4-0.7,0.8-0.9,1.3l-0.4,0.7l-0.4,0.7c-0.2,0.5-0.5,0.9-0.7,1.4s-0.3,1-0.5,1.5l-0.3,0.7
			c-0.1,0.2-0.1,0.5-0.2,0.7L-61,495l-0.2,0.7l-0.1,0.6c-0.1,0.8-0.3,1.6-0.4,2.3l-0.2,1.8C-62.1,501.5-62.2,502.1-62.2,502.1z"/>
		<path class="st11" d="M-41.9,480.5c0,0,0.4,0.1,1,0.2c0.4,0.1,0.7,0.2,1.1,0.4c0.5,0.2,0.9,0.4,1.4,0.7c0.5,0.3,1,0.6,1.5,1
			c0.5,0.4,1,0.9,1.5,1.4c0.5,0.5,0.9,1.1,1.3,1.8c0.4,0.6,0.8,1.3,1.1,2c0.3,0.7,0.6,1.4,0.8,2.1c0.2,0.7,0.4,1.4,0.5,2.1
			c0.2,1.2,0.3,2.5,0.3,3.8c0,0.5-0.1,1-0.1,1.5s-0.1,0.8-0.2,1.1c-0.1,0.6-0.2,1-0.2,1s-0.1-0.4-0.2-1c-0.1-0.6-0.3-1.5-0.5-2.5
			c-0.1-0.5-0.3-1.1-0.4-1.6l-0.5-1.8c-0.2-0.6-0.4-1.2-0.6-1.9s-0.5-1.2-0.8-1.9c-0.3-0.6-0.6-1.2-0.9-1.8c-0.3-0.6-0.7-1.1-1-1.6
			s-0.7-1-1.1-1.4s-0.8-0.8-1.1-1.2c-0.3-0.4-0.7-0.7-1-0.9s-0.6-0.5-0.9-0.7C-41.6,480.7-41.9,480.5-41.9,480.5z"/>
		<path class="st11" d="M-59.9,483.1c0,0,0.2-0.4,0.6-1c0.2-0.4,0.5-0.8,0.8-1.1l0.6-0.7c0.2-0.2,0.4-0.4,0.7-0.7
			c0.5-0.5,1.1-1,1.7-1.4c1.4-1,2.9-1.7,4.6-2.2c0.9-0.2,1.8-0.4,2.7-0.5c0.9-0.1,1.8-0.1,2.8,0l0.7,0l0.7,0.1
			c0.4,0.1,0.9,0.2,1.3,0.3c0.8,0.2,1.6,0.6,2.3,1c0.3,0.2,0.7,0.4,1,0.6l0.8,0.7c0.5,0.4,0.9,0.8,1.3,1.3c0.3,0.3,0.6,0.7,0.9,1.1
			c0.4,0.7,0.6,1,0.6,1s-0.4-0.3-1-0.7c-0.3-0.3-0.7-0.6-1.1-0.8c-0.5-0.3-1-0.6-1.5-0.9c-0.6-0.3-1.2-0.6-1.8-0.8
			c-0.7-0.2-1.4-0.4-2.1-0.6c-0.4-0.1-0.8-0.1-1.1-0.2c-0.4-0.1-0.8-0.1-1.2-0.1c-0.4,0-0.8,0-1.2,0l-1.2,0.1
			c-0.8,0.1-1.6,0.2-2.4,0.4c-0.8,0.2-1.5,0.4-2.2,0.6c-0.4,0.1-0.7,0.3-1,0.4c-0.3,0.1-0.7,0.3-1,0.4c-0.6,0.3-1.2,0.6-1.8,1
			l-0.8,0.5l-0.7,0.5c-0.4,0.2-0.7,0.5-1.1,0.8C-59.5,482.9-59.9,483.1-59.9,483.1z"/>
		<path class="st11" d="M-54.8,501.8c0,0,0.2,0.2,0.4,0.5c0.1,0.2,0.3,0.4,0.5,0.6c0.2,0.2,0.4,0.4,0.6,0.7c0.2,0.2,0.5,0.5,0.7,0.7
			c0.3,0.2,0.5,0.4,0.9,0.6c0.2,0.1,0.3,0.1,0.5,0.2c0.2,0.1,0.3,0.1,0.5,0.1c0.3,0.1,0.7,0.1,1,0.1l0.5-0.1c0.2,0,0.3-0.1,0.5-0.2
			c0.2-0.1,0.3-0.1,0.5-0.2c0.2-0.1,0.3-0.2,0.4-0.3c0.5-0.4,0.9-0.9,1.2-1.5c0.1-0.1,0.1-0.3,0.2-0.4l0.1-0.4
			c0.1-0.2,0.1-0.5,0.1-0.7c0-0.4,0.1-0.7,0.1-0.7c0.1,0.2,0.3,0.4,0.4,0.6c0.1,0.2,0.2,0.5,0.3,0.8c0,0.2,0.1,0.3,0.1,0.5
			s0,0.4,0,0.6c0,0.5-0.1,0.9-0.3,1.3c-0.2,0.5-0.5,0.9-0.8,1.3c-0.2,0.2-0.4,0.4-0.6,0.6c-0.2,0.2-0.5,0.3-0.7,0.5
			c-0.3,0.1-0.5,0.2-0.8,0.3l-0.9,0.2c-0.6,0-1.2,0-1.8-0.2c-0.1,0-0.3-0.1-0.4-0.1l-0.4-0.2c-0.2-0.1-0.5-0.3-0.7-0.4
			c-0.4-0.3-0.7-0.7-1-1.1c-0.3-0.3-0.5-0.7-0.6-1.1c-0.1-0.3-0.2-0.7-0.3-1c0-0.3-0.1-0.6-0.1-0.8C-54.8,502-54.8,501.8-54.8,501.8
			z"/>
		<path class="st11" d="M-43.6,514.8l0.2-0.1c0.2-0.1,0.4-0.1,0.6-0.2c0.2-0.1,0.5-0.2,0.9-0.4c0.3-0.2,0.7-0.4,1.1-0.6
			s0.8-0.5,1.2-0.8s0.8-0.6,1.2-0.9c0.4-0.3,0.8-0.7,1.2-1.1c0.4-0.4,0.8-0.8,1.1-1.2c0.3-0.4,0.7-0.9,1-1.3
			c0.3-0.5,0.6-0.9,0.8-1.4c0.1-0.2,0.2-0.5,0.4-0.7c0.1-0.2,0.2-0.5,0.3-0.7c0.2-0.4,0.3-0.9,0.5-1.3l0.4-1.2
			c0.1-0.4,0.2-0.7,0.2-0.9c0.1-0.5,0.2-0.8,0.2-0.8s0.1,0.3,0.2,0.8c0,0.3,0.1,0.6,0.2,1c0,0.4,0,0.9,0,1.3c0,0.2,0,0.5,0,0.8
			l-0.1,0.8c0,0.3-0.1,0.6-0.1,0.9s-0.2,0.6-0.3,0.9c-0.2,0.6-0.4,1.2-0.8,1.8c-0.3,0.6-0.7,1.1-1.1,1.6c-0.4,0.5-0.9,1-1.4,1.4
			c-0.5,0.4-1,0.8-1.5,1.1c-0.5,0.3-1,0.5-1.6,0.8c-0.5,0.2-1,0.3-1.5,0.5c-0.4,0.1-0.9,0.2-1.3,0.2c-0.3,0-0.7,0-1,0
			c-0.2,0-0.4,0-0.6-0.1L-43.6,514.8z"/>
		<path class="st11" d="M-56.1,498.9c0,0-0.2-0.3-0.4-0.8c-0.1-0.3-0.3-0.7-0.3-1c-0.1-0.4-0.2-0.9-0.2-1.3c0-0.5,0-1.1,0-1.6
			c0-0.6,0.1-1.2,0.3-1.8c0.1-0.3,0.2-0.6,0.3-0.9c0.1-0.3,0.2-0.6,0.4-0.9c0.3-0.6,0.7-1.2,1.2-1.7c0.5-0.5,1-1,1.6-1.3
			c0.6-0.4,1.2-0.6,1.8-0.9c0.6-0.2,1.2-0.3,1.8-0.3c0.5,0,1.1,0,1.6,0.1c0.5,0.1,0.9,0.2,1.3,0.2s0.7,0.2,1,0.4
			c0.5,0.2,0.8,0.4,0.8,0.4s-0.3,0-0.9,0.1c-0.3,0-0.6,0-1,0.1s-0.8,0.1-1.2,0.2c-0.2,0-0.5,0.1-0.7,0.1l-0.7,0.2
			c-0.5,0.1-0.9,0.4-1.4,0.5c-0.5,0.2-0.9,0.5-1.3,0.8c-0.4,0.3-0.8,0.6-1.2,1c-0.4,0.4-0.7,0.8-1,1.3c-0.3,0.4-0.5,0.9-0.8,1.4
			c-0.2,0.5-0.4,0.9-0.5,1.4c-0.2,0.5-0.2,0.9-0.4,1.4s-0.1,0.9-0.2,1.2c0,0.4-0.1,0.7-0.1,1C-56.1,498.5-56.1,498.9-56.1,498.9z"/>
		<path class="st11" d="M-38.5,516.5c0,0,0.1-0.1,0.4-0.2s0.5-0.3,0.9-0.5s0.7-0.4,1.1-0.6l0.5-0.3c0.2-0.1,0.4-0.2,0.5-0.4
			s0.3-0.3,0.5-0.4s0.3-0.3,0.5-0.4l1-0.9c0.3-0.3,0.6-0.5,0.8-0.7c0.2-0.2,0.4-0.2,0.4-0.2c0,0.1,0,0.3,0.1,0.4
			c0,0.4,0,0.7-0.1,1.1c-0.1,0.5-0.3,1-0.5,1.5c-0.1,0.3-0.3,0.5-0.5,0.7c-0.2,0.2-0.4,0.5-0.7,0.7c-0.5,0.4-1.1,0.7-1.7,0.8
			c-0.5,0.1-1.1,0.1-1.6,0c-0.4-0.1-0.7-0.2-1-0.3C-38.4,516.6-38.5,516.5-38.5,516.5z"/>
		<path class="st12" d="M-4.5,470.3h53.1c1.3,0,2.3,1,2.3,2.3v52.8c0,1.3-1,2.3-2.3,2.3H-4.2c-1.3,0-2.3-1-2.3-2.3v-53.1
			C-6.5,471.2-5.6,470.3-4.5,470.3z"/>
		<path class="st8" d="M-39.2,400.5h53.4c1.1,0,2,0.9,2,2v53.4c0,1.1-0.9,2-2,2h-53.4c-1.1,0-2-0.9-2-2v-53.4
			C-41.2,401.4-40.3,400.5-39.2,400.5z"/>
		<path class="st13" d="M22.5,504.9c-0.2-0.1-0.5-0.2-0.7-0.4c-0.3-0.2-0.5-0.4-0.7-0.6c-0.3-0.3-0.5-0.6-0.7-0.9
			c-0.5-0.9-0.8-1.9-0.9-2.9c0-0.6,0.1-1.3,0.3-1.9c0.2-0.7,0.7-1.3,1.2-1.8c0.1-0.1,0.3-0.2,0.5-0.3l0.1-0.1h0.1l0.2-0.1
			c0.3-0.2,0.7-0.3,1-0.4c1.3-0.3,2.7,0.2,3.5,1.4c0.3,0.4,0.5,0.8,0.6,1.3c0.2,0.6,0.3,1.3,0.2,2c0,0.2-0.1,0.5-0.1,0.7
			c0,0-0.1-0.3-0.3-0.7c-0.2-0.5-0.5-1.1-0.9-1.5c-0.2-0.3-0.5-0.5-0.7-0.8c-0.3-0.2-0.6-0.3-0.9-0.4c-0.3,0-0.6,0-0.8,0.1
			c-0.1,0.1-0.3,0.1-0.4,0.2l-0.2,0.1l-0.1,0l0,0c-0.1,0-0.1,0.1-0.1,0.2c-0.4,0.5-0.6,1.2-0.7,1.9c-0.1,0.8-0.1,1.5,0,2.3
			c0,0.4,0.1,0.7,0.1,1s0.1,0.6,0.2,0.8C22.4,504.6,22.5,504.9,22.5,504.9z"/>
		<path class="st13" d="M18.2,503.5l-0.3-0.3c-0.3-0.3-0.5-0.7-0.7-1.1c-0.6-1.4-0.8-2.9-0.7-4.4c0.1-1,0.3-2,0.6-3
			c0.4-1.1,1-2.2,1.8-3.1c1.4-1.5,3.5-2.3,5.6-2.1c0.4,0,0.6,0.1,1,0.2l0.4,0.1l0.5,0.2c0.7,0.2,1.3,0.6,1.9,1
			c0.5,0.4,1,0.9,1.4,1.5c0.7,1.1,1.2,2.3,1.4,3.5c0.3,2.1,0.1,4.3-0.6,6.3c-0.5,1.4-1.2,2.7-2.1,3.8c-0.3,0.3-0.5,0.6-0.8,0.9
			l-0.3,0.3c0.3-0.5,0.5-0.9,0.7-1.4c0.6-1.2,1-2.6,1.2-3.9c0.2-0.9,0.2-1.8,0.2-2.7c0-1-0.1-1.9-0.4-2.9c-0.2-0.9-0.7-1.8-1.3-2.6
			c-0.6-0.7-1.3-1.3-2.2-1.6l-0.3-0.1l-0.4-0.1c-0.2,0-0.5,0-0.7-0.1c-0.5,0-0.9,0-1.4,0.1c-0.9,0.2-1.7,0.6-2.3,1.2
			c-0.7,0.6-1.2,1.4-1.6,2.2c-0.4,0.8-0.7,1.6-0.9,2.4c-0.4,1.3-0.5,2.7-0.4,4C17.8,502.5,17.9,503,18.2,503.5z"/>
		<path class="st13" d="M31.6,489.9c0,0-0.2-0.2-0.5-0.6c-0.2-0.2-0.4-0.4-0.6-0.6c-0.2-0.2-0.5-0.5-0.8-0.7c-0.3-0.2-0.7-0.5-1-0.7
			c-0.4-0.2-0.7-0.4-1.1-0.6l-0.6-0.3c-0.2-0.1-0.4-0.1-0.6-0.2c-0.2-0.1-0.4-0.2-0.7-0.2c-0.2-0.1-0.4-0.1-0.7-0.2
			c-0.5-0.1-0.9-0.2-1.4-0.3s-0.9-0.1-1.4-0.2s-0.9-0.1-1.3,0c-0.4,0-0.8,0-1.2,0c-0.4,0-0.7,0.1-1,0.1c-0.3,0-0.6,0.1-0.8,0.1
			c-0.5,0.1-0.8,0.1-0.8,0.1c0.2-0.2,0.3-0.4,0.5-0.6c0.2-0.2,0.4-0.4,0.7-0.6c0.3-0.2,0.6-0.4,1-0.6l0.6-0.3l0.7-0.2
			c1.1-0.4,2.2-0.5,3.4-0.4c0.6,0,1.2,0.1,1.8,0.3c0.6,0.1,1.1,0.4,1.7,0.6c0.5,0.2,1,0.5,1.5,0.9c0.4,0.3,0.8,0.7,1.2,1.1
			c0.3,0.4,0.6,0.8,0.8,1.2c0.1,0.2,0.2,0.4,0.3,0.6l0.2,0.6c0.1,0.3,0.2,0.6,0.2,0.9C31.6,489.6,31.6,489.9,31.6,489.9z"/>
		<path class="st13" d="M22.5,511.5c0,0,0.5,0,1.3,0c0.4,0,0.9-0.1,1.4-0.2c0.3-0.1,0.5-0.2,0.8-0.3l0.4-0.1l0.4-0.2
			c0.6-0.3,1.2-0.7,1.7-1.1c0.3-0.3,0.6-0.5,0.8-0.8c0.3-0.3,0.5-0.6,0.8-0.9l0.7-1l0.7-1.1l0.6-1.2c0.2-0.4,0.4-0.8,0.5-1.2
			c0.3-0.8,0.6-1.7,0.8-2.5c0.2-0.8,0.4-1.7,0.5-2.5c0-0.4,0.1-0.8,0.1-1.2s0-0.8,0-1.2c0-0.8,0-1.5-0.1-2.2
			c-0.1-1.1-0.3-2.2-0.6-3.3c-0.2-0.8-0.4-1.2-0.4-1.2c0.3,0.3,0.6,0.6,0.9,1c0.7,1,1.3,2.1,1.6,3.2c0.3,0.8,0.5,1.5,0.6,2.3
			c0.1,0.4,0.1,0.9,0.2,1.3c0,0.5,0,0.9,0,1.4c0,1-0.1,2-0.3,2.9c-0.2,1-0.5,2-0.9,2.9c-0.2,0.5-0.4,0.9-0.6,1.4
			c-0.2,0.5-0.5,0.9-0.8,1.3s-0.6,0.8-0.9,1.2s-0.6,0.8-1,1.1c-0.4,0.4-0.7,0.7-1.1,1s-0.8,0.5-1.1,0.8c-0.7,0.4-1.5,0.8-2.3,1
			l-0.5,0.1h-0.5c-0.4,0-0.7,0-1,0c-0.5,0-1.1-0.1-1.6-0.3C22.9,511.7,22.5,511.5,22.5,511.5z"/>
		<path class="st13" d="M11.1,496.2c0,0.5,0,1.1,0,1.6c0,1.3,0.2,2.7,0.5,4c0.2,0.9,0.5,1.7,0.8,2.5c0.4,0.9,0.9,1.7,1.4,2.5
			c0.6,0.8,1.3,1.6,2,2.2c0.4,0.3,0.8,0.7,1.3,1c0.4,0.3,0.9,0.6,1.3,1c0.9,0.6,1.8,1.2,2.8,1.8c1,0.5,1.9,1.1,2.8,1.5l2.8,1.3
			c0.9,0.4,1.8,0.8,2.5,1.2c1.3,0.6,2.5,1.4,3.6,2.4c0.3,0.3,0.5,0.6,0.7,1l0.2,0.4l-0.3-0.3c-0.3-0.2-0.6-0.5-0.9-0.7
			c-1.2-0.6-2.5-1.1-3.8-1.5c-0.8-0.2-1.7-0.5-2.7-0.8s-2-0.6-3-1c-1.1-0.4-2.1-0.9-3.1-1.5c-1.1-0.6-2.1-1.2-3.1-1.9
			c-0.5-0.3-1-0.7-1.4-1.1s-0.9-0.7-1.4-1.2c-2.4-2.3-3.9-5.5-4-8.8c-0.1-1.4,0.1-2.9,0.5-4.3C10.7,497.2,10.9,496.7,11.1,496.2z"/>
		<path class="st13" d="M8.7,507.1c0,0,0.1,0.4,0.4,1c0.1,0.3,0.3,0.7,0.5,1.1c0.2,0.5,0.5,0.9,0.7,1.3c0.3,0.5,0.7,1,1.1,1.4
			c0.4,0.5,0.9,0.9,1.4,1.3c0.5,0.4,1.1,0.9,1.7,1.2c0.6,0.4,1.2,0.8,1.9,1.1c1.3,0.7,2.6,1.3,4,1.8c1.3,0.5,2.6,1,3.7,1.4l2.7,1
			c0.6,0.2,1,0.4,1,0.4c-1.3,0.2-2.7,0.2-4,0.1c-1.4-0.1-2.7-0.3-4.1-0.7c-1.6-0.4-3.1-1-4.5-1.7c-0.7-0.4-1.4-0.8-2.1-1.3
			c-0.7-0.5-1.3-1-1.8-1.6c-0.5-0.6-1-1.2-1.4-1.9c-0.4-0.6-0.6-1.2-0.8-1.9c-0.3-1-0.4-2-0.4-3c0-0.4,0.1-0.6,0.1-0.8L8.7,507.1z"
			/>
		<path class="st13" d="M8.1,502.9c0,0-0.2-0.6-0.5-1.5c-0.1-0.5-0.4-1.1-0.5-1.8c-0.2-0.7-0.2-1.5-0.4-2.4c-0.1-1-0.1-2,0-2.9
			c0-0.5,0.1-1.1,0.2-1.6c0.1-0.5,0.2-1.1,0.3-1.7c0.3-1.2,0.8-2.3,1.4-3.3c0.6-1.1,1.3-2.1,2.1-3.1l1.4-1.3c0.5-0.4,1-0.8,1.5-1.1
			c0.3-0.2,0.5-0.4,0.8-0.5l0.8-0.4c0.5-0.3,1.1-0.5,1.7-0.6c0.6-0.1,1.1-0.3,1.7-0.4l1.6-0.1c0.3,0,0.5,0,0.8,0l0.8,0
			c0.5,0,1,0.1,1.4,0.2c0.8,0.2,1.6,0.4,2.4,0.8c0.6,0.2,1.2,0.5,1.7,0.9c0.9,0.6,1.3,1,1.3,1s-0.6-0.2-1.5-0.5
			c-0.6-0.2-1.2-0.3-1.8-0.4c-0.7-0.1-1.5-0.2-2.3-0.2c-0.4,0-0.9,0-1.3,0.1c-0.5,0-0.9,0.1-1.4,0.1l-1.4,0.3l-1.4,0.5
			c-0.5,0.2-0.9,0.4-1.4,0.6c-0.5,0.2-0.9,0.5-1.3,0.8c-0.4,0.3-0.9,0.6-1.3,0.9l-1.1,1.1c-0.7,0.8-1.3,1.6-1.9,2.6
			c-0.5,0.9-1,1.8-1.4,2.8c-0.2,0.5-0.3,1-0.4,1.4c-0.2,0.5-0.3,0.9-0.4,1.4c-0.1,0.5-0.1,0.9-0.2,1.4c-0.1,0.4-0.2,0.9-0.2,1.3
			c0,0.8-0.1,1.6-0.2,2.3c-0.1,0.7,0,1.3,0,1.9C8.1,502.3,8.1,502.9,8.1,502.9z"/>
		<path class="st13" d="M8.4,483.9l0.2-0.4c0.2-0.4,0.5-0.8,0.7-1.2c0.4-0.6,0.9-1.2,1.4-1.7c0.7-0.7,1.4-1.3,2.2-1.9
			c2-1.4,4.3-2.3,6.8-2.6c2.8-0.4,5.7,0,8.3,1.1c1.3,0.6,2.6,1.3,3.7,2.2c1.1,0.9,2,1.9,2.9,3c0.4,0.5,0.8,1.1,1.1,1.6
			c0.3,0.6,0.6,1.1,0.8,1.7c0.5,1,0.8,2.1,1.1,3.2c0.1,0.5,0.2,1,0.3,1.5l0.2,1.3c0.1,0.8,0.1,1.6,0.1,2.2c0,1.2-0.1,1.9-0.1,1.9
			s-0.2-0.7-0.4-1.8l-0.6-2c-0.2-0.8-0.5-1.6-0.9-2.5c-0.4-1-0.9-1.9-1.4-2.8c-0.6-1-1.3-1.9-2-2.8c-0.8-0.9-1.7-1.7-2.6-2.5
			c-2-1.5-4.3-2.5-6.7-2.9c-1.2-0.2-2.4-0.3-3.6-0.2c-1.1,0.1-2.3,0.3-3.4,0.5c-1,0.3-2,0.6-2.9,1.1c-0.8,0.4-1.6,0.8-2.3,1.3
			c-0.6,0.4-1.1,0.8-1.6,1.3c-0.4,0.4-0.8,0.7-1,0.9L8.4,483.9z"/>
		<path class="st13" d="M14.5,502.2c0,0,0.2,0.2,0.5,0.6c0.3,0.4,0.8,0.9,1.3,1.4c0.6,0.6,1.3,1.1,2,1.5c0.7,0.4,1.6,0.8,2.4,0.9
			c0.8,0.1,1.6,0.1,2.4-0.2c0.6-0.2,1.2-0.6,1.6-1.2c0.2-0.3,0.3-0.6,0.3-0.9c0.1-0.3,0.1-0.5,0.1-0.8c0-0.5,0-0.8,0-0.8l0.1,0.2
			c0.1,0.1,0.3,0.3,0.4,0.5c0.2,0.3,0.3,0.6,0.4,0.9c0.1,0.4,0.2,0.9,0.1,1.3c-0.1,0.6-0.3,1.1-0.6,1.6c-0.4,0.5-0.8,1-1.4,1.3
			c-1.2,0.7-2.5,0.9-3.8,0.7c-1.2-0.2-2.4-0.8-3.4-1.6c-0.8-0.7-1.4-1.5-1.8-2.5c-0.2-0.4-0.3-0.7-0.4-1.1c-0.1-0.3-0.1-0.6-0.2-0.9
			C14.5,502.5,14.5,502.2,14.5,502.2z"/>
		<path class="st13" d="M29.4,514.6l0.5-0.4c0.3-0.3,0.8-0.7,1.2-1.1c0.5-0.5,1-1,1.6-1.6c0.6-0.6,1.1-1.2,1.6-1.9
			c0.3-0.3,0.5-0.7,0.7-1l0.7-1c0.2-0.3,0.4-0.7,0.6-1s0.4-0.6,0.5-0.9c0.2-0.3,0.4-0.6,0.5-0.8s0.2-0.5,0.4-0.7
			c0.2-0.4,0.4-0.6,0.4-0.6c0.1,0.2,0.1,0.4,0.1,0.7c0,0.2,0.1,0.5,0.1,0.8c0,0.3,0,0.7,0,1c0,0.4-0.1,0.8-0.1,1.2
			c-0.1,0.4-0.2,0.9-0.4,1.3c-0.2,0.5-0.4,0.9-0.6,1.3c-0.2,0.4-0.5,0.9-0.8,1.3c-0.3,0.4-0.6,0.8-1,1.1c-0.4,0.3-0.7,0.6-1.1,0.9
			c-0.7,0.5-1.5,0.9-2.3,1.1c-0.6,0.2-1.2,0.3-1.8,0.3C29.9,514.7,29.7,514.7,29.4,514.6z"/>
		<path class="st13" d="M14.1,499.4c0,0-0.2-0.3-0.5-0.7c-0.2-0.3-0.3-0.7-0.4-1c-0.3-0.9-0.5-1.9-0.5-2.9c0-0.6,0.1-1.2,0.2-1.8
			c0.1-0.3,0.1-0.7,0.3-1l0.1-0.5l0.2-0.5c0.3-0.6,0.7-1.3,1.1-1.8c0.5-0.5,1-1,1.6-1.4c0.6-0.4,1.2-0.7,1.8-0.9
			c0.6-0.2,1.2-0.3,1.8-0.4c0.5-0.1,1.1-0.1,1.6,0c0.5,0.1,0.9,0.1,1.3,0.2c0.4,0.1,0.7,0.2,1,0.3c0.5,0.2,0.8,0.3,0.8,0.3
			s-0.3,0.1-0.9,0.2c-0.3,0-0.6,0.1-1,0.1s-0.8,0.2-1.2,0.3c-0.2,0-0.4,0.1-0.6,0.2l-0.7,0.2c-0.5,0.1-0.9,0.4-1.4,0.6
			c-0.4,0.3-0.8,0.5-1.2,0.9c-0.4,0.3-0.8,0.7-1.1,1.1c-0.3,0.4-0.6,0.8-0.9,1.3c-0.3,0.5-0.5,0.9-0.7,1.4c-0.1,0.2-0.2,0.5-0.3,0.7
			c-0.1,0.2-0.1,0.5-0.2,0.7c-0.1,0.5-0.2,0.9-0.3,1.4c-0.1,0.4-0.1,0.9-0.1,1.2c0,0.3-0.1,0.7,0,1C14.1,499,14.1,499.4,14.1,499.4z
			"/>
		<path class="st13" d="M33.6,517.1c0,0,0-0.1,0-0.3c0-0.2,0.1-0.4,0.2-0.7c0.1-0.5,0.4-0.9,0.8-1.2c0.4-0.3,0.8-0.5,1.3-0.5
			l0.7-0.1h0.3c0.1,0.3,0.2,0.7,0.2,1c-0.1,1.3-1.2,2.2-2.4,2.1c0,0,0,0,0,0c-0.2,0-0.5-0.1-0.7-0.2
			C33.8,517.2,33.7,517.2,33.6,517.1z"/>
		<path class="st6" d="M-108.7,400.5h53.4c1.1,0,2,0.9,2,2v53.4c0,1.1-0.9,2-2,2h-53.4c-1.1,0-2-0.9-2-2v-53.4
			C-110.7,401.4-109.8,400.5-108.7,400.5z"/>
		<path class="st7" d="M-92.6,443.7c0.1,0.1,0.3,0.1,0.4,0.1c0.4,0.1,0.8,0.1,1.2,0.1c0.6-0.1,1.2-0.2,1.8-0.4
			c0.8-0.3,1.5-0.6,2.1-1.1c0.8-0.5,1.5-1.2,2.1-1.9c0.7-0.8,1.2-1.6,1.7-2.6c0.5-1,0.8-2.1,1.1-3.1c0.1-0.6,0.2-1.1,0.3-1.7
			c0.1-0.6,0.2-1.2,0.2-1.7c0.1-0.8-0.1-1.7-0.6-2.3c-0.1,0-0.1,0-0.2,0v0.1l0,0c0,0-0.1-0.1,0.1-0.1l0,0h-0.2c-0.1,0,0,0,0,0
			c-0.2,0.2-0.4,0.4-0.5,0.6c-0.2,0.4-0.4,0.9-0.5,1.4c-0.1,0.2-0.1,0.5-0.2,0.8l-0.2,0.8c-0.3,1-0.6,2-1,3
			c-0.4,0.8-0.8,1.6-1.3,2.4c-0.4,0.6-0.9,1.1-1.4,1.5c-0.3,0.3-0.7,0.6-1.1,0.8l-0.4,0.2l0.3-0.4c0.2-0.2,0.4-0.6,0.7-1.1
			c0.3-0.6,0.6-1.1,0.8-1.7c0.3-0.8,0.5-1.5,0.7-2.3c0.2-0.9,0.4-1.9,0.4-2.9c0.1-1.2,0.3-2.5,0.8-3.6c0.3-0.9,1-1.6,1.8-2
			c0.1-0.1,0.3-0.1,0.4-0.1h0.1h0.1l0,0h0.1l0,0c0.3,0,0.6,0,0.9,0c0.5,0.1,1,0.3,1.5,0.7c0.7,0.6,1.2,1.4,1.4,2.3
			c0.2,0.7,0.2,1.5,0.2,2.3c-0.1,0.7-0.2,1.3-0.3,2c-0.1,0.6-0.3,1.3-0.5,1.9c-0.4,1.3-0.9,2.5-1.5,3.6c-0.6,1.1-1.4,2-2.4,2.8
			c-0.8,0.7-1.7,1.3-2.7,1.8c-1.5,0.7-3.1,0.9-4.7,0.7c-0.4-0.1-0.9-0.2-1.3-0.4C-92.3,444-92.5,443.8-92.6,443.7z"/>
		<path class="st7" d="M-89.9,433.7l-0.1-1.8c0-0.6-0.1-1.3-0.1-2.1c0-0.9,0-1.9,0.1-2.8c0.1-1.2,0.6-2.4,1.2-3.4
			c0.4-0.6,0.9-1.1,1.4-1.5c0.3-0.2,0.6-0.4,0.8-0.6c1.7-1,3.6-1.3,5.5-0.9c1.5,0.4,2.9,1.1,4,2.2c0.5,0.5,1,1.1,1.5,1.7
			c0.1,0.2,0.2,0.3,0.3,0.5l0.2,0.4c0.2,0.3,0.4,0.7,0.5,1.1c0.5,1.3,0.8,2.8,0.7,4.2c0,1.3-0.3,2.6-0.7,3.8
			c-0.4,1.1-0.8,2.1-1.4,3.1c-0.9,1.4-2,2.7-3.4,3.6c-0.4,0.3-0.8,0.5-1.2,0.7l-0.4,0.2l0.4-0.3c0.2-0.2,0.5-0.5,0.9-1
			c1-1.2,1.8-2.5,2.4-3.9c0.4-0.9,0.7-1.9,0.9-2.9c0.2-1.1,0.3-2.2,0.2-3.2c-0.1-1.1-0.3-2.2-0.8-3.2c-0.1-0.3-0.2-0.5-0.4-0.7
			l-0.3-0.4c0-0.1-0.2-0.2-0.2-0.3c-0.3-0.5-0.7-0.9-1.1-1.3c-0.8-0.8-1.7-1.3-2.8-1.6c-1-0.3-2-0.2-3,0.1c-0.2,0.1-0.4,0.2-0.7,0.3
			c-0.2,0.1-0.6,0.3-0.7,0.4c-0.4,0.3-0.8,0.6-1.1,0.9c-0.6,0.7-1,1.5-1.3,2.4c-0.3,0.9-0.5,1.8-0.6,2.5s-0.3,1.5-0.4,2
			C-89.6,433-89.9,433.7-89.9,433.7z"/>
		<path class="st7" d="M-91.5,437.5c0,0-0.3-0.6-0.7-1.7c-0.6-1.5-1.2-3-1.6-4.5c-0.3-1-0.6-2.1-0.7-3.2c-0.2-1.2-0.3-2.5-0.2-3.7
			c0.1-1.4,0.4-2.8,1-4.1c0.7-1.4,1.7-2.5,2.9-3.4c0.6-0.4,1.2-0.8,1.9-1.1l0.5-0.2l0.6-0.2c0.4-0.1,0.7-0.2,1.1-0.3
			c1.4-0.3,2.7-0.3,4.1-0.1c1.3,0.1,2.5,0.4,3.6,0.9c1.1,0.4,2.1,0.9,3,1.6c1.4,0.9,2.5,2.3,3.1,3.8c0.2,0.4,0.3,0.9,0.3,1.3v0.5
			l-0.2-0.4c-0.2-0.4-0.4-0.8-0.7-1.1c-0.9-1.2-2.1-2.1-3.5-2.7c-0.9-0.4-1.8-0.8-2.8-1c-1.1-0.2-2.1-0.4-3.2-0.4
			c-1.1,0-2.3,0.1-3.4,0.3c-0.3,0.1-0.5,0.1-0.8,0.2l-0.4,0.1l-0.4,0.2c-0.5,0.2-1,0.5-1.4,0.8c-0.9,0.6-1.6,1.4-2.1,2.4
			c-0.5,1-0.9,2-1,3.1c-0.2,2.1-0.2,4.2,0.1,6.3c0.2,1.9,0.5,3.5,0.6,4.7S-91.5,437.5-91.5,437.5z"/>
		<path class="st7" d="M-71,426.7c0.2,0.4,0.4,0.9,0.5,1.3c0.4,1.2,0.6,2.5,0.7,3.8c0.2,2.9-0.5,5.9-2,8.4c-0.3,0.5-0.6,0.9-0.9,1.4
			l-0.2,0.3l-0.2,0.2l-0.1,0.1l-0.5,0.6c-0.4,0.4-0.8,0.8-1.2,1.2c-0.4,0.4-0.9,0.7-1.3,1c-0.9,0.6-1.8,1.1-2.8,1.5
			c-0.9,0.4-1.9,0.7-2.8,0.9c-0.9,0.2-1.7,0.3-2.6,0.3c-0.7,0-1.5-0.1-2.2-0.2c-0.6-0.1-1.1-0.3-1.6-0.5c-0.3-0.1-0.7-0.3-1-0.5
			l-0.3-0.2l0.4,0.1c0.3,0.1,0.7,0.1,1,0.1c0.2,0,0.5,0,0.7,0c0.3,0,0.6,0,0.9,0c0.7,0,1.3-0.1,2-0.3c0.8-0.2,1.5-0.4,2.3-0.6
			c0.8-0.3,1.6-0.6,2.4-1c0.8-0.4,1.6-0.9,2.4-1.5c0.4-0.2,0.7-0.6,1.1-0.9c0.4-0.3,0.7-0.6,1-1l0.5-0.6l0.1-0.1l0.1-0.1l0.2-0.3
			c0.3-0.4,0.6-0.7,0.8-1.1c0.5-0.8,1-1.6,1.3-2.4c0.7-1.5,1.1-3.2,1.3-4.8c0.1-1.2,0.2-2.4,0.2-3.7C-70.9,427.2-71,426.7-71,426.7z
			"/>
		<path class="st7" d="M-67.7,435.7c0,0,0.1,0.4,0.2,1c0,0.3,0.1,0.7,0.2,1.2c0,0.4,0,1,0,1.6c0,0.6-0.1,1.3-0.3,1.9
			c-0.2,0.7-0.4,1.4-0.7,2c-0.1,0.3-0.3,0.7-0.5,1c-0.2,0.3-0.4,0.7-0.6,1c-0.5,0.6-1,1.2-1.6,1.8c-0.6,0.5-1.2,1-1.9,1.4
			c-0.3,0.2-0.7,0.4-1,0.6c-0.3,0.2-0.7,0.3-1,0.5c-0.6,0.3-1.3,0.5-2,0.7c-0.6,0.2-1.2,0.3-1.8,0.3c-0.9,0.1-1.9,0.1-2.8,0
			c-0.3,0-0.5-0.1-0.8-0.1l-0.3-0.1c0,0,0.4-0.1,1-0.3c0.6-0.2,1.5-0.5,2.4-0.9c0.5-0.2,1-0.5,1.5-0.7c0.5-0.3,1.1-0.5,1.6-0.9
			s1.1-0.7,1.6-1.1c0.5-0.4,1.1-0.8,1.5-1.3c0.5-0.4,0.9-0.9,1.4-1.4c0.4-0.5,0.8-1,1.1-1.5c0.6-1,1.1-2,1.6-3.1
			c0.2-0.5,0.4-0.9,0.5-1.3c0.2-0.4,0.2-0.8,0.3-1.1C-67.8,436.1-67.7,435.7-67.7,435.7z"/>
		<path class="st7" d="M-67.3,432.9c0,0,0-0.6,0-1.7v-1.9c-0.1-0.7-0.1-1.5-0.2-2.4c-0.1-0.4-0.1-0.9-0.2-1.3
			c-0.1-0.4-0.2-0.9-0.3-1.4c-0.3-1-0.6-1.9-1.1-2.8c-0.9-1.9-2.3-3.7-3.9-5.1c-0.8-0.7-1.7-1.3-2.7-1.8c-0.9-0.5-1.9-0.9-2.9-1.2
			c-1.8-0.6-3.7-0.8-5.6-0.7c-0.8,0.1-1.5,0.2-2.3,0.3c-0.3,0.1-0.6,0.2-0.9,0.3c-0.3,0.1-0.5,0.2-0.8,0.3c-0.4,0.1-0.7,0.3-1.1,0.5
			l-0.4,0.2l0.3-0.3c0.3-0.3,0.6-0.6,0.9-0.8c0.5-0.4,1.1-0.7,1.7-1c0.8-0.4,1.6-0.7,2.4-0.9c1-0.2,2-0.4,3-0.4
			c1.1,0,2.3,0.1,3.4,0.4c1.2,0.3,2.4,0.7,3.5,1.2c1.1,0.6,2.2,1.3,3.2,2.1c1,0.9,1.8,1.8,2.6,2.9c0.7,1,1.3,2.1,1.7,3.3
			c0.4,1.1,0.7,2.2,0.9,3.3c0.2,1,0.2,2,0.2,3c0,0.8-0.1,1.7-0.3,2.5c-0.1,0.7-0.3,1.4-0.4,1.9C-67.1,432.3-67.3,432.9-67.3,432.9z"
			/>
		<path class="st7" d="M-71,411.7c0,0-0.6-0.2-1.5-0.7l-0.8-0.4c-0.3-0.1-0.6-0.2-0.9-0.3c-0.7-0.3-1.5-0.5-2.2-0.7l-1.3-0.3
			c-0.4-0.1-0.9-0.1-1.4-0.2c-1-0.1-2-0.2-3-0.1c-0.5,0-1,0.1-1.6,0.2c-0.3,0-0.5,0.1-0.8,0.1l-0.8,0.2c-1.1,0.2-2.1,0.6-3.1,1
			l-1.4,0.8c-0.5,0.3-0.9,0.6-1.3,0.9c-0.2,0.2-0.4,0.3-0.6,0.5l-0.6,0.6c-0.4,0.3-0.7,0.7-1.1,1.1c-0.3,0.4-0.6,0.8-0.9,1.2
			c-0.3,0.4-0.5,0.9-0.7,1.3c-0.4,0.8-0.8,1.6-1.1,2.5c-0.2,0.4-0.3,0.8-0.3,1.2l-0.3,1.1c-0.1,0.6-0.2,1.2-0.3,1.8
			c-0.1,1-0.2,1.6-0.2,1.6s-0.1-0.6-0.3-1.6c-0.1-0.6-0.2-1.3-0.2-1.9c0-0.8,0-1.7,0.1-2.5c0.1-1,0.4-2,0.7-2.9
			c0.2-0.5,0.4-1,0.6-1.5c0.2-0.6,0.6-1,0.9-1.5c0.3-0.5,0.7-0.9,1.1-1.4l0.6-0.7c0.2-0.2,0.5-0.4,0.7-0.6c0.5-0.4,1-0.8,1.5-1.1
			l1.7-1c1.2-0.5,2.4-0.9,3.6-1.1l0.9-0.2c0.3,0,0.6,0,0.9-0.1c0.6,0,1.2-0.1,1.8-0.1c1.1,0,2.3,0.2,3.4,0.5c0.5,0.1,1,0.2,1.5,0.4
			l1.3,0.6c0.8,0.3,1.5,0.7,2.2,1.2c0.3,0.2,0.6,0.4,0.9,0.6l0.6,0.6C-71.4,411.3-71,411.7-71,411.7z"/>
		<path class="st7" d="M-97.1,427.6c0,0,0.1,0.3,0.2,0.7l0.2,0.8c0.1,0.3,0.2,0.7,0.3,1.1c0.1,0.4,0.3,0.8,0.4,1.2
			c0.1,0.4,0.3,0.9,0.4,1.3l0.5,1.4c0.2,0.5,0.4,0.9,0.6,1.4s0.4,0.9,0.7,1.4c0.2,0.5,0.5,0.9,0.7,1.3s0.5,0.8,0.8,1.1
			c0.3,0.4,0.5,0.7,0.8,1c0.3,0.3,0.5,0.5,0.7,0.8l0.6,0.6c0.4,0.3,0.6,0.5,0.6,0.5s-0.3,0-0.8-0.1c-0.2-0.1-0.5-0.1-0.9-0.3
			c-0.4-0.1-0.7-0.3-1.1-0.5c-0.4-0.2-0.8-0.5-1.2-0.8c-0.4-0.3-0.8-0.7-1.1-1.1c-0.4-0.4-0.7-0.9-1-1.4c-0.3-0.5-0.6-1-0.8-1.5
			c-0.2-0.5-0.4-1.1-0.6-1.6c-0.2-0.5-0.3-1.1-0.4-1.6c-0.2-1-0.2-1.9-0.2-2.9c0-0.7,0.1-1.3,0.3-2
			C-97.2,427.9-97.1,427.6-97.1,427.6z"/>
		<path class="st7" d="M-84.1,450.4c-0.7,0.3-1.6,0.5-2.4,0.6c-0.8,0.1-1.7,0-2.5-0.2c-0.5-0.1-0.9-0.3-1.4-0.4
			c-0.5-0.2-0.9-0.4-1.4-0.7l-0.6-0.4c-0.2-0.2-0.4-0.4-0.6-0.5c-0.4-0.3-0.7-0.7-1-1.1c-0.3-0.4-0.5-0.8-0.6-1.2
			c-0.2-0.4-0.3-0.8-0.4-1.2c-0.1-0.3-0.1-0.7-0.2-1c0-0.3,0-0.6,0-0.8c0-0.4,0.1-0.7,0.1-0.7s0.1,0.2,0.4,0.6
			c0.1,0.2,0.2,0.4,0.4,0.6s0.4,0.5,0.5,0.8c0.2,0.3,0.4,0.6,0.6,0.8c0.2,0.3,0.5,0.6,0.7,0.8c0.3,0.3,0.6,0.5,0.9,0.8l0.5,0.4
			l0.5,0.3c0.3,0.2,0.7,0.4,1,0.6s0.7,0.4,1.1,0.5c0.7,0.3,1.4,0.6,2.1,0.8C-85,450.1-84.1,450.4-84.1,450.4z"/>
		<path class="st12" d="M-178.2,400.5h53.4c1.1,0,2,0.9,2,2v53.4c0,1.1-0.9,2-2,2h-53.4c-1.1,0-2-0.9-2-2v-53.4
			C-180.2,401.4-179.3,400.5-178.2,400.5z"/>
		<path class="st13" d="M-145.1,431.8l-0.2,0.1c-0.2,0.1-0.3,0.1-0.5,0.1c-0.6,0.1-1.3,0-1.9-0.2c-0.9-0.3-1.6-0.9-2.2-1.7
			c-0.3-0.5-0.6-1-0.7-1.5c-0.2-0.7-0.1-1.4,0.2-2c0.2-0.3,0.4-0.6,0.7-0.9l0.2-0.2c0.1,0,0.1-0.1,0.2-0.1l0.4-0.2
			c0.6-0.3,1.2-0.4,1.8-0.3c0.6,0.1,1.1,0.4,1.5,0.8c0.3,0.3,0.5,0.7,0.7,1.1c0.2,0.6,0.4,1.1,0.4,1.8c0,0.2,0,0.4-0.1,0.7
			c-0.1-0.2-0.2-0.4-0.3-0.6c-0.3-0.5-0.6-0.9-0.9-1.2c-0.2-0.2-0.5-0.4-0.7-0.5c-0.2-0.1-0.5-0.2-0.7-0.2c-0.2,0-0.5,0.1-0.7,0.3
			c-0.1,0.1-0.2,0.2-0.3,0.3c0,0.1-0.1,0.1-0.1,0.2c-0.1,0.6,0,1.1,0.3,1.6c0.3,0.6,0.6,1.1,1.1,1.5c0.4,0.4,0.8,0.7,1.2,0.9
			l0.4,0.2L-145.1,431.8z"/>
		<path class="st13" d="M-143.5,423.8l-0.3-0.2c-0.2-0.1-0.4-0.3-0.7-0.4c-0.4-0.2-0.7-0.4-1.1-0.5c-0.5-0.2-1-0.3-1.5-0.4
			c-0.6-0.1-1.1-0.1-1.7,0c-0.6,0.1-1.2,0.3-1.7,0.6c-0.3,0.1-0.5,0.3-0.8,0.5c-0.3,0.2-0.5,0.4-0.7,0.7c-0.4,0.5-0.7,1.1-0.8,1.8
			c-0.2,1.4,0,2.9,0.7,4.2c0.6,1.2,1.4,2.2,2.4,3.1c0.7,0.6,1.6,1.1,2.5,1.5c0.3,0.1,0.5,0.2,0.8,0.3l0.3,0.1h-0.3
			c-0.3,0-0.6-0.1-0.9-0.1c-1-0.2-2-0.5-2.9-1.1c-1.3-0.8-2.4-1.8-3.2-3.1c-1-1.5-1.4-3.4-1.2-5.2c0.1-1,0.5-1.9,1.1-2.7
			c0.3-0.4,0.6-0.7,1-1c0.4-0.3,0.8-0.6,1.2-0.8c0.8-0.4,1.7-0.6,2.5-0.6c0.8,0,1.6,0.1,2.3,0.4c1,0.4,1.9,1.1,2.6,2
			c0.2,0.2,0.3,0.5,0.4,0.8L-143.5,423.8z"/>
		<path class="st13" d="M-141.1,419.9c0,0-0.3-0.1-0.8-0.4l-0.4-0.2l-0.5-0.2c-0.3-0.2-0.7-0.3-1.1-0.5l-0.6-0.2l-0.6-0.2
			c-0.4-0.2-1-0.2-1.4-0.4c-0.4-0.1-1-0.2-1.6-0.2c-0.6,0-1.1,0-1.6,0s-1.1,0.1-1.6,0.2s-1.1,0.2-1.6,0.3c-0.5,0.1-1,0.3-1.5,0.4
			c-0.5,0.2-0.9,0.3-1.3,0.5c-0.4,0.1-0.7,0.3-1.1,0.5c-0.3,0.1-0.6,0.3-0.8,0.5c-0.5,0.3-0.8,0.4-0.8,0.4s0.1-0.3,0.4-0.8
			c0.2-0.3,0.3-0.6,0.6-0.9l0.4-0.5c0.2-0.2,0.3-0.3,0.5-0.5c0.4-0.4,0.8-0.7,1.2-1c0.5-0.3,1-0.6,1.6-0.9c0.6-0.2,1.2-0.4,1.8-0.6
			c0.7-0.1,1.3-0.2,2-0.3c0.7,0,1.3,0,2,0.1c0.6,0.1,1.3,0.2,1.9,0.4c0.6,0.2,1.1,0.5,1.6,0.8c0.2,0.2,0.5,0.3,0.7,0.4
			s0.4,0.4,0.6,0.5c0.4,0.3,0.7,0.6,0.9,1c0.1,0.2,0.2,0.3,0.3,0.4l0.2,0.4C-141.2,419.6-141.1,419.9-141.1,419.9z"/>
		<path class="st13" d="M-154.8,448c0,0,0.3-0.2,0.8-0.5c0.7-0.3,1.5-0.6,2.3-0.9c0.9-0.3,2-0.5,3.2-0.8c0.6-0.1,1.2-0.2,1.8-0.3
			s1.2-0.2,1.8-0.3c0.6-0.1,1.1-0.3,1.7-0.4l0.8-0.2c0.3-0.1,0.5-0.2,0.7-0.3l0.4-0.1l0.3-0.2c0.2-0.1,0.4-0.2,0.6-0.3
			c0.4-0.2,0.7-0.5,1-0.8c0.1-0.1,0.3-0.3,0.4-0.4l0.3-0.5c0.1-0.1,0.2-0.3,0.3-0.4l0.2-0.4c0.3-0.5,0.4-0.8,0.4-0.8
			c0.1,0.3,0.1,0.6,0.2,0.9l0.1,0.5c0,0.2,0,0.4-0.1,0.6l-0.1,0.7c-0.1,0.3-0.2,0.5-0.3,0.8c-0.2,0.6-0.6,1.1-1,1.6
			c-0.2,0.2-0.5,0.5-0.7,0.7c-0.3,0.2-0.5,0.4-0.8,0.6c-0.6,0.4-1.2,0.7-1.9,0.9c-0.7,0.2-1.3,0.4-2,0.6c-2.4,0.4-4.8,0.5-7.2,0.2
			c-1-0.1-1.7-0.2-2.3-0.4S-154.8,448-154.8,448z"/>
		<path class="st13" d="M-161,422.6c0,0,0,0.4-0.2,1.2c-0.1,0.4-0.2,0.9-0.2,1.3c0,0.5,0,1.1-0.1,1.6l0.1,1.9l0.2,1l0.1,0.5l0.2,0.5
			c0.1,0.3,0.2,0.7,0.3,1s0.3,0.7,0.5,1c0.1,0.3,0.3,0.7,0.5,1c0.2,0.3,0.4,0.7,0.6,1c0.4,0.7,0.9,1.3,1.4,1.9
			c0.5,0.6,1,1.2,1.5,1.7c0.5,0.6,1,1.1,1.6,1.5s1,0.9,1.5,1.3s1,0.7,1.4,1l1.1,0.7l1,0.6h-0.3c-0.2,0-0.5,0-0.9,0
			c-0.5-0.1-0.9-0.1-1.4-0.2c-0.6-0.1-1.2-0.3-1.8-0.6l-1-0.4c-0.3-0.2-0.6-0.4-1-0.5c-0.7-0.4-1.4-0.9-2-1.4
			c-0.7-0.6-1.3-1.2-1.9-1.8c-0.6-0.7-1.2-1.4-1.7-2.2c-0.3-0.4-0.5-0.8-0.7-1.2c-0.2-0.4-0.4-0.8-0.6-1.3c-0.2-0.4-0.3-0.9-0.4-1.3
			s-0.2-0.9-0.2-1.3l-0.1-0.6c0-0.2,0-0.4,0-0.6c0-0.4,0-0.8,0-1.2c0.1-0.7,0.2-1.5,0.4-2.2c0.2-0.7,0.5-1.3,0.7-1.8
			c0.2-0.4,0.5-0.8,0.7-1.2C-161.3,423-161,422.6-161,422.6z"/>
		<path class="st13" d="M-166.9,426.6c0,0,0-0.5,0-1.3c0-0.5,0-1,0.1-1.5c0.2-1.4,0.6-2.8,1.2-4.2l0.6-1.2c0.2-0.4,0.5-0.8,0.7-1.2
			c0.2-0.4,0.5-0.8,0.9-1.1c0.3-0.4,0.6-0.7,1-1.1c0.7-0.7,1.5-1.3,2.4-1.8l0.6-0.4l0.7-0.3c0.4-0.2,0.9-0.4,1.4-0.6l1.4-0.4
			c0.5-0.1,1-0.2,1.4-0.2c0.5-0.1,0.9-0.1,1.4-0.1c0.4,0,0.9,0,1.3,0.1l1.2,0.2c0.4,0.1,0.7,0.2,1.1,0.3c0.4,0.1,0.7,0.2,1,0.3
			l0.9,0.4c0.3,0.1,0.5,0.2,0.7,0.4s0.4,0.3,0.6,0.4c0.7,0.5,1,0.8,1,0.8s-0.5-0.1-1.3-0.2c-0.2,0-0.4-0.1-0.6-0.1s-0.5-0.1-0.8-0.1
			l-0.9-0.1h-0.9c-0.7,0-1.4,0-2.1,0.1c-0.4,0-0.7,0.1-1.1,0.2c-0.4,0-0.8,0.1-1.1,0.2l-1.1,0.3c-0.4,0.2-0.8,0.3-1.1,0.4
			c-0.4,0.2-0.7,0.3-1.1,0.5l-0.6,0.3l-0.5,0.3c-0.7,0.4-1.4,0.9-2,1.4c-0.6,0.5-1.2,1.1-1.7,1.7c-0.3,0.3-0.5,0.6-0.8,0.9l-0.7,0.9
			c-0.2,0.3-0.4,0.6-0.6,0.9l-0.6,0.9c-0.3,0.6-0.6,1.1-0.9,1.6c-0.2,0.4-0.4,0.9-0.6,1.3C-166.7,426.2-166.9,426.6-166.9,426.6z"/>
		<path class="st13" d="M-149.2,410.3c0,0,0.3-0.1,0.8-0.2c0.3-0.1,0.7-0.1,1-0.1c0.4,0,0.9,0,1.3,0.1c0.5,0.1,1,0.2,1.5,0.3
			c0.5,0.2,1,0.4,1.6,0.6c0.5,0.3,1,0.6,1.5,0.9c0.5,0.4,1,0.7,1.4,1.1c0.4,0.4,0.9,0.9,1.2,1.3c0.4,0.5,0.7,0.9,1,1.4
			c0.3,0.5,0.6,1,0.8,1.5c0.2,0.5,0.4,0.9,0.5,1.4c0.1,0.4,0.2,0.8,0.2,1.2c0,0.3,0,0.7,0,1c0,0.3-0.1,0.6-0.1,0.8
			c0,0-0.2-0.3-0.4-0.7c-0.1-0.2-0.3-0.5-0.4-0.8c-0.2-0.3-0.4-0.6-0.6-1c-0.2-0.4-0.5-0.7-0.8-1.1c-0.3-0.4-0.6-0.7-0.9-1.1
			s-0.7-0.8-1.1-1.1c-0.4-0.4-0.8-0.8-1.1-1.1c-0.4-0.4-0.8-0.7-1.2-1.1l-0.6-0.5l-0.6-0.5c-0.4-0.3-0.8-0.6-1.2-0.8
			s-0.8-0.5-1.1-0.7c-0.4-0.2-0.7-0.4-1-0.5c-0.3-0.1-0.5-0.2-0.8-0.3C-148.9,410.4-149.2,410.3-149.2,410.3z"/>
		<path class="st13" d="M-145.6,438.2l-0.3,0.1c-0.3,0.1-0.7,0.1-1,0.2c-0.5,0.1-1,0.1-1.6,0.1c-0.3,0-0.7,0-1-0.1
			c-0.4,0-0.7-0.1-1.1-0.2c-0.8-0.2-1.6-0.5-2.3-0.8c-0.8-0.4-1.6-0.9-2.3-1.5c-1.6-1.3-2.8-3-3.6-4.9c-0.4-1-0.6-2-0.7-3.1
			c-0.1-1,0-2.1,0.3-3.1c0.5-1.8,1.6-3.3,3.1-4.4c0.3-0.2,0.6-0.4,0.9-0.6c0.3-0.2,0.6-0.3,0.9-0.4c0.5-0.2,1-0.3,1.5-0.4
			c0.4-0.1,0.8-0.1,1-0.1h0.3l-1.1,0.6c-0.3,0.2-0.8,0.5-1.2,0.8c-0.2,0.2-0.5,0.4-0.7,0.6c-0.2,0.2-0.5,0.4-0.7,0.7
			c-0.5,0.5-0.8,1.1-1.1,1.7c-0.3,0.7-0.5,1.4-0.6,2.1c-0.2,1.6,0,3.2,0.6,4.7c0.3,0.8,0.7,1.5,1.1,2.2c0.9,1.3,2,2.5,3.3,3.4
			c0.3,0.2,0.6,0.4,0.9,0.6c0.3,0.2,0.6,0.4,0.9,0.5c0.3,0.1,0.6,0.3,0.9,0.4c0.3,0.1,0.5,0.2,0.8,0.3c0.5,0.2,1,0.3,1.4,0.4
			L-145.6,438.2z"/>
		<path class="st13" d="M-138.2,430.8c0,0,0-0.2,0-0.6c0-0.2,0-0.5,0-0.7c0-0.3,0-0.5,0-0.8s-0.1-0.6-0.1-0.9
			c-0.1-0.3-0.2-0.7-0.3-1c-0.1-0.3-0.2-0.7-0.4-1c-0.2-0.3-0.4-0.6-0.6-0.9c-0.8-1.2-1.8-2.3-2.9-3.2l-1.2-1
			c-0.3-0.2-0.5-0.4-0.5-0.4s0.2,0,0.6,0c0.5,0.1,1.1,0.2,1.6,0.4c0.3,0.1,0.7,0.3,1,0.4c0.4,0.2,0.7,0.4,1.1,0.7
			c0.4,0.3,0.7,0.6,1,0.9c0.3,0.3,0.6,0.7,0.9,1.1c0.3,0.4,0.5,0.8,0.7,1.3c0.2,0.4,0.3,0.9,0.4,1.4c0.1,0.4,0.1,0.9,0,1.3
			c-0.1,0.4-0.1,0.8-0.2,1.1c-0.1,0.3-0.2,0.6-0.4,0.9c-0.1,0.2-0.2,0.4-0.4,0.6C-138,430.6-138.2,430.8-138.2,430.8z"/>
		<path class="st13" d="M-144.9,435.1c0,0,0.1-0.1,0.4-0.3c0.2-0.2,0.6-0.5,1-0.8c0.2-0.2,0.4-0.4,0.5-0.6c0.2-0.2,0.3-0.4,0.5-0.6
			c0.1-0.2,0.2-0.4,0.3-0.7l0.1-0.4l0.1-0.4c0-0.3,0-0.6,0-0.8c0-0.3,0-0.6-0.1-0.9s-0.1-0.6-0.1-0.9c-0.1-0.3-0.1-0.6-0.1-0.8
			c-0.1-0.5-0.1-1-0.2-1.3s0-0.5,0-0.5s0.2,0.1,0.4,0.3c0.3,0.3,0.7,0.6,0.9,1c0.2,0.2,0.4,0.5,0.5,0.8c0.2,0.3,0.3,0.6,0.4,0.9
			c0.1,0.4,0.2,0.7,0.3,1.1c0.1,0.4,0.1,0.8,0,1.3l-0.1,0.7c-0.1,0.2-0.2,0.4-0.2,0.6c-0.4,0.7-1,1.3-1.7,1.7
			c-0.3,0.2-0.6,0.3-0.9,0.4c-0.3,0.1-0.5,0.1-0.8,0.2c-0.2,0-0.4,0-0.6,0C-144.7,435.1-144.9,435.1-144.9,435.1z"/>
		<path class="st13" d="M-139.8,411c0,0-0.4-0.2-1-0.6c-0.2-0.1-0.3-0.2-0.5-0.3l-0.6-0.3l-0.7-0.3l-0.8-0.3
			c-0.3-0.1-0.6-0.2-0.9-0.3s-0.6-0.2-1-0.2c-0.6-0.2-1.4-0.2-2.1-0.4s-1.5-0.2-2.3-0.2c-0.4,0-0.8,0-1.2,0l-1.2,0.1
			c-0.4,0-0.8,0.1-1.2,0.1c-0.4,0-0.8,0.1-1.1,0.2c-0.4,0.1-0.7,0.2-1.1,0.2l-1.1,0.4c-0.3,0.1-0.7,0.2-1,0.4
			c-0.3,0.1-0.6,0.3-0.9,0.4c-0.6,0.3-1.1,0.6-1.6,1l-0.7,0.5c-0.2,0.2-0.4,0.4-0.6,0.5c-0.3,0.3-0.6,0.6-0.9,0.9
			c-0.5,0.6-0.8,0.9-0.8,0.9s0.1-0.4,0.3-1.1c0.1-0.4,0.3-0.9,0.6-1.3c0.1-0.2,0.3-0.5,0.4-0.8l0.6-0.7c0.5-0.6,1-1.1,1.6-1.5
			c0.3-0.2,0.7-0.5,1-0.7c0.3-0.2,0.7-0.4,1.1-0.6l1.2-0.5c0.4-0.1,0.8-0.3,1.3-0.4c0.4-0.1,0.9-0.2,1.3-0.3
			c0.4-0.1,0.9-0.2,1.3-0.2l1.4-0.1c0.4,0,0.9,0,1.3,0.1c0.4,0,0.9,0.1,1.3,0.2l1.3,0.2c0.8,0.2,1.5,0.5,2.3,0.8
			c0.4,0.2,0.7,0.3,1,0.5c0.3,0.2,0.6,0.4,0.9,0.6s0.6,0.4,0.8,0.5l0.7,0.6c0.2,0.2,0.4,0.3,0.6,0.5c0.2,0.2,0.3,0.3,0.4,0.5
			C-140.1,410.6-139.8,411-139.8,411z"/>
		<path class="st13" d="M-136.2,430.2c0,0,0.1,0.3,0.2,0.9c0.1,0.4,0.1,0.7,0.1,1.1c0,0.5,0,1-0.1,1.5c-0.1,0.6-0.2,1.1-0.4,1.7
			c-0.2,0.6-0.5,1.2-0.9,1.7c-0.4,0.6-0.8,1.2-1.2,1.7c-0.5,0.5-1,1-1.6,1.4c-0.6,0.4-1.2,0.7-1.9,1c-0.3,0.1-0.7,0.2-1,0.3
			l-0.5,0.1l-0.5,0.1c-0.3,0-0.7,0.1-1,0.1h-1c-0.6,0-1.1-0.1-1.7-0.3c-0.5-0.1-0.9-0.3-1.3-0.5c-0.3-0.1-0.7-0.3-0.9-0.6
			c-0.5-0.3-0.8-0.5-0.8-0.5s0.4,0,0.9,0.1c0.3,0.1,0.7,0.1,1,0.1c0.4,0,0.8,0,1.3,0l0.7-0.1c0.2,0,0.5,0,0.7-0.1l0.8-0.1l0.8-0.2
			c0.5-0.2,1-0.4,1.5-0.6c0.5-0.3,1-0.6,1.5-0.9c0.2-0.1,0.5-0.3,0.7-0.5c0.2-0.2,0.5-0.4,0.7-0.6c0.2-0.2,0.4-0.4,0.6-0.6
			c0.2-0.2,0.4-0.4,0.6-0.6c0.4-0.4,0.7-0.8,1-1.3c0.2-0.4,0.6-0.8,0.7-1.3c0.2-0.4,0.4-0.8,0.5-1.1c0.1-0.3,0.2-0.7,0.3-1
			C-136.3,430.5-136.2,430.2-136.2,430.2z"/>
		<path class="st13" d="M-154,445.5c0,0-0.4,0.1-1,0.2c-0.3,0-0.7,0.1-1.2,0.1c-0.5,0-1-0.1-1.6-0.2l-0.9-0.2
			c-0.3-0.1-0.6-0.2-0.9-0.3c-0.3-0.1-0.6-0.2-0.9-0.4c-0.3-0.1-0.6-0.3-0.9-0.5l-0.9-0.6c-0.3-0.2-0.6-0.5-0.9-0.7
			c-0.3-0.2-0.6-0.5-0.8-0.8c-0.3-0.3-0.5-0.6-0.8-0.9l-0.7-1c-0.2-0.3-0.4-0.7-0.6-1l-0.3-0.5l-0.2-0.5l-0.4-1
			c-0.2-0.7-0.3-1.4-0.4-2.1c0-0.6,0-1.2,0-1.8c0-0.6,0.1-1.1,0.2-1.5c0.1-0.4,0.2-0.8,0.3-1.1c0.2-0.6,0.3-1,0.3-1s0.1,0.4,0.2,1
			l0.2,1.1c0.1,0.4,0.2,0.9,0.3,1.4c0.1,0.5,0.3,1,0.4,1.6s0.4,1.1,0.6,1.7c0.2,0.6,0.5,1.1,0.9,1.7l0.5,0.8l0.6,0.8
			c1.5,1.9,3.4,3.5,5.5,4.6c0.4,0.2,0.9,0.4,1.3,0.6l1,0.4C-154.4,445.4-154,445.5-154,445.5z"/>
		<path class="st9" d="M-18.9,433.3l0.2-0.1l0.4-0.3c0.4-0.3,0.8-0.6,1.2-1c0.4-0.4,0.7-0.9,1-1.5c0.1-0.3,0.2-0.5,0.3-0.8
			c0-0.2,0-0.4,0-0.5V429l0,0l0,0l0,0l0,0l0,0c-0.1,0-0.1-0.1-0.1-0.1c-0.1-0.1-0.3-0.2-0.5-0.3c-0.2,0-0.5,0-0.7,0.1
			c-0.3,0.1-0.5,0.3-0.8,0.5c-0.4,0.3-0.7,0.7-1,1.1c-0.2,0.3-0.4,0.5-0.4,0.5c0-0.2-0.1-0.4-0.1-0.7c0-0.6,0.1-1.2,0.4-1.8
			c0.2-0.4,0.5-0.8,0.8-1.1c0.4-0.4,1-0.7,1.6-0.8c0.7-0.1,1.4,0,2,0.4c0.1,0.1,0.3,0.2,0.4,0.2h0.1l0,0l0.1,0.1l0.2,0.2
			c0.3,0.3,0.5,0.6,0.7,1c0.3,0.7,0.3,1.4,0.1,2.1c-0.2,0.6-0.5,1.2-0.9,1.6c-0.6,0.8-1.4,1.3-2.4,1.6c-0.6,0.2-1.3,0.2-1.9,0
			C-18.5,433.5-18.7,433.4-18.9,433.3z"/>
		<path class="st9" d="M-20.1,425.3l0.1-0.3c0.1-0.3,0.3-0.5,0.4-0.8c0.7-0.9,1.6-1.7,2.6-2.1c0.8-0.3,1.6-0.4,2.4-0.4
			c0.9,0,1.8,0.3,2.7,0.8c0.4,0.2,0.8,0.5,1.2,0.9c1.2,1.1,1.8,2.5,1.9,4.1c0.1,1.9-0.5,3.8-1.7,5.3c-0.9,1.3-2.1,2.3-3.5,2.9
			c-0.9,0.5-2,0.7-3,0.8c-0.3,0-0.6,0-0.9,0h-0.3l0.3-0.1c0.3-0.1,0.5-0.2,0.8-0.3c0.9-0.4,1.7-0.9,2.5-1.5c1-0.8,1.9-1.8,2.5-3
			c0.7-1.2,0.9-2.6,0.8-4c-0.1-0.6-0.3-1.2-0.6-1.7c-0.2-0.2-0.4-0.5-0.6-0.7c-0.2-0.2-0.5-0.3-0.7-0.5c-0.9-0.6-2-0.8-3.1-0.7
			c-0.5,0-1,0.1-1.5,0.2c-0.4,0.1-0.8,0.2-1.2,0.4c-0.3,0.1-0.6,0.2-0.8,0.3L-20.1,425.3z"/>
		<path class="st9" d="M-22.3,421.3c0,0,0.1-0.3,0.4-0.8l0.2-0.4c0.1-0.1,0.2-0.3,0.4-0.4c0.3-0.4,0.6-0.7,1-1l0.6-0.5
			c0.2-0.1,0.5-0.3,0.7-0.4c0.5-0.3,1.1-0.5,1.7-0.7c0.6-0.2,1.3-0.3,1.9-0.4c0.7-0.1,1.3-0.1,2,0c0.7,0.1,1.3,0.2,2,0.4
			c0.6,0.2,1.2,0.4,1.8,0.7c0.5,0.3,1.1,0.6,1.5,0.9c0.4,0.3,0.8,0.7,1.2,1.1c0.2,0.2,0.3,0.4,0.5,0.5l0.3,0.5
			c0.2,0.3,0.4,0.6,0.5,0.9c0.1,0.3,0.2,0.5,0.3,0.8c0,0-0.3-0.2-0.8-0.5c-0.3-0.2-0.5-0.3-0.8-0.5c-0.3-0.2-0.7-0.4-1.1-0.5
			c-0.4-0.2-0.8-0.3-1.3-0.5c-0.4-0.2-0.9-0.3-1.4-0.5c-0.5-0.1-1-0.3-1.5-0.4s-1.1-0.2-1.6-0.2s-1.1-0.1-1.6-0.1
			c-0.5,0-1,0.1-1.6,0.1c-0.6,0-1,0.1-1.5,0.3l-0.7,0.2l-0.6,0.2c-0.4,0.1-0.7,0.3-1.1,0.4l-0.5,0.2l-0.4,0.2
			C-22,421.2-22.3,421.3-22.3,421.3z"/>
		<path class="st9" d="M-10.2,450c0,0-0.3,0-0.9,0.1c-0.6,0-1.4,0.1-2.3,0.2c-2.4,0.2-4.8,0-7.1-0.6c-0.7-0.2-1.3-0.4-2-0.6
			c-0.6-0.3-1.3-0.6-1.8-1c-0.3-0.2-0.6-0.4-0.8-0.6c-0.2-0.2-0.5-0.4-0.7-0.7c-0.4-0.5-0.7-1-0.9-1.6c-0.1-0.2-0.2-0.5-0.3-0.7
			l-0.1-0.7c0-0.2,0-0.4,0-0.6l0.1-0.5c0-0.3,0.1-0.6,0.2-0.9c0,0,0.1,0.3,0.4,0.8l0.2,0.4c0.1,0.1,0.2,0.3,0.3,0.4l0.3,0.5
			c0.1,0.1,0.3,0.3,0.4,0.5c0.3,0.3,0.6,0.6,1,0.9c0.2,0.1,0.4,0.2,0.6,0.4c0.2,0.1,0.4,0.2,0.7,0.3c0.2,0.1,0.5,0.2,0.7,0.3
			l0.8,0.3c0.5,0.1,1.1,0.3,1.7,0.5c2.3,0.6,4.8,1.1,6.7,1.7c0.8,0.2,1.5,0.5,2.2,0.9C-10.5,449.8-10.2,450-10.2,450z"/>
		<path class="st9" d="M-2.6,425c0,0,0.3,0.4,0.7,1c0.3,0.4,0.5,0.8,0.6,1.2c0.2,0.5,0.4,1.1,0.6,1.8c0.1,0.7,0.2,1.5,0.3,2.2
			l-0.1,1.2c0,0.2,0,0.4,0,0.6l-0.1,0.6c-0.1,0.4-0.2,0.9-0.3,1.3s-0.3,0.9-0.5,1.3c-0.2,0.4-0.4,0.8-0.6,1.2
			c-0.2,0.4-0.5,0.8-0.8,1.2c-0.5,0.7-1.1,1.4-1.8,2.1c-0.6,0.6-1.3,1.2-2,1.7c-0.7,0.5-1.4,0.9-2.1,1.3c-0.4,0.2-0.7,0.4-1,0.5
			l-1,0.4c-0.6,0.2-1.2,0.4-1.8,0.5c-0.5,0.1-1,0.1-1.4,0.2c-0.4,0.1-0.7,0-0.9,0h-0.3l1.1-0.5l1.2-0.7c0.4-0.3,0.9-0.6,1.4-0.9
			s1-0.8,1.6-1.2s1.1-1,1.7-1.4s1.1-1.1,1.6-1.7c0.5-0.6,1-1.2,1.5-1.8c0.2-0.3,0.4-0.6,0.6-1c0.2-0.3,0.4-0.7,0.6-1
			c0.2-0.3,0.3-0.7,0.5-1l0.4-1l0.2-0.5l0.1-0.5l0.2-1l0.2-1.9c0-0.6,0-1.1,0-1.6c0-0.5-0.1-0.9-0.2-1.4C-2.5,425.4-2.6,425-2.6,425
			z"/>
		<path class="st9" d="M3.1,429.2c0,0-0.2-0.4-0.5-1.2c-0.2-0.5-0.3-0.9-0.5-1.4c-0.2-0.5-0.4-1.1-0.8-1.6l-0.5-0.9
			c-0.1-0.2-0.2-0.3-0.2-0.5l-0.3-0.5l-0.6-1c-0.2-0.3-0.5-0.6-0.7-0.9c-0.5-0.6-1-1.2-1.6-1.8c-0.6-0.6-1.2-1.1-1.9-1.6l-0.5-0.4
			l-0.5-0.3c-0.3-0.2-0.7-0.4-1.1-0.6c-0.4-0.2-0.7-0.3-1.1-0.5c-0.4-0.2-0.8-0.2-1.1-0.4c-0.4-0.1-0.7-0.2-1.1-0.3
			c-0.4-0.1-0.7-0.2-1.1-0.2c-0.7-0.1-1.4-0.1-2.1-0.1c-0.3,0-0.6,0-0.9,0l-0.9,0.1l-0.8,0.1l-0.6,0.1c-0.8,0.1-1.3,0.2-1.3,0.2
			s0.4-0.3,1.1-0.7c0.2-0.1,0.4-0.2,0.6-0.4c0.2-0.1,0.5-0.2,0.8-0.3l0.9-0.4c0.3-0.1,0.6-0.2,1-0.3c0.4-0.1,0.7-0.2,1.1-0.2
			c0.4,0,0.8-0.1,1.2-0.1c0.4,0,0.9,0,1.3,0c0.5,0,0.9,0.1,1.4,0.1l1.4,0.3c0.5,0.2,0.9,0.3,1.4,0.5c0.5,0.2,0.9,0.4,1.4,0.6
			l0.7,0.4c0.2,0.1,0.4,0.3,0.6,0.4c0.4,0.3,0.8,0.6,1.2,0.9c0.4,0.3,0.7,0.7,1.1,1s0.6,0.8,0.9,1.1c0.3,0.4,0.6,0.8,0.8,1.2
			c0.2,0.4,0.5,0.8,0.7,1.2l0.5,1.2c0.3,0.7,0.5,1.5,0.7,2.2c0.1,0.7,0.2,1.3,0.3,2c0,0.5,0,1,0,1.5C3.1,428.8,3.1,429.2,3.1,429.2z
			"/>
		<path class="st9" d="M-13.6,412.1c0,0-0.3,0.1-0.8,0.2c-0.3,0.1-0.6,0.2-0.8,0.3c-0.3,0.1-0.6,0.3-1,0.5c-0.4,0.1-0.7,0.4-1.1,0.6
			c-0.4,0.2-0.8,0.5-1.2,0.8l-0.6,0.4c-0.2,0.2-0.4,0.3-0.6,0.5c-0.4,0.3-0.8,0.7-1.2,1s-0.8,0.7-1.2,1.1s-0.8,0.7-1.1,1.1
			c-0.4,0.4-0.7,0.7-1,1.1s-0.6,0.7-0.9,1c-0.2,0.3-0.5,0.6-0.7,0.9s-0.4,0.5-0.5,0.7c-0.3,0.4-0.5,0.7-0.5,0.7
			c0-0.3-0.1-0.6-0.1-0.9c0-0.3,0-0.7,0.1-1c0-0.4,0.1-0.8,0.3-1.2c0.1-0.5,0.3-1,0.5-1.4c0.3-0.5,0.5-1,0.9-1.5
			c0.3-0.5,0.7-1,1.1-1.4c0.4-0.5,0.9-0.9,1.3-1.3c0.5-0.4,1-0.8,1.5-1.1c0.5-0.3,1-0.6,1.6-0.8c0.5-0.2,1.1-0.4,1.6-0.6
			c0.5-0.1,1-0.2,1.5-0.2c0.4,0,0.9,0,1.3,0c0.3,0,0.7,0.1,1,0.2C-13.9,412-13.6,412.1-13.6,412.1z"/>
		<path class="st9" d="M-18.9,439.8l1.3-0.2c0.4-0.1,0.9-0.2,1.4-0.4c0.3-0.1,0.6-0.2,0.8-0.3c0.3-0.1,0.6-0.2,0.9-0.4
			c0.3-0.1,0.6-0.3,0.9-0.5c0.3-0.2,0.6-0.4,0.9-0.6c0.6-0.4,1.3-0.9,1.8-1.4c0.6-0.6,1.1-1.2,1.6-1.8c0.5-0.7,0.9-1.4,1.3-2.1
			c0.4-0.7,0.6-1.5,0.8-2.3c0.2-0.8,0.2-1.5,0.1-2.3c-0.1-0.7-0.2-1.4-0.5-2.1c-0.3-0.6-0.6-1.2-1-1.7c-0.2-0.2-0.4-0.5-0.6-0.7
			c-0.2-0.2-0.4-0.4-0.6-0.6c-0.4-0.4-0.8-0.6-1.1-0.9l-1.1-0.7h0.3c0.2,0,0.6,0.1,1,0.2c0.5,0.1,1,0.3,1.5,0.5
			c0.3,0.1,0.6,0.3,0.9,0.4c0.3,0.2,0.6,0.4,0.9,0.6c1.5,1.1,2.5,2.8,2.8,4.6c0.2,1,0.2,2.1,0.1,3.1c-0.1,1-0.5,2.1-0.9,3
			c-0.9,1.9-2.2,3.5-3.9,4.7c-0.7,0.6-1.6,1-2.4,1.4c-0.8,0.3-1.6,0.6-2.4,0.7c-0.4,0.1-0.7,0.1-1.1,0.1c-0.3,0-0.7,0-1,0
			c-0.5,0-1-0.1-1.6-0.2c-0.3-0.1-0.7-0.1-1-0.2L-18.9,439.8z"/>
		<path class="st9" d="M-25.8,432c-0.2-0.2-0.3-0.3-0.4-0.5c-0.2-0.2-0.3-0.4-0.4-0.6c-0.2-0.3-0.3-0.6-0.4-0.9
			c-0.1-0.4-0.2-0.8-0.2-1.2c0-0.5,0-0.9,0.1-1.4c0.1-0.5,0.2-1,0.4-1.4c0.2-0.5,0.5-0.9,0.8-1.3c0.6-0.8,1.3-1.4,2.1-1.9
			c0.4-0.2,0.7-0.4,1.1-0.6c0.4-0.1,0.7-0.3,1.1-0.4c0.6-0.1,1.1-0.2,1.7-0.2c0.2,0,0.4,0,0.7,0.1c0,0-0.2,0.2-0.5,0.4l-1.2,1.1
			c-1,1-2,2-2.9,3.1c-0.2,0.3-0.4,0.6-0.6,0.9c-0.2,0.3-0.3,0.6-0.5,0.9c-0.1,0.3-0.3,0.6-0.4,0.9c-0.1,0.3-0.2,0.6-0.2,0.9
			l-0.2,0.8c0,0.2-0.1,0.5-0.1,0.7C-25.8,431.6-25.8,431.8-25.8,432z"/>
		<path class="st9" d="M-19.4,436.7c-0.2,0-0.4,0.1-0.5,0.1c-0.2,0-0.4,0-0.6,0c-0.3,0-0.6-0.1-0.8-0.1c-0.7-0.2-1.4-0.6-1.9-1.1
			c-0.3-0.3-0.6-0.7-0.8-1.2c-0.1-0.2-0.2-0.5-0.2-0.7l-0.1-0.7c0-0.9,0.2-1.7,0.5-2.5c0.2-0.3,0.3-0.6,0.5-0.9
			c0.2-0.3,0.4-0.5,0.6-0.7c0.3-0.3,0.7-0.6,1.1-0.9c0.2-0.1,0.3-0.2,0.5-0.3c0,0.2,0,0.4,0,0.6c0,0.3-0.1,0.8-0.1,1.3
			c0,0.3-0.1,0.5-0.1,0.8s-0.1,0.6-0.1,0.9s-0.1,0.6-0.1,0.8s0,0.5,0,0.8c0,0.2,0,0.4,0.1,0.6c0.1,0.4,0.3,0.9,0.5,1.2
			c0.1,0.2,0.3,0.4,0.4,0.6c0.3,0.4,0.6,0.7,0.8,1C-19.6,436.4-19.5,436.5-19.4,436.7z"/>
		<path class="st9" d="M-22.4,412.3c0,0,0.2-0.4,0.7-0.9c0.1-0.1,0.2-0.3,0.4-0.5s0.4-0.3,0.6-0.5l0.7-0.6c0.3-0.2,0.5-0.4,0.8-0.5
			c0.3-0.2,0.6-0.4,0.9-0.5c0.3-0.2,0.7-0.3,1-0.4c0.8-0.3,1.5-0.5,2.3-0.7c0.4-0.1,0.8-0.1,1.3-0.2l0.6-0.1h0.7c0.4,0,0.9,0,1.4,0
			l1.4,0.1c0.4,0.1,0.9,0.2,1.3,0.3c0.4,0.1,0.9,0.2,1.3,0.4l1.2,0.5c0.4,0.2,0.8,0.4,1.2,0.6c0.4,0.2,0.7,0.4,1.1,0.7
			c0.3,0.3,0.7,0.5,1,0.8c0.6,0.5,1.1,1,1.5,1.6c0.2,0.3,0.4,0.5,0.5,0.8s0.3,0.6,0.4,0.8c0.2,0.4,0.4,0.9,0.5,1.3
			c0.2,0.8,0.2,1.2,0.2,1.2s-0.3-0.4-0.7-0.9c-0.3-0.4-0.5-0.7-0.9-1c-0.2-0.2-0.3-0.4-0.5-0.6l-0.7-0.5c-0.5-0.4-1-0.7-1.5-1.1
			c-0.3-0.2-0.6-0.3-0.9-0.5c-0.3-0.2-0.7-0.3-1-0.4l-1-0.4l-1.1-0.3c-0.7-0.2-1.5-0.3-2.2-0.5l-1.1-0.1l-1.1-0.1
			c-0.8-0.1-1.5,0-2.2,0s-1.5,0.1-2.1,0.3c-0.3,0.1-0.6,0.1-1,0.2c-0.4,0-0.6,0.2-0.9,0.2c-0.5,0.1-1,0.3-1.5,0.5l-0.7,0.2
			c-0.2,0.1-0.4,0.2-0.6,0.3C-22,412.1-22.4,412.3-22.4,412.3z"/>
		<path class="st9" d="M-27.8,431.3c0,0,0.1,0.3,0.2,0.9c0.1,0.3,0.2,0.7,0.3,1c0.1,0.4,0.3,0.8,0.5,1.2c0.1,0.4,0.5,0.8,0.7,1.3
			c0.2,0.4,0.5,0.9,0.9,1.3c0.2,0.2,0.3,0.4,0.5,0.6c0.2,0.2,0.4,0.4,0.6,0.6c0.2,0.2,0.4,0.4,0.6,0.6c0.2,0.2,0.4,0.4,0.6,0.5
			c0.4,0.3,0.9,0.7,1.4,0.9c0.5,0.3,1,0.5,1.5,0.7l0.7,0.3l0.7,0.2c0.2,0.1,0.5,0.1,0.7,0.1l0.7,0.1c0.5,0.1,0.9,0,1.3,0.1
			c0.3,0,0.7,0,1,0c0.6,0,0.9,0,0.9,0s-0.3,0.2-0.8,0.6c-0.3,0.2-0.6,0.4-1,0.5c-0.4,0.2-0.9,0.4-1.4,0.5c-0.6,0.1-1.1,0.2-1.7,0.2
			h-1c-0.3,0-0.7-0.1-1-0.2c-0.3,0-0.7-0.1-1-0.3c-0.3-0.1-0.7-0.2-1-0.4c-0.7-0.3-1.3-0.7-1.9-1.1c-0.6-0.4-1.1-0.9-1.6-1.5
			c-0.4-0.5-0.8-1.1-1.2-1.8c-0.3-0.6-0.6-1.2-0.7-1.8c-0.2-0.6-0.2-1.1-0.3-1.7c-0.1-0.5-0.1-1,0-1.5c0-0.4,0.1-0.7,0.2-1.1
			C-27.9,431.6-27.8,431.3-27.8,431.3z"/>
		<path class="st9" d="M-10.9,447.5c0,0,0.4-0.1,1-0.2l1-0.4c0.4-0.2,0.8-0.3,1.3-0.6c2.2-1,4.1-2.5,5.7-4.4l0.6-0.7l0.5-0.8
			c0.4-0.5,0.6-1.1,1-1.6c0.4-0.5,0.5-1.1,0.7-1.6c0.2-0.5,0.4-1,0.6-1.5s0.3-1,0.4-1.4l0.3-1.1c0.1-0.6,0.3-1,0.3-1s0.1,0.4,0.3,1
			c0.1,0.4,0.2,0.8,0.2,1.2c0,0.5,0.1,1,0.1,1.6c0,0.6,0,1.2-0.1,1.9c-0.1,0.7-0.3,1.4-0.5,2.1l-0.4,1l-0.2,0.5l-0.3,0.5
			c-0.2,0.3-0.4,0.7-0.6,1l-0.7,0.9c-0.3,0.3-0.5,0.6-0.8,0.9c-0.3,0.3-0.6,0.5-0.9,0.8c-0.3,0.2-0.6,0.5-0.9,0.7s-0.6,0.4-1,0.6
			c-0.3,0.2-0.7,0.3-1,0.5c-0.3,0.1-0.7,0.3-1,0.4c-0.3,0.1-0.6,0.2-0.9,0.3l-0.9,0.1c-0.5,0.1-1,0.1-1.6,0.1
			c-0.5,0-0.9-0.1-1.2-0.1C-10.5,447.6-10.9,447.5-10.9,447.5z"/>
	</g>
</g>
<circle class="st4" cx="-47.3" cy="429.8" r="97.5"/>
<line class="st4" x1="-202.4" y1="476.9" x2="-122.4" y2="367.6"/>
<line class="st14" x1="-195" y1="495.3" x2="-65.7" y2="525.4"/>
</svg>
