<?xml version="1.0" encoding="utf-8"?>
<!-- Generator: Adobe Illustrator 19.1.0, SVG Export Plug-In . SVG Version: 6.00 Build 0)  -->
<svg version="1.1" xmlns="http://www.w3.org/2000/svg" xmlns:xlink="http://www.w3.org/1999/xlink" x="0px" y="0px" width="127.6px"
	 height="101.4px" viewBox="0 0 127.6 101.4" style="enable-background:new 0 0 127.6 101.4;" xml:space="preserve">
<style type="text/css">
	.st0{display:none;}
	.st1{display:inline;fill:#F05135;}
	.st2{display:inline;fill:#083B54;}
	.st3{display:inline;fill:#6ACAD1;}
	.st4{display:inline;fill:#F59223;}
	.st5{display:inline;fill:none;stroke:#F05135;stroke-width:2.5;stroke-miterlimit:10;}
	.st6{display:inline;fill:none;stroke:#083B54;stroke-width:2.5;stroke-miterlimit:10;}
	.st7{display:inline;fill:none;stroke:#6ACAD1;stroke-width:2.5;stroke-miterlimit:10;}
	.st8{display:inline;fill:none;stroke:#F59223;stroke-width:2.5;stroke-miterlimit:10;}
	.st9{display:inline;fill:#FDD9C8;stroke:#F05135;stroke-width:2.5;stroke-miterlimit:10;}
	.st10{display:inline;fill:#D3D5DB;stroke:#083B54;stroke-width:2.5;stroke-miterlimit:10;}
	.st11{display:inline;fill:#E0F2F3;stroke:#6ACAD1;stroke-width:2.5;stroke-miterlimit:10;}
	.st12{display:inline;fill:#FEE5CB;stroke:#F59223;stroke-width:2.5;stroke-miterlimit:10;}
	.st13{display:inline;fill:#FFFFFF;stroke:#F05135;stroke-width:2.5;stroke-miterlimit:10;}
	.st14{display:inline;fill:#FFFFFF;stroke:#083B54;stroke-width:2.5;stroke-miterlimit:10;}
	.st15{display:inline;fill:#FFFFFF;stroke:#6ACAD1;stroke-width:2.5;stroke-miterlimit:10;}
	.st16{display:inline;fill:#FFFFFF;stroke:#F59223;stroke-width:2.5;stroke-miterlimit:10;}
	.st17{display:inline;}
	.st18{display:inline;fill:#FFFFFF;}
	.st19{fill:#FFFFFF;}
	.st20{fill:#E0F2F3;}
	.st21{fill:#D3D5DB;stroke:#D3D5DB;stroke-linejoin:round;stroke-miterlimit:10;}
	.st22{fill:#FFFFFF;stroke:#6ACAD1;stroke-width:2.5;stroke-linejoin:round;stroke-miterlimit:10;}
	.st23{fill:#063B54;}
	.st24{fill:#FFFFFF;stroke:#6ACAD1;stroke-width:2.5;stroke-miterlimit:10;}
	.st25{fill:#E0F2F3;stroke:#6ACAD1;stroke-width:2.5;stroke-linejoin:round;stroke-miterlimit:10;}
	.st26{fill:none;stroke:#6ACAD1;stroke-width:1.5;stroke-miterlimit:10;}
	.st27{fill:#D3D5DB;}
	.st28{fill:#E0F2F3;stroke:#6ACAD1;stroke-width:2.5;stroke-miterlimit:10;}
	.st29{fill:#083B54;}
	.st30{fill:#F05135;}
	.st31{fill:#F59223;}
	.st32{fill:none;stroke:#6ACAD1;stroke-width:2.5;stroke-miterlimit:10;}
	.st33{fill:none;stroke:#F05135;stroke-miterlimit:10;}
	.st34{fill:none;stroke:#D3D5DB;stroke-width:0.5;stroke-miterlimit:10;}
	.st35{fill:#083B54;stroke:#063B54;stroke-width:0.5;stroke-linejoin:round;stroke-miterlimit:10;}
	.st36{fill:none;stroke:#063B54;stroke-width:0.7;stroke-miterlimit:10;}
	.st37{fill:none;stroke:#D3D5DB;stroke-width:0.3;stroke-miterlimit:10;}
	.st38{fill:none;stroke:#6ACAD1;stroke-width:2.5;stroke-linejoin:round;stroke-miterlimit:10;}
	.st39{fill:none;stroke:#F05135;stroke-width:2.5;stroke-linecap:round;stroke-miterlimit:10;}
	.st40{fill:#083B54;stroke:#063B54;stroke-linejoin:round;stroke-miterlimit:10;}
	.st41{fill:none;stroke:#E0F2F3;stroke-miterlimit:10;}
	.st42{fill:none;stroke:#6ACAD1;stroke-linecap:round;stroke-linejoin:round;stroke-miterlimit:10;}
	.st43{fill:none;stroke:#6ACAD1;stroke-width:2.5;stroke-linecap:round;stroke-linejoin:round;stroke-miterlimit:10;}
	.st44{fill:#F05135;stroke:#F05235;stroke-linejoin:round;stroke-miterlimit:10;}
	.st45{fill:none;stroke:#F05135;stroke-width:2;stroke-linecap:round;stroke-miterlimit:10;}
	.st46{fill:none;stroke:#E0F2F3;stroke-width:1.5;stroke-linecap:round;stroke-miterlimit:10;}
	.st47{fill:none;stroke:#FCC941;stroke-width:2;stroke-miterlimit:10;}
	.st48{fill:#6ACAD1;}
	.st49{fill:none;stroke:#063B54;stroke-width:2.5;stroke-miterlimit:10;}
</style>
<g id="template" class="st0">
	<g id="nNZJUW_1_" class="st17">
		
			<image style="overflow:visible;" width="938" height="388" id="nNZJUW_2_" xlink:href="568664F3E96EB4C2.png"  transform="matrix(1 0 0 1 -717.1157 -291.8916)">
		</image>
	</g>
	<rect x="-700.1" y="-163.6" class="st18" width="949" height="270.1"/>
	<g class="st17">
		<g id="Kopayy_1_">
			
				<image style="overflow:visible;" width="949" height="694" id="Kopayy_2_" xlink:href="568664F3E96EB4C6.png"  transform="matrix(1 0 0 1 -700.1157 -71.9044)">
			</image>
		</g>
	</g>
</g>
<g id="Layer_3">
	<circle class="st20" cx="64" cy="50.7" r="50.7"/>
</g>
<g id="stuffs">
	<polygon class="st21" points="126.3,83.1 104,43.1 24,43.1 1.7,83.1 	"/>
	<polygon class="st22" points="126.3,79.1 103,39.1 25,39.1 1.7,79.1 	"/>
	<g>
		<circle class="st30" cx="29.1" cy="63.3" r="2.6"/>
		<circle class="st30" cx="40.7" cy="59.9" r="2.6"/>
		<circle class="st30" cx="52.4" cy="54.5" r="2.6"/>
		<circle class="st30" cx="64" cy="60.7" r="2.6"/>
		<circle class="st30" cx="75.6" cy="57.1" r="2.6"/>
		<circle class="st30" cx="87.3" cy="60.7" r="2.6"/>
		<circle class="st30" cx="98.9" cy="58.1" r="2.6"/>
		<polyline class="st33" points="29.1,63.3 40.7,59.9 52.4,54.5 64,60.7 75.6,57.1 87.3,60.7 98.9,58.1 		"/>
	</g>
	<g>
		<ellipse class="st27" cx="29.1" cy="71.1" rx="2.6" ry="1.4"/>
		<ellipse class="st27" cx="40.7" cy="69.2" rx="2.6" ry="1.4"/>
		<ellipse class="st27" cx="52.4" cy="66.2" rx="2.6" ry="1.4"/>
		<ellipse class="st27" cx="64" cy="69.7" rx="2.6" ry="1.4"/>
		<ellipse class="st27" cx="75.6" cy="67.7" rx="2.6" ry="1.4"/>
		<ellipse class="st27" cx="87.3" cy="69.7" rx="2.6" ry="1.4"/>
		<ellipse class="st27" cx="98.9" cy="68.2" rx="2.6" ry="1.4"/>
		<polyline class="st34" points="29.1,71.1 40.7,69.2 52.4,66.2 64,69.7 75.6,67.7 87.3,69.7 98.9,68.2 		"/>
	</g>
	<g>
		<circle class="st35" cx="36.4" cy="47.5" r="2.1"/>
		<circle class="st35" cx="46.1" cy="42.6" r="2.1"/>
		<circle class="st35" cx="55.8" cy="33.1" r="2.1"/>
		<circle class="st35" cx="65.4" cy="42.6" r="2.1"/>
		<circle class="st35" cx="75.1" cy="44" r="2.1"/>
		<circle class="st35" cx="84.8" cy="37.4" r="2.1"/>
		<circle class="st35" cx="94.4" cy="45.4" r="2.1"/>
		<polyline class="st36" points="36.4,47.5 46.1,42.6 55.8,33.1 65.4,42.6 75.1,44 84.8,37.4 94.4,45.4 		"/>
	</g>
	<g>
		<ellipse class="st27" cx="36.4" cy="51.9" rx="2.1" ry="1"/>
		<ellipse class="st27" cx="46.1" cy="49.6" rx="2.1" ry="1"/>
		<ellipse class="st27" cx="55.8" cy="44.8" rx="2.1" ry="1"/>
		<ellipse class="st27" cx="65.4" cy="49.6" rx="2.1" ry="1"/>
		<ellipse class="st27" cx="75.1" cy="50.2" rx="2.1" ry="1"/>
		<ellipse class="st27" cx="84.8" cy="47.2" rx="2.1" ry="1"/>
		<ellipse class="st27" cx="94.4" cy="50.9" rx="2.1" ry="1"/>
		<polyline class="st37" points="36.4,51.9 46.1,49.6 55.8,44.8 65.4,49.6 75.1,50.2 84.8,47.2 94.4,50.9 		"/>
	</g>
</g>
</svg>
